<svg xmlns="http://www.w3.org/2000/svg" width="419.293" height="815.08" viewBox="0 0 314.47 611.31"><defs><clipPath id="a"><path d="M0 220h314.469v391.309H0zm0 0"/></clipPath></defs><path style="stroke:none;fill-rule:nonzero;fill:#ee2830;fill-opacity:1" d="m218.703 228.063-122.46.457s-6.25-3.813-9.302-6.711c-3.05-2.899-4.726-6.25-4.726-6.25s23.332-15.555 74.726-15.864c51.391-.304 74.875 16.32 74.875 16.32s-.914 2.895-5.336 6.555c-4.421 3.66-7.777 5.493-7.777 5.493"/><path style="stroke:none;fill-rule:nonzero;fill:#ee2830;fill-opacity:1" d="M49.582 149.523s17.89-11.488 45.75-19.824c27.856-8.336 54.594-5.183 54.594-5.183h14.64s26.739-3.153 54.594 5.183c27.856 8.336 45.75 19.824 45.75 19.824s-14.844 16.672-21.351 28.875c-6.504 12.2-10.164 21.551-10.164 21.551s-50.836-10.164-76.864-9.758c-26.023.407-75.636 10.98-75.636 10.98s-9.762-20.331-18.707-31.722c-8.95-11.387-12.606-19.926-12.606-19.926"/><path style="stroke:none;fill-rule:nonzero;fill:#231f20;fill-opacity:1" d="M164.566 125.734h.07l.071-.007c.266-.032 26.828-3.024 54.102 5.14 23.382 6.996 39.824 16.309 44.226 18.942-3.402 3.914-14.93 17.468-20.55 28.015-5.348 10.024-8.782 18.145-9.844 20.738-6.98-1.363-52.184-9.964-76.125-9.59-23.961.376-68.207 9.407-74.942 10.81-1.953-3.962-10.535-21.036-18.426-31.087-7.12-9.058-10.84-16.273-12-18.703 3.957-2.387 20.641-11.976 44.532-19.125 27.277-8.164 53.84-5.172 54.101-5.14l.074.007zm-.066-2.441h-14.512c-1.082-.121-27.668-2.945-55.008 5.238-27.703 8.29-45.878 19.852-46.058 19.965l-.871.559.406.949c.152.355 3.828 8.82 12.77 20.2 8.761 11.151 18.468 31.292 18.566 31.495l.414.867.941-.203c.497-.105 49.793-10.55 75.403-10.953 25.597-.398 76.097 9.637 76.601 9.738l1.004.2.371-.953c.04-.094 3.715-9.434 10.11-21.422 6.363-11.93 21.035-28.473 21.183-28.637l.95-1.066-1.2-.774c-.18-.113-18.36-11.676-46.058-19.965-27.344-8.183-53.926-5.36-55.012-5.238"/><path style="stroke:none;fill-rule:nonzero;fill:#cfb07d;fill-opacity:1" d="M75.2 198.73s-4.966-9.558-10.169-17.285c-6.707-9.96-16.828-20.902-28.465-30.703-7.726-6.504-22.367-18.504-23.18-33.344-.812-14.843 9.15-28.261 27.45-29.484 18.3-1.219 38.629 4.457 56.934 4.68 33.753.402 53.273-12.61 53.273-12.61h12.402s19.52 13.012 53.274 12.61c18.304-.223 38.633-5.899 56.933-4.68 18.301 1.223 28.262 14.64 27.45 29.484-.813 14.84-15.454 26.84-23.18 33.344-11.633 9.801-21.758 20.742-28.465 30.703-5.203 7.727-10.168 17.285-10.168 17.285l-2.234 2.645-7.118-2.238 2.844-6.102s5.29-13.012 13.016-25.414c7.726-12.402 14.027-17.894 19.926-24.195 5.898-6.305 9.547-12.938 8.742-21.758-.61-6.711-5.477-14.754-15.86-15.656-9.351-.817-22.761 1-32.53.61-20.337-.813-29.079-3.052-41.887-6.712-13.356-3.812-19.93-8.133-19.93-8.133H150.23s-6.574 4.32-19.925 8.133c-12.813 3.66-21.555 5.899-41.887 6.711-9.773.39-23.184-1.426-32.535-.61-10.38.903-15.25 8.946-15.86 15.657-.804 8.82 2.848 15.453 8.743 21.758 5.898 6.3 12.199 11.793 19.925 24.195 7.727 12.402 13.016 25.414 13.016 25.414l2.234 5.086-6.504 4.066"/><path style="stroke:none;fill-rule:nonzero;fill:#231f20;fill-opacity:1" d="M163.09 81.203c2.668 1.692 21.738 12.992 53.644 12.61 8.11-.098 16.739-1.274 25.082-2.41 10.625-1.45 21.614-2.946 31.754-2.27 15.743 1.047 26.36 11.847 26.36 26.504 0 .558-.016 1.125-.043 1.695-.77 13.988-14.73 25.734-22.23 32.043l-.52.434c-11.688 9.843-21.875 20.84-28.692 30.957-5.007 7.433-9.808 16.582-10.172 17.277-.12.144-1.043 1.234-1.628 1.926-.97-.305-3.493-1.098-5.012-1.578.738-1.586 2.258-4.836 2.258-4.836.074-.188 5.363-13.121 12.941-25.29 6.234-10.003 11.43-15.359 16.457-20.538l3.324-3.47c6.285-6.718 9.184-13.034 9.184-20.175 0-.828-.04-1.672-.117-2.523-.696-7.668-6.211-15.829-16.965-16.762-5.188-.453-11.621-.11-17.844.226-5.094.274-10.363.555-14.75.38-20.226-.81-28.984-3.06-41.598-6.665-12.984-3.71-19.53-7.937-19.593-7.98-.2-.13-.434-.2-.668-.2H150.23c-.238 0-.472.07-.667.2-.067.043-6.614 4.27-19.594 7.98-12.617 3.606-21.375 5.856-41.602 6.664-4.387.176-9.652-.105-14.746-.379-6.223-.332-12.66-.68-17.844-.226-10.754.933-16.273 9.094-16.968 16.762a27.655 27.655 0 0 0-.118 2.523c0 7.14 2.899 13.457 9.184 20.176l3.324 3.469c5.028 5.18 10.227 10.535 16.457 20.539 7.578 12.168 12.867 25.101 12.922 25.23l1.824 4.149c-1.09.683-3.379 2.113-4.593 2.87-.641-.992-1.516-2.335-1.555-2.402-.192-.367-5.106-9.765-10.211-17.347-6.816-10.118-17.004-21.114-28.691-30.957l-.52-.434c-7.5-6.309-21.46-18.055-22.227-32.043a31.018 31.018 0 0 1-.046-1.695c0-14.657 10.617-25.457 26.359-26.504 10.14-.676 21.129.82 31.754 2.27 8.344 1.136 16.973 2.312 25.082 2.41 31.906.382 50.98-10.918 53.648-12.61zm-12.047-2.437c-.238 0-.477.07-.676.203-.191.129-19.644 12.797-52.582 12.402-7.96-.094-16.512-1.262-24.785-2.387-10.742-1.464-21.855-2.98-32.242-2.289-17.762 1.188-29.52 13.836-28.59 30.77.824 15.043 15.312 27.23 23.094 33.777l.52.438c11.515 9.699 21.546 20.511 28.238 30.449 5.101 7.574 10.046 17.07 10.097 17.164l.059.102 2.238 3.457c.36.558 1.106.722 1.668.37l6.508-4.066a1.22 1.22 0 0 0 .469-1.527l-2.235-5.082c-.039-.102-5.402-13.223-13.097-25.57-6.368-10.227-11.899-15.922-16.774-20.95l-3.297-3.433c-6.586-7.043-9.105-13.27-8.418-20.817.606-6.656 5.403-13.738 14.75-14.55 5.016-.438 11.36-.098 17.5.234 5.153.273 10.477.559 14.977.379 20.504-.82 29.383-3.102 42.172-6.754 12.047-3.445 18.554-7.23 19.941-8.09h13.332c1.387.86 7.895 4.645 19.942 8.09 12.789 3.652 21.668 5.934 42.171 6.754 4.5.18 9.825-.102 14.977-.38 6.14-.327 12.484-.67 17.504-.233 9.348.812 14.144 7.894 14.75 14.55.683 7.547-1.832 13.774-8.422 20.817l-3.297 3.433c-4.875 5.028-10.402 10.723-16.773 20.95-7.696 12.347-13.055 25.468-13.11 25.601l-2.82 6.043a1.218 1.218 0 0 0 .738 1.68l7.118 2.238c.468.145.98 0 1.296-.375l2.239-2.644c.058-.07.109-.145.148-.227.05-.094 4.996-9.59 10.098-17.164 6.691-9.938 16.722-20.75 28.242-30.45l.516-.437c7.78-6.547 22.27-18.734 23.093-33.777.93-16.934-10.828-29.582-28.586-30.77-10.39-.691-21.5.825-32.246 2.29-8.27 1.124-16.824 2.292-24.781 2.386-32.937.395-52.39-12.273-52.586-12.402a1.215 1.215 0 0 0-.676-.203"/><path style="stroke:none;fill-rule:nonzero;fill:#eaeb97;fill-opacity:1" d="M146.547 51.617c0-5.894 4.8-10.691 10.695-10.691 5.903 0 10.7 4.797 10.7 10.691 0 5.899-4.797 10.7-10.7 10.7-5.894 0-10.695-4.801-10.695-10.7m-.61 0c0 6.238 5.075 11.309 11.305 11.309 6.238 0 11.309-5.07 11.309-11.309 0-6.23-5.07-11.304-11.309-11.304-6.23 0-11.304 5.074-11.304 11.304"/><path style="stroke:none;fill-rule:nonzero;fill:#cfb07d;fill-opacity:1" d="M124.813 184.496s-2.208-6.32-8.54-16.875c-7.32-12.2-16.675-21.351-29.28-35.379-6.247-6.953-22.364-29.687-12.81-46.765 10.524-18.809 28.876-18.915 44.329-17.286 15.05 1.586 32.125 11.184 32.125 11.184h13.215s17.078-9.598 32.128-11.184c15.454-1.629 33.805-1.523 44.329 17.286 9.554 17.078-6.567 39.812-12.813 46.765-12.605 14.028-21.96 23.18-29.277 35.38-6.336 10.554-8.543 16.874-8.543 16.874l-8.742-.406s3.254-8.742 7.32-16.672c6.39-12.461 13.012-22.57 20.535-32.328 5.79-7.508 11.793-16.067 15.86-25.621 3.359-7.887 1.39-18.578-5.692-23.992-10.371-7.934-24.605-5.493-31.926-4.07-7.316 1.425-21.144 6.1-21.144 6.1h-17.285s-13.825-4.675-21.145-6.1c-7.32-1.423-21.555-3.864-31.926 4.07-7.078 5.414-9.047 16.105-5.691 23.992 4.066 9.554 10.074 18.113 15.86 25.62 7.523 9.759 14.148 19.868 20.538 32.329 4.067 7.93 7.32 16.672 7.32 16.672"/><path style="stroke:none;fill-rule:nonzero;fill:#231f20;fill-opacity:1" d="M163.852 80.594c.21 0 .418-.055.597-.156.172-.094 17.04-9.493 31.656-11.032 16.586-1.746 33.29-.937 43.137 16.664 1.961 3.504 2.781 7.32 2.781 11.223 0 13.082-9.191 27.187-15.433 34.133l-7.219 7.933c-9.101 9.938-16.289 17.786-22.2 27.633-5.124 8.54-7.53 14.23-8.32 16.246-1.12-.05-4.25-.199-6.171-.289 1.12-2.855 3.68-9.168 6.66-14.972 5.906-11.524 12.394-21.735 20.418-32.145 5.195-6.738 11.71-15.777 16.015-25.887 1.145-2.691 1.692-5.605 1.692-8.515 0-6.586-2.805-13.13-7.766-16.922-11.148-8.528-26.39-5.563-32.898-4.297-6.973 1.355-19.453 5.52-21.113 6.078h-16.883c-1.66-.559-14.145-4.723-21.118-6.078-6.507-1.266-21.746-4.23-32.894 4.297-4.961 3.793-7.766 10.336-7.766 16.922 0 2.91.543 5.824 1.692 8.515 4.3 10.11 10.816 19.149 16.015 25.887 8.02 10.41 14.508 20.621 20.418 32.145 2.977 5.804 5.54 12.117 6.66 14.972l-6.175.29c-.79-2.016-3.196-7.708-8.317-16.247-5.91-9.847-13.097-17.695-22.199-27.633l-7.223-7.933c-6.242-6.946-15.43-21.051-15.43-34.133 0-3.902.817-7.719 2.778-11.223 9.848-17.601 26.555-18.41 43.137-16.664 14.62 1.54 31.488 10.938 31.656 11.031.184.102.39.157.598.157zm32-13.617c-14.282 1.503-30.004 9.91-32.313 11.18h-12.586c-2.308-1.27-18.031-9.677-32.316-11.18-16.578-1.743-34.95-.985-45.52 17.902-9.203 16.45 4.457 38.707 12.969 48.176l7.234 7.953c9.008 9.836 16.121 17.601 21.907 27.242 6.18 10.3 8.414 16.59 8.433 16.652.18.508.672.84 1.211.817l8.742-.41a1.21 1.21 0 0 0 .961-.543c.215-.325.262-.735.125-1.102-.031-.086-3.324-8.898-7.375-16.8-5.98-11.66-12.543-21.993-20.66-32.52-5.105-6.625-11.508-15.496-15.703-25.352-3.324-7.82-.992-17.726 5.312-22.547 10.278-7.86 24.766-5.043 30.95-3.84 7.156 1.391 20.851 6.012 20.988 6.06.129.042.258.062.39.062h17.286c.133 0 .265-.02.39-.063.137-.047 13.832-4.668 20.989-6.059 6.187-1.203 20.672-4.02 30.949 3.84 6.308 4.82 8.64 14.727 5.312 22.547-4.195 9.856-10.593 18.727-15.703 25.352-8.117 10.527-14.68 20.86-20.656 32.52-4.055 7.902-7.348 16.714-7.379 16.8a1.216 1.216 0 0 0 1.086 1.645l8.746.41a1.224 1.224 0 0 0 1.207-.817c.024-.062 2.254-6.351 8.434-16.652 5.785-9.64 12.898-17.406 21.906-27.242l7.234-7.953c8.512-9.47 22.172-31.727 12.97-48.176-10.567-18.883-28.938-19.645-45.52-17.902"/><path style="stroke:none;fill-rule:nonzero;fill:#eaeb97;fill-opacity:1" d="M148.254.914c-1.024 0-1.856.387-2.348 1.086-.492.7-.57 1.613-.222 2.574l3.77 10.422c.269.738.25 1.332-.052 1.633-.3.3-.894.32-1.632.055l-11.59-4.192c-.961-.344-1.875-.265-2.575.227-.699.488-1.085 1.324-1.085 2.344v17.984c0 1.023.386 1.855 1.085 2.348.7.488 1.614.57 2.575.218l13.539-4.894c.738-.27 1.347-.242 1.672.066.324.313.37.922.129 1.668l-4.575 14.48.582.184 4.575-14.476c.316-.993.214-1.805-.29-2.293-.503-.485-1.32-.559-2.3-.203l-13.54 4.898c-.769.277-1.484.227-2.019-.148-.531-.375-.824-1.032-.824-1.848V15.063c0-.817.293-1.473.824-1.844.535-.375 1.25-.43 2.02-.153l11.59 4.192c.984.355 1.789.285 2.269-.195.484-.485.55-1.29.195-2.274l-3.77-10.422c-.277-.77-.226-1.484.15-2.02.37-.53 1.03-.824 1.847-.824h17.98c.82 0 1.477.293 1.848.825.375.535.426 1.25.148 2.02l-3.77 10.421c-.355.98-.284 1.79.196 2.27.485.48 1.29.55 2.274.199l11.586-4.192c.77-.277 1.488-.222 2.02.153.53.37.823 1.027.823 1.844v17.984c0 .816-.293 1.473-.824 1.848-.531.375-1.25.425-2.02.148l-13.546-4.902c-.98-.356-1.797-.282-2.301.203-.504.484-.61 1.3-.29 2.293l4.606 14.562.582-.183-4.605-14.567c-.242-.746-.195-1.355.129-1.668.32-.308.93-.336 1.672-.066l13.547 4.898c.96.352 1.875.27 2.574-.218.703-.493 1.086-1.325 1.086-2.348V15.063c0-1.02-.383-1.856-1.086-2.344-.7-.492-1.613-.57-2.574-.227l-11.59 4.188c-.735.265-1.328.25-1.63-.051-.3-.3-.32-.899-.054-1.633l3.77-10.422c.347-.96.27-1.875-.223-2.574-.492-.7-1.324-1.086-2.348-1.086"/><path style="stroke:none;fill-rule:nonzero;fill:#cfb07d;fill-opacity:1" d="M151.906 182.313s-4.27-4.422-8.691-20.434c-3.973-14.379-5.031-27.293-5.031-36.297 0-9.605 2.285-17.691 4.726-24.246 3.004-8.078 6.274-15.262 7.32-25.316 1.208-11.59.305-18.301.305-18.301h13.418s-.902 6.71.309 18.3c1.047 10.055 4.312 17.239 7.316 25.317 2.442 6.555 4.73 14.64 4.73 24.246 0 9.004-1.062 21.918-5.035 36.297-4.421 16.012-8.691 20.434-8.691 20.434"/><path style="stroke:none;fill-rule:nonzero;fill:#231f20;fill-opacity:1" d="M162.613 58.941c-.097 1.157-.207 2.98-.207 5.59 0 2.996.149 6.903.64 11.617.903 8.665 3.376 15.114 5.993 21.938l1.399 3.676c1.996 5.363 4.652 13.672 4.652 23.82 0 8.168-.867 21.043-4.992 35.973-3.61 13.078-7.106 18.25-8.098 19.539h-9.512c-.992-1.29-4.484-6.461-8.097-19.54-4.121-14.929-4.989-27.804-4.989-35.972 0-10.148 2.657-18.457 4.653-23.82l1.394-3.676c2.617-6.824 5.09-13.273 5.996-21.938.489-4.714.637-8.62.637-11.617 0-2.61-.11-4.433-.203-5.59zM150.535 56.5c-.351 0-.687.152-.918.418-.23.262-.336.613-.293.965.012.062.867 6.73-.308 18.012-.868 8.343-3.286 14.648-5.844 21.316l-1.406 3.7c-2.063 5.538-4.801 14.128-4.801 24.671 0 8.32.879 21.43 5.074 36.617 4.453 16.13 8.809 20.77 8.992 20.961.227.238.543.371.875.371h10.676c.332 0 .648-.133.879-.37.184-.192 4.535-4.833 8.988-20.962 4.196-15.187 5.078-28.297 5.078-36.617 0-10.543-2.742-19.133-4.804-24.672l-1.403-3.7c-2.558-6.667-4.98-12.972-5.847-21.315-1.176-11.282-.317-17.95-.309-18.012a1.203 1.203 0 0 0-.293-.965 1.216 1.216 0 0 0-.918-.418M81.957 215.027a1.222 1.222 0 0 0-.465 1.66c.172.301 4.27 7.45 13.781 11.872.61.285 1.336.015 1.622-.59a1.23 1.23 0 0 0-.594-1.625c-8.766-4.074-12.645-10.785-12.68-10.856a1.229 1.229 0 0 0-1.664-.46m148.91.464c-.035.067-3.914 6.778-12.68 10.856a1.219 1.219 0 0 0-.59 1.62c.282.61 1.008.876 1.622.59 9.508-4.421 13.605-11.566 13.777-11.87a1.217 1.217 0 0 0-.465-1.657 1.222 1.222 0 0 0-1.664.461"/><path style="stroke:none;fill-rule:nonzero;fill:#cfb07d;fill-opacity:1" d="m147.215 47.11 4.605-14.567c.582-1.813-.406-2.762-2.195-2.117l-13.55 4.902c-1.786.649-3.25-.379-3.25-2.281V15.063c0-1.903 1.464-2.93 3.253-2.282l11.586 4.188c1.79.644 2.723-.29 2.078-2.078l-3.77-10.418c-.648-1.79.38-3.254 2.282-3.254h17.98c1.903 0 2.93 1.465 2.286 3.254l-3.774 10.422c-.644 1.785.29 2.722 2.078 2.078l11.586-4.192c1.79-.648 3.254.38 3.254 2.281v17.985c0 1.902-1.465 2.93-3.25 2.281l-13.539-4.898c-1.79-.649-2.777.304-2.195 2.117l4.574 14.476-1.367 5.715-17.285.61"/><path style="stroke:none;fill-rule:nonzero;fill:#231f20;fill-opacity:1" d="M150.48 17.707c.434-.434 1.06-1.43.41-3.23l-3.773-10.422c-.172-.48-.156-.899.04-1.18.195-.281.585-.438 1.097-.438h17.98c.512 0 .903.157 1.102.438.195.281.207.7.035 1.18l-3.77 10.422c-.652 1.804-.023 2.796.407 3.23.433.434 1.43 1.063 3.23.41l11.59-4.187c.48-.176.899-.16 1.18.035.281.2.437.59.437 1.098v17.984c0 .512-.156.898-.437 1.098-.281.199-.7.21-1.18.035l-13.538-4.9c-1.305-.472-2.488-.324-3.246.407-.492.476-.746 1.14-.746 1.91 0 .414.07.859.219 1.32l4.472 14.152c-.117.489-.789 3.29-1.07 4.48-1.563.055-13.652.481-15.344.544-.293-1.317-.992-4.45-1.097-4.93.187-.602 4.507-14.254 4.507-14.254.149-.46.22-.902.22-1.316 0-.77-.255-1.434-.747-1.91-.758-.73-1.941-.875-3.246-.403l-13.55 4.899c-.481.175-.9.164-1.18-.035-.282-.2-.438-.586-.438-1.098V15.063c0-.508.156-.899.437-1.098.282-.195.704-.211 1.184-.035l11.586 4.187c1.805.649 2.797.024 3.23-.41M148.254 0c-1.309 0-2.438.535-3.098 1.473a3.4 3.4 0 0 0-.597 1.96c0 .473.09.965.265 1.454l3.77 10.422c.11.3.133.5.133.609 0 .055-.004.062-.008.078-.024-.035-.223-.023-.64-.176l-11.587-4.187c-1.23-.445-2.476-.32-3.414.336-.937.656-1.473 1.785-1.473 3.094v17.984c0 1.308.536 2.437 1.473 3.094.938.66 2.184.78 3.414.336l13.547-4.903c.453-.164.703-.137.754-.113-.023.004.012.25-.137.71l-4.605 14.567a1.203 1.203 0 0 0-.028.633l1.387 6.242c.13.575.649.977 1.235.953l17.285-.609a1.224 1.224 0 0 0 1.144-.937l1.363-5.711a1.223 1.223 0 0 0-.023-.649l-4.57-14.48c-.153-.465-.114-.711-.086-.762 0 .023.246-.004.703.16l13.535 4.899c1.234.445 2.477.324 3.414-.336.938-.657 1.477-1.786 1.477-3.094V15.063c0-1.31-.54-2.438-1.477-3.094-.937-.656-2.18-.781-3.414-.336L166.41 15.82c-.45.164-.64.137-.691.125.035-.02.023-.222.176-.636l3.77-10.422c.179-.489.265-.98.265-1.453 0-.72-.2-1.395-.598-1.961C168.676.535 167.547 0 166.234 0"/><path style="stroke:none;fill-rule:nonzero;fill:#cfb07d;fill-opacity:1" d="M156.531 199.95c-52.05 0-73.515 16.71-73.515 16.71-.27.156-3.43-6.058-7.473-16.765-.824-2.184.445-4.172 2.164-5.086 7.117-3.797 30.168-13.567 78.824-13.563h1.426c48.656-.004 71.707 9.766 78.824 13.563 1.719.914 2.989 2.902 2.164 5.086-4.039 10.707-7.203 16.921-7.472 16.765 0 0-21.461-16.71-73.516-16.71"/><path style="stroke:none;fill-rule:nonzero;fill:#231f20;fill-opacity:1" d="M76.688 199.465a2.645 2.645 0 0 1-.18-.95c0-1.156.805-2.117 1.773-2.628 7.567-4.035 30.34-13.422 78.246-13.422h1.43c47.91 0 70.684 9.383 78.254 13.422.965.511 1.773 1.472 1.773 2.629 0 .304-.058.62-.18.949-3.077 8.152-5.57 13.492-6.648 15.48-4.851-3.28-26.906-16.215-73.199-16.215h-1.426c-46.293 0-68.344 12.934-73.199 16.215-1.074-1.988-3.566-7.328-6.644-15.48m.445-5.735c-2.094 1.118-3.84 3.657-2.73 6.594.648 1.723 6.402 16.848 8.175 17.488.39.141.856.07 1.188-.187.21-.164 21.836-16.453 72.765-16.453h1.426c50.934 0 72.559 16.289 72.77 16.453.328.258.793.328 1.183.188 1.778-.641 7.528-15.766 8.176-17.489 1.11-2.937-.637-5.476-2.73-6.594-7.727-4.12-30.942-13.707-79.399-13.707h-1.426c-48.457 0-71.668 9.586-79.398 13.707"/><path style="stroke:none;fill-rule:nonzero;fill:#cfb07d;fill-opacity:1" d="M146.242 51.617c0 6.078 4.93 11.004 11.004 11.004s11-4.926 11-11.004c0-6.074-4.926-11-11-11s-11.004 4.926-11.004 11"/><path style="stroke:none;fill-rule:nonzero;fill:#231f20;fill-opacity:1" d="M147.465 51.617c0-5.39 4.387-9.777 9.777-9.777 5.395 0 9.785 4.387 9.785 9.777 0 5.399-4.39 9.785-9.785 9.785-5.39 0-9.777-4.386-9.777-9.785m-2.442 0c0 6.742 5.485 12.223 12.22 12.223 6.741 0 12.222-5.48 12.222-12.223 0-6.734-5.48-12.219-12.223-12.219-6.734 0-12.219 5.485-12.219 12.22"/><path style="stroke:none;fill-rule:nonzero;fill:#ee2830;fill-opacity:1" d="m97.422 549.867-39.887-46.969V324.484h39.887zm0 0"/><path style="stroke:none;fill-rule:nonzero;fill:#231f20;fill-opacity:1" d="M96.203 325.703v220.844c-3.82-4.496-36.906-43.461-37.45-44.098V325.703zm1.219-2.437H56.316v180.078l42.329 49.844V323.265"/><path style="stroke:none;fill-rule:nonzero;fill:#ee2830;fill-opacity:1" d="M137.285 585.184v-260.82h39.89v259.593l-19.882 15.93"/><path style="stroke:none;fill-rule:nonzero;fill:#231f20;fill-opacity:1" d="M175.953 325.582v257.79c-.84.671-17.367 13.917-18.691 14.976-1.364-1-17.848-13.114-18.754-13.782V325.582zm1.223-2.437h-41.11V585.8l21.258 15.625 21.07-16.883V323.145"/><path style="stroke:none;fill-rule:nonzero;fill:#ee2830;fill-opacity:1" d="m256.926 499.848-39.887 49.41V324.484h39.887zm0 0"/><path style="stroke:none;fill-rule:nonzero;fill:#231f20;fill-opacity:1" d="M255.703 325.703v173.711c-.5.625-33.594 41.617-37.445 46.39v-220.1zm1.223-2.437h-41.11V552.71l42.329-52.434v-177.01"/><path style="stroke:none;fill-rule:nonzero;fill:#cfb07d;fill-opacity:1" d="M299.832 330.879H14.637s.004.465.004 1.16v35.438c0 32.687 18.082 89.761 58.476 143.593 27.653 36.844 70.852 71.817 84.125 82.18 13.274-10.363 56.461-45.336 84.11-82.18 40.394-53.832 58.48-110.906 58.48-143.593zm0-95.774H14.641l.004 82.352h285.187v-82.352m13.418-13.417v145.789c0 32.359-16.02 91.488-61.164 151.644-34.008 45.32-88.524 86.25-90.828 87.973l-4.016 2.996-4.012-2.996c-2.304-1.723-56.84-42.653-90.843-87.973C17.238 458.965 1.219 399.836 1.219 367.477v-145.79h305.32"/><g clip-path="url(#a)"><path style="stroke:none;fill-rule:nonzero;fill:#231f20;fill-opacity:1" d="M306.54 222.906h5.491v144.57c0 32.172-15.957 90.997-60.922 150.915-33.898 45.175-88.285 86.007-90.582 87.726 0 0-2.308 1.723-3.285 2.45l-3.285-2.45c-2.297-1.719-56.695-42.55-90.598-87.726C18.395 458.473 2.437 399.648 2.437 367.477v-144.57zm0-2.437H1.218c-.672 0-1.219.543-1.219 1.219v145.789c0 32.546 16.082 91.98 61.41 152.378 34.11 45.454 88.778 86.493 91.09 88.215l4.016 2.996a1.21 1.21 0 0 0 1.457 0l4.015-2.996c2.309-1.722 56.965-42.761 91.075-88.215 45.324-60.398 61.406-119.832 61.406-152.378v-145.79c0-.675-.543-1.218-1.219-1.218"/></g><path style="stroke:none;fill-rule:nonzero;fill:#231f20;fill-opacity:1" d="M298.61 236.328v79.91H15.862l-.004-79.91zm-283.97-2.441a1.23 1.23 0 0 0-.863.355c-.23.23-.359.543-.359.863l.008 82.352c0 .676.543 1.219 1.219 1.219h285.187a1.218 1.218 0 0 0 1.219-1.219v-82.352c0-.671-.547-1.218-1.223-1.218m-1.218 98.211v35.379c0 32.484-18.005 89.253-58.235 142.863-27.172 36.207-69.633 70.773-83.133 81.36-13.504-10.587-55.969-45.145-83.148-81.36-40.227-53.61-58.235-110.38-58.235-142.863v-35.38zm-283.973-2.442c-.325 0-.637.133-.864.364a1.22 1.22 0 0 0-.359.867l.004 1.152v35.438c0 32.89 18.16 90.27 58.723 144.324 27.836 37.094 71.601 72.457 84.351 82.41a1.22 1.22 0 0 0 1.5 0c12.75-9.957 56.504-45.324 84.336-82.41 40.567-54.055 58.723-111.434 58.723-144.324v-36.598a1.224 1.224 0 0 0-1.219-1.223"/><path style="stroke:none;fill-rule:nonzero;fill:#ee2830;fill-opacity:1" d="M76.047 267.16c1.52 3.59 5.918 13.996 6.867 16.246H69.57c.883-2.222 5.035-12.633 6.477-16.246m-7.082-24.133a1.14 1.14 0 0 0-1.063.703l-25.98 64.84c-.137.34-.09.723.125 1.024.21.297.562.476.937.476h15.168c.47 0 .895-.277 1.063-.703 0 0 4.531-11.336 5.031-12.59l23.664-.254 5.5 12.868c.176.414.594.68 1.055.68h15.164c.379 0 .73-.18.941-.481.215-.3.258-.688.121-1.024l-26.464-64.84a1.142 1.142 0 0 0-1.063-.699m53.852.965c-4.153 1.742-7.38 4.203-9.59 7.328-2.047 2.895-3.078 6.043-3.078 9.38 0 .304.007.609.023.917.207 3.82 1.711 7.188 4.473 9.996 2.672 2.719 5.879 4.965 9.535 6.676a89.361 89.361 0 0 0 10.89 4.27l7.07 2.27c5.747 1.855 6.634 4.081 6.634 5.456 0 .406-.078.738-.13.961-.312 1.012-.964 1.957-1.972 2.82-.95.817-2.527 1.258-4.691 1.309-4.692.176-8.664-.914-11.82-3.23-3.278-2.403-5.946-5.067-7.926-7.922a1.17 1.17 0 0 0-1.579-.309l-11.812 7.524a1.081 1.081 0 0 0-.387 1.425c4.176 7.82 9.38 12.961 15.457 15.29 5.957 2.273 11.457 3.429 16.356 3.429 6.219-.062 11.453-1.09 15.562-3.062 4.133-1.98 7.297-4.547 9.403-7.63 2.101-3.077 3.273-6.324 3.48-9.652.613-6.27-1.582-11.222-6.523-14.687-4.688-3.281-10.575-6.094-17.493-8.356.028.012-2.925-1.039-2.925-1.039l-.871-.308c-.004 0-4.34-1.461-4.34-1.461a21.835 21.835 0 0 1-3.309-1.371 11.21 11.21 0 0 1-2.539-1.848c-.64-.625-.976-1.356-1.027-2.23.004-.93.394-1.829 1.207-2.684.77-.817 2.261-1.23 4.433-1.23 5.297-.114 11.114 2.804 17.313 8.675a1.165 1.165 0 0 0 1.555.035l10.07-8.668a1.075 1.075 0 0 0 .148-1.492c-3.324-4.219-7.445-7.445-12.242-9.59-4.77-2.129-9.809-3.273-14.976-3.394-5.438-.125-10.274.683-14.38 2.402m113.2-.965c-.504 0-.95.32-1.094.782l-10.754 34.34a4237243 4237243 0 0 1-10.754-34.34 1.14 1.14 0 0 0-1.093-.782h-21.293c-.63 0-1.141.493-1.141 1.102v64.84c0 .61.512 1.101 1.14 1.101h14.641c.63 0 1.14-.492 1.14-1.101v-35.723c3.095 10.086 11.036 35.992 11.036 35.992.144.465.59.785 1.094.785h10.367c.504 0 .95-.32 1.094-.785 0 0 7.941-25.906 11.035-35.992v35.723c0 .61.508 1.101 1.14 1.101h14.637c.633 0 1.145-.492 1.145-1.101v-64.84c0-.61-.512-1.102-1.145-1.102"/><path style="stroke:none;fill-rule:nonzero;fill:#231f20;fill-opacity:1" d="M83.164 244.246s26.227 64.367 26.34 64.64l-15.04-.034c0-.094-5.433-12.809-5.433-12.809l-.32-.746-25.293.27-5.336 13.347s-14.691-.059-14.96-.062c.136-.34 25.839-64.48 25.886-64.606zm-14.2-2.437c-.972 0-1.835.574-2.194 1.468l-25.98 64.84a2.297 2.297 0 0 0 .257 2.184 2.386 2.386 0 0 0 1.937.992h15.164c.98 0 1.84-.578 2.2-1.473 0 0 3.652-9.14 4.73-11.832 1.285-.011 20.559-.218 22.031-.234l5.18 12.117a2.354 2.354 0 0 0 2.176 1.422h15.164c.773 0 1.5-.375 1.941-1a2.29 2.29 0 0 0 .25-2.191l-26.465-64.836a2.344 2.344 0 0 0-2.19-1.457"/><path style="stroke:none;fill-rule:nonzero;fill:#231f20;fill-opacity:1" d="M72.45 279.477s2.335-5.856 3.628-9.106l4.996 11.813h-9.707a2322.25 2322.25 0 0 0 1.082-2.707m2.465-12.77-7.144 17.918h16.984l-8.738-20.676m75.351-21.14a37.557 37.557 0 0 1 14.504 3.289c4.578 2.047 8.508 5.12 11.695 9.132l-9.964 8.579c-6.364-6.094-12.48-9.125-18.098-9.004h-.004c-2.531 0-4.27.527-5.297 1.61-1.016 1.077-1.531 2.26-1.535 3.519.066 1.25.535 2.273 1.394 3.105.844.82 1.793 1.512 2.829 2.055a22.737 22.737 0 0 0 3.488 1.453c3.168 1.066 4.101 1.379 4.457 1.476a5.058 5.058 0 0 1-.145-.027l2.336.832c.684.242 1.172.39 1.59.48a2.506 2.506 0 0 0-.097.047c6.804 2.223 12.582 4.98 17.167 8.196 4.06 2.84 6.106 6.77 6.106 11.695 0 .61-.031 1.234-.094 1.875-.195 3.149-1.297 6.188-3.273 9.078-1.985 2.906-4.985 5.332-8.922 7.223-3.95 1.89-9.012 2.879-15.05 2.937-4.735 0-10.09-1.125-15.903-3.347-5.766-2.203-10.727-7.13-14.75-14.614l11.715-7.453c1.976 2.938 4.734 5.7 8.12 8.184 3.387 2.484 7.622 3.648 12.59 3.465 2.438-.059 4.274-.598 5.442-1.602 1.168-1 1.953-2.14 2.34-3.387.023-.085.183-1.32.183-1.32 0-2.789-2.515-5.015-7.472-6.617l-7.074-2.27a88.329 88.329 0 0 1-10.75-4.214c-3.524-1.649-6.614-3.813-9.18-6.422-2.547-2.598-3.934-5.696-4.125-9.211l-.024-.852c0-3.078.961-5.996 2.856-8.676 2.074-2.93 5.125-5.253 9.066-6.906 3.946-1.652 8.617-2.43 13.88-2.308m-14.821.058c-4.367 1.828-7.77 4.438-10.117 7.746-2.192 3.102-3.305 6.496-3.305 10.086l.027.988c.227 4.125 1.848 7.75 4.825 10.782 2.77 2.82 6.093 5.152 9.882 6.926a90.58 90.58 0 0 0 11.043 4.328l7.067 2.27c3.726 1.202 5.785 2.73 5.785 4.292l-.098.688c-.226.71-.761 1.468-1.578 2.168-.504.433-1.594.96-3.926 1.015-4.422.164-8.14-.844-11.074-2.996-3.168-2.324-5.738-4.89-7.64-7.633a2.372 2.372 0 0 0-3.235-.64l-11.812 7.52a2.29 2.29 0 0 0-.809 3.03c4.316 8.086 9.734 13.418 16.098 15.852 6.093 2.328 11.742 3.512 16.789 3.512 6.41-.063 11.816-1.133 16.09-3.18 4.332-2.074 7.656-4.781 9.882-8.043 2.227-3.258 3.47-6.715 3.688-10.262.66-6.71-1.707-12.03-7.04-15.765-4.784-3.352-10.776-6.215-17.812-8.516.024.012-2.898-1.027-2.898-1.027l-.871-.309-4.36-1.469a20.914 20.914 0 0 1-3.125-1.296 9.695 9.695 0 0 1-2.257-1.645c-.426-.41-.63-.848-.66-1.422.003-.555.289-1.156.874-1.777.297-.317 1.157-.844 3.547-.844 4.98-.105 10.516 2.7 16.473 8.34.89.844 2.262.875 3.191.074l10.07-8.672a2.3 2.3 0 0 0 .313-3.172c-3.453-4.37-7.726-7.718-12.707-9.945a40.065 40.065 0 0 0-15.445-3.504c-5.61-.125-10.613.715-14.875 2.5m134.785 1.379v64.606h-14.48v-35.606l-2.387-.355-11.035 35.988-10.293-.074c0-.16-10.961-35.914-10.961-35.914l-2.387.355v35.606h-14.484v-64.606h21.215c0 .156 10.683 34.266 10.683 34.266l1.164 3.718s11.852-37.84 11.895-37.984zm-21.117-2.437c-1.043 0-1.95.656-2.258 1.636l-9.59 30.621c-1.851-5.914-9.59-30.62-9.59-30.62a2.346 2.346 0 0 0-2.257-1.637h-21.293c-1.301 0-2.364 1.039-2.364 2.32v64.84c0 1.281 1.063 2.324 2.364 2.324h14.64c1.301 0 2.36-1.043 2.36-2.324V281.39c2.933 9.558 8.648 28.203 8.648 28.203a2.344 2.344 0 0 0 2.262 1.652H243.5a2.34 2.34 0 0 0 2.262-1.652s5.402-17.625 8.648-28.203v27.578c0 1.281 1.059 2.324 2.36 2.324h14.64c1.305 0 2.363-1.043 2.363-2.324v-64.84c0-1.281-1.058-2.32-2.363-2.32"/></svg>