<?xml version="1.0" encoding="UTF-8"?>
<svg xmlns="http://www.w3.org/2000/svg" xmlns:xlink="http://www.w3.org/1999/xlink" width="314.47pt" height="611.31pt" viewBox="0 0 314.47 611.31" version="1.1">
<defs>
<clipPath id="clip1">
  <path d="M 0 220 L 314.46875 220 L 314.46875 611.308594 L 0 611.308594 Z M 0 220 "/>
</clipPath>
</defs>
<g id="surface1">
<path style=" stroke:none;fill-rule:nonzero;fill:rgb(93.299866%,15.699768%,18.798828%);fill-opacity:1;" d="M 218.703125 228.0625 L 96.242188 228.519531 C 96.242188 228.519531 89.992188 224.707031 86.941406 221.808594 C 83.890625 218.910156 82.214844 215.558594 82.214844 215.558594 C 82.214844 215.558594 105.546875 200.003906 156.941406 199.695313 C 208.332031 199.390625 231.816406 216.015625 231.816406 216.015625 C 231.816406 216.015625 230.902344 218.910156 226.480469 222.570313 C 222.058594 226.230469 218.703125 228.0625 218.703125 228.0625 "/>
<path style=" stroke:none;fill-rule:nonzero;fill:rgb(93.299866%,15.699768%,18.798828%);fill-opacity:1;" d="M 49.582031 149.523438 C 49.582031 149.523438 67.472656 138.035156 95.332031 129.699219 C 123.1875 121.363281 149.925781 124.515625 149.925781 124.515625 L 164.566406 124.515625 C 164.566406 124.515625 191.304688 121.363281 219.160156 129.699219 C 247.015625 138.035156 264.910156 149.523438 264.910156 149.523438 C 264.910156 149.523438 250.066406 166.195313 243.558594 178.398438 C 237.054688 190.597656 233.394531 199.949219 233.394531 199.949219 C 233.394531 199.949219 182.558594 189.785156 156.53125 190.191406 C 130.507813 190.597656 80.894531 201.171875 80.894531 201.171875 C 80.894531 201.171875 71.132813 180.839844 62.1875 169.449219 C 53.238281 158.0625 49.582031 149.523438 49.582031 149.523438 "/>
<path style=" stroke:none;fill-rule:nonzero;fill:rgb(13.699341%,12.199402%,12.5%);fill-opacity:1;" d="M 164.566406 125.734375 L 164.636719 125.734375 L 164.707031 125.726563 C 164.972656 125.695313 191.535156 122.703125 218.808594 130.867188 C 242.191406 137.863281 258.632813 147.175781 263.035156 149.808594 C 259.632813 153.722656 248.105469 167.277344 242.484375 177.824219 C 237.136719 187.847656 233.703125 195.96875 232.640625 198.5625 C 225.660156 197.199219 180.457031 188.597656 156.515625 188.972656 C 132.554688 189.347656 88.308594 198.378906 81.574219 199.78125 C 79.621094 195.820313 71.039063 178.746094 63.148438 168.695313 C 56.027344 159.636719 52.308594 152.421875 51.148438 149.992188 C 55.105469 147.605469 71.789063 138.015625 95.679688 130.867188 C 122.957031 122.703125 149.519531 125.695313 149.78125 125.726563 L 149.855469 125.734375 Z M 164.5 123.292969 L 149.988281 123.292969 C 148.90625 123.171875 122.320313 120.347656 94.980469 128.53125 C 67.277344 136.820313 49.101563 148.382813 48.921875 148.496094 L 48.050781 149.054688 L 48.457031 150.003906 C 48.609375 150.359375 52.285156 158.824219 61.226563 170.203125 C 69.988281 181.355469 79.695313 201.496094 79.792969 201.699219 L 80.207031 202.566406 L 81.148438 202.363281 C 81.644531 202.257813 130.941406 191.8125 156.550781 191.410156 C 182.148438 191.011719 232.648438 201.046875 233.152344 201.148438 L 234.15625 201.347656 L 234.527344 200.394531 C 234.566406 200.300781 238.242188 190.960938 244.636719 178.972656 C 251 167.042969 265.671875 150.5 265.820313 150.335938 L 266.769531 149.269531 L 265.570313 148.496094 C 265.390625 148.382813 247.210938 136.820313 219.511719 128.53125 C 192.167969 120.347656 165.585938 123.171875 164.5 123.292969 "/>
<path style=" stroke:none;fill-rule:nonzero;fill:rgb(81.199646%,68.998718%,48.999023%);fill-opacity:1;" d="M 75.199219 198.730469 C 75.199219 198.730469 70.234375 189.171875 65.03125 181.445313 C 58.324219 171.484375 48.203125 160.542969 36.566406 150.742188 C 28.839844 144.238281 14.199219 132.238281 13.386719 117.398438 C 12.574219 102.554688 22.535156 89.136719 40.835938 87.914063 C 59.136719 86.695313 79.464844 92.371094 97.769531 92.59375 C 131.523438 92.996094 151.042969 79.984375 151.042969 79.984375 L 163.445313 79.984375 C 163.445313 79.984375 182.964844 92.996094 216.71875 92.59375 C 235.023438 92.371094 255.351563 86.695313 273.652344 87.914063 C 291.953125 89.136719 301.914063 102.554688 301.101563 117.398438 C 300.289063 132.238281 285.648438 144.238281 277.921875 150.742188 C 266.289063 160.542969 256.164063 171.484375 249.457031 181.445313 C 244.253906 189.171875 239.289063 198.730469 239.289063 198.730469 L 237.054688 201.375 L 229.9375 199.136719 L 232.78125 193.035156 C 232.78125 193.035156 238.070313 180.023438 245.796875 167.621094 C 253.523438 155.21875 259.824219 149.726563 265.722656 143.425781 C 271.621094 137.121094 275.269531 130.488281 274.464844 121.667969 C 273.855469 114.957031 268.988281 106.914063 258.605469 106.011719 C 249.253906 105.195313 235.84375 107.011719 226.074219 106.621094 C 205.738281 105.808594 196.996094 103.570313 184.1875 99.910156 C 170.832031 96.097656 164.257813 91.777344 164.257813 91.777344 L 150.230469 91.777344 C 150.230469 91.777344 143.65625 96.097656 130.304688 99.910156 C 117.492188 103.570313 108.75 105.808594 88.417969 106.621094 C 78.644531 107.011719 65.234375 105.195313 55.882813 106.011719 C 45.503906 106.914063 40.632813 114.957031 40.023438 121.667969 C 39.21875 130.488281 42.871094 137.121094 48.765625 143.425781 C 54.664063 149.726563 60.964844 155.21875 68.691406 167.621094 C 76.417969 180.023438 81.707031 193.035156 81.707031 193.035156 L 83.941406 198.121094 L 77.4375 202.1875 "/>
<path style=" stroke:none;fill-rule:nonzero;fill:rgb(13.699341%,12.199402%,12.5%);fill-opacity:1;" d="M 163.089844 81.203125 C 165.757813 82.894531 184.828125 94.195313 216.734375 93.8125 C 224.84375 93.714844 233.472656 92.539063 241.816406 91.402344 C 252.441406 89.953125 263.429688 88.457031 273.570313 89.132813 C 289.3125 90.179688 299.929688 100.980469 299.929688 115.636719 C 299.929688 116.195313 299.914063 116.761719 299.886719 117.332031 C 299.117188 131.320313 285.15625 143.066406 277.65625 149.375 L 277.136719 149.808594 C 265.449219 159.652344 255.261719 170.648438 248.445313 180.765625 C 243.4375 188.199219 238.636719 197.347656 238.273438 198.042969 C 238.152344 198.1875 237.230469 199.277344 236.644531 199.96875 C 235.675781 199.664063 233.152344 198.871094 231.632813 198.390625 C 232.371094 196.804688 233.890625 193.554688 233.890625 193.554688 C 233.964844 193.367188 239.253906 180.433594 246.832031 168.265625 C 253.066406 158.261719 258.261719 152.90625 263.289063 147.726563 L 266.613281 144.257813 C 272.898438 137.539063 275.796875 131.222656 275.796875 124.082031 C 275.796875 123.253906 275.757813 122.410156 275.679688 121.558594 C 274.984375 113.890625 269.46875 105.730469 258.714844 104.796875 C 253.527344 104.34375 247.09375 104.6875 240.871094 105.023438 C 235.777344 105.296875 230.507813 105.578125 226.121094 105.402344 C 205.894531 104.59375 197.136719 102.34375 184.523438 98.738281 C 171.539063 95.027344 164.992188 90.800781 164.929688 90.757813 C 164.730469 90.628906 164.496094 90.558594 164.261719 90.558594 L 150.230469 90.558594 C 149.992188 90.558594 149.757813 90.628906 149.5625 90.757813 C 149.496094 90.800781 142.949219 95.027344 129.96875 98.738281 C 117.351563 102.34375 108.59375 104.59375 88.367188 105.402344 C 83.980469 105.578125 78.714844 105.296875 73.621094 105.023438 C 67.398438 104.691406 60.960938 104.34375 55.777344 104.796875 C 45.023438 105.730469 39.503906 113.890625 38.808594 121.558594 C 38.730469 122.410156 38.691406 123.253906 38.691406 124.082031 C 38.691406 131.222656 41.589844 137.539063 47.875 144.257813 L 51.199219 147.726563 C 56.226563 152.90625 61.425781 158.261719 67.65625 168.265625 C 75.234375 180.433594 80.523438 193.367188 80.578125 193.496094 C 80.578125 193.496094 81.84375 196.375 82.402344 197.644531 C 81.3125 198.328125 79.023438 199.757813 77.808594 200.515625 C 77.167969 199.523438 76.292969 198.179688 76.253906 198.113281 C 76.0625 197.746094 71.148438 188.347656 66.042969 180.765625 C 59.226563 170.648438 49.039063 159.652344 37.351563 149.808594 L 36.832031 149.375 C 29.332031 143.066406 15.371094 131.320313 14.605469 117.332031 C 14.574219 116.761719 14.558594 116.195313 14.558594 115.636719 C 14.558594 100.980469 25.175781 90.179688 40.917969 89.132813 C 51.058594 88.457031 62.046875 89.953125 72.671875 91.402344 C 81.015625 92.539063 89.644531 93.714844 97.753906 93.8125 C 129.660156 94.195313 148.734375 82.894531 151.402344 81.203125 Z M 151.042969 78.765625 C 150.804688 78.765625 150.566406 78.835938 150.367188 78.96875 C 150.175781 79.097656 130.722656 91.765625 97.785156 91.371094 C 89.824219 91.277344 81.273438 90.109375 73 88.984375 C 62.257813 87.519531 51.144531 86.003906 40.757813 86.695313 C 22.996094 87.882813 11.238281 100.53125 12.167969 117.464844 C 12.992188 132.507813 27.480469 144.695313 35.261719 151.242188 L 35.78125 151.679688 C 47.296875 161.378906 57.328125 172.191406 64.019531 182.128906 C 69.121094 189.703125 74.066406 199.199219 74.117188 199.292969 C 74.136719 199.328125 74.15625 199.363281 74.175781 199.394531 L 76.414063 202.851563 C 76.773438 203.410156 77.519531 203.574219 78.082031 203.222656 L 84.589844 199.15625 C 85.101563 198.835938 85.304688 198.183594 85.058594 197.628906 L 82.824219 192.546875 C 82.785156 192.445313 77.421875 179.324219 69.726563 166.976563 C 63.359375 156.75 57.828125 151.054688 52.953125 146.027344 L 49.65625 142.59375 C 43.070313 135.550781 40.550781 129.324219 41.238281 121.777344 C 41.84375 115.121094 46.640625 108.039063 55.988281 107.226563 C 61.003906 106.789063 67.347656 107.128906 73.488281 107.460938 C 78.640625 107.734375 83.964844 108.019531 88.464844 107.839844 C 108.96875 107.019531 117.847656 104.738281 130.636719 101.085938 C 142.683594 97.640625 149.191406 93.855469 150.578125 92.996094 L 163.910156 92.996094 C 165.296875 93.855469 171.804688 97.640625 183.851563 101.085938 C 196.640625 104.738281 205.519531 107.019531 226.023438 107.839844 C 230.523438 108.019531 235.847656 107.738281 241 107.460938 C 247.140625 107.132813 253.484375 106.789063 258.503906 107.226563 C 267.851563 108.039063 272.648438 115.121094 273.253906 121.777344 C 273.9375 129.324219 271.421875 135.550781 264.832031 142.59375 L 261.535156 146.027344 C 256.660156 151.054688 251.132813 156.75 244.761719 166.976563 C 237.066406 179.324219 231.707031 192.445313 231.652344 192.578125 L 228.832031 198.621094 C 228.683594 198.941406 228.679688 199.308594 228.820313 199.628906 C 228.960938 199.949219 229.234375 200.195313 229.570313 200.300781 L 236.6875 202.539063 C 237.15625 202.683594 237.667969 202.539063 237.984375 202.164063 L 240.222656 199.519531 C 240.28125 199.449219 240.332031 199.375 240.371094 199.292969 C 240.421875 199.199219 245.367188 189.703125 250.46875 182.128906 C 257.160156 172.191406 267.191406 161.378906 278.710938 151.679688 L 279.226563 151.242188 C 287.007813 144.695313 301.496094 132.507813 302.320313 117.464844 C 303.25 100.53125 291.492188 87.882813 273.734375 86.695313 C 263.34375 86.003906 252.234375 87.519531 241.488281 88.984375 C 233.21875 90.109375 224.664063 91.277344 216.707031 91.371094 C 183.769531 91.765625 164.316406 79.097656 164.121094 78.96875 C 163.921875 78.835938 163.6875 78.765625 163.445313 78.765625 "/>
<path style=" stroke:none;fill-rule:nonzero;fill:rgb(91.799927%,92.199707%,59.199524%);fill-opacity:1;" d="M 146.546875 51.617188 C 146.546875 45.722656 151.347656 40.925781 157.242188 40.925781 C 163.144531 40.925781 167.941406 45.722656 167.941406 51.617188 C 167.941406 57.515625 163.144531 62.316406 157.242188 62.316406 C 151.347656 62.316406 146.546875 57.515625 146.546875 51.617188 M 145.9375 51.617188 C 145.9375 57.855469 151.011719 62.925781 157.242188 62.925781 C 163.480469 62.925781 168.550781 57.855469 168.550781 51.617188 C 168.550781 45.386719 163.480469 40.3125 157.242188 40.3125 C 151.011719 40.3125 145.9375 45.386719 145.9375 51.617188 "/>
<path style=" stroke:none;fill-rule:nonzero;fill:rgb(81.199646%,68.998718%,48.999023%);fill-opacity:1;" d="M 124.8125 184.496094 C 124.8125 184.496094 122.605469 178.175781 116.273438 167.621094 C 108.953125 155.421875 99.597656 146.269531 86.992188 132.242188 C 80.746094 125.289063 64.628906 102.554688 74.183594 85.476563 C 84.707031 66.667969 103.058594 66.5625 118.511719 68.191406 C 133.5625 69.777344 150.636719 79.375 150.636719 79.375 L 163.851563 79.375 C 163.851563 79.375 180.929688 69.777344 195.980469 68.191406 C 211.433594 66.5625 229.785156 66.667969 240.308594 85.476563 C 249.863281 102.554688 233.742188 125.289063 227.496094 132.242188 C 214.890625 146.269531 205.535156 155.421875 198.21875 167.621094 C 191.882813 178.175781 189.675781 184.496094 189.675781 184.496094 L 180.933594 184.089844 C 180.933594 184.089844 184.1875 175.347656 188.253906 167.417969 C 194.644531 154.957031 201.265625 144.847656 208.789063 135.089844 C 214.578125 127.582031 220.582031 119.023438 224.648438 109.46875 C 228.007813 101.582031 226.039063 90.890625 218.957031 85.476563 C 208.585938 77.542969 194.351563 79.984375 187.03125 81.40625 C 179.714844 82.832031 165.886719 87.507813 165.886719 87.507813 L 148.601563 87.507813 C 148.601563 87.507813 134.777344 82.832031 127.457031 81.40625 C 120.136719 79.984375 105.902344 77.542969 95.53125 85.476563 C 88.453125 90.890625 86.484375 101.582031 89.839844 109.46875 C 93.90625 119.023438 99.914063 127.582031 105.699219 135.089844 C 113.222656 144.847656 119.847656 154.957031 126.238281 167.417969 C 130.304688 175.347656 133.558594 184.089844 133.558594 184.089844 "/>
<path style=" stroke:none;fill-rule:nonzero;fill:rgb(13.699341%,12.199402%,12.5%);fill-opacity:1;" d="M 163.851563 80.59375 C 164.0625 80.59375 164.269531 80.539063 164.449219 80.4375 C 164.621094 80.34375 181.488281 70.945313 196.105469 69.40625 C 212.691406 67.660156 229.394531 68.46875 239.242188 86.070313 C 241.203125 89.574219 242.023438 93.390625 242.023438 97.292969 C 242.023438 110.375 232.832031 124.480469 226.589844 131.425781 L 219.371094 139.359375 C 210.269531 149.296875 203.082031 157.144531 197.171875 166.992188 C 192.046875 175.53125 189.640625 181.222656 188.851563 183.238281 C 187.730469 183.1875 184.601563 183.039063 182.679688 182.949219 C 183.800781 180.09375 186.359375 173.78125 189.339844 167.976563 C 195.246094 156.453125 201.734375 146.242188 209.757813 135.832031 C 214.953125 129.09375 221.46875 120.054688 225.773438 109.945313 C 226.917969 107.253906 227.464844 104.339844 227.464844 101.429688 C 227.464844 94.84375 224.660156 88.300781 219.699219 84.507813 C 208.550781 75.980469 193.308594 78.945313 186.800781 80.210938 C 179.828125 81.566406 167.347656 85.730469 165.6875 86.289063 L 148.804688 86.289063 C 147.144531 85.730469 134.660156 81.566406 127.6875 80.210938 C 121.179688 78.945313 105.941406 75.980469 94.792969 84.507813 C 89.832031 88.300781 87.027344 94.84375 87.027344 101.429688 C 87.027344 104.339844 87.570313 107.253906 88.71875 109.945313 C 93.019531 120.054688 99.535156 129.09375 104.734375 135.832031 C 112.753906 146.242188 119.242188 156.453125 125.152344 167.976563 C 128.128906 173.78125 130.691406 180.09375 131.8125 182.949219 C 129.886719 183.039063 126.757813 183.1875 125.636719 183.238281 C 124.847656 181.222656 122.441406 175.53125 117.320313 166.992188 C 111.410156 157.144531 104.222656 149.296875 95.121094 139.359375 L 87.898438 131.425781 C 81.65625 124.480469 72.46875 110.375 72.46875 97.292969 C 72.46875 93.390625 73.285156 89.574219 75.246094 86.070313 C 85.09375 68.46875 101.800781 67.660156 118.382813 69.40625 C 133.003906 70.945313 149.871094 80.34375 150.039063 80.4375 C 150.222656 80.539063 150.429688 80.59375 150.636719 80.59375 Z M 195.851563 66.976563 C 181.570313 68.480469 165.847656 76.886719 163.539063 78.15625 L 150.953125 78.15625 C 148.644531 76.886719 132.921875 68.480469 118.636719 66.976563 C 102.058594 65.234375 83.6875 65.992188 73.117188 84.878906 C 63.914063 101.328125 77.574219 123.585938 86.085938 133.054688 L 93.320313 141.007813 C 102.328125 150.84375 109.441406 158.609375 115.226563 168.25 C 121.40625 178.550781 123.640625 184.839844 123.660156 184.902344 C 123.839844 185.410156 124.332031 185.742188 124.871094 185.71875 L 133.613281 185.308594 C 134.003906 185.292969 134.359375 185.089844 134.574219 184.765625 C 134.789063 184.441406 134.835938 184.03125 134.699219 183.664063 C 134.667969 183.578125 131.375 174.765625 127.324219 166.863281 C 121.34375 155.203125 114.78125 144.871094 106.664063 134.34375 C 101.558594 127.71875 95.15625 118.847656 90.960938 108.992188 C 87.636719 101.171875 89.96875 91.265625 96.273438 86.445313 C 106.550781 78.585938 121.039063 81.402344 127.222656 82.605469 C 134.378906 83.996094 148.074219 88.617188 148.210938 88.664063 C 148.339844 88.707031 148.46875 88.726563 148.601563 88.726563 L 165.886719 88.726563 C 166.019531 88.726563 166.152344 88.707031 166.277344 88.664063 C 166.414063 88.617188 180.109375 83.996094 187.265625 82.605469 C 193.453125 81.402344 207.9375 78.585938 218.214844 86.445313 C 224.523438 91.265625 226.855469 101.171875 223.527344 108.992188 C 219.332031 118.847656 212.933594 127.71875 207.824219 134.34375 C 199.707031 144.871094 193.144531 155.203125 187.167969 166.863281 C 183.113281 174.765625 179.820313 183.578125 179.789063 183.664063 C 179.652344 184.03125 179.699219 184.4375 179.914063 184.765625 C 180.128906 185.089844 180.488281 185.292969 180.875 185.308594 L 189.621094 185.71875 C 190.160156 185.742188 190.648438 185.410156 190.828125 184.902344 C 190.851563 184.839844 193.082031 178.550781 199.261719 168.25 C 205.046875 158.609375 212.160156 150.84375 221.167969 141.007813 L 228.402344 133.054688 C 236.914063 123.585938 250.574219 101.328125 241.371094 84.878906 C 230.804688 65.996094 212.433594 65.234375 195.851563 66.976563 "/>
<path style=" stroke:none;fill-rule:nonzero;fill:rgb(91.799927%,92.199707%,59.199524%);fill-opacity:1;" d="M 148.253906 0.914063 C 147.230469 0.914063 146.398438 1.300781 145.90625 2 C 145.414063 2.699219 145.335938 3.613281 145.683594 4.574219 L 149.453125 14.996094 C 149.722656 15.734375 149.703125 16.328125 149.402344 16.628906 C 149.101563 16.929688 148.507813 16.949219 147.769531 16.683594 L 136.179688 12.492188 C 135.21875 12.148438 134.304688 12.226563 133.605469 12.71875 C 132.90625 13.207031 132.519531 14.042969 132.519531 15.0625 L 132.519531 33.046875 C 132.519531 34.070313 132.90625 34.902344 133.605469 35.394531 C 134.304688 35.882813 135.21875 35.964844 136.179688 35.613281 L 149.71875 30.71875 C 150.457031 30.449219 151.066406 30.476563 151.390625 30.785156 C 151.714844 31.097656 151.761719 31.707031 151.519531 32.453125 L 146.945313 46.933594 L 147.527344 47.117188 L 152.101563 32.640625 C 152.417969 31.648438 152.316406 30.835938 151.8125 30.347656 C 151.308594 29.863281 150.492188 29.789063 149.511719 30.144531 L 135.972656 35.042969 C 135.203125 35.320313 134.488281 35.269531 133.953125 34.894531 C 133.421875 34.519531 133.128906 33.863281 133.128906 33.046875 L 133.128906 15.0625 C 133.128906 14.246094 133.421875 13.589844 133.953125 13.21875 C 134.488281 12.84375 135.203125 12.789063 135.972656 13.066406 L 147.5625 17.257813 C 148.546875 17.613281 149.351563 17.542969 149.832031 17.0625 C 150.316406 16.578125 150.382813 15.773438 150.027344 14.789063 L 146.257813 4.367188 C 145.980469 3.597656 146.03125 2.882813 146.40625 2.347656 C 146.777344 1.816406 147.4375 1.523438 148.253906 1.523438 L 166.234375 1.523438 C 167.054688 1.523438 167.710938 1.816406 168.082031 2.347656 C 168.457031 2.882813 168.507813 3.597656 168.230469 4.367188 L 164.460938 14.789063 C 164.105469 15.769531 164.175781 16.578125 164.65625 17.058594 C 165.140625 17.539063 165.945313 17.609375 166.929688 17.257813 L 178.515625 13.066406 C 179.285156 12.789063 180.003906 12.84375 180.535156 13.21875 C 181.066406 13.589844 181.359375 14.246094 181.359375 15.0625 L 181.359375 33.046875 C 181.359375 33.863281 181.066406 34.519531 180.535156 34.894531 C 180.003906 35.269531 179.285156 35.320313 178.515625 35.042969 L 164.96875 30.140625 C 163.988281 29.785156 163.171875 29.859375 162.667969 30.34375 C 162.164063 30.828125 162.058594 31.644531 162.378906 32.636719 L 166.984375 47.199219 L 167.566406 47.015625 L 162.960938 32.449219 C 162.71875 31.703125 162.765625 31.09375 163.089844 30.78125 C 163.410156 30.472656 164.019531 30.445313 164.761719 30.714844 L 178.308594 35.613281 C 179.269531 35.964844 180.183594 35.882813 180.882813 35.394531 C 181.585938 34.902344 181.96875 34.070313 181.96875 33.046875 L 181.96875 15.0625 C 181.96875 14.042969 181.585938 13.207031 180.882813 12.71875 C 180.183594 12.226563 179.269531 12.148438 178.308594 12.492188 L 166.71875 16.679688 C 165.984375 16.945313 165.390625 16.929688 165.089844 16.628906 C 164.789063 16.328125 164.769531 15.730469 165.035156 14.996094 L 168.804688 4.574219 C 169.152344 3.613281 169.074219 2.699219 168.582031 2 C 168.089844 1.300781 167.257813 0.914063 166.234375 0.914063 "/>
<path style=" stroke:none;fill-rule:nonzero;fill:rgb(81.199646%,68.998718%,48.999023%);fill-opacity:1;" d="M 151.90625 182.3125 C 151.90625 182.3125 147.636719 177.890625 143.214844 161.878906 C 139.242188 147.5 138.183594 134.585938 138.183594 125.582031 C 138.183594 115.976563 140.46875 107.890625 142.910156 101.335938 C 145.914063 93.257813 149.183594 86.074219 150.230469 76.019531 C 151.4375 64.429688 150.535156 57.71875 150.535156 57.71875 L 163.953125 57.71875 C 163.953125 57.71875 163.050781 64.429688 164.261719 76.019531 C 165.308594 86.074219 168.574219 93.257813 171.578125 101.335938 C 174.019531 107.890625 176.308594 115.976563 176.308594 125.582031 C 176.308594 134.585938 175.246094 147.5 171.273438 161.878906 C 166.851563 177.890625 162.582031 182.3125 162.582031 182.3125 "/>
<path style=" stroke:none;fill-rule:nonzero;fill:rgb(13.699341%,12.199402%,12.5%);fill-opacity:1;" d="M 162.613281 58.941406 C 162.515625 60.097656 162.40625 61.921875 162.40625 64.53125 C 162.40625 67.527344 162.554688 71.433594 163.046875 76.148438 C 163.949219 84.8125 166.421875 91.261719 169.039063 98.085938 L 170.4375 101.761719 C 172.433594 107.125 175.089844 115.433594 175.089844 125.582031 C 175.089844 133.75 174.222656 146.625 170.097656 161.554688 C 166.488281 174.632813 162.992188 179.804688 162 181.09375 L 152.488281 181.09375 C 151.496094 179.804688 148.003906 174.632813 144.390625 161.554688 C 140.269531 146.625 139.402344 133.75 139.402344 125.582031 C 139.402344 115.433594 142.058594 107.125 144.054688 101.761719 L 145.449219 98.085938 C 148.066406 91.261719 150.539063 84.8125 151.445313 76.148438 C 151.933594 71.433594 152.082031 67.527344 152.082031 64.53125 C 152.082031 61.921875 151.972656 60.097656 151.878906 58.941406 Z M 150.535156 56.5 C 150.183594 56.5 149.847656 56.652344 149.617188 56.917969 C 149.386719 57.179688 149.28125 57.53125 149.324219 57.882813 C 149.335938 57.945313 150.191406 64.613281 149.015625 75.894531 C 148.148438 84.238281 145.730469 90.542969 143.171875 97.210938 L 141.765625 100.910156 C 139.703125 106.449219 136.964844 115.039063 136.964844 125.582031 C 136.964844 133.902344 137.84375 147.011719 142.039063 162.199219 C 146.492188 178.328125 150.847656 182.96875 151.03125 183.160156 C 151.257813 183.398438 151.574219 183.53125 151.90625 183.53125 L 162.582031 183.53125 C 162.914063 183.53125 163.230469 183.398438 163.460938 183.160156 C 163.644531 182.96875 167.996094 178.328125 172.449219 162.199219 C 176.644531 147.011719 177.527344 133.902344 177.527344 125.582031 C 177.527344 115.039063 174.785156 106.449219 172.722656 100.910156 L 171.320313 97.210938 C 168.761719 90.542969 166.339844 84.238281 165.472656 75.894531 C 164.296875 64.613281 165.15625 57.945313 165.164063 57.882813 C 165.210938 57.53125 165.105469 57.179688 164.871094 56.917969 C 164.640625 56.652344 164.304688 56.5 163.953125 56.5 "/>
<path style=" stroke:none;fill-rule:nonzero;fill:rgb(13.699341%,12.199402%,12.5%);fill-opacity:1;" d="M 81.957031 215.027344 C 81.371094 215.359375 81.164063 216.101563 81.492188 216.6875 C 81.664063 216.988281 85.761719 224.136719 95.273438 228.558594 C 95.882813 228.84375 96.609375 228.574219 96.894531 227.96875 C 97.175781 227.355469 96.910156 226.628906 96.300781 226.34375 C 87.535156 222.269531 83.65625 215.558594 83.621094 215.488281 C 83.289063 214.90625 82.542969 214.699219 81.957031 215.027344 "/>
<path style=" stroke:none;fill-rule:nonzero;fill:rgb(13.699341%,12.199402%,12.5%);fill-opacity:1;" d="M 230.867188 215.492188 C 230.832031 215.558594 226.953125 222.269531 218.1875 226.347656 C 217.578125 226.628906 217.3125 227.355469 217.597656 227.96875 C 217.878906 228.578125 218.605469 228.84375 219.21875 228.558594 C 228.726563 224.136719 232.824219 216.992188 232.996094 216.6875 C 233.324219 216.101563 233.117188 215.359375 232.53125 215.03125 C 231.945313 214.699219 231.199219 214.90625 230.867188 215.492188 "/>
<path style=" stroke:none;fill-rule:nonzero;fill:rgb(81.199646%,68.998718%,48.999023%);fill-opacity:1;" d="M 147.214844 47.109375 L 151.820313 32.542969 C 152.402344 30.730469 151.414063 29.78125 149.625 30.425781 L 136.074219 35.328125 C 134.289063 35.976563 132.824219 34.949219 132.824219 33.046875 L 132.824219 15.0625 C 132.824219 13.160156 134.289063 12.132813 136.078125 12.78125 L 147.664063 16.96875 C 149.453125 17.613281 150.386719 16.679688 149.742188 14.890625 L 145.972656 4.472656 C 145.324219 2.683594 146.351563 1.21875 148.253906 1.21875 L 166.234375 1.21875 C 168.136719 1.21875 169.164063 2.683594 168.519531 4.472656 L 164.746094 14.894531 C 164.101563 16.679688 165.035156 17.617188 166.824219 16.972656 L 178.410156 12.78125 C 180.199219 12.132813 181.664063 13.160156 181.664063 15.0625 L 181.664063 33.046875 C 181.664063 34.949219 180.199219 35.976563 178.414063 35.328125 L 164.875 30.429688 C 163.085938 29.78125 162.097656 30.734375 162.679688 32.546875 L 167.253906 47.023438 L 165.886719 52.738281 L 148.601563 53.347656 "/>
<path style=" stroke:none;fill-rule:nonzero;fill:rgb(13.699341%,12.199402%,12.5%);fill-opacity:1;" d="M 150.480469 17.707031 C 150.914063 17.273438 151.539063 16.277344 150.890625 14.476563 L 147.117188 4.054688 C 146.945313 3.574219 146.960938 3.15625 147.15625 2.875 C 147.351563 2.59375 147.742188 2.4375 148.253906 2.4375 L 166.234375 2.4375 C 166.746094 2.4375 167.136719 2.59375 167.335938 2.875 C 167.53125 3.15625 167.542969 3.574219 167.371094 4.054688 L 163.601563 14.476563 C 162.949219 16.28125 163.578125 17.273438 164.007813 17.707031 C 164.441406 18.140625 165.4375 18.769531 167.238281 18.117188 L 178.828125 13.929688 C 179.308594 13.753906 179.726563 13.769531 180.007813 13.964844 C 180.289063 14.164063 180.445313 14.554688 180.445313 15.0625 L 180.445313 33.046875 C 180.445313 33.558594 180.289063 33.945313 180.007813 34.144531 C 179.726563 34.34375 179.308594 34.355469 178.828125 34.179688 L 165.289063 29.28125 C 163.984375 28.808594 162.800781 28.957031 162.042969 29.6875 C 161.550781 30.164063 161.296875 30.828125 161.296875 31.597656 C 161.296875 32.011719 161.367188 32.457031 161.515625 32.917969 C 161.515625 32.917969 165.792969 46.453125 165.988281 47.070313 C 165.871094 47.558594 165.199219 50.359375 164.917969 51.550781 C 163.355469 51.605469 151.265625 52.03125 149.574219 52.09375 C 149.28125 50.777344 148.582031 47.644531 148.476563 47.164063 C 148.664063 46.5625 152.984375 32.910156 152.984375 32.910156 C 153.132813 32.449219 153.203125 32.007813 153.203125 31.59375 C 153.203125 30.824219 152.949219 30.160156 152.457031 29.683594 C 151.699219 28.953125 150.515625 28.808594 149.210938 29.28125 L 135.660156 34.179688 C 135.179688 34.355469 134.761719 34.34375 134.480469 34.144531 C 134.199219 33.945313 134.042969 33.558594 134.042969 33.046875 L 134.042969 15.0625 C 134.042969 14.554688 134.199219 14.164063 134.480469 13.964844 C 134.761719 13.769531 135.183594 13.753906 135.664063 13.929688 L 147.25 18.117188 C 149.054688 18.765625 150.046875 18.140625 150.480469 17.707031 M 148.253906 0 C 146.945313 0 145.816406 0.535156 145.15625 1.472656 C 144.761719 2.039063 144.558594 2.714844 144.558594 3.433594 C 144.558594 3.90625 144.648438 4.398438 144.824219 4.886719 L 148.59375 15.308594 C 148.703125 15.609375 148.726563 15.808594 148.726563 15.917969 C 148.726563 15.972656 148.722656 15.980469 148.71875 15.996094 C 148.695313 15.960938 148.496094 15.972656 148.078125 15.820313 L 136.492188 11.632813 C 135.261719 11.1875 134.015625 11.3125 133.078125 11.96875 C 132.140625 12.625 131.605469 13.753906 131.605469 15.0625 L 131.605469 33.046875 C 131.605469 34.355469 132.140625 35.484375 133.078125 36.140625 C 134.015625 36.800781 135.261719 36.921875 136.492188 36.476563 L 150.039063 31.574219 C 150.492188 31.410156 150.742188 31.4375 150.792969 31.460938 C 150.769531 31.464844 150.804688 31.710938 150.65625 32.171875 L 146.050781 46.738281 C 145.984375 46.945313 145.976563 47.164063 146.023438 47.371094 L 147.410156 53.613281 C 147.539063 54.1875 148.058594 54.589844 148.644531 54.566406 L 165.929688 53.957031 C 166.476563 53.9375 166.945313 53.554688 167.074219 53.019531 L 168.4375 47.308594 C 168.488281 47.09375 168.480469 46.871094 168.414063 46.660156 L 163.84375 32.179688 C 163.691406 31.714844 163.730469 31.46875 163.757813 31.417969 C 163.757813 31.441406 164.003906 31.414063 164.460938 31.578125 L 177.996094 36.476563 C 179.230469 36.921875 180.472656 36.800781 181.410156 36.140625 C 182.347656 35.484375 182.886719 34.355469 182.886719 33.046875 L 182.886719 15.0625 C 182.886719 13.753906 182.347656 12.625 181.410156 11.96875 C 180.472656 11.3125 179.230469 11.1875 177.996094 11.632813 L 166.410156 15.820313 C 165.960938 15.984375 165.769531 15.957031 165.71875 15.945313 C 165.753906 15.925781 165.742188 15.722656 165.894531 15.308594 L 169.664063 4.886719 C 169.84375 4.398438 169.929688 3.90625 169.929688 3.433594 C 169.929688 2.714844 169.730469 2.039063 169.332031 1.472656 C 168.675781 0.535156 167.546875 0 166.234375 0 "/>
<path style=" stroke:none;fill-rule:nonzero;fill:rgb(81.199646%,68.998718%,48.999023%);fill-opacity:1;" d="M 156.53125 199.949219 C 104.480469 199.949219 83.015625 216.660156 83.015625 216.660156 C 82.746094 216.816406 79.585938 210.601563 75.542969 199.894531 C 74.71875 197.710938 75.988281 195.722656 77.707031 194.808594 C 84.824219 191.011719 107.875 181.242188 156.53125 181.246094 L 157.957031 181.246094 C 206.613281 181.242188 229.664063 191.011719 236.78125 194.808594 C 238.5 195.722656 239.769531 197.710938 238.945313 199.894531 C 234.90625 210.601563 231.742188 216.816406 231.472656 216.660156 C 231.472656 216.660156 210.011719 199.949219 157.957031 199.949219 "/>
<path style=" stroke:none;fill-rule:nonzero;fill:rgb(13.699341%,12.199402%,12.5%);fill-opacity:1;" d="M 76.6875 199.464844 C 76.5625 199.136719 76.507813 198.820313 76.507813 198.515625 C 76.507813 197.359375 77.3125 196.398438 78.28125 195.886719 C 85.847656 191.851563 108.621094 182.464844 156.527344 182.464844 L 157.957031 182.464844 C 205.867188 182.464844 228.640625 191.847656 236.210938 195.886719 C 237.175781 196.398438 237.984375 197.359375 237.984375 198.515625 C 237.984375 198.820313 237.925781 199.136719 237.804688 199.464844 C 234.726563 207.617188 232.234375 212.957031 231.15625 214.945313 C 226.304688 211.664063 204.25 198.730469 157.957031 198.730469 L 156.53125 198.730469 C 110.238281 198.730469 88.1875 211.664063 83.332031 214.945313 C 82.257813 212.957031 79.765625 207.617188 76.6875 199.464844 M 77.132813 193.730469 C 75.039063 194.847656 73.292969 197.386719 74.402344 200.324219 C 75.050781 202.046875 80.804688 217.171875 82.578125 217.8125 C 82.96875 217.953125 83.433594 217.882813 83.765625 217.625 C 83.976563 217.460938 105.601563 201.171875 156.53125 201.171875 L 157.957031 201.171875 C 208.890625 201.171875 230.515625 217.460938 230.726563 217.625 C 231.054688 217.882813 231.519531 217.953125 231.910156 217.8125 C 233.6875 217.171875 239.4375 202.046875 240.085938 200.324219 C 241.195313 197.386719 239.449219 194.847656 237.355469 193.730469 C 229.628906 189.609375 206.414063 180.023438 157.957031 180.023438 L 156.53125 180.023438 C 108.074219 180.023438 84.863281 189.609375 77.132813 193.730469 "/>
<path style=" stroke:none;fill-rule:nonzero;fill:rgb(81.199646%,68.998718%,48.999023%);fill-opacity:1;" d="M 146.242188 51.617188 C 146.242188 57.695313 151.171875 62.621094 157.246094 62.621094 C 163.320313 62.621094 168.246094 57.695313 168.246094 51.617188 C 168.246094 45.542969 163.320313 40.617188 157.246094 40.617188 C 151.171875 40.617188 146.242188 45.542969 146.242188 51.617188 "/>
<path style=" stroke:none;fill-rule:nonzero;fill:rgb(13.699341%,12.199402%,12.5%);fill-opacity:1;" d="M 147.464844 51.617188 C 147.464844 46.226563 151.851563 41.839844 157.242188 41.839844 C 162.636719 41.839844 167.027344 46.226563 167.027344 51.617188 C 167.027344 57.015625 162.636719 61.402344 157.242188 61.402344 C 151.851563 61.402344 147.464844 57.015625 147.464844 51.617188 M 145.023438 51.617188 C 145.023438 58.359375 150.507813 63.839844 157.242188 63.839844 C 163.984375 63.839844 169.464844 58.359375 169.464844 51.617188 C 169.464844 44.882813 163.984375 39.398438 157.242188 39.398438 C 150.507813 39.398438 145.023438 44.882813 145.023438 51.617188 "/>
<path style=" stroke:none;fill-rule:nonzero;fill:rgb(93.299866%,15.699768%,18.798828%);fill-opacity:1;" d="M 97.421875 549.867188 L 57.535156 502.898438 L 57.535156 324.484375 L 97.421875 324.484375 Z M 97.421875 549.867188 "/>
<path style=" stroke:none;fill-rule:nonzero;fill:rgb(13.699341%,12.199402%,12.5%);fill-opacity:1;" d="M 96.203125 325.703125 L 96.203125 546.546875 C 92.382813 542.050781 59.296875 503.085938 58.753906 502.449219 L 58.753906 325.703125 Z M 97.421875 323.265625 L 56.316406 323.265625 L 56.316406 503.34375 L 98.644531 553.1875 L 98.644531 323.265625 "/>
<path style=" stroke:none;fill-rule:nonzero;fill:rgb(93.299866%,15.699768%,18.798828%);fill-opacity:1;" d="M 137.285156 585.183594 L 137.285156 324.363281 L 177.175781 324.363281 L 177.175781 583.957031 L 157.292969 599.886719 "/>
<path style=" stroke:none;fill-rule:nonzero;fill:rgb(13.699341%,12.199402%,12.5%);fill-opacity:1;" d="M 175.953125 325.582031 L 175.953125 583.371094 C 175.113281 584.042969 158.585938 597.289063 157.261719 598.347656 C 155.898438 597.347656 139.414063 585.234375 138.507813 584.566406 L 138.507813 325.582031 Z M 177.175781 323.144531 L 136.066406 323.144531 L 136.066406 585.800781 L 157.324219 601.425781 L 178.394531 584.542969 L 178.394531 323.144531 "/>
<path style=" stroke:none;fill-rule:nonzero;fill:rgb(93.299866%,15.699768%,18.798828%);fill-opacity:1;" d="M 256.925781 499.847656 L 217.039063 549.257813 L 217.039063 324.484375 L 256.925781 324.484375 Z M 256.925781 499.847656 "/>
<path style=" stroke:none;fill-rule:nonzero;fill:rgb(13.699341%,12.199402%,12.5%);fill-opacity:1;" d="M 255.703125 325.703125 L 255.703125 499.414063 C 255.203125 500.039063 222.109375 541.03125 218.257813 545.804688 L 218.257813 325.703125 Z M 256.925781 323.265625 L 215.816406 323.265625 L 215.816406 552.710938 L 258.144531 500.277344 L 258.144531 323.265625 "/>
<path style=" stroke:none;fill-rule:nonzero;fill:rgb(81.199646%,68.998718%,48.999023%);fill-opacity:1;" d="M 299.832031 330.878906 L 14.636719 330.878906 C 14.636719 330.878906 14.640625 331.34375 14.640625 332.039063 L 14.640625 367.476563 C 14.640625 400.164063 32.722656 457.238281 73.117188 511.070313 C 100.769531 547.914063 143.96875 582.886719 157.242188 593.25 C 170.515625 582.886719 213.703125 547.914063 241.351563 511.070313 C 281.746094 457.238281 299.832031 400.164063 299.832031 367.476563 Z M 299.832031 235.105469 L 14.640625 235.105469 C 14.640625 241.855469 14.644531 317.457031 14.644531 317.457031 L 299.832031 317.457031 C 299.832031 317.457031 299.832031 241.867188 299.832031 235.105469 M 313.25 221.6875 L 313.25 367.476563 C 313.25 399.835938 297.230469 458.964844 252.085938 519.121094 C 218.078125 564.441406 163.5625 605.371094 161.257813 607.09375 L 157.242188 610.089844 L 153.230469 607.09375 C 150.925781 605.371094 96.390625 564.441406 62.386719 519.121094 C 17.238281 458.964844 1.21875 399.835938 1.21875 367.476563 L 1.21875 221.6875 L 306.539063 221.6875 "/>
<g clip-path="url(#clip1)" clip-rule="nonzero">
<path style=" stroke:none;fill-rule:nonzero;fill:rgb(13.699341%,12.199402%,12.5%);fill-opacity:1;" d="M 306.539063 222.90625 L 312.03125 222.90625 L 312.03125 367.476563 C 312.03125 399.648438 296.074219 458.472656 251.109375 518.390625 C 217.210938 563.566406 162.824219 604.398438 160.527344 606.117188 C 160.527344 606.117188 158.21875 607.839844 157.242188 608.566406 C 156.265625 607.839844 153.957031 606.117188 153.957031 606.117188 C 151.660156 604.398438 97.261719 563.566406 63.359375 518.390625 C 18.394531 458.472656 2.4375 399.648438 2.4375 367.476563 L 2.4375 222.90625 Z M 306.539063 220.46875 L 1.21875 220.46875 C 0.546875 220.46875 0 221.011719 0 221.6875 L 0 367.476563 C 0 400.023438 16.082031 459.457031 61.410156 519.855469 C 95.519531 565.308594 150.1875 606.347656 152.5 608.070313 L 156.515625 611.066406 C 156.945313 611.390625 157.539063 611.390625 157.972656 611.066406 L 161.988281 608.070313 C 164.296875 606.347656 218.953125 565.308594 253.0625 519.855469 C 298.386719 459.457031 314.46875 400.023438 314.46875 367.476563 L 314.46875 221.6875 C 314.46875 221.011719 313.925781 220.46875 313.25 220.46875 "/>
</g>
<path style=" stroke:none;fill-rule:nonzero;fill:rgb(13.699341%,12.199402%,12.5%);fill-opacity:1;" d="M 298.609375 236.328125 C 298.609375 238.660156 298.609375 313.902344 298.609375 316.238281 L 15.863281 316.238281 C 15.863281 313.902344 15.859375 238.660156 15.859375 236.328125 Z M 14.640625 233.886719 C 14.316406 233.886719 14.007813 234.015625 13.777344 234.242188 C 13.546875 234.472656 13.417969 234.785156 13.417969 235.105469 L 13.425781 317.457031 C 13.425781 318.132813 13.96875 318.675781 14.644531 318.675781 L 299.832031 318.675781 C 300.152344 318.675781 300.464844 318.550781 300.691406 318.320313 C 300.921875 318.089844 301.050781 317.78125 301.050781 317.457031 L 301.050781 235.105469 C 301.050781 234.433594 300.503906 233.886719 299.828125 233.886719 "/>
<path style=" stroke:none;fill-rule:nonzero;fill:rgb(13.699341%,12.199402%,12.5%);fill-opacity:1;" d="M 298.609375 332.097656 C 298.609375 334.378906 298.609375 367.476563 298.609375 367.476563 C 298.609375 399.960938 280.605469 456.730469 240.375 510.339844 C 213.203125 546.546875 170.742188 581.113281 157.242188 591.699219 C 143.738281 581.113281 101.273438 546.554688 74.09375 510.339844 C 33.867188 456.730469 15.859375 399.960938 15.859375 367.476563 L 15.859375 332.097656 Z M 14.636719 329.65625 C 14.3125 329.65625 14 329.789063 13.773438 330.019531 C 13.542969 330.246094 13.414063 330.5625 13.414063 330.886719 L 13.417969 332.039063 L 13.417969 367.476563 C 13.417969 400.367188 31.578125 457.746094 72.140625 511.800781 C 99.976563 548.894531 143.742188 584.257813 156.492188 594.210938 C 156.933594 594.554688 157.550781 594.554688 157.992188 594.210938 C 170.742188 584.253906 214.496094 548.886719 242.328125 511.800781 C 282.894531 457.746094 301.050781 400.367188 301.050781 367.476563 L 301.050781 330.878906 C 301.050781 330.554688 300.921875 330.242188 300.695313 330.015625 C 300.464844 329.785156 300.152344 329.65625 299.832031 329.65625 "/>
<path style=" stroke:none;fill-rule:nonzero;fill:rgb(93.299866%,15.699768%,18.798828%);fill-opacity:1;" d="M 76.046875 267.160156 C 77.566406 270.75 81.964844 281.15625 82.914063 283.40625 L 69.570313 283.40625 C 70.453125 281.183594 74.605469 270.773438 76.046875 267.160156 M 68.964844 243.027344 C 68.492188 243.027344 68.070313 243.308594 67.902344 243.730469 L 41.921875 308.570313 C 41.785156 308.910156 41.832031 309.292969 42.046875 309.59375 C 42.257813 309.890625 42.609375 310.070313 42.984375 310.070313 L 58.152344 310.070313 C 58.621094 310.070313 59.046875 309.792969 59.214844 309.367188 C 59.214844 309.367188 63.746094 298.03125 64.246094 296.777344 C 65.65625 296.761719 86.503906 296.539063 87.910156 296.523438 C 88.441406 297.765625 93.410156 309.390625 93.410156 309.390625 C 93.585938 309.804688 94.003906 310.070313 94.464844 310.070313 L 109.628906 310.070313 C 110.007813 310.070313 110.359375 309.890625 110.570313 309.589844 C 110.785156 309.289063 110.828125 308.902344 110.691406 308.566406 L 84.226563 243.726563 C 84.054688 243.304688 83.632813 243.027344 83.164063 243.027344 "/>
<path style=" stroke:none;fill-rule:nonzero;fill:rgb(93.299866%,15.699768%,18.798828%);fill-opacity:1;" d="M 137.015625 243.992188 C 132.863281 245.734375 129.636719 248.195313 127.425781 251.320313 C 125.378906 254.214844 124.347656 257.363281 124.347656 260.699219 C 124.347656 261.003906 124.355469 261.308594 124.371094 261.617188 C 124.578125 265.4375 126.082031 268.804688 128.84375 271.613281 C 131.515625 274.332031 134.722656 276.578125 138.378906 278.289063 C 141.964844 279.96875 145.628906 281.40625 149.269531 282.558594 L 156.339844 284.828125 C 162.085938 286.683594 162.972656 288.910156 162.972656 290.285156 C 162.972656 290.691406 162.894531 291.023438 162.84375 291.246094 C 162.53125 292.257813 161.878906 293.203125 160.871094 294.066406 C 159.921875 294.882813 158.34375 295.324219 156.179688 295.375 C 151.488281 295.550781 147.515625 294.460938 144.359375 292.144531 C 141.082031 289.742188 138.414063 287.078125 136.433594 284.222656 C 136.082031 283.71875 135.378906 283.582031 134.855469 283.914063 L 123.042969 291.4375 C 122.554688 291.746094 122.390625 292.363281 122.65625 292.863281 C 126.832031 300.683594 132.035156 305.824219 138.113281 308.152344 C 144.070313 310.425781 149.570313 311.582031 154.46875 311.582031 C 160.6875 311.519531 165.921875 310.492188 170.03125 308.519531 C 174.164063 306.539063 177.328125 303.972656 179.433594 300.890625 C 181.535156 297.8125 182.707031 294.566406 182.914063 291.238281 C 183.527344 284.96875 181.332031 280.015625 176.390625 276.550781 C 171.703125 273.269531 165.816406 270.457031 158.898438 268.195313 C 158.925781 268.207031 155.972656 267.15625 155.972656 267.15625 L 155.101563 266.847656 C 155.097656 266.847656 150.761719 265.386719 150.761719 265.386719 C 149.546875 264.988281 148.429688 264.527344 147.453125 264.015625 C 146.527344 263.523438 145.671875 262.902344 144.914063 262.167969 C 144.273438 261.542969 143.9375 260.8125 143.886719 259.9375 C 143.890625 259.007813 144.28125 258.109375 145.09375 257.253906 C 145.863281 256.4375 147.355469 256.023438 149.527344 256.023438 C 154.824219 255.910156 160.640625 258.828125 166.839844 264.699219 C 167.265625 265.105469 167.945313 265.121094 168.394531 264.734375 L 178.464844 256.066406 C 178.910156 255.683594 178.976563 255.03125 178.613281 254.574219 C 175.289063 250.355469 171.167969 247.128906 166.371094 244.984375 C 161.601563 242.855469 156.5625 241.710938 151.394531 241.589844 C 145.957031 241.464844 141.121094 242.273438 137.015625 243.992188 "/>
<path style=" stroke:none;fill-rule:nonzero;fill:rgb(93.299866%,15.699768%,18.798828%);fill-opacity:1;" d="M 250.214844 243.027344 C 249.710938 243.027344 249.265625 243.347656 249.121094 243.808594 C 249.121094 243.808594 240.167969 272.398438 238.367188 278.148438 C 236.566406 272.398438 227.613281 243.808594 227.613281 243.808594 C 227.46875 243.347656 227.023438 243.027344 226.519531 243.027344 L 205.226563 243.027344 C 204.597656 243.027344 204.085938 243.519531 204.085938 244.128906 L 204.085938 308.96875 C 204.085938 309.578125 204.597656 310.070313 205.226563 310.070313 L 219.867188 310.070313 C 220.496094 310.070313 221.007813 309.578125 221.007813 308.96875 L 221.007813 273.246094 C 224.101563 283.332031 232.042969 309.238281 232.042969 309.238281 C 232.1875 309.703125 232.632813 310.023438 233.136719 310.023438 L 243.503906 310.023438 C 244.007813 310.023438 244.453125 309.703125 244.597656 309.238281 C 244.597656 309.238281 252.539063 283.332031 255.632813 273.246094 L 255.632813 308.96875 C 255.632813 309.578125 256.140625 310.070313 256.773438 310.070313 L 271.410156 310.070313 C 272.042969 310.070313 272.554688 309.578125 272.554688 308.96875 L 272.554688 244.128906 C 272.554688 243.519531 272.042969 243.027344 271.410156 243.027344 "/>
<path style=" stroke:none;fill-rule:nonzero;fill:rgb(13.699341%,12.199402%,12.5%);fill-opacity:1;" d="M 83.164063 244.246094 C 83.164063 244.246094 109.390625 308.613281 109.503906 308.886719 C 109.367188 308.886719 94.464844 308.851563 94.464844 308.851563 C 94.464844 308.757813 89.03125 296.042969 89.03125 296.042969 L 88.710938 295.296875 L 63.417969 295.566406 L 58.082031 308.914063 C 58.082031 308.914063 43.390625 308.855469 43.121094 308.851563 C 43.257813 308.511719 68.960938 244.371094 69.007813 244.246094 Z M 68.964844 241.808594 C 67.992188 241.808594 67.128906 242.382813 66.769531 243.277344 L 40.789063 308.117188 C 40.5 308.84375 40.59375 309.660156 41.046875 310.300781 C 41.492188 310.921875 42.214844 311.292969 42.984375 311.292969 L 58.148438 311.292969 C 59.128906 311.292969 59.988281 310.714844 60.347656 309.820313 C 60.347656 309.820313 64 300.679688 65.078125 297.988281 C 66.363281 297.976563 85.636719 297.769531 87.109375 297.753906 C 87.675781 299.082031 92.289063 309.871094 92.289063 309.871094 C 92.65625 310.734375 93.511719 311.292969 94.464844 311.292969 L 109.628906 311.292969 C 110.402344 311.292969 111.128906 310.917969 111.570313 310.292969 C 112.023438 309.648438 112.117188 308.828125 111.820313 308.101563 L 85.355469 243.265625 C 84.996094 242.378906 84.136719 241.808594 83.164063 241.808594 "/>
<path style=" stroke:none;fill-rule:nonzero;fill:rgb(13.699341%,12.199402%,12.5%);fill-opacity:1;" d="M 72.449219 279.476563 C 72.449219 279.476563 74.785156 273.621094 76.078125 270.371094 C 76.824219 272.136719 80.089844 279.855469 81.074219 282.183594 L 71.367188 282.183594 C 71.878906 280.90625 72.449219 279.476563 72.449219 279.476563 M 74.914063 266.707031 L 67.769531 284.625 L 84.753906 284.625 L 76.015625 263.949219 "/>
<path style=" stroke:none;fill-rule:nonzero;fill:rgb(13.699341%,12.199402%,12.5%);fill-opacity:1;" d="M 151.367188 242.808594 C 156.371094 242.925781 161.253906 244.035156 165.871094 246.097656 C 170.449219 248.144531 174.378906 251.21875 177.566406 255.230469 C 177.367188 255.402344 167.601563 263.808594 167.601563 263.808594 C 161.238281 257.714844 155.121094 254.683594 149.503906 254.804688 L 149.5 254.804688 C 146.96875 254.804688 145.230469 255.332031 144.203125 256.414063 C 143.1875 257.492188 142.671875 258.675781 142.667969 259.933594 C 142.734375 261.183594 143.203125 262.207031 144.0625 263.039063 C 144.90625 263.859375 145.855469 264.550781 146.890625 265.09375 C 147.921875 265.636719 149.09375 266.125 150.378906 266.546875 C 153.546875 267.613281 154.480469 267.925781 154.835938 268.023438 C 154.769531 268.011719 154.691406 267.996094 154.691406 267.996094 L 157.027344 268.828125 C 157.710938 269.070313 158.199219 269.21875 158.617188 269.308594 C 158.605469 269.3125 158.519531 269.355469 158.519531 269.355469 C 165.324219 271.578125 171.101563 274.335938 175.6875 277.550781 C 179.746094 280.390625 181.792969 284.320313 181.792969 289.246094 C 181.792969 289.855469 181.761719 290.480469 181.699219 291.121094 C 181.503906 294.269531 180.402344 297.308594 178.425781 300.199219 C 176.441406 303.105469 173.441406 305.53125 169.503906 307.421875 C 165.554688 309.3125 160.492188 310.300781 154.453125 310.359375 C 149.71875 310.359375 144.363281 309.234375 138.550781 307.011719 C 132.785156 304.808594 127.824219 299.882813 123.800781 292.398438 C 124.003906 292.269531 135.515625 284.945313 135.515625 284.945313 C 137.492188 287.882813 140.25 290.644531 143.636719 293.128906 C 147.023438 295.613281 151.257813 296.777344 156.226563 296.59375 C 158.664063 296.535156 160.5 295.996094 161.667969 294.992188 C 162.835938 293.992188 163.621094 292.851563 164.007813 291.605469 C 164.03125 291.519531 164.191406 290.285156 164.191406 290.285156 C 164.191406 287.496094 161.675781 285.269531 156.71875 283.667969 L 149.644531 281.398438 C 146.050781 280.257813 142.433594 278.84375 138.894531 277.183594 C 135.371094 275.535156 132.28125 273.371094 129.714844 270.761719 C 127.167969 268.164063 125.78125 265.066406 125.589844 261.550781 C 125.589844 261.550781 125.566406 260.699219 125.566406 260.699219 C 125.566406 257.621094 126.527344 254.703125 128.421875 252.023438 C 130.496094 249.09375 133.546875 246.769531 137.488281 245.117188 C 141.433594 243.464844 146.105469 242.6875 151.367188 242.808594 M 136.546875 242.867188 C 132.179688 244.695313 128.777344 247.304688 126.429688 250.613281 C 124.238281 253.714844 123.125 257.109375 123.125 260.699219 L 123.152344 261.6875 C 123.378906 265.8125 125 269.4375 127.976563 272.46875 C 130.746094 275.289063 134.070313 277.621094 137.859375 279.394531 C 141.496094 281.097656 145.210938 282.554688 148.902344 283.722656 L 155.96875 285.992188 C 159.695313 287.195313 161.753906 288.722656 161.753906 290.285156 L 161.65625 290.972656 C 161.429688 291.683594 160.894531 292.441406 160.078125 293.140625 C 159.574219 293.574219 158.484375 294.101563 156.152344 294.15625 C 151.730469 294.320313 148.011719 293.3125 145.078125 291.160156 C 141.910156 288.835938 139.339844 286.269531 137.4375 283.527344 C 136.707031 282.476563 135.285156 282.195313 134.203125 282.886719 L 122.390625 290.40625 C 121.355469 291.066406 121.011719 292.367188 121.582031 293.4375 C 125.898438 301.523438 131.316406 306.855469 137.679688 309.289063 C 143.773438 311.617188 149.421875 312.800781 154.46875 312.800781 C 160.878906 312.738281 166.285156 311.667969 170.558594 309.621094 C 174.890625 307.546875 178.214844 304.839844 180.441406 301.578125 C 182.667969 298.320313 183.910156 294.863281 184.128906 291.316406 C 184.789063 284.605469 182.421875 279.285156 177.089844 275.550781 C 172.304688 272.199219 166.3125 269.335938 159.277344 267.035156 C 159.300781 267.046875 156.378906 266.007813 156.378906 266.007813 L 155.507813 265.699219 C 155.484375 265.691406 151.148438 264.230469 151.148438 264.230469 C 149.984375 263.847656 148.9375 263.410156 148.023438 262.933594 C 147.199219 262.5 146.4375 261.945313 145.765625 261.289063 C 145.339844 260.878906 145.136719 260.441406 145.105469 259.867188 C 145.109375 259.3125 145.394531 258.710938 145.980469 258.089844 C 146.277344 257.773438 147.136719 257.246094 149.527344 257.246094 C 154.507813 257.140625 160.042969 259.945313 166 265.585938 C 166.890625 266.429688 168.261719 266.460938 169.191406 265.660156 L 179.261719 256.988281 C 180.199219 256.183594 180.339844 254.789063 179.574219 253.816406 C 176.121094 249.445313 171.847656 246.097656 166.867188 243.871094 C 161.953125 241.675781 156.753906 240.496094 151.421875 240.367188 C 145.8125 240.242188 140.808594 241.082031 136.546875 242.867188 "/>
<path style=" stroke:none;fill-rule:nonzero;fill:rgb(13.699341%,12.199402%,12.5%);fill-opacity:1;" d="M 271.332031 244.246094 L 271.332031 308.851563 L 256.851563 308.851563 L 256.851563 273.246094 L 254.464844 272.890625 L 243.429688 308.878906 L 233.136719 308.804688 C 233.136719 308.644531 222.175781 272.890625 222.175781 272.890625 L 219.789063 273.246094 L 219.789063 308.851563 L 205.304688 308.851563 L 205.304688 244.246094 L 226.519531 244.246094 C 226.519531 244.402344 237.203125 278.511719 237.203125 278.511719 L 238.367188 282.230469 C 238.367188 282.230469 250.21875 244.390625 250.261719 244.246094 Z M 250.214844 241.808594 C 249.171875 241.808594 248.265625 242.464844 247.957031 243.445313 C 247.957031 243.445313 241.140625 265.207031 238.367188 274.066406 C 236.515625 268.152344 228.777344 243.445313 228.777344 243.445313 C 228.46875 242.464844 227.5625 241.808594 226.519531 241.808594 L 205.226563 241.808594 C 203.925781 241.808594 202.863281 242.847656 202.863281 244.128906 L 202.863281 308.96875 C 202.863281 310.25 203.925781 311.292969 205.226563 311.292969 L 219.867188 311.292969 C 221.167969 311.292969 222.226563 310.25 222.226563 308.96875 L 222.226563 281.390625 C 225.160156 290.949219 230.875 309.59375 230.875 309.59375 C 231.179688 310.582031 232.085938 311.246094 233.136719 311.246094 L 243.5 311.246094 C 244.550781 311.246094 245.460938 310.582031 245.761719 309.59375 C 245.761719 309.59375 251.164063 291.96875 254.410156 281.390625 L 254.410156 308.96875 C 254.410156 310.25 255.46875 311.292969 256.769531 311.292969 L 271.410156 311.292969 C 272.714844 311.292969 273.773438 310.25 273.773438 308.96875 L 273.773438 244.128906 C 273.773438 242.847656 272.714844 241.808594 271.410156 241.808594 "/>
</g>
</svg>
