<?xml version="1.0" encoding="UTF-8"?>
<svg xmlns="http://www.w3.org/2000/svg" xmlns:xlink="http://www.w3.org/1999/xlink" width="474.65pt" height="575.51pt" viewBox="0 0 474.65 575.51" version="1.1">
<defs>
<clipPath id="clip1">
  <path d="M 0 0 L 474.648438 0 L 474.648438 575.511719 L 0 575.511719 Z M 0 0 "/>
</clipPath>
</defs>
<g id="surface1">
<g clip-path="url(#clip1)" clip-rule="nonzero">
<path style=" stroke:none;fill-rule:nonzero;fill:rgb(0%,0%,0%);fill-opacity:1;" d="M 237.324219 478.808594 C 215.746094 478.808594 194.746094 476.644531 174.601563 472.558594 L 185.476563 438.613281 L 185.589844 438.546875 C 200.785156 441.558594 217.929688 443.265625 237.3125 443.257813 L 237.332031 443.257813 C 256.714844 443.265625 273.859375 441.558594 289.054688 438.546875 L 289.167969 438.613281 L 300.042969 472.558594 C 279.898438 476.644531 258.898438 478.808594 237.324219 478.808594 M 419 383.167969 L 401.039063 345.925781 C 405.125 333.957031 406.964844 323.992188 408.238281 318.472656 C 409.625 312.328125 411.054688 299.257813 412.542969 282.257813 C 414.023438 265.285156 415.535156 244.492188 416.984375 223.28125 C 419.882813 180.871094 422.546875 136.761719 424.246094 118.414063 C 426.761719 91.1875 437.90625 61.527344 443.316406 48.480469 C 445.117188 44.128906 446.269531 41.644531 446.273438 41.640625 L 447.203125 39.625 L 445.152344 38.773438 C 445.007813 38.71875 351.78125 0.0117188 237.324219 0 C 122.863281 0.0117188 29.636719 38.71875 29.492188 38.773438 L 27.441406 39.625 L 28.371094 41.640625 C 28.378906 41.644531 29.527344 44.128906 31.328125 48.480469 C 36.738281 61.527344 47.882813 91.1875 50.398438 118.414063 C 52.101563 136.761719 54.761719 180.871094 57.660156 223.28125 C 59.109375 244.492188 60.621094 265.285156 62.101563 282.257813 C 63.589844 299.257813 65.019531 312.328125 66.40625 318.472656 C 67.679688 323.992188 69.519531 333.957031 73.605469 345.925781 L 55.644531 383.167969 L 0 373.613281 L 2.109375 377.484375 C 24.167969 417.90625 55.78125 452.074219 93.835938 476.757813 L 66.886719 527.628906 L 68.613281 528.671875 C 117.941406 558.515625 175.714844 575.511719 237.324219 575.511719 C 298.933594 575.511719 356.703125 558.515625 406.03125 528.671875 L 407.757813 527.628906 L 380.8125 476.757813 C 418.863281 452.074219 450.476563 417.90625 472.535156 377.484375 L 474.648438 373.613281 "/>
</g>
<path style=" stroke:none;fill-rule:nonzero;fill:rgb(7.099915%,26.298523%,48.599243%);fill-opacity:1;" d="M 404.078125 317.519531 C 405.355469 311.941406 406.824219 298.789063 408.292969 281.886719 C 412.730469 231.089844 417.425781 145.757813 420 118.019531 C 423.03125 85.554688 437.664063 50.609375 441.484375 41.898438 C 440.898438 41.671875 440.1875 41.394531 439.355469 41.078125 C 420.136719 33.734375 336.636719 4.257813 237.324219 4.265625 C 138.007813 4.257813 54.507813 33.734375 35.289063 41.078125 C 34.457031 41.394531 33.746094 41.671875 33.160156 41.898438 C 36.980469 50.609375 51.613281 85.554688 54.644531 118.019531 C 57.21875 145.757813 61.914063 231.089844 66.351563 281.886719 C 67.820313 298.789063 69.289063 311.941406 70.566406 317.519531 C 73.269531 329.335938 78.328125 359.589844 100.933594 386.988281 C 123.539063 414.328125 163.597656 438.957031 237.3125 438.992188 L 237.328125 438.992188 C 311.046875 438.957031 351.105469 414.328125 373.714844 386.988281 C 396.316406 359.589844 401.375 329.335938 404.078125 317.519531 "/>
<path style=" stroke:none;fill-rule:nonzero;fill:rgb(52.49939%,48.999023%,13.299561%);fill-opacity:1;" d="M 170.40625 471.675781 C 150.757813 467.398438 131.957031 461.28125 114.269531 453.546875 L 180.761719 439.355469 "/>
<path style=" stroke:none;fill-rule:nonzero;fill:rgb(52.49939%,48.999023%,13.299561%);fill-opacity:1;" d="M 293.882813 439.355469 L 360.375 453.546875 C 342.6875 461.28125 323.886719 467.398438 304.238281 471.675781 "/>
<path style=" stroke:none;fill-rule:nonzero;fill:rgb(7.099915%,26.298523%,48.599243%);fill-opacity:1;" d="M 402.097656 526.0625 C 353.792969 554.867188 297.425781 571.246094 237.324219 571.246094 C 177.21875 571.246094 120.851563 554.867188 72.546875 526.0625 L 109.582031 456.144531 C 147.824219 473.363281 191.300781 483.074219 237.324219 483.074219 C 283.347656 483.074219 326.824219 473.363281 365.0625 456.144531 "/>
<path style=" stroke:none;fill-rule:nonzero;fill:rgb(100%,92.199707%,0%);fill-opacity:1;" d="M 97.640625 389.703125 C 87.0625 376.894531 80.21875 363.472656 75.640625 351.535156 L 58.09375 387.914063 L 8.011719 379.316406 C 29.558594 417.335938 59.769531 449.515625 95.835938 472.976563 L 107.695313 450.589844 L 175.121094 436.195313 C 137.8125 426.75 113.507813 408.960938 97.640625 389.703125 "/>
<path style=" stroke:none;fill-rule:nonzero;fill:rgb(100%,92.199707%,0%);fill-opacity:1;" d="M 416.550781 387.914063 L 399.007813 351.535156 C 394.425781 363.472656 387.582031 376.894531 377.003906 389.703125 C 361.136719 408.957031 336.828125 426.75 299.523438 436.195313 L 366.949219 450.589844 L 378.808594 472.976563 C 414.878906 449.515625 445.085938 417.335938 466.632813 379.316406 "/>
<path style=" stroke:none;fill-rule:nonzero;fill:rgb(100%,92.199707%,0%);fill-opacity:1;" d="M 136.417969 496.726563 C 127.683594 497.457031 124.320313 497.183594 116.234375 495.71875 L 119.664063 485.195313 C 123.871094 485.886719 132.210938 487.234375 140.386719 482.09375 L 153.765625 486.445313 L 134.828125 544.554688 L 122.535156 539.351563 "/>
<path style=" stroke:none;fill-rule:nonzero;fill:rgb(100%,92.199707%,0%);fill-opacity:1;" d="M 160.84375 535.644531 C 161.179688 538.472656 161.566406 541.785156 164.621094 545.742188 C 170.746094 553.652344 180.175781 555.253906 184.621094 555.875 C 191.277344 556.824219 208.167969 558.65625 217.058594 543.675781 C 219.984375 538.699219 221.609375 533.085938 222.40625 527.433594 C 223.878906 517.066406 221.566406 509.054688 217.714844 504.132813 C 211.351563 496.003906 200.25 494.457031 196.976563 493.984375 C 177.679688 491.257813 166.257813 499.195313 164.492188 511.761719 C 163.238281 520.648438 167.261719 531.53125 185.195313 534.074219 C 190.5625 534.8125 195.492188 534.679688 200.359375 533.242188 C 203.816406 532.335938 205.25 531.324219 207.425781 529.792969 C 206.230469 534.257813 205.023438 538.882813 200.960938 542.039063 C 196.253906 545.742188 190.308594 545.1875 187.949219 544.835938 C 178.472656 543.511719 176.582031 538.519531 175.949219 536.488281 Z M 194.066406 504.792969 C 199.371094 505.265625 209.558594 507.433594 208.261719 516.625 C 207.207031 524.078125 198.921875 524.867188 191.195313 523.796875 C 186.285156 523.082031 178.320313 520.953125 179.480469 512.667969 C 180.441406 505.835938 186.75 504.035156 194.066406 504.792969 "/>
<path style=" stroke:none;fill-rule:nonzero;fill:rgb(100%,92.199707%,0%);fill-opacity:1;" d="M 295.472656 510.214844 C 294.238281 507.625 293.351563 505.679688 290.949219 503.292969 C 284.699219 497 275.449219 495.355469 266.457031 496.121094 C 253.269531 497.199219 234.816406 505.910156 236.9375 531.457031 C 238.21875 547.042969 246.640625 560.90625 270.746094 558.886719 C 282.378906 557.941406 289.109375 553.605469 292.566406 549.722656 C 295.601563 546.320313 298.21875 541.042969 297.695313 534.8125 C 296.835938 524.378906 287.636719 515.746094 270.609375 517.15625 C 258.695313 518.125 253.636719 523.703125 251.433594 526.117188 C 251.378906 522.058594 251.386719 516.535156 255.792969 511.925781 C 257.988281 509.640625 261.429688 507.691406 266.375 507.253906 C 274.613281 506.585938 277.886719 510.472656 280.019531 512.875 Z M 266.082031 528.222656 C 272.382813 527.417969 281.675781 528.3125 282.34375 536.550781 C 282.953125 543.886719 275.929688 546.851563 268.964844 547.425781 C 264.5625 547.773438 259.398438 547.679688 255.949219 543.796875 C 254.433594 542.085938 253.910156 540.273438 253.785156 538.820313 C 253.316406 533.242188 258.492188 529.117188 266.082031 528.222656 "/>
<path style=" stroke:none;fill-rule:nonzero;fill:rgb(100%,92.199707%,0%);fill-opacity:1;" d="M 306.988281 530.507813 L 310.0625 540.714844 L 343.496094 530.671875 L 347.050781 542.453125 L 361.371094 538.152344 L 357.84375 526.347656 L 367.335938 523.503906 L 364.269531 513.296875 L 354.761719 516.160156 L 344.214844 481.050781 L 329 485.632813 Z M 340.421875 520.464844 L 320.90625 526.347656 L 331.53125 503.96875 C 331.898438 503.246094 334.355469 497.742188 334.285156 497.457031 C 334.449219 498.664063 334.644531 499.9375 334.925781 501.207031 C 335.171875 502.371094 335.539063 503.621094 335.933594 504.847656 "/>
<path style=" stroke:none;fill-rule:nonzero;fill:rgb(0%,0%,0%);fill-opacity:1;" d="M 271.585938 81.265625 L 271.816406 79.632813 C 271.867188 79.757813 271.914063 79.859375 271.949219 79.953125 C 272.109375 80.324219 272.09375 80.367188 272.101563 80.367188 C 272.101563 80.367188 272.101563 80.367188 272.101563 80.386719 C 272.058594 80.703125 271.878906 81.027344 271.585938 81.265625 M 202.914063 81.21875 C 202.636719 80.984375 202.460938 80.675781 202.425781 80.375 C 202.425781 80.351563 202.449219 80.265625 202.570313 79.972656 C 202.605469 79.890625 202.648438 79.789063 202.695313 79.679688 Z M 307.355469 164.914063 C 287.648438 160.972656 263.472656 158.652344 237.320313 158.652344 C 211.171875 158.652344 186.980469 160.976563 167.269531 164.917969 L 167.269531 103.082031 C 168.027344 84.273438 176.1875 66.605469 190.3125 53.402344 C 201.335938 43.082031 213.570313 36.417969 227.703125 33.945313 C 228.402344 34.886719 229.226563 35.605469 230.058594 36.125 C 228.953125 37.285156 227.75 38.847656 227.234375 41.316406 C 214.191406 45.742188 204.773438 58.09375 204.773438 72.617188 C 204.773438 74.101563 204.828125 75.320313 204.976563 76.5 L 204.035156 76.5 C 204.5 75.222656 204.691406 74.296875 204.699219 73.535156 C 204.699219 73.003906 204.589844 72.542969 204.40625 72.175781 L 204.167969 71.695313 L 200.957031 71.722656 L 200.957031 71.730469 C 200.476563 71.734375 200.234375 72.097656 200.21875 72.160156 C 200.054688 72.539063 200.140625 72.445313 200.113281 72.507813 C 200.109375 72.570313 200.109375 72.566406 200.109375 72.578125 L 200.109375 72.652344 C 200.09375 72.832031 199.96875 73.71875 198.929688 75.566406 C 197.703125 77.746094 197.296875 78.976563 197.296875 80.222656 C 197.296875 80.453125 197.3125 80.679688 197.335938 80.902344 C 197.515625 82.625 198.402344 84.199219 199.785156 85.285156 C 200.871094 86.136719 202.089844 86.652344 203.429688 86.652344 L 203.445313 86.652344 C 203.523438 86.652344 203.601563 86.640625 203.679688 86.636719 L 212.773438 150.953125 L 213.035156 151.761719 L 213.179688 152.207031 L 213.632813 152.320313 C 219.644531 153.878906 227.953125 155.570313 237.167969 155.570313 L 237.320313 155.570313 C 246.542969 155.570313 254.863281 153.878906 260.875 152.320313 L 261.332031 152.203125 L 261.722656 150.949219 L 270.824219 86.636719 C 270.910156 86.640625 270.996094 86.65625 271.082031 86.65625 L 271.089844 86.65625 C 272.425781 86.65625 273.65625 86.136719 274.742188 85.289063 C 276.132813 84.199219 277.011719 82.617188 277.191406 80.910156 C 277.21875 80.675781 277.226563 80.445313 277.226563 80.214844 C 277.230469 78.964844 276.808594 77.742188 275.589844 75.566406 C 274.589844 73.742188 274.453125 72.859375 274.4375 72.65625 L 274.4375 72.578125 C 274.378906 72.492188 274.566406 72.519531 274.195313 71.984375 C 274.085938 71.851563 273.8125 71.707031 273.558594 71.722656 L 270.378906 71.695313 L 270.140625 72.171875 C 269.953125 72.542969 269.84375 73.003906 269.84375 73.539063 C 269.847656 74.296875 270.039063 75.222656 270.5 76.5 L 269.582031 76.5 C 269.734375 75.320313 269.792969 74.101563 269.789063 72.617188 C 269.789063 58.21875 260.53125 45.960938 247.683594 41.425781 C 247.4375 40.175781 246.929688 39.136719 246.304688 38.296875 L 246.109375 38.039063 L 238.382813 38.039063 L 241.84375 36.320313 C 242.8125 35.945313 244.621094 35.160156 246.160156 33.683594 C 260.746094 35.90625 272.84375 42.664063 284.339844 53.402344 C 298.460938 66.605469 306.609375 84.273438 307.355469 103.132813 Z M 237.507813 51.816406 L 237.523438 51.816406 C 241.992188 51.808594 245.457031 49.660156 246.988281 46.636719 C 257.339844 50.734375 264.664063 60.828125 264.664063 72.617188 C 264.660156 75.066406 264.523438 76.375 264.023438 78.363281 C 257.859375 76.238281 248.207031 74.898438 237.324219 74.898438 L 237.167969 74.898438 C 226.328125 74.898438 216.722656 76.230469 210.546875 78.34375 C 210.039063 76.378906 209.882813 75.070313 209.878906 72.617188 C 209.902344 60.667969 217.441406 50.46875 228.007813 46.476563 C 229.515625 49.742188 233.183594 51.816406 237.507813 51.816406 M 345.59375 177.617188 C 338.359375 173.398438 328.164063 169.730469 315.75 166.75 L 315.75 100.605469 C 314.941406 80.042969 306.085938 60.882813 290.835938 46.628906 C 279.0625 35.613281 264.410156 28.433594 248.601563 25.714844 C 247.675781 20.695313 242.972656 18.074219 237.351563 18.109375 C 233.554688 18.105469 230.660156 19.300781 228.722656 21.113281 C 227.339844 22.410156 226.460938 24.015625 226.070313 25.691406 C 210.246094 28.40625 195.582031 35.601563 183.800781 46.625 C 168.554688 60.886719 159.703125 80.046875 158.898438 100.554688 L 158.898438 166.746094 C 146.472656 169.738281 136.269531 173.410156 129.03125 177.636719 C 121.644531 181.960938 117.128906 186.941406 117.085938 192.699219 C 117.085938 192.710938 117.085938 192.71875 117.085938 192.730469 L 117.085938 376.507813 C 117.113281 381.722656 120.855469 386.320313 127.015625 390.339844 C 145.5625 402.367188 187.878906 410.53125 237.320313 410.5625 C 270.273438 410.558594 300.101563 406.890625 321.78125 400.917969 C 332.625 397.929688 341.433594 394.371094 347.632813 390.339844 C 353.792969 386.320313 357.53125 381.722656 357.558594 376.507813 L 357.558594 192.699219 C 357.515625 186.929688 352.992188 181.941406 345.59375 177.617188 "/>
<path style=" stroke:none;fill-rule:nonzero;fill:rgb(100%,92.199707%,0%);fill-opacity:1;" d="M 209.039063 180.941406 C 190.511719 182.476563 175.496094 185.46875 167.269531 189.203125 L 167.269531 193.113281 C 175.753906 189.367188 190.683594 186.441406 209.039063 184.929688 "/>
<path style=" stroke:none;fill-rule:nonzero;fill:rgb(100%,92.199707%,0%);fill-opacity:1;" d="M 213.324219 161.886719 C 196.355469 162.847656 180.71875 164.808594 167.269531 167.527344 L 167.269531 182.027344 C 175.996094 178.289063 190.859375 175.410156 209.039063 173.929688 "/>
<path style=" stroke:none;fill-rule:nonzero;fill:rgb(100%,92.199707%,0%);fill-opacity:1;" d="M 209.039063 189.761719 L 209.039063 185.78125 C 190.511719 187.3125 175.496094 190.304688 167.269531 194.046875 L 167.269531 195.726563 C 168.097656 196.113281 168.992188 196.492188 169.972656 196.867188 C 178.722656 193.644531 192.480469 191.125 209.039063 189.761719 "/>
<path style=" stroke:none;fill-rule:nonzero;fill:rgb(100%,92.199707%,0%);fill-opacity:1;" d="M 209.039063 176.492188 C 190.316406 178.046875 175.222656 181.09375 167.269531 184.824219 L 167.269531 188.273438 C 175.753906 184.53125 190.683594 181.601563 209.039063 180.089844 "/>
<path style=" stroke:none;fill-rule:nonzero;fill:rgb(100%,92.199707%,0%);fill-opacity:1;" d="M 152.011719 216.867188 L 152.011719 260.101563 L 151.828125 260.101563 C 152.394531 260.265625 152.96875 260.425781 153.546875 260.585938 C 166.246094 264.085938 181.890625 266.789063 199.355469 268.417969 L 199.355469 225.050781 C 181.277344 223.386719 165.121094 220.5625 152.011719 216.867188 "/>
<path style=" stroke:none;fill-rule:nonzero;fill:rgb(100%,92.199707%,0%);fill-opacity:1;" d="M 315.578125 192.0625 C 315.25 193.015625 314.542969 194.117188 313.226563 195.148438 C 312.960938 195.378906 312.671875 195.601563 312.363281 195.824219 L 330.4375 211.738281 C 336.855469 209.496094 342.203125 207.023438 346.234375 204.386719 C 352.109375 200.558594 355.023438 196.535156 354.996094 192.699219 C 355.042969 188.46875 351.441406 183.980469 344.304688 179.828125 C 337.523438 175.867188 327.734375 172.296875 315.75 169.382813 L 315.75 189.0625 C 315.859375 189.46875 315.929688 189.878906 315.929688 190.28125 C 315.914063 190.910156 315.789063 191.503906 315.578125 192.0625 "/>
<path style=" stroke:none;fill-rule:nonzero;fill:rgb(100%,92.199707%,0%);fill-opacity:1;" d="M 237.324219 226.757813 C 224.988281 226.75 213.101563 226.238281 201.914063 225.28125 L 201.914063 268.65625 C 213.09375 269.617188 224.988281 270.140625 237.324219 270.136719 C 252.851563 270.148438 267.6875 269.320313 281.273438 267.820313 L 281.273438 224.445313 C 267.660156 225.933594 252.847656 226.757813 237.324219 226.757813 "/>
<path style=" stroke:none;fill-rule:nonzero;fill:rgb(100%,92.199707%,0%);fill-opacity:1;" d="M 317.683594 257.664063 L 317.476563 256.839844 C 321.632813 255.789063 325.5 254.652344 329.066406 253.445313 L 329.066406 249.492188 C 325.546875 250.675781 321.746094 251.789063 317.683594 252.828125 L 317.476563 252.003906 C 321.632813 250.953125 325.5 249.816406 329.066406 248.609375 L 329.066406 244.652344 C 325.546875 245.835938 321.746094 246.949219 317.683594 247.992188 L 317.476563 247.164063 C 321.632813 246.113281 325.5 244.976563 329.066406 243.765625 L 329.066406 239.820313 C 325.546875 241 321.746094 242.117188 317.683594 243.15625 L 317.476563 242.332031 C 321.632813 241.28125 325.5 240.140625 329.066406 238.933594 L 329.066406 234.980469 C 325.546875 236.160156 321.746094 237.277344 317.683594 238.320313 L 317.476563 237.492188 C 321.632813 236.441406 325.5 235.304688 329.066406 234.097656 L 329.066406 230.144531 C 325.546875 231.324219 321.746094 232.441406 317.683594 233.484375 L 317.476563 232.65625 C 321.632813 231.605469 325.5 230.46875 329.066406 229.261719 L 329.066406 225.308594 C 325.546875 226.488281 321.746094 227.605469 317.683594 228.644531 L 317.476563 227.820313 C 321.632813 226.765625 325.5 225.628906 329.066406 224.421875 L 329.066406 220.46875 C 325.546875 221.652344 321.746094 222.765625 317.683594 223.808594 L 317.476563 222.980469 C 321.632813 221.929688 325.5 220.792969 329.066406 219.585938 L 329.066406 214.914063 C 326.753906 215.675781 324.324219 216.410156 321.78125 217.109375 C 310.953125 220.09375 298.097656 222.503906 283.832031 224.167969 L 283.832031 267.527344 C 301.589844 265.433594 317.101563 262.183594 329.066406 258.15625 L 329.066406 254.328125 C 325.546875 255.507813 321.746094 256.625 317.683594 257.664063 "/>
<path style=" stroke:none;fill-rule:nonzero;fill:rgb(100%,92.199707%,0%);fill-opacity:1;" d="M 292.265625 202.980469 C 278.152344 205.941406 258.757813 207.753906 237.320313 207.753906 C 217.109375 207.742188 198.753906 206.148438 184.875 203.484375 C 184.820313 203.492188 184.761719 203.503906 184.703125 203.515625 L 184.6875 203.445313 C 180.992188 202.730469 177.621094 201.9375 174.617188 201.078125 C 174.609375 201.082031 174.597656 201.082031 174.59375 201.085938 L 174.589844 201.085938 L 174.59375 201.085938 L 174.585938 201.070313 C 172.847656 200.570313 171.230469 200.054688 169.75 199.511719 L 152.726563 214.414063 C 153 214.488281 153.269531 214.566406 153.546875 214.644531 C 174.917969 220.535156 204.570313 224.199219 237.324219 224.199219 C 273.554688 224.222656 306.035156 219.683594 327.632813 212.683594 L 310.089844 197.230469 C 310 197.28125 309.910156 197.328125 309.824219 197.375 C 309.628906 197.484375 309.480469 197.558594 309.367188 197.613281 C 309.289063 197.652344 309.21875 197.691406 309.144531 197.730469 C 305.070313 199.742188 299.328125 201.5 292.265625 202.980469 "/>
<path style=" stroke:none;fill-rule:nonzero;fill:rgb(100%,92.199707%,0%);fill-opacity:1;" d="M 192.519531 202.179688 C 197.59375 202.941406 203.136719 203.578125 209.039063 204.066406 L 209.039063 200.292969 C 203.144531 200.78125 197.601563 201.417969 192.519531 202.179688 "/>
<path style=" stroke:none;fill-rule:nonzero;fill:rgb(100%,92.199707%,0%);fill-opacity:1;" d="M 209.039063 190.617188 C 193.152344 191.929688 179.871094 194.316406 171.230469 197.324219 C 173.199219 198.019531 175.425781 198.6875 177.890625 199.316406 C 186.167969 197.238281 196.847656 195.605469 209.039063 194.601563 "/>
<path style=" stroke:none;fill-rule:nonzero;fill:rgb(100%,92.199707%,0%);fill-opacity:1;" d="M 237.324219 175.375 C 228.308594 175.367188 219.644531 175.695313 211.597656 176.292969 L 211.597656 179.886719 C 214.777344 179.652344 218.046875 179.457031 221.398438 179.308594 L 221.4375 180.164063 C 218.070313 180.308594 214.789063 180.503906 211.597656 180.742188 L 211.597656 184.726563 C 214.777344 184.492188 218.046875 184.296875 221.398438 184.148438 L 221.4375 185 C 218.074219 185.148438 214.789063 185.34375 211.597656 185.582031 L 211.597656 189.566406 C 214.777344 189.332031 218.046875 189.132813 221.402344 188.984375 L 221.4375 189.835938 C 218.066406 189.984375 214.789063 190.183594 211.597656 190.417969 L 211.597656 194.402344 C 214.777344 194.164063 218.046875 193.972656 221.402344 193.824219 L 221.4375 194.675781 C 218.070313 194.824219 214.789063 195.019531 211.597656 195.257813 L 211.597656 199.238281 C 214.777344 199.003906 218.050781 198.808594 221.402344 198.664063 L 221.4375 199.511719 C 218.074219 199.660156 214.789063 199.855469 211.597656 200.09375 L 211.597656 204.269531 C 219.640625 204.867188 228.296875 205.195313 237.320313 205.195313 C 246.78125 205.203125 255.84375 204.839844 264.21875 204.183594 L 264.21875 176.386719 C 255.839844 175.730469 246.777344 175.367188 237.324219 175.375 "/>
<path style=" stroke:none;fill-rule:nonzero;fill:rgb(100%,92.199707%,0%);fill-opacity:1;" d="M 237.324219 172.8125 C 246.675781 172.820313 255.628906 173.167969 263.929688 173.796875 L 259.585938 161.792969 C 252.371094 161.417969 244.933594 161.210938 237.320313 161.210938 C 230.074219 161.210938 222.984375 161.398438 216.09375 161.742188 L 211.835938 173.714844 C 219.820313 173.136719 228.386719 172.820313 237.324219 172.8125 "/>
<path style=" stroke:none;fill-rule:nonzero;fill:rgb(100%,92.199707%,0%);fill-opacity:1;" d="M 266.777344 203.972656 C 284.945313 202.390625 299.5625 199.398438 307.355469 195.746094 L 307.355469 184.808594 C 299.554688 181.160156 284.933594 178.175781 266.777344 176.597656 "/>
<path style=" stroke:none;fill-rule:nonzero;fill:rgb(100%,92.199707%,0%);fill-opacity:1;" d="M 179.691406 199.753906 C 180.734375 200.003906 181.800781 200.242188 182.910156 200.476563 C 185.066406 200.929688 187.367188 201.351563 189.773438 201.746094 C 195.589844 200.796875 202.066406 200.015625 209.039063 199.4375 L 209.039063 195.460938 C 197.683594 196.394531 187.652344 197.882813 179.691406 199.753906 "/>
<path style=" stroke:none;fill-rule:nonzero;fill:rgb(100%,92.199707%,0%);fill-opacity:1;" d="M 233.550781 30.339844 L 235.0625 30.339844 C 235.117188 30.335938 235.164063 30.308594 235.21875 30.308594 C 255.574219 30.292969 271.546875 37.902344 286.089844 51.53125 C 300.6875 65.175781 309.144531 83.496094 309.914063 103.082031 L 309.914063 194.351563 C 310.339844 194.082031 310.828125 193.753906 311.375 193.355469 C 312.304688 192.597656 312.886719 191.867188 313.167969 191.226563 C 313.171875 191.199219 313.183594 191.175781 313.1875 191.152344 L 313.1875 100.65625 C 312.40625 80.816406 303.863281 62.3125 289.089844 48.492188 C 275.066406 35.386719 256.847656 27.855469 237.464844 27.101563 C 236.234375 27.15625 235.042969 27.25 233.617188 27.382813 C 233.402344 27.402344 233.207031 27.351563 233.019531 27.277344 C 232.992188 27.460938 232.960938 27.644531 232.960938 27.839844 C 232.96875 29.089844 233.214844 29.835938 233.550781 30.339844 "/>
<path style=" stroke:none;fill-rule:nonzero;fill:rgb(100%,92.199707%,0%);fill-opacity:1;" d="M 266.734375 174.023438 C 284.382813 175.53125 298.804688 178.363281 307.355469 182.011719 L 307.355469 167.527344 C 294.1875 164.859375 278.921875 162.925781 262.359375 161.945313 "/>
<path style=" stroke:none;fill-rule:nonzero;fill:rgb(100%,92.199707%,0%);fill-opacity:1;" d="M 151.828125 352 C 152.394531 352.160156 152.96875 352.324219 153.546875 352.484375 C 166.246094 355.984375 181.890625 358.691406 199.355469 360.320313 L 199.355469 316.929688 C 181.277344 315.261719 165.121094 312.4375 152.007813 308.746094 L 152.007813 352 "/>
<path style=" stroke:none;fill-rule:nonzero;fill:rgb(100%,92.199707%,0%);fill-opacity:1;" d="M 235.703125 24.476563 L 239.101563 24.476563 C 238.574219 24.328125 237.980469 24.238281 237.316406 24.234375 C 236.726563 24.242188 236.191406 24.332031 235.703125 24.476563 "/>
<path style=" stroke:none;fill-rule:nonzero;fill:rgb(100%,92.199707%,0%);fill-opacity:1;" d="M 330.800781 349.457031 L 329.066406 349.457031 L 329.066406 346.230469 C 325.546875 347.410156 321.746094 348.527344 317.683594 349.570313 L 317.476563 348.742188 C 321.632813 347.691406 325.5 346.554688 329.066406 345.347656 L 329.066406 341.390625 C 325.546875 342.574219 321.746094 343.6875 317.683594 344.730469 L 317.476563 343.902344 C 321.632813 342.851563 325.5 341.714844 329.066406 340.507813 L 329.066406 336.554688 C 325.546875 337.738281 321.746094 338.851563 317.683594 339.890625 L 317.476563 339.066406 C 321.632813 338.015625 325.5 336.878906 329.066406 335.667969 L 329.066406 331.71875 C 325.546875 332.898438 321.746094 334.015625 317.683594 335.058594 L 317.476563 334.230469 C 321.632813 333.175781 325.5 332.039063 329.066406 330.828125 L 329.066406 326.886719 C 325.546875 328.066406 321.746094 329.179688 317.683594 330.21875 L 317.476563 329.390625 C 321.632813 328.34375 325.5 327.207031 329.066406 326 L 329.066406 322.039063 C 325.546875 323.222656 321.746094 324.339844 317.683594 325.382813 L 317.476563 324.550781 C 321.632813 323.503906 325.5 322.363281 329.066406 321.15625 L 329.066406 317.207031 C 325.546875 318.386719 321.746094 319.503906 317.683594 320.542969 L 317.476563 319.714844 C 321.632813 318.664063 325.5 317.527344 329.066406 316.320313 L 329.066406 312.367188 C 325.546875 313.550781 321.746094 314.664063 317.683594 315.707031 L 317.476563 314.878906 C 321.632813 313.828125 325.5 312.691406 329.066406 311.484375 L 329.066406 306.789063 C 326.753906 307.554688 324.324219 308.289063 321.777344 308.988281 C 310.953125 311.972656 298.097656 314.382813 283.835938 316.046875 L 283.835938 359.425781 C 302.464844 357.230469 318.617188 353.761719 330.800781 349.457031 "/>
<path style=" stroke:none;fill-rule:nonzero;fill:rgb(100%,92.199707%,0%);fill-opacity:1;" d="M 122.222656 288.121094 L 122.222656 288.117188 L 122.226563 288.121094 L 122.828125 287.519531 C 126.773438 291.496094 133.515625 295.207031 142.382813 298.4375 L 142.089844 299.238281 C 133.15625 295.976563 126.328125 292.246094 122.226563 288.121094 Z M 122.226563 268.777344 L 122.832031 268.179688 C 126.773438 272.15625 133.515625 275.859375 142.382813 279.089844 L 142.089844 279.890625 C 133.15625 276.632813 126.324219 272.902344 122.222656 268.777344 Z M 122.828125 253.664063 C 126.773438 257.632813 133.515625 261.355469 142.382813 264.582031 L 142.089844 265.386719 C 133.15625 262.128906 126.324219 258.382813 122.222656 254.265625 Z M 142.382813 274.261719 L 142.089844 275.058594 C 133.15625 271.804688 126.328125 268.066406 122.222656 263.964844 L 122.828125 263.363281 C 126.773438 267.316406 133.515625 271.03125 142.382813 274.261719 M 142.089844 270.222656 C 133.15625 266.945313 126.328125 263.230469 122.226563 259.128906 L 122.828125 258.523438 C 126.773438 262.480469 133.515625 266.171875 142.382813 269.421875 Z M 142.085938 284.726563 C 133.15625 281.445313 126.328125 277.734375 122.222656 273.617188 L 122.828125 273.015625 C 126.773438 276.984375 133.515625 280.675781 142.382813 283.925781 Z M 142.382813 293.621094 L 142.085938 294.421875 C 133.15625 291.144531 126.328125 287.40625 122.226563 283.3125 L 122.226563 283.308594 L 122.226563 283.3125 L 122.828125 282.707031 C 126.773438 286.65625 133.515625 290.371094 142.382813 293.621094 M 142.089844 289.566406 C 133.15625 286.308594 126.324219 282.570313 122.222656 278.472656 L 122.828125 277.871094 C 126.773438 281.820313 133.515625 285.535156 142.382813 288.765625 Z M 128.414063 296.265625 C 134.253906 300.074219 142.867188 303.582031 153.546875 306.523438 C 158.441406 307.871094 163.785156 309.097656 169.484375 310.195313 L 169.484375 266.871094 C 150.925781 263.335938 136.109375 258.371094 127.015625 252.476563 C 123.867188 250.421875 121.355469 248.21875 119.644531 245.859375 L 119.644531 284.59375 C 119.625 288.425781 122.539063 292.441406 128.414063 296.265625 "/>
<path style=" stroke:none;fill-rule:nonzero;fill:rgb(100%,92.199707%,0%);fill-opacity:1;" d="M 122.828125 333.480469 C 126.773438 337.4375 133.515625 341.152344 142.382813 344.402344 L 142.085938 345.203125 C 133.15625 341.921875 126.328125 338.1875 122.226563 334.085938 Z M 122.226563 329.257813 L 122.828125 328.652344 C 126.777344 332.601563 133.515625 336.320313 142.378906 339.542969 L 142.089844 340.347656 C 133.15625 337.09375 126.328125 333.351563 122.226563 329.257813 Z M 122.222656 324.40625 C 122.222656 324.40625 122.226563 324.40625 122.226563 324.40625 L 122.828125 323.808594 C 126.773438 327.792969 133.515625 331.472656 142.382813 334.726563 L 142.089844 335.527344 C 133.160156 332.246094 126.328125 328.542969 122.226563 324.40625 L 122.222656 324.410156 Z M 122.828125 309.300781 C 126.773438 313.269531 133.515625 316.96875 142.382813 320.195313 L 142.089844 320.996094 C 133.15625 317.742188 126.324219 314.019531 122.222656 309.902344 Z M 122.828125 304.460938 C 126.777344 308.414063 133.515625 312.152344 142.382813 315.386719 L 142.089844 316.1875 C 133.15625 312.925781 126.328125 309.164063 122.226563 305.066406 Z M 122.828125 299.625 C 126.773438 303.574219 133.515625 307.296875 142.382813 310.539063 L 142.085938 311.335938 C 133.15625 308.070313 126.324219 304.324219 122.226563 300.230469 Z M 122.226563 314.730469 L 122.828125 314.128906 C 126.773438 318.089844 133.515625 321.800781 142.382813 325.035156 L 142.089844 325.835938 C 133.15625 322.574219 126.328125 318.839844 122.226563 314.730469 M 122.226563 319.578125 L 122.828125 318.976563 C 126.777344 322.925781 133.515625 326.644531 142.382813 329.886719 L 142.089844 330.6875 C 133.15625 327.421875 126.328125 323.675781 122.226563 319.578125 L 122.226563 319.582031 Z M 128.414063 342.226563 C 133.488281 345.539063 140.652344 348.617188 149.449219 351.296875 L 149.449219 308 C 140.164063 305.222656 132.53125 301.988281 127.015625 298.410156 C 123.867188 296.359375 121.355469 294.152344 119.644531 291.796875 L 119.644531 330.554688 C 119.625 334.390625 122.539063 338.40625 128.414063 342.226563 "/>
<path style=" stroke:none;fill-rule:nonzero;fill:rgb(100%,92.199707%,0%);fill-opacity:1;" d="M 237.324219 316.078125 C 238.613281 316.078125 239.902344 316.070313 241.179688 316.0625 L 241.179688 272.671875 C 239.898438 272.683594 238.617188 272.699219 237.324219 272.699219 C 213.226563 272.683594 190.832031 270.730469 172.046875 267.347656 L 172.046875 310.679688 C 190.742188 314.082031 213.183594 316.078125 237.324219 316.078125 "/>
<path style=" stroke:none;fill-rule:nonzero;fill:rgb(100%,92.199707%,0%);fill-opacity:1;" d="M 237.324219 364.597656 C 213.226563 364.585938 190.828125 362.632813 172.046875 359.246094 L 172.046875 402.605469 C 190.742188 406.007813 213.183594 408.003906 237.320313 408 C 238.613281 408.003906 239.902344 407.996094 241.183594 407.984375 L 241.183594 364.574219 C 239.898438 364.582031 238.617188 364.597656 237.324219 364.597656 "/>
<path style=" stroke:none;fill-rule:nonzero;fill:rgb(100%,92.199707%,0%);fill-opacity:1;" d="M 142.089844 366.957031 C 133.15625 363.679688 126.328125 359.945313 122.226563 355.867188 L 122.828125 355.261719 C 126.773438 359.195313 133.515625 362.90625 142.382813 366.15625 Z M 142.085938 381.472656 C 133.15625 378.191406 126.324219 374.476563 122.222656 370.351563 L 122.828125 369.75 C 126.773438 373.726563 133.515625 377.421875 142.382813 380.671875 Z M 142.089844 391.136719 C 133.15625 387.867188 126.328125 384.152344 122.226563 380.046875 L 122.828125 379.441406 C 126.773438 383.402344 133.515625 387.09375 142.382813 390.335938 Z M 122.222656 375.191406 L 122.222656 375.1875 L 122.226563 375.1875 L 122.828125 374.585938 C 126.773438 378.5625 133.515625 382.285156 142.378906 385.507813 L 142.089844 386.308594 C 133.15625 383.054688 126.328125 379.316406 122.226563 375.1875 Z M 122.226563 365.515625 L 122.828125 364.914063 C 126.773438 368.890625 133.515625 372.609375 142.382813 375.832031 L 142.089844 376.632813 C 133.15625 373.378906 126.324219 369.640625 122.222656 365.515625 Z M 122.226563 360.707031 L 122.828125 360.101563 C 126.773438 364.054688 133.515625 367.761719 142.382813 370.996094 L 142.089844 371.792969 C 133.15625 368.53125 126.324219 364.804688 122.222656 360.707031 Z M 142.382813 361.320313 L 142.085938 362.121094 C 133.15625 358.839844 126.328125 355.136719 122.226563 351.027344 L 122.828125 350.425781 C 126.773438 354.386719 133.515625 358.066406 142.382813 361.320313 M 122.226563 346.171875 C 122.226563 346.171875 122.226563 346.171875 122.226563 346.175781 L 122.828125 345.570313 C 126.773438 349.539063 133.515625 353.257813 142.378906 356.484375 L 142.089844 357.28125 C 133.15625 354.027344 126.328125 350.289063 122.226563 346.175781 Z M 127.015625 344.375 C 123.867188 342.320313 121.359375 340.113281 119.644531 337.757813 L 119.644531 376.507813 C 119.617188 380.347656 122.535156 384.371094 128.414063 388.191406 C 134.253906 392.003906 142.867188 395.511719 153.546875 398.453125 C 158.441406 399.800781 163.789063 401.023438 169.488281 402.121094 L 169.488281 358.773438 C 150.925781 355.238281 136.109375 350.273438 127.015625 344.375 "/>
<path style=" stroke:none;fill-rule:nonzero;fill:rgb(100%,92.199707%,0%);fill-opacity:1;" d="M 237.324219 362.039063 C 252.847656 362.050781 267.683594 361.222656 281.273438 359.722656 L 281.273438 316.324219 C 267.660156 317.8125 252.847656 318.636719 237.324219 318.636719 C 224.988281 318.628906 213.101563 318.113281 201.910156 317.160156 L 201.910156 360.558594 C 213.09375 361.519531 224.988281 362.042969 237.324219 362.039063 "/>
<path style=" stroke:none;fill-rule:nonzero;fill:rgb(100%,92.199707%,0%);fill-opacity:1;" d="M 236.816406 37.390625 L 241.324219 35.148438 C 242.089844 34.855469 243.304688 34.316406 244.449219 33.460938 C 242.128906 33.164063 239.734375 32.984375 237.277344 32.917969 C 236.890625 33.050781 236.371094 33.238281 235.789063 33.492188 C 234.5625 34.023438 233.09375 34.832031 232.121094 35.855469 C 230.871094 37.152344 229.382813 38.375 228.660156 40.867188 C 230.265625 40.402344 231.917969 40.058594 233.613281 39.839844 C 234.527344 38.335938 236.0625 37.726563 236.816406 37.390625 "/>
<path style=" stroke:none;fill-rule:nonzero;fill:rgb(100%,92.199707%,0%);fill-opacity:1;" d="M 233.203125 31.859375 C 232.316406 31.125 231.667969 29.855469 231.679688 27.839844 C 231.6875 24.988281 234.164063 22.960938 237.3125 22.957031 C 239.195313 22.945313 240.90625 23.546875 241.914063 24.84375 C 243.703125 25.003906 245.476563 25.210938 247.242188 25.480469 C 246.253906 21.515625 242.453125 19.421875 237.347656 19.390625 C 230.300781 19.421875 227.132813 23.671875 227.105469 27.703125 C 227.128906 31.976563 229.074219 34.074219 230.988281 35.183594 C 231.0625 35.109375 231.128906 35.039063 231.199219 34.96875 C 232.160156 33.972656 233.410156 33.210938 234.550781 32.652344 C 234.53125 32.640625 234.515625 32.628906 234.5 32.617188 C 234.082031 32.445313 233.628906 32.214844 233.203125 31.859375 "/>
<path style=" stroke:none;fill-rule:nonzero;fill:rgb(100%,92.199707%,0%);fill-opacity:1;" d="M 314.066406 308.304688 L 311.992188 308.304688 L 311.992188 265.460938 C 293.0625 269.644531 269.492188 272.273438 243.742188 272.648438 L 243.742188 316.027344 C 270.519531 315.644531 294.960938 312.777344 314.066406 308.304688 "/>
<path style=" stroke:none;fill-rule:nonzero;fill:rgb(100%,92.199707%,0%);fill-opacity:1;" d="M 122.226563 242.1875 L 122.828125 241.582031 C 126.773438 245.539063 133.515625 249.277344 142.382813 252.503906 L 142.085938 253.304688 C 133.15625 250.046875 126.324219 246.289063 122.222656 242.1875 Z M 122.222656 227.679688 L 122.226563 227.679688 L 122.828125 227.074219 C 126.773438 231.027344 133.515625 234.753906 142.382813 237.976563 L 142.089844 238.777344 C 133.15625 235.527344 126.328125 231.773438 122.226563 227.679688 Z M 122.828125 222.238281 C 126.773438 226.191406 133.515625 229.902344 142.382813 233.152344 L 142.085938 233.953125 C 133.15625 230.675781 126.328125 226.941406 122.226563 222.839844 Z M 122.828125 217.398438 C 126.773438 221.355469 133.515625 225.066406 142.382813 228.308594 L 142.085938 229.105469 C 133.15625 225.839844 126.328125 222.105469 122.226563 218.003906 Z M 122.226563 213.164063 L 122.828125 212.5625 C 126.773438 216.515625 133.515625 220.230469 142.382813 223.480469 L 142.085938 224.28125 C 133.15625 221 126.328125 217.265625 122.226563 213.164063 L 122.226563 213.167969 Z M 122.226563 208.328125 L 122.828125 207.722656 C 126.773438 211.679688 133.515625 215.394531 142.382813 218.632813 L 142.085938 219.433594 C 133.15625 216.167969 126.328125 212.429688 122.226563 208.328125 Z M 122.226563 232.511719 L 122.828125 231.90625 C 126.773438 235.875 133.515625 239.578125 142.382813 242.828125 L 142.085938 243.632813 C 133.15625 240.351563 126.324219 236.625 122.226563 232.511719 M 122.828125 236.746094 C 126.773438 240.699219 133.515625 244.417969 142.382813 247.667969 L 142.085938 248.46875 C 133.15625 245.1875 126.324219 241.449219 122.226563 237.347656 Z M 128.414063 250.328125 C 133.488281 253.640625 140.652344 256.71875 149.449219 259.398438 L 149.449219 216.125 C 140.164063 213.339844 132.53125 210.109375 127.015625 206.53125 C 123.867188 204.480469 121.355469 202.273438 119.644531 199.914063 L 119.644531 238.660156 C 119.625 242.492188 122.539063 246.507813 128.414063 250.328125 "/>
<path style=" stroke:none;fill-rule:nonzero;fill:rgb(100%,92.199707%,0%);fill-opacity:1;" d="M 163.242188 193.324219 C 163.25 193.332031 163.257813 193.335938 163.265625 193.34375 C 163.808594 193.742188 164.289063 194.070313 164.710938 194.34375 L 164.714844 103.035156 C 165.492188 83.496094 173.960938 65.175781 188.566406 51.53125 C 199.652344 41.132813 212.132813 34.25 226.460938 31.578125 C 226.128906 30.640625 225.914063 29.5625 225.863281 28.335938 C 210.769531 31.046875 196.804688 37.964844 185.550781 48.492188 C 170.78125 62.3125 162.242188 80.820313 161.457031 100.605469 L 161.457031 191.136719 C 161.71875 191.796875 162.289063 192.542969 163.242188 193.324219 "/>
<path style=" stroke:none;fill-rule:nonzero;fill:rgb(100%,92.199707%,0%);fill-opacity:1;" d="M 128.414063 204.386719 C 133.554688 207.738281 140.847656 210.859375 149.808594 213.5625 L 167.078125 198.445313 C 166.585938 198.234375 166.109375 198.015625 165.65625 197.796875 L 165.472656 197.714844 C 165.429688 197.695313 164.96875 197.484375 164.191406 197.027344 C 163.128906 196.425781 162.1875 195.796875 161.394531 195.125 C 160.082031 194.089844 159.382813 192.980469 159.0625 192.023438 C 158.855469 191.472656 158.738281 190.894531 158.722656 190.28125 C 158.722656 189.835938 158.800781 189.429688 158.898438 189.042969 L 158.898438 169.382813 C 146.902344 172.300781 137.105469 175.882813 130.320313 179.84375 C 123.199219 183.992188 119.605469 188.472656 119.644531 192.699219 L 119.644531 192.710938 C 119.625 196.546875 122.539063 200.5625 128.414063 204.386719 "/>
<path style=" stroke:none;fill-rule:nonzero;fill:rgb(100%,92.199707%,0%);fill-opacity:1;" d="M 208.34375 107.421875 L 208.789063 110.589844 C 214.148438 113.128906 224.953125 114.945313 237.324219 114.9375 C 249.554688 114.945313 260.269531 113.171875 265.699219 110.675781 L 266.152344 107.5 C 260.203125 110.125 249.566406 111.792969 237.324219 111.804688 C 224.964844 111.789063 214.253906 110.097656 208.34375 107.421875 "/>
<path style=" stroke:none;fill-rule:nonzero;fill:rgb(100%,92.199707%,0%);fill-opacity:1;" d="M 236.46875 91.949219 L 236.46875 76.609375 C 230.941406 76.636719 225.75 77.023438 221.234375 77.675781 L 222.539063 91.058594 C 226.742188 91.605469 231.46875 91.925781 236.46875 91.949219 "/>
<path style=" stroke:none;fill-rule:nonzero;fill:rgb(100%,92.199707%,0%);fill-opacity:1;" d="M 272.65625 77.300781 C 273.503906 79.300781 273.761719 79.59375 273.808594 80.363281 C 273.804688 80.453125 273.804688 80.460938 273.804688 80.460938 L 273.804688 80.507813 L 273.800781 80.554688 C 273.703125 81.363281 273.289063 82.085938 272.632813 82.609375 C 272.359375 82.824219 272.023438 83.054688 271.617188 83.167969 L 271.367188 84.9375 C 272.164063 84.871094 272.902344 84.554688 273.695313 83.945313 C 274.726563 83.136719 275.363281 81.976563 275.496094 80.734375 C 275.511719 80.550781 275.523438 80.378906 275.523438 80.214844 C 275.519531 79.394531 275.285156 78.527344 274.09375 76.390625 C 273.339844 75.007813 272.996094 74.050781 272.84375 73.425781 L 271.550781 73.414063 C 271.550781 73.449219 271.550781 73.492188 271.550781 73.539063 C 271.546875 74.148438 271.796875 75.316406 272.652344 77.300781 "/>
<path style=" stroke:none;fill-rule:nonzero;fill:rgb(100%,92.199707%,0%);fill-opacity:1;" d="M 220.125 83.890625 L 219.960938 82.195313 C 216.921875 82.785156 212.859375 84.035156 209.902344 85.410156 C 209.351563 85.9375 208.679688 86.300781 208.058594 86.566406 L 208.179688 87.402344 C 208.398438 87.515625 208.644531 87.621094 208.886719 87.730469 L 208.796875 87.5625 C 211 86.402344 216.03125 84.648438 220.125 83.890625 "/>
<path style=" stroke:none;fill-rule:nonzero;fill:rgb(100%,92.199707%,0%);fill-opacity:1;" d="M 253.542969 90.839844 L 254.824219 77.910156 C 250 77.125 244.292969 76.648438 238.175781 76.609375 L 238.175781 91.949219 C 243.761719 91.914063 249 91.511719 253.542969 90.839844 "/>
<path style=" stroke:none;fill-rule:nonzero;fill:rgb(100%,92.199707%,0%);fill-opacity:1;" d="M 212.53125 89.050781 C 214.867188 89.746094 217.664063 90.34375 220.804688 90.816406 L 220.425781 86.953125 C 217.25 87.5 214.5625 88.21875 212.53125 89.050781 "/>
<path style=" stroke:none;fill-rule:nonzero;fill:rgb(100%,92.199707%,0%);fill-opacity:1;" d="M 250.734375 134.746094 L 252.300781 115.722656 C 248.027344 116.277344 243.246094 116.601563 238.175781 116.636719 L 238.175781 135.484375 C 242.644531 135.453125 246.890625 135.195313 250.734375 134.746094 "/>
<path style=" stroke:none;fill-rule:nonzero;fill:rgb(100%,92.199707%,0%);fill-opacity:1;" d="M 238.175781 110.09375 C 243.472656 110.0625 248.464844 109.699219 252.84375 109.085938 L 254.214844 92.46875 C 249.480469 93.191406 244.019531 93.609375 238.175781 93.652344 "/>
<path style=" stroke:none;fill-rule:nonzero;fill:rgb(100%,92.199707%,0%);fill-opacity:1;" d="M 219.886719 92.40625 C 214.464844 91.550781 210.019531 90.296875 207.101563 88.765625 L 206.953125 88.6875 L 206.84375 88.558594 L 206.570313 88.234375 L 205.140625 78.207031 L 204.214844 78.207031 L 205.953125 90.527344 C 208.015625 91.648438 210.957031 92.671875 214.515625 93.542969 L 214.515625 93.546875 L 214.351563 94.207031 C 210.996094 93.382813 208.179688 92.425781 206.070313 91.355469 L 206.328125 93.183594 C 208.367188 94.210938 211.117188 95.152344 214.4375 95.953125 L 214.28125 96.617188 C 211.144531 95.859375 208.496094 94.980469 206.445313 94.007813 L 206.703125 95.824219 C 208.691406 96.765625 211.292969 97.621094 214.347656 98.371094 L 214.351563 98.371094 L 214.1875 99.035156 C 211.300781 98.324219 208.808594 97.523438 206.816406 96.628906 L 207.074219 98.445313 C 208.992188 99.304688 211.425781 100.105469 214.273438 100.789063 L 214.277344 100.789063 L 214.117188 101.453125 C 211.421875 100.804688 209.089844 100.054688 207.1875 99.238281 L 207.441406 101.050781 C 209.292969 101.839844 211.550781 102.566406 214.175781 103.203125 L 214.015625 103.867188 C 211.535156 103.265625 209.375 102.585938 207.554688 101.839844 L 207.808594 103.652344 C 209.570313 104.367188 211.675781 105.03125 214.09375 105.625 L 213.929688 106.285156 C 211.660156 105.730469 209.644531 105.109375 207.921875 104.4375 L 208.054688 105.386719 C 210.828125 106.878906 215.464844 108.160156 221.234375 109.007813 "/>
<path style=" stroke:none;fill-rule:nonzero;fill:rgb(100%,92.199707%,0%);fill-opacity:1;" d="M 237.523438 50.535156 C 243.0625 50.519531 246.566406 47.027344 246.566406 43.097656 C 246.566406 41.488281 246.105469 40.28125 245.460938 39.320313 L 240.761719 39.320313 C 241.464844 40.089844 242 41.136719 241.996094 42.539063 C 241.992188 44.929688 240.175781 46.964844 237.578125 46.96875 C 235.894531 46.980469 234.558594 46.164063 233.816406 44.972656 C 232.238281 45.203125 230.703125 45.566406 229.21875 46.050781 C 230.507813 48.722656 233.632813 50.53125 237.523438 50.535156 "/>
<path style=" stroke:none;fill-rule:nonzero;fill:rgb(100%,92.199707%,0%);fill-opacity:1;" d="M 237.492188 39.570313 C 237.605469 39.566406 237.722656 39.558594 237.835938 39.558594 L 237.835938 39.574219 C 238.285156 39.585938 238.742188 39.605469 239.191406 39.632813 C 239 39.488281 238.800781 39.355469 238.597656 39.234375 L 237.382813 38.539063 L 237.359375 38.550781 C 236.796875 38.792969 236.042969 39.117188 235.414063 39.65625 C 235.886719 39.625 236.359375 39.601563 236.839844 39.585938 L 236.839844 39.558594 C 237.046875 39.558594 237.273438 39.5625 237.492188 39.570313 "/>
<path style=" stroke:none;fill-rule:nonzero;fill:rgb(100%,92.199707%,0%);fill-opacity:1;" d="M 237.234375 42.980469 C 237.4375 42.976563 237.632813 42.96875 237.835938 42.96875 L 237.835938 43.003906 C 238.78125 43.035156 239.71875 43.105469 240.640625 43.222656 C 240.683594 43.003906 240.714844 42.777344 240.71875 42.539063 C 240.714844 42.09375 240.644531 41.703125 240.527344 41.355469 L 240.515625 41.445313 C 239.632813 41.351563 238.515625 41.296875 237.507813 41.277344 C 220.378906 41.484375 206.511719 55.441406 206.480469 72.617188 C 206.484375 75.527344 206.6875 77.183594 207.367188 79.71875 L 207.386719 79.769531 L 207.394531 79.800781 C 207.628906 80.5 207.917969 81.429688 207.929688 82.234375 C 207.914063 82.425781 207.925781 82.71875 207.773438 83.003906 L 207.996094 84.699219 C 208.527344 84.390625 208.988281 84.011719 209.109375 83.703125 C 209.363281 83.160156 209.464844 82.5 209.464844 81.855469 C 209.46875 80.726563 209.164063 79.683594 209.027344 79.277344 C 208.382813 76.921875 208.171875 75.320313 208.175781 72.617188 C 208.175781 56.597656 220.949219 43.523438 236.839844 42.992188 L 236.839844 42.96875 C 236.972656 42.96875 237.101563 42.980469 237.234375 42.980469 "/>
<path style=" stroke:none;fill-rule:nonzero;fill:rgb(100%,92.199707%,0%);fill-opacity:1;" d="M 221.621094 92.664063 L 222.96875 109.238281 C 227.058594 109.761719 231.636719 110.066406 236.46875 110.09375 L 236.46875 93.65625 C 231.113281 93.621094 226.074219 93.273438 221.621094 92.664063 "/>
<path style=" stroke:none;fill-rule:nonzero;fill:rgb(100%,92.199707%,0%);fill-opacity:1;" d="M 266.371094 72.617188 C 266.375 75.316406 266.183594 76.910156 265.558594 79.273438 L 265.546875 79.304688 L 265.527344 79.355469 C 265.402344 79.683594 265.085938 80.734375 265.089844 81.859375 C 265.085938 82.5 265.1875 83.152344 265.460938 83.691406 C 265.59375 84.011719 266.046875 84.394531 266.574219 84.703125 L 266.796875 83.007813 C 266.636719 82.71875 266.644531 82.414063 266.632813 82.214844 C 266.644531 81.414063 266.917969 80.496094 267.152344 79.800781 L 267.179688 79.714844 L 267.203125 79.675781 C 267.871094 77.152344 268.078125 75.503906 268.085938 72.617188 C 268.085938 59.238281 259.640625 47.816406 247.835938 43.316406 C 247.816406 43.90625 247.734375 44.484375 247.589844 45.039063 C 258.585938 49.378906 266.367188 60.097656 266.371094 72.617188 "/>
<path style=" stroke:none;fill-rule:nonzero;fill:rgb(100%,92.199707%,0%);fill-opacity:1;" d="M 239.761719 44.847656 C 238.945313 44.757813 238.113281 44.703125 237.273438 44.691406 C 236.613281 44.703125 235.953125 44.738281 235.304688 44.800781 C 235.832031 45.339844 236.585938 45.679688 237.578125 45.691406 C 238.480469 45.683594 239.226563 45.363281 239.761719 44.847656 "/>
<path style=" stroke:none;fill-rule:nonzero;fill:rgb(100%,92.199707%,0%);fill-opacity:1;" d="M 236.46875 135.484375 L 236.46875 116.636719 C 231.859375 116.601563 227.484375 116.335938 223.519531 115.867188 L 225.054688 134.871094 C 228.589844 135.242188 232.4375 135.457031 236.46875 135.484375 "/>
<path style=" stroke:none;fill-rule:nonzero;fill:rgb(100%,92.199707%,0%);fill-opacity:1;" d="M 220.191406 84.574219 C 216.40625 85.277344 211.722656 86.882813 209.46875 87.984375 C 210.097656 88.246094 210.78125 88.5 211.523438 88.742188 C 213.714844 87.734375 216.730469 86.894531 220.359375 86.269531 "/>
<path style=" stroke:none;fill-rule:nonzero;fill:rgb(100%,92.199707%,0%);fill-opacity:1;" d="M 266.4375 105.480469 L 266.632813 104.078125 C 264.398438 105.109375 261.40625 105.996094 257.839844 106.710938 L 257.703125 106.039063 C 261.457031 105.292969 264.5625 104.347656 266.746094 103.273438 L 266.984375 101.605469 C 264.730469 102.660156 261.695313 103.566406 258.058594 104.292969 L 257.925781 103.621094 C 261.757813 102.859375 264.898438 101.890625 267.097656 100.792969 L 267.351563 99.003906 C 265.105469 100.03125 262.117188 100.921875 258.550781 101.632813 L 258.417969 100.960938 C 262.164063 100.21875 265.265625 99.265625 267.464844 98.199219 L 267.71875 96.425781 C 265.4375 97.523438 262.308594 98.460938 258.550781 99.210938 L 258.417969 98.542969 C 262.382813 97.753906 265.617188 96.738281 267.832031 95.59375 L 268.085938 93.808594 C 265.78125 94.988281 262.519531 96.011719 258.550781 96.796875 L 258.417969 96.125 C 262.601563 95.304688 265.988281 94.203125 268.203125 92.976563 L 268.4375 91.332031 C 266.117188 92.542969 262.824219 93.574219 258.800781 94.371094 L 258.664063 93.699219 C 262.894531 92.867188 266.308594 91.765625 268.535156 90.515625 L 268.546875 90.539063 L 270.292969 78.207031 L 269.367188 78.207031 L 267.941406 88.265625 L 267.746094 88.464844 L 267.515625 88.699219 L 267.398438 88.765625 C 264.730469 90.171875 260.765625 91.339844 255.945313 92.183594 L 254.578125 108.824219 C 259.699219 108 263.832031 106.832031 266.4375 105.480469 "/>
<path style=" stroke:none;fill-rule:nonzero;fill:rgb(100%,92.199707%,0%);fill-opacity:1;" d="M 255.285156 90.5625 C 260.007813 89.761719 263.855469 88.660156 266.339844 87.394531 L 266.460938 86.546875 C 265.519531 86.136719 264.484375 85.515625 263.929688 84.445313 C 263.503906 83.578125 263.382813 82.667969 263.382813 81.859375 C 263.386719 81.167969 263.472656 80.539063 263.578125 80.015625 C 261.613281 79.328125 259.226563 78.714844 256.507813 78.207031 "/>
<path style=" stroke:none;fill-rule:nonzero;fill:rgb(100%,92.199707%,0%);fill-opacity:1;" d="M 219.726563 79.824219 C 216.433594 80.441406 213.234375 81.375 211.152344 82.308594 C 211.113281 82.957031 210.988281 83.644531 210.695313 84.3125 C 213.597656 83.089844 217.132813 82.046875 219.894531 81.515625 "/>
<path style=" stroke:none;fill-rule:nonzero;fill:rgb(100%,92.199707%,0%);fill-opacity:1;" d="M 219.542969 77.9375 C 216.210938 78.488281 213.304688 79.191406 210.980469 80 C 211.070313 80.449219 211.140625 80.984375 211.160156 81.5625 C 213.332031 80.632813 216.441406 79.746094 219.660156 79.144531 "/>
<path style=" stroke:none;fill-rule:nonzero;fill:rgb(100%,92.199707%,0%);fill-opacity:1;" d="M 221.789063 115.648438 C 216.621094 114.941406 212.246094 113.886719 209.070313 112.578125 L 209.332031 114.429688 C 211.316406 115.25 213.832031 115.976563 216.769531 116.578125 L 216.632813 117.25 C 213.839844 116.675781 211.417969 115.992188 209.445313 115.210938 L 209.691406 116.972656 C 211.621094 117.738281 213.992188 118.429688 216.769531 119 L 216.632813 119.667969 C 213.996094 119.128906 211.714844 118.476563 209.804688 117.75 L 210.054688 119.53125 C 211.914063 120.242188 214.15625 120.886719 216.769531 121.417969 L 216.632813 122.085938 C 214.15625 121.582031 211.996094 120.980469 210.164063 120.304688 L 210.414063 122.082031 C 212.203125 122.738281 214.332031 123.332031 216.769531 123.832031 L 216.632813 124.5 C 214.320313 124.027344 212.277344 123.46875 210.523438 122.847656 L 210.777344 124.640625 C 212.492188 125.238281 214.5 125.789063 216.769531 126.25 L 216.632813 126.917969 C 214.484375 126.484375 212.558594 125.964844 210.882813 125.398438 L 211.136719 127.179688 C 212.769531 127.730469 214.664063 128.234375 216.769531 128.671875 L 216.632813 129.339844 C 214.644531 128.929688 212.835938 128.457031 211.242188 127.9375 L 211.496094 129.71875 C 213.054688 130.226563 214.804688 130.691406 216.769531 131.089844 L 216.632813 131.757813 C 214.78125 131.378906 213.109375 130.949219 211.601563 130.472656 L 211.863281 132.328125 C 214.90625 133.316406 218.828125 134.121094 223.328125 134.675781 "/>
<path style=" stroke:none;fill-rule:nonzero;fill:rgb(100%,92.199707%,0%);fill-opacity:1;" d="M 201.894531 82.601563 C 201.257813 82.097656 200.820313 81.371094 200.726563 80.558594 C 200.71875 80.472656 200.71875 80.410156 200.71875 80.386719 C 200.765625 79.609375 201.011719 79.339844 201.878906 77.304688 C 202.746094 75.3125 202.996094 74.144531 202.992188 73.535156 C 202.992188 73.492188 202.988281 73.449219 202.988281 73.414063 L 201.699219 73.425781 C 201.546875 74.050781 201.199219 75.011719 200.417969 76.402344 C 199.230469 78.53125 199.007813 79.390625 199.003906 80.222656 C 199.003906 80.382813 199.015625 80.554688 199.03125 80.730469 C 199.160156 81.972656 199.808594 83.136719 200.835938 83.941406 C 201.632813 84.554688 202.363281 84.871094 203.160156 84.933594 L 202.894531 83.160156 C 202.503906 83.046875 202.175781 82.820313 201.894531 82.601563 "/>
<path style=" stroke:none;fill-rule:nonzero;fill:rgb(100%,92.199707%,0%);fill-opacity:1;" d="M 225.597656 141.480469 L 226.550781 153.132813 C 229.675781 153.546875 233.003906 153.820313 236.46875 153.851563 L 236.46875 142.027344 C 232.652344 142.003906 228.996094 141.8125 225.597656 141.480469 "/>
<path style=" stroke:none;fill-rule:nonzero;fill:rgb(100%,92.199707%,0%);fill-opacity:1;" d="M 238.175781 142.027344 L 238.175781 153.847656 C 242.070313 153.804688 245.796875 153.464844 249.242188 152.960938 L 250.199219 141.363281 C 246.484375 141.765625 242.433594 142 238.175781 142.027344 "/>
<path style=" stroke:none;fill-rule:nonzero;fill:rgb(100%,92.199707%,0%);fill-opacity:1;" d="M 212.84375 139.253906 L 213.136719 141.335938 C 214.277344 141.648438 215.472656 141.949219 216.769531 142.21875 L 216.632813 142.886719 C 215.421875 142.636719 214.308594 142.359375 213.242188 142.070313 L 213.496094 143.859375 C 214.519531 144.136719 215.613281 144.394531 216.769531 144.632813 L 216.632813 145.300781 C 215.570313 145.082031 214.558594 144.84375 213.597656 144.59375 L 213.847656 146.367188 C 214.777344 146.609375 215.742188 146.839844 216.769531 147.050781 L 216.632813 147.71875 C 215.695313 147.527344 214.8125 147.316406 213.953125 147.097656 L 214.203125 148.878906 C 215.019531 149.085938 215.871094 149.285156 216.773438 149.480469 L 216.628906 150.148438 C 215.820313 149.972656 215.054688 149.792969 214.308594 149.609375 L 214.445313 150.574219 L 214.511719 150.785156 C 217.472656 151.542969 220.964844 152.316406 224.820313 152.898438 L 223.871094 141.296875 C 219.683594 140.816406 215.9375 140.117188 212.84375 139.253906 "/>
<path style=" stroke:none;fill-rule:nonzero;fill:rgb(100%,92.199707%,0%);fill-opacity:1;" d="M 250.976563 152.683594 C 254.3125 152.132813 257.367188 151.457031 259.988281 150.789063 L 260.054688 150.578125 L 260.253906 149.164063 C 258.113281 149.945313 255.363281 150.570313 252.121094 151.007813 L 252.027344 150.328125 C 255.414063 149.875 258.25 149.210938 260.363281 148.398438 L 260.625 146.546875 C 258.492188 147.308594 255.78125 147.921875 252.605469 148.347656 L 252.511719 147.671875 C 255.832031 147.226563 258.621094 146.570313 260.734375 145.777344 L 260.976563 144.066406 C 258.859375 144.847656 256.128906 145.472656 252.945313 145.914063 L 252.851563 145.238281 C 256.179688 144.777344 259 144.109375 261.085938 143.296875 L 261.324219 141.59375 C 259.265625 142.371094 256.628906 142.992188 253.511719 143.441406 L 253.414063 142.765625 C 256.675781 142.296875 259.402344 141.632813 261.433594 140.824219 L 261.652344 139.289063 C 258.875 140.058594 255.585938 140.691406 251.925781 141.160156 "/>
<path style=" stroke:none;fill-rule:nonzero;fill:rgb(100%,92.199707%,0%);fill-opacity:1;" d="M 252.464844 134.53125 C 256.410156 133.996094 259.871094 133.261719 262.628906 132.386719 L 262.863281 130.722656 C 260.667969 131.617188 257.84375 132.382813 254.539063 132.976563 L 254.417969 132.304688 C 257.882813 131.683594 260.804688 130.867188 262.976563 129.933594 L 263.230469 128.152344 C 260.984375 129.113281 258.035156 129.929688 254.539063 130.5625 L 254.417969 129.890625 C 258.078125 129.226563 261.136719 128.359375 263.339844 127.363281 L 263.59375 125.570313 C 261.375 126.5 258.488281 127.289063 255.070313 127.910156 L 254.945313 127.238281 C 258.53125 126.589844 261.519531 125.75 263.703125 124.777344 L 263.953125 123.011719 C 261.695313 124.003906 258.691406 124.847656 255.105469 125.488281 L 254.988281 124.816406 C 258.742188 124.144531 261.851563 123.246094 264.066406 122.214844 L 264.316406 120.453125 C 262.148438 121.460938 259.226563 122.308594 255.710938 122.972656 L 255.585938 122.300781 C 259.296875 121.601563 262.316406 120.6875 264.433594 119.632813 L 264.679688 117.890625 C 262.496094 118.9375 259.527344 119.824219 255.925781 120.519531 L 255.792969 119.847656 C 259.597656 119.117188 262.671875 118.164063 264.796875 117.070313 L 265.042969 115.304688 C 262.9375 116.394531 259.96875 117.308594 256.394531 118.019531 L 256.257813 117.351563 C 259.96875 116.613281 263.019531 115.652344 265.03125 114.550781 L 265.128906 114.722656 L 265.421875 112.648438 C 262.503906 113.824219 258.601563 114.789063 254.03125 115.476563 "/>
<path style=" stroke:none;fill-rule:nonzero;fill:rgb(100%,92.199707%,0%);fill-opacity:1;" d="M 212.128906 134.203125 L 212.582031 137.398438 C 218.503906 139.175781 227.40625 140.328125 237.320313 140.328125 C 247.179688 140.328125 255.996094 139.191406 261.914063 137.4375 L 262.363281 134.253906 C 256.191406 136.074219 247.277344 137.191406 237.324219 137.195313 C 227.28125 137.191406 218.300781 136.050781 212.128906 134.203125 "/>
<path style=" stroke:none;fill-rule:nonzero;fill:rgb(100%,92.199707%,0%);fill-opacity:1;" d="M 311.992188 357.359375 C 293.0625 361.546875 269.492188 364.175781 243.742188 364.550781 L 243.742188 407.953125 C 270.5625 407.570313 295.039063 404.695313 314.15625 400.210938 L 311.992188 400.210938 "/>
<path style=" stroke:none;fill-rule:nonzero;fill:rgb(100%,92.199707%,0%);fill-opacity:1;" d="M 331.625 316.320313 L 331.625 320.257813 C 344.703125 315.492188 353.074219 309.714844 355 303.65625 L 355 300.949219 C 351.972656 306.78125 343.699219 311.972656 331.625 316.320313 "/>
<path style=" stroke:none;fill-rule:nonzero;fill:rgb(100%,92.199707%,0%);fill-opacity:1;" d="M 331.625 219.582031 L 331.625 223.523438 C 344.703125 218.761719 353.078125 212.980469 355 206.910156 L 355 204.203125 C 351.972656 210.042969 343.699219 215.234375 331.625 219.582031 "/>
<path style=" stroke:none;fill-rule:nonzero;fill:rgb(100%,92.199707%,0%);fill-opacity:1;" d="M 347.632813 344.375 C 341.433594 348.40625 332.625 351.960938 321.777344 354.953125 C 319.46875 355.589844 317.042969 356.195313 314.550781 356.777344 L 314.550781 400.113281 C 328.28125 396.863281 339.222656 392.78125 346.234375 388.191406 C 352.109375 384.371094 355.027344 380.347656 354.996094 376.507813 L 354.996094 375.914063 C 350.914063 383.777344 337.292969 390.484375 317.6875 395.53125 L 317.476563 394.699219 C 338.585938 389.347656 352.445313 381.8125 354.996094 373.792969 L 354.996094 371.085938 C 350.914063 378.949219 337.292969 385.65625 317.683594 390.675781 L 317.476563 389.847656 C 338.585938 384.519531 352.449219 376.984375 354.996094 368.964844 L 354.996094 366.242188 C 350.914063 374.113281 337.292969 380.828125 317.683594 385.828125 L 317.476563 385 C 338.585938 379.691406 352.449219 372.148438 354.996094 364.121094 L 354.996094 361.40625 C 350.914063 369.277344 337.292969 375.988281 317.683594 381 L 317.476563 380.175781 C 338.585938 374.855469 352.449219 367.308594 354.996094 359.289063 L 354.996094 356.570313 C 350.914063 364.4375 337.292969 371.15625 317.683594 376.1875 L 317.476563 375.363281 C 338.585938 370.023438 352.449219 362.472656 354.996094 354.449219 L 354.996094 351.734375 C 350.914063 359.601563 337.292969 366.3125 317.683594 371.324219 L 317.476563 370.496094 C 338.585938 365.179688 352.449219 357.632813 354.996094 349.613281 L 354.996094 346.878906 C 350.914063 354.757813 337.292969 361.464844 317.683594 366.488281 L 317.476563 365.660156 C 338.585938 360.324219 352.449219 352.792969 354.996094 344.757813 L 354.996094 342.058594 C 350.914063 349.921875 337.292969 356.613281 317.683594 361.648438 L 317.476563 360.824219 C 338.589844 355.480469 352.449219 347.953125 354.996094 339.9375 L 354.996094 337.757813 C 353.285156 340.117188 350.777344 342.320313 347.632813 344.375 "/>
<path style=" stroke:none;fill-rule:nonzero;fill:rgb(100%,92.199707%,0%);fill-opacity:1;" d="M 347.632813 206.53125 C 343.4375 209.261719 338.035156 211.773438 331.625 214.039063 L 331.625 218.6875 C 344.703125 213.925781 353.078125 208.144531 355 202.078125 L 355 199.914063 C 353.289063 202.273438 350.777344 204.476563 347.632813 206.53125 "/>
<path style=" stroke:none;fill-rule:nonzero;fill:rgb(100%,92.199707%,0%);fill-opacity:1;" d="M 331.625 345.34375 L 331.625 349.164063 C 337.519531 347.03125 342.449219 344.703125 346.234375 342.226563 C 352.109375 338.402344 355.023438 334.378906 354.996094 330.546875 L 354.996094 329.953125 C 351.972656 335.785156 343.699219 340.992188 331.625 345.34375 "/>
<path style=" stroke:none;fill-rule:nonzero;fill:rgb(100%,92.199707%,0%);fill-opacity:1;" d="M 331.625 248.605469 L 331.625 252.546875 C 344.703125 247.78125 353.074219 242.003906 355 235.953125 L 355 233.214844 C 351.972656 239.054688 343.699219 244.257813 331.625 248.605469 "/>
<path style=" stroke:none;fill-rule:nonzero;fill:rgb(100%,92.199707%,0%);fill-opacity:1;" d="M 347.632813 298.410156 C 343.4375 301.140625 338.035156 303.652344 331.625 305.921875 L 331.625 310.589844 C 344.703125 305.824219 353.074219 300.042969 355 293.972656 L 355 291.796875 C 353.285156 294.15625 350.777344 296.359375 347.632813 298.410156 "/>
<path style=" stroke:none;fill-rule:nonzero;fill:rgb(100%,92.199707%,0%);fill-opacity:1;" d="M 331.625 229.257813 L 331.625 233.199219 C 344.703125 228.433594 353.074219 222.65625 355 216.585938 L 355 213.875 C 351.972656 219.714844 343.699219 224.910156 331.625 229.257813 "/>
<path style=" stroke:none;fill-rule:nonzero;fill:rgb(100%,92.199707%,0%);fill-opacity:1;" d="M 331.625 234.09375 L 331.625 238.035156 C 344.703125 233.269531 353.074219 227.492188 355 221.421875 L 355 218.710938 C 351.972656 224.554688 343.699219 229.746094 331.625 234.09375 "/>
<path style=" stroke:none;fill-rule:nonzero;fill:rgb(100%,92.199707%,0%);fill-opacity:1;" d="M 331.625 224.421875 L 331.625 228.363281 C 344.703125 223.597656 353.074219 217.816406 355 211.75 L 355 209.035156 C 351.972656 214.878906 343.699219 220.074219 331.625 224.421875 "/>
<path style=" stroke:none;fill-rule:nonzero;fill:rgb(100%,92.199707%,0%);fill-opacity:1;" d="M 331.625 238.933594 L 331.625 242.871094 C 344.703125 238.105469 353.074219 232.320313 355 226.257813 L 355 223.546875 C 351.972656 229.390625 343.699219 234.585938 331.625 238.933594 "/>
<path style=" stroke:none;fill-rule:nonzero;fill:rgb(100%,92.199707%,0%);fill-opacity:1;" d="M 331.625 243.765625 L 331.625 247.714844 C 344.703125 242.945313 353.074219 237.148438 355 231.09375 L 355 228.382813 C 351.972656 234.222656 343.699219 239.417969 331.625 243.765625 "/>
<path style=" stroke:none;fill-rule:nonzero;fill:rgb(100%,92.199707%,0%);fill-opacity:1;" d="M 331.625 340.503906 L 331.625 344.445313 C 344.703125 339.679688 353.074219 333.886719 354.996094 327.828125 L 355 325.128906 C 351.972656 330.96875 343.699219 336.15625 331.625 340.503906 "/>
<path style=" stroke:none;fill-rule:nonzero;fill:rgb(100%,92.199707%,0%);fill-opacity:1;" d="M 331.625 326 L 331.625 329.9375 C 344.703125 325.171875 353.074219 319.390625 355 313.328125 L 355 310.601563 C 351.972656 316.441406 343.699219 321.652344 331.625 326 "/>
<path style=" stroke:none;fill-rule:nonzero;fill:rgb(100%,92.199707%,0%);fill-opacity:1;" d="M 331.625 321.15625 L 331.625 325.105469 C 344.703125 320.335938 353.074219 314.539063 355 308.480469 L 355 305.777344 C 351.972656 311.613281 343.699219 316.808594 331.625 321.15625 "/>
<path style=" stroke:none;fill-rule:nonzero;fill:rgb(100%,92.199707%,0%);fill-opacity:1;" d="M 331.625 335.667969 L 331.625 339.609375 C 344.703125 334.84375 353.074219 329.066406 355 323.003906 L 355 320.277344 C 351.972656 326.113281 343.699219 331.316406 331.625 335.667969 "/>
<path style=" stroke:none;fill-rule:nonzero;fill:rgb(100%,92.199707%,0%);fill-opacity:1;" d="M 331.625 330.828125 L 331.625 334.773438 C 344.703125 330.003906 353.074219 324.210938 355 318.152344 L 355 315.453125 C 351.972656 321.289063 343.699219 326.484375 331.625 330.828125 "/>
<path style=" stroke:none;fill-rule:nonzero;fill:rgb(100%,92.199707%,0%);fill-opacity:1;" d="M 347.632813 252.476563 C 341.433594 256.507813 332.625 260.0625 321.777344 263.054688 C 319.46875 263.691406 317.042969 264.296875 314.550781 264.878906 L 314.550781 308.1875 C 328.28125 304.933594 339.226563 300.855469 346.234375 296.265625 C 352.109375 292.441406 355.027344 288.417969 354.996094 284.582031 L 355 284.582031 L 355 284.015625 C 350.914063 291.882813 337.296875 298.597656 317.683594 303.597656 L 317.476563 302.769531 C 338.589844 297.460938 352.449219 289.914063 355 281.890625 L 355 279.175781 C 350.917969 287.039063 337.296875 293.738281 317.6875 298.785156 L 317.476563 297.957031 C 338.589844 292.601563 352.449219 285.070313 355 277.054688 L 355 274.335938 C 350.917969 282.207031 337.296875 288.921875 317.683594 293.933594 L 317.476563 293.101563 C 338.589844 287.785156 352.449219 280.238281 355 272.210938 L 355 269.496094 C 350.917969 277.375 337.296875 284.089844 317.683594 289.113281 L 317.476563 288.285156 C 338.589844 282.953125 352.449219 275.40625 355 267.367188 L 355 264.664063 C 350.917969 272.546875 337.296875 279.246094 317.683594 284.257813 L 317.476563 283.429688 C 338.589844 278.109375 352.449219 270.578125 355 262.539063 L 355 259.839844 C 350.917969 267.714844 337.296875 274.417969 317.683594 279.441406 L 317.476563 278.613281 C 338.589844 273.28125 352.449219 265.746094 355 257.714844 L 355 254.992188 C 350.917969 262.859375 337.296875 269.570313 317.683594 274.585938 L 317.476563 273.757813 C 338.589844 268.433594 352.449219 260.890625 355 252.871094 L 355 250.160156 C 350.917969 258.027344 337.296875 264.738281 317.683594 269.75 L 317.476563 268.917969 C 338.589844 263.601563 352.449219 256.058594 355 248.035156 L 355 245.859375 C 353.289063 248.21875 350.777344 250.425781 347.632813 252.476563 "/>
<path style=" stroke:none;fill-rule:nonzero;fill:rgb(100%,92.199707%,0%);fill-opacity:1;" d="M 331.625 311.484375 L 331.625 315.425781 C 344.703125 310.660156 353.074219 304.882813 355 298.828125 L 355 296.097656 C 351.972656 301.941406 343.699219 307.136719 331.625 311.484375 "/>
<path style=" stroke:none;fill-rule:nonzero;fill:rgb(100%,92.199707%,0%);fill-opacity:1;" d="M 331.625 253.441406 L 331.625 257.265625 C 337.519531 255.132813 342.449219 252.804688 346.234375 250.328125 C 352.109375 246.503906 355.023438 242.484375 354.996094 238.648438 L 355 238.648438 L 355 238.074219 C 351.972656 243.90625 343.699219 249.097656 331.625 253.441406 "/>
<path style=" stroke:none;fill-rule:nonzero;fill:rgb(100%,92.199707%,0%);fill-opacity:1;" d="M 406.175781 64.257813 C 405.9375 63.5625 405.351563 63.03125 404.632813 62.855469 L 385.441406 58.285156 L 375.605469 39.171875 C 375.234375 38.449219 374.492188 37.996094 373.679688 38 C 372.867188 37.996094 372.128906 38.449219 371.757813 39.171875 L 361.921875 58.285156 L 342.730469 62.855469 C 342.011719 63.03125 341.425781 63.5625 341.1875 64.257813 C 340.945313 64.953125 341.082031 65.738281 341.542969 66.3125 L 354.796875 82.855469 L 352.703125 104.984375 C 352.628906 105.765625 352.984375 106.527344 353.632813 106.972656 C 354 107.222656 354.425781 107.347656 354.859375 107.347656 C 355.1875 107.347656 355.519531 107.273438 355.820313 107.121094 L 373.675781 98.203125 L 373.6875 98.203125 L 391.539063 107.121094 C 391.84375 107.273438 392.175781 107.347656 392.503906 107.347656 C 392.933594 107.347656 393.363281 107.222656 393.730469 106.972656 C 394.375 106.527344 394.734375 105.765625 394.65625 104.984375 L 392.566406 82.855469 L 405.816406 66.3125 C 406.277344 65.738281 406.414063 64.953125 406.175781 64.257813 "/>
<path style=" stroke:none;fill-rule:nonzero;fill:rgb(7.099915%,26.298523%,48.599243%);fill-opacity:1;" d="M 390.425781 82.070313 L 404.128906 64.960938 L 383.972656 60.15625 L 373.683594 40.160156 L 373.679688 40.164063 L 373.679688 40.160156 L 363.390625 60.15625 L 343.230469 64.960938 L 356.9375 82.070313 L 357.03125 82.191406 L 354.859375 105.1875 L 373.679688 95.785156 L 373.683594 95.785156 L 392.503906 105.1875 L 390.332031 82.191406 "/>
<path style=" stroke:none;fill-rule:nonzero;fill:rgb(100%,92.199707%,0%);fill-opacity:1;" d="M 388.632813 80.851563 L 388.730469 80.730469 L 388.738281 80.71875 L 400.3125 66.273438 L 383.472656 62.261719 C 382.855469 62.113281 382.34375 61.710938 382.050781 61.148438 L 373.679688 44.898438 L 365.3125 61.148438 C 365.019531 61.710938 364.507813 62.113281 363.890625 62.261719 L 347.050781 66.273438 L 358.621094 80.71875 L 358.632813 80.730469 L 358.726563 80.851563 C 359.070313 81.285156 359.234375 81.84375 359.183594 82.394531 L 357.375 101.511719 L 372.714844 93.851563 C 373.015625 93.699219 373.347656 93.625 373.679688 93.625 C 374.011719 93.625 374.34375 93.699219 374.648438 93.851563 L 389.988281 101.511719 L 388.179688 82.394531 C 388.128906 81.84375 388.289063 81.285156 388.632813 80.851563 "/>
<path style=" stroke:none;fill-rule:nonzero;fill:rgb(100%,92.199707%,0%);fill-opacity:1;" d="M 68.46875 64.257813 C 68.710938 63.5625 69.296875 63.03125 70.011719 62.855469 L 89.203125 58.285156 L 99.039063 39.171875 C 99.410156 38.449219 100.152344 37.996094 100.964844 38 C 101.777344 37.996094 102.515625 38.449219 102.890625 39.171875 L 112.722656 58.285156 L 131.914063 62.855469 C 132.632813 63.03125 133.21875 63.5625 133.457031 64.257813 C 133.699219 64.953125 133.5625 65.738281 133.101563 66.3125 L 119.847656 82.855469 L 121.941406 104.984375 C 122.015625 105.765625 121.660156 106.527344 121.011719 106.972656 C 120.644531 107.222656 120.21875 107.347656 119.789063 107.347656 C 119.460938 107.347656 119.128906 107.273438 118.824219 107.121094 L 100.96875 98.203125 L 100.960938 98.203125 L 83.105469 107.121094 C 82.800781 107.273438 82.46875 107.347656 82.140625 107.347656 C 81.710938 107.347656 81.28125 107.222656 80.917969 106.972656 C 80.269531 106.527344 79.914063 105.765625 79.984375 104.984375 L 82.078125 82.855469 L 68.828125 66.3125 C 68.367188 65.738281 68.230469 64.953125 68.46875 64.257813 "/>
<path style=" stroke:none;fill-rule:nonzero;fill:rgb(7.099915%,26.298523%,48.599243%);fill-opacity:1;" d="M 84.21875 82.070313 L 70.515625 64.960938 L 90.671875 60.15625 L 100.964844 40.160156 L 100.964844 40.164063 L 100.964844 40.160156 L 111.253906 60.15625 L 131.414063 64.960938 L 117.707031 82.070313 L 117.613281 82.191406 L 119.789063 105.1875 L 100.964844 95.785156 L 82.140625 105.1875 L 84.316406 82.191406 "/>
<path style=" stroke:none;fill-rule:nonzero;fill:rgb(100%,92.199707%,0%);fill-opacity:1;" d="M 86.011719 80.851563 L 85.917969 80.730469 L 85.90625 80.71875 L 74.335938 66.273438 L 91.171875 62.261719 C 91.789063 62.113281 92.304688 61.710938 92.59375 61.148438 L 100.964844 44.898438 L 109.332031 61.148438 C 109.625 61.710938 110.136719 62.113281 110.753906 62.261719 L 127.59375 66.273438 L 116.023438 80.71875 L 116.011719 80.730469 L 115.917969 80.851563 C 115.574219 81.285156 115.410156 81.84375 115.464844 82.394531 L 117.269531 101.511719 L 101.933594 93.851563 C 101.628906 93.699219 101.296875 93.625 100.964844 93.625 C 100.632813 93.625 100.300781 93.699219 99.996094 93.851563 L 84.65625 101.511719 L 86.464844 82.394531 C 86.515625 81.84375 86.355469 81.285156 86.011719 80.851563 "/>
</g>
</svg>
