<svg xmlns="http://www.w3.org/2000/svg" width="632.867" height="767.347" viewBox="0 0 474.65 575.51"><defs><clipPath id="a"><path d="M0 0h474.648v575.512H0zm0 0"/></clipPath></defs><g clip-path="url(#a)"><path style="stroke:none;fill-rule:nonzero;fill:#000;fill-opacity:1" d="M237.324 478.809c-21.578 0-42.578-2.164-62.722-6.25l10.875-33.946.113-.066c15.195 3.012 32.34 4.719 51.722 4.71h.02c19.383.009 36.527-1.698 51.723-4.71l.113.066 10.875 33.946c-20.145 4.086-41.145 6.25-62.719 6.25M419 383.168l-17.96-37.242c4.085-11.969 5.925-21.934 7.198-27.453 1.387-6.145 2.817-19.215 4.305-36.215 1.48-16.973 2.992-37.766 4.441-58.977 2.899-42.41 5.563-86.52 7.262-104.867 2.516-27.227 13.66-56.887 19.07-69.934 1.801-4.351 2.954-6.835 2.957-6.84l.93-2.015-2.05-.852C445.007 38.72 351.78.012 237.323 0 122.864.012 29.637 38.719 29.492 38.773l-2.05.852.93 2.016c.007.004 1.155 2.488 2.956 6.84 5.41 13.046 16.555 42.706 19.07 69.933 1.704 18.348 4.364 62.457 7.262 104.867 1.45 21.211 2.961 42.004 4.442 58.977 1.488 17 2.918 30.07 4.304 36.215 1.274 5.52 3.114 15.484 7.2 27.453l-17.961 37.242L0 373.613l2.11 3.871c22.058 40.422 53.671 74.59 91.726 99.274l-26.95 50.87 1.727 1.044c49.328 29.844 107.102 46.84 168.711 46.84 61.61 0 119.38-16.996 168.707-46.84l1.727-1.043-26.945-50.871c38.05-24.684 69.664-58.852 91.722-99.274l2.113-3.87"/></g><path style="stroke:none;fill-rule:nonzero;fill:#12437c;fill-opacity:1" d="M404.078 317.52c1.277-5.579 2.746-18.73 4.215-35.633 4.437-50.797 9.133-136.13 11.707-163.867 3.031-32.465 17.664-67.41 21.484-76.122-.586-.226-1.296-.503-2.129-.82-19.218-7.344-102.718-36.82-202.03-36.812-99.317-.008-182.817 29.468-202.036 36.812-.832.317-1.543.594-2.129.82 3.82 8.711 18.453 43.657 21.485 76.122 2.574 27.738 7.27 113.07 11.707 163.867 1.468 16.902 2.937 30.054 4.214 35.633 2.704 11.816 7.762 42.07 30.368 69.468 22.605 27.34 62.664 51.969 136.379 52.004h.015c73.719-.035 113.777-24.664 136.387-52.004 22.601-27.398 27.66-57.652 30.363-69.468"/><path style="stroke:none;fill-rule:nonzero;fill:#867d22;fill-opacity:1" d="M170.406 471.676c-19.648-4.278-38.449-10.395-56.136-18.13l66.492-14.19m113.121-.001 66.492 14.192c-17.688 7.734-36.488 13.851-56.137 18.129"/><path style="stroke:none;fill-rule:nonzero;fill:#12437c;fill-opacity:1" d="M402.098 526.063c-48.305 28.804-104.672 45.183-164.774 45.183-60.105 0-116.472-16.379-164.777-45.183l37.035-69.918c38.242 17.218 81.719 26.93 127.742 26.93 46.024 0 89.5-9.712 127.738-26.93"/><path style="stroke:none;fill-rule:nonzero;fill:#ffeb00;fill-opacity:1" d="M97.64 389.703c-10.578-12.808-17.421-26.23-22-38.168l-17.546 36.38-50.082-8.599c21.547 38.02 51.758 70.2 87.824 93.66l11.86-22.386 67.425-14.395c-37.309-9.445-61.613-27.234-77.48-46.492m318.909-1.789-17.542-36.379c-4.582 11.938-11.426 25.36-22.004 38.168-15.867 19.254-40.176 37.047-77.48 46.492l67.425 14.395 11.86 22.387c36.07-23.461 66.277-55.641 87.824-93.66m-330.215 117.41c-8.734.73-12.098.457-20.184-1.008l3.43-10.524c4.207.692 12.547 2.04 20.723-3.101l13.379 4.351-18.938 58.11-12.293-5.203m38.309-3.707c.336 2.828.722 6.14 3.777 10.097 6.125 7.91 15.555 9.512 20 10.133 6.656.95 23.547 2.781 32.438-12.2 2.925-4.976 4.55-10.59 5.347-16.241 1.473-10.368-.84-18.38-4.691-23.301-6.363-8.13-17.465-9.676-20.738-10.149-19.297-2.726-30.72 5.211-32.485 17.778-1.254 8.886 2.77 19.77 20.703 22.312 5.368.739 10.297.606 15.164-.832 3.457-.906 4.891-1.918 7.067-3.449-1.196 4.465-2.403 9.09-6.465 12.246-4.707 3.703-10.652 3.149-13.012 2.797-9.476-1.324-11.367-6.316-12-8.348zm33.222-30.852c5.305.473 15.493 2.64 14.196 11.832-1.055 7.453-9.34 8.242-17.067 7.172-4.91-.715-12.875-2.844-11.715-11.129.961-6.832 7.27-8.633 14.586-7.875m101.407 5.422c-1.235-2.59-2.121-4.535-4.524-6.922-6.25-6.293-15.5-7.938-24.492-7.172-13.187 1.078-31.64 9.79-29.52 35.336 1.282 15.586 9.704 29.45 33.81 27.43 11.632-.946 18.362-5.282 21.82-9.164 3.035-3.403 5.652-8.68 5.128-14.91-.86-10.434-10.058-19.067-27.086-17.657-11.914.969-16.972 6.547-19.175 8.961-.055-4.058-.047-9.582 4.359-14.191 2.195-2.285 5.637-4.235 10.582-4.672 8.238-.668 11.512 3.219 13.645 5.621zm-29.391 18.008c6.3-.805 15.594.09 16.262 8.328.61 7.336-6.414 10.3-13.38 10.875-4.401.347-9.566.254-13.015-3.63-1.515-1.71-2.039-3.523-2.164-4.976-.469-5.578 4.707-9.703 12.297-10.597m40.906 2.285 3.075 10.207 33.433-10.043 3.555 11.781 14.32-4.3-3.527-11.805 9.492-2.844-3.066-10.207-9.508 2.863-10.547-35.11L329 485.634zm33.434-10.043-19.516 5.883 10.625-22.38c.367-.722 2.824-6.226 2.754-6.511.164 1.207.36 2.48.64 3.75.247 1.164.614 2.414 1.009 3.64"/><path style="stroke:none;fill-rule:nonzero;fill:#000;fill-opacity:1" d="m271.586 81.266.23-1.633c.051.125.098.226.133.32.16.371.145.414.153.414v.02c-.043.316-.223.64-.516.879m-68.672-.047c-.277-.235-.453-.543-.488-.844 0-.023.023-.11.144-.402l.125-.293zm104.441 83.695c-19.707-3.941-43.882-6.262-70.035-6.262-26.148 0-50.34 2.325-70.05 6.266v-61.836c.757-18.809 8.917-36.477 23.042-49.68 11.024-10.32 23.258-16.984 37.391-19.457.7.942 1.524 1.66 2.356 2.18-1.106 1.16-2.309 2.723-2.825 5.191-13.043 4.426-22.46 16.778-22.46 31.301 0 1.485.054 2.703.203 3.883h-.942c.465-1.277.656-2.203.664-2.965 0-.531-.11-.992-.293-1.36l-.238-.48-3.211.028v.007c-.48.004-.723.368-.738.43-.164.38-.078.285-.106.348l-.004.07v.074c-.015.18-.14 1.067-1.18 2.914-1.226 2.18-1.632 3.41-1.632 4.657 0 .23.016.457.039.68.18 1.722 1.066 3.296 2.45 4.382 1.085.852 2.304 1.367 3.644 1.367h.015c.078 0 .157-.011.235-.015l9.093 64.316.262.809.145.445.453.113c6.012 1.559 14.32 3.25 23.535 3.25h.152c9.223 0 17.543-1.691 23.555-3.25l.457-.117.39-1.254 9.102-64.312c.086.004.172.02.258.02h.008c1.336 0 2.566-.52 3.652-1.368a6.433 6.433 0 0 0 2.45-4.379c.027-.234.035-.465.035-.695.003-1.25-.418-2.473-1.637-4.649-1-1.824-1.137-2.707-1.152-2.91v-.078c-.06-.086.128-.058-.243-.594a.852.852 0 0 0-.636-.261l-3.18-.028-.238.477c-.188.371-.297.832-.297 1.367.004.758.195 1.684.656 2.961h-.918c.152-1.18.211-2.398.207-3.883 0-14.398-9.258-26.656-22.105-31.191a7.688 7.688 0 0 0-1.38-3.13l-.195-.257h-7.726l3.46-1.719c.97-.375 2.778-1.16 4.317-2.636 14.586 2.222 26.684 8.98 38.18 19.718 14.12 13.203 22.27 30.871 23.015 49.73zM237.508 51.816h.015c4.47-.007 7.934-2.156 9.465-5.18 10.352 4.098 17.676 14.192 17.676 25.981-.004 2.45-.14 3.758-.64 5.746-6.165-2.125-15.817-3.465-26.7-3.465h-.156c-10.84 0-20.445 1.332-26.621 3.446-.508-1.965-.664-3.274-.668-5.727.023-11.949 7.562-22.148 18.129-26.14 1.508 3.265 5.176 5.34 9.5 5.34m108.086 125.8c-7.235-4.219-17.43-7.887-29.844-10.867v-66.145c-.809-20.562-9.664-39.722-24.914-53.976-11.774-11.016-26.426-18.195-42.234-20.914-.926-5.02-5.63-7.64-11.25-7.606-3.797-.004-6.692 1.192-8.63 3.004a9.092 9.092 0 0 0-2.652 4.578c-15.824 2.715-30.488 9.91-42.27 20.934-15.245 14.262-24.097 33.422-24.902 53.93v66.191c-12.425 2.992-22.628 6.664-29.867 10.89-7.386 4.325-11.902 9.305-11.945 15.063v183.809c.027 5.215 3.77 9.812 9.93 13.832 18.546 12.027 60.863 20.191 110.304 20.223 32.953-.004 62.782-3.672 84.461-9.645 10.844-2.988 19.653-6.547 25.852-10.578 6.16-4.02 9.898-8.617 9.926-13.832V192.699c-.043-5.77-4.567-10.758-11.965-15.082"/><path style="stroke:none;fill-rule:nonzero;fill:#ffeb00;fill-opacity:1" d="M209.04 180.941c-18.528 1.536-33.544 4.528-41.77 8.262v3.91c8.484-3.746 23.414-6.672 41.77-8.183m4.284-23.043c-16.969.96-32.605 2.922-46.054 5.64v14.5c8.726-3.738 23.59-6.617 41.77-8.097"/><path style="stroke:none;fill-rule:nonzero;fill:#ffeb00;fill-opacity:1" d="M209.04 189.762v-3.98c-18.528 1.53-33.544 4.523-41.77 8.265v1.68a40.94 40.94 0 0 0 2.703 1.14c8.75-3.222 22.507-5.742 39.066-7.105m.001-13.27c-18.724 1.555-33.817 4.602-41.77 8.332v3.45c8.484-3.743 23.414-6.672 41.77-8.184m-57.028 36.777v43.235h-.184c.567.164 1.14.324 1.719.484 12.7 3.5 28.344 6.203 45.808 7.832v-43.367c-18.078-1.664-34.234-4.488-47.343-8.184m163.566-24.804c-.328.953-1.035 2.054-2.351 3.085-.266.23-.555.454-.864.676l18.075 15.914c6.417-2.242 11.765-4.715 15.796-7.351 5.875-3.828 8.79-7.852 8.762-11.688.047-4.23-3.555-8.719-10.691-12.87-6.782-3.962-16.57-7.532-28.555-10.446v19.68c.11.406.18.816.18 1.218a5.392 5.392 0 0 1-.352 1.781m-78.254 34.696c-12.336-.008-24.222-.52-35.41-1.477v43.375c11.18.961 23.074 1.485 35.41 1.48 15.528.012 30.363-.816 43.95-2.316v-43.375c-13.614 1.489-28.426 2.313-43.95 2.313m80.36 30.906-.207-.824a153.87 153.87 0 0 0 11.59-3.395v-3.953c-3.52 1.184-7.32 2.297-11.383 3.336l-.207-.824a153.87 153.87 0 0 0 11.59-3.395v-3.957c-3.52 1.184-7.32 2.297-11.383 3.34l-.207-.828a151.756 151.756 0 0 0 11.59-3.398v-3.946a162.74 162.74 0 0 1-11.383 3.336l-.207-.824a153.819 153.819 0 0 0 11.59-3.398v-3.954c-3.52 1.18-7.32 2.297-11.383 3.34l-.207-.828a153.87 153.87 0 0 0 11.59-3.394v-3.953c-3.52 1.18-7.32 2.296-11.383 3.34l-.207-.829a153.87 153.87 0 0 0 11.59-3.394v-3.953c-3.52 1.18-7.32 2.296-11.383 3.336l-.207-.825a155.48 155.48 0 0 0 11.59-3.398v-3.953c-3.52 1.183-7.32 2.297-11.383 3.34l-.207-.829a153.87 153.87 0 0 0 11.59-3.394v-4.672a152.71 152.71 0 0 1-7.286 2.195c-10.828 2.985-23.683 5.395-37.949 7.059v43.36c17.758-2.094 33.27-5.344 45.234-9.372v-3.828c-3.52 1.18-7.32 2.297-11.382 3.336m-25.418-54.684c-14.114 2.961-33.508 4.774-54.946 4.774-20.21-.012-38.566-1.606-52.445-4.27-.055.008-.113.02-.172.032l-.016-.07c-3.695-.716-7.066-1.508-10.07-2.368-.008.004-.02.004-.023.008h-.004.004l-.008-.016a71.658 71.658 0 0 1-4.836-1.558l-17.023 14.902c.273.074.543.152.82.23 21.371 5.891 51.023 9.555 83.777 9.555 36.23.024 68.711-4.515 90.309-11.515L310.09 197.23c-.09.051-.18.098-.266.145a8.21 8.21 0 0 1-.457.238l-.222.117c-4.075 2.012-9.817 3.77-16.88 5.25"/><path style="stroke:none;fill-rule:nonzero;fill:#ffeb00;fill-opacity:1" d="M192.52 202.18c5.074.761 10.617 1.398 16.52 1.886v-3.773c-5.895.488-11.438 1.125-16.52 1.887m16.52-11.563c-15.888 1.313-29.169 3.7-37.81 6.707 1.97.696 4.196 1.363 6.66 1.992 8.278-2.078 18.958-3.71 31.15-4.714m28.284-19.227c-9.015-.008-17.68.32-25.726.918v3.594c3.18-.235 6.449-.43 9.8-.578l.04.855c-3.368.145-6.649.34-9.84.578v3.985c3.18-.235 6.449-.43 9.8-.579l.04.852c-3.364.148-6.649.344-9.84.582v3.984c3.18-.234 6.449-.433 9.804-.582l.036.852c-3.372.148-6.649.348-9.84.582v3.984c3.18-.238 6.449-.43 9.804-.578l.036.852a323.62 323.62 0 0 0-9.84.582v3.98c3.18-.234 6.453-.43 9.804-.574l.036.848a324.37 324.37 0 0 0-9.84.582v4.176c8.043.597 16.699.925 25.722.925 9.461.008 18.524-.355 26.899-1.011v-27.797c-8.38-.657-17.442-1.02-26.895-1.012m0-2.562c9.352.007 18.305.355 26.606.984l-4.344-12.004a429.204 429.204 0 0 0-22.266-.582c-7.246 0-14.336.187-21.226.531l-4.258 11.973c7.984-.578 16.55-.895 25.488-.903m29.453 31.161c18.168-1.582 32.786-4.575 40.578-8.227V184.81c-7.8-3.649-22.421-6.633-40.578-8.211m-87.086 23.155c1.043.25 2.11.488 3.22.723 2.155.453 4.456.875 6.862 1.27 5.817-.95 12.293-1.731 19.266-2.31v-3.976c-11.355.934-21.387 2.422-29.348 4.293"/><path style="stroke:none;fill-rule:nonzero;fill:#ffeb00;fill-opacity:1" d="M233.55 30.34h1.512c.055-.004.102-.031.157-.031 20.355-.016 36.328 7.593 50.87 21.222 14.599 13.645 23.056 31.965 23.825 51.551v91.27c.426-.27.914-.598 1.461-.997.93-.757 1.512-1.488 1.793-2.128.004-.028.016-.051.02-.075v-90.496c-.782-19.84-9.325-38.344-24.098-52.164-14.024-13.105-32.242-20.637-51.625-21.39-1.23.054-2.422.148-3.848.28-.215.02-.41-.03-.597-.105-.028.184-.06.368-.06.563.009 1.25.255 1.996.59 2.5"/><path style="stroke:none;fill-rule:nonzero;fill:#ffeb00;fill-opacity:1" d="M266.734 174.023c17.649 1.508 32.07 4.34 40.621 7.989v-14.485c-13.168-2.668-28.433-4.601-44.996-5.582M151.828 352c.567.16 1.14.324 1.719.484 12.7 3.5 28.344 6.207 45.808 7.836v-43.39c-18.078-1.668-34.234-4.493-47.347-8.184V352m83.695-327.523h3.399a6.71 6.71 0 0 0-1.786-.243 5.923 5.923 0 0 0-1.613.243m95.097 324.98h-1.734v-3.227c-3.52 1.18-7.32 2.297-11.382 3.34l-.207-.828a153.87 153.87 0 0 0 11.59-3.394v-3.957c-3.52 1.183-7.32 2.296-11.383 3.34l-.207-.829a153.87 153.87 0 0 0 11.59-3.394v-3.953a161.13 161.13 0 0 1-11.383 3.336l-.207-.825a151.756 151.756 0 0 0 11.59-3.398v-3.95c-3.52 1.18-7.32 2.298-11.383 3.34l-.207-.828c4.156-1.054 8.023-2.19 11.59-3.402v-3.941c-3.52 1.18-7.32 2.293-11.383 3.332l-.207-.828a152.115 152.115 0 0 0 11.59-3.391v-3.96c-3.52 1.183-7.32 2.3-11.383 3.343l-.207-.832a152.066 152.066 0 0 0 11.59-3.395v-3.949a162.74 162.74 0 0 1-11.383 3.336l-.207-.828a153.87 153.87 0 0 0 11.59-3.395v-3.953c-3.52 1.184-7.32 2.297-11.383 3.34l-.207-.828a153.87 153.87 0 0 0 11.59-3.395v-4.695c-2.313.766-4.743 1.5-7.29 2.2-10.824 2.984-23.68 5.394-37.941 7.058v43.379c18.629-2.196 34.781-5.664 46.965-9.969m-208.578-61.336v-.004l.004.004.601-.601c3.945 3.976 10.688 7.687 19.555 10.918l-.293.8c-8.934-3.261-15.762-6.992-19.863-11.117zm.004-19.344.605-.597c3.941 3.976 10.684 7.68 19.55 10.91l-.292.8c-8.934-3.257-15.766-6.988-19.867-11.113zm.601-15.113c3.945 3.969 10.688 7.691 19.555 10.918l-.293.805c-8.934-3.258-15.766-7.004-19.867-11.121zm19.555 20.598-.293.797c-8.934-3.254-15.762-6.993-19.867-11.094l.605-.602c3.945 3.953 10.688 7.668 19.555 10.899m-.293-4.04c-8.934-3.277-15.762-6.992-19.863-11.093l.601-.606c3.945 3.957 10.688 7.649 19.555 10.899zm-.004 14.505c-8.93-3.282-15.758-6.993-19.863-11.11l.605-.601c3.945 3.968 10.688 7.66 19.555 10.91zm.297 8.894-.297.8c-8.93-3.276-15.758-7.015-19.86-11.108v-.004.003l.602-.605c3.945 3.95 10.688 7.664 19.555 10.914m-.293-4.055c-8.934-3.257-15.766-6.996-19.867-11.093l.605-.602c3.945 3.95 10.688 7.664 19.555 10.895zm-13.676 6.7c5.84 3.808 14.453 7.316 25.133 10.257 4.894 1.348 10.238 2.575 15.937 3.672v-43.324c-18.558-3.535-33.375-8.5-42.468-14.394-3.149-2.055-5.66-4.258-7.371-6.618v38.735c-.02 3.832 2.894 7.847 8.77 11.672"/><path style="stroke:none;fill-rule:nonzero;fill:#ffeb00;fill-opacity:1" d="M122.828 333.48c3.945 3.957 10.688 7.672 19.555 10.922l-.297.801c-8.93-3.281-15.758-7.015-19.86-11.117zm-.601-4.222.601-.606c3.95 3.95 10.688 7.668 19.55 10.891l-.288.805c-8.934-3.254-15.762-6.996-19.863-11.09zm-.004-4.852h.004l.601-.597c3.945 3.984 10.688 7.664 19.555 10.918l-.293.8c-8.93-3.28-15.762-6.984-19.863-11.12l-.004.003zm.605-15.105c3.945 3.969 10.688 7.668 19.555 10.894l-.293.801c-8.934-3.254-15.766-6.976-19.867-11.094zm0-4.84c3.95 3.953 10.688 7.691 19.555 10.926l-.293.8c-8.934-3.261-15.762-7.023-19.863-11.12zm0-4.836c3.945 3.95 10.688 7.672 19.555 10.914l-.297.797c-8.93-3.266-15.762-7.012-19.86-11.106zm-.601 15.105.601-.601c3.945 3.96 10.688 7.672 19.555 10.906l-.293.8c-8.934-3.26-15.762-6.995-19.863-11.105m0 4.848.601-.601c3.95 3.949 10.688 7.668 19.555 10.91l-.293.8c-8.934-3.265-15.762-7.011-19.863-11.109v.004zm6.187 22.649c5.074 3.312 12.238 6.39 21.035 9.07V308c-9.285-2.777-16.918-6.012-22.433-9.59-3.149-2.05-5.66-4.258-7.371-6.613v38.758c-.02 3.836 2.894 7.851 8.77 11.672m108.909-26.149c1.29 0 2.578-.008 3.856-.015v-43.391c-1.282.012-2.563.027-3.856.027-24.097-.015-46.492-1.969-65.277-5.351v43.332c18.695 3.402 41.137 5.398 65.277 5.398m0 48.52c-24.097-.012-46.496-1.965-65.277-5.352v43.36c18.695 3.402 41.137 5.398 65.273 5.394 1.293.004 2.582-.004 3.864-.016v-43.41c-1.286.008-2.567.024-3.86.024"/><path style="stroke:none;fill-rule:nonzero;fill:#ffeb00;fill-opacity:1" d="M142.09 366.957c-8.934-3.277-15.762-7.012-19.863-11.09l.601-.605c3.945 3.933 10.688 7.644 19.555 10.894zm-.004 14.516c-8.93-3.282-15.762-6.996-19.863-11.121l.605-.602c3.945 3.977 10.688 7.672 19.555 10.922zm.004 9.664c-8.934-3.27-15.762-6.985-19.863-11.09l.601-.606c3.945 3.961 10.688 7.653 19.555 10.895zm-19.867-15.946v-.003h.004l.601-.602c3.945 3.976 10.688 7.7 19.55 10.922l-.288.8c-8.934-3.253-15.762-6.992-19.863-11.12zm.004-9.675.601-.602c3.945 3.977 10.688 7.695 19.555 10.918l-.293.8c-8.934-3.253-15.766-6.991-19.867-11.116zm0-4.809.601-.605c3.945 3.953 10.688 7.66 19.555 10.894l-.293.797c-8.934-3.262-15.766-6.988-19.867-11.086zm20.156.613-.297.801c-8.93-3.281-15.758-6.984-19.86-11.094l.602-.601c3.945 3.96 10.688 7.64 19.555 10.894m-20.156-15.148v.004l.601-.606c3.945 3.97 10.688 7.688 19.55 10.914l-.288.797c-8.934-3.254-15.762-6.992-19.863-11.105zm4.789-1.797c-3.149-2.055-5.657-4.262-7.371-6.617v38.75c-.028 3.84 2.89 7.863 8.77 11.683 5.839 3.813 14.452 7.32 25.132 10.262 4.894 1.348 10.242 2.57 15.941 3.668v-43.348c-18.562-3.535-33.379-8.5-42.472-14.398m110.308 17.665c15.524.01 30.36-.817 43.95-2.317v-43.399c-13.614 1.488-28.426 2.313-43.95 2.313-12.336-.008-24.222-.524-35.414-1.477v43.399c11.184.96 23.078 1.484 35.414 1.48m-.508-324.649 4.508-2.242c.766-.293 1.98-.832 3.125-1.687a71.842 71.842 0 0 0-7.172-.543c-.386.133-.906.32-1.488.574-1.226.531-2.695 1.34-3.668 2.363-1.25 1.297-2.738 2.52-3.46 5.012a32.954 32.954 0 0 1 4.952-1.027c.914-1.504 2.45-2.113 3.203-2.45m-3.613-5.53c-.887-.735-1.535-2.005-1.523-4.02.007-2.852 2.484-4.88 5.632-4.883 1.883-.012 3.594.59 4.602 1.887 1.79.16 3.563.367 5.328.636-.988-3.964-4.789-6.058-9.894-6.09-7.047.032-10.215 4.282-10.243 8.313.024 4.274 1.97 6.371 3.883 7.48.075-.074.14-.144.211-.214.961-.996 2.211-1.758 3.352-2.317-.02-.011-.035-.023-.051-.035a4.882 4.882 0 0 1-1.297-.758m80.863 276.446h-2.074V265.46c-18.93 4.184-42.5 6.812-68.25 7.187v43.38c26.778-.383 51.219-3.25 70.324-7.723m-191.839-66.116.601-.606c3.945 3.957 10.688 7.695 19.555 10.922l-.297.8c-8.93-3.257-15.762-7.015-19.863-11.117zm-.004-14.508h.004l.601-.606c3.945 3.953 10.688 7.68 19.555 10.903l-.293.8c-8.934-3.25-15.762-7.004-19.863-11.097zm.605-5.442c3.945 3.953 10.688 7.664 19.555 10.914l-.297.801c-8.93-3.277-15.758-7.012-19.86-11.113zm0-4.84c3.945 3.957 10.688 7.668 19.555 10.91l-.297.797c-8.93-3.265-15.758-7-19.86-11.101zm-.601-4.234.601-.601c3.945 3.953 10.688 7.667 19.555 10.917l-.297.801c-8.93-3.281-15.758-7.015-19.86-11.117v.004zm0-4.836.601-.605c3.945 3.957 10.688 7.672 19.555 10.91l-.297.8c-8.93-3.265-15.758-7.003-19.86-11.105zm0 24.184.601-.606c3.945 3.969 10.688 7.672 19.555 10.922l-.297.805c-8.93-3.281-15.762-7.008-19.86-11.121m.602 4.234c3.945 3.953 10.688 7.672 19.555 10.922l-.297.8c-8.93-3.28-15.762-7.019-19.86-11.12zm5.586 13.582c5.074 3.313 12.238 6.39 21.035 9.07v-43.273c-9.285-2.785-16.918-6.016-22.433-9.594-3.149-2.05-5.66-4.258-7.371-6.617v38.746c-.02 3.832 2.894 7.848 8.77 11.668m34.827-57.004c.008.008.016.012.024.02.543.398 1.023.726 1.445 1l.004-91.309c.777-19.539 9.246-37.86 23.851-51.504 11.086-10.398 23.567-17.281 37.895-19.953-.332-.937-.547-2.015-.598-3.242-15.093 2.71-29.058 9.629-40.312 20.156-14.77 13.82-23.309 32.328-24.094 52.113v90.532c.262.66.832 1.406 1.785 2.187"/><path style="stroke:none;fill-rule:nonzero;fill:#ffeb00;fill-opacity:1" d="M128.414 204.387c5.14 3.351 12.434 6.472 21.395 9.175l17.27-15.117a34.91 34.91 0 0 1-1.423-.648l-.183-.082c-.043-.02-.504-.23-1.282-.688-1.062-.601-2.004-1.23-2.796-1.902-1.313-1.035-2.012-2.145-2.333-3.102a5.293 5.293 0 0 1-.34-1.742c0-.445.079-.851.176-1.238v-19.66c-11.996 2.918-21.793 6.5-28.578 10.46-7.12 4.15-10.715 8.63-10.675 12.856v.012c-.02 3.836 2.894 7.851 8.77 11.676m79.929-96.965.445 3.168c5.36 2.539 16.164 4.355 28.535 4.347 12.23.008 22.946-1.765 28.375-4.261l.453-3.176c-5.949 2.625-16.586 4.293-28.828 4.305-12.36-.016-23.07-1.707-28.98-4.383m28.125-15.472V76.61c-5.528.027-10.719.413-15.235 1.066l1.305 13.383c4.203.546 8.93.867 13.93.89M272.656 77.3c.848 2 1.106 2.294 1.153 3.063l-.004.098v.047l-.004.047a3.09 3.09 0 0 1-1.168 2.054c-.274.215-.61.446-1.016.559l-.25 1.77c.797-.067 1.535-.383 2.328-.993a4.723 4.723 0 0 0 1.801-3.21c.016-.184.027-.356.027-.52-.003-.82-.238-1.688-1.43-3.824-.753-1.383-1.097-2.34-1.25-2.965l-1.292-.012v.125c-.004.61.246 1.777 1.101 3.762m-52.527 6.589-.164-1.695c-3.04.59-7.102 1.84-10.059 3.215-.55.528-1.222.89-1.843 1.156l.12.836c.22.114.466.22.708.328l-.09-.168c2.203-1.16 7.234-2.914 11.328-3.671m33.418 6.949 1.281-12.93c-4.824-.785-10.531-1.262-16.648-1.3v15.34c5.586-.036 10.824-.438 15.367-1.11m-41.012-1.79c2.336.696 5.133 1.294 8.274 1.766l-.38-3.863c-3.175.547-5.863 1.266-7.894 2.098m38.203 45.695 1.567-19.023c-4.274.554-9.055.879-14.125.914v18.847c4.469-.03 8.715-.289 12.558-.738"/><path style="stroke:none;fill-rule:nonzero;fill:#ffeb00;fill-opacity:1" d="M238.176 110.094c5.297-.031 10.289-.395 14.668-1.008l1.37-16.617c-4.734.722-10.194 1.14-16.038 1.183m-18.289-1.246c-5.422-.855-9.867-2.11-12.785-3.64l-.149-.079-.11-.128-.273-.325-1.43-10.027h-.925l1.738 12.32c2.063 1.121 5.004 2.145 8.563 3.016v.004l-.164.66c-3.356-.824-6.172-1.781-8.282-2.852l.258 1.829c2.04 1.027 4.79 1.968 8.11 2.77l-.157.663c-3.136-.758-5.785-1.637-7.836-2.61l.258 1.817c1.988.942 4.59 1.797 7.645 2.547h.004l-.165.664c-2.886-.71-5.378-1.512-7.37-2.406l.257 1.816c1.918.86 4.352 1.66 7.2 2.344h.003l-.16.664c-2.695-.648-5.027-1.398-6.93-2.215l.254 1.813c1.852.789 4.11 1.515 6.735 2.152l-.16.664c-2.48-.601-4.641-1.281-6.461-2.027l.254 1.812c1.761.715 3.867 1.38 6.285 1.973l-.164.66c-2.27-.555-4.285-1.176-6.008-1.847l.133.949c2.773 1.492 7.41 2.773 13.18 3.62m16.288-58.472c5.54-.015 9.043-3.508 9.043-7.437 0-1.61-.46-2.817-1.105-3.778h-4.7c.704.77 1.239 1.817 1.235 3.22-.004 2.39-1.82 4.425-4.418 4.429-1.683.011-3.02-.805-3.762-1.996-1.578.23-3.113.593-4.597 1.078 1.289 2.672 4.414 4.48 8.304 4.484m-.031-10.965c.113-.004.23-.011.344-.011v.015c.45.012.906.031 1.355.059a6.562 6.562 0 0 0-.593-.399l-1.215-.695-.024.012c-.562.242-1.316.566-1.945 1.105a42.48 42.48 0 0 1 1.426-.07v-.027c.207 0 .433.004.652.011"/><path style="stroke:none;fill-rule:nonzero;fill:#ffeb00;fill-opacity:1" d="M237.234 42.98c.203-.003.399-.011.602-.011v.035c.945.031 1.883.101 2.805.219a3.88 3.88 0 0 0 .078-.684 3.776 3.776 0 0 0-.192-1.184l-.011.09c-.883-.093-2-.148-3.008-.168-17.13.207-30.996 14.164-31.028 31.34.004 2.91.208 4.567.887 7.102l.02.05.008.032c.234.699.523 1.629.535 2.433-.016.192-.004.485-.157.77l.223 1.695c.531-.308.992-.687 1.113-.996.254-.543.356-1.203.356-1.848.004-1.128-.3-2.171-.438-2.578-.644-2.355-.855-3.957-.851-6.66 0-16.02 12.773-29.094 28.664-29.625v-.023c.133 0 .262.011.394.011m-15.613 49.684 1.348 16.574c4.09.524 8.668.828 13.5.856V93.656c-5.356-.035-10.395-.383-14.848-.992m44.75-20.047c.004 2.7-.187 4.293-.812 6.656l-.012.032-.02.05a7.795 7.795 0 0 0-.437 2.504c-.004.641.098 1.293.37 1.832.134.32.587.704 1.114 1.012l.223-1.695c-.16-.29-.152-.594-.164-.793.012-.8.285-1.719.52-2.414l.027-.086.023-.04c.668-2.523.875-4.171.883-7.058 0-13.379-8.445-24.8-20.25-29.3a7.866 7.866 0 0 1-.246 1.722c10.996 4.34 18.777 15.059 18.781 27.578"/><path style="stroke:none;fill-rule:nonzero;fill:#ffeb00;fill-opacity:1" d="M239.762 44.848a26.097 26.097 0 0 0-2.489-.157c-.66.012-1.32.047-1.968.11.527.539 1.28.879 2.273.89.902-.007 1.649-.328 2.184-.843m-3.293 90.636v-18.847c-4.61-.035-8.985-.301-12.95-.77l1.536 19.004c3.535.371 7.382.586 11.414.613m-16.278-50.91c-3.785.703-8.468 2.309-10.722 3.41a27.77 27.77 0 0 0 2.054.758c2.192-1.008 5.207-1.847 8.836-2.472m46.079 19.21.195-1.402c-2.235 1.031-5.227 1.918-8.793 2.633l-.137-.672c3.754-.746 6.86-1.691 9.043-2.766l.238-1.668c-2.254 1.055-5.289 1.961-8.925 2.688l-.133-.672c3.832-.762 6.972-1.73 9.172-2.828l.254-1.79c-2.247 1.028-5.235 1.919-8.801 2.63l-.133-.672c3.746-.742 6.848-1.695 9.047-2.762l.254-1.773c-2.281 1.097-5.41 2.035-9.168 2.785l-.133-.668c3.965-.79 7.2-1.805 9.414-2.95l.254-1.784c-2.305 1.18-5.566 2.203-9.535 2.988l-.133-.672c4.184-.82 7.57-1.922 9.785-3.148l.235-1.645c-2.32 1.211-5.614 2.242-9.637 3.04l-.137-.673c4.23-.832 7.645-1.933 9.871-3.183l.012.023 1.746-12.332h-.926l-1.426 10.059-.195.199-.23.234-.118.067c-2.668 1.406-6.632 2.574-11.453 3.418l-1.367 16.64c5.121-.824 9.254-1.992 11.86-3.344"/><path style="stroke:none;fill-rule:nonzero;fill:#ffeb00;fill-opacity:1" d="M255.285 90.563c4.723-.801 8.57-1.903 11.055-3.168l.12-.848c-.94-.41-1.976-1.031-2.53-2.102-.426-.867-.547-1.777-.547-2.586.004-.691.09-1.32.195-1.843-1.965-.688-4.351-1.301-7.07-1.809m-36.781 1.617c-3.293.617-6.493 1.551-8.575 2.485a5.831 5.831 0 0 1-.457 2.004c2.903-1.223 6.438-2.266 9.2-2.797m-.352-3.578c-3.332.55-6.238 1.253-8.563 2.062.09.45.16.984.18 1.563 2.172-.93 5.281-1.817 8.5-2.418m2.13 36.503c-5.169-.707-9.544-1.761-12.72-3.07l.262 1.852c1.984.82 4.5 1.547 7.438 2.148l-.137.672c-2.793-.574-5.215-1.258-7.188-2.04l.246 1.763c1.93.765 4.301 1.457 7.079 2.027l-.137.668c-2.637-.54-4.918-1.191-6.828-1.918l.25 1.781c1.86.711 4.101 1.356 6.715 1.887l-.137.668c-2.477-.504-4.637-1.106-6.469-1.781l.25 1.777c1.79.656 3.918 1.25 6.356 1.75l-.137.668c-2.313-.473-4.356-1.031-6.11-1.652l.254 1.793c1.715.597 3.723 1.148 5.993 1.609l-.137.668a47.232 47.232 0 0 1-5.75-1.52l.254 1.782c1.633.55 3.527 1.054 5.633 1.492l-.137.668a50.327 50.327 0 0 1-5.39-1.403l.253 1.782c1.559.508 3.309.972 5.274 1.37l-.137.669a49.955 49.955 0 0 1-5.031-1.285l.261 1.855c3.043.988 6.965 1.793 11.465 2.348m-21.433-52.074c-.637-.504-1.075-1.23-1.168-2.043-.008-.086-.008-.149-.008-.172.047-.778.293-1.047 1.16-3.082.867-1.993 1.117-3.16 1.113-3.77 0-.043-.004-.086-.004-.12l-1.289.01c-.152.626-.5 1.587-1.281 2.977-1.188 2.13-1.41 2.989-1.414 3.82 0 .16.012.333.027.508.13 1.243.778 2.407 1.805 3.211.797.614 1.527.93 2.324.993l-.265-1.774c-.391-.113-.72-.34-1-.558m23.703 58.878.953 11.653a81.3 81.3 0 0 0 9.918.719v-11.825a119.936 119.936 0 0 1-10.871-.547m12.578.547v11.82a82.969 82.969 0 0 0 11.066-.886l.957-11.598a119.48 119.48 0 0 1-12.023.664m-25.332-2.773.293 2.082c1.14.312 2.336.613 3.633.883l-.137.668a56.426 56.426 0 0 1-3.39-.817l.253 1.79c1.024.277 2.117.535 3.274.773l-.137.668a60.518 60.518 0 0 1-3.035-.707l.25 1.773c.93.242 1.894.473 2.922.684l-.137.668a56.95 56.95 0 0 1-2.68-.621l.25 1.78c.817.208 1.668.407 2.57.602l-.144.668a86.928 86.928 0 0 1-2.32-.539l.136.965.067.211c2.96.758 6.453 1.531 10.308 2.113l-.949-11.601c-4.187-.48-7.934-1.18-11.027-2.043m38.133 13.43a107.83 107.83 0 0 0 9.011-1.895l.067-.21.199-1.415c-2.14.781-4.89 1.406-8.133 1.844l-.094-.68c3.387-.453 6.223-1.117 8.336-1.93l.262-1.851c-2.133.762-4.844 1.375-8.02 1.8l-.093-.675c3.32-.445 6.11-1.102 8.222-1.895l.243-1.71c-2.118.78-4.848 1.406-8.032 1.847l-.093-.676c3.328-.46 6.148-1.129 8.234-1.941l.238-1.703c-2.058.777-4.695 1.398-7.812 1.847l-.098-.675c3.262-.47 5.988-1.133 8.02-1.942l.218-1.535c-2.777.77-6.066 1.402-9.726 1.871m.539-6.629c3.945-.535 7.406-1.27 10.164-2.144l.234-1.664c-2.195.894-5.02 1.66-8.324 2.254l-.121-.672c3.465-.621 6.387-1.438 8.559-2.371l.253-1.782c-2.246.961-5.195 1.778-8.69 2.41l-.122-.671c3.66-.664 6.719-1.532 8.922-2.528l.254-1.793c-2.219.93-5.106 1.72-8.524 2.34l-.125-.672c3.586-.648 6.575-1.488 8.758-2.46l.25-1.766c-2.258.992-5.262 1.836-8.848 2.476l-.117-.672c3.754-.671 6.864-1.57 9.078-2.601l.25-1.762c-2.168 1.008-5.09 1.856-8.605 2.52l-.125-.672c3.71-.7 6.73-1.614 8.848-2.668l.246-1.742c-2.184 1.046-5.153 1.933-8.754 2.629l-.133-.672c3.805-.73 6.879-1.684 9.004-2.778l.246-1.765c-2.106 1.09-5.074 2.004-8.648 2.715l-.137-.668c3.71-.739 6.762-1.7 8.773-2.801l.098.172.293-2.075c-2.918 1.176-6.82 2.141-11.39 2.829"/><path style="stroke:none;fill-rule:nonzero;fill:#ffeb00;fill-opacity:1" d="m212.129 134.203.453 3.195c5.922 1.778 14.824 2.93 24.738 2.93 9.86 0 18.676-1.137 24.594-2.89l.45-3.184c-6.173 1.82-15.087 2.937-25.04 2.941-10.043-.004-19.023-1.144-25.195-2.992m99.863 223.157c-18.93 4.187-42.5 6.816-68.25 7.19v43.403c26.82-.383 51.297-3.258 70.414-7.742h-2.164m19.633-83.891v3.938c13.078-4.766 21.45-10.543 23.375-16.602v-2.707c-3.027 5.832-11.3 11.024-23.375 15.371m0-96.738v3.941c13.078-4.761 21.453-10.543 23.375-16.613v-2.707c-3.027 5.84-11.3 11.031-23.375 15.379m16.008 124.793c-6.2 4.031-15.008 7.586-25.856 10.578a188.992 188.992 0 0 1-7.226 1.824v43.336c13.73-3.25 24.672-7.332 31.683-11.922 5.875-3.82 8.793-7.843 8.762-11.683v-.594c-4.082 7.863-17.703 14.57-37.308 19.617l-.211-.832c21.109-5.351 34.968-12.887 37.52-20.906v-2.707c-4.083 7.863-17.704 14.57-37.313 19.59l-.207-.828c21.109-5.328 34.972-12.864 37.52-20.883v-2.723c-4.083 7.871-17.704 14.586-37.313 19.586l-.207-.828c21.109-5.309 34.972-12.852 37.52-20.879v-2.715c-4.083 7.871-17.704 14.582-37.313 19.594l-.207-.824c21.109-5.32 34.972-12.867 37.52-20.887v-2.719c-4.083 7.868-17.704 14.586-37.313 19.618l-.207-.825c21.109-5.34 34.972-12.89 37.52-20.914v-2.715c-4.083 7.868-17.704 14.579-37.313 19.59l-.207-.828c21.109-5.316 34.972-12.863 37.52-20.883v-2.734c-4.083 7.879-17.704 14.586-37.313 19.61l-.207-.829c21.109-5.336 34.972-12.867 37.52-20.902v-2.7c-4.083 7.864-17.704 14.555-37.313 19.59l-.207-.824c21.113-5.344 34.972-12.87 37.52-20.887v-2.18c-1.712 2.36-4.22 4.563-7.364 6.618"/><path style="stroke:none;fill-rule:nonzero;fill:#ffeb00;fill-opacity:1" d="M347.633 206.531c-4.195 2.73-9.598 5.242-16.008 7.508v4.649c13.078-4.762 21.453-10.543 23.375-16.61v-2.164c-1.71 2.36-4.223 4.563-7.367 6.617m-16.008 138.813v3.82c5.895-2.133 10.824-4.46 14.61-6.937 5.874-3.825 8.788-7.848 8.761-11.68v-.594c-3.023 5.832-11.297 11.04-23.371 15.39m0-96.738v3.942c13.078-4.766 21.45-10.543 23.375-16.594v-2.738c-3.027 5.84-11.3 11.043-23.375 15.39m16.008 49.805c-4.195 2.73-9.598 5.242-16.008 7.512v4.668c13.078-4.766 21.45-10.547 23.375-16.617v-2.176c-1.715 2.36-4.223 4.562-7.367 6.613m-16.008-69.152v3.941c13.078-4.765 21.45-10.543 23.375-16.613v-2.711c-3.027 5.84-11.3 11.035-23.375 15.383"/><path style="stroke:none;fill-rule:nonzero;fill:#ffeb00;fill-opacity:1" d="M331.625 234.094v3.941c13.078-4.765 21.45-10.543 23.375-16.613v-2.711c-3.027 5.844-11.3 11.035-23.375 15.383m0-9.672v3.941c13.078-4.765 21.45-10.547 23.375-16.613v-2.715c-3.027 5.844-11.3 11.04-23.375 15.387"/><path style="stroke:none;fill-rule:nonzero;fill:#ffeb00;fill-opacity:1" d="M331.625 238.934v3.937c13.078-4.766 21.45-10.55 23.375-16.613v-2.711c-3.027 5.844-11.3 11.039-23.375 15.387"/><path style="stroke:none;fill-rule:nonzero;fill:#ffeb00;fill-opacity:1" d="M331.625 243.766v3.949c13.078-4.77 21.45-10.567 23.375-16.621v-2.711c-3.027 5.84-11.3 11.035-23.375 15.383m0 96.738v3.941c13.078-4.765 21.45-10.558 23.371-16.617l.004-2.7c-3.027 5.84-11.3 11.028-23.375 15.376m0-14.504v3.938c13.078-4.766 21.45-10.547 23.375-16.61v-2.726c-3.027 5.84-11.3 11.05-23.375 15.398"/><path style="stroke:none;fill-rule:nonzero;fill:#ffeb00;fill-opacity:1" d="M331.625 321.156v3.95c13.078-4.77 21.45-10.567 23.375-16.626v-2.703c-3.027 5.836-11.3 11.032-23.375 15.38m0 14.511v3.941c13.078-4.765 21.45-10.543 23.375-16.605v-2.727c-3.027 5.836-11.3 11.04-23.375 15.391"/><path style="stroke:none;fill-rule:nonzero;fill:#ffeb00;fill-opacity:1" d="M331.625 330.828v3.945c13.078-4.77 21.45-10.562 23.375-16.62v-2.7c-3.027 5.836-11.3 11.031-23.375 15.375m16.008-78.351c-6.2 4.03-15.008 7.585-25.856 10.578a188.994 188.994 0 0 1-7.226 1.824v43.308c13.73-3.253 24.676-7.332 31.683-11.921 5.875-3.825 8.793-7.848 8.762-11.684H355v-.566c-4.086 7.867-17.703 14.582-37.316 19.582l-.207-.828c21.113-5.31 34.972-12.856 37.523-20.88v-2.714c-4.082 7.863-17.703 14.562-37.313 19.61l-.21-.829c21.113-5.355 34.972-12.887 37.523-20.902v-2.72c-4.082 7.872-17.703 14.587-37.316 19.599l-.207-.832c21.113-5.317 34.972-12.864 37.523-20.891v-2.715c-4.082 7.879-17.703 14.594-37.316 19.617l-.207-.828c21.113-5.332 34.972-12.879 37.523-20.918v-2.703c-4.082 7.883-17.703 14.582-37.316 19.594l-.207-.828c21.113-5.32 34.972-12.852 37.523-20.89v-2.7c-4.082 7.875-17.703 14.578-37.316 19.601l-.207-.828c21.113-5.332 34.972-12.867 37.523-20.898v-2.723c-4.082 7.867-17.703 14.578-37.316 19.594l-.207-.828c21.113-5.324 34.972-12.867 37.523-20.887v-2.71c-4.082 7.866-17.703 14.577-37.316 19.589l-.207-.832c21.113-5.316 34.972-12.86 37.523-20.883v-2.176c-1.71 2.36-4.223 4.567-7.367 6.618m-16.008 59.007v3.942c13.078-4.766 21.45-10.543 23.375-16.598v-2.73c-3.027 5.843-11.3 11.039-23.375 15.386"/><path style="stroke:none;fill-rule:nonzero;fill:#ffeb00;fill-opacity:1" d="M331.625 253.441v3.825c5.895-2.133 10.824-4.461 14.61-6.938 5.874-3.824 8.788-7.844 8.761-11.68H355v-.574c-3.027 5.832-11.3 11.024-23.375 15.367m74.551-189.183a2.18 2.18 0 0 0-1.543-1.403l-19.192-4.57-9.836-19.113A2.152 2.152 0 0 0 373.68 38a2.146 2.146 0 0 0-1.922 1.172l-9.836 19.113-19.192 4.57a2.165 2.165 0 0 0-1.188 3.457l13.255 16.543-2.094 22.13a2.165 2.165 0 0 0 .93 1.988 2.17 2.17 0 0 0 2.187.148l17.856-8.918h.012l17.851 8.918a2.179 2.179 0 0 0 2.191-.148 2.161 2.161 0 0 0 .926-1.989l-2.09-22.129 13.25-16.543a2.176 2.176 0 0 0 .36-2.054"/><path style="stroke:none;fill-rule:nonzero;fill:#12437c;fill-opacity:1" d="m390.426 82.07 13.703-17.11-20.156-4.804-10.29-19.996-.003.004v-.004l-10.29 19.996-20.16 4.805 13.707 17.11.094.12-2.172 22.996 18.82-9.402h.005l18.82 9.403-2.172-22.997"/><path style="stroke:none;fill-rule:nonzero;fill:#ffeb00;fill-opacity:1" d="m388.633 80.852.097-.122.008-.011 11.575-14.446-16.84-4.011a2.166 2.166 0 0 1-1.422-1.114l-8.371-16.25-8.368 16.25a2.166 2.166 0 0 1-1.421 1.114l-16.84 4.011 11.57 14.446.012.011.094.122c.343.433.507.992.457 1.543l-1.809 19.117 15.34-7.66c.3-.153.633-.227.965-.227.332 0 .664.074.968.227l15.34 7.66-1.808-19.117c-.051-.551.11-1.11.453-1.543M68.469 64.258a2.195 2.195 0 0 1 1.543-1.403l19.191-4.57 9.836-19.113A2.152 2.152 0 0 1 100.965 38a2.16 2.16 0 0 1 1.926 1.172l9.832 19.113 19.191 4.57a2.165 2.165 0 0 1 1.188 3.457l-13.254 16.543 2.093 22.13a2.165 2.165 0 0 1-.93 1.988 2.167 2.167 0 0 1-2.187.148l-17.855-8.918h-.008l-17.856 8.918a2.16 2.16 0 0 1-.964.227 2.158 2.158 0 0 1-2.157-2.364l2.094-22.129-13.25-16.543a2.177 2.177 0 0 1-.36-2.054"/><path style="stroke:none;fill-rule:nonzero;fill:#12437c;fill-opacity:1" d="M84.219 82.07 70.516 64.96l20.156-4.804 10.293-19.996v.004-.004l10.289 19.996 20.16 4.805-13.707 17.11-.094.12 2.176 22.996-18.824-9.402-18.824 9.403 2.175-22.997"/><path style="stroke:none;fill-rule:nonzero;fill:#ffeb00;fill-opacity:1" d="m86.012 80.852-.094-.122-.012-.011-11.57-14.446 16.836-4.011a2.157 2.157 0 0 0 1.422-1.114l8.37-16.25 8.368 16.25c.293.563.805.965 1.422 1.114l16.84 4.011-11.57 14.446-.012.011-.094.122a2.153 2.153 0 0 0-.453 1.543l1.805 19.117-15.336-7.66a2.163 2.163 0 0 0-.97-.227c-.331 0-.663.074-.968.227l-15.34 7.66 1.809-19.117c.05-.551-.11-1.11-.453-1.543"/></svg>