<?xml version="1.0" encoding="UTF-8"?>
<svg xmlns="http://www.w3.org/2000/svg" xmlns:xlink="http://www.w3.org/1999/xlink" width="596pt" height="596pt" viewBox="0 0 596 596" version="1.1">
<g id="surface1">
<path style=" stroke:none;fill-rule:evenodd;fill:rgb(100%,100%,100%);fill-opacity:1;" d="M 0 0.417969 L 595.277344 0.417969 L 595.277344 595.691406 L 0 595.691406 L 0 0.417969 "/>
<path style=" stroke:none;fill-rule:evenodd;fill:rgb(97.999573%,79.199219%,16.499329%);fill-opacity:1;" d="M 297.636719 17.003906 C 452.832031 17.003906 578.691406 142.859375 578.691406 298.054688 C 578.691406 453.25 452.832031 579.109375 297.636719 579.109375 C 142.441406 579.109375 16.585938 453.25 16.585938 298.054688 C 16.585938 142.859375 142.441406 17.003906 297.636719 17.003906 "/>
<path style=" stroke:none;fill-rule:evenodd;fill:rgb(13.699341%,12.199402%,12.5%);fill-opacity:1;" d="M 297.640625 14.589844 C 454.164063 14.589844 581.101563 141.527344 581.101563 298.054688 C 581.101563 454.582031 454.164063 581.519531 297.640625 581.519531 C 141.109375 581.519531 14.171875 454.582031 14.171875 298.054688 C 14.171875 141.527344 141.109375 14.589844 297.640625 14.589844 Z M 297.640625 17.800781 C 452.390625 17.800781 577.890625 143.300781 577.890625 298.054688 C 577.890625 452.808594 452.390625 578.308594 297.640625 578.308594 C 142.882813 578.308594 17.382813 452.808594 17.382813 298.054688 C 17.382813 143.300781 142.882813 17.800781 297.640625 17.800781 "/>
<path style=" stroke:none;fill-rule:evenodd;fill:rgb(13.699341%,12.199402%,12.5%);fill-opacity:1;" d="M 297.636719 85.257813 C 415.140625 85.257813 510.433594 180.550781 510.433594 298.054688 C 510.433594 415.558594 415.140625 510.851563 297.636719 510.851563 C 180.132813 510.851563 84.839844 415.558594 84.839844 298.054688 C 84.839844 180.550781 180.132813 85.257813 297.636719 85.257813 "/>
<path style=" stroke:none;fill-rule:evenodd;fill:rgb(100%,100%,100%);fill-opacity:1;" d="M 374.886719 310.542969 L 374.886719 358.804688 L 378.726563 358.804688 C 381.554688 358.804688 381.859375 357.789063 381.859375 356.289063 L 381.859375 313.335938 C 381.859375 311.351563 381.300781 310.542969 378.757813 310.542969 Z M 268.097656 392.515625 L 178.882813 392.34375 L 146.777344 359.375 L 146.777344 336.832031 L 171.863281 336.832031 L 171.863281 286.523438 L 108.722656 229.148438 L 89.8125 229.195313 L 62.230469 200.625 L 62.230469 178.09375 L 204.566406 178.09375 L 233.476563 209.492188 L 233.550781 229.917969 L 224.398438 229.871094 L 239.257813 243.316406 L 287.09375 208.722656 L 278.753906 200.714844 L 278.753906 178.09375 L 365.914063 178.09375 L 395.695313 198.246094 L 395.765625 230.738281 L 363.371094 230.757813 L 324.632813 258.746094 L 393.71875 258.746094 C 436.839844 258.746094 487.734375 288.046875 487.636719 337.445313 C 487.585938 362.628906 478.269531 379.738281 458.660156 393.035156 C 477.679688 405.835938 489.074219 424.453125 489.003906 449.503906 C 488.941406 472.246094 478.847656 491.375 462.433594 503.84375 C 450.832031 512.660156 435.914063 518.472656 419.855469 518.472656 L 277.855469 518.472656 L 246.101563 485.488281 L 246.101563 460.882813 L 268.097656 460.882813 Z M 374.566406 411.929688 L 374.601563 460.882813 L 378.71875 460.882813 C 380.472656 460.882813 381.511719 460.074219 381.511719 457.71875 L 381.515625 416.421875 C 381.445313 412.617188 380.800781 412.101563 378.34375 411.929688 L 374.566406 411.929688 "/>
<path style=" stroke:none;fill-rule:evenodd;fill:rgb(13.699341%,12.199402%,12.5%);fill-opacity:1;" d="M 370.871094 306.527344 L 370.871094 362.820313 L 378.824219 362.820313 C 383.453125 362.820313 385.871094 361.203125 385.871094 356.429688 L 385.871094 313.222656 C 385.871094 308.121094 383.859375 306.527344 378.847656 306.527344 Z M 272.113281 388.507813 L 180.578125 388.332031 L 150.789063 357.742188 L 150.789063 340.847656 L 175.878906 340.847656 L 175.878906 284.746094 L 110.269531 225.128906 L 91.515625 225.175781 L 66.242188 199.003906 L 66.242188 182.105469 L 202.808594 182.105469 L 229.464844 211.0625 L 229.519531 225.882813 L 213.921875 225.808594 L 238.976563 248.472656 L 293.34375 209.15625 L 282.765625 199.003906 L 282.765625 182.105469 L 364.683594 182.105469 L 391.6875 200.382813 L 391.742188 226.722656 L 362.070313 226.746094 L 312.21875 262.757813 L 393.679688 262.761719 C 431.386719 262.761719 483.742188 288.359375 483.621094 337.472656 C 483.546875 368.109375 469.269531 381.300781 451.929688 392.78125 C 457.179688 398.472656 484.800781 409.792969 484.988281 449.511719 C 485.179688 489.285156 451.75 514.457031 419.808594 514.457031 L 279.5625 514.457031 L 250.117188 483.867188 L 250.117188 464.894531 L 272.113281 464.894531 Z M 370.527344 407.914063 L 370.527344 464.894531 L 378.832031 464.894531 C 383.867188 464.894531 385.527344 462.824219 385.527344 457.800781 L 385.53125 416.296875 C 385.53125 411.328125 383.851563 407.914063 378.515625 407.914063 L 370.527344 407.914063 "/>
<path style=" stroke:none;fill-rule:evenodd;fill:rgb(97.999573%,79.199219%,16.499329%);fill-opacity:1;" d="M 342.800781 279.488281 L 342.800781 364.425781 L 378.886719 364.425781 C 385.886719 364.425781 387.480469 360.375 387.480469 356.472656 L 387.480469 287.734375 C 387.480469 281.355469 384.230469 279.488281 378.886719 279.488281 Z M 342.800781 380.1875 L 342.800781 466.503906 L 378.886719 466.503906 C 384.671875 466.503906 387.480469 463.640625 387.480469 457.855469 L 387.480469 390.15625 C 387.480469 383.699219 384.652344 380.1875 378.886719 380.1875 Z M 273.71875 466.503906 L 273.71875 279.488281 L 257.222656 279.488281 L 257.222656 264.363281 L 393.664063 264.367188 C 430 264.367188 457.46875 284.777344 458.625 322.894531 C 459.222656 342.601563 447.726563 363.148438 430.078125 374.164063 C 446.929688 385.414063 459.445313 396.488281 459.324219 425.777344 C 459.179688 461.386719 426.820313 482.261719 402.257813 482.261719 L 251.722656 482.261719 L 251.722656 466.503906 L 273.71875 466.503906 "/>
<path style=" stroke:none;fill-rule:evenodd;fill:rgb(97.999573%,79.199219%,16.499329%);fill-opacity:1;" d="M 244.847656 265.183594 L 244.847656 342.453125 L 260.660156 342.453125 L 260.660156 356.136719 L 152.398438 356.136719 L 152.398438 342.453125 L 177.488281 342.453125 L 177.488281 281.136719 L 100.589844 211.578125 L 84.914063 197.398438 L 67.851563 197.398438 L 67.851563 183.714844 L 201.199219 183.714844 L 201.199219 197.398438 L 180.117188 197.398438 L 238.863281 250.535156 L 312.148438 197.398438 L 284.371094 197.398438 L 284.371094 183.714844 L 363.078125 183.714844 L 363.078125 197.398438 L 338.332031 197.398438 L 244.847656 265.183594 "/>
<path style=" stroke:none;fill-rule:evenodd;fill:rgb(97.999573%,79.199219%,16.499329%);fill-opacity:1;" d="M 297.636719 102.210938 L 304.683594 123.910156 L 327.503906 123.910156 L 309.039063 137.320313 L 316.09375 159.019531 L 297.636719 145.609375 L 279.175781 159.019531 L 286.226563 137.320313 L 267.765625 123.910156 L 290.585938 123.910156 L 297.636719 102.210938 "/>
<path style=" stroke:none;fill-rule:nonzero;fill:rgb(13.699341%,12.199402%,12.5%);fill-opacity:1;" d="M 254.769531 559.386719 L 249.183594 558.425781 L 252.816406 537.183594 C 250.453125 538.707031 247.902344 539.40625 244.800781 539.371094 L 245.65625 534.40625 C 249.789063 534.28125 254.050781 531.90625 255.164063 529.949219 L 259.699219 530.730469 L 254.769531 559.386719 "/>
<path style=" stroke:none;fill-rule:nonzero;fill:rgb(13.699341%,12.199402%,12.5%);fill-opacity:1;" d="M 298.394531 555.785156 L 304.1875 555.171875 C 304.601563 557.191406 307.246094 558.265625 309.945313 557.945313 C 315.394531 557.289063 315.761719 553.210938 315.910156 549.574219 C 314.171875 551.269531 311.136719 552.175781 308.421875 552.285156 C 305.464844 552.410156 302.863281 551.632813 300.640625 549.96875 C 298.414063 548.300781 297.234375 546.0625 297.109375 543.246094 C 296.976563 540.308594 298.007813 537.898438 300.195313 536.003906 C 302.371094 534.117188 304.6875 533.097656 308.1875 532.953125 C 317.539063 532.566406 321 538.777344 321.378906 547.195313 C 321.777344 556.128906 319.078125 562.144531 309.339844 562.546875 C 304.359375 562.753906 299.765625 560.097656 298.394531 555.785156 Z M 315.066406 542.8125 C 314.902344 539.164063 312.117188 537.425781 308.601563 537.566406 C 305.109375 537.707031 302.867188 539.695313 303.03125 542.953125 C 303.195313 546.207031 305.78125 548.316406 309.464844 548.167969 C 312.6875 548.039063 315.214844 546.203125 315.066406 542.8125 "/>
<path style=" stroke:none;fill-rule:nonzero;fill:rgb(13.699341%,12.199402%,12.5%);fill-opacity:1;" d="M 273.878906 546.070313 C 272.042969 545.445313 270.710938 544.59375 269.886719 543.527344 C 269.054688 542.460938 268.648438 541.292969 268.660156 540.03125 C 268.675781 537.875 269.648438 536.097656 271.59375 534.710938 C 273.539063 533.324219 276.296875 532.640625 279.855469 532.679688 C 283.378906 532.714844 286.113281 533.453125 288.046875 534.878906 C 289.992188 536.308594 290.953125 538.105469 290.9375 540.261719 C 290.929688 541.601563 290.46875 542.792969 289.5625 543.832031 C 288.664063 544.867188 287.398438 545.65625 285.777344 546.195313 C 287.828125 546.855469 289.386719 547.816406 290.449219 549.066406 C 291.511719 550.3125 292.039063 551.746094 292.023438 553.363281 C 292.007813 556.039063 290.902344 558.195313 288.703125 559.847656 C 286.503906 561.496094 283.59375 562.300781 279.964844 562.261719 C 276.585938 562.226563 273.78125 561.511719 271.546875 560.105469 C 268.902344 558.441406 267.597656 556.191406 267.621094 553.347656 C 267.632813 551.78125 268.144531 550.351563 269.144531 549.046875 C 270.148438 547.75 271.730469 546.757813 273.878906 546.070313 Z M 274.140625 540.140625 C 274.113281 543.105469 277.386719 544.027344 279.769531 544.054688 C 282.136719 544.082031 285.296875 543.171875 285.320313 540.300781 C 285.339844 537.519531 282.160156 536.667969 279.890625 536.640625 C 277.601563 536.613281 274.160156 537.339844 274.140625 540.140625 Z M 273.035156 553.0625 C 273.007813 556.855469 276.589844 557.941406 279.867188 557.980469 C 283.050781 558.015625 286.304688 556.628906 286.332031 553.144531 C 286.359375 549.78125 282.742188 548.53125 279.832031 548.5 C 276.949219 548.464844 273.0625 549.660156 273.035156 553.0625 "/>
<path style=" stroke:none;fill-rule:nonzero;fill:rgb(13.699341%,12.199402%,12.5%);fill-opacity:1;" d="M 333.78125 543.390625 C 331.863281 543.09375 330.40625 542.488281 329.410156 541.582031 C 328.40625 540.675781 327.800781 539.597656 327.589844 538.351563 C 327.230469 536.226563 327.878906 534.308594 329.550781 532.601563 C 331.226563 530.894531 333.816406 529.746094 337.328125 529.160156 C 340.808594 528.582031 343.628906 528.828125 345.78125 529.898438 C 347.945313 530.964844 349.207031 532.566406 349.566406 534.691406 C 349.789063 536.015625 349.546875 537.265625 348.835938 538.449219 C 348.132813 539.625 347.023438 540.621094 345.519531 541.433594 C 347.65625 541.726563 349.355469 542.398438 350.621094 543.445313 C 351.886719 544.484375 352.652344 545.804688 352.925781 547.402344 C 353.371094 550.039063 352.660156 552.355469 350.78125 554.363281 C 348.90625 556.371094 346.183594 557.671875 342.601563 558.269531 C 339.269531 558.824219 336.382813 558.609375 333.9375 557.617188 C 331.046875 556.4375 329.363281 554.449219 328.890625 551.644531 C 328.628906 550.105469 328.882813 548.605469 329.644531 547.148438 C 330.40625 545.695313 331.785156 544.441406 333.78125 543.390625 Z M 333.003906 537.503906 C 333.496094 540.425781 336.878906 540.765625 339.230469 540.378906 C 341.566406 539.992188 344.519531 538.542969 344.039063 535.710938 C 343.578125 532.96875 340.296875 532.683594 338.058594 533.054688 C 335.800781 533.425781 332.539063 534.746094 333.003906 537.503906 Z M 334.171875 550.421875 C 334.808594 554.160156 338.523438 554.605469 341.757813 554.070313 C 344.898438 553.550781 347.863281 551.617188 347.28125 548.179688 C 346.71875 544.863281 342.941406 544.265625 340.066406 544.738281 C 337.226563 545.210938 333.605469 547.066406 334.171875 550.421875 "/>
<path style=" stroke:none;fill-rule:nonzero;fill:rgb(13.699341%,12.199402%,12.5%);fill-opacity:1;" d="M 93.078125 138.492188 L 87.34375 145.421875 L 92.164063 149.410156 L 97.898438 142.488281 C 99.191406 140.925781 99.898438 139.710938 100.019531 138.828125 C 100.140625 137.953125 99.769531 137.152344 98.894531 136.429688 C 98.03125 135.714844 97.148438 135.511719 96.246094 135.820313 C 95.347656 136.140625 94.292969 137.023438 93.078125 138.492188 Z M 101.527344 157.171875 L 107.984375 149.375 C 109.296875 147.792969 109.996094 146.5625 110.089844 145.671875 C 110.179688 144.792969 109.753906 143.957031 108.800781 143.171875 C 107.851563 142.382813 106.902344 142.132813 105.957031 142.414063 C 105.015625 142.699219 103.941406 143.566406 102.734375 145.023438 L 96.277344 152.820313 Z M 101.332031 166.902344 L 77.941406 147.527344 L 90.464844 132.40625 C 92.640625 129.78125 94.757813 128.214844 96.820313 127.714844 C 98.882813 127.210938 100.886719 127.757813 102.824219 129.363281 C 103.964844 130.308594 104.746094 131.40625 105.171875 132.664063 C 105.59375 133.921875 105.636719 135.296875 105.316406 136.785156 C 106.863281 135.796875 108.410156 135.355469 109.957031 135.480469 C 111.5 135.605469 112.996094 136.269531 114.453125 137.476563 C 116.527344 139.195313 117.605469 141.222656 117.671875 143.554688 C 117.738281 145.886719 116.789063 148.242188 114.828125 150.609375 L 101.332031 166.902344 "/>
<path style=" stroke:none;fill-rule:nonzero;fill:rgb(13.699341%,12.199402%,12.5%);fill-opacity:1;" d="M 118.554688 131.460938 L 124.242188 126.15625 L 124.441406 126.367188 C 125.605469 127.617188 127.042969 128.058594 128.757813 127.6875 C 130.472656 127.316406 132.382813 126.148438 134.484375 124.1875 C 136.105469 122.675781 137.136719 121.273438 137.570313 119.976563 C 138.011719 118.675781 137.824219 117.59375 137.011719 116.722656 C 136.328125 115.988281 135.539063 115.71875 134.644531 115.910156 C 133.746094 116.097656 132.339844 116.921875 130.417969 118.378906 L 126.105469 121.667969 C 122.9375 124.058594 120.210938 125.375 117.90625 125.632813 C 115.609375 125.890625 113.601563 125.09375 111.882813 123.25 C 109.851563 121.070313 109.171875 118.378906 109.847656 115.179688 C 110.527344 111.984375 112.476563 108.882813 115.703125 105.875 C 119.167969 102.644531 122.476563 100.765625 125.640625 100.230469 C 128.804688 99.695313 131.425781 100.546875 133.519531 102.792969 L 133.6875 102.972656 L 128.160156 108.125 C 126.996094 107.132813 125.703125 106.785156 124.285156 107.082031 C 122.867188 107.378906 121.3125 108.3125 119.617188 109.890625 C 118.054688 111.347656 117.050781 112.695313 116.605469 113.945313 C 116.160156 115.195313 116.316406 116.226563 117.074219 117.035156 C 117.679688 117.6875 118.371094 117.925781 119.160156 117.753906 C 119.949219 117.585938 121.429688 116.683594 123.617188 115.054688 L 128.152344 111.640625 C 131.289063 109.300781 134.011719 108.035156 136.335938 107.84375 C 138.660156 107.652344 140.714844 108.523438 142.507813 110.445313 C 144.8125 112.917969 145.5625 115.738281 144.757813 118.894531 C 143.949219 122.054688 141.609375 125.433594 137.742188 129.035156 C 134.0625 132.472656 130.597656 134.4375 127.355469 134.9375 C 124.105469 135.4375 121.320313 134.429688 118.988281 131.929688 L 118.554688 131.460938 "/>
<path style=" stroke:none;fill-rule:nonzero;fill:rgb(13.699341%,12.199402%,12.5%);fill-opacity:1;" d="M 176.636719 86.144531 C 178.480469 89.5 178.765625 93.023438 177.480469 96.714844 C 176.195313 100.402344 173.539063 103.660156 169.511719 106.476563 C 164.972656 109.65625 160.515625 111.007813 156.148438 110.527344 C 151.785156 110.050781 148.214844 107.820313 145.425781 103.839844 C 142.640625 99.859375 141.761719 95.734375 142.800781 91.464844 C 143.839844 87.195313 146.632813 83.46875 151.175781 80.285156 C 155.144531 77.507813 159.054688 76.105469 162.898438 76.074219 C 166.75 76.046875 169.847656 77.367188 172.210938 80.046875 L 165.414063 84.804688 C 163.933594 83.574219 162.296875 83.007813 160.5 83.109375 C 158.707031 83.210938 156.796875 83.976563 154.753906 85.40625 C 152.265625 87.148438 150.792969 89.238281 150.351563 91.671875 C 149.90625 94.105469 150.550781 96.554688 152.289063 99.035156 C 154.015625 101.5 156.09375 102.941406 158.523438 103.355469 C 160.949219 103.769531 163.414063 103.097656 165.917969 101.34375 C 168.082031 99.828125 169.503906 98.15625 170.191406 96.324219 C 170.871094 94.496094 170.746094 92.691406 169.808594 90.925781 L 176.636719 86.144531 "/>
<path style=" stroke:none;fill-rule:nonzero;fill:rgb(13.699341%,12.199402%,12.5%);fill-opacity:1;" d="M 212.332031 84.441406 L 208.511719 72.058594 L 190.699219 59.328125 L 199.941406 56.476563 L 210.386719 64.628906 L 214.351563 52.03125 L 223.554688 49.195313 L 215.769531 69.816406 L 219.59375 82.203125 L 212.332031 84.441406 "/>
<path style=" stroke:none;fill-rule:nonzero;fill:rgb(13.699341%,12.199402%,12.5%);fill-opacity:1;" d="M 247.179688 68.808594 C 250.144531 68.121094 252.28125 66.742188 253.589844 64.664063 C 254.902344 62.585938 255.222656 60.074219 254.546875 57.144531 C 253.863281 54.183594 252.472656 52.054688 250.382813 50.757813 C 248.289063 49.464844 245.769531 49.160156 242.804688 49.847656 C 239.847656 50.527344 237.699219 51.914063 236.375 54.007813 C 235.050781 56.097656 234.734375 58.605469 235.414063 61.558594 C 236.089844 64.488281 237.480469 66.609375 239.574219 67.898438 C 241.671875 69.191406 244.210938 69.492188 247.179688 68.808594 Z M 227.253906 63.441406 C 226.160156 58.710938 226.890625 54.554688 229.453125 50.984375 C 232.019531 47.414063 235.996094 45.007813 241.398438 43.761719 C 246.800781 42.511719 251.429688 42.933594 255.285156 45.019531 C 259.144531 47.109375 261.613281 50.523438 262.707031 55.257813 C 263.800781 59.992188 263.074219 64.136719 260.523438 67.699219 C 257.96875 71.257813 253.992188 73.664063 248.589844 74.910156 C 243.1875 76.160156 238.558594 75.738281 234.691406 73.660156 C 230.820313 71.582031 228.34375 68.175781 227.253906 63.441406 "/>
<path style=" stroke:none;fill-rule:nonzero;fill:rgb(13.699341%,12.199402%,12.5%);fill-opacity:1;" d="M 273.414063 39.925781 L 274.550781 56.214844 C 274.761719 59.191406 275.542969 61.316406 276.894531 62.578125 C 278.242188 63.839844 280.300781 64.378906 283.078125 64.183594 C 284.554688 64.078125 285.824219 63.78125 286.886719 63.289063 C 287.949219 62.796875 288.785156 62.117188 289.402344 61.246094 C 289.886719 60.570313 290.214844 59.8125 290.386719 58.972656 C 290.550781 58.121094 290.574219 56.835938 290.453125 55.101563 L 289.316406 38.816406 L 296.851563 38.289063 L 298.046875 55.371094 C 298.367188 59.964844 297.296875 63.539063 294.839844 66.09375 C 292.386719 68.65625 288.613281 70.113281 283.515625 70.46875 C 278.433594 70.824219 274.503906 69.90625 271.714844 67.710938 C 268.929688 65.523438 267.371094 62.132813 267.050781 57.539063 L 265.855469 40.453125 L 273.414063 39.925781 "/>
<path style=" stroke:none;fill-rule:nonzero;fill:rgb(13.699341%,12.199402%,12.5%);fill-opacity:1;" d="M 301.152344 68.347656 L 303.269531 38.050781 L 312.59375 38.699219 L 326.238281 61.128906 L 327.730469 39.757813 L 335.023438 40.269531 L 332.90625 70.570313 L 323.6875 69.925781 L 309.910156 47.28125 L 308.402344 68.855469 L 301.152344 68.347656 "/>
<path style=" stroke:none;fill-rule:nonzero;fill:rgb(13.699341%,12.199402%,12.5%);fill-opacity:1;" d="M 350.902344 76.234375 C 348.621094 75.707031 346.535156 74.886719 344.640625 73.773438 C 342.746094 72.667969 341.179688 71.347656 339.949219 69.828125 C 338.429688 67.929688 337.4375 65.902344 336.980469 63.738281 C 336.515625 61.574219 336.578125 59.214844 337.167969 56.667969 C 338.261719 51.933594 340.738281 48.519531 344.609375 46.4375 C 348.476563 44.351563 353.113281 43.933594 358.515625 45.179688 C 363.074219 46.230469 366.640625 48.128906 369.214844 50.855469 C 371.789063 53.597656 372.917969 56.65625 372.597656 60.035156 L 364.53125 58.171875 C 364.230469 56.363281 363.46875 54.890625 362.238281 53.742188 C 361.007813 52.597656 359.289063 51.769531 357.105469 51.261719 C 354.148438 50.578125 351.609375 50.886719 349.503906 52.183594 C 347.398438 53.484375 346.011719 55.601563 345.328125 58.550781 C 344.652344 61.480469 344.972656 63.996094 346.289063 66.074219 C 347.609375 68.15625 349.757813 69.539063 352.726563 70.222656 C 354.753906 70.691406 358.691406 71.121094 362.835938 70.785156 L 363.613281 67.523438 L 353.683594 65.257813 L 355.042969 59.355469 L 371.769531 63.261719 L 368.542969 75.980469 C 366.296875 76.613281 363.664063 76.976563 360.746094 77.101563 C 357.4375 77.242188 353.8125 76.90625 350.902344 76.234375 "/>
<path style=" stroke:none;fill-rule:nonzero;fill:rgb(13.699341%,12.199402%,12.5%);fill-opacity:1;" d="M 411.082031 71.226563 L 403 67.285156 L 400.257813 72.910156 L 408.339844 76.855469 C 410.160156 77.742188 411.507813 78.144531 412.394531 78.050781 C 413.273438 77.964844 413.964844 77.414063 414.460938 76.394531 C 414.953125 75.382813 414.941406 74.480469 414.425781 73.679688 C 413.90625 72.878906 412.796875 72.0625 411.082031 71.226563 Z M 394.925781 83.84375 L 404.023438 88.28125 C 405.867188 89.179688 407.230469 89.570313 408.113281 89.449219 C 408.992188 89.332031 409.703125 88.71875 410.246094 87.609375 C 410.785156 86.503906 410.804688 85.519531 410.308594 84.667969 C 409.808594 83.816406 408.714844 82.980469 407.011719 82.148438 L 397.914063 77.710938 Z M 385.421875 85.945313 L 398.734375 58.644531 L 416.382813 67.253906 C 419.445313 68.746094 421.46875 70.4375 422.441406 72.324219 C 423.417969 74.210938 423.355469 76.285156 422.253906 78.546875 C 421.605469 79.878906 420.71875 80.894531 419.601563 81.605469 C 418.476563 82.3125 417.148438 82.679688 415.628906 82.71875 C 416.957031 83.988281 417.746094 85.390625 417.992188 86.917969 C 418.234375 88.449219 417.941406 90.0625 417.109375 91.761719 C 415.929688 94.183594 414.214844 95.707031 411.964844 96.316406 C 409.714844 96.9375 407.199219 96.570313 404.433594 95.21875 L 385.421875 85.945313 "/>
<path style=" stroke:none;fill-rule:nonzero;fill:rgb(13.699341%,12.199402%,12.5%);fill-opacity:1;" d="M 434.5625 107.121094 C 437.054688 108.867188 439.507813 109.53125 441.929688 109.113281 C 444.351563 108.699219 446.433594 107.253906 448.160156 104.789063 C 449.898438 102.304688 450.554688 99.84375 450.117188 97.425781 C 449.679688 95.003906 448.214844 92.925781 445.722656 91.183594 C 443.238281 89.441406 440.769531 88.773438 438.332031 89.1875 C 435.894531 89.605469 433.8125 91.046875 432.074219 93.527344 C 430.351563 95.992188 429.703125 98.441406 430.148438 100.863281 C 430.589844 103.285156 432.066406 105.375 434.5625 107.121094 Z M 425.214844 88.726563 C 428 84.746094 431.574219 82.507813 435.945313 82.023438 C 440.3125 81.539063 444.765625 82.886719 449.304688 86.066406 C 453.847656 89.246094 456.632813 92.96875 457.664063 97.230469 C 458.691406 101.492188 457.808594 105.617188 455.019531 109.59375 C 452.234375 113.574219 448.667969 115.808594 444.3125 116.296875 C 439.960938 116.78125 435.511719 115.4375 430.96875 112.257813 C 426.425781 109.074219 423.640625 105.355469 422.597656 101.089844 C 421.550781 96.824219 422.425781 92.703125 425.214844 88.726563 "/>
<path style=" stroke:none;fill-rule:nonzero;fill:rgb(13.699341%,12.199402%,12.5%);fill-opacity:1;" d="M 453.824219 129.113281 L 462.664063 119.632813 L 464.835938 97.847656 L 471.910156 104.445313 L 470.042969 117.5625 L 482.9375 114.730469 L 489.984375 121.296875 L 468.222656 124.8125 L 459.382813 134.292969 L 453.824219 129.113281 "/>
<path style=" stroke:none;fill-rule:nonzero;fill:rgb(13.699341%,12.199402%,12.5%);fill-opacity:1;" d="M 479.6875 136.953125 L 484.582031 143 L 484.359375 143.179688 C 483.03125 144.257813 482.488281 145.660156 482.742188 147.394531 C 482.992188 149.132813 484.023438 151.121094 485.832031 153.351563 C 487.226563 155.074219 488.554688 156.199219 489.820313 156.726563 C 491.085938 157.253906 492.179688 157.144531 493.105469 156.394531 C 493.882813 155.765625 494.207031 154.996094 494.078125 154.089844 C 493.953125 153.179688 493.230469 151.71875 491.914063 149.699219 L 488.929688 145.171875 C 486.769531 141.84375 485.644531 139.027344 485.546875 136.714844 C 485.453125 134.402344 486.382813 132.460938 488.347656 130.871094 C 490.660156 128.996094 493.394531 128.503906 496.539063 129.402344 C 499.679688 130.308594 502.636719 132.46875 505.410156 135.894531 C 508.394531 139.574219 510.035156 143.007813 510.347656 146.199219 C 510.660156 149.394531 509.628906 151.953125 507.242188 153.882813 L 507.054688 154.039063 L 502.296875 148.164063 C 503.371094 147.074219 503.804688 145.808594 503.609375 144.371094 C 503.410156 142.933594 502.585938 141.316406 501.132813 139.519531 C 499.785156 137.859375 498.511719 136.761719 497.296875 136.230469 C 496.082031 135.699219 495.039063 135.785156 494.179688 136.480469 C 493.488281 137.042969 493.203125 137.714844 493.316406 138.515625 C 493.433594 139.316406 494.230469 140.851563 495.703125 143.152344 L 498.789063 147.910156 C 500.90625 151.203125 501.976563 154.007813 502.007813 156.339844 C 502.035156 158.671875 501.023438 160.660156 498.980469 162.316406 C 496.355469 164.441406 493.492188 164.992188 490.398438 163.96875 C 487.300781 162.941406 484.09375 160.371094 480.765625 156.265625 C 477.597656 152.351563 475.878906 148.757813 475.605469 145.492188 C 475.335938 142.21875 476.53125 139.507813 479.191406 137.355469 L 479.6875 136.953125 "/>
</g>
</svg>
