<svg xmlns="http://www.w3.org/2000/svg" width="596pt" height="596pt" viewBox="0 0 596 596"><path style="stroke:none;fill-rule:evenodd;fill:#fff;fill-opacity:1" d="M0 .418h595.277v595.273H0V.418"/><path style="stroke:none;fill-rule:evenodd;fill:#faca2a;fill-opacity:1" d="M297.637 17.004c155.195 0 281.054 125.855 281.054 281.05 0 155.196-125.859 281.055-281.054 281.055-155.196 0-281.051-125.859-281.051-281.054 0-155.196 125.855-281.051 281.05-281.051"/><path style="stroke:none;fill-rule:evenodd;fill:#231f20;fill-opacity:1" d="M297.64 14.59c156.524 0 283.462 126.937 283.462 283.465 0 156.527-126.938 283.465-283.461 283.465-156.532 0-283.47-126.938-283.47-283.465 0-156.528 126.938-283.465 283.47-283.465zm0 3.21c154.75 0 280.25 125.5 280.25 280.255 0 154.754-125.5 280.254-280.25 280.254-154.757 0-280.257-125.5-280.257-280.254C17.383 143.3 142.883 17.8 297.64 17.8"/><path style="stroke:none;fill-rule:evenodd;fill:#231f20;fill-opacity:1" d="M297.637 85.258c117.504 0 212.797 95.293 212.797 212.797 0 117.504-95.293 212.797-212.797 212.797-117.504 0-212.797-95.293-212.797-212.797 0-117.504 95.293-212.797 212.797-212.797"/><path style="stroke:none;fill-rule:evenodd;fill:#fff;fill-opacity:1" d="M374.887 310.543v48.262h3.84c2.828 0 3.132-1.016 3.132-2.516v-42.953c0-1.984-.558-2.793-3.101-2.793zm-106.79 81.973-89.214-.172-32.106-32.969v-22.543h25.086v-50.309l-63.14-57.375-18.91.047-27.583-28.57v-22.531h142.336l28.91 31.398.075 20.426-9.153-.047 14.86 13.445 47.836-34.593-8.34-8.008v-22.621h87.16l29.781 20.152.07 32.492-32.394.02-38.738 27.988h69.086c43.12 0 94.015 29.3 93.918 78.7-.051 25.183-9.367 42.292-28.977 55.59 19.02 12.8 30.414 31.417 30.344 56.468-.063 22.742-10.156 41.871-26.57 54.34-11.602 8.816-26.52 14.629-42.579 14.629h-142l-31.753-32.985v-24.605h21.996zm106.47 19.414.035 48.953h4.117c1.754 0 2.793-.809 2.793-3.164l.004-41.297c-.07-3.805-.715-4.32-3.172-4.492h-3.778"/><path style="stroke:none;fill-rule:evenodd;fill:#231f20;fill-opacity:1" d="M370.871 306.527v56.293h7.953c4.63 0 7.047-1.617 7.047-6.39v-43.207c0-5.102-2.012-6.696-7.023-6.696zm-98.758 81.98-91.535-.175-29.789-30.59v-16.894h25.09v-56.102l-65.61-59.617-18.753.047-25.274-26.172v-16.899H202.81l26.656 28.958.055 14.82-15.598-.074 25.055 22.664 54.367-39.317-10.578-10.152v-16.899h81.918l27.003 18.278.055 26.34-29.672.023-49.851 36.012 81.46.004c37.708 0 90.063 25.597 89.942 74.71-.074 30.637-14.351 43.829-31.691 55.31 5.25 5.69 32.87 17.011 33.058 56.73.192 39.773-33.238 64.945-65.18 64.945H279.564l-29.446-30.59v-18.972h21.996zm98.414 19.407v56.98h8.305c5.035 0 6.695-2.07 6.695-7.093l.004-41.504c0-4.969-1.68-8.383-7.015-8.383h-7.989"/><path style="stroke:none;fill-rule:evenodd;fill:#faca2a;fill-opacity:1" d="M342.8 279.488v84.938h36.087c7 0 8.593-4.051 8.593-7.953v-68.739c0-6.379-3.25-8.246-8.593-8.246zm0 100.7v86.316h36.087c5.785 0 8.593-2.863 8.593-8.649v-67.699c0-6.457-2.828-9.969-8.593-9.969zm-69.081 86.316V279.488h-16.496v-15.125l136.441.004c36.336 0 63.805 20.41 64.961 58.528.598 19.707-10.898 40.253-28.547 51.27 16.852 11.25 29.367 22.323 29.246 51.612-.144 35.61-32.504 56.485-57.066 56.485H251.723v-15.758h21.996"/><path style="stroke:none;fill-rule:evenodd;fill:#faca2a;fill-opacity:1" d="M244.848 265.184v77.27h15.812v13.683H152.398v-13.684h25.09v-61.316l-76.898-69.559-15.676-14.18H67.852v-13.683h133.347v13.683h-21.082l58.746 53.137 73.285-53.137h-27.777v-13.683h78.707v13.683h-24.746l-93.484 67.786m52.789-162.974 7.047 21.7h22.82l-18.465 13.41 7.055 21.7-18.457-13.41-18.461 13.41 7.05-21.7-18.46-13.41h22.82l7.05-21.7"/><path style="stroke:none;fill-rule:nonzero;fill:#231f20;fill-opacity:1" d="m254.77 559.387-5.586-.961 3.632-21.242c-2.363 1.523-4.914 2.222-8.015 2.187l.855-4.965c4.133-.125 8.395-2.5 9.508-4.457l4.535.781-4.93 28.657m43.626-3.602 5.793-.613c.414 2.02 3.058 3.094 5.757 2.773 5.45-.656 5.817-4.734 5.965-8.37-1.738 1.695-4.773 2.6-7.488 2.71-2.957.125-5.559-.652-7.781-2.316-2.227-1.668-3.407-3.907-3.532-6.723-.132-2.937.899-5.348 3.086-7.242 2.176-1.887 4.493-2.906 7.993-3.05 9.351-.388 12.812 5.823 13.19 14.241.4 8.934-2.3 14.95-12.038 15.352-4.98.207-9.574-2.45-10.945-6.762zm16.671-12.972c-.164-3.649-2.949-5.387-6.464-5.247-3.493.141-5.735 2.13-5.57 5.387.163 3.254 2.75 5.363 6.433 5.215 3.223-.129 5.75-1.965 5.601-5.356m-41.187 3.258c-1.836-.625-3.168-1.476-3.992-2.543-.832-1.066-1.239-2.234-1.227-3.496.016-2.156.988-3.933 2.934-5.32 1.945-1.387 4.703-2.07 8.261-2.031 3.524.035 6.258.773 8.192 2.199 1.945 1.43 2.906 3.226 2.89 5.383-.007 1.34-.468 2.531-1.375 3.57-.898 1.035-2.164 1.824-3.785 2.363 2.051.66 3.61 1.621 4.672 2.871 1.063 1.246 1.59 2.68 1.574 4.297-.015 2.676-1.12 4.832-3.32 6.485-2.2 1.648-5.11 2.453-8.738 2.414-3.38-.035-6.184-.75-8.418-2.157-2.645-1.664-3.95-3.914-3.926-6.757.012-1.567.524-2.996 1.524-4.301 1.003-1.297 2.585-2.29 4.734-2.977zm.262-5.93c-.028 2.965 3.246 3.887 5.629 3.915 2.367.027 5.527-.883 5.55-3.754.02-2.781-3.16-3.633-5.43-3.66-2.288-.028-5.73.699-5.75 3.5zm-1.106 12.923c-.027 3.792 3.555 4.878 6.832 4.917 3.184.036 6.438-1.351 6.465-4.835.027-3.364-3.59-4.614-6.5-4.645-2.883-.035-6.77 1.16-6.797 4.563m60.746-9.673c-1.918-.296-3.375-.902-4.37-1.808-1.005-.906-1.61-1.984-1.821-3.23-.36-2.125.289-4.043 1.96-5.75 1.677-1.707 4.266-2.856 7.778-3.442 3.48-.578 6.3-.332 8.453.738 2.164 1.067 3.426 2.668 3.785 4.793.223 1.325-.02 2.575-.73 3.758-.703 1.176-1.813 2.172-3.316 2.985 2.136.293 3.835.964 5.101 2.011 1.266 1.04 2.031 2.36 2.305 3.957.445 2.637-.266 4.953-2.145 6.961-1.875 2.008-4.597 3.309-8.18 3.907-3.331.554-6.218.34-8.663-.653-2.891-1.18-4.575-3.168-5.047-5.972-.262-1.54-.008-3.04.754-4.497.761-1.453 2.14-2.707 4.136-3.757zm-.777-5.886c.492 2.922 3.875 3.262 6.226 2.875 2.336-.387 5.29-1.836 4.81-4.668-.462-2.742-3.743-3.027-5.981-2.656-2.258.37-5.52 1.691-5.055 4.449zm1.168 12.918c.637 3.738 4.351 4.183 7.586 3.648 3.14-.52 6.105-2.453 5.523-5.89-.562-3.317-4.34-3.914-7.215-3.442-2.84.473-6.46 2.328-5.894 5.684M93.078 138.492l-5.734 6.93 4.82 3.988 5.734-6.922c1.293-1.562 2-2.777 2.122-3.66.12-.875-.25-1.676-1.125-2.398-.864-.715-1.747-.918-2.649-.61-.898.32-1.953 1.203-3.168 2.672zm8.45 18.68 6.456-7.797c1.313-1.582 2.012-2.813 2.106-3.703.09-.879-.336-1.715-1.29-2.5-.948-.79-1.898-1.04-2.843-.758-.941.285-2.016 1.152-3.223 2.61l-6.457 7.796zm-.196 9.73-23.39-19.375 12.523-15.12c2.176-2.626 4.293-4.192 6.355-4.692 2.063-.504 4.067.043 6.004 1.648 1.14.946 1.922 2.043 2.348 3.301.422 1.258.465 2.633.144 4.121 1.547-.988 3.094-1.43 4.641-1.305 1.543.125 3.04.79 4.496 1.997 2.074 1.718 3.152 3.746 3.219 6.078.066 2.332-.883 4.687-2.844 7.054l-13.496 16.293m17.223-35.442 5.687-5.304.2.211c1.163 1.25 2.601 1.692 4.316 1.32 1.715-.37 3.625-1.539 5.726-3.5 1.621-1.511 2.653-2.914 3.086-4.21.442-1.301.254-2.383-.558-3.254-.684-.735-1.473-1.004-2.367-.813-.899.188-2.305 1.012-4.227 2.469l-4.313 3.289c-3.168 2.39-5.894 3.707-8.199 3.965-2.297.258-4.304-.54-6.023-2.383-2.031-2.18-2.711-4.871-2.035-8.07.68-3.196 2.629-6.297 5.855-9.305 3.465-3.23 6.774-5.11 9.938-5.645 3.164-.535 5.785.317 7.879 2.563l.167.18-5.527 5.152c-1.164-.992-2.457-1.34-3.875-1.043-1.418.297-2.972 1.23-4.668 2.809-1.562 1.457-2.566 2.804-3.012 4.054-.445 1.25-.289 2.282.47 3.09.605.653 1.296.89 2.085.719.79-.168 2.27-1.07 4.457-2.7l4.535-3.413c3.137-2.34 5.86-3.606 8.184-3.797 2.324-.192 4.379.68 6.172 2.601 2.304 2.473 3.054 5.293 2.25 8.45-.809 3.16-3.149 6.539-7.016 10.14-3.68 3.438-7.144 5.403-10.387 5.903-3.25.5-6.035-.508-8.367-3.008l-.433-.47m58.082-45.315c1.843 3.355 2.129 6.878.843 10.57-1.285 3.687-3.94 6.945-7.968 9.762-4.54 3.18-8.996 4.53-13.364 4.05-4.363-.476-7.933-2.707-10.722-6.687-2.785-3.98-3.664-8.106-2.625-12.375 1.039-4.27 3.832-7.996 8.375-11.18 3.969-2.777 7.879-4.18 11.722-4.21 3.852-.028 6.95 1.292 9.313 3.972l-6.797 4.758c-1.48-1.23-3.117-1.797-4.914-1.696-1.793.102-3.703.868-5.746 2.297-2.488 1.742-3.961 3.832-4.402 6.266-.446 2.433.199 4.883 1.937 7.363 1.727 2.465 3.805 3.906 6.234 4.32 2.426.415 4.891-.257 7.395-2.011 2.164-1.516 3.586-3.188 4.273-5.02.68-1.828.555-3.633-.382-5.398l6.828-4.781m35.695-1.704-3.82-12.382-17.813-12.73 9.242-2.852 10.446 8.152 3.965-12.598 9.203-2.836-7.785 20.621 3.824 12.387-7.262 2.238m34.848-15.632c2.965-.688 5.101-2.067 6.41-4.145 1.312-2.078 1.633-4.59.957-7.52-.684-2.96-2.074-5.09-4.164-6.386-2.094-1.293-4.613-1.598-7.578-.91-2.957.68-5.106 2.066-6.43 4.16-1.324 2.09-1.64 4.597-.96 7.55.675 2.93 2.065 5.051 4.16 6.34 2.097 1.293 4.636 1.594 7.605.91zm-19.926-5.368c-1.094-4.73-.363-8.886 2.2-12.457 2.566-3.57 6.542-5.976 11.944-7.222 5.403-1.25 10.032-.828 13.887 1.258 3.86 2.09 6.328 5.503 7.422 10.238 1.094 4.734.367 8.879-2.184 12.441-2.554 3.559-6.53 5.965-11.933 7.211-5.403 1.25-10.031.828-13.899-1.25-3.87-2.078-6.347-5.484-7.437-10.219m46.16-23.515 1.137 16.289c.21 2.976.992 5.101 2.344 6.363 1.347 1.262 3.406 1.8 6.183 1.606 1.477-.106 2.746-.403 3.809-.895 1.062-.492 1.898-1.172 2.515-2.043a5.878 5.878 0 0 0 .985-2.273c.164-.852.187-2.137.066-3.871l-1.137-16.286 7.536-.527 1.195 17.082c.32 4.594-.75 8.168-3.207 10.723-2.453 2.562-6.227 4.02-11.324 4.375-5.082.355-9.012-.563-11.801-2.758-2.785-2.188-4.344-5.578-4.664-10.172l-1.196-17.086 7.56-.527m27.737 28.422 2.118-30.297 9.324.648 13.644 22.43 1.492-21.371 7.293.512-2.117 30.3-9.219-.644L309.91 47.28l-1.508 21.574-7.25-.507m49.75 7.887c-2.28-.527-4.367-1.347-6.261-2.46-1.895-1.106-3.461-2.426-4.692-3.946-1.52-1.898-2.512-3.926-2.969-6.09-.464-2.164-.402-4.523.188-7.07 1.094-4.734 3.57-8.148 7.441-10.23 3.868-2.086 8.504-2.504 13.907-1.258 4.558 1.05 8.125 2.949 10.699 5.675 2.574 2.743 3.703 5.801 3.383 9.18l-8.067-1.863c-.3-1.809-1.062-3.281-2.293-4.43-1.23-1.144-2.949-1.972-5.133-2.48-2.957-.684-5.496-.375-7.601.922-2.106 1.3-3.492 3.418-4.176 6.367-.676 2.93-.355 5.445.961 7.523 1.32 2.082 3.469 3.465 6.438 4.149 2.027.468 5.964.898 10.109.562l.777-3.262-9.93-2.265 1.36-5.903 16.727 3.907-3.227 12.718c-2.246.633-4.879.997-7.797 1.122-3.308.14-6.933-.196-9.844-.868m60.18-5.007L403 67.285l-2.742 5.625 8.082 3.945c1.82.887 3.168 1.29 4.055 1.196.878-.086 1.57-.637 2.066-1.656.492-1.012.48-1.915-.035-2.715-.52-.801-1.63-1.618-3.344-2.453zm-16.156 12.617 9.097 4.437c1.844.899 3.207 1.29 4.09 1.168.88-.117 1.59-.73 2.133-1.84.54-1.105.559-2.09.063-2.941-.5-.852-1.594-1.688-3.297-2.52l-9.098-4.437zm-9.504 2.101 13.312-27.3 17.649 8.609c3.062 1.492 5.086 3.183 6.058 5.07.977 1.887.914 3.961-.187 6.223-.649 1.332-1.535 2.348-2.652 3.058-1.125.707-2.454 1.075-3.973 1.114 1.328 1.27 2.117 2.672 2.363 4.199.242 1.531-.05 3.144-.883 4.844-1.18 2.422-2.894 3.945-5.144 4.554-2.25.621-4.766.254-7.531-1.097l-19.012-9.274m49.141 21.176c2.492 1.746 4.945 2.41 7.367 1.992 2.422-.414 4.504-1.86 6.23-4.324 1.738-2.484 2.395-4.945 1.957-7.363-.437-2.422-1.902-4.5-4.394-6.242-2.485-1.743-4.953-2.41-7.391-1.996-2.437.417-4.52 1.859-6.258 4.34-1.722 2.464-2.37 4.913-1.926 7.335.442 2.422 1.918 4.512 4.414 6.258zm-9.348-18.394c2.785-3.98 6.36-6.22 10.73-6.704 4.368-.484 8.82.864 13.36 4.043 4.543 3.18 7.328 6.903 8.36 11.164 1.026 4.262.144 8.387-2.645 12.364-2.786 3.98-6.352 6.215-10.707 6.703-4.352.484-8.801-.86-13.344-4.04-4.543-3.183-7.328-6.902-8.371-11.167-1.047-4.266-.172-8.387 2.617-12.363m28.609 40.386 8.84-9.48 2.172-21.785 7.074 6.597-1.867 13.118 12.894-2.833 7.047 6.567-21.761 3.516-8.84 9.48-5.559-5.18m25.864 7.84 4.894 6.047-.223.18c-1.328 1.078-1.87 2.48-1.617 4.215.25 1.738 1.281 3.726 3.09 5.957 1.395 1.722 2.723 2.847 3.988 3.375 1.266.527 2.36.418 3.285-.332.778-.63 1.102-1.399.973-2.305-.125-.91-.848-2.371-2.164-4.39l-2.984-4.528c-2.16-3.328-3.285-6.145-3.383-8.457-.094-2.313.836-4.254 2.8-5.844 2.313-1.875 5.048-2.367 8.192-1.469 3.14.907 6.098 3.067 8.871 6.493 2.985 3.68 4.625 7.113 4.938 10.304.312 3.196-.72 5.754-3.106 7.684l-.187.156-4.758-5.875c1.074-1.09 1.508-2.355 1.312-3.793-.199-1.437-1.023-3.055-2.476-4.851-1.348-1.66-2.621-2.758-3.836-3.29-1.215-.53-2.258-.445-3.117.25-.692.563-.977 1.235-.864 2.036.118.8.914 2.336 2.387 4.636l3.086 4.758c2.117 3.293 3.188 6.098 3.219 8.43.027 2.332-.985 4.32-3.028 5.976-2.625 2.125-5.488 2.676-8.582 1.653-3.097-1.028-6.304-3.598-9.632-7.703-3.168-3.914-4.887-7.508-5.16-10.774-.27-3.273.925-5.984 3.585-8.137l.497-.402"/></svg>