<svg xmlns="http://www.w3.org/2000/svg" width="228" height="170pt" viewBox="0 0 171 170"><path style="stroke:none;fill-rule:evenodd;fill:#46925d;fill-opacity:1" d="M170.453 85.055c0 46.785-37.96 84.746-84.746 84.746C38.855 169.8.891 131.84.891 85.055.89 38.199 38.855.238 85.707.238c46.785 0 84.746 37.961 84.746 84.817"/><path style="stroke:none;fill-rule:evenodd;fill:#fff;fill-opacity:1" d="M166.422 85.055c0 22.25-9 42.41-23.617 57.023-14.614 14.617-34.848 23.688-57.094 23.688-22.32 0-42.48-9.07-57.098-23.688-14.617-14.613-23.617-34.773-23.617-57.023 0-44.64 36.145-80.785 80.715-80.785 22.246 0 42.48 9.074 57.094 23.69 14.617 14.614 23.617 34.774 23.617 57.095zm-18.36 0c0-17.282-6.984-32.832-18.289-44.137-11.304-11.23-26.855-18.215-44.062-18.215-34.418 0-62.352 27.863-62.352 62.352 0 17.207 6.985 32.761 18.286 44.062a62.202 62.202 0 0 0 44.066 18.219c17.207 0 32.758-6.984 44.062-18.219 11.305-11.3 18.29-26.855 18.29-44.062"/><path style="fill:none;stroke-width:17.6995;stroke-linecap:butt;stroke-linejoin:miter;stroke:#fff;stroke-opacity:1;stroke-miterlimit:2.6131" d="M1460.469 849.453c0-332.656-270-602.656-603.36-602.656-333.359 0-603.359 270-603.359 602.656 0 333.36 270 603.36 603.36 603.36 333.359 0 603.359-270 603.359-603.36" transform="matrix(.1 0 0 -.1 0 170)"/><path style="stroke:none;fill-rule:evenodd;fill:#fff;fill-opacity:1" d="M141.871 85.055c0 31.03-25.129 56.16-56.16 56.16-31.035 0-56.16-25.13-56.16-56.16 0-31.032 25.125-56.23 56.16-56.23 31.031 0 56.16 25.198 56.16 56.23"/><path style="stroke:none;fill-rule:evenodd;fill:#46925d;fill-opacity:1" d="M133.3 141.285c2.016-2.086 4.9-2.445 4.9-2.445-2.305-1.442-2.16-4.535-2.16-4.535 0-5.762 10.94-4.61 10.94-4.61-4.101-4.465-1.078-12.96-1.078-12.96s-4.754 1.656-3.527 9.074c0 0-10.152.214-9 6.98 0 0 .719 2.883-2.664 2.524 0 0-2.305-.36-3.098.359-.718.793-.36 3.094-.36 3.094.36 3.386-2.448 2.664-2.448 2.664-6.84-1.153-7.055 9-7.055 9-7.414-1.223-9.07 3.53-9.07 3.53s8.496-3.026 12.957 1.08c0 0-1.078-11.017 4.61-11.017 0 0 3.097-.07 4.534 2.23 0 0 .434-2.878 2.52-4.968M38.117 141.285c-2.086-2.086-4.969-2.445-4.969-2.445 2.305-1.442 2.235-4.535 2.235-4.535 0-5.762-10.946-4.61-10.946-4.61 4.032-4.465 1.008-12.96 1.008-12.96s4.825 1.656 3.602 9.074c0 0 10.152.214 9 6.98 0 0-.723 2.883 2.664 2.524 0 0 2.305-.36 3.023.359.793.793.43 3.094.43 3.094-.43 3.386 2.45 2.664 2.45 2.664 6.769-1.153 6.984 9 6.984 9 7.488-1.223 9.144 3.53 9.144 3.53s-8.496-3.026-13.031 1.08c0 0 1.152-11.017-4.61-11.017 0 0-3.093-.07-4.464 2.23 0 0-.43-2.878-2.52-4.968M81.535 125.59c-.867 2.953-2.738 5.687-2.738 5.687-.79 1.153-.719 1.946-.719 1.946 0 1.656 3.238 1.656 3.238 1.656h3.098s3.527 0 3.527-1.008c0 0 .145-.937-.504-2.16 0 0-1.8-3.313.29-16.633 0 0 .793-5.613.07-10.437 0 0-.934-5.114 2.305-5.114 0 0 2.664 0 2.664 5.114 0 0 .074 2.879-.938 6.765 0 0-1.008 4.535-1.008 6.77 0 0-.144 12.527 14.188 14.183 0 0 4.535.29 7.773-3.168 0 0 7.059-8.57 11.235-11.304 0 0 12.527-7.489 12.527-16.344 0 0-.074-14.113-14.04-14.113 0 0-5.187.074-11.952 2.808 0 0-5.473 2.16-8.496 2.16 0 0-4.176 0-4.176-4.464 0 0 .07-4.75 5.11-4.75 0 0 2.738 0 4.823.718 0 0 2.305.938 7.708.938 0 0 19.87.07 19.87-15.84 0 0 .43-9-10.585-14.906 0 0-7.055-4.102-8.496-8.782 0 0-2.52-7.343-12.313-7.417 0 0-14.183.074-14.183 15.48 0 0 .074 7.633 1.082 12.098 0 0 .648 2.59.648 3.672 0 0 .07 6.261-2.52 6.261 0 0-3.097.074-3.097-7.129 0 0 .07-16.343-3.602-23.328 0 0-5.183-9.933-11.23-9.933 0 0-5.832-.075-10.656 6.336 0 0-5.903 9.359-9.43 9.933 0 0-5.043.867-9.074 5.043 0 0-4.895 5.11-4.895 10.152 0 0-.363 13.176 17.926 13.176 0 0 4.969-.074 8.207-.722 0 0 4.539-1.008 8.355-1.008 0 0 4.461.144 4.461 3.89 0 0 0 4.895-6.765 4.895 0 0-4.25-.07-6.625-.29 0 0-6.625-.718-11.52-.718 0 0-5.328 0-9.504 3.457 0 0-4.61 4.176-4.61 9.863 0 0-.144 5.832 5.688 10.368 0 0 8.356 5.976 10.586 9.937 0 0 2.375 5.328 7.055 9.215 0 0 4.105 3.457 9.434 3.457 0 0 10.437.07 10.437-10.871 0 0 .074-8.356-.789-10.8 0 0-1.297-3.891-1.297-6.84 0 0 0-4.032 3.457-4.032 0 0 3.672 0 3.672 5.254 0 0 .215 9.719-2.45 16.922l-1.222 3.957"/><path style="stroke:none;fill-rule:evenodd;fill:#fff;fill-opacity:1" d="M54.102 112.344s3.886-6.336 6.265-8.57c0 0 6.192-6.985 25.559-15.766 0 0 18.863 33.406 30.097 28.367C102.63 112.773 90.75 85.27 90.75 85.27c34.633-19.657 26.71-30.672 26.71-30.672-1.87 12.53-29.519 26.496-29.519 26.496-18.214-32.254-30.96-27.215-30.96-27.215 12.312 3.098 26.496 29.52 26.496 29.52-35.497 17.28-29.305 28.73-29.305 28.73l-.07.215"/><path style="stroke:none;fill-rule:evenodd;fill:#fff;fill-opacity:1" d="M96.008 106.367c.933 0 .933.938.933.938l-.574 15.261c-.144 2.45-1.152 2.375-1.152 2.375-2.016 0-2.375-6.84-2.375-6.84s-.074-3.093 1.512-8.925c0 0 .644-2.809 1.656-2.809M99.82 129.191s1.227.29 1.082-2.808l-.578-15.192s0-1.656-1.367-2.16c0 0-.793-.574-1.078.864 0 0-.863 7.058 0 16.562 0 0 .36 2.734 1.941 2.734M104.574 131.277s2.88.793 2.45-3.527l-.938-12.457s-.145-1.652-2.953-2.66c0 0-1.078-.434-1.367.789 0 0-.864 5.258.578 14.547 0 0 .789 3.308 2.23 3.308M109.688 129.262s3.742-.285 3.742-4.606c0 0-.145-6.48-3.961-8.136 0 0-2.305-1.082-2.305 1.222 0 0-.07 4.824.648 8.64 0 0 .434 2.88 1.876 2.88M114.871 123.285s1.871-.574 1.871-2.664c0 0 .07-1.797-1.586-2.3 0 0-1.437-.723-1.437 1.367 0 0-.145 3.886 1.152 3.597M117.316 114.07s0 2.09 1.946 1.586c0 0 3.746-.793 10.367-4.176 0 0 1.152-.433 1.152-1.37 0 0 .215-1.583-1.582-1.223 0 0-2.09.504-5.183 1.726 0 0-1.227.723-1.875.723 0 0-2.23.36-4.102 1.582 0 0-.723.504-.723 1.152M111.27 111.55s.144 2.09 3.312 1.368c0 0 2.16-.36 4.031-1.367 0 0 2.664-1.582 5.977-2.23 0 0 1.87-.434 2.808-1.008 0 0 .938-.504 3.528-.504 0 0 2.23 0 2.23-1.875 0 0 0-1.512-2.015-1.512 0 0-8.422.219-18.286 5.258 0 0-1.585.718-1.585 1.87"/><path style="stroke:none;fill-rule:evenodd;fill:#fff;fill-opacity:1" d="M106.375 108.168s-.29 2.305 3.383 1.223c0 0 14.113-5.688 21.238-5.688 0 0 2.953.145 2.953-1.945 0 0 0-1.582-2.445-1.582 0 0-14.402.933-23.328 5.902 0 0-1.801.863-1.801 2.09"/><path style="stroke:none;fill-rule:evenodd;fill:#fff;fill-opacity:1" d="M102.848 104.496s.07 2.086 3.168 1.152c0 0 13.68-6.191 24.55-6.191 0 0 2.664.07 2.664-1.945 0 0 .07-1.586-2.16-1.586 0 0-9.433.36-24.336 5.472 0 0-3.886 1.223-3.886 3.098"/><path style="stroke:none;fill-rule:evenodd;fill:#fff;fill-opacity:1" d="M99.965 100.39s0 2.09 2.664 1.223c0 0 18.144-5.972 25.562-6.336 0 0 2.95.075 2.95-1.437 0 0 .144-1.512-2.735-1.512 0 0-10.726.574-25.777 5.977 0 0-2.664.789-2.664 2.086M97.23 94.559s0 3.023 3.168 2.734c0 0 2.52-.14 12.528-3.598 0 0 4.25-1.441 12.023-2.16 0 0 1.297 0 1.297-1.297 0 0 0-1.078-1.656-1.078 0 0-7.2.07-13.106 2.52 0 0-7.054 2.52-8.351 2.52 0 0-2.16.288-3.024-.72 0 0-.648-.793-1.582-.793 0 0-1.297-.074-1.297 1.872M99.965 80.52s-.07.937 1.586 1.222c0 0 11.23 1.367 14.976 1.367 0 0 6.551.145 6.551-1.652 0 0 .145-1.152-1.297-1.152 0 0-11.808.144-13.605-.434 0 0-3.387-.937-5.043-.937 0 0-3.024-.145-3.168 1.586"/><path style="stroke:none;fill-rule:evenodd;fill:#fff;fill-opacity:1" d="M105.727 77.063s0-.934.933-.934c0 0 4.25 0 7.707.719 0 0 2.23.648 8.207.215 0 0 2.664-.29 5.399-.29 0 0 1.007 0 1.007 1.082 0 0 .22 1.297-3.308 1.297 0 0-7.633 0-10.371.285 0 0-5.04.434-7.703-.648 0 0-1.871-.719-1.871-1.727M109.973 73.75s-.07 2.016 9.648 2.16c0 0 9.145.074 11.16-.574 0 0 1.656-.504 1.656-2.375 0 0 .075-1.082-1.582-1.082 0 0-3.027-.145-5.328.648 0 0 .575.434-13.609.434 0 0-1.945 0-1.945.789M113.43 69.648s-.07 2.016 8.855 2.016c0 0 7.778-.144 9.649-1.875 0 0 1.441-1.008 1.441-2.23 0 0 .145-.793-1.367-.793 0 0-3.028-.145-6.336 1.226 0 0-1.297.649-7.992.649 0 0-4.25-.145-4.25 1.007M116.238 66.191s-.074 1.368 2.59 1.368c0 0 3.676-.07 6.48-.938 0 0 1.946-.574 4.61-.574 0 0 2.664-.145 2.664-1.945 0 0 .07-1.438-2.016-1.438 0 0-2.375.145-4.464 1.152 0 0-.793.934-6.551.934 0 0-3.313-.07-3.313 1.441M118.469 61.078s0 2.234 3.312 1.945c0 0 3.672-.214 5.617-1.152 0 0 1.727-.719 1.727-2.016 0 0 .145-2.015-2.809-1.585 0 0-6.191.937-6.261.937 0 0-1.586.29-1.586 1.871M121.781 57.621s2.235.074 2.235-1.367c0 0 .214-.934-1.371-1.941 0 0-.864-.579-1.438-.579 0 0-1.441-.07-1.441 1.512 0 0-.29 2.375 2.015 2.375M113.14 44.23s-1.796-.144-1.796 2.81c0 0-.074 7.273.719 10.366 0 0 .359 1.657 1.44 1.657h.071c.719 0 1.946-.934 1.656-3.743l-.718-10.008s-.29-1.082-1.371-1.082"/><path style="stroke:none;fill-rule:evenodd;fill:#fff;fill-opacity:1" d="M108.895 41.422s-1.801-.07-1.801 1.8c0 0 .144 13.68 1.441 17.786 0 0 .79 2.304 1.871 2.304 0 0 2.086.215 1.582-2.09 0 0-2.086-10.726-1.582-15.984 0 0 .793-3.816-1.511-3.816"/><path style="stroke:none;fill-rule:evenodd;fill:#fff;fill-opacity:1" d="M104.574 39.984s-1.441 0-2.449 3.383c0 0-1.871 8.137.863 16.274l2.16 5.972s.579 1.801 1.657 1.801c0 0 2.882 0 2.234-2.95 0 0-3.816-9.362-2.953-20.593 0 0 .648-3.96-1.512-3.887"/><path style="stroke:none;fill-rule:evenodd;fill:#fff;fill-opacity:1" d="M98.957 40.703s-1.727.145-2.016 1.8c0 0-1.296 10.802 1.871 21.817 0 0 2.016 6.118 3.672 6.118 0 0 3.028.218 1.801-2.735 0 0-5.039-12.383-3.597-22.25 0 0 1.152-4.75-1.731-4.75"/><path style="stroke:none;fill-rule:evenodd;fill:#fff;fill-opacity:1" d="M93.988 44.95s-1.941-.071-2.23 3.456c0 0-1.367 13.032 3.816 24.555 0 0 .574 1.652 2.016 1.293 0 0 2.594-.285 1.656-2.95 0 0-4.61-13.394-3.672-24.265 0 0 .29-2.16-1.586-2.09M93.125 72.094s-1.078-.14-1.152 2.16c0 0-.145 2.594 1.152 2.45 0 0 1.586-.071 1.586-1.513 0 0 0-3.097-1.586-3.097M84.055 71.664s1.152.29 1.078-4.25c0 0-.29-5.254-1.582-5.254 0 0-.649-.144-1.008 5.688 0 0 0 3.816 1.512 3.816M80.598 67.055s2.015.215 2.015-10.801c0 0-.07-6.84-2.015-9.43 0 0-.938-1.008-1.442-1.008 0 0-.504 0-.719.79 0 0-.43 2.449 0 15.265 0 0 .36 5.184 2.16 5.184M76.352 62.016s.863.214 1.007-.793c0-.07 1.223-10.297-.867-20.59 0 0-.574-2.738-2.59-2.738 0 0-1.511-.215-1.367 3.097 0 0 .863 16.414 2.23 19.871 0 0 .29.864 1.587 1.153M71.742 58.27s.863.289.793-.934c0 0-.504-15.191-.937-17.64 0 0-.215-1.872-1.727-1.872 0 0-1.73-.219-1.73 1.727 0 0 0 11.09.867 14.761 0 0 .789 3.598 2.734 3.958M66.773 54.238s1.082.36 1.008-1.511c0 0-.289-10.223-.504-11.664 0 0 0-1.801-1.367-1.801 0 0-2.09 0-2.015 2.449 0 0 .144 10.367.718 11.305 0 0 .215 1.078 2.16 1.222M61.879 52.512s1.367.289 1.367-1.442c0 0-.144-5.902-.289-7.199 0 0 0-1.008-1.008-1.008 0 0-1.726-.289-2.304 2.735 0 0-.649 4.105.722 6.191 0 0 .504.723 1.512.723M57.918 50.855s.719.145.719-.578c0 0 0-.718-.575-.789 0 0-.792.07-.792.649 0 0 0 .718.648.718M46.11 55.246s-.794 1.586.792 1.008c0 0 2.735-.649 4.97-2.23 0 0 1.87-1.297-.36-1.297 0 0-3.89 0-5.403 2.52M39.773 63.168s0 1.8 1.297.934c0 0 9.07-5.903 14.977-7.125 0 0 1.512-.145 1.512-1.227 0 0 .214-1.438-2.016-1.078 0 0-5.04.215-14.617 5.832 0 0-1.153.719-1.153 2.664M39.844 68.422s-.07 2.594 1.586 1.586c0 0 11.593-8.64 19.945-9.863 0 0 1.871.07 1.438-1.442 0 0-.145-2.016-2.805-1.512 0 0-3.672-.578-18.504 8.137 0 0-1.66.79-1.66 3.094"/><path style="stroke:none;fill-rule:evenodd;fill:#fff;fill-opacity:1" d="M42.652 72.168s-.07 2.445 1.801 1.512c0 0 10.297-8.067 19.871-9.72 0 0 3.098-.362 2.52-1.655 0 0-.285-1.801-2.59-1.442 0 0-7.559.864-19.008 7.848 0 0-2.594 1.367-2.594 3.457"/><path style="stroke:none;fill-rule:evenodd;fill:#fff;fill-opacity:1" d="M45.535 75.84s-.722 3.597 4.461.648c0 0 11.234-7.562 19.8-8.785 0 0 2.52-.144 1.587-1.082 0 0-1.73-2.156-3.672-1.941 0 0-9.219.933-19.441 7.918 0 0-2.735 1.875-2.735 3.242"/><path style="stroke:none;fill-rule:evenodd;fill:#fff;fill-opacity:1" d="M52.95 75.55s-4.391 2.595-.505 2.595c0 0 3.168.214 6.047-1.297 0 0 5.547-3.313 13.395-4.032 0 0 2.879-.218 2.449-1.73 0 0-.434-2.086-2.594-2.086 0 0-8.57.36-18.793 6.55"/><path style="stroke:none;fill-rule:evenodd;fill:#fff;fill-opacity:1" d="M66.703 75.406s0 .793 1.152.793c0 0 1.008 0 1.797-.289 0 0 5.618-1.297 6.7 1.008 0 0 .285.578.789.578 0 0 .867 0 .867-.937 0 0-.145-3.313-3.313-3.313 0 0-4.25 0-7.058 1.367 0 0-.864.29-.934.793M68.719 88.871s-1.227.215-1.227.719c0 0-.07 1.226 1.082.867 0 0 1.078-.144 1.078-1.082 0 0 .075-.504-.933-.504M46.973 89.953s-.145 2.156 2.953 1.512c0 0 8.136-2.016 13.176.789 0 0 .07.219 2.09.219 0 0 1.94-.22 1.007-.868 0 0-5.832-4.175-13.68-4.175 0 0-5.546.433-5.546 2.523"/><path style="stroke:none;fill-rule:evenodd;fill:#fff;fill-opacity:1" d="M41.285 94.488s0 1.008 1.442.649c0 0 9.648-1.657 14.902-.504 0 0 1.875.504 3.672.504 0 0 1.8 0 1.8-.867 0 0-.07-1.438-6.765-2.52 0 0-6.41-1.152-12.027.145 0 0-3.024 1.007-3.024 2.593M40.566 98.59s-.074 1.297 1.297.867c0 0 4.68-.723 14.184-.723 0 0 2.879 0 2.879-1.367 0 0 0-1.87-8.063-1.87 0 0-5.906.214-8.21 1.077 0 0-2.087 1.008-2.087 2.016M40.566 102.766s0 1.226 1.079.867c0 0 7.273-1.371 12.527-1.371 0 0 1.945.074 1.945-1.367 0 0 .074-1.438-4.605-1.438 0 0-6.196.215-9.145 1.512 0 0-1.8.933-1.8 1.797M43.375 106.152s0 1.727 3.168 1.727c0 0 3.527-.07 5.687-1.297 0 0 1.223-.793 1.223-1.512 0 0-.215-1.367-1.941-1.367 0 0-4.61.07-6.844.719 0 0-1.293.578-1.293 1.73M47.262 110.11s.215 2.738 3.601 2.738c0 0 1.727-.075 1.727-2.305 0 0-.07-2.59-2.664-2.59 0 0-2.664.215-2.664 2.156M53.887 115.941s0 1.875 1.293 1.875c0 0 1.011.07.937-1.296 0 0-.215-1.946-1.297-1.946 0 0-.933.145-.933 1.367M59.645 124.941s.722 0 .722-1.222c0 0 0-9.793-.722-13.39 0 0-.07-1.657-1.293-1.657 0 0-1.512.07-1.512 2.664 0 0-.145 6.55.719 10.941 0 0 .504 2.664 2.086 2.664M79.3 92.328s-3.382.43-3.456 4.32c0 0-.07 2.52.937 2.086 0 0 3.168-2.52 3.817-5.183 0 0 .289-1.297-1.297-1.223M63.535 127.68s1.871.144 1.871-2.809c0 0 .29-11.09-2.09-18.937 0 0-.359-1.582-1.367-1.582 0 0-2.445-.36-1.941 2.304 0 0 1.797 9.07 1.797 18.864 0 0 0 2.16 1.73 2.16"/><path style="stroke:none;fill-rule:evenodd;fill:#fff;fill-opacity:1" d="M68.43 130.27s1.511 0 1.367-3.31c0 0 .144-14.472-3.238-24.48 0 0-.29-.867-1.223-.867 0 0-1.875-.07-1.441 1.73 0 0 2.085 7.344 2.16 22.895 0 0 .07 4.032 2.375 4.032"/><path style="stroke:none;fill-rule:evenodd;fill:#fff;fill-opacity:1" d="M72.676 129.695s1.8.07 1.73-2.52c0 0-.289-11.234-1.945-17.28 0 0-1.8-6.48-1.871-8.856 0 0 0-1.582-1.442-1.582 0 0-1.796-.074-1.656 1.582 0 0 .363 4.246 2.09 9 0 0 1.441 6.48 1.441 16.922 0 0-.074 2.734 1.653 2.734M76.352 124.941s2.085.075 1.656-6.406c0 0-.074-6.12-1.945-11.45 0 0-1.153-3.741-1.223-8.206 0 0-.145-2.305-1.945-2.305 0 0-1.153-.07-1.153 1.875 0 0 .07 5.399 1.727 10.582 0 0 1.875 5.114 1.875 14.328 0 0-.074 1.582 1.008 1.582"/><path style="stroke:none;fill-rule:evenodd;fill:#46925d;fill-opacity:1" d="m16.75 91.98.973-.05.808-.059.68-.07c.121-.008.223-.016.305-.024a.78.78 0 0 0 .214-.058c.094-.008.18-.012.247-.02a.606.606 0 0 0 .18-.058l.335-.121.246-.145.153-.207.097-.18.078-.222.059-.274.035-.328.035-.379-.008-.52-.015-.617-.04-.734-.027-.504-.043-.52-.042-.449a2.586 2.586 0 0 0-.06-.464l-.077-.395-.106-.352-.144-.32-.211-.258-.059-.066-.074-.09-.078-.05-.055-.051-.039-.012-.074-.055-.11-.047-.074-.047-.054-.035-.04-.015-.035-.036h-.02l-.038-.011h-.035l-.02-.035h-.035l-.035-.016h-.02l-.054-.031-.055.004-.113-.051-.051.004-.04-.016-.073-.05-.055-.051-.023-.055-.004-.055v-.05l.015-.04.051-.054h.035l.035-.024h.07l.055-.004.075-.008.09.016.105-.004.078.031.125.008h.07l.094.031.07-.003.168.046.157-.011.058.054.11-.007.109.046.09-.003.054.015c.04.012.07.02.094.031a.16.16 0 0 1 .035.016l.09-.004.074.047h.09l.04.031h.034l.079.047.05.016.04.055.042.05.04.106.042.11.028.194.05.266.008.18.028.199.011.215.012.234.024.38.011.32.024.359.015.324v.324l.016.285.012.309.015.27-.007.539.027.488.023.45.02.429c-.004.097-.012.18-.012.246a1.4 1.4 0 0 1-.015.187l.035.38.02.374.019.324-.004.325.02.324.015.324.012.27.011.144.004.125.012.145.004.16.008.164.011.18.047.195.004.105.008.11.004.11.004.105.012.16.007.164.008.16.008.11.008.16.004.054.02.07.007.11.004.11.004.105-.012.09.004.074-.016.05-.011.094-.035.02-.04.004-.039-.055-.015-.016-.004-.035-.02-.054-.003-.055-.004-.07-.004-.11-.004-.054-.02-.051-.004-.055-.004-.05v-.055l-.02-.055-.01-.164-.02-.05-.004-.04-.016-.012-.004-.039-.047-.18-.078-.136-.094-.106-.132-.097-.075-.016-.074-.05-.07.003-.094-.05-.164-.044-.203-.046-.305-.016h-.207a.585.585 0 0 1-.176-.035l-.195.012-.215-.008-.234.011-.254.012-.25.012-.273.016-.282.015-.293-.023-.289.015-.304.02-.305.015-.324.016-3.219.168-.879.047-.773.043-.594.027-.43.024-.16.007-.18.012-.14.043-.145.008-.125.008-.129.004-.125.023-.11.008h-.015l-.035.004a.278.278 0 0 0-.16.043c-.012 0-.023.004-.027.008a.063.063 0 0 1-.028.015l-.175.043-.16.082-.137.114-.082.148-.079.219-.058.238-.059.309.004.054-.015.059.003.05v.055l.004.07-.015.06.008.09.003.05v.055l-.011.054v.07l.011.165v.09l.004.074-.011.086-.032.058-.054.004L8.703 97l-.055-.07-.023-.051v-.09l-.023-.074-.004-.106-.008-.109-.004-.105-.008-.11-.004-.11-.008-.105-.004-.144-.007-.106-.008-.125v-.054l.012-.059-.008-.16-.004-.106-.008-.09-.004-.054-.004-.11-.008-.16-.003-.109-.004-.07-.004-.055.023-.2-.008-.183-.007-.195-.012-.16-.004-.125-.008-.11-.008-.144-.004-.106-.007-.11-.008-.179-.012-.164-.008-.195-.011-.219a1.017 1.017 0 0 0-.016-.14.27.27 0 0 0-.031-.09l-.004-.09-.008-.106-.004-.109-.008-.11-.008-.18-.007-.16-.012-.195-.008-.164-.008-.16-.027-.164-.004-.07-.004-.055-.004-.09-.004-.054-.008-.106.016-.074v-.09l.012-.055.05-.074.016-.035.04-.004h.015l.035.035.04.051.003.016.02.035v.074l.007.09.004.055.02.07.008.09.004.105.003.074.024.106.004.09.004.054.02.055.007.11.066.28.086.212.098.191.113.106.153.101.164.043.183.047.215.004h.035l.02-.004.238.043.246-.012.29-.015.343-.016.43-.023.593-.032.774-.043.933-.047-.054.004 3.199-.172M12.887 81.902l-.871-.156-.762-.133-.582-.101-.43-.078-.156-.028-.176-.027-.148.008-.14-.024-.25-.047h-.13l-.105-.023-.016-.004-.039-.004c-.035-.008-.062-.008-.09-.008a.634.634 0 0 0-.074.016c-.012-.004-.02 0-.027.004-.008.004-.016.004-.028.004l-.183.004-.172.043-.164.082-.114.125-.125.199-.113.219-.12.289-.009.05-.027.051-.008.051-.012.055-.015.07-.028.05-.011.09-.012.051-.008.055-.027.05-.012.071-.008.051-.023.11-.016.085-.011.075-.032.082-.043.046-.054-.007-.051-.043-.04-.082-.007-.059.016-.086-.004-.074.02-.106.015-.109.02-.102.019-.109.02-.105.019-.11.023-.14.02-.106.02-.125.039-.101.023-.141.02-.11.023-.12.016-.11.03-.156.016-.106.016-.093.012-.047.066-.172.04-.215.03-.195.032-.176.023-.145.024-.12.027-.141.02-.13.019-.105.031-.156.024-.16.039-.195.027-.16v-.22l.012-.07.02-.105.019-.11.016-.101.03-.164.028-.16.027-.14.028-.157.012-.074.007-.051.016-.09-.008-.058.02-.102.011-.074.008-.055.02-.105.035-.082.012-.07.027-.055.07-.079.02-.015.035.008.016.004.035.023.027.059-.008.039.016.02-.012.05-.008.035-.007.055-.004.02-.008.05-.008.055v.09l-.008.054.02.075-.024.144-.011.07-.004.328.02.207.058.192.086.125.12.129.153.086.184.086.207.07.039.008.015.004.22.09.25.046.284.051.336.059.426.074.582.106.762.132.926.164 2.425.426.961.133c.157.027.301.047.43.059.133.011.258.003.371-.028l.688-.058.574-.157.512-.203.468-.281.403-.316.375-.371.11-.09.093-.11.09-.093.078-.137.09-.094.074-.113.07-.094.063-.14.199-.31.172-.35.156-.36.234-.727.094-.402.086-.387.074-.426.082-.585a.898.898 0 0 0 .028-.165c.011-.043.011-.097.011-.16.012-.047.012-.097.012-.152l-.012-.156.016-.274-.016-.332-.023-.277-.04-.3-.085-.563-.137-.551-.156-.469-.215-.437-.32-.477-.383-.418-.45-.352-.491-.304-.543-.246-.586-.211-.63-.164-.667-.137-2.27-.402-.867-.153-.762-.136-.586-.102-.425-.074-.16-.028-.176-.03-.145-.009-.14-.023-.25-.047-.133.016-.102-.02-.02-.004-.034-.004c-.051-.011-.09-.011-.13-.011a.186.186 0 0 0-.093.023l-.18-.012-.176.063-.16.082-.113.105-.125.2-.113.234-.121.273-.008.051-.028.051-.007.055-.012.05-.016.09-.027.051-.012.066-.008.055-.011.055-.028.05-.015.087-.012.054-.016.106-.011.074-.016.086-.031.066-.043.051-.055-.012-.05-.023-.036-.102-.012-.054.012-.075v-.09l.02-.109.027-.156.031-.16.012-.07.016-.09.007-.051.012-.07.031-.165.024-.156.043-.14.031-.157.027-.16.02-.125.031-.16.024-.14.066-.172.035-.196.028-.16.02-.121.023-.11.015-.105.024-.14.023-.125.035-.196.02-.105.027-.16.023-.125c.008-.047.012-.082.008-.106 0-.023-.008-.047-.02-.058l.024-.11.028-.156.015-.09.012-.07.008-.055.02-.086.015-.11v-.105l.012-.074.023-.105.016-.106.015-.09.059-.316.027-.07.016-.09.027-.047.067-.063.023-.035.035.012.02.004.03.039.024.058-.004.016.012.04-.008.054-.004.02-.007.05-.008.035-.008.055-.012.055.004.07-.008.055-.015.09.008.074-.02.09v.105l.008.277.039.188.05.21.09.126.126.133.148.082.168.082.207.058.04.004.015.004.222.094.246.043.286.05.336.06.425.073.586.106.762.133.922.164 1.84.324.125.023.07.012.074.012.07.012.063.046.074.012.067.016.074.012.21.035.075.011.082.04.14.023.075.012.57.191.54.227.534.293.532.312.476.414.426.477.36.554.285.653.02.097.026.059.04.078.019.098.043.172.055.117.043.172.05.12.028.169.031.117.11.637.05.613.008.605-.012.582-.043.559-.039.54-.078.519-.066.48-.02.125-.027.14-.047.177-.027.16-.11.418-.101.457-.149.52-.156.487-.07.188a.62.62 0 0 0-.067.105c-.008.032-.015.047-.015.047l-.094.328-.133.344-.117.25-.121.254-.13.215-.148.23-.128.215-.168.227-.164.187-.176.192-.407.437-.464.356-.508.297-.578.261-.64.215-.724.059h-.82l-.926-.145-.054-.008-2.586-.457M17.516 59.848l-.793-.387-.692-.34-.535-.262-.39-.187-.145-.074-.16-.078-.149-.028-.129-.062-.113-.059-.113-.055-.121-.039-.098-.047-.047-.023c-.035-.016-.058-.027-.082-.031-.027-.004-.05-.008-.082-.008-.008-.008-.02-.008-.023-.004-.012.004-.02 0-.031-.004l-.176-.047-.18-.008-.176.036-.144.09-.172.156-.168.18-.2.242-.023.046-.043.04-.02.05-.027.051-.03.063-.04.043-.039.078-.023.05-.024.047-.039.043-.035.063-.024.047-.046.097-.04.082-.03.063-.055.074-.055.035-.05-.023-.036-.059-.012-.086.004-.058.04-.078.019-.075.043-.097.047-.098.05-.094.047-.101.047-.094.047-.102.063-.129.046-.093.059-.114.02-.05.042-.04.07-.144.048-.098.039-.082.023-.046.047-.098.074-.145.043-.097.035-.067.024-.047.12-.164.079-.16.086-.18.066-.144.059-.113.047-.094.062-.133.07-.144.06-.114.085-.18.094-.195.094-.191.093-.195.086-.258.036-.067.039-.078.023-.05.02-.047.011-.02.07-.14.04-.083.093-.195.07-.144.052-.098.046-.098.07-.144.048-.098.015-.07.04-.082.023-.047.07-.149.031-.062.024-.05.074-.145.078-.125.211-.434.059-.113.07-.145c.047-.097.09-.183.133-.254.043-.078.082-.129.11-.168.05-.097.093-.18.136-.258.043-.07.082-.124.11-.164.038-.074.077-.144.124-.21.043-.067.094-.13.156-.192l.274-.406.289-.38.308-.355.336-.312.368-.344.062-.05.09-.055.062-.051.086-.055.082-.043.106-.047.055-.035.093-.074.059-.031.258-.074.27-.106.28-.047.31-.09.312-.027.289.023.316.051.281.117.098.047.098.051.047.02.035.02.039.038.031.016.203.156c.035.02.063.035.086.05.023.024.04.036.043.056a.04.04 0 0 1 .023.02c0 .007.008.015.02.019l.172.183.16.16.164.239c.016.02.031.043.05.066.017.02.028.035.04.04.016.023.027.038.031.054a.193.193 0 0 1 .016.05l.156.255.121.242.219.625.183.691.086.402.067.391.062.45.059.452.988-.421.946-.418.898-.407.848-.382.82-.364.75-.355.707-.336.664-.38.54-.292.491-.344.39-.308.337-.36.277-.285.215-.273.191-.27c.024-.055.055-.101.079-.14a.666.666 0 0 1 .09-.118l.042-.054.047-.102.059-.07.086-.14.054-.114.086-.176.059-.113.07-.145.024-.047.031-.027.023-.05.024-.005.055-.035.035-.023.015.008.008.066-.02.086-.035.105-.046.094-.04.125-.07.145-.844 1.73-.093.195-.075.149-.085.133-.07.148-.071.145-.059.113-.086.137-.046.097-.063.13-.062.09-.051.097-.043.097-.16.282-.149.226-.183.211-.184.172-.02.031-.011-.004-.012.012-.094.117-.097.07-.188.149-.098.074-.093.07-.098.079-.113.062-.137.113-.168.098-.168.102-.168.054-.168.102-.367.18-.203.082-.414.199-.426.172-.238.12-.235.071-.254.113-.25.098-.058.035-.063.047-.07.024-.074.027-.14.047-.079.027-.07.024-.055.035-.105.047-.098.035-.102.05-.058-.011-.414.199-.403.164-.199.082-.203.082-.184.094-.183.05-.344.13-.324.125a.33.33 0 0 0-.125.039.568.568 0 0 0-.129.078l-.215.07-.008.02-.015-.008-.016.031-.02-.008-.003.016-.02-.008-.023.047-.016-.004-.023.047-.016-.008-.02.031-.023.051-.016-.012-.023.051-.008.016-1.539 2.953.024.074-.016.07v.04l.027.035.051.023.352.176.613.297.535.258.52.253.468.23.438.216.379.164c.074.035.144.066.207.09a.356.356 0 0 0 .156.027c.066.027.117.055.168.066.043.02.09.024.129.016l.195.055.168.023.172.024.176-.036.16-.042.16-.122.16-.164.168-.257.055-.032.094-.195.054-.113.082-.121.047-.055.07-.145.047-.101.047-.094.04-.082.03-.066.048-.094.035-.027.023-.047.024-.008.03-.024.016.004.024-.004.015.004.036.016-.012.02-.02.085-.007.055-.032.066-.023.09-.05.098-.071.145-.043.097-.074.145-.047.097-.051.098-.043.098-.047.097-.047.094-.066.094-.047.094-.094.195-.094.191-.078.164-.09.18-.07.145-.137.195-.09.191-.09.18-.07.145-.054.113-.094.195-.039.078-.05.098-.048.098-.054.113-.07.144-.09.18-.044.176-.12.242-.02.05-.043.079-.043.102-.074.14-.04.125-.07.145-.05.097-.067.145-.05.097-.094.196-.047.094-.055.074-.031.062-.043.043-.055.074h-.039l-.031-.015-.008-.063-.008-.023.012-.035.012-.059.023-.047.031-.066.047-.094.024-.05.004-.055.027-.047.047-.102.004-.054.027-.047.023-.051.024-.047.008-.059.015-.03-.007-.024.011-.032.051-.175-.004-.164-.035-.137-.063-.152-.058-.047-.04-.082-.066-.028-.054-.09-.125-.12-.153-.137-.261-.164c-.063-.032-.121-.067-.18-.098a.513.513 0 0 1-.137-.117l-.176-.086-.187-.113-.207-.102-.23-.11-.223-.109-.242-.12-.258-.126-.246-.16-.258-.125-.274-.133-.277-.133-.293-.144-.047-.024zm-2.95-3.844 5.301 2.586.082.043.067.027.058.012.094-.074.14-.172.16-.203.169-.22.183-.288.2-.324.195-.325.2-.367.187-.386.027-.047.023-.051.02-.05.168-.337.094-.195.039-.121.047-.098.03-.144.048-.098a.458.458 0 0 0 .035-.094c.008-.027.012-.05.004-.066l.031-.106a.562.562 0 0 0 .035-.093.15.15 0 0 0 .004-.07l.016-.11.035-.094a.134.134 0 0 0 .004-.066l.011-.075.012-.093-.008-.067-.004-.082-.02-.37-.07-.391-.14-.372-.172-.386-.242-.356-.309-.312-.375-.258-.445-.281-.746-.282-.738-.082-.727.086a1.99 1.99 0 0 1-.242.075c-.067.011-.117.027-.149.035a1.222 1.222 0 0 0-.136.054c-.059.024-.121.051-.192.086l-.664.457-.629.594-.566.746-.508.875-.066.145-.059.113-.055.152-.062.13-.07.148-.047.097-.04.118-.046.101-.078.238-.082.164a.652.652 0 0 1-.028.118c-.004.03-.008.043-.008.043l-.046.097.007.067-.035.105.032.07.062.032-.016-.008M37.816 35.645l-.359-.274-.305-.254-.273-.125-.211-.09-.188.024-.238.078-.262.125-.32.219-.035.043-.05.027-.071.078-.05.055-.052.027-.058.07-.07.079-.051.027-.047.055-.035.039-.075.082-.062.066-.047.05-.07.056-.067.02-.039-.036-.015-.063.007-.093.02-.051.066-.066.032-.067.07-.078.074-.082.07-.082.149-.156.07-.082.098-.11.07-.078.086-.094.035-.039.047-.03.113-.118.07-.078.063-.07.035-.04.07-.082.11-.12.07-.079.051-.055.035-.039.16-.125.118-.132.136-.149.106-.117.086-.094.07-.082.098-.105.07-.082.074-.078.082-.094.11-.121.136-.149.106-.12.117-.184.074-.082.07-.079.075-.082.082-.09.07-.081.11-.122.113-.117.105-.12.063-.071.035-.04.047-.054.02-.05.074-.079.062-.066.035-.043.07-.078.063-.043.059-.07.05-.024.09-.02.04-.015.027.023.011.012v.055l-.007.062-.012.012-.012.043-.035.039-.05.05-.024.028-.035.043-.036.039-.035.066-.039.04-.031.093-.086.09-.059.067-.175.277-.067.183-.066.207.008.153.035.176.082.148.101.16.145.156.027.028.016.011.004.051.055.047.011.016.028.023.023.024.137.144.133.121.144.13.137.124.148.133.145.129.176.156.171.156 1.461 1.317.118.105.109.098.055.098.066.062.055.047.05.047.043.062.047.114.028.074-.008.066.004.074-.012.012-.012.04-.011.015-.012.039-.07.156-.043.13-.067.155a6.323 6.323 0 0 1-.058.106l-.024.043-.164.285-.16.289-.074.133-.055.094c-.023.039-.047.074-.062.101a.755.755 0 0 1-.024.04l-.07.077-.07.11-.07.078-.098.11-.047.105-.035.062-.07.078-.083.149-.133.172-.117.183-.144.16-.106.172-.238.317-.25.336-.254.304-.238.293-.133.149-.094.132-.11.118-.105.12-.386.403-.438.457-.254.23-.219.239-.277.258-.27.265-.3.285-.282.258-.304.258-.317.274c-.113.109-.218.203-.316.285a6.4 6.4 0 0 0-.254.215c-.078.046-.14.093-.2.136a1.066 1.066 0 0 1-.136.098c-.039.027-.094.062-.164.105l-.254.145-.332.234-.37.223-.349.2-.37.167-.383.188-.391.164-.387.156-.398.125-.707.191-.742.102-.766.039-.817-.059-.812-.148-.754-.266-.695-.383-.664-.527-.73-.754-.54-.824-.39-.887a3.181 3.181 0 0 1-.114-.488 4.587 4.587 0 0 1-.05-.504l-.079-.969c-.004-.117-.004-.218-.004-.304.008-.082.012-.149.016-.192 0-.035.004-.093.02-.18.011-.085.027-.19.043-.32l.156-.953a5.175 5.175 0 0 1 .27-.941l.03-.117.07-.157.044-.105.07-.156.227-.524.129-.246.113-.262.043-.105a.428.428 0 0 0 .066-.082c.012-.028.02-.043.016-.063l.059-.09a.713.713 0 0 0 .078-.101.255.255 0 0 0 .039-.082c.015-.02.035-.04.05-.066a.25.25 0 0 0 .032-.079c.02-.02.031-.035.035-.054.012-.02.012-.035.012-.051l.093-.133a.533.533 0 0 0 .078-.098c.02-.035.036-.062.04-.086a.257.257 0 0 0 .046-.066.728.728 0 0 0 .04-.078c.011-.02.027-.04.03-.055a.12.12 0 0 0 .012-.05l.094-.133.11-.172c.039-.043.074-.09.105-.13.031-.046.059-.093.082-.132.04-.047.074-.09.11-.137.027-.043.058-.086.078-.129l.207-.253c.039-.047.078-.086.105-.133a.7.7 0 0 0 .086-.133l.395-.469c.085-.094.164-.183.23-.262.063-.082.113-.156.164-.226l.18-.2.203-.257.168-.211.191-.215.059-.062.05-.055.036-.04.058-.07.051-.054.059-.067.062-.043.063-.062.082-.094.11-.12.109-.095.109-.12.105-.122.125-.105.094-.082.11-.125.097-.051.11-.121.113-.125.094-.106.097-.054.11-.121.086-.094.105-.098.086-.066.066-.04.07-.081.06-.07.085-.063.063-.043.058-.067.063-.043.12-.082.087-.093.086-.07.07-.079.102-.054.105-.122.125-.082.11-.12.074-.032.105-.117.078-.082.07-.055.11-.12.145-.11.097-.106.07-.082.09-.093.035-.04.047-.027.098-.11.07-.077.075-.082.074-.028.11-.097.073-.004.012-.012.016.012.035-.012.016.012.027.023.039.035.016.063.054.047.059.125.078.07.094.086.097.082.082.152.133.117.133.149.148.133.149.183.203.176.215.195.242.22.078.07.028.05.054.047.016.063.004.078-.024.078-.07.078-.086.043-.09-.008-.066-.058-.055-.047-.09-.012-.066-.059-.078-.047-.121-.058c-.008-.008-.016-.012-.024-.012s-.015-.004-.027-.008a.14.14 0 0 1-.043-.007c-.012-.004-.02-.004-.02-.004l-.12-.082-.09-.008L33.89 30l-.078.004-.079-.02-.062.016-.09-.008-.062.016-.028-.024-.062.016-.028-.023h-.023l-.04.015h-.023l-.05.004h-.028l-.035.016h-.023l-.04.015-.038-.011-.04.015-.027.004-.222.063-.215.047-.25.113-.258.129-.559.324-.617.387-.66.496-.711.597-.738.715-.785.817-.446.52c-.097.109-.176.202-.246.288-.066.082-.125.16-.172.23-.082.09-.156.184-.226.282a2.462 2.462 0 0 0-.192.289l-.414.57-.402.66a.78.78 0 0 1-.086.137c-.035.047-.07.114-.11.192l-.046.101a.38.38 0 0 1-.059.094c-.008.023-.016.055-.027.086-.012.027-.02.055-.028.082l-.293.754-.238.804-.117.668-.043.641.047.668.16.656.23.668.364.617.426.598.55.547.493.395.476.332.524.25.554.164.543.125.528.086.511.05.469-.011.207.043.215-.028.219-.023.199-.035.101-.008.102-.028.078-.007.086-.016.176-.035.14-.043c.106-.016.204-.031.286-.05.078-.016.14-.028.18-.04.05-.02.109-.043.179-.066a1.6 1.6 0 0 0 .246-.11l.86-.34.831-.41.805-.515.746-.535.707-.598.68-.621.664-.711.074-.078.219-.242.105-.122.11-.12.097-.133.106-.118c.023-.027.043-.054.062-.082a.182.182 0 0 0 .02-.062l.07-.082.075-.106.078-.12.086-.095.074-.078.07-.132.07-.079.059-.117.07-.082.07-.129.06-.093.046-.102.082-.172.078-.195.043-.106.035-.117.008-.062.008-.067-.004-.097-.027-.079a.095.095 0 0 1-.035-.054.173.173 0 0 1-.012-.059l-.055-.07-.066-.11-.043-.039-2.274-2.046"/><path style="stroke:none;fill-rule:evenodd;fill:#46925d;fill-opacity:1" d="m42.918 31.586-.805-10.465.004-.129-.004-.172-.015-.054.015-.075-.004-.105.032-.148.054-.118-.015-.015.035-.02.043-.031.047-.027.015-.012.008.015.067.004h.128l.075.012.093.05c.016.02.028.036.043.048.016.011.028.015.04.008.003.011.011.011.015.011l.008-.008.144.06.168.062.243.14.445.227.633.34.84.398.949.477.972.507 1.024.516 1.055.54.726.386.719.347.347.204.356.152.312.187.36.153.656.347.59.282.531.258.461.214.59.282.547.18.418.113.383.03.316-.01.293-.04.246-.055.238-.09.114-.03c.035-.009.07-.02.097-.028.028-.012.047-.024.059-.027l.144-.075.137-.09.098-.042.105-.07.09-.055.125-.079.043-.03.047-.032.023.008.043-.032h.067l.039-.003.023.03-.027.06-.082.074-.066.062-.09.059-.051.058-.09.059-.18.113-.257.168-.329.219-.441.281-.242.16-.254.164-.254.145-.258.164-.27.176-.242.156-.28.16-.317.211-.031.016-.043.031-.047.031-.063.04-.074.046-.043.031-.047.028-.043.031-.047.027-.117.055-.18.117-.136.086-.086.035-.028-.043-.011-.015.027-.063.02-.031.015-.012.055-.078.016-.008.02-.039.015-.008-.008-.015.023-.059.008-.09v-.066l-.039-.063-.02-.027-.03-.047-.016-.027h-.043l-.02-.027-.035-.02-4.57-2.375-.032.043-.011-.016-.04.004-.023-.004-.047.032h-.043l-.043.03-4.89 3.11-.016.078-.066.063-.004.027-.024.059-.015.07.355 3.527.028.239.023.203.04.164.034.148.043.164.078.122.067.132.058.09.067.106.093.047.11.035.121-.016.117-.012a1.59 1.59 0 0 0 .106-.035.155.155 0 0 0 .05-.023l.141-.047.148-.07.055-.016.043-.031.047-.032.043-.027.2-.191.073.015.11-.03h.066l.016-.009.05.012.016.031-.027.02-.047.027-.05.055-.036.047-.074.047-.05.054-.08.051-.089.055-.066.023-.094.063-.18.117-.12.078-.09.059-.094.058-.059.04-.074.046-.063.04a.357.357 0 0 0-.129.042c-.039.027-.054.04-.054.04l-.106.066-.137.086-.09.062-.093.059-.09.058-.117.078-.137.086-.11.07-.116.079-.137.09-.09.054-.227.149-.132.129-.137.09-.117.078-.137.085-.273.18-.125.102-.09.058-.137.086-.105.07-.075.051-.047.028-.058.039-.074.05-.063.04-.11.07-.097.043-.074.05-.074.02-.082.035-.059.04-.05-.008.011-.051.012-.012.027-.059.035-.042.031-.024.036-.043.043-.027.015-.012.047-.027.043-.032.047-.03.09-.055.039-.047.043-.028.047-.03.043-.032.035-.043.015-.012.364-.297.265-.32.211-.336.11-.324.054-.317.032-.343-.004-.336-.004-.407-.032-.046zm5.48-5.941.043.035.047-.028.02-.035-.008-.015-.031-.047-4.864-2.762h-.066l-.074-.016-.067-.004-.066.024-.023.039-.004.023-.016.075v.062l.004.043.645 5.356.039.058-.008.047.015.031.043-.004.024.008.043-.031-.028-.043 4.332-2.816"/><path style="stroke:none;fill-rule:evenodd;fill:#46925d;fill-opacity:1" d="m58.777 23.617.211.516c.032.09.063.168.094.234a.488.488 0 0 0 .098.156l.187.317.184.207.199.137.227.093.222.035.278-.015.015-.008.004.016.05-.016.009.016.05-.016.086-.027.067-.024h.097l.106-.031.07-.008.051-.015.094-.012.117-.043.187-.067.118-.039.101-.035.086-.031.055-.02.02.016.05-.02.043.005.02.015.007.012.04.008.007.02-.043.05-.078.047-.043.031-.07.027-.094.051-.105.035-.153.055-.101.031-.153.055-.101.035-.16.035-.102.035-.133.047-.105.035-.219.079-.207.066-.203.074-.187.063-.18.027-.156.05-.153.056-.101.03-.106.036-.152.055-.102.035-.187.062-.102.04-.117.035-.137.05-.113.059-.148.066-.203.075-.153.05-.203.07-.191.063-.102.035-.102.04-.101.035-.098.05-.117.043-.101.032-.102.035-.102.039-.105.035-.09.012-.07.02-.051.003-.094.012-.027-.032-.012-.03.04-.052.011-.023.031-.012.047-.035.05-.015.122-.043.305-.106.097-.05.102-.036.121-.082.02-.008.042-.035.051-.015.086-.028.055-.058.187-.122.149-.183.058-.211.032-.238-.04-.293a1.95 1.95 0 0 1-.062-.2.456.456 0 0 1-.012-.175l-.12-.453-.169-.551-.347-1.117-3-8.711-.063-.192-.058-.168-.047-.136.011-.133.028-.09.027-.082.04-.055.062-.039.093.004.063.016.078-.004.094.004.086.027.062.016.106.02.011.038.051-.02.004.02.016-.008.062.016.063.02.047.02.062.015.086.027.102.024.332.132.699.196 1.02.316 1.35.39 1.571.47 1.657.496 1.718.511 1.805.543.062.016.067.031.066.02h.094l.07.035.067.035.066.016.125.03.067.036.062.016.078.011.067.016.066.035.062.016.067.015.101.024.082.023.106.028.086.027.996.3.96.298.903.3.914.274.817.273.687.18.516.164.398.11-3.27-8.618-.167-.324-.149-.309-.156-.234-.152-.176-.176-.11-.227-.058-.254-.023-.261.011-.051.02-.023-.008-.051.016-.055.015-.047.02h-.058l-.051.016-.035.011-.157.04-.12.038-.141.032-.121.039-.102.035-.11.02-.1.035-.052.02-.136.042-.059-.015-.031-.028-.02-.05V9.3l.086-.081.082-.031.102-.051.101-.035.102-.04.016-.003.05-.02.051-.016.035-.011.051-.016.05-.02.102-.035.067-.023.203-.07.094-.012.168-.059.105-.039.188-.062.152-.055.172-.055.152-.054.09-.012.102-.031.074-.012.152-.05.137-.048.172-.058.133-.047.152-.055.121-.039.187-.066.102-.031.102-.036.12-.043a.631.631 0 0 0 .098-.043.22.22 0 0 0 .043-.043l.137-.046.305-.11.207-.066.152-.055.102-.031.093-.055.102-.035.07-.023.203-.07.086-.028.102-.035.074-.008.086-.031.086.027.07.035.004.016-.004.039-.039.055-.039.05-.101.035-.106.036-.05.015-.079.047-.05.02-.07.023-.079.047-.07.02-.094.054a1.492 1.492 0 0 0-.207.09.388.388 0 0 0-.125.102l-.211.168-.113.168-.051.191.004.227.031.253.067.305.12.356.407 1.23 2.965 8.727.082.238.066.187.043.176.043.137.043.117.031.086-.008.094-.02.105v.055l-.038.055-.152.05-.118.004-.093-.008-.075.008-.097-.004-.082-.011-.274-.024-.34-.105-.472-.106-.57-.164-.192-.05-.398-.11-.621-.148-.801-.22-.899-.241-.988-.27-1.016-.297-1.039-.308-.062-.016-.063-.02-.062-.011-.067-.02-.125-.035-.132-.047-.121-.031-.133-.05-.16-.024-.125-.031-.125-.036-.133-.046-.5-.133-.258-.082-.258-.086-.062-.016-.063-.012-.062-.02-.028-.026-1.37-.387-1.282-.395-1.219-.398-1.176-.375-1.086-.332-.875-.27-.66-.21-.457-.165-.02-.05 3.141 8.054M93.102 21.54c-.188-.032-.399-.075-.63-.118-.23-.05-.46-.098-.699-.152l-1.218-.258a1.838 1.838 0 0 0-.137-.043c-.05-.016-.09-.028-.125-.043-.047-.004-.094-.012-.145-.02a.495.495 0 0 1-.14-.035 1.399 1.399 0 0 0-.137-.043c-.047-.012-.094-.023-.14-.043-.047-.02-.09-.035-.141-.055a3.318 3.318 0 0 1-.137-.054l-1-.395-.93-.437c-.168-.082-.296-.149-.382-.192-.082-.05-.125-.074-.125-.074a11.6 11.6 0 0 1-.207-.148c-.063-.047-.106-.075-.125-.09l-.75-.543-.512-.41-.438-.414-.382-.43-.313-.438-.27-.43-.218-.445-.168-.418-.13-.433-.034-.149-.035-.152-.036-.133-.039-.144-.05-.297c.004-.063.007-.113.007-.164a.234.234 0 0 0-.03-.13v-.144l.019-.144-.024-.129.02-.14.015-.27.032-.274.039-.285a1.05 1.05 0 0 1 .031-.183.415.415 0 0 1 .062-.149l.098-.351.156-.375.172-.38.25-.406.262-.382.34-.395.043-.05.062-.063.024-.055.062-.043.117-.097.125-.13.364-.28.16-.126.258-.203.297-.199.156-.09.18-.105.171-.086.176-.09.688-.297.793-.262.843-.222.965-.192 1.047-.105 1.238-.031 1.317.05 1.5.153.11.011.163.02.156.02.165.019.156.04.16.019.164.02.156.019c.074.007.137.02.188.03a.664.664 0 0 1 .133.044l.375.047.316.058.375.063c.047.015.082.031.102.039.027.008.042.016.054.016l.32.039.09.027c.055.023.106.035.149.05.039.009.066.012.078.016l.16.02c.047.015.078.031.106.043.023.008.039.012.05.012l.16.02.352.097.371.082.332.078.356.082a.596.596 0 0 0 .097.035c.028.012.047.02.059.02l.164.02c.031.015.062.027.09.038.031.008.05.016.062.016l.18.02.16.023.086.027.23.047.16.02.087.046.12.032.087.066.011.055.032.043-.004.035-.008.05-.04.032-.01.074-.067.098-.008.07-.012.11-.015.109-.004.015-.02.036-.004.035-.043.047-.008.054-.011.11-.012.105-.031.086-.012.09-.012.11-.02.175-.01.07-.044.051-.008.09-.008.035-.003.055-.004.035-.008.055-.012.09-.012.086-.015.125-.008.074-.008.07-.012.07v.036l-.007.054-.008.07-.028.07-.007.056-.012.109-.012.066c-.015.036-.027.063-.043.078a.108.108 0 0 1-.023.024l-.008.074-.008.07-.039.032-.062.047-.075.027-.105-.016-.106-.047-.023-.113.012-.07.008-.07.011-.09v-.016l.004-.035.004-.04.012-.054.004-.05-.028-.243-.043-.238c-.007-.024-.015-.05-.027-.067-.012-.02-.012-.035-.012-.046l-.039-.133a1.282 1.282 0 0 1-.023-.086c-.012-.027-.016-.055-.012-.067a.122.122 0 0 0-.027-.046c-.016-.004-.02-.016-.016-.032l-.074-.117-.066-.098-.094-.101-.074-.117-.391-.375-.371-.227-.457-.258-.293-.105-.274-.14-.316-.114-.344-.133-.738-.219-.79-.187-.816-.152-.851-.141c-.11-.016-.203-.024-.285-.035-.086-.012-.168-.024-.254-.031-.078-.008-.172-.02-.274-.024-.105-.012-.207-.012-.32-.012l-1.004-.07h-.87a5.346 5.346 0 0 1-.247.008c-.078 0-.16 0-.242-.016-.063.02-.121.035-.168.047a.31.31 0 0 1-.11.012l-.667.117-.575.11-.507.14-.434.129-.059.027-.113.04-.078.046-.094.043-.777.41-.602.453-.492.5-.375.536-.289.582-.203.609-.168.648-.102.66c-.023.215-.039.426-.03.637.003.215.015.422.038.633.035.219.078.438.13.64.054.208.12.403.21.598.082.204.184.407.305.61.12.199.257.402.414.601.144.211.304.414.48.602.172.191.367.387.574.578.196.184.399.36.622.531.218.172.449.336.683.5.219.149.465.29.738.418.266.13.543.258.829.39.285.122.582.231.89.337.309.105.63.195.957.273.164.032.324.067.485.102a12.424 12.424 0 0 0 1.015.2c.18.03.363.054.555.077l.715.086c.129.02.258.031.386.04.125.01.23.01.313.01l.652.024.633.008.567-.039.535-.098.507-.136.465-.215.078-.063.059-.027.059-.031.039-.051.062-.027.078-.082.102-.059.023-.05.059-.048.066-.086.043-.046.059-.047.07-.117.067-.102.023-.055.047-.062.023-.055.04-.05.03-.087.063-.082.012-.07.062-.086.047-.062.024-.051.058-.067.067-.05.05-.008.055.008.086.043.047.062.012.035-.008.055.035.039-.016.11-.046.081-.036.145-.054.152-.07.14-.032.106-.012.09c-.015.043-.035.078-.05.11a.227.227 0 0 1-.024.043l-.012.109a.542.542 0 0 1-.043.074l-.023.024-.016.109-.039.047-.027.086c-.02.047-.035.086-.055.113a.893.893 0 0 1-.02.043l-.01.07a.374.374 0 0 1-.044.075c-.016.015-.023.027-.023.027l-.008.07-.063.082-.007.07-.063.051-.008.07-.062.063-.008.074-.066.067-.004.05-.008.055-.043.031-.055.032-.008.05-.054.028-.024.015-.054.032-.098.043-.074.008-.04.015-.054.012-.016-.004-.058.031-.055-.012-.055.012-.222.012-.25-.012-.11.004-.129.004-.414.004-.453-.004-.254-.012-.238.004-.246-.027-.238.004-.485-.04a1.345 1.345 0 0 0-.484-.038l-.215-.012-.164-.02-.156-.02-.164-.019-.16-.02-.165-.003-.16-.016-.16-.02-.535-.066a1.86 1.86 0 0 0-.238-.05 3.473 3.473 0 0 1-.223-.028c-.11-.023-.2-.043-.277-.058a2.805 2.805 0 0 0-.203-.036v.016M105.84 15.48l.273-.84.242-.734.18-.562.133-.414.05-.153.055-.172.012-.148.043-.137.043-.117.04-.121.019-.125.035-.102.004-.02.011-.03c.008-.04.016-.067.016-.09.008-.027 0-.055 0-.078v-.028c-.004-.007-.008-.02 0-.027l.02-.184-.02-.175-.058-.172-.106-.13-.18-.151-.199-.141-.27-.164-.05-.016-.047-.035-.102-.031-.07-.024-.043-.035-.086-.027-.101-.031-.047-.036-.07-.023-.153-.047-.086-.031-.07-.02-.078-.046-.04-.051.016-.051.051-.04.082-.03h.059l.09.027.07.008.105.031.102.035.101.031.102.036.102.03.105.032.137.047.101.031.121.04.051.019.047.031.152.055.102.031.086.027.055.02.101.031.156.05.102.032.066.024.051.015.18.094.168.059.191.058.153.05.12.04.102.035.137.043.101.035.172.055.293.094.41.136.461.149.477.156.496.16.535.172.492.164.48.153.446.144.43.14.183.06.207.07.153.046.16.036.105.03.122.04.152.05.187.06.157.05.148.055c.04.008.07.015.102.02.03.003.05.003.066-.008l.125.023.14.043.102.035h.114l.015.004h.117l.032.012.02.004h.054l.039-.004.02.004h.054l.05.015.036.012-.008.02.043.05-.012.032.012.023-.012.035-.007.016-.008.035-.035.043-.008.039-.05.035-.075.055-.024.066-.023.07-.035.043-.055.06-.027.03-.02.051-.02.066-.019.051-.043.028-.015.05-.02.051-.016.051-.035.043-.02.07-.09.102-.03.086-.032.101-.02.07-.015.036-.004.015-.046.024-.004.02-.016.05-.02.05-.03.102-.032.047-.02.051-.015.05-.012.036-.047.024-.004.015-.011.035-.063.02-.012.031-.027.031-.063.016-.042.004-.067-.02-.098-.05-.027-.086.027-.086.016-.051.012-.031-.016-.067.047-.152v-.055l.023-.07-.03-.07.015-.051.012-.031-.032-.032.004-.015-.004-.04.004-.019-.023-.101-.031-.067-.043-.05-.036-.071-.109-.129-.09-.125-.183-.137-.286-.168-.183-.078-.192-.101-.222-.07-.235-.114-.097-.031-.149-.07-.07-.02-.102-.031-.136-.047-.106-.031-.41-.137-.098-.047-.117-.039-.156-.05-.133-.048-.16-.05-.148-.047-.313-.102-.113-.055-.153-.05-.156-.051-.152-.05-.102-.032-.242-.078-.168-.059-.14-.043-.102-.031h-.113l-.032.047-.02.05-1.534 4.723-.028.086-.02.067-.007.074.086.027.121.04.152.05.243.078.27.09.308.098.344.113.328.105.355.118.309.097.308.102.157.05.152.047.137.047.152.051.258.082.222.074.192.059.125.008.207.066.219.031.195.043.156.032h.117l.125.007.118-.003.16-.024.066-.031.125-.04.063-.015.023-.012.031.012.063-.02.02.008.038-.007.02.007.031.012-.004.016.016.004.031.03.012.02-.012.036.028.027-.024.07-.043.02-.02.055-.038.062-.079.07-.027.082-.027.09-.051.04-.024.066-.027.027-.012.035-.043.024-.02.054-.03.102-.035.043-.024.07-.07.05-.035.102-.04.122-.023.07-.031.101-.094.106-.062.203-.028.086-.031.086-.02.066-.027.086-.012.035-.007.02-.012.031-.016.051-.05.043-.012.031-.028.028-.062.02-.063.015-.082-.028-.105-.03v-.06l.023-.066.02-.07.023-.07-.015-.06.02-.07.019-.066.008-.074v-.117l.015-.106-.039-.05.012-.036.008-.035-.032-.008.012-.039-.043-.05-.043-.09-.02-.063-.038-.05-.043-.051-.04-.051-.054-.055-.14-.101-.188-.122-.23-.109-.262-.125-.137-.043-.168-.055-.207-.07-.23-.11-.153-.05-.105-.031-.153-.051-.094-.05-.156-.052-.105-.03-.153-.052-.101-.035-.156-.047-.305-.101-.149-.067-.156-.05-.152-.051-.156-.047-.102-.035-.152-.051-.106-.031-.101-.035-.094-.051-.156-.051-.106-.031-.05-.016h-.055l-.02-.008-.039.008-.004.016-.023.012-.012.035-.004.015-.472 1.453-.024.07-.027.087-.059.172-.039.12-.039.133-.047.137-.043.14-.047.134-.02.07-.027.07-.062.203-.023.07-.016.051-.086.258-.156.477-.067.207-.066.203-.055.172-.039.12-.027.087-.117.418c-.004.086 0 .156.004.219a.763.763 0 0 0 .03.148l.09.293.184.25.29.227.523.246.652.27.867.296.102.035.152.051.156.047.305.101.313.102.207.05.156.048.176.039.156.05.164.016.16.031a.35.35 0 0 0 .106.028c.02 0 .043 0 .058-.012l.164.02.149.007.246.004.238-.035.219-.039.203-.09.148-.12.184-.15c.004-.023.016-.038.023-.05a.136.136 0 0 1 .036-.024s.007-.003.011-.003l.016-.008.09-.102.07-.11.098-.12.039-.063.015-.055.075-.046.066-.04h.059l.05.02.051.016.028.027.039.07-.012.036.004.039-.016.05-.012.036-.004.015-.007.016-.012.039-.04.058-.03.106-.059.055-.11.171-.046.137-.063.13-.078.128-.015.05-.012.036-.031.047-.02.05-.05.04-.028.086-.086.086-.02.07-.035.043-.09.101-.03.09-.09.102-.051.054-.079.055-.062.016-.117.02h-.117l-.172-.04-.215-.05-.152-.047-.145-.032-.172-.05-.183-.063-.36-.117-.363-.117-.32-.106-.313-.101-.336-.13-.27-.085-.312-.102-.258-.082-.5-.199-.496-.164-.43-.14-.359-.114-.379-.16-.328-.11-.289-.093-.258-.082-.219-.09-.203-.067-.187-.062-.121-.04-.133-.042-.223-.074-.16-.051-.148-.05-.192-.06-.183-.023-.203-.062-.051-.02-.086-.027-.106-.032-.148-.05-.16-.051-.153-.05-.101-.036-.152-.047-.055-.02-.07-.003-.102-.035-.106-.032-.101-.035-.082-.043-.067-.023-.046-.035-.079-.043-.007-.04.011-.035.063-.015.023-.016.032.016h.058l.051.011.07.028.153.047h.054l.051.015.055.016.05.02h.06l.151.046h.06l.03.012.024-.012.035.012.184.023.156-.027.133-.05.14-.087.04-.062.073-.05.024-.071.078-.067.102-.14.113-.168.125-.281c.023-.07.05-.137.074-.196a.605.605 0 0 1 .094-.148l.062-.188.086-.199.07-.223.079-.242.078-.238.086-.254.086-.277.12-.262.095-.273.09-.29.097-.292.098-.309.02-.05.976-3.013M119.457 24.645l-.469.847-.375.719-.3.613a3.754 3.754 0 0 0-.141.274.69.69 0 0 0-.067.21 2.008 2.008 0 0 0-.113.223.504.504 0 0 0-.05.18l-.07.352-.013.28.094.239.106.18.144.183.203.196.258.203.305.23.445.27.527.312.645.36.441.242.465.234.403.207c.082.043.164.086.238.121.078.035.14.063.191.075l.371.14.356.098.347.047.332-.04.086-.019.114-.016.086-.035.07-.02.035-.027.078-.035.106-.066.078-.04.058-.027.032-.027.05-.012.008-.015.035-.024.016-.03.043.003.016-.035.035-.02.008-.015.058-.032.024-.046.101-.07.024-.048.035-.02.082-.038.07-.02.059.008.093.055.024.035.02.07-.016.035v.036l-.035.066-.028.047-.035.062-.058.07-.055.094-.067.047-.074.098-.035.062-.074.063-.04.066-.124.114-.078.144-.07.02-.055.093-.102.07-.039.075-.043.043c-.031.02-.055.043-.074.059l-.035.023-.043.078-.082.035-.035.063-.008.02-.051.011-.016.031-.082.04-.043.038-.062.004-.067.004-.113-.02-.11-.023-.183-.078-.254-.098-.16-.09-.18-.078-.187-.105-.203-.113-.332-.184-.88-.488-.276-.172-.254-.14-.266-.15-.238-.132-.453-.293-.426-.234-.39-.219-.38-.207c-.078-.059-.144-.106-.199-.145a1.542 1.542 0 0 1-.152-.113l-.34-.168-.328-.183-.285-.16-.274-.169-.285-.156-.281-.16-.239-.129-.125-.07-.113-.063-.12-.066-.145-.078-.141-.082-.156-.086-.192-.067-.187-.101-.094-.055-.098-.05-.28-.157-.141-.082-.098-.05-.14-.079-.048-.027-.074-.016-.09-.054-.097-.051-.094-.055-.067-.059-.066-.035-.035-.043-.074-.058.004-.04.02-.034h.062l.023-.008.031.015.059.012.043.023.062.04.098.05.047.028.055.011.046.024.051.027.043.028.059.007.047.028.05.027.043.023.055.012.031.02.028-.012.031.02.172.054.164.008.137-.027.156-.059.05-.05.083-.04.035-.062.09-.055.129-.113.14-.145.18-.254a1.92 1.92 0 0 1 .11-.175.413.413 0 0 1 .12-.125l.094-.176.121-.18.114-.203.124-.223.122-.218.129-.239.14-.25.172-.234.137-.254.152-.266.145-.265.16-.285 1.558-2.817.43-.773.375-.676.29-.52.206-.375.078-.144.09-.156.035-.145.074-.125.118-.219.047-.12.054-.094.008-.016.02-.031c.011-.032.027-.063.035-.086.004-.024.008-.047.008-.075.007-.007.007-.015.007-.027-.004-.008 0-.015.004-.027l.055-.176.02-.176-.028-.18-.082-.148-.148-.183-.164-.172-.239-.215-.043-.028-.039-.043-.047-.023-.05-.027-.063-.035-.039-.043-.074-.04-.094-.054-.043-.043-.062-.031-.047-.028-.09-.05-.082-.047-.063-.036-.07-.058-.031-.059.027-.047.059-.027.09-.012.054.008.078.043.075.02.09.054.097.051.094.05.094.056.093.05.098.055.125.066.094.051.11.067.046.023.04.043.144.078.09.051.078.047.05.023.09.055.145.078.094.05.062.036.05.027.153.125.156.086.176.098.14.082.11.059.094.05.129.075.187.101.16.09.141.078.172.094.191.105c.051.028.094.047.13.063.03.012.066.02.09.02l.077.042.094.051.098.055.093.05.157.09.14.079.176.093.281.157.153.062.062.035.047.028.078.043.047.027.094.05.054.051.082.047.036.04.039.081.02.036-.024.046-.051.012-.062.004-.02-.008h-.035l-.05-.027-.017-.008-.078-.043-.047-.027-.074-.016-.078-.047-.09-.05-.062-.036-.106-.035-.078-.047-.05-.023-.051-.012-.051-.027-.047-.024-.277-.093-.223-.043-.219-.016-.144.04-.164.077-.13.113-.132.133-.121.18-.02.027-.008.02-.16.176-.12.222-.138.254-.168.297-.207.375-.289.52-.375.68-.457.82.028-.051-1.555 2.805M131.758 33.219l-.446.515-.39.45-.379.433-.34.395-.32.367-.246.336c-.051.062-.102.12-.14.176a.337.337 0 0 0-.067.144 1.799 1.799 0 0 0-.11.14.259.259 0 0 0-.047.126l-.117.16-.066.156-.067.16-.011.18v.164l.09.2.113.195.195.214.02.063.078.074.191.164.082.098.059.07.12.11.08.07.085.07.055.047.062.059.086.07v.023l.043.04.016.039v.02l-.016.015.02.039-.012.011-.024.028-.027-.024-.066-.03-.055-.024-.066-.059-.067-.035-.082-.07-.12-.106-.083-.07-.121-.11-.082-.066-.082-.074-.164-.14-.078-.071-.07-.086-.087-.07-.078-.07-.082-.07-.164-.145-.148-.125-.137-.122-.121-.105-.164-.191-.164-.141-.137-.121-.125-.106-.105-.093-.082-.07-.082-.075-.094-.078-.082-.074-.11-.098-.12-.101-.126-.106-.132-.121-.176-.102-.078-.07-.082-.07-.043-.035-.055-.051-.078-.067-.125-.109-.242-.21-.082-.071-.121-.11-.043-.03-.079-.052-.082-.066-.164-.14-.043-.063-.07-.059-.023-.05-.043-.06-.008-.05.023-.027.067.008.039.007.011.012.055.024.04.035.07.058.082.07.039.036.05.023.043.035.04.036.042.035.051.023.043.035.078.07.055.024.012.012.039.008.015.011.172.102.145.031h.14l.16-.023.079-.028.09-.02.043-.054.101-.035.148-.086.168-.113.215-.223.14-.148a.604.604 0 0 1 .15-.098l.128-.148.172-.141.153-.176.328-.383.18-.203.187-.215.203-.207.187-.215.204-.234.199-.23.21-.243 5.044-5.8-3.04-2.594-.28-.168-.204-.18-.226-.148-.176-.13-.188-.112-.16-.145c-.047-.023-.082-.039-.11-.055l-.038-.023-.133-.094a.672.672 0 0 0-.266-.137l-.25-.093-.246-.047h-.215l-.164.023-.113.024-.129.008-.07.007-.078.004-.051.028-.074.007-.086.016-.04.043-.066-.008-.011.016-.028-.027-.062-.008-.04-.035-.015-.012-.078-.07.004-.067.05-.055.048-.05.085-.047.06-.067.12-.058.11-.098.132-.074.137-.07c.02-.02.031-.036.047-.043.02-.008.039-.024.062-.032 0 0 .008-.004.02-.007l.02-.008.023-.028.039.012.012-.012.047-.054.086-.024.05-.05.086-.02.047-.055.05-.027.048-.055.09-.02.093-.058.075-.055.113-.046.047-.004.023-.028.028-.027.066.008.023-.028.036-.011.011-.016.063.008.078-.008.039.012.012.012.043.035.015.039.04.035.027.05.02.063.07.106.085.125.098.132.102.133.078.07.082.07.097.083.043.086.122.11.12.105.126.105.191.215.164.145.164.14.16.14.14.145.122.106.098.082.105.094 7.695 6.617.184.23.227.203.086.067.12.11.083.07.105.066.16.144.192.118.144.128.164.09.121.078.079.075.082.066.12.059.079.047.054.046.051.02.04.035.042.04.016.034.004.028-.024.023-.023.027v.055l-.047.055-.02.023-.039.04-.023.027-.035.043-.063.02-.07.077-.133.153-.066.082-.074.078-.047.054-.059.07-.012.013-.046.054-.024.024-.035.043-.16.101-.258.3-.086.095-.043.054-.047.055-.05.055-.047.027-.036.04-.05.003-.063-.008-.055-.023-.015-.008-.04-.035-.07-.086.008-.09.082-.098.059-.066.137-.215.023-.05c.008-.024.012-.051.016-.07 0-.02.007-.036.011-.048l.012-.09-.012-.129-.07-.277-.11-.281-.23-.367-.363-.438-.52-.523-.246-.207c-.035-.035-.086-.082-.156-.153a15.476 15.476 0 0 1-.238-.242l-2.535-2.324-5.008 5.758M140.32 42.016l-.523.441-.453.379-.442.371-.402.336-.371.312-.305.282c-.062.054-.117.101-.168.148a.417.417 0 0 0-.086.133 2.373 2.373 0 0 0-.132.121.338.338 0 0 0-.067.121l-.129.153-.09.148-.09.14-.039.18-.027.16.047.196.086.21.168.258.004.067.14.164.082.098.079.12.03.067.102.125.07.082.075.082.055.07.046.055.036.043.03.04.013.038.035.043-.004.024.008.039-.012.011v.028l-.016.011-.027.024-.012-.012-.07-.062-.05-.032-.048-.05-.07-.059-.07-.086-.106-.12-.066-.087-.106-.121-.07-.082-.066-.082-.141-.164-.066-.086-.059-.094-.07-.082-.067-.082-.07-.082-.137-.168-.117-.137-.129-.152-.101-.125-.125-.2-.137-.163-.13-.153-.1-.125-.083-.097-.14-.164-.09-.11-.074-.086-.078-.093-.106-.13-.101-.12-.13-.153-.144-.117-.066-.078-.106-.129-.058-.066-.067-.082-.105-.121-.106-.13-.105-.12-.07-.082-.102-.125-.035-.043-.059-.04-.07-.085-.07-.082-.067-.082-.047-.083-.043-.054-.023-.055-.043-.082.016-.035.027-.023.062.019.028.004.02.023.05.032.031.043.051.054.066.082.036.043.046.032.036.039.039.043.03.039.048.03.039.044.031.039.035.043.047.027.028.028.023.003.023.028.145.113.144.066.141.024.164.004.07-.035.09-.004.051-.047.106-.02.156-.062.187-.082.258-.172c.059-.047.11-.086.164-.125a.531.531 0 0 1 .16-.074l.153-.13.175-.124.18-.149.195-.164.192-.16.207-.176.223-.183.242-.156.222-.188.235-.195.23-.196.246-.21 2.47-2.067.675-.57.594-.496.453-.38.336-.28.12-.106.137-.113.09-.121.11-.094.097-.078.094-.082.086-.094.082-.07.016-.008.027-.027a.325.325 0 0 0 .063-.067.163.163 0 0 0 .035-.062c.011-.012.015-.02.015-.028a.082.082 0 0 1 .016-.023l.117-.145.074-.156.055-.164-.012-.152-.035-.184-.074-.195-.074-.172-.032-.043.012-.012-.07-.086.016-.011-.036-.04-.07-.082-.047-.082-.043-.054-.058-.067-.047-.054-.043-.082-.035-.043-.032-.04-.05-.054-.043-.082-.008-.067.043-.035.062-.008.09.024.05.027.056.07.058.047.07.079.07.086.067.082.094.109.105.125.047.055.035.043.106.12.078.126.106.12.066.087.101.12.075.087.101.12.09.165.125.148.106.125.101.125.082.094.07.086.09.105.075.086.07.082.078.098.102.125.128.152.106.122.168.14.066.086.14.164.079.098.07.082.106.125.105.121.106.129.054.066.036.043.046.055.047.027.07.082.055.07.04.04.066.086.031.066.059.066.023.055.004.094.012.039-.028.02-.015.011-.051-.004-.063-.015-.011-.02-.04-.012-.03-.043-.012-.015-.035-.04-.024-.03-.035-.04-.031-.039-.063-.047-.035-.042-.086-.043-.082-.098-.059-.066-.246-.215-.171-.09-.196-.098-.152-.012-.18.012-.16.063-.172.074-.176.125-.03.023-.013.012-.21.11-.196.16-.219.183-.265.223-.328.277-.457.383-.59.496-.719.602.043-.036-2.43 2.036M142.871 56.52c-.074-.176-.16-.375-.25-.59-.09-.215-.18-.438-.266-.664l-.468-1.157c-.008-.047-.024-.09-.04-.136-.019-.047-.027-.086-.035-.125-.023-.043-.042-.086-.066-.13a1.111 1.111 0 0 1-.05-.136c-.008-.047-.024-.094-.04-.14-.015-.044-.027-.094-.039-.141l-.035-.145c-.012-.047-.023-.093-.031-.144l-.235-1.051-.152-1.016c-.027-.183-.05-.328-.055-.425-.007-.094-.015-.141-.015-.141.008-.098.008-.188.011-.262 0-.074.004-.125 0-.152l.036-.926.05-.652.102-.594.14-.559.188-.5.207-.468.246-.43.254-.371.285-.348.106-.113.101-.113.09-.106.106-.113.214-.211c.055-.027.098-.055.141-.082a.291.291 0 0 0 .09-.094l.117-.082.133-.066.094-.09.129-.067.23-.136.246-.125.254-.13c.063-.03.121-.058.172-.077a.555.555 0 0 1 .156-.032l.348-.113.402-.082.406-.07.477-.016h.465l.515.063.067.008.086.015.058-.012.075.028.14.047.18.03.289.095.148.047.192.062.316.102.328.136.164.078.184.086.172.094.168.098.629.402.668.512.652.574.7.695.675.813.715 1.004.691 1.12.72 1.333.05.094.07.144.149.29.054.152.223.433c.035.067.059.121.078.172.02.05.031.098.035.133l.172.336.133.297.156.343c.012.051.016.086.024.11a.147.147 0 0 0 .02.054l.07.145.074.145.023.086c.02.058.035.109.047.148.016.039.023.066.031.074l.07.145c.012.05.02.086.028.11a.131.131 0 0 0 .016.054l.074.144.113.344.14.355.126.32.129.337c.003.035.015.07.02.097.007.032.015.051.023.063l.074.144a.616.616 0 0 0 .039.16l.082.16.074.145.024.086.093.219.07.145.008.097.043.121-.007.106-.04.039-.015.047-.031.015-.051.028-.047-.016-.063.031h-.125l-.062.035-.094.047-.097.047-.016.012h-.04l-.034.016-.063-.008-.05.023-.094.05-.094.048-.094.023-.074.043-.102.047-.062.035-.098.047-.062.035-.067-.008-.078.04-.031.019-.047.023-.035.016-.047.027-.082.04-.078.039-.113.058-.063.031-.066.036-.094.046-.05.024-.063.035-.075.016-.046.023-.094.05-.067.032a.245.245 0 0 1-.086.008c-.023-.004-.035-.008-.035-.008l-.062.035-.067.032-.046-.016-.075-.024-.066-.046-.047-.098-.02-.11.083-.081.066-.032.062-.035.082-.043.125-.062.051-.028.184-.152.176-.172a.255.255 0 0 0 .039-.059.095.095 0 0 1 .03-.035l.087-.105c.02-.024.039-.043.058-.07.024-.028.036-.04.047-.043a.176.176 0 0 0 .028-.055c0-.012.004-.02.011-.027l.059-.13.047-.105.031-.137.055-.128.094-.532-.02-.433-.047-.524-.074-.304-.031-.305-.086-.324-.082-.36-.23-.73-.29-.762-.328-.766-.36-.785c-.046-.093-.093-.183-.128-.257-.04-.07-.078-.149-.117-.223-.036-.074-.082-.156-.133-.246-.055-.086-.106-.176-.168-.266l-.504-.875-.488-.722c-.051-.067-.094-.133-.145-.196a2.73 2.73 0 0 1-.125-.21l-.129-.114a.669.669 0 0 1-.078-.082l-.465-.492-.414-.414-.394-.34-.352-.29-.055-.03-.097-.075-.082-.039-.086-.054-.778-.414-.71-.243-.696-.133-.648-.011-.645.086-.617.175-.637.223-.597.285a4.553 4.553 0 0 0-.551.328c-.176.125-.34.254-.5.387-.164.153-.32.309-.461.465-.14.16-.266.328-.375.508a4.586 4.586 0 0 0-.336.594 6.924 6.924 0 0 0-.27.683 5.02 5.02 0 0 0-.23.735c-.059.25-.11.515-.16.796-.04.262-.07.536-.09.813a19.99 19.99 0 0 0-.031.848c.004.265.023.546.066.84.04.296.09.597.14.91a11.736 11.736 0 0 0 .528 1.87c.066.157.125.31.188.462.054.152.117.312.187.476.07.156.137.317.215.477.074.164.156.332.246.5l.324.644c.063.117.125.23.188.34.058.11.117.2.164.27l.344.55.347.532.352.445.383.39.394.344.438.262.097.035.059.028.05.035.067.004.059.035.109.023.106.043.058-.004.07.02.106.012.066.003.07.024.137-.008h.121l.055-.008h.082l.059-.011.062.011.09-.027.106.008.062-.032.106.004h.078l.058-.007.086.015.074.024.04.043.023.046.012.094-.024.074-.023.032-.051.023-.016.05-.093.048-.098.008-.137.05-.16.043-.059.008-.093.008-.106.031-.082.043c-.047.012-.086.02-.117.024h-.05l-.095.05a.242.242 0 0 1-.09.004l-.03-.004-.094.051-.067-.008-.09.024c-.047.012-.09.02-.117.023-.035 0-.054.004-.054.004l-.06.035c-.038 0-.065.004-.089 0h-.031l-.067.032-.101-.008-.067.031-.074-.023-.062.035-.09-.016-.063.031-.09-.015-.046.023-.047.028-.051-.016-.055-.035-.05.027-.055-.031-.024-.012-.058-.027-.086-.059-.05-.055-.032-.023-.043-.043-.008-.012-.059-.035-.023-.047-.039-.039-.133-.176-.129-.218-.062-.086-.074-.106-.239-.343-.25-.375-.129-.215-.136-.196-.121-.222-.137-.192-.235-.425a1.981 1.981 0 0 0-.117-.254c-.043-.067-.082-.121-.117-.172l-.113-.184-.078-.144-.07-.145-.15-.289-.089-.133-.074-.144-.07-.145-.247-.484c-.027-.078-.062-.153-.093-.223-.035-.07-.075-.137-.102-.2a8.872 8.872 0 0 0-.105-.26c-.032-.071-.059-.134-.086-.188l-.016.008M156.414 69.863l.867-.168.758-.144.582-.117.426-.079.156-.035.18-.03.133-.063.144-.028.121-.023.121-.028.121-.039.106-.023h.02l.035-.008a.371.371 0 0 0 .152-.066c.012-.004.02-.008.023-.016.008-.004.012-.012.024-.016l.172-.066.144-.102.125-.132.059-.16.047-.227.023-.246.012-.313-.008-.054.008-.059-.024-.101-.011-.075.007-.054-.015-.09-.012-.055-.012-.05.008-.055-.011-.075-.012-.05-.02-.106-.015-.09-.016-.07v-.09l.027-.058.051-.012.059.023.066.063.031.047.016.09.031.066.024.11.02.105.019.101.02.11.038.21.032.141.02.11.023.12.011.055-.007.055.027.156.023.11.02.086.008.054.02.106.034.16.02.105.012.07.011.055v.2l.035.18.04.19.03.16.024.126.02.105.027.141.024.121.054.27.063.316.086.457.093.48.106.528.101.531.106.547.101.527.106.532.098.515.093.492.043.211.043.215.035.195.051.157.028.12.027.141.027.16.012.055.008.051.004.016.007.054.02.086.04.106.023.105.023.125.02.106.027.14.02.106.03.066.067.153.031.05.004.036.024.015.004.035.003.02.047.043.024.031.004.02.027.046.012.055.007.035-.015.024-.027.058-.012.035-.035.012-.012.02-.035.004-.035.007-.059-.003-.031.003-.063-.023-.078-.039-.074.012-.066.015-.06-.007-.077-.024-.04-.008-.054.008-.066.016-.055.007-.043-.027-.055.012-.05.012-.055.007-.055-.004-.07.012-.133-.011-.086.015-.11.02-.066.015h-.039l-.02-.008c-.027-.007-.042-.011-.046-.015l-.012-.008-.074.012-.086.02-.07.015-.07.012-.075.011-.055-.007-.07.015-.043-.047-.039.008-.043-.031-.043-.043-.031-.05v-.02l-.012-.051v-.11l.063-.05.07-.012.05-.012.036-.023.055-.012.062-.047.074-.07.09-.02.07-.03.036-.009.007-.039h.016l.027-.062.016-.004.043-.063.055-.011.023-.059.035-.008.016-.02.02-.003.007-.04.016-.019.02-.004-.008-.035.015-.02.059-.16.047-.14.015-.09.024-.078v-.114l.015-.09v-.113l.012-.109-.023-.129.015-.11-.043-.304-.011-.27-.688-4.101-.066-.047-.055-.098-.066-.058-.055.012-.035.003-4.856.946-.09.015-.07.016-.05.027.019.106.742 3.43-.023.171.03.16.032.157.031.16.02.105.031.16.031.157.043.14.043.211.078.204.047.156c.004.039.02.066.028.097a.13.13 0 0 0 .039.055l.054.102.079.113.074.094.117.125.02.015.046.043.04.032.046.046.047.043.028.051.003.02.008.05-.008.04v.015l-.007.04-.036.007-.015.02-.035.011h-.02l-.035.008-.039-.008-.05.008-.06-.023-.097-.035-.074.011-.07.016-.055-.012-.055.012-.043-.031-.031.011-.059-.007-.07.011-.102-.035-.066.012-.055.011-.07.012-.059-.023-.074-.004-.055.012-.07.015-.07.012-.07.016-.11.02-.129-.032-.11.023-.21.04-.09.015-.066.016-.09.02-.04.003-.07.016-.05.007-.063-.023-.035.008-.063-.043-.046-.063-.02-.09-.02-.105.051-.031.07-.012.036-.004.054-.012.043-.046.055-.012.078-.07.106-.02.07-.012.02-.007.03-.004.016-.024.036-.004.043-.062.054-.012.024-.062.035-.004.043-.063.035-.008.012-.039.05-.12.051-.118.043-.14.047-.157v-.07l.02-.094-.004-.11.023-.077-.004-.22-.008-.218-.011-.055-.016-.086-.012-.074-.004-.105-.027-.145-.02-.105-.027-.125-.02-.106-.058-.297-.055-.285-.058-.32-.02-.27-.07-.351-.059-.32-.062-.317-.055-.281-.058-.3-.04-.216-.035-.16-.02-.102-.01-.054-.028-.051-.004-.02-.024-.03-.058-.009-.066.016-1.45.281-.672.13-.582.112-.57.114-.508.097-.476.094-.407.098a1.508 1.508 0 0 0-.218.05.3.3 0 0 0-.14.075c-.071.012-.13.027-.177.043a.27.27 0 0 0-.117.066l-.184.074-.152.082-.144.086-.121.133-.106.13-.055.194-.03.227.026.305-.023.058.02.11.02.105.026.125.008.14-.008.075.036.16.02.106.023.109.011.086.016.074.023.102-.011.039.011.054-.015.02-.016.039-.016.004-.011.023h-.02l-.035.008-.004-.02-.035-.081-.027-.047-.012-.074-.035-.082-.02-.11-.035-.16-.016-.106-.035-.156-.02-.105-.019-.11-.02-.105-.023-.106-.02-.105-.003-.11-.04-.21-.023-.106-.039-.215-.035-.175-.035-.192-.035-.16-.008-.238-.043-.211-.035-.195-.031-.16-.028-.122-.015-.105-.024-.11-.023-.14-.024-.106-.023-.12-.063-.321-.035-.195-.074-.168-.039-.211-.012-.055-.015-.086-.02-.11-.031-.16-.031-.156-.032-.16-.02-.105-.034-.16-.008-.051-.031-.067-.02-.11-.02-.105-.023-.105v-.094l-.012-.066.008-.059v-.094l.031-.023.036-.004.046.043.02.016.008.035.027.05.012.051.012.07.02.11.01.05.028.052.012.054.012.051.007.051.032.05.007.055.012.055.008.05.027.048.008.039.024.015.004.032.07.172.097.125.11.09.144.081.075.004.082.04.07-.012.098.035.172.02.203.019.304-.023c.075-.016.14-.028.207-.032a.432.432 0 0 1 .176.012l.192-.04.218-.023.23-.046.247-.047.25-.047.262-.05.285-.056.289-.02.281-.054.3-.062.302-.055.316-.063.055-.011 3.11-.606M149.438 91.223c.011-.192.03-.403.05-.633.028-.238.051-.473.078-.715l.13-1.238a.863.863 0 0 0 .03-.145.861.861 0 0 1 .028-.125c.004-.047.004-.094.004-.144 0-.047.008-.094.02-.141a1.57 1.57 0 0 0 .03-.144.687.687 0 0 1 .032-.145l.035-.14c.016-.051.027-.098.04-.145l.284-1.04.344-.964c.062-.18.113-.313.148-.402.04-.09.059-.137.059-.137.05-.078.094-.156.129-.223.039-.066.062-.105.074-.129l.465-.804.352-.551.37-.48.383-.426.403-.352.402-.316.418-.266.399-.207.417-.172.29-.102.128-.054.145-.051.285-.086c.063 0 .117 0 .164-.004a.455.455 0 0 0 .13-.043l.144-.015h.144l.125-.032.145.004.27-.015.269.004.289.007c.07 0 .133.004.187.012.055.004.106.02.149.047l.363.062.39.114.4.133.425.207.41.218.426.297.055.04.07.05.055.023.05.055.11.106.14.113.317.328.14.148.235.239.226.273.106.145.12.164.212.328.37.652.345.762.308.816.29.942.214 1.031.16 1.227.086 1.312.008 1.516v.105l-.004.164v.16l-.004.16-.023.165v.16l-.008.328c0 .07-.004.133-.012.187a.612.612 0 0 1-.027.133l-.008.375-.023.324-.024.38c-.012.046-.027.085-.031.109-.008.023-.008.039-.008.054l-.004.16-.004.165-.015.086a.961.961 0 0 0-.032.152.633.633 0 0 0-.011.082l-.004.16c-.012.047-.02.086-.028.11a.196.196 0 0 0-.011.054l-.004.16-.059.36-.043.375-.043.343-.039.36-.031.097c-.008.032-.008.051-.008.063l-.004.164a.496.496 0 0 0-.027.094.335.335 0 0 0-.012.066l-.004.18-.004.16-.015.09-.028.234v.164l-.039.09-.02.125-.054.086-.05.02-.044.035h-.035l-.05-.004-.036-.035h-.074l-.105-.059h-.18l-.11-.004h-.015l-.035-.02h-.04l-.054-.038h-.27l-.09-.024h-.09l-.105-.004h-.25l-.054-.039h-.125l-.055-.004h-.09l-.09-.004h-.09l-.125-.004h-.074l-.07-.003h-.234l-.075-.02-.05-.004h-.18a.2.2 0 0 1-.082-.039.481.481 0 0 0-.028-.016l-.074-.003h-.07l-.031-.04-.055-.054-.035-.07v-.11l.039-.11.11-.03h.07l.074.003h.105l.04.004h.144l.23-.05.235-.067.066-.035a.095.095 0 0 1 .043-.016l.129-.054a.86.86 0 0 1 .082-.035.176.176 0 0 1 .063-.016c.023-.012.039-.024.043-.035.011-.012.02-.016.03-.016l.11-.09.086-.07.098-.11.11-.085.163-.215.164-.211.188-.395.207-.48.078-.305.113-.285.074-.324.102-.356.137-.754.105-.808.067-.828.05-.864c.004-.105.004-.203.004-.285.004-.086.004-.168.008-.254 0-.082 0-.175-.008-.277 0-.102-.011-.207-.02-.316l-.034-1.008-.094-.867c-.012-.086-.02-.164-.031-.243-.012-.078-.016-.16-.012-.242a1.895 1.895 0 0 1-.063-.164.294.294 0 0 1-.027-.11l-.184-.648-.171-.562-.192-.488-.168-.418-.039-.055-.05-.11-.051-.07-.055-.094-.488-.726-.516-.55-.547-.438-.57-.32-.61-.223-.629-.141-.664-.102-.664-.03c-.214 0-.43.01-.64.038-.211.024-.418.059-.621.106a6.896 6.896 0 0 0-.625.191c-.203.078-.391.168-.575.274a4.392 4.392 0 0 0-.57.367c-.191.14-.375.297-.559.472a6.015 6.015 0 0 0-.55.543c-.168.196-.34.403-.512.63-.16.21-.316.437-.46.675-.153.234-.294.48-.427.73a5.68 5.68 0 0 0-.34.778c-.101.277-.203.57-.304.867a12.702 12.702 0 0 0-.41 1.899c-.016.168-.032.332-.055.496-.02.16-.04.332-.055.511l-.035.524c-.008.176-.016.363-.02.554l-.007.72a6.381 6.381 0 0 0 0 .386c.004.129.011.23.023.316l.04.649.062.633.097.558.153.524.191.488.262.437.07.075.07.109.051.035.04.055.085.074.07.09.055.02.051.058.09.05.055.04.054.055.121.058.11.055.054.015.07.04.052.02.054.038.09.016.09.058h.074l.086.055.07.04.055.015.074.058.051.055.016.055v.05l-.04.094-.054.051-.035.016h-.055l-.035.035h-.106l-.09-.035-.144-.024-.164-.039-.055-.02-.086-.035-.105-.023h-.094a.743.743 0 0 1-.113-.04l-.047-.015-.11-.004a.3.3 0 0 1-.077-.035c-.02-.011-.028-.02-.028-.02l-.11-.003-.05-.035-.09-.02c-.047-.012-.086-.027-.117-.039-.031-.012-.047-.02-.047-.02h-.07a.405.405 0 0 1-.082-.039c-.016-.011-.024-.02-.024-.02h-.07l-.09-.054h-.074l-.055-.054-.07-.004-.07-.055h-.07l-.075-.055h-.05l-.055-.004-.036-.035-.039-.054h-.05l-.036-.06-.015-.015-.04-.054-.05-.09-.016-.07-.02-.04-.015-.054v-.02l-.035-.055v-.05l-.016-.055-.03-.219-.016-.25-.016-.11-.016-.124-.047-.414-.046-.453-.012-.254-.031-.23.004-.255-.032-.234-.011-.484c.015-.11.015-.203.015-.282-.008-.078-.012-.144-.023-.207l-.016-.214v-.16l.004-.165.004-.16.004-.164-.016-.16.004-.164v-.16l.012-.543c.015-.082.02-.164.023-.242 0-.079 0-.153.004-.223.016-.11.024-.203.031-.281.008-.078.008-.145.012-.207h-.016M68.742 150.719l-.156-.094.082-.8.117-.075c.676-.035 1.547-.148 2.61-.328a33.088 33.088 0 0 0 2.3-.453l.227.152c-.746 2.758-1.18 4.41-1.313 4.969l-.812 3.527c-.2.871-.379 1.692-.535 2.457-.157.77-.235 1.227-.227 1.371a.593.593 0 0 0 .121.36c.074.101.192.18.352.238.16.062.644.207 1.449.441l.05.094-.1.426-.083.059a131.305 131.305 0 0 0-2.922-.754 168.6 168.6 0 0 0-3.183-.653l-.051-.094.102-.425.09-.059c.968.149 1.523.227 1.667.223a.625.625 0 0 0 .356-.094c.086-.059.183-.2.277-.41.094-.215.285-.86.563-1.945.28-1.082.425-1.637.433-1.66l.864-3.75c.425-1.84.648-2.84.675-3 .028-.16-.011-.25-.11-.274-.026-.008-.062-.012-.112-.008-.047.004-.2.028-.453.074l-1.043.203c-.43.079-.844.172-1.235.282M75.895 163.703l.011-.187c1.836-.29 3.309-.98 4.422-2.082 1.117-1.102 1.797-2.493 2.043-4.176-1.035 1.07-2.14 1.562-3.32 1.48-.746-.054-1.387-.277-1.918-.675A3.296 3.296 0 0 1 76 156.585c-.227-.59-.313-1.27-.258-2.035.098-1.406.598-2.508 1.504-3.301.91-.79 1.988-1.14 3.242-1.05 1.266.085 2.258.613 2.977 1.585.719.969 1.015 2.317.894 4.035-.05.762-.171 1.485-.367 2.168-.187.692-.508 1.39-.957 2.094a8.294 8.294 0 0 1-1.715 1.934 9.021 9.021 0 0 1-2.32 1.418c-.848.363-1.68.57-2.484.625zm1.574-9.668c-.04.567.023 1.125.183 1.684.157.554.434.996.82 1.32.387.32.86.504 1.41.543.77.05 1.403-.16 1.903-.644.504-.485.797-1.239.867-2.266.07-1.067-.097-1.953-.511-2.66-.414-.711-1.02-1.094-1.829-1.153-.773-.05-1.417.188-1.94.727-.524.539-.825 1.355-.903 2.45M84.898 158.344c-.062-1.156-.058-2.2.008-3.133.07-.934.285-1.774.649-2.516.36-.75.832-1.316 1.414-1.71.582-.391 1.258-.606 2.023-.65.871-.046 1.649.138 2.332.556.684.414 1.196 1.078 1.531 1.988.34.918.551 2.176.637 3.773.137 2.602-.164 4.536-.894 5.805-.735 1.27-1.805 1.941-3.215 2.016-.711.039-1.344-.082-1.903-.36a3.62 3.62 0 0 1-1.402-1.258c-.379-.558-.66-1.23-.84-2.003a14.61 14.61 0 0 1-.34-2.508zm1.645-.653c.062 1.235.219 2.356.453 3.36.242 1.004.59 1.715 1.043 2.14.453.422.98.618 1.582.586.578-.03 1.05-.254 1.418-.672.363-.414.613-1.109.738-2.082.13-.968.157-2.168.082-3.582-.117-2.222-.414-3.859-.89-4.902-.48-1.043-1.207-1.539-2.184-1.488-.851.047-1.472.492-1.863 1.34-.395.847-.52 2.617-.379 5.3M95.563 163.336c-.247-.734-.622-1.61-1.122-2.617l.02-.153.332-.195.148.043c.325.55.653.992.98 1.332.321.34.743.57 1.259.691.52.122 1.054.13 1.613.032.703-.121 1.238-.367 1.598-.739.363-.367.609-.824.746-1.37a4.256 4.256 0 0 0 .035-1.77c-.152-.852-.492-1.485-1.02-1.89-.535-.41-1.195-.544-1.98-.407a3.5 3.5 0 0 0-.711.203c-.2.09-.508.266-.918.52l-.121-.075.023-1.086a18.92 18.92 0 0 0 1.047-.136c.75-.133 1.297-.5 1.645-1.114.343-.609.453-1.273.328-2a2.135 2.135 0 0 0-.973-1.472c-.531-.348-1.137-.465-1.808-.344a3.008 3.008 0 0 0-1.207.488c-.364.25-.649.524-.864.828-.07.235-.164.696-.289 1.38l-.082.1-.433.08-.09-.075.183-2.332c.641-1.043 1.649-1.688 3.02-1.93 1.047-.183 1.937-.058 2.68.387.742.437 1.183 1.078 1.335 1.918a3.02 3.02 0 0 1-.257 1.863c-.282.606-.72 1.203-1.309 1.793 1.133-.059 1.969.133 2.516.586.543.445.883 1.047 1.015 1.797.22 1.23-.144 2.433-1.086 3.617-.941 1.18-2.144 1.899-3.605 2.156a6.669 6.669 0 0 1-1.242.106c-.387-.008-.86-.082-1.406-.215"/></svg>