<svg xmlns="http://www.w3.org/2000/svg" width="764.84" height="764.84" viewBox="0 0 573.63 573.63"><defs><clipPath id="a"><path d="M0 0h573.629v573.629H0zm0 0"/></clipPath></defs><g clip-path="url(#a)"><path style="stroke:none;fill-rule:nonzero;fill:#fff;fill-opacity:1" d="M0 286.813c0 158.152 128.668 286.816 286.813 286.816 158.152 0 286.82-128.664 286.82-286.817 0-158.148-128.668-286.816-286.82-286.816C128.667-.004 0 128.664 0 286.813"/></g><path style="stroke:none;fill-rule:nonzero;fill:#000;fill-opacity:1" d="M7.703 286.813C7.703 132.91 132.91 7.699 286.813 7.699 440.714 7.7 565.93 132.91 565.93 286.812c0 153.903-125.215 279.114-279.117 279.114-153.903 0-279.11-125.211-279.11-279.114"/><path style="stroke:none;fill-rule:nonzero;fill:#fff;fill-opacity:1" d="M91.773 286.816c0 107.543 87.5 195.04 195.04 195.04 107.55 0 195.042-87.497 195.042-195.04 0-107.546-87.492-195.043-195.043-195.043-107.539 0-195.039 87.497-195.039 195.043"/><path style="stroke:none;fill-rule:nonzero;fill:#c8173d;fill-opacity:1" d="M99.473 286.816c0-103.3 84.043-187.343 187.34-187.343 103.3 0 187.347 84.043 187.347 187.343 0 103.301-84.047 187.336-187.348 187.336-103.296 0-187.34-84.035-187.34-187.336"/><path style="stroke:none;fill-rule:nonzero;fill:#fff;fill-opacity:1" d="M75.336 225.46c-.867-.222-1.613-.108-2.285.345-.668.453-1.207 1.445-1.59 2.925l-1.766 6.829-9.925-2.567 1.632-6.312.301.078c1.856.48 2.602.394 2.91.234 1.008-.508 1.61-1.172 1.832-2.039.223-.867.118-1.613-.34-2.277-.453-.68-1.44-1.215-2.93-1.602l-6.292-1.625c-1.488-.387-2.61-.394-3.332-.023-.727.37-1.184.969-1.406 1.832-.223.851-.02 1.75.617 2.68.187.277.793.71 2.648 1.195l.309.082-1.633 6.308-9.926-2.566 4.38-16.91 3.675.953c1.492.39 2.613.39 3.34.027.718-.367 1.18-.968 1.406-1.832.066-.289.105-.566.105-.824a2.52 2.52 0 0 0-.449-1.46c-.46-.673-1.445-1.212-2.933-1.599l-9.336-2.41c-.149.59-7.692 29.625-7.692 29.625-.195.758-.289 1.426-.289 1.989 0 .543.086.992.266 1.347.363.715.969 1.176 1.832 1.403.867.222 1.617.113 2.285-.34.672-.457 1.207-1.442 1.594-2.934l.351-1.351 25.528 6.601-.352 1.352c-.379 1.492-.39 2.617-.023 3.336.367.718.965 1.183 1.836 1.402.859.227 1.609.117 2.277-.34.676-.453 1.21-1.441 1.598-2.93l3.582-13.859c.386-1.488.394-2.61.023-3.336-.363-.722-.96-1.183-1.828-1.406m18.204-52.914c-.728-.363-1.478-.406-2.29-.133-.809.281-1.371.766-1.723 1.473-.199.402-.289.781-.277 1.164.016.406.172 1.058.473 1.933.547 1.536.773 2.864.683 3.95-.148 1.84-.781 3.894-1.867 6.097-1.828 3.711-4.27 6.168-7.258 7.309-2.988 1.14-5.98.992-8.898-.445l-3.844-1.891c-2.43-1.207-4.273-2.844-5.477-4.863-1.195-2.024-1.824-4.012-1.87-5.91-.04-1.899.386-3.77 1.273-5.57.715-1.45 1.7-2.77 2.933-3.93 1.247-1.184 2.532-1.97 3.825-2.34.695-.2 1.52-.16 2.445.12 1.25.348 2.191.41 2.8.177.606-.223 1.071-.68 1.423-1.387.382-.781.421-1.528.113-2.281-.305-.758-1.137-1.48-2.477-2.141l-5-2.465c-1.34-.664-2.414-.883-3.187-.656-.781.23-1.356.719-1.742 1.508a2.599 2.599 0 0 0-.246 1.422c.05.511.246 1.074.59 1.656l.152.273-.266.156a16.094 16.094 0 0 0-3.836 3.149c-1.113 1.254-2.094 2.726-2.914 4.383-1.36 2.757-1.95 5.754-1.762 8.91.196 3.148 1.258 6.097 3.164 8.762 1.915 2.675 4.41 4.789 7.41 6.265l3.997 1.969a16.291 16.291 0 0 0 9.117 1.598c3.191-.356 5.922-1.368 8.133-3.016 2.758-2.04 5.008-4.805 6.699-8.215 1.434-2.922 2.262-5.887 2.445-8.808.14-2.153-.168-4.145-.91-5.915-.488-1.175-1.101-1.953-1.832-2.308m64.68-68.059c-.813-.015-1.817.485-2.985 1.48l-.238.208-17.105-20.078.238-.2c1.172-1.003 1.824-1.914 1.941-2.714.11-.809-.117-1.528-.695-2.204-.574-.68-1.254-1.023-2.059-1.035-.82-.011-1.82.489-2.996 1.485 0 0-5.668 4.836-5.96 5.082.109.379 6.187 21.238 6.187 21.238s-19.598-9.332-19.953-9.508c-.301.254-6 5.113-6 5.113-1.172.993-1.82 1.907-1.942 2.715a3.292 3.292 0 0 0-.023.395c0 .644.234 1.238.719 1.808.582.676 1.254 1.012 2.062 1.028.813.015 1.817-.48 2.992-1.48l.239-.208 17.097 20.075-.234.203c-1.176.996-1.824 1.914-1.938 2.718-.117.801.114 1.524.696 2.203.574.676 1.254 1.012 2.058 1.032.809.015 1.817-.485 2.993-1.485l6.773-5.773c1.168-.996 1.824-1.91 1.934-2.719.117-.797-.106-1.52-.688-2.203-.578-.676-1.254-1.012-2.07-1.023-.809-.02-1.817.476-2.985 1.476l-2.07 1.77-12.894-15.149.367-.48s16.148 7.691 16.5 7.86c.28-.231 3.746-3.192 4.02-3.427-.106-.379-5.114-17.57-5.114-17.57l.535-.281 12.902 15.137-2.07 1.765c-1.172.996-1.816 1.914-1.937 2.719-.114.8.117 1.52.695 2.2.578.683 1.254 1.015 2.062 1.03.813.02 1.813-.48 2.993-1.48l6.77-5.773c1.175-.997 1.827-1.91 1.94-2.715.114-.801-.113-1.524-.69-2.203-.579-.68-1.255-1.016-2.067-1.032m33.219-18.824c-.79-.176-1.88.11-3.227.848l-6.07 3.332-12.7-23.106 6.075-3.336c1.347-.738 2.168-1.504 2.441-2.265.273-.766.2-1.516-.23-2.301-.43-.781-1.024-1.25-1.813-1.426-.797-.18-1.883.11-3.23.848l-17.286 9.5c-1.347.742-2.175 1.504-2.453 2.277-.27.758-.195 1.504.239 2.29.43.777 1.023 1.245 1.812 1.425.793.18 1.879-.105 3.223-.852l6.082-3.328 12.691 23.106-6.074 3.336c-1.344.742-2.168 1.508-2.441 2.273-.278.758-.196 1.508.23 2.29.434.788 1.027 1.253 1.816 1.429.79.18 1.875-.102 3.227-.844l17.293-9.508c1.348-.738 2.172-1.5 2.437-2.261.278-.758.204-1.512-.23-2.297-.426-.785-1.023-1.25-1.813-1.43m41.122-30.199c-.649-2.125-1.457-3.88-2.395-5.207-.934-1.328-2.129-2.61-3.55-3.813-1.415-1.203-2.716-2.11-3.868-2.695-1.5-.773-3.344-1.242-5.5-1.387a17.498 17.498 0 0 0-6.266.707l-13.25 4.035c-1.468.458-2.433 1.036-2.859 1.727-.418.691-.5 1.441-.234 2.297.258.848.746 1.43 1.484 1.766.738.335 1.86.277 3.332-.176l.3-.09 7.731 25.207-.297.094c-1.468.449-2.43 1.03-2.859 1.722a2.533 2.533 0 0 0-.387 1.356c0 .293.055.61.157.941.257.856.746 1.434 1.476 1.766.738.336 1.86.277 3.336-.172l12.719-3.906c3.21-.985 5.707-2.266 7.434-3.82 1.085-.981 2.164-2.352 3.218-4.06 1.047-1.698 1.715-3.706 1.989-5.976.265-2.265.007-4.73-.793-7.32zm-4.274 10.722c-.406 1.762-1.324 3.403-2.722 4.883-1.083 1.145-2.922 2.118-5.461 2.899l-7 2.148-7.735-25.215 6.938-2.125c2.273-.699 4.34-.836 6.14-.414 1.793.43 3.7 1.657 5.637 3.664 1.242 1.285 2.191 2.965 2.813 4.993l.91 2.968c.722 2.356.886 4.442.48 6.2m50.855-35.024c-.605.055-32.304 3.012-32.913 3.07.058.594 1.16 12.387 1.16 12.387.14 1.531.511 2.594 1.105 3.149.586.55 1.309.777 2.2.695.89-.078 1.55-.434 2.03-1.094.481-.66.653-1.766.508-3.297l-.613-6.539 7.692-.719 2.445 26.254-4.621.434c-1.535.137-2.594.512-3.149 1.11-.55.59-.78 1.304-.695 2.195.078.89.438 1.554 1.09 2.03.652.481 1.766.657 3.3.513l15.212-1.422c1.53-.145 2.593-.516 3.144-1.106.559-.59.785-1.312.703-2.203-.082-.887-.441-1.55-1.093-2.027-.66-.485-1.77-.653-3.305-.508l-4.738.437-2.45-26.25 7.688-.718.61 6.539c.148 1.531.515 2.593 1.113 3.148.59.547 1.304.785 2.199.7.89-.083 1.55-.442 2.027-1.09.371-.508.559-1.29.559-2.32 0-.305-.016-.634-.047-.981 0 0-1.102-11.793-1.16-12.387m51.668 3.696-18.172-1.993c-1.528-.168-2.64-.015-3.309.457-.668.465-1.035 1.13-1.129 2.016-.097.89.125 1.61.668 2.207.547.601 1.594.988 3.13 1.156l8.206.899-2.133 19.421c-.16 1.489-.32 2.407-.472 2.813-.29.723-.809 1.441-1.524 2.129-.73.687-1.762 1.242-3.07 1.644-1.309.403-2.563.54-3.723.414-2.164-.234-4.715-1.242-7.582-3l-.172-.101.727-6.617c.164-1.492 0-2.586-.473-3.262-.472-.664-1.117-1.031-1.984-1.125-.883-.098-1.606.125-2.211.668-.613.547-1.004 1.574-1.168 3.059 0 0-1.102 10.136-1.148 10.527 5.418 3.39 9.847 5.3 13.148 5.66 2.574.285 5.144-.098 7.629-1.129 2.476-1.027 4.48-2.605 5.96-4.687.946-1.329 1.56-3.23 1.829-5.66l2.2-20.114 4.14.45c1.531.167 2.64.015 3.308-.45.66-.469 1.028-1.129 1.121-2.02.102-.878-.113-1.6-.66-2.21-.547-.598-1.601-.985-3.136-1.153m51.043 15.246c-.414-.699-1.395-1.296-2.907-1.792l-7.445-2.415c-1.484-.48-2.613-.558-3.363-.242-.742.328-1.235.899-1.512 1.746-.277.856-.21 1.606.203 2.297.414.707 1.375 1.305 2.86 1.781l.558.188-9.652 7.469-3.375-11.52.39-.027c1.797-.125 2.864-.79 3.274-2.05.273-.849.203-1.599-.23-2.302-.426-.707-1.38-1.304-2.829-1.777l-5.734-1.86c-1.516-.488-2.66-.57-3.402-.25-.743.325-1.235.895-1.516 1.739-.274.855-.207 1.605.2 2.3.417.7 1.39 1.301 2.91 1.797l.156.051 5.48 18.813-3.04 9.37-.1.302-4.532-1.47c-1.465-.48-2.582-.554-3.328-.233-.742.324-1.234.89-1.512 1.742-.281.855-.215 1.605.203 2.304.414.704 1.364 1.297 2.829 1.766l14.648 4.754c1.465.473 2.582.555 3.324.227.742-.32 1.242-.891 1.512-1.747.281-.843.21-1.597-.2-2.293-.41-.699-1.363-1.3-2.827-1.773l-4.532-1.469 3.14-9.668 15.474-12.011.156.05c1.512.485 2.656.57 3.406.246.746-.324 1.234-.894 1.512-1.742.273-.847.21-1.597-.2-2.3m33.403 40.886c-.781-.449-1.524-.531-2.293-.273-.766.265-1.543 1.07-2.305 2.406l-3.261 5.707-12.868-7.352 13.075-22.894 3.617 2.062c1.336.762 2.418 1.067 3.215.903.785-.168 1.39-.625 1.832-1.403.449-.777.535-1.523.273-2.285-.266-.777-1.074-1.55-2.414-2.316l-12.324-7.035c-1.34-.762-2.418-1.067-3.215-.903-.793.168-1.395.625-1.836 1.399-.445.777-.531 1.527-.27 2.293.262.765 1.07 1.543 2.41 2.308l3.61 2.067L389.586 88.3l-.16.27-3.613-2.06c-1.34-.769-2.415-1.07-3.215-.902-.786.164-1.391.621-1.828 1.403-.282.484-.418.96-.418 1.437 0 .278.046.567.14.848.266.777 1.074 1.55 2.414 2.308 0 0 26.145 14.93 26.676 15.239l6.168-10.809c.637-1.101.945-2.027.945-2.762 0-.156-.015-.308-.043-.449-.168-.793-.62-1.39-1.398-1.832m36.965 30.079c-.672-.59-1.39-.824-2.192-.722-.812.097-1.73.73-2.746 1.894l-4.34 4.922-11.125-9.793 17.434-19.785 3.121 2.746c1.156 1.02 2.152 1.531 2.965 1.531.809 0 1.488-.324 2.086-1 .59-.668.824-1.383.723-2.187-.098-.805-.739-1.73-1.895-2.746l-10.648-9.383c-1.153-1.016-2.149-1.535-2.965-1.535-.805.004-1.489.332-2.078.996-.594.676-.832 1.39-.73 2.191.097.809.733 1.735 1.89 2.746l3.12 2.758-17.222 19.55-.21.231-3.118-2.75c-1.156-1.011-2.152-1.535-2.965-1.535-.812.004-1.492.336-2.082 1-.5.574-.75 1.18-.75 1.84 0 .117.004.234.02.352.101.804.742 1.73 1.894 2.746 0 0 22.594 19.91 23.059 20.312.387-.441 8.219-9.332 8.219-9.332 1.015-1.156 1.53-2.152 1.53-2.965 0-.808-.327-1.488-.995-2.082m24.094 47.457c0-.375-.239-1.113-1.329-2.55l-.129-.172s17.66-29.489 17.872-29.848c-.243-.328-8.247-10.95-8.247-10.95-.914-1.214-1.785-1.913-2.578-2.077-.789-.16-1.523.023-2.238.562-.719.535-1.09 1.195-1.156 2-.063.805.367 1.828 1.281 3.047l2.887 3.832-27.297 7.258-.207.055-.121-.172c-.922-1.211-1.793-1.914-2.586-2.075-.793-.164-1.524.02-2.238.56-.72.534-1.09 1.19-1.157 1.995-.062.813.368 1.836 1.285 3.059l5.145 6.82c.938 1.242 1.816 1.953 2.605 2.113.793.16 1.528-.02 2.235-.554.719-.543 1.094-1.196 1.16-2 .063-.813-.379-1.852-1.309-3.082l-1.222-1.625 4.918-1.309 9.777 12.973-2.617 4.36-1.223-1.618c-.926-1.227-1.793-1.934-2.594-2.094-.789-.16-1.523.02-2.234.563-.719.539-1.094 1.183-1.156 1.996-.07.804.37 1.84 1.3 3.074l5.153 6.832c.914 1.223 1.781 1.922 2.578 2.086.793.16 1.527-.024 2.242-.563.715-.535 1.106-1.34 1.2-2.449zm-6.31-26.746 14.794-3.945-7.879 13.121-6.914-9.176m48.676 51.922c.66 1.395 1.375 2.266 2.12 2.586.74.313 1.497.285 2.298-.101.816-.383 1.312-.942 1.543-1.715.218-.79.004-1.891-.66-3.274l-3.805-8.05c-.653-1.387-1.371-2.258-2.117-2.583-.739-.32-1.5-.285-2.305.102-.817.383-1.313.945-1.535 1.719-.23.777-.016 1.879.648 3.277l1.164 2.457-19.125 9.05s16.88-26.85 17.059-27.14c-.145-.297-3.156-6.668-3.156-6.668-.66-1.394-1.372-2.261-2.118-2.586-.742-.308-1.503-.28-2.304.098-.809.387-1.313.95-1.54 1.719-.226.785-.003 1.89.66 3.277l.59 1.262-23.542 11.148-.285.133-.137-.281c-.66-1.39-1.371-2.262-2.117-2.578-.754-.32-1.504-.29-2.309.093-.809.383-1.309.946-1.539 1.723-.219.781-.004 1.883.656 3.277l3.813 8.047c.66 1.39 1.375 2.254 2.117 2.575.742.324 1.492.292 2.305-.098.808-.379 1.308-.942 1.535-1.719.222-.781.008-1.883-.653-3.27l-1.168-2.464 19.215-9.086s-16.937 26.945-17.113 27.23c.129.282 2.297 4.864 2.531 5.36l29.137-13.793.137.273m12.758 18.597c-.356-1.495-.875-2.488-1.543-2.964-.668-.457-1.415-.582-2.282-.367-.87.207-1.476.66-1.855 1.37-.375.716-.383 1.84-.02 3.34l.07.305-25.324 6.121-.308.07-.074-.304c-.356-1.488-.875-2.484-1.547-2.953-.668-.469-1.41-.59-2.278-.375-.87.21-1.476.66-1.847 1.367-.383.719-.39 1.844-.032 3.344l3.125 12.93c.793 3.265 1.922 5.84 3.36 7.648.918 1.145 2.215 2.309 3.86 3.465 1.636 1.144 3.6 1.933 5.847 2.34 2.246.414 4.719.293 7.355-.344l3.043-.734c2.164-.524 3.965-1.22 5.344-2.075 1.383-.855 2.734-1.968 4.023-3.312 1.286-1.336 2.27-2.582 2.926-3.7.856-1.456 1.434-3.273 1.707-5.402a17.186 17.186 0 0 0-.324-6.297zm-2.512 20.602c-.531 1.774-1.871 3.586-3.985 5.403-1.37 1.164-3.105 2.011-5.16 2.5l-3.027.734c-2.39.582-4.48.617-6.211.106-1.73-.516-3.316-1.532-4.703-3.016-1.074-1.149-1.934-3.043-2.563-5.629l-1.718-7.117 25.632-6.2 1.704 7.06c.558 2.316.57 4.39.03 6.16M210.383 492.64c-1.414-.058-2.39.075-2.914.387-.512.309-.89.856-1.13 1.618-.269.851-.234 1.636.114 2.39.344.746.856 1.219 1.57 1.45.422.128 1.114.214 2.059.253l6.469.305-8.332 26.328-.094.293-6.61-2.09c-1.464-.465-2.585-.531-3.327-.203-.743.332-1.231.902-1.5 1.75-.274.856-.204 1.606.214 2.3.414.7 1.375 1.286 2.844 1.75l18.809 5.954c1.465.469 2.586.535 3.328.203.746-.328 1.234-.902 1.504-1.75.105-.332.16-.652.16-.96 0-.473-.125-.915-.383-1.337-.418-.703-1.371-1.289-2.836-1.75l-6.605-2.093 10.789-34.086c-.762-.04-14.13-.711-14.13-.711m62.13 12.246c-2.133-2.102-4.79-3.332-7.883-3.657-4.328-.44-7.914.989-10.656 4.27-2.016 2.398-3.211 5.207-3.536 8.36-.417 4.046.524 7.597 2.793 10.581 2.262 2.97 5.133 4.66 8.536 5.012 1.449.156 2.882.016 4.254-.406 1.386-.434 2.968-1.262 4.71-2.457l.75-.512-.27.863c-1.01 3.227-3.07 5.88-6.128 7.868-3.05 1.992-6.293 2.828-9.629 2.48a6.083 6.083 0 0 1-2.672-.93c-.566-.347-1.086-.547-1.535-.59-.828-.093-1.543.11-2.168.618-.629.504-.973 1.16-1.062 2-.106 1.035.238 1.89 1.074 2.62 1.262 1.145 3.195 1.856 5.73 2.114 4.625.484 9.11-.605 13.309-3.23 5.43-3.418 8.523-8.457 9.2-14.973.394-3.863.23-7.684-.509-11.36-.73-3.648-2.183-6.562-4.308-8.671m-1.23 11.781c-2.985 4.914-6.052 7.242-9.126 6.926-1.765-.184-3.27-1.145-4.469-2.856-.976-1.394-1.472-3.086-1.472-5.035 0-.418.023-.855.07-1.3.25-2.407 1.133-4.294 2.63-5.618 1.507-1.336 3.253-1.906 5.179-1.703 1.84.188 3.422 1.027 4.707 2.488 1.273 1.446 2.129 3.766 2.523 6.899l.016.105-.059.094m51.352-5.695c-1.438-3.43-3.434-6.004-5.942-7.645-2.507-1.637-5.351-2.316-8.453-2.015-4.324.417-7.55 2.53-9.593 6.292-1.504 2.754-2.106 5.75-1.801 8.899.386 4.043 2.02 7.348 4.832 9.82 2.808 2.461 5.957 3.543 9.363 3.219a10.644 10.644 0 0 0 4.09-1.254c1.262-.684 2.648-1.805 4.129-3.336l.625-.648-.086.898c-.352 3.367-1.844 6.375-4.445 8.93-2.598 2.558-5.606 4.02-8.946 4.344a6.24 6.24 0 0 1-2.804-.38c-.622-.234-1.168-.327-1.614-.28-.843.081-1.496.417-2.008 1.038-.52.618-.726 1.329-.644 2.168.101 1.036.613 1.805 1.57 2.36 1.465.863 3.5 1.187 6.035.933 4.637-.449 8.805-2.402 12.403-5.812 4.644-4.426 6.676-9.977 6.047-16.5-.38-3.867-1.305-7.578-2.758-11.031m-4.805 4.144c-1.95 5.41-4.492 8.301-7.566 8.602h-.004c-1.766.176-3.434-.473-4.945-1.914-1.504-1.43-2.395-3.422-2.63-5.934-.238-2.402.255-4.43 1.462-6.023 1.21-1.602 2.804-2.512 4.734-2.696 1.84-.175 3.558.32 5.113 1.504 1.535 1.16 2.824 3.266 3.84 6.258l.035.106-.039.097m49.122-15.879c-2.098-3.066-4.571-5.18-7.372-6.285-2.777-1.098-5.695-1.187-8.68-.262-4.152 1.282-6.882 4.008-8.12 8.106-.923 2.984-.91 6.043.027 9.066 1.207 3.89 3.46 6.797 6.715 8.649 3.25 1.847 6.554 2.261 9.824 1.261a10.74 10.74 0 0 0 3.75-2.05c1.101-.942 2.238-2.32 3.37-4.11l.481-.765.094.906c.34 3.351-.516 6.605-2.543 9.64-2.027 3.028-4.68 5.067-7.887 6.06a6.118 6.118 0 0 1-2.82.194c-.66-.101-1.215-.082-1.644.047-.805.254-1.375.715-1.754 1.426-.38.715-.442 1.445-.192 2.258.305.996.965 1.648 2.012 1.992 1.617.55 3.668.453 6.098-.3 4.453-1.376 8.144-4.137 10.976-8.2 3.652-5.273 4.527-11.117 2.59-17.379-1.148-3.71-2.805-7.16-4.926-10.254m-3.867 5.043c-.82 5.684-2.727 9.028-5.68 9.938-1.699.527-3.46.238-5.234-.867-1.758-1.094-3.031-2.868-3.773-5.278-.715-2.312-.649-4.402.214-6.199.864-1.816 2.239-3.027 4.094-3.598 1.762-.547 3.547-.398 5.313.434 1.734.836 3.433 2.637 5.02 5.363l.062.094-.016.113m-131.93-252.429-34.16 34.644-58.707-77.469m204.188 42.825 34.168 34.644 58.703-77.469M312.64 393.438c9.626 0 9.505 7.34 9.505 7.34 0 4.695-5.051 15.757-5.051 15.757l-8.781 21.055 49.078-44.754-42.82-146.52h-55.5l-42.829 146.52 49.082 44.754-8.785-21.055s-5.047-11.062-5.047-15.758c0 0-.12-7.34 9.5-7.34h51.649"/></svg>