<svg id="Layer_1" data-name="Layer 1" xmlns="http://www.w3.org/2000/svg" xmlns:xlink="http://www.w3.org/1999/xlink" width="694.12" height="713.99" viewBox="0 0 694.12 713.99"><defs><style>.cls-1{fill:none;}.cls-2{clip-path:url(#clip-path);}.cls-3{fill:#fff;}.cls-4{fill:#071c3a;}.cls-5{fill:#e31147;}.cls-6{fill:#fad105;}.cls-7{clip-path:url(#clip-path-2);}.cls-8{fill:#d1d1d1;}</style><clipPath id="clip-path" transform="translate(-27.92 -18)"><rect class="cls-1" x="124.5" y="169.13" width="503.76" height="562.87"/></clipPath><clipPath id="clip-path-2" transform="translate(-27.92 -18)"><rect class="cls-1" x="27.95" y="341.25" width="694.1" height="188.91"/></clipPath></defs><title>fc-red-bull-salzburg-logo-freelogovectors.net_</title><g class="cls-2"><path class="cls-3" d="M128.13,171.72V547.18c0,29.65,3.8,41.08,12.94,56.94l.5.9.58.85C195.05,684.84,282.93,732,377.2,732s182.16-47.14,235.06-126.12l.57-.85.51-.9c9.12-15.85,12.94-27.28,12.94-56.94V171.72H128.14" transform="translate(-27.92 -18)"/></g><path class="cls-4" d="M596.28,482.85v64.33c0,25.6-3,31.61-8.94,42C541.74,657.28,464.63,702,377.19,702S212.67,657.28,167,589.19c-6-10.4-8.93-16.41-8.93-42V201.73H596.25Zm13.48-85.06V188.25H144.62V547.18c0,27.2,3.26,35.73,10.74,48.72l.23.41.24.39c49.84,74.38,132.58,118.79,221.35,118.79S548.69,671.08,598.53,596.7l.25-.39.23-.4c7.46-13,10.74-21.51,10.74-48.73V397.79" transform="translate(-27.92 -18)"/><path class="cls-4" d="M613,506.1v41.07c0,28-3.4,36.81-11.17,50.31l-.28.49-.31.47c-50.45,75.29-134.17,120.22-224,120.22s-173.58-44.93-224-120.22l-.31-.47-.28-.49c-7.77-13.52-11.16-22.34-11.16-50.31V185H613Zm7.47-106V177.54H134V547.17c0,29.63,3.88,39.65,12.15,54l.41.72.47.69C198.85,680,284.91,726.14,377.24,726.14S555.62,680,607.44,602.61l.47-.69.4-.72c8.26-14.37,12.17-24.39,12.17-54V400.05" transform="translate(-27.92 -18)"/><path class="cls-5" d="M334.83,298.63c-7.62,0-13.82-6.67-13.82-14.92s6.2-14.94,13.82-14.94,13.81,6.69,13.81,14.94S342.46,298.63,334.83,298.63Zm13.5-84.21.06,46.16a26.94,26.94,0,0,0-18.9-7.84c-15.55,0-28.14,13.62-28.14,30.41s12.59,30.38,28.14,30.38a26.9,26.9,0,0,0,19-8V313h18.7l0-98.56Zm77.94,81.83H408.9V234.13H421a10.16,10.16,0,0,1,0,20.29h-6.31v17.23h11.56c6.44,0,11.33,5.48,11.33,12.28C437.37,291,433.29,295.79,426.27,296.25Zm15.22-35.52A25.81,25.81,0,0,0,443,224.92c-4.33-5-12-7.25-22.37-7.25h-31V313h40.08c15.37-.26,27.73-12.56,27.73-27.55,0-10.91-3.64-18.68-15.87-24.68ZM534,313h18.15V215.16H534Zm-30.5-24.21a10.66,10.66,0,0,1-21.31,0V254.43H463.67v38.05c0,12.87,13,23.32,29.08,23.32s29.07-10.45,29.07-23.32V254.43H503.46ZM233.78,245.66c0-15.56-12.25-28.17-27.35-28.17-.47,0-2.57,0-3,0H171.57V312.9h19.32V234l11.52-.1A12.39,12.39,0,0,1,215,246.35a12.71,12.71,0,0,1-12.91,12.48l-4.49.11v22.72l19.3,31.24h22.76L212.94,273a28,28,0,0,0,20.84-27.37ZM255,276.19a11.38,11.38,0,1,1,22.76,0Zm11.22-25c-17,0-30.8,14.27-30.8,31.86s13.79,31.9,30.8,31.9c13,0,23.12-6,28.33-15.42l-15.13-7.13a12.73,12.73,0,0,1-11.68,7.25c-7,0-12.67-5.33-12.67-11.89,0-.43-.17-.25-.12-.66l41.16,0c.13-1.3.18-2.64.18-4,.28-20.61-13.07-31.93-30.07-31.93Zm298.47-36.06V313h18.15V215.16H564.66" transform="translate(-27.92 -18)"/><path class="cls-6" d="M506.65,437.42A130.15,130.15,0,1,1,376.51,307.27,130.14,130.14,0,0,1,506.65,437.42" transform="translate(-27.92 -18)"/><g class="cls-7"><path class="cls-3" d="M489.69,479.66c-1.31-2.53-5.85-8.1-5.26-11.63,3.34.41,8.42.44,10.28.56C494.13,469.65,490.33,478.36,489.69,479.66Zm232.05,38.66a28.39,28.39,0,0,0-1-3l-.3-.8c-.24-.64-.47-1.26-.7-2a5.31,5.31,0,0,1-.27-.87,2.26,2.26,0,0,1,0-.58c.33-3.69-.61-5.6-2.05-8.11a4.9,4.9,0,0,0-3.75-2.77,1.91,1.91,0,0,1-1.81,1.24,1.76,1.76,0,0,1-.33,0,2,2,0,0,1-1.65-2.23c0-.26.06-.53.08-.82a5.35,5.35,0,0,0-.67-2.79c-1.25-2.31-10.2-9.67-13.6-9.67A10.33,10.33,0,0,0,688,490a2,2,0,0,1-1.53.7h-.18a2,2,0,0,1-1.54-1,13.85,13.85,0,0,1-.79-1.78,35.8,35.8,0,0,1-1.31-4.86l-.26-1.21c-1-4.13-2.34-8.31-7.87-9.92a8.48,8.48,0,0,0-1.76-.3c-.59-.06-1.24-.08-1.9-.11h-.51a26.28,26.28,0,0,1-3.41-.23c-2.26-.33-3.77-1.07-3.77-3.61a2.43,2.43,0,0,1,.1-.64l.61-1.75a44,44,0,0,0,1.6-5.58,26.9,26.9,0,0,0,.22-11.84,2,2,0,0,1,.49-1.77,1.9,1.9,0,0,1,1.43-.64,1.55,1.55,0,0,1,.29,0,33.34,33.34,0,0,0,4.63.37c11.8,0,30.53-7.7,30.53-28.38,0-11.88-9.63-23.17-17.69-30.55a2,2,0,0,1-.58-1.92,1.93,1.93,0,0,1,1.41-1.43c11.46-3,17.79-10.64,17.79-21.5v-.74a36,36,0,0,0-.32-5.67,21.06,21.06,0,0,0-3.25-8.17,1.21,1.21,0,0,0-1.1-.57,1.62,1.62,0,0,0-.49.07,4.51,4.51,0,0,0-1.28.64,42.76,42.76,0,0,0-3.84,3.08,15.8,15.8,0,0,1-5.46,2.88c-1.43.48-2.92.87-4.51,1.3-.83.21-1.69.44-2.57.69a42.78,42.78,0,0,0-18.09,9.59,17,17,0,0,0-5.35,11.35c-.18,3.54,1.14,7.22,4,11.2a76.61,76.61,0,0,0,9.33,10.07l1.24,1.18c1.28,1.21,2.53,2.41,3.73,3.61,1.82,1.8,3.18,3.29,4.31,4.65,2.75,3.41,4,6.2,4,8.81,0,5.54-4,9.28-10,9.28-6.65-.05-11.77-2.61-18.89-7.31-1.08-.72-2.19-1.46-3.34-2.25-2.36-1.59-4.81-3.23-7.53-4.93a113.58,113.58,0,0,0-14.33-7.7,52.72,52.72,0,0,0-8-2.8c-2.07-.56-4-1-5.92-1.36l-.92-.18c-4.35-.92-8-1.82-11.86-4.36-1.09-.74-2.24-1.51-3.41-2.32-2-1.37-4.11-2.8-6.24-4.13a45.1,45.1,0,0,0-10.45-5.1,24.14,24.14,0,0,0-3.15-.67c-.52-.08-1.07-.15-1.59-.21l-1.26-.17a13.89,13.89,0,0,1-5.35-1.65c-1.1-.66-2.15-1.35-3.33-2.22-.83-.6-1.62-1.24-2.44-1.88l-.56-.45a54.75,54.75,0,0,0-7.9-5.26A61.88,61.88,0,0,0,542.74,365l-.9-.21c-1.77-.43-3.32-.79-4.63-1.23a11.9,11.9,0,0,1-1.77-.71c-.28-.14-.52-.32-.64-.39a4.08,4.08,0,0,1-.36-.36c-11.4-14.33-25.06-15.45-29-15.45a24.8,24.8,0,0,0-2.52.13c-4.58.5-10,4.53-14.78,8.4-1.72,1.41-3.46,2.9-5.23,4.41-3.6,3.07-7.31,6.25-11,8.84-18.87,13.43-25.71,18.81-34.65,28.57-12.08,13.21-15.89,30-19.23,44.76l-.25,1.07a179.06,179.06,0,0,1-5.77,21.42c-2.9,8-6.45,14-11.19,18.95a72,72,0,0,1-5.87,5.61c-1.11.92-1.95,1.49-2.67,2l-.49.35c-2,1.41-2.77,3.23-2.2,5.08.74,2.36,3.77,4.8,8.89,4.89a1.92,1.92,0,0,1,1.49.77,1.9,1.9,0,0,1,.38,1.64,2.62,2.62,0,0,0,.51,2.36c1.39,1.8,4.72,2.82,6.61,2.87h.8a31,31,0,0,0,23.09-9.84,1.93,1.93,0,0,1,1.41-.61,2.05,2.05,0,0,1,1.33.51c2.49,2.31,5.72,3.48,9.84,3.56h.44A49.44,49.44,0,0,0,450,502c.89-.1,1.74-.18,2.54-.25.45,0,.89,0,1.28,0a5.63,5.63,0,0,1,.84,0,18,18,0,0,1,4.31,1.06c1.3.45,2.69,1,4.1,1.51l1.26.49c2.76,1.05,6.92,2.64,10.09,2.64H475c7.12-.45,9.78-5.74,10.73-8.84a2,2,0,0,1,1.88-1.4h.07a2,2,0,0,1,1.84,1.51c.18.76.37,1.48.59,2.18,1.11,3.76,2.59,6.27,4.77,8.15a5.21,5.21,0,0,0,2.77,1.15,34.7,34.7,0,0,0,4.77.3,1.87,1.87,0,0,1,1.17.39,11.74,11.74,0,0,1,1.08,1c.46.44.93.93,1.38,1.33a5.45,5.45,0,0,0,1.75,1.06c10,3.4,23,7.07,29.47,7.17h.23c8.89,0,11.92-8.51,12.81-12.18a1.9,1.9,0,0,1,1.52-1.46c8.27-1.64,12.81-14.07,12.79-16.22-.05-4-1.59-5.59-5.56-5.87l-14.43,0a3.24,3.24,0,0,0-1,.15,2,2,0,0,1-.54.06,1.94,1.94,0,0,1-1.66-.9,3,3,0,0,0-2.06-1.44,2,2,0,0,1-1.46-1.46,2,2,0,0,1,.65-1.95c.3-.25.58-.51.86-.76a1.94,1.94,0,0,1,1.34-.52h.08c2,.08,5.79.23,9.43.23,1.63,0,3.2,0,4.54-.12,2.91-.14,5.33-.44,7.89-.73a113.76,113.76,0,0,1,14.4-.94l13.51.74a25.68,25.68,0,0,0,7.84-1.12,1.92,1.92,0,0,1,.59-.09,1.95,1.95,0,0,1,2,1.72,37.3,37.3,0,0,0,6.5,17.43,13.37,13.37,0,0,0,3.46,3.23c.77.53,1.57,1,2.39,1.51q.72.42,1.41.87c3.58,2.23,8,5,13.55,5a18.5,18.5,0,0,0,4.54-.59,20,20,0,0,1,5.07-.64c.87,0,1.73.07,2.54.15a42.87,42.87,0,0,1,5.74,1.13l.41.1a27.1,27.1,0,0,1,7.43,3.1,55.85,55.85,0,0,1,5.31,3.72l.44.33c3.23,2.46,6.59,5,11.27,5l.56,0a4.16,4.16,0,0,0,.83-.15l.9-.29c.64-.23,1.4-.54,2.15-.84a16.51,16.51,0,0,1,2.51-.8,2.34,2.34,0,0,1,.38,0,2,2,0,0,1,1.62.85c.25.36.48.77.76,1.18a21.86,21.86,0,0,0,1.55,2.33c1.81,2.33,5.09,5.44,12.76,5.64.71,0,1.38,0,2,0a47.46,47.46,0,0,0,7.56-.5H705a1.94,1.94,0,0,1,1.11.34,4.45,4.45,0,0,0,2.66.84,25.31,25.31,0,0,0,7.61-1.53A15.4,15.4,0,0,0,720,524a4.61,4.61,0,0,0,2-2.87,7.55,7.55,0,0,0-.24-2.84m-451.5-46.65c-1.35,1.64-3.35,2.15-5.15,5.38-3.69-1.43-4.33-6.27-5-8.35,2.93-.54,9.85-1.85,13.48-2.41a16.7,16.7,0,0,0-3.33,5.38Zm87,15.2a20.49,20.49,0,0,1-7.4-7.89c-.65-1.11-1.24-2.24-1.83-3.34l-.69-1.3A31.91,31.91,0,0,0,344.7,470c-.41-.51-.91-1-1.41-1.59l-1.5-1.54c-.46-.49-.9-1-1.26-1.45a4.89,4.89,0,0,1-.74-1.18c-6.49-16.62-8-26-10.36-42.63-1.22-8.53-6.43-15.43-14.88-25.78-1.06-1.29-2.23-2.82-3.49-4.43-.87-1.11-1.75-2.28-2.67-3.42a88.69,88.69,0,0,0-6.82-7.86c-3-2.54-5.73-4.82-8.14-6.87-3.44-2.94-6.36-5.41-9.05-7.63-5.08-4.16-9-7.11-13.49-10.15a35.3,35.3,0,0,0-20-6.39c-7.11,0-12.35,2.29-14.13,3.51a82.94,82.94,0,0,1-15.6,8.72c-3.69,1.53-7.51,2.77-12.35,4.36-1.55.51-3.21,1.05-5,1.66A33.18,33.18,0,0,0,191.63,375l-1.92,1.84c-.67.67-1.32,1.29-1.93,1.85a9.45,9.45,0,0,1-2.92,2,16.64,16.64,0,0,1-4.12.64c-1,.07-2.06.12-3.08.17l-2.18.09c-6.31.38-11.4,3.94-14.66,6.58-1.69,1.38-3.28,2.82-4.81,4.21l-.72.68a37,37,0,0,1-4.61,3.75c-4.47,2.9-8.72,3.31-13.38,3.77-2.39.25-4.85.5-7.51,1a40.35,40.35,0,0,0-9.11,3.05,75,75,0,0,0-11,6.52c-1.84,1.28-3.62,2.58-5.39,3.87q-2.37,1.72-4.69,3.38c-7,4.89-13,8.15-19.49,8.15s-11-3.75-11.59-9.56c-.54-5.13,2.07-10.3,7.38-14.59l2.92-2.35c2.18-1.74,4.21-3.38,6.07-4.95a45.82,45.82,0,0,0,6.79-6.9c4-5.24,5-10.63,3.27-17.5-1.54-6.15-6.28-10.35-14.47-12.81a66.4,66.4,0,0,0-8.71-1.87l-1-.16-2.31-.38a9.89,9.89,0,0,1-1.89-.48c-4.44-2-14.13-8.46-16.07-9.77l-.79-.52-.54.78c-1.77,2.55-3.16,4.55-4.23,13.37-1.16,9.74,6.87,21.63,20.68,23.81a2,2,0,0,1,.92,3.48C52,397.68,48.87,402.62,48.1,415.52a29,29,0,0,0,7.69,21.57c5.87,6.21,14.36,9.51,24.58,9.51a55.56,55.56,0,0,0,8.54-.71h.31a1.94,1.94,0,0,1,2,1.8c.68,9,2.32,16.3,4.35,19.56a2,2,0,0,1-.34,2.48,9.08,9.08,0,0,1-2.87,1.62,36.92,36.92,0,0,1-12.57,2c-2.93,0-5.13,2-6.88,6.36-.58,1.41-1,2.9-1.51,4.36l-.12.41c-.24.74-.46,1.43-.68,2a9.64,9.64,0,0,1-.64,1.49,12.93,12.93,0,0,1-2.66,3.17,2.06,2.06,0,0,1-1.31.47h-.33a2,2,0,0,1-1.38-1,9.73,9.73,0,0,0-6.75-4.92h-.07l-.31,0c-4.48,0-12.23,3.81-15.1,10.93a2,2,0,0,1-1.6,1.21l-.36.05a7.83,7.83,0,0,0-7.1,5.21,24.47,24.47,0,0,0-1.1,4.19l-.19,1c-.2,1.1-.41,2.22-.71,3.3A10.07,10.07,0,0,1,30,514c-.23.41-.46.8-.69,1.16l-.48.79a6.9,6.9,0,0,0-.55,5.51,5,5,0,0,0,2.74,3A18.61,18.61,0,0,0,35.32,526a39.22,39.22,0,0,0,6.81,1,2.58,2.58,0,0,0,1.26-.35c.29-.18.59-.39.92-.64a2.1,2.1,0,0,1,1.29-.44,1.51,1.51,0,0,1,.3,0l1.46.27c1.19.23,2.69.53,4.16.84l.23,0c1.43.3,2.82.58,4,.79.61.12,1.17.22,1.56.26a7.56,7.56,0,0,0,1,.1h0c6.17-.28,8.78-2.69,10.51-5a23.43,23.43,0,0,0,1.35-2l.7-1.18.53-.9A24.31,24.31,0,0,1,73,516.36a1.93,1.93,0,0,1,1.57-.79,1.73,1.73,0,0,1,.51,0c.7.2,1.43.33,2,.44,1.43.23,2.74.36,3.3.4.41,0,.8,0,1.2,0,5.83,0,10.18-3.25,13.79-6.32l1.19-1,1.63-1.41c.72-.59,1.69-1.36,2.67-2a8.44,8.44,0,0,1,4.67-1.7l.36,0c1.4.08,6.68.45,15.63,1.88a9.23,9.23,0,0,0,1.18.08,19.8,19.8,0,0,0,7.64-2.06,63.77,63.77,0,0,0,7.3-4,17.33,17.33,0,0,1,2-1l.23-.1c.73-.33,1.5-.69,2.31-1.1a16.13,16.13,0,0,0,5.36-4.16,46.82,46.82,0,0,0,3.74-6.71l1.46-3c.8-1.65,1.65-3.41,2.52-5.14a2,2,0,0,1,1.78-1.09h.54a65.28,65.28,0,0,0,9-.85c1.28-.18,2.52-.38,3.72-.57,2.66-.41,4.95-.77,6.66-.84.43,0,1.56.07,3.13.18l3.54.23c4.48.28,8.12.41,11.14.41,1.8,0,3.39,0,4.72-.15a30.07,30.07,0,0,0,6.35-1.06,12.21,12.21,0,0,0,1.57-.58,2.16,2.16,0,0,1,.79-.14,1.94,1.94,0,0,1,1.36.54c1,1,2,1.91,3.07,2.85a2,2,0,0,1,.57,2.1,2,2,0,0,1-1.71,1.33,11.11,11.11,0,0,0-1.16.11c-1.25.18-3.51.67-4.66,2.15a1.94,1.94,0,0,1-1.54.77,2.32,2.32,0,0,1-.79-.16,4.12,4.12,0,0,0-.83-.3,6.17,6.17,0,0,0-1.68-.21h-2.45a63,63,0,0,0-9.57.59,16.23,16.23,0,0,0-5.21,1.6,4.19,4.19,0,0,0-2.44,3.88c.21,3.69,5.41,13.68,9,17.22.69.69,3,1.43,5.61,1.43.26,0,.54,0,.82,0h.15a2,2,0,0,1,1.73,1.07c3.63,7.15,9.91,11.94,15.62,11.94h.37c5.46-.22,20.21-5.53,30.54-10.38a1.44,1.44,0,0,1,.41-.15c.32-.07.72-.13,1.11-.18l2-.25,1-.13a22.61,22.61,0,0,0,6.76-1.57c1.74-.82,4.26-4.07,6.45-8.28a2,2,0,0,1,1.73-1.07l.2,0a1.91,1.91,0,0,1,1.69,1.38,12.79,12.79,0,0,0,.92,2.27c1.75,3.32,4.9,5,9.35,5l.72,0a36.34,36.34,0,0,0,9.33-2.1l1.65-.54a53.3,53.3,0,0,1,7.07-2,14.59,14.59,0,0,1,2.72-.21l1.48,0c.93,0,1.87.13,2.82.2.62.07,1.26.1,1.9.15.9.06,1.84.11,2.82.11a14.86,14.86,0,0,0,6.71-1.31,30.27,30.27,0,0,0,6.31-3.69l.51-.38a2.08,2.08,0,0,1,1.17-.37,1.89,1.89,0,0,1,1.29.5,36.77,36.77,0,0,0,24.44,9.19c.41,0,.83,0,1.24,0,2.92-.08,5.2-1.05,6.45-2.7a4.42,4.42,0,0,0,.74-3.78,2,2,0,0,1,1.55-2.42,9.74,9.74,0,0,0,4.84-2.13,5.16,5.16,0,0,0,1.8-3.56,2.73,2.73,0,0,0-.91-2.09c-1.33-1.24-2.1-1.7-6-3.87" transform="translate(-27.92 -18)"/></g><path class="cls-3" d="M311,359.4a65.2,65.2,0,1,1,65.2,65.18A65.2,65.2,0,0,1,311,359.4" transform="translate(-27.92 -18)"/><path class="cls-8" d="M327.16,394.56c19,13.72,45.8,15.91,66.74,4.66A64,64,0,0,0,428.33,337a66.53,66.53,0,0,0-2-11.06,60.3,60.3,0,0,1-99.18,68.59" transform="translate(-27.92 -18)"/><path class="cls-4" d="M358.38,374.45c-14.1-3.39-23.73-6.8-23.73-6.8a148.92,148.92,0,0,1-.23-27.24c6.1-3.18,22.65-10.58,22.65-10.58a191.88,191.88,0,0,1,15.4,20.91C368.83,357.78,358.38,374.45,358.38,374.45Zm-23.25-59.26a164.88,164.88,0,0,0-9.28,17.58c-3.53,4.41-6.6,8.89-7.93,10.86a60.42,60.42,0,0,1,17.21-28.44Zm63.28,35.08a157.14,157.14,0,0,1,11.62-20s12.22,5.76,18,10.45c0,0,2.12,6.57.72,25.82a74.82,74.82,0,0,1-17.86,6.83S403.69,361.3,398.41,350.27Zm-27.35,45.21,26.07-.71,5,14.21a95.3,95.3,0,0,1-21.71,8.93c-12.46-2.7-19.61-8.11-19.61-8.11Zm5.09-96.39a60.25,60.25,0,0,1,22.5,4.33,28.4,28.4,0,0,1-3.52,8.35,140.49,140.49,0,0,0-26.55-.37L357,302.2a60.57,60.57,0,0,1,19.19-3.11ZM337.5,405.7a60.28,60.28,0,0,1-20.18-33c3.23,3.34,9.46,9.75,9.46,9.75,3.77,7.76,13.15,21.26,13.15,21.26a15,15,0,0,1-2.43,2" transform="translate(-27.92 -18)"/><path class="cls-4" d="M270.88,658.45l24.71,11.92,11.92-24.69-8.23-4-7.95,16.47-8.24-4L317.46,583l-8.24-4Zm62.56-39.72,9,1.61,3.24-18,8.76,1.58L324.28,669.6l-1.6,9,27,4.86,4.85-27-9-1.63-3.23,18-8.78-1.59,30.16-65.68,1.62-9-27-4.88Zm-56.69-49.54,7.19,5.66-18.81,23.89-7.19-5.65Zm-56.14,56.53,7.2,5.66,24.47-31.09,7.2,5.65L235,637l7.18,5.66,46.58-59.17a13.73,13.73,0,1,0-21.58-17ZM392.8,684.6,411,682.42a9.09,9.09,0,0,0,8-10.16l-3.16-26.63c-.66-5.42-2.73-7-5-7.63,2.07-1.49,3.72-3.31,3.23-7.48l-3.31-27.74a9.13,9.13,0,0,0-10.17-8l-18.17,2.17Zm-.28-79.66,9.09-1.08,3.59,30.2-9.07,1.08Zm4.69,39.29,9.09-1.1,3.59,30.21-9.09,1.08Zm50-64.86-8.49,3.4,29.38,73.46-8.49,3.42-29.39-73.47-8.49,3.39,28,69.91a13.72,13.72,0,0,0,25.48-10.2Zm63.12,64.12,7.41-5.34L494.58,606l7.43-5.35,19.3,26.78a15.53,15.53,0,0,0,5.45,4.17l7.62-5.51c-2.29-1.09-4.19-2-5.62-4l-17.24-23.87c-3.18-4.41-5.77-4.84-8.06-4.23,1.06-2.32,1.64-4.69-.82-8.1l-16.35-22.67a9.15,9.15,0,0,0-12.78-2.08l-14.84,10.71ZM471.45,574l7.41-5.36,17.81,24.66-7.43,5.37Zm75.66,17.5a13.73,13.73,0,0,0,17-21.58L536,547.79l-8.11,10.3,7.18,5.67,2.46-3.11,23.89,18.81-5.66,7.18-55-43.28,5.68-7.18,10.87,8.56,5.66-7.2-7.86-6.2a13.73,13.73,0,0,0-17,21.58ZM261.28,536.85c2.44,5,1.13,11.79-2.62,15.75L249,560.35l-5.62-7.26c3.41-3.17,7.39-5.84,11-8.87L249,536.93l-24.27,18.65c2.88,5.26,9.25,9.54,6.8,16.28l-.49,2.3-25.92,20a13.85,13.85,0,0,1-20.09-10,14.69,14.69,0,0,1,5-13.63c2.69-2.13,5.49-4.14,8.2-6.39a86.33,86.33,0,0,1,5.6,7.49c-3.52,2.94-7.26,5.63-10.9,8.55l5.38,7.38c8.1-6,16.18-12.47,24.4-18.76-3.36-5.5-10.63-10.94-6.1-18l2-2.36,23.57-18c3.74-2.35,9.49-2.1,13.27,0a15.56,15.56,0,0,1,5.85,6.34" transform="translate(-27.92 -18)"/><path class="cls-5" d="M322.45,454.05c0,.1-.35,1-.35,1s-.29,1-.29,1a2.21,2.21,0,0,1-1.62,1.57,1.37,1.37,0,0,1-1.25-.2,1.43,1.43,0,0,1-.56-1.14s-.06-1-.06-1l-.35-3.51a9.1,9.1,0,0,0-1.51-3.92L314.92,446l-1.74-2a5.57,5.57,0,0,0-3.78-2,6.46,6.46,0,0,0-2.81,2l-1.2,1.48-1.06,1.44c-.39.66-1.26.28-1.26.28l-.17-.08a.57.57,0,0,0-.06-.17,5.19,5.19,0,0,1-.36-1.95,7.53,7.53,0,0,1,.65-2.87l.92-1.88,1.07-2.25.13-.21a4.77,4.77,0,0,0,1-1.77l.28-.77.62-1.59c.94-2,2.35-2.56,4.4-1.69a9,9,0,0,1,3.31,3.41l.51.83.65,1.07,1.33,1.72c3.68,4.12,5.45,8,5.45,12a13.74,13.74,0,0,1-.33,3Zm-13.92,31s0,0,0,.06-.09,0-.09,0a20.68,20.68,0,0,1-7.1.8l-.14,0-.47-.2-.51-.33a1.12,1.12,0,0,1-.41-1.28c1-2.95,3.9-6.34,7.59-7.11h.86l.82.11a1.73,1.73,0,0,1,1.26,1.41c.05.54.1,1.15.1,1.77,0,1.76-.36,3.64-1.87,4.77Zm-43.33-75-.28-.08a1,1,0,0,1,0,.11.5.5,0,0,0-.08.08,1.15,1.15,0,0,1-1.48.17l-.14-.1,0-.2a71.81,71.81,0,0,0-3.74-13.77l-1-1.8-.41-.58-.91-1.31a4.29,4.29,0,0,1-.46-4.53l.12-.14a3.26,3.26,0,0,1,3.28-.53l.13.07a15.1,15.1,0,0,1,4.1,5.16,24.64,24.64,0,0,1,1.74,9.5,30.21,30.21,0,0,1-1,7.87l.28.08Zm89.23,80.07c-6.82-4-9.55-11.48-13.76-17.4-1.46-2.16-4.08-3.54-5.44-5.69-4.89-13.3-9.11-26.59-10.35-41.83-1-3.75-1.82-7.62-3.87-11.15-6.13-10-14.09-19.1-21.83-28.3-.67-.69-.69-.74-2.16-2.17l-26.93-22.38c-3.3-2.51-7.07-4.1-10.81-5.81-5.69-2.16-13.41-1.7-19,.69-5.8,3.07-11,7.5-17.18,9.55-8.86,4-18.86,4.77-26.49,11.59-4.43,3.87-8.18,9.89-14.77,8.87-7.4-.34-14,2.38-19.55,6.94-5,4.54-9.77,9.89-16.27,11.13-5.67,2.4-12.61,1.25-18.41,3.41-9.2,2.28-16.48,9.55-24.32,15.12-7.84,4.54-15.35,9.43-25.12,9.2a16.89,16.89,0,0,1-14.57-11,18.41,18.41,0,0,1,5.81-19.09c5.8-6.93,15-11,19.54-19,2.4-4.21,2-11-1.13-15-6-6.25-14.66-6.48-22.51-8.41-5-1.38-8.86-5.23-13.3-7.61a13.33,13.33,0,0,0-2,8.62,20.6,20.6,0,0,0,13.18,16.14c4,1.71,8.53.46,12.61,1.38a3.77,3.77,0,0,1,2.39,2.84c-.23,1.13-.34,2.27-1.36,3.06-6.38,5.35-13.07,10.46-18.41,17.06C52.73,407,52,417.83,55,425.55c3.29,8.87,12.49,14.68,21.36,15.81,6.48,1,12.29-.67,18.19-1.94.8,0,1.13.81,1.48,1.27.57,5.21-.23,9.88.91,14.66,1,4.42,2.5,7.51,4.09,11.82a5,5,0,0,1-1,4.2,48.61,48.61,0,0,1-10.35,5.8l-8.87.58-1.7.8c-3.3,3.85-3.41,7.84-5.45,12.15-2.74,4.56-7.74,6.71-11.94,9.33a28.13,28.13,0,0,1-4.77,6.13,8.74,8.74,0,0,1-5.23,1.94c-3.08,3.53-3.76,8.41-4.56,13.18,5,.46,10.23,3.19,15.12.46,4.22-1.93,5.12-7,8.32-10.11,2.49-2.73,6.24-.69,9.19-.12,4.43.23,7.61-2.95,11.37-4.44,2.61-1.69,4.77-4.64,7.51-6.37,5.23-2.49,12.5-1.13,18-.11a19,19,0,0,0,12.62-1.25c3.51-2.15,6.81-4.88,10.79-5.79,3.53-1.82,5.23-5.8,6.71-9.1,1.13-3.06,4.1-5.46,3.87-9-.92-.79-1.93-2.51-3.3-2.4-1.7,2.4-3,4.91-4.88,7.18-8.23,11.21-14.7,12.27-31.39,12.27-12.38-.44-23.53,3.3-32.06,13a1.6,1.6,0,0,1-1.82-.33c-.33-1.36.8-3.63,1.36-4.66,7.63-10.79,19.45-13.28,32-13.53,6.82-.44,13.31-1.59,19.1-4.54a28.79,28.79,0,0,0,13.64-14.79c1.48-7.17,2-14.89,3.87-21.73.23-.67,1.92-1.18,2.5-.95s2,.72,2,1.52c-1.25,7.06-3.51,15.35-.77,22.17,5.44,7.17,15.56,3.3,23,3,7.74-.68,13.94-.09,21.33.37,3.64-.11,6.33.77,9.17-1.49a6.52,6.52,0,0,0,.88-4.31c-.23-2.05-1.93-3.28,0-5a2.61,2.61,0,0,1,2.71.41c1,2.86,1.49,5.91,3.31,8.42,3.64,4.67,9,8.29,14,10.92,4.78,3.29,8.76,7.95,9.11,13.76,0,2.95-2.74,5-5,6.36-3.87,1.93-8.08,3.52-12.62,3.08-6-3-7.61-9.33-11.6-14-2-2.28-5.11-2.74-8.18-2.51-3.3.35-6.59.46-9.54,1.5a2.94,2.94,0,0,0-.92,2.72c2.05,3.75,4.33,7.38,6.59,11.13,2.62,1.59,6.27-.9,8.53,1.94,1.93,2.95,3.18,6.48,6.15,8.75a10.6,10.6,0,0,0,10.9,2.05c8.41-2.62,16.83-5.36,24.67-9.56h2.62c3.18-.34,6.71-.11,9-2.49a89.76,89.76,0,0,0,6.47-10.92c1.92-2.61,1-6.59.23-9.43-3.87-4.77-6-10.12-8.08-15.59-1.92-.56-3.63-1.69-5.79-1.59-1,.45-2.51.23-3.08,1.36l9,17.76a9.14,9.14,0,0,1,.92,5.11,23.15,23.15,0,0,1-6.26,10.12c-.56.33-1.25.67-1.69-.11,1-3.87,2.84-8.09,2.61-12.52l-8.76-15.8c-1-2.17-2.84-4.1-2.72-6.61a3,3,0,0,1,1.93-2.38c3.86-1.25,8.53-1,11.48-4.08,3.87-6,4.67-11.94,5.69-19.11a2.8,2.8,0,0,1,1.82-1.33c.69-.23,1.46.76,1.81,1.1,1.14,7.84-.46,15.79-5,21.94-.23.81-.55,1.82.35,2.38,4.31,1.38,8.87,0,12.51-1.92,4.66.12,9-1,13.18-1.7a1.51,1.51,0,0,1,.91,1.13,21.91,21.91,0,0,0-5.23,10.81c-3.42,3.52-8.3,6.59-8.65,11.7.58,2.51,2.74.12,4.22.35a1.33,1.33,0,0,1,1.13,1.36l-3.41,5c-1.82,3,.34,6.36.34,9.22.81,2.26,3.53,3.41,5.91,3.41,5.13-.23,9.67-2.17,14.21-3.76,5-2.16,11.25-2.05,16.71-1.15,5.35-.32,9.33-3.85,13.3-7.37,2.17,0,4.1,1.47,5.58,3.06,6.13,6.59,14.1,9.43,23.07,9.22l.8-.46a1.4,1.4,0,0,0-.34-2.05l-5.35-2.72c-3.75-2.4-8.41-5.58-9.65-9.78a50.47,50.47,0,0,0-5.47-11.48c-.78-1.83-2.6-3.31-3.41-5.13.23-.23.46-.57.81-.46,5.9,2.05,9.43,7.86,12.15,13.09,4.33,6,10.58,11.13,18.76,9.77l.69-.56a1.2,1.2,0,0,0,0-1.37l-4.1-2" transform="translate(-27.92 -18)"/><path class="cls-5" d="M52.61,502.75c3.53-2.05,5.81-5.91,7.63-9.2-.35-1.27-1.61-2.17-2.63-3.09-.67-.55-1.7-.09-2.5.12a60.08,60.08,0,0,1-7.84,5.57c-1.13.81-.68,2.51-.91,3.76,0,1.13,1.37,1.93,2,2.61a6,6,0,0,0,4.2.23" transform="translate(-27.92 -18)"/><path class="cls-5" d="M40.67,503.08c-1.82.9-3.75,2.63-4.19,4.66-.58,3.64.23,7-2.63,9.67-.11.68-.78,1.46-.11,2.15a38.34,38.34,0,0,0,7.95,2.17c1.38-4.45,2.4-9.33,4-13.19v-1.15c-1.37-1.68-2.73-3.87-5-4.31" transform="translate(-27.92 -18)"/><path class="cls-5" d="M213.12,491c2.28,2.51,2.16,6.37,4.79,8.3,3.39.58,6.46-.79,9.08-2.84,1.5-1.24-.67-2.83-.9-4.32-1.47-2.15-.46-6.48-4.1-6.6a68.8,68.8,0,0,1-10.9.69l-1,.67c-.67,2.19,2.5,2.19,3.07,4.1" transform="translate(-27.92 -18)"/><path class="cls-5" d="M715.12,514.79c-.55-2.6.12-6.24-1.59-8.64-1.47-1.13-2.83-2.83-4.77-2.38-1.59,1.37-4,3-3.64,5.33a78.67,78.67,0,0,1,3.07,11.27c.46.79,0,2.38,1.26,2.38l7.26-2.38c1.27-2-1.13-3.64-1.59-5.58" transform="translate(-27.92 -18)"/><path class="cls-5" d="M506.44,383.16l-.49.95-.53.85-3.59,3.33L498,391.88a43.16,43.16,0,0,0-6.36,7.45,35,35,0,0,0-3,5.51,1.07,1.07,0,0,1-1.33.44l-.21-.06A2,2,0,0,1,487,405a7.17,7.17,0,0,1-.36-2.31,11,11,0,0,1,.21-2.05l.71-2.84.34-1.27c2.2-5.79,7.07-11.86,13.38-16.58a4.56,4.56,0,0,1,3.46-.53,2.32,2.32,0,0,1,1.5,1.35,2.89,2.89,0,0,1,.41,1.41,2.77,2.77,0,0,1-.2,1l.28.1-.28-.1ZM460.06,447.8l-.31,1.08a3.49,3.49,0,0,1-1,1.07,1.36,1.36,0,0,1-1.49,0,3.44,3.44,0,0,1-1.48-1.17s-.49-.74-.49-.74l-.41-.72c-.51-.88-1-1.54-2.18-1.44a3.81,3.81,0,0,0-2.51.84l-.74.55-.42.32-1.2.8c-.05,0-1.63,1.39-1.63,1.39l-.7.59-2.3,2.13a9.57,9.57,0,0,0-2.83,4.94l-.31,1.2-.1.52-.15.72a3.11,3.11,0,0,1-1.25,2.19,2.11,2.11,0,0,1-1.72-.33,1.48,1.48,0,0,1-.65-1.18,16.92,16.92,0,0,1,5.28-14.11,36.58,36.58,0,0,0,4.9-5.16l1.49-1.89,3-3.7.34-.17c2.16-.42,3.51,1.51,4,2.36a35.79,35.79,0,0,1,4.84,8.63,2.56,2.56,0,0,1,.12.79,4.07,4.07,0,0,1,0,.47Zm-2.6,39.36-.07.15a4.68,4.68,0,0,1-2.95.67l-2.16-.25-.73-.11-.16-.05c-2.18-1.21-2.71-3.69-2.95-6.18a2.36,2.36,0,0,1,.83-1.94,1.07,1.07,0,0,1,.14-.1h.14c3,0,5.27.89,6.71,2.66l.08.13.44.87.68,1.41.28-.1-.28.1a4,4,0,0,1,.31,1.46,2.78,2.78,0,0,1-.31,1.28Zm242.2,21.74c-5.8.33-8.66-5.92-12-9.56-2.85-3.29-8.41-5.23-8.3-10.12-1-1.93-1.26-5-2.16-7.51-.81-2-1.59-5-4.33-5.44-4.89-.8-10.79.57-13.86-4-3.18-3.41.33-7.39.9-10.69a33.08,33.08,0,0,0,.81-14.1c-.12-2.49-1.82-4.54-1.38-7,1.15-2.17,3.87-.58,5.57-.35a30.57,30.57,0,0,0,19.67-1.59c8-3.87,14.33-11.94,14-21.15-1.13-11.94-9.65-21.72-18.87-29.44-1.69-1.48-3.85-3.08-4.43-5.23-.23-4.66,5-2.39,7.61-3.53,3.2-.8,6.38-1.59,9-3.41,6.93-4.65,8.41-12.84,7.05-20.79-.23-.69-.23-1.72-1.25-1.72a30.52,30.52,0,0,1-4.1,3.41c-4.43,2.62-10.34,2.16-15,4.44-5.81,2.5-13,6-15.47,12.61a14.24,14.24,0,0,0,1.59,9.45c7.06,11.13,22,18.41,24.34,31.83.9,5.44-1.82,9.43-6,12.49-6.37,3.87-15.91,2.51-22.27-.9-12.29-6.15-23-16.38-36.16-20.58-8.3-3.75-18.53-2.83-25.91-8.64-5.58-3.64-10.69-8.41-16.94-10-4.33-1.48-9.22-1.25-13.19-3.41a61.42,61.42,0,0,0-13.2-9.43c-6.57-3.32-13.85-5-21.14-6.6-4.31-1-5.9-5.8-9.42-8.19-6-4.76-12.75-8.19-20.93-7.5-3.41.23-6,2.49-8.64,4.77-17.38,15.24-37.29,25.7-53.2,43.08-10.69,11-13.53,25-17.51,38.56-5.68,20.45-8.07,43-28.65,55.59a1.6,1.6,0,0,0,.34,2,15.15,15.15,0,0,0,14.45-4.55,105.24,105.24,0,0,1,12-16l1.15-.56c.55.1,1.24.44,1,1.25-1.36,4.54-5.46,7.83-6.82,12.39-1.82,5.45-7.05,9.64-11.48,13.52l-.11.68a1.44,1.44,0,0,0,1.13,1.25c10,.46,17.17-6.71,23.87-13.41a2.52,2.52,0,0,1,2.51-.35c3,2.28,5.68,5.69,9.55,6.5a58.41,58.41,0,0,1,12.74-.81c6,1.82,11.81,4.33,17.84,6.36,3.07-.09,5.33-3.06,6.94-5.55,1.24-3-.58-5.92-.35-8.76,1.48-.92,3.18.23,4.77-.23a2.69,2.69,0,0,0,1.25-2.05c-1.13-5.22-5.79-9.09-7.28-14-2.26-6.25-9.66-10-11-16.71.34-.46.9-1.13,1.49-.69,4.87,3.53,9.2,8.19,15.22,9.1a78.34,78.34,0,0,0,13.76.56,1.54,1.54,0,0,0,1-1.8,73.19,73.19,0,0,1-4.89-12.63c-1.59-5.57-2.72-13.3-.9-19.43.34-.46,1.82-1.35,2.49-1.12a3.32,3.32,0,0,1,2.15,2.14c.69,9.67-.31,18.53,5.47,26.14,2.5,4,6.83,4.77,9.89,7.85a6.64,6.64,0,0,1,.58,6l-6.94,10.25a22.6,22.6,0,0,0-3.76,7.26,29,29,0,0,0,0,8.32c-.45.21-.67-.46-1.13-.69-1.82-3.76-3.87-8.53-1.93-13L509.57,470l.36-1a25.94,25.94,0,0,0-6.15-2.51,6.87,6.87,0,0,0-2.39,2.4l-8.52,15.46c-.57,1.82-1.14,3.18-.68,5.12a23.32,23.32,0,0,0,2.05,6.47,28.57,28.57,0,0,0,2.72,8.2c2.16,2.38,5.11.22,7.85.91s3.74,4,6.48,4.77c6.13,2.05,12.73,3.18,18.86,5.57,3.2,1,7.74,2.27,10.58-.34,4-2.17,5-6.36,5.69-10.35,1.24-1.7,3.74-1,5.56-1.59,3.42-2.28,4.54-6.36,7-9.43l.46-1.59a3.26,3.26,0,0,0-2.17-1.93H545.73c-5.35.67-5.79,6.59-8.07,10.23-1.26,2.26-3.76,3.16-6.36,2.95-5.46-1.48-12.17-2.28-14.68-8.18-.34-1.48-.34-3.3.8-4.33A71.74,71.74,0,0,1,527.2,481a20.06,20.06,0,0,0,12.51-9.21c1.36-1.94,1.13-4.77,3.41-6.25.67-.13,2.2-.16,2.66.51,1,3.3-.84,5.66-1.86,8.51,12.4,1.25,22-2.33,34.05-1.89,5.11,0,9.71.59,14.71.25s10.46-2.28,12.05-7.51c2.28-6.69-.89-14.32-2-20.68l1.37-1.08c.81-.46,2.14.16,2.71.62a105.22,105.22,0,0,1,4.54,19.89c.92,5.81,3.41,9.58,6.59,14.47,5.79,8.64,16,12.05,26.16,9.89,12.27-.91,22.84,5.55,30.34,15.11v.56c-.23.46-.68,1-1.25.92-6.48-5-12.95-10.35-21.25-11.38-8.4-1.52-15.92,2.85-24.68-.67-10.55-3.48-15-10-19.43-20.35h-.92a1.72,1.72,0,0,0-1.25,1.47l1.15,7c1.36,5.68,3.18,12.4,9.31,15,4.78,2.84,9.45,6.94,15.35,5.34,10.35-2.27,20.81.68,28.77,6.48,2.6,1.48,4.65,4.2,7.49,5.23a9.56,9.56,0,0,0,9.33-1.47c5.79-1.94,7.17,5.33,11.14,7.95,3.52,3.41,10.56,2,15.23,2l-.11-.52a41,41,0,0,0-3.63-12.38" transform="translate(-27.92 -18)"/><path class="cls-5" d="M535.15,487.63c-3.06.58-6.59-.11-9.65.35-1.37,2-2.61,4.54-2.27,7.28s3.51,3.06,5.56,3.85c1.94.23,4.77.92,5.81-1.13a43.44,43.44,0,0,0,2.6-9.33,1.56,1.56,0,0,0-2.05-1" transform="translate(-27.92 -18)"/><path class="cls-5" d="M696.69,491.16c-2.26-1.94-4.65.92-5.78,2.61.78,2.74,3.06,5,4.77,7.51a5.34,5.34,0,0,0,4,2.39,6.29,6.29,0,0,0,4-1.72c.8-1,1.71-2.26,1.36-3.74-2.15-2.95-5.57-4.79-8.3-7" transform="translate(-27.92 -18)"/><path class="cls-3" d="M449.22,69.18H396.44L379.4,18l-17,51.18H309.59l43.28,30.37-16.12,50.56L379.4,119l42.65,31.11L405.93,99.55l43.3-30.37" transform="translate(-27.92 -18)"/><path class="cls-6" d="M379.39,111.86l31.79,23.21-12-37.82L431,74.93h-38.7L379.39,36.25,366.51,74.93h-38.7l31.82,22.32-12,37.82,31.8-23.21" transform="translate(-27.92 -18)"/><path class="cls-6" d="M379.39,111.86l31.79,23.21-12-37.82L431,74.93h-38.7L379.39,36.25,366.51,74.93h-38.7l31.82,22.32-12,37.82,31.8-23.21" transform="translate(-27.92 -18)"/></svg>