<svg xmlns="http://www.w3.org/2000/svg" width="70.6pt" height="69.2pt" viewBox="0 0 70.6 69.2"><defs><clipPath id="a"><path d="M0 0h70.602v69.2H0zm0 0"/></clipPath></defs><g clip-path="url(#a)"><path style="stroke:none;fill-rule:evenodd;fill:#000;fill-opacity:1" d="M18.438 68.988c1.578-.363 2.777-1.172 3.714-2.488.891-1.387 1.211-2.91.887-4.531l12.484-8.883 12.403 8.828c-.086.648-.043 1.281.07 1.93.652 2.812 2.91 4.656 5.8 4.726l.602-.03c2.75-.353 4.758-2.259 5.247-4.99.19-1.448-.06-2.702-.793-3.968-1.079-1.684-2.696-2.684-4.696-2.836l-4.172-14.531 11.73-9.3a6.21 6.21 0 0 0 2.009.667c2.945.363 5.523-1.312 6.472-4.105.434-1.508.328-2.895-.316-4.329-.738-1.43-1.797-2.394-3.297-2.988-1.617-.55-3.152-.465-4.691.27-1.16.617-2.075 1.496-2.657 2.683l-14.746-.39-4.867-14.243c.586-.55 1.012-1.207 1.344-1.933.976-2.399.414-4.918-1.461-6.707l-.441-.36c-2.2-1.57-4.883-1.57-7.083 0l-.437.36c-2.395 2.289-2.598 5.789-.453 8.293.105.12.215.238.332.347l-4.867 14.243-14.746.39c-.418-.855-1.008-1.531-1.754-2.125-2.196-1.578-4.887-1.586-7.098-.011l-.434.363c-2.035 1.93-2.507 4.7-1.226 7.2.805 1.394 1.914 2.308 3.441 2.827 1.563.446 3.16.336 4.594-.453l11.727 9.3-4.329 15.079c-1.902.148-3.52 1.238-4.539 2.832-.726 1.262-.976 2.516-.793 3.96l.118.583c.765 2.672 2.953 4.371 5.73 4.441.41-.011.79-.05 1.192-.12zm0 0"/></g><path style="stroke:none;fill-rule:evenodd;fill:#1b1918;fill-opacity:1" d="M33.98 9.648 28.11 26.84l-17.872.469A3.769 3.769 0 0 0 6.5 23.957a3.765 3.765 0 0 0-3.762 3.758A3.77 3.77 0 0 0 6.5 31.48a3.762 3.762 0 0 0 2.844-1.304l14.183 11.246-5.21 18.16c-.34-.102-.7-.156-1.07-.156a3.771 3.771 0 0 0-3.763 3.761 3.775 3.775 0 0 0 3.762 3.77 3.776 3.776 0 0 0 3.766-3.77 3.74 3.74 0 0 0-.586-2.007l15.097-10.746 14.88 10.593a3.717 3.717 0 0 0-.372 1.625 3.775 3.775 0 0 0 3.766 3.766 3.774 3.774 0 0 0 3.762-3.766 3.771 3.771 0 0 0-3.762-3.761c-.426 0-.832.074-1.207.199l-5.074-17.668 14.187-11.246a3.747 3.747 0 0 0 2.84 1.304 3.773 3.773 0 0 0 3.766-3.765 3.768 3.768 0 0 0-3.766-3.758 3.769 3.769 0 0 0-3.738 3.352l-17.871-.47-5.871-17.19a3.768 3.768 0 0 0 2.222-3.43 3.765 3.765 0 0 0-3.762-3.758 3.768 3.768 0 0 0-3.765 3.758c0 1.523.918 2.84 2.222 3.43zm0 0"/><path style="stroke:none;fill-rule:evenodd;fill:#ffcb00;fill-opacity:1" d="M33.98 9.648 28.11 26.84l-17.872.469A3.769 3.769 0 0 0 6.5 23.957a3.765 3.765 0 0 0-3.762 3.758A3.77 3.77 0 0 0 6.5 31.48a3.762 3.762 0 0 0 2.844-1.304l14.183 11.246-5.21 18.16c-.34-.102-.7-.156-1.07-.156a3.771 3.771 0 0 0-3.763 3.761 3.775 3.775 0 0 0 3.762 3.77 3.776 3.776 0 0 0 3.766-3.77 3.74 3.74 0 0 0-.586-2.007l15.097-10.746 14.88 10.593a3.717 3.717 0 0 0-.372 1.625 3.775 3.775 0 0 0 3.766 3.766 3.774 3.774 0 0 0 3.762-3.766 3.771 3.771 0 0 0-3.762-3.761c-.426 0-.832.074-1.207.199l-5.074-17.668 14.187-11.246a3.747 3.747 0 0 0 2.84 1.304 3.773 3.773 0 0 0 3.766-3.765 3.768 3.768 0 0 0-3.766-3.758 3.769 3.769 0 0 0-3.738 3.352l-17.871-.47-5.871-17.19a3.768 3.768 0 0 0 2.222-3.43 3.765 3.765 0 0 0-3.762-3.758 3.768 3.768 0 0 0-3.765 3.758c0 1.523.918 2.84 2.222 3.43zm0 0"/><path style="stroke:none;fill-rule:evenodd;fill:#fff;fill-opacity:1" d="m34.871 9.266-.21.613-5.872 17.187-.16.477-.5.012-17.871.472-.66.02-.07-.66a3.034 3.034 0 0 0-1-1.93 3.011 3.011 0 0 0-2.028-.785 3.05 3.05 0 0 0-3.043 3.043 3.045 3.045 0 0 0 4.305 2.773 3.105 3.105 0 0 0 1.039-.777l.449-.523.543.425L23.977 40.86l.375.301-.133.457-5.211 18.16-.2.7-.695-.207a3.13 3.13 0 0 0-.867-.125 3.02 3.02 0 0 0-2.148.898 3.017 3.017 0 0 0-.891 2.145c0 .84.34 1.605.89 2.152a3.036 3.036 0 0 0 4.301 0 3.015 3.015 0 0 0 .895-2.153 2.956 2.956 0 0 0-.473-1.62l-.36-.575.552-.394 15.093-10.746.418-.297.414.297 14.88 10.593.492.352-.258.539a2.968 2.968 0 0 0-.297 1.316 3.045 3.045 0 0 0 3.043 3.043c.836 0 1.598-.343 2.148-.894a3.037 3.037 0 0 0 .895-2.149 3.045 3.045 0 0 0-3.043-3.043c-.18 0-.344.016-.5.04a2.547 2.547 0 0 0-.48.12l-.715.243-.207-.723-5.067-17.672-.137-.457.375-.3 14.188-11.247.539-.425.45.523c.284.324.64.594 1.038.777a3.038 3.038 0 0 0 3.414-.621c.551-.55.895-1.312.895-2.152 0-.836-.344-1.598-.895-2.149a3.038 3.038 0 0 0-2.152-.894c-.777 0-1.488.297-2.027.785a3.025 3.025 0 0 0-1 1.93l-.07.66-.657-.02-17.871-.472-.5-.012-.164-.477L36.383 9.88l-.211-.613.594-.27c.539-.242.996-.64 1.32-1.133a3.042 3.042 0 0 0-.414-3.797 3.036 3.036 0 0 0-2.149-.894 3.053 3.053 0 0 0-3.046 3.047c0 .613.18 1.172.488 1.644.316.492.773.89 1.312 1.133zm-1.762.722a4.51 4.51 0 0 1-1.347-1.343 4.433 4.433 0 0 1-.719-2.426 4.49 4.49 0 0 1 4.48-4.48c1.23 0 2.356.5 3.164 1.312a4.454 4.454 0 0 1 .594 5.594 4.51 4.51 0 0 1-1.347 1.343l5.52 16.145 16.76.445a4.47 4.47 0 0 1 4.328-3.344 4.487 4.487 0 0 1 4.485 4.48 4.483 4.483 0 0 1-4.484 4.48 4.506 4.506 0 0 1-2.895-1.066L48.34 41.685l4.75 16.546c.238-.039.469-.058.707-.058a4.483 4.483 0 0 1 4.48 4.48 4.467 4.467 0 0 1-1.312 3.164 4.47 4.47 0 0 1-6.336 0 4.451 4.451 0 0 1-1.313-3.164c0-.336.04-.668.11-.988.035-.125.062-.25.101-.371l-14.004-9.977-14.168 10.086a4.443 4.443 0 0 1-.941 4.953 4.47 4.47 0 0 1-3.168 1.317 4.445 4.445 0 0 1-3.16-1.317 4.458 4.458 0 0 1 0-6.332 4.442 4.442 0 0 1 3.726-1.277l4.899-17.062L9.395 31.129c-.313.266-.66.488-1.04.66a4.467 4.467 0 0 1-5.023-.906 4.46 4.46 0 0 1-1.312-3.168 4.492 4.492 0 0 1 4.48-4.48 4.47 4.47 0 0 1 2.988 1.144 4.558 4.558 0 0 1 1.348 2.2l16.758-.446zm0 0"/><path style="stroke:none;fill-rule:evenodd;fill:#eceded;fill-opacity:1" d="M36.07 29.895c7.274 0 13.172 5.976 13.172 13.347 0 7.371-5.898 13.348-13.172 13.348-7.277 0-13.175-5.977-13.175-13.348 0-7.37 5.898-13.347 13.175-13.347zm0 0"/><path style="stroke:none;fill-rule:evenodd;fill:#1b1918;fill-opacity:1" d="M36.07 29.793c3.653 0 6.973 1.512 9.375 3.95a13.48 13.48 0 0 1 3.895 9.5c0 3.702-1.488 7.062-3.895 9.5-2.402 2.437-5.722 3.944-9.375 3.944-3.656 0-6.976-1.507-9.379-3.945a13.486 13.486 0 0 1-3.894-9.5 13.48 13.48 0 0 1 3.894-9.5c2.403-2.437 5.723-3.949 9.38-3.949zm0 .2c-3.601 0-6.867 1.487-9.234 3.886a13.298 13.298 0 0 0-3.84 9.363c0 3.649 1.469 6.965 3.84 9.36 2.367 2.402 5.633 3.89 9.234 3.89 3.598 0 6.867-1.488 9.235-3.89a13.288 13.288 0 0 0 3.836-9.36c0-3.648-1.47-6.96-3.836-9.363-2.367-2.399-5.637-3.887-9.235-3.887zm0 0"/><path style="stroke:none;fill-rule:evenodd;fill:#1b1918;fill-opacity:1" d="m35.813 43.98.863 2.668 2.781.106-2.219 1.664.766 2.734-2.238-1.64-2.301 1.586.828-2.68-2.188-1.754 2.75-.016zm-9.508 3.438 1.832 2.02 1.691-.508-.394 2 2.332 1.89c-.852-.242-1.75-.273-2.559-.734l.121 1.418-1.777-2.094-1.828-1.031.906-.316zm5.359 6.922c2.766 2.082 5.77 2.117 9.004.09-.898-.547-1.516-1.332-1.707-2.465a12.844 12.844 0 0 1-5.98-.086c-.086.824-.524 1.64-1.317 2.46zm-1.274-6.55 1.801-3.126-6.632 1.32zm11.024.175-1.8-3.125 6.632 1.32zm-9.617-15.793c2.765-2.082 5.156-1.977 8.39.047-.8.75-.992 1.55-1.32 2.418a12.812 12.812 0 0 0-5.972.09c-.09-.825-.305-1.73-1.098-2.555zm-3.507 1.18.448.933 2.41-.976-1.996 2.011 2.149 5.098c-.696-.55-1.52-.914-2.09-1.656l-.426 1.36-1.691-2.61-.903-1.992.914-.083zm15.28-.047-.453.933-2.402-.972 1.992 2.011-2.152 5.102c.699-.55 1.523-.918 2.093-1.66l.43 1.363 1.688-2.613.902-1.996-.914-.082zm0 0"/><path style="stroke:none;fill-rule:evenodd;fill:#1b1918;fill-opacity:1" d="M16.547 37.281c.168-.218.355-.433.59-.578.226-.144.496-.2.754-.266a3.24 3.24 0 0 1 1.523 0l.516.176.355.32.356-.468.168-.028h.449v.235l34.078-.031-.02 12.5c-13.332-4.778-26.398-4.348-39.265 0l-.055-10.153c.016-.418.195-1.234.55-1.707zm0 0"/><path style="stroke:none;fill-rule:evenodd;fill:#fff;fill-opacity:1" d="M20.992 40.281c-.11.008-.215.02-.324.028a5.83 5.83 0 0 0-.504-1.856c-.262-.574-.668-.851-1.207-.84a.895.895 0 0 0-.652.313c-.192.203-.285.492-.285.867 0 .316.062.586.183.805.125.215.277.39.461.523.191.133.426.266.703.406.274.137.485.246.617.336.477.309.828.73 1.063 1.266.234.531.355 1.184.355 1.957 0 .832-.129 1.527-.379 2.09-.253.578-.558 1.015-.925 1.32-.368.309-.73.516-1.106.621-.398.11-.824.098-1.277-.047-.172-.054-.297-.105-.399-.14a.454.454 0 0 0-.277-.012c-.113.035-.2.125-.254.273a1.526 1.526 0 0 0-.082.528 8.26 8.26 0 0 0-.332.11V44.41c.11-.02.219-.043.332-.066.074.636.23 1.191.469 1.664.242.469.523.804.844 1.012.32.203.625.27.914.199.238-.059.449-.239.629-.532.18-.292.273-.68.273-1.167 0-.317-.055-.563-.16-.739a.974.974 0 0 0-.371-.383 14.623 14.623 0 0 0-.961-.468c-.383-.176-.735-.371-1.027-.614-.297-.238-.54-.605-.731-1.093-.2-.485-.293-1.121-.293-1.891 0-.75.102-1.418.309-1.988.207-.563.504-1 .89-1.305a2.126 2.126 0 0 1 1.34-.441c.332 0 .668.125 1.012.367.105.082.191.144.254.191.066.051.12.078.164.102a.261.261 0 0 0 .129.031c.078 0 .144-.035.203-.125a.628.628 0 0 0 .078-.336v-.14c.11 0 .215 0 .324-.004v3.597zm3.66.84c.528-.043 1.055-.094 1.575-.133v-2.551c0-.374-.024-.66-.079-.851-.046-.207-.144-.305-.296-.3-.051 0-.098 0-.145.003v-.437l3.027-.012v.414h-.144c-.149.004-.25.101-.297.293-.05.191-.078.469-.078.836v5.996c0 .332.023.598.07.797.05.203.14.289.281.27.055-.005.114-.012.168-.02v.418c-1.011.144-2.02.293-3.027.457v-.438c.04-.008.086-.015.133-.023.152-.028.254-.145.305-.348a3.82 3.82 0 0 0 .082-.875v-2.785c-.52.047-1.047.102-1.575.156v2.875c0 .254.016.469.035.633.02.168.055.297.11.387a.218.218 0 0 0 .234.105.988.988 0 0 1 .145-.023v.437a72.74 72.74 0 0 0-3.024.621v-.468c.055-.008.102-.02.145-.028.156-.035.25-.16.297-.379.047-.222.07-.535.07-.941v-6.629c0-.422-.023-.73-.07-.933-.043-.208-.137-.305-.29-.305h-.152v-.469a771.95 771.95 0 0 1 3.024-.016v.438c-.047.004-.09.004-.137.004-.144.004-.246.098-.3.293-.06.187-.087.492-.087.906v2.625zm4.657-4.281c1.55-.004 3.101-.008 4.656-.008.008.387.023.777.039 1.172.008.383.027.773.043 1.164-.102 0-.203 0-.305.004-.058-.59-.246-.996-.55-1.215-.31-.223-.637-.336-.977-.328h-.395v3.066a.684.684 0 0 0 .492-.191c.122-.121.211-.29.266-.5a4.58 4.58 0 0 0 .102-.8c.101 0 .207-.009.312-.009v3.711c-.105.004-.21.008-.312.016-.024-.469-.094-.832-.22-1.082-.124-.25-.343-.371-.64-.36v2.528c0 .34.04.558.121.652.082.094.192.137.348.13a1.66 1.66 0 0 0 .758-.25c.25-.153.465-.364.66-.626.18-.262.316-.574.402-.95.114.052.227.102.332.153-.062.387-.136.77-.199 1.153-.062.382-.133.765-.195 1.148-1.582.086-3.16.195-4.738.363v-.41c.054-.008.109-.012.164-.02.144-.011.242-.12.289-.32.043-.195.07-.472.07-.812v-5.871a3.9 3.9 0 0 0-.07-.805c-.047-.195-.145-.29-.29-.29h-.163v-.413zm5.597-.008h3.582c.473 0 .86.078 1.168.25.305.16.528.363.676.605.14.247.238.489.285.731.051.238.074.465.074.672 0 .492-.109.933-.336 1.324-.226.395-.57.648-1.027.766.219.574.45 1.14.676 1.71.223.575.453 1.15.68 1.723.136.352.289.543.46.594v.402a100.25 100.25 0 0 0-2.16-.148 457.695 457.695 0 0 0-1.539-3.98c-.011 0-.023 0-.03-.004v2.476c0 .227.01.414.026.563a1 1 0 0 0 .11.363c.058.09.14.133.246.137.043 0 .09.004.137.004v.394a78.254 78.254 0 0 0-3.028-.016v-.394h.133c.145 0 .246-.09.3-.262.056-.164.087-.437.087-.808v-5.649c0-.367-.031-.637-.086-.808-.055-.168-.156-.25-.3-.25h-.134v-.395zm2.508.781v3.09c.34.004.637-.101.914-.316.262-.211.402-.633.402-1.29 0-.988-.437-1.484-1.316-1.484zm3.965 8.02v-.406c.043.007.09.011.137.015.168.02.273-.058.32-.238.043-.184.059-.453.059-.816V38.34c0-.363-.016-.633-.06-.82-.046-.184-.151-.278-.32-.278-.046 0-.093-.004-.136-.004v-.398c1.004 0 2.016 0 3.027.004v.422h-.125a.29.29 0 0 0-.265.14 1.043 1.043 0 0 0-.11.383c-.015.164-.02.36-.02.598v6.004c0 .242.005.445.02.605.016.16.059.293.11.399a.363.363 0 0 0 .265.187c.04.004.082.008.125.016v.422a67.884 67.884 0 0 0-3.027-.387zm3.601-8.785 4.739.023c.011.469.027.934.039 1.399.012.464.027.937.043 1.398a8.59 8.59 0 0 0-.317-.02c-.078-1.234-.64-1.867-1.683-1.894-.106 0-.211 0-.313-.008v3.426c.352.035.602-.082.742-.352.149-.265.227-.68.239-1.23.093 0 .195.008.293.015v4.438a9.48 9.48 0 0 0-.293-.055c0-.593-.07-1.058-.215-1.39-.145-.328-.399-.508-.766-.551v2.887c0 .359.02.632.059.82.043.176.094.297.156.355a.427.427 0 0 0 .238.114c.063.011.118.023.188.035v.457c-1.05-.211-2.102-.43-3.149-.606v-.43c.04.008.083.012.125.024.141.02.243-.05.305-.215.063-.156.094-.453.094-.883v-6.168c0-.374-.027-.66-.078-.855-.047-.203-.149-.305-.297-.309h-.149v-.425zm5.286.03c1.578.013 3.156.024 4.738.04.008.539.023 1.078.035 1.617.012.543.027 1.078.05 1.617a6.866 6.866 0 0 1-.32-.03c-.081-1.419-.64-2.157-1.683-2.2l-.313-.012v3.91c.348.059.594-.066.739-.363.148-.309.226-.785.242-1.422.094.008.187.02.285.028v5.109c-.098-.024-.191-.043-.285-.07 0-.688-.07-1.223-.219-1.61-.144-.383-.398-.605-.762-.676v3.293c0 .414.02.73.063.938.035.215.082.355.14.426a.534.534 0 0 0 .25.16c.06.02.118.043.18.062v.52a87.518 87.518 0 0 0-3.14-.961v-.48c.039.011.078.019.12.03.141.036.243-.03.305-.206.063-.172.094-.5.094-.985v-6.945c0-.422-.027-.742-.07-.965-.055-.226-.16-.34-.309-.344-.047 0-.093 0-.14-.004v-.476zm0 0"/><path style="stroke:none;fill-rule:evenodd;fill:#1b1918;fill-opacity:1" d="m21.086 40.363-.082.008a3.978 3.978 0 0 1-.164.012c-.16.015-.137.015-.16.015l-.09.008-.004-.086a6.642 6.642 0 0 0-.496-1.836 1.445 1.445 0 0 0-.477-.597 1.035 1.035 0 0 0-.656-.18.705.705 0 0 0-.312.07 1.141 1.141 0 0 0-.278.207.953.953 0 0 0-.191.336c-.043.14-.067.293-.067.473 0 .152.02.297.043.422a1.3 1.3 0 0 0 .125.34 1.402 1.402 0 0 0 .441.492c.09.066.196.129.31.195.113.067.238.137.378.203.133.067.258.133.364.188.109.058.195.11.265.156.242.156.457.348.637.563.183.218.336.464.457.738.125.273.21.578.273.914.063.332.09.687.09 1.082 0 .418-.031.805-.097 1.16-.063.36-.16.68-.29.969a4.35 4.35 0 0 1-.43.773 3.12 3.12 0 0 1-.519.578 4.05 4.05 0 0 1-.562.399 2.84 2.84 0 0 1-.578.242 2.26 2.26 0 0 1-.653.07 2.52 2.52 0 0 1-.68-.12c-.09-.028-.167-.06-.238-.087-.058-.02-.105-.039-.156-.054-.043-.012-.082-.024-.125-.024a.394.394 0 0 0-.098.012.205.205 0 0 0-.109.074.367.367 0 0 0-.09.145c-.023.07-.039.144-.058.23a1.8 1.8 0 0 0-.02.266v.066l-.062.02c-.024.008-.059.023-.086.03a5.89 5.89 0 0 0-.246.075l-.114.031V44.34l.07-.012c.044-.016.102-.023.169-.039.132-.027.148-.031.164-.031l.093-.02.012.098c.043.312.094.605.176.879.074.27.172.523.289.75.113.226.242.422.379.586.133.164.277.297.43.394.152.094.296.16.44.188a.875.875 0 0 0 .403 0 .821.821 0 0 0 .305-.16c.094-.082.187-.196.273-.332.082-.137.145-.301.188-.485a2.846 2.846 0 0 0 .031-1.043 1.147 1.147 0 0 0-.105-.285.998.998 0 0 0-.34-.351 10.681 10.681 0 0 0-.418-.215c-.145-.07-.324-.153-.54-.25a5.684 5.684 0 0 1-.554-.285 3.53 3.53 0 0 1-.492-.34 2.079 2.079 0 0 1-.414-.477 3.303 3.303 0 0 1-.344-.652 3.676 3.676 0 0 1-.223-.86 6.88 6.88 0 0 1-.07-1.066c0-.379.02-.742.074-1.078.055-.34.133-.652.239-.938a3.67 3.67 0 0 1 .386-.773 2.56 2.56 0 0 1 .532-.574c.199-.153.414-.266.648-.348.23-.078.477-.113.746-.113.176 0 .352.031.531.097.176.063.356.16.528.29.12.085.152.109.172.125.062.042.054.039.09.066.027.016.062.035.085.055l.067.039c.012.008.031.011.039.015a.092.092 0 0 0 .043.008.16.16 0 0 0 .07-.02c.016-.015.04-.035.059-.066a.536.536 0 0 0 .07-.29v-.23h.41l.094-.003zm-.184-.16v-3.426h-.144v.051a.728.728 0 0 1-.098.387.447.447 0 0 1-.117.125.356.356 0 0 1-.156.039c-.028 0-.055 0-.09-.012a.338.338 0 0 1-.082-.027c-.024-.012-.047-.031-.078-.047-.028-.02-.055-.04-.094-.066-.082-.063-.078-.059-.086-.063a4.895 4.895 0 0 0-.176-.125 1.976 1.976 0 0 0-.484-.266 1.34 1.34 0 0 0-.469-.086 2.008 2.008 0 0 0-1.285.422 2.492 2.492 0 0 0-.492.536c-.145.21-.266.457-.367.734-.098.277-.18.582-.227.898a6.4 6.4 0 0 0-.078 1.055c0 .383.023.73.074 1.04.043.308.113.585.211.816.094.238.2.445.32.624.118.176.246.32.383.434.145.121.301.227.473.324.164.102.344.192.539.278.21.093.387.18.539.254.2.101.34.168.426.214.078.047.16.102.222.172.067.07.13.153.188.246.055.102.094.211.125.348a2.968 2.968 0 0 1-.031 1.113 1.806 1.806 0 0 1-.211.54c-.098.152-.2.277-.309.374a.848.848 0 0 1-.375.196c-.16.039-.324.043-.488.004a1.399 1.399 0 0 1-.496-.215 2.1 2.1 0 0 1-.477-.426 3.338 3.338 0 0 1-.398-.621 4.514 4.514 0 0 1-.305-.781 5.808 5.808 0 0 1-.16-.809c-.043.008-.059.008-.074.008-.028.008-.059.012-.09.02v4.222c.039-.02.078-.031.125-.047a.081.081 0 0 0 .023-.008c.004-.074.008-.156.02-.23.015-.09.039-.18.07-.262a.485.485 0 0 1 .125-.203.328.328 0 0 1 .188-.121.372.372 0 0 1 .16-.023c.05.003.11.019.164.03.05.016.105.036.168.06.07.027.14.058.226.081.223.07.43.11.633.118a2.076 2.076 0 0 0 1.137-.297 2.993 2.993 0 0 0 1.023-.918 4.233 4.233 0 0 0 .692-1.672 6.25 6.25 0 0 0 .093-1.13 6.3 6.3 0 0 0-.085-1.054 3.627 3.627 0 0 0-.262-.867 2.775 2.775 0 0 0-1.027-1.227 3.914 3.914 0 0 0-.254-.144 8.165 8.165 0 0 0-.352-.188 5.202 5.202 0 0 1-.395-.207c-.12-.066-.222-.136-.324-.203a1.761 1.761 0 0 1-.273-.242 2.233 2.233 0 0 1-.219-.312 1.522 1.522 0 0 1-.144-.387 2.142 2.142 0 0 1-.047-.461c0-.195.03-.371.074-.527.05-.157.129-.29.234-.403.102-.11.215-.191.328-.25a1.02 1.02 0 0 1 .387-.09c.29-.007.543.067.762.215.215.149.394.375.531.672.133.285.242.586.332.903.074.285.137.585.176.902.031-.004.035-.004.066-.004.032-.004.059-.008.082-.008zm3.84.817c.23-.016.465-.04.692-.055.23-.024.46-.043.703-.063v-2.465c0-.18-.008-.34-.02-.48a1.847 1.847 0 0 0-.055-.355.406.406 0 0 0-.085-.18.172.172 0 0 0-.125-.043h-.239v-.617h.094c.508 0 1.023-.004 1.547-.004.488-.004.98-.004 1.48-.004h.094v.594h-.094c-.015 0-.03-.004-.05-.004-.032 0-.063 0-.09.004a.195.195 0 0 0-.13.047.369.369 0 0 0-.085.175c-.024.094-.04.211-.05.348a3.28 3.28 0 0 0-.024.465v5.996c0 .156.004.305.015.441.016.133.028.242.051.336.02.082.047.14.086.176.02.023.055.031.098.027.043-.007.078-.011.113-.015.016 0 .027 0 .055-.004l.105-.008v.59l-.082.012c-.5.07-1.004.144-1.516.218-.515.078-1.02.157-1.515.239l-.102.015v-.617l.075-.012c.007 0 .023-.004.046-.007.036-.008.07-.012.094-.016a.257.257 0 0 0 .137-.078.492.492 0 0 0 .094-.203c.027-.094.043-.22.058-.364a5.89 5.89 0 0 0 .02-.488V41.93c-.227.027-.457.043-.684.066-.215.024-.465.047-.71.074v2.793a6.77 6.77 0 0 0 .03.625c.008.078.024.145.04.203a.773.773 0 0 0 .058.149c.02.023.04.043.063.055.023.007.05.011.082.003.039-.007.054-.007.054-.007.028-.004.059-.012.09-.012l.102-.02v.618l-.07.015c-.508.098-1.012.192-1.512.293-.5.106-1 .211-1.504.328l-.113.024v-.578l.12-.094c.024-.008.044-.012.094-.024a.236.236 0 0 0 .137-.09.452.452 0 0 0 .094-.222c.023-.106.039-.234.05-.387.012-.156.02-.336.02-.535v-6.629c0-.2-.008-.375-.02-.531a3.18 3.18 0 0 0-.05-.383c-.02-.082-.043-.152-.086-.191a.153.153 0 0 0-.117-.047.473.473 0 0 1-.075.004h-.074l-.093.004v-.653h.09c.945-.004 1.894-.011 3.109.074v.528l-.086.004h-.137a.177.177 0 0 0-.125.05.338.338 0 0 0-.086.172c-.031.098-.05.211-.066.356-.008.144-.02.32-.02.531v2.527zm-.082.195-.098.004v-2.727c0-.207.008-.39.028-.547.012-.156.031-.285.062-.386a.568.568 0 0 1 .141-.254.33.33 0 0 1 .246-.094h.047v-.36l-.082.094c-.922.008-1.844.012-2.762.02v.281h.063-.004.004a.33.33 0 0 1 .25.102.608.608 0 0 1 .129.28c.027.106.043.24.054.403.016.153.016.332.016.54v6.636c0 .203 0 .387-.016.547a2.755 2.755 0 0 1-.054.41.762.762 0 0 1-.13.3.437.437 0 0 1-.238.15c-.011 0-.039.007-.074.015v.281a89.77 89.77 0 0 1 1.403-.3c.484-.102.96-.196 1.44-.282v-.262c-.026.004-.034.012-.038.012a.303.303 0 0 1-.188-.023.339.339 0 0 1-.14-.13.645.645 0 0 1-.078-.187 1.2 1.2 0 0 1-.043-.234 5.354 5.354 0 0 1-.02-.29 3.261 3.261 0 0 1-.015-.355v-2.953l.082-.008c.253-.027.496-.05.785-.082.258-.023.523-.05.789-.078l.097-.008v2.887c0 .192-.007.363-.02.504a2.828 2.828 0 0 1-.062.39.633.633 0 0 1-.136.282.398.398 0 0 1-.243.137.929.929 0 0 0-.062.011v.254c.477-.078.95-.152 1.414-.222.469-.07.95-.137 1.438-.207v-.239c-.024.004-.047.004-.063.008a.294.294 0 0 1-.25-.074.536.536 0 0 1-.137-.266 2.801 2.801 0 0 1-.054-.36c-.012-.132-.012-.288-.012-.456v-5.996c0-.176 0-.34.016-.485a2.14 2.14 0 0 1 .066-.375.519.519 0 0 1 .129-.257.369.369 0 0 1 .25-.102h.055v-.234c-.465 0-.93.004-1.391.004-.488.004-.977.004-1.461.007v.254h.059a.321.321 0 0 1 .25.098.52.52 0 0 1 .136.266c.024.105.047.234.059.379.012.148.02.308.02.5v2.632l-.087.008c-.253.02-.515.04-.785.063l-.785.07zm4.559-4.469h.09c.777 0 1.55-.004 2.324-.004.777 0 1.555-.004 2.332-.004h.082l.004.094c.008.188.015.387.02.59.011.191.019.383.019.574.008.258.02.52.031.785.008.125.012.25.016.383l.004.094h-.243c-.05.004-.101.004-.156.004h-.082l-.008-.082a2.084 2.084 0 0 0-.175-.715 1.057 1.057 0 0 0-.34-.438 1.784 1.784 0 0 0-.45-.238 1.478 1.478 0 0 0-.472-.074h-.168c-.043 0-.086 0-.137.004v2.879a.63.63 0 0 0 .344-.156.852.852 0 0 0 .137-.2.92.92 0 0 0 .097-.265c.028-.098.047-.22.067-.348.015-.125.03-.27.035-.434l.004-.082.082-.004h.172c.047 0 .093-.004.144-.004l.094-.003v3.89l-.09.004c-.05.008-.105.008-.156.008-.055 0-.106.004-.156.008l-.09.004-.004-.09a3.64 3.64 0 0 0-.07-.606 1.8 1.8 0 0 0-.141-.437v-.004a.52.52 0 0 0-.219-.238.55.55 0 0 0-.25-.063v2.43c0 .164.012.3.027.402a.482.482 0 0 0 .075.192.27.27 0 0 0 .11.078.405.405 0 0 0 .163.023 1.736 1.736 0 0 0 .719-.238c.117-.074.226-.16.336-.258a2.576 2.576 0 0 0 .523-.762 2.82 2.82 0 0 0 .16-.5l.028-.105.097.047c.059.023.11.05.164.078.07.027.126.055.168.074l.063.027-.012.067a15.47 15.47 0 0 0-.066.394c-.05.258-.098.52-.133.758l-.098.563c-.027.203-.066.406-.097.586l-.008.07-.074.004c-.79.043-1.578.094-2.371.152-.797.059-1.586.13-2.368.211l-.097.012v-.59l.078-.012c.031-.004.062-.004.101-.008a.322.322 0 0 1 .067-.007.208.208 0 0 0 .125-.059.458.458 0 0 0 .086-.191c.02-.094.039-.211.047-.344.011-.137.015-.29.015-.453v-5.871c0-.164-.004-.313-.015-.446a2.171 2.171 0 0 0-.047-.336.368.368 0 0 0-.086-.18.151.151 0 0 0-.117-.046c-.094.004-.032 0-.047 0h-.004c-.035 0-.074 0-.113.004h-.09zm.18 8.524h.007-.008zm0-8.344v.234h.072c.098 0 .18.035.247.102a.549.549 0 0 1 .129.261c.023.106.043.23.054.364.008.133.016.285.016.46v5.872c0 .176-.004.332-.016.465a2.637 2.637 0 0 1-.054.367.578.578 0 0 1-.125.27.347.347 0 0 1-.243.12c-.078.012-.035.004-.058.012h-.024v.23a80.272 80.272 0 0 1 2.27-.206 145.45 145.45 0 0 1 2.305-.141l.086-.516c.03-.191.07-.394.093-.566.043-.266.086-.512.133-.758.02-.113.043-.226.055-.324a.645.645 0 0 0-.102-.043.273.273 0 0 0-.066-.035 2.82 2.82 0 0 1-.145.422 2.19 2.19 0 0 1-.254.449 2.88 2.88 0 0 1-.308.37 2.81 2.81 0 0 1-.371.282c-.13.078-.258.14-.387.184-.14.043-.277.07-.414.078a.536.536 0 0 1-.238-.031.39.39 0 0 1-.176-.13.611.611 0 0 1-.117-.277 2.57 2.57 0 0 1-.032-.433v-2.613l.086-.004a.754.754 0 0 1 .43.093.702.702 0 0 1 .293.317c.066.129.117.293.156.48.035.16.059.348.067.547h.07c.023-.008.047-.008.07-.008v-3.535c-.02.004-.035.004-.054.004h-.086c-.008.129-.02.25-.032.363a2.827 2.827 0 0 1-.066.371 1.686 1.686 0 0 1-.113.309c-.047.086-.11.172-.172.234a.74.74 0 0 1-.25.16.963.963 0 0 1-.309.06l-.09.003v-3.25h.09c.075 0 .149 0 .227-.004h.168c.18 0 .355.028.527.086.172.059.344.145.5.262.168.12.301.289.399.504.086.195.148.422.18.699.027 0 .05 0 .077-.004h.059c-.004-.098-.012-.195-.016-.293-.011-.262-.023-.523-.03-.785-.005-.191-.013-.383-.02-.578-.004-.168-.012-.336-.012-.508-.75 0-1.496.004-2.246.004-.742 0-1.488.004-2.235.004zm5.417-.188h3.672c.242 0 .465.024.664.067a2.024 2.024 0 0 1 .957.48c.121.11.223.227.297.356.074.129.137.254.188.379.05.125.086.253.117.378.02.122.043.239.05.356.012.113.02.226.02.336 0 .25-.027.496-.09.722a2.67 2.67 0 0 1-.257.653 1.67 1.67 0 0 1-.989.773c.082.215.164.422.25.633.125.316.25.633.395.988.133.352.297.77.465 1.184.074.18.14.36.21.543.07.168.133.293.208.383.062.082.129.133.195.148l.066.02v.574l-.097-.016c-.367-.027-.727-.05-1.082-.078l-1.075-.07-.058-.004-.02-.055a40.491 40.491 0 0 1-.32-.836c-.164-.425-.328-.843-.453-1.164-.125-.332-.25-.656-.383-.992-.082-.207-.156-.41-.242-.617v2.074c0 .106.004.207.008.3.004.095.011.18.02.255.007.07.019.129.034.187.024.051.04.098.063.137.02.031.043.055.074.07a.206.206 0 0 0 .094.024h.082c.02 0 .039.004.059.004h.085v.574h-.09c-.507-.012-1.011-.024-1.515-.024a48.76 48.76 0 0 0-1.512.008h-.09v-.574h.09c.024 0 .051-.004.074-.004h.06c.05 0 .089-.015.124-.043.043-.031.066-.086.09-.152.027-.082.047-.188.062-.32.016-.13.024-.282.024-.461V38.28c0-.18-.008-.328-.024-.46a1.738 1.738 0 0 0-.062-.317c-.024-.066-.047-.117-.09-.149a.209.209 0 0 0-.125-.042h-.223zm.18.18v.215h.043a.37.37 0 0 1 .242.086c.063.054.11.129.145.234.031.09.05.207.066.352.016.136.024.297.024.476v5.653c0 .183-.008.343-.024.48a1.754 1.754 0 0 1-.066.356.513.513 0 0 1-.145.234.371.371 0 0 1-.238.086h-.004c-.012 0-.027.004-.043.004v.215c.473-.008.95-.012 1.422-.008.477.004.953.011 1.426.02v-.216h-.051a.37.37 0 0 1-.316-.18.692.692 0 0 1-.079-.179 1.527 1.527 0 0 1-.046-.219 7.375 7.375 0 0 1-.023-.574v-2.582l.1.02s.008-.004.016-.004h.063l.023.058c.125.328.254.66.383.989.125.328.254.66.383.988.176.45.312.808.45 1.168.112.293.245.633.3.781.344.024.687.043 1.023.066.328.028.66.047.985.075v-.246a.537.537 0 0 1-.22-.184 1.672 1.672 0 0 1-.237-.434c-.07-.18-.137-.359-.211-.539l-.469-1.187c-.117-.3-.254-.64-.39-.984a49.3 49.3 0 0 0-.286-.723l-.035-.094.094-.027a1.63 1.63 0 0 0 .578-.262c.156-.117.293-.273.398-.46a2.52 2.52 0 0 0 .325-1.282c0-.106-.008-.211-.016-.324-.016-.106-.031-.22-.055-.332a2.03 2.03 0 0 0-.105-.344 2.698 2.698 0 0 0-.172-.356 1.43 1.43 0 0 0-.266-.316 1.822 1.822 0 0 0-.875-.438 2.8 2.8 0 0 0-.625-.062h-3.492zm2.508.789v2.902a1.344 1.344 0 0 0 .766-.293.88.88 0 0 0 .273-.437 2.74 2.74 0 0 0 .098-.781c0-.47-.102-.82-.305-1.051-.188-.207-.465-.328-.832-.34zm-.176-.187.086.003c.465 0 .816.133 1.055.403.238.265.351.66.351 1.172 0 .332-.035.613-.105.832-.074.234-.188.41-.336.53-.145.11-.293.196-.457.255-.16.05-.332.078-.508.074h-.086zm3.957 8.195v-.488l.242-.075a.218.218 0 0 0 .141-.023h-.004c.043-.031.063-.078.082-.149.02-.085.035-.19.043-.324.012-.136.016-.293.016-.468V38.34c0-.176-.004-.336-.016-.469a2.1 2.1 0 0 0-.043-.332c-.02-.074-.043-.129-.086-.16-.031-.031-.078-.043-.144-.043-.012 0-.032 0-.043-.004h-.188v-.59h.094a44.14 44.14 0 0 1 3.117.102v.511h-.215a.255.255 0 0 0-.113.024.17.17 0 0 0-.074.074.554.554 0 0 0-.063.145 1.309 1.309 0 0 0-.035.199 4.308 4.308 0 0 0-.016.262c-.003.101-.003.21-.003.328v6.004c0 .117 0 .226.003.328.004.101.008.191.016.265.008.075.02.145.035.207.02.063.04.114.063.16.023.04.05.07.082.09a.31.31 0 0 0 .117.047c.008 0 .02.004.047.008.02.008.047.008.078.012l.078.008v.613l-.101-.02c-.5-.082-1.004-.144-1.516-.21-.516-.06-1.016-.122-1.516-.176zm.18-.16a67.286 67.286 0 0 1 2.851.359v-.242h-.007c-.008-.004-.008-.004-.04-.008h-.003a.421.421 0 0 1-.188-.074.407.407 0 0 1-.14-.153.92.92 0 0 1-.079-.199 1.8 1.8 0 0 1-.043-.234 5.541 5.541 0 0 1-.015-.281c-.004-.094-.004-.211-.004-.332v-6.004c0-.121 0-.235.004-.332.004-.094.008-.192.015-.278.012-.086.024-.16.043-.23a.682.682 0 0 1 .082-.188.358.358 0 0 1 .145-.14.36.36 0 0 1 .195-.043h.035v-.332l-.214.09-2.637-.012v.226h.051a.42.42 0 0 1 .265.094.458.458 0 0 1 .137.254c.023.102.043.219.05.36.012.136.016.296.016.484v5.847c0 .184-.004.344-.015.481-.008.14-.028.258-.051.352a.405.405 0 0 1-.145.246.37.37 0 0 1-.265.07l-.043-.11zm3.426-8.797h.09l2.37.012 2.368.011.086.004.004.086c.004.227.011.465.023.695.004.235.008.465.016.704a34 34 0 0 0 .02.695c.01.238.015.469.023.703l.004.098-.102-.008c-.055-.004-.11-.004-.156-.012a2.201 2.201 0 0 0-.157-.008l-.082-.008-.003-.078c-.04-.597-.188-1.043-.458-1.343-.265-.297-.644-.45-1.14-.465-.059 0-.117-.004-.176-.004h-.039v3.25c.121 0 .227-.02.316-.063a.544.544 0 0 0 .25-.246 1.57 1.57 0 0 0 .16-.484c.04-.203.063-.442.07-.711l.005-.098.094.008c.093.008.183.012.375.11v4.542l-.106-.02a3.72 3.72 0 0 1-.207-.034l-.082-.012-.078-.02v-.074c0-.293-.016-.554-.047-.777a2.504 2.504 0 0 0-.16-.578.843.843 0 0 0-.27-.348.817.817 0 0 0-.32-.133v2.782c0 .175.004.332.012.468.011.133.023.243.043.328a.79.79 0 0 0 .066.211.225.225 0 0 0 .059.102c.02.023.047.047.078.055.039.015.074.03.125.039h-.004a.175.175 0 0 0 .043.008c.05.011.101.02.137.027l.074.012v.636l-.11-.02c-.515-.105-1.027-.21-1.57-.316a78.524 78.524 0 0 0-1.57-.289l-.074-.011v-.602l.105.012c.008 0 .035.004.07.011.024 0 .036.004.055.008.047.004.09 0 .117-.023a.29.29 0 0 0 .094-.13c.023-.073.047-.179.059-.32.011-.144.02-.32.02-.535v-6.167c0-.18-.005-.344-.02-.481a2.257 2.257 0 0 0-.051-.36.428.428 0 0 0-.086-.179.177.177 0 0 0-.133-.05h-.055c-.027 0-.058 0-.086-.005h-.09zm.18.18v.25h.058c.098 0 .18.035.25.101a.586.586 0 0 1 .133.266c.027.11.047.234.058.383.02.144.02.308.02.5v6.167c0 .215-.004.399-.024.551a1.55 1.55 0 0 1-.07.364.43.43 0 0 1-.156.218.331.331 0 0 1-.246.051c-.004 0-.012-.004-.024-.004v.246c.508.086 1 .184 1.5.278.473.093.965.195 1.465.293v-.266a.277.277 0 0 1-.066-.016c-.024-.004-.035-.008-.043-.008a.773.773 0 0 1-.16-.05.382.382 0 0 1-.13-.09.425.425 0 0 1-.105-.164 1.033 1.033 0 0 1-.066-.238 2.417 2.417 0 0 1-.05-.356 8.212 8.212 0 0 1-.017-.48v-2.989l.106.016a1 1 0 0 1 .504.18c.14.101.25.242.332.418.07.175.129.379.164.62.035.22.05.466.055.735h.011c.035.008.07.016.102.02V39.69a1.18 1.18 0 0 0-.117-.007 4.367 4.367 0 0 1-.067.648c-.043.211-.101.39-.18.535a.727.727 0 0 1-.335.324.974.974 0 0 1-.493.07l-.082-.007v-3.602l.094.004c.043 0 .094.004.137.004.055 0 .113.004.172.004.55.016.972.188 1.27.523.284.317.449.778.5 1.376.027 0 .05 0 .077.003.02 0 .04.004.063.004l-.023-.597c-.008-.235-.016-.465-.02-.703-.008-.23-.012-.465-.02-.7-.007-.203-.011-.406-.02-.605-.757-.004-1.519-.012-2.28-.012a426.48 426.48 0 0 0-2.278-.016zm5.105-.153h.09c.789.008 1.578.016 2.367.02.789.008 1.582.015 2.37.027h.087v.082c.008.262.015.531.02.8.007.27.019.544.019.817l.023.809c.004.265.016.539.024.812v.102l-.098-.012a7.465 7.465 0 0 0-.207-.02 1.424 1.424 0 0 0-.11-.007l-.077-.008-.004-.078c-.04-.695-.196-1.219-.465-1.57-.258-.344-.637-.528-1.13-.547-.054-.004-.077-.004-.112-.004-.035-.004-.075-.004-.11-.004v3.734a.555.555 0 0 0 .317-.05.563.563 0 0 0 .254-.274c.07-.144.12-.328.16-.559.039-.234.062-.507.07-.824l.004-.093.094.007c.082.012.144.02.21.02l.079.008.078.007v5.305l-.11-.027-.14-.035c-.074-.012-.11-.028-.149-.035l-.066-.016v-.07c0-.34-.02-.641-.05-.907a3.157 3.157 0 0 0-.157-.672 1.134 1.134 0 0 0-.277-.418.894.894 0 0 0-.317-.175v3.18c0 .203.004.382.016.538.008.157.023.282.043.383.016.102.043.188.062.254.02.059.04.106.063.133v-.004c.023.031.05.055.086.078a.78.78 0 0 0 .12.055c.044.016.009.004.06.02.035.015.07.023.12.042l.063.02v.71l-.117-.038c-.52-.172-1.04-.336-1.57-.496-.54-.164-1.055-.32-1.567-.465l-.066-.024v-.66l.113.032c.016.003.04.007.055.015a.542.542 0 0 0 .066.012c.047.012.082.008.11-.008a.263.263 0 0 0 .085-.14 1.4 1.4 0 0 0 .067-.352c.016-.16.023-.36.023-.602v-6.945a7.34 7.34 0 0 0-.02-.547 3.144 3.144 0 0 0-.054-.402.48.48 0 0 0-.09-.215.165.165 0 0 0-.125-.05c-.015 0-.027-.009-.039-.009h-.105l-.086-.004zm.18.184v.3h.05c.102 0 .188.04.258.118a.657.657 0 0 1 .133.293c.031.12.047.261.058.425.012.165.024.352.024.563v6.945c0 .242-.012.45-.027.617a1.584 1.584 0 0 1-.079.399.436.436 0 0 1-.156.226.309.309 0 0 1-.254.036s-.004 0-.008-.004v.297c.512.156 1.024.3 1.508.449.48.148.969.3 1.453.457v-.332a.384.384 0 0 1-.062-.02c-.012-.004.027.008-.05-.02a.549.549 0 0 1-.392-.374 2.93 2.93 0 0 1-.07-.282 3.262 3.262 0 0 1-.039-.402 5.74 5.74 0 0 1-.02-.55v-3.395l.106.015c.2.036.367.118.508.243.137.12.246.285.324.492.074.195.133.433.168.707.04.258.05.543.055.86.035.007.054.015.074.019.012.004.023.004.035.008v-4.914l-.113-.012a5.005 5.005 0 0 1-.07.75 2.19 2.19 0 0 1-.176.61.738.738 0 0 1-.336.359.864.864 0 0 1-.5.058l-.074-.015v-4.079l.093.004c.07.008.137.012.203.012.036 0 .086.004.11.004.547.02.969.223 1.27.617.28.363.445.895.495 1.59h.036l.101.012a52.16 52.16 0 0 1-.02-.707v-.004.004-.004c-.007-.262-.011-.535-.019-.809l-.023-.82c-.004-.235-.012-.473-.016-.711-.762 0-1.523-.012-2.281-.02-.762-.004-1.52-.011-2.278-.015zm-26.528-2.774c.125.086.203.137.258.145.031.004.078-.008.14-.047.083-.04.153-.047.2-.016.062.043.086.09.078.141a.59.59 0 0 1-.098.191l-.465.688a.533.533 0 0 1-.14.16c-.043.031-.094.023-.156-.016-.051-.035-.067-.097-.06-.195.009-.07.005-.117-.019-.148-.023-.043-.101-.102-.222-.188l-1.18-.793-.035.059a.7.7 0 0 1-.16.172c-.047.023-.106.011-.184-.04a.204.204 0 0 1-.082-.117c-.02-.05.012-.125.07-.222l.063-.082a5.167 5.167 0 0 1-.438-.32 1.298 1.298 0 0 1-.277-.313.829.829 0 0 1-.125-.508 1.04 1.04 0 0 1 .184-.504.817.817 0 0 1 .289-.265c.117-.063.222-.059.32.007.07.047.117.11.133.188a.264.264 0 0 1-.043.223.231.231 0 0 1-.094.09 1.274 1.274 0 0 1-.133.058c-.05.016-.07.027-.082.039-.027.047.04.125.2.23l.539.364.086-.13.066-.085a.45.45 0 0 1 .14-.152c.047-.028.11-.016.172.03.075.048.106.102.098.165a.852.852 0 0 1-.129.258l-.097.14zm1.05-.73a1.27 1.27 0 0 1-.566-.074 1.192 1.192 0 0 1-.472-.301 1.21 1.21 0 0 1-.285-.453 1.41 1.41 0 0 1-.078-.543c.027-.38.195-.73.507-1.043a1.553 1.553 0 0 1 .977-.46 1.3 1.3 0 0 1 .523.065c.172.059.328.157.461.29.188.187.309.406.348.652.047.246.027.492-.059.734a1.808 1.808 0 0 1-.398.637c-.3.293-.617.457-.957.496zm.403-1.899a1.355 1.355 0 0 0-.543-.347c-.191-.067-.36-.024-.511.125-.149.152-.196.328-.125.527.066.2.187.383.363.555.18.187.375.32.574.402.2.078.379.035.543-.117.273-.285.176-.664-.3-1.145zm2.348-1.183c.074.113.14.18.207.207.059.027.14.004.25-.067a.802.802 0 0 1 .246-.125c.059-.007.113.02.16.094.074.11.016.23-.18.363l-.597.407a.929.929 0 0 1-.242.129.219.219 0 0 1-.172-.02.617.617 0 0 1-.184-.2l-.96-1.417-.087.055a.556.556 0 0 1-.218.101c-.055.012-.11-.02-.16-.094-.036-.054-.044-.101-.028-.14.012-.043.05-.086.094-.137a.82.82 0 0 0 .156-.168.273.273 0 0 0 .05-.164c-.003-.117-.054-.281-.148-.484-.043-.094-.058-.172-.046-.22.007-.046.058-.105.14-.163.098-.067.172-.094.207-.086.04.004.094.055.153.148l.359.528.254-.176a.689.689 0 0 1 .222-.106c.06-.007.118.024.168.098.075.113.028.23-.144.348l-.258.172zm1.086-2.442c.129-.257.32-.437.566-.55.172-.078.332-.118.492-.121a1.09 1.09 0 0 1 .836.359c.114.113.207.258.282.426.117.265.156.53.113.78s-.156.474-.332.669a1.836 1.836 0 0 1-.664.473 1.76 1.76 0 0 1-.461.14c-.16.028-.309.028-.442.004a.761.761 0 0 1-.503-.363 2.587 2.587 0 0 1-.168-.317l-.754-1.699a7.72 7.72 0 0 0-.176-.355.217.217 0 0 0-.09-.082.401.401 0 0 0-.129-.028c-.058-.007-.101-.011-.125-.02-.023-.003-.039-.027-.055-.062a.124.124 0 0 1 .024-.144c.039-.047.101-.098.187-.172.239-.215.41-.348.512-.39.133-.06.254.03.36.277l.046.105zm.5 1.09c.094.211.2.38.316.5.117.121.262.145.438.067a.44.44 0 0 0 .277-.434 1.667 1.667 0 0 0-.144-.633 1.817 1.817 0 0 0-.38-.554c-.156-.16-.32-.204-.492-.13a.47.47 0 0 0-.277.368c-.02.105.012.254.094.441zm4.937-1.066a.99.99 0 0 0 .078.281c.028.04.07.067.13.082.1.027.148.074.16.137.015.074-.004.125-.047.152a.616.616 0 0 1-.203.067l-.516.09a.471.471 0 0 1-.195.003.148.148 0 0 1-.086-.082 1.36 1.36 0 0 1-.063-.191c-.113.293-.36.473-.734.539a1.165 1.165 0 0 1-.48-.012.796.796 0 0 1-.391-.21.734.734 0 0 1-.207-.419.7.7 0 0 1 .066-.468.964.964 0 0 1 .328-.348c.14-.102.293-.18.465-.238.164-.059.324-.102.484-.133l.18-.031a.621.621 0 0 0-.195-.375c-.094-.086-.223-.114-.387-.086a.348.348 0 0 0-.168.07c-.039.039-.09.09-.144.16a.92.92 0 0 1-.141.152.416.416 0 0 1-.18.075.399.399 0 0 1-.234-.024c-.074-.027-.117-.086-.129-.172-.02-.105.027-.21.148-.297.122-.085.266-.156.426-.21a2.84 2.84 0 0 1 .426-.114c.352-.062.652-.05.902.04a.82.82 0 0 1 .387.273 1.2 1.2 0 0 1 .176.469zm-1.043-.442a.934.934 0 0 0-.496.247.514.514 0 0 0-.14.484c.02.101.062.183.132.25a.31.31 0 0 0 .262.066c.153-.027.274-.136.356-.316a.676.676 0 0 0 .047-.262c0-.082-.012-.187-.036-.316l-.027-.168zm1.832-1.812a3.513 3.513 0 0 0-.023-.398.222.222 0 0 0-.047-.106.316.316 0 0 0-.11-.078c-.046-.035-.085-.05-.105-.07-.02-.016-.027-.043-.027-.079 0-.027.008-.062.031-.085a.233.233 0 0 1 .082-.055.53.53 0 0 1 .11-.043l.093-.024c.309-.109.516-.164.621-.164.149-.004.22.13.223.399l.004.12.047 2.763c.004.148.015.246.031.289.016.035.055.066.117.093.09.047.13.098.133.157 0 .074-.023.12-.074.14a.685.685 0 0 1-.207.035l-.832.012a.627.627 0 0 1-.211-.023c-.05-.016-.074-.067-.078-.137 0-.062.039-.117.125-.164.062-.031.101-.063.117-.098.016-.047.02-.14.02-.289zm6.567 3.656.02.012a.972.972 0 0 0 .324.043.965.965 0 0 0 .336-.082c.113-.05.195-.067.25-.047.039.016.07.047.085.086a.196.196 0 0 1-.003.125c-.043.117-.18.21-.422.27-.328.074-.63.062-.903-.047a1.741 1.741 0 0 1-.476-.274 1.519 1.519 0 0 1-.332-.41 1.215 1.215 0 0 1-.05-1.04 1.292 1.292 0 0 1 1.09-.86c.245-.026.491.01.737.103.121.047.254.121.398.219.153.101.266.21.348.34.086.125.106.25.055.375a.264.264 0 0 1-.156.16.323.323 0 0 1-.227-.004.352.352 0 0 1-.172-.125.958.958 0 0 1-.094-.23 1.162 1.162 0 0 0-.093-.235.351.351 0 0 0-.176-.133.415.415 0 0 0-.36.032c-.109.07-.21.168-.296.293-.086.125-.153.25-.203.378h.003a1.11 1.11 0 0 0-.058.63.569.569 0 0 0 .375.421zm2.558-1.57c.09-.16.153-.281.18-.352.016-.05.02-.09.012-.117a.335.335 0 0 0-.051-.121c-.031-.055-.055-.09-.062-.113-.008-.024 0-.051.015-.082a.121.121 0 0 1 .07-.055.189.189 0 0 1 .106-.012c.031.008.07.012.11.02.034.012.066.02.093.027.316.059.523.113.621.168.125.07.125.223-.008.457l-.054.102-1.344 2.418c-.07.133-.11.218-.117.27 0 .034.015.081.054.136.055.086.067.148.036.203-.036.063-.079.094-.133.09a.65.65 0 0 1-.2-.082l-.722-.402a.53.53 0 0 1-.168-.125c-.04-.043-.04-.098 0-.16.027-.051.09-.079.187-.079.07.004.118-.004.149-.023a1.1 1.1 0 0 0 .164-.246zm1.016 1.957.066-.09a.38.38 0 0 0 .079-.125c.011-.035.007-.078-.008-.14-.012-.07-.008-.13.02-.165a.163.163 0 0 1 .14-.043c.086.016.25.082.5.223.004-.008.027 0 .062.02.04.02.07.039.102.062.094.082.133.156.11.234a.77.77 0 0 1-.173.282l-.773.925c-.078.09-.137.168-.176.239a.397.397 0 0 0-.054.219c.003.078.046.148.128.218a.618.618 0 0 0 .196.102.52.52 0 0 0 .219.004c.097-.016.21-.102.335-.254l.524-.621.078-.086a.412.412 0 0 0 .07-.125.248.248 0 0 0-.004-.14c-.02-.075-.011-.13.016-.161.04-.039.078-.055.145-.05.082.011.246.09.496.226.097.05.164.094.203.129.09.078.12.152.094.242l-1.11 1.324a.748.748 0 0 0-.16.234c-.016.047-.004.098.02.153.039.09.035.164-.004.21-.047.055-.094.079-.145.06a.71.71 0 0 1-.183-.114l-.348-.289a.681.681 0 0 1-.133-.148.185.185 0 0 1-.012-.13.805.805 0 0 1 .094-.183 1.22 1.22 0 0 1-.945-.273c-.258-.22-.371-.485-.332-.797a.75.75 0 0 1 .09-.211c.054-.098.12-.195.203-.293zm3.7 2.844c.284.078.503.222.663.441.11.152.184.305.22.457.038.156.042.309.007.465a1.08 1.08 0 0 1-.184.426 1.597 1.597 0 0 1-.36.367 1.349 1.349 0 0 1-.737.27 1.344 1.344 0 0 1-.727-.184 1.897 1.897 0 0 1-.828-.969 1.145 1.145 0 0 1-.102-.434c0-.117.024-.222.07-.316a.883.883 0 0 1 .18-.254c.075-.07.168-.148.278-.226l1.504-1.094a4.02 4.02 0 0 0 .312-.246.274.274 0 0 0 .059-.098.505.505 0 0 0 .004-.137.535.535 0 0 1-.008-.125c0-.027.015-.046.047-.07a.143.143 0 0 1 .152-.008c.047.028.113.078.2.149.265.195.433.328.491.418.086.117.02.254-.195.41l-.098.07zm-.954.718a1.75 1.75 0 0 0-.43.414c-.093.141-.082.286.028.442.12.168.285.223.484.18.2-.043.395-.133.586-.27.188-.137.344-.297.469-.484.125-.188.129-.36.02-.508a.476.476 0 0 0-.415-.203c-.105.008-.25.07-.414.191zm-2.351 14.102-1.836 2.02-1.68-.508.383 2-2.332 1.89c.855-.242 1.754-.273 2.566-.734l-.121 1.418 1.77-2.094 1.828-1.031-.907-.316zm0 0"/></svg>