<svg xmlns="http://www.w3.org/2000/svg" width="721.707" height="780.467" viewBox="0 0 541.28 585.35"><path style="stroke:none;fill-rule:nonzero;fill:#231f20;fill-opacity:1" d="M0 270.64c0 123.243 83.098 230.84 202.148 261.887 17.993 29.11 65.594 51.864 67.63 52.825a2.041 2.041 0 0 0 1.734 0c2.035-.961 49.64-23.72 67.629-52.829 119.05-31.054 202.144-138.628 202.144-261.882C541.285 121.41 419.875 0 270.641 0 121.41 0 0 121.41 0 270.64"/><path style="stroke:none;fill-rule:nonzero;fill:#7f6d4d;fill-opacity:1" d="M205.14 529.715c-.3-.5-.796-.848-1.37-.953l-.18-.035C86.164 498.37 4.059 392.23 4.059 270.64 4.059 123.648 123.645 4.059 270.64 4.059c146.996 0 266.586 119.59 266.586 266.582 0 121.636-82.153 227.789-199.782 258.144-.515.133-1.039.488-1.312.95-15.797 26.367-59.024 48.343-65.488 51.523-6.47-3.18-49.715-25.164-65.504-51.543"/><path style="stroke:none;fill-rule:nonzero;fill:#231f20;fill-opacity:1" d="M17.582 270.64c0 55.098 17.473 107.508 50.531 151.57 31.961 42.603 77.41 74.665 127.973 90.282.64.2 1.336.004 1.86-.414.523-.418.804-1.129.757-1.8-1.324-18.489 11.848-30.622 11.984-30.743.731-.66.88-1.758.356-2.59-.168-.265-16.418-26.726 1.57-58.558l.145-.29a2.03 2.03 0 0 0-1.059-2.765c-59.078-24.094-97.25-80.887-97.25-144.691 0-86.125 70.067-156.192 156.192-156.192 86.129 0 156.195 70.067 156.195 156.192 0 63.812-38.18 120.613-97.274 144.699a2.03 2.03 0 0 0-.878 3.066c6.386 11.317 8.453 21.95 8.453 30.965 0 16.356-6.785 27.402-6.895 27.574a2.03 2.03 0 0 0 .355 2.59c.13.113 12.079 11.121 12.079 28.133 0 .894-.031 1.805-.102 2.73-.004.047-.004.094-.004.141 0 .617.305 1.203.793 1.594a2.097 2.097 0 0 0 1.895.34c50.547-15.625 95.984-47.692 127.933-90.29 33.043-44.054 50.512-96.456 50.512-151.542 0-139.536-113.523-253.059-253.062-253.059-139.536 0-253.059 113.523-253.059 253.059"/><path style="stroke:none;fill-rule:nonzero;fill:#fff;fill-opacity:1" d="M71.36 419.773c-32.528-43.351-49.72-94.921-49.72-149.132 0-137.297 111.7-249 249-249 137.301 0 249.005 111.703 249.005 249 0 54.203-17.184 105.761-49.7 149.109-30.875 41.16-74.554 72.29-123.21 87.96l.003-.12c0-15.75-9.008-26.535-12.265-29.926 1.902-3.586 6.714-14.039 6.714-28.344 0-9.14-2.035-19.808-8.05-31.144 59.437-25.192 97.758-82.817 97.758-147.535 0-88.364-71.891-160.25-160.254-160.25-88.36 0-160.25 71.886-160.25 160.25 0 64.718 38.32 122.347 97.757 147.535-6.027 11.312-8.07 21.976-8.07 31.117 0 14.312 4.828 24.781 6.734 28.371-3.257 3.39-12.265 14.176-12.265 29.926 0 .043.004.082.004.12-48.649-15.667-92.32-46.784-123.192-87.937"/><path style="stroke:none;fill-rule:nonzero;fill:#231f20;fill-opacity:1" d="M312.148 421.262c-13.457 3.699-27.421 5.574-41.507 5.574-14.051 0-27.989-1.867-41.414-5.55-.883-.243-1.926.12-2.387.913-6.117 10.403-7.95 20.547-7.95 28.82 0 9.458 2.383 16.407 3.516 18.536.02.03.008.066.031.101l6.79 11.227c-1.915 1.754-9.329 8.555-9.329 8.555-1.835 1.761-7.726 8.171-7.726 18.07 0 4.086 1.023 8.27 3.039 12.433 7.934 16.38 34.305 34.829 54.473 45.653.601.32 1.32.32 1.918 0 20.171-10.824 46.539-29.274 54.472-45.653 2.016-4.168 3.04-8.347 3.04-12.433 0-9.563-5.47-15.832-7.47-17.809-.019-.02-.027-.047-.046-.07 0 0-7.672-7.188-9.582-8.98l6.82-10.973c.02-.031.012-.067.027-.098 1.133-2.101 3.532-9.074 3.532-18.562 0-8.25-1.825-18.371-7.907-28.746-.465-.793-1.453-1.254-2.34-1.008"/><path style="stroke:none;fill-rule:nonzero;fill:#fff;fill-opacity:1" d="M311.648 425.547c5.18 9.344 6.75 18.129 6.75 25.238 0 10.117-3.09 16.848-3.18 17.024l-7.527 12.109a2.02 2.02 0 0 0-.308 1.07c0 .547.219 1.086.64 1.485l10.579 9.91c.003.004.003.012.007.015 1.079 1.032 6.446 6.606 6.446 15.11 0 3.465-.883 7.055-2.633 10.66-7.39 15.262-32.277 32.73-51.777 43.324-19.504-10.594-44.391-28.066-51.782-43.324-1.746-3.606-2.633-7.191-2.633-10.66 0-8.504 5.368-14.078 6.446-15.11l10.52-9.648a2.027 2.027 0 0 0 .363-2.547l-7.489-12.383c-.058-.11-3.183-6.867-3.183-17.035 0-7.11 1.57-15.894 6.75-25.234a160.707 160.707 0 0 0 41.004 5.344c13.906 0 27.687-1.829 41.007-5.348"/><path style="stroke:none;fill-rule:nonzero;fill:#231f20;fill-opacity:1" d="M142.285 326.094c-.687 0-1.305.398-1.68.976-.37.582-.402 1.36-.12 1.989 23.062 51.18 74.152 84.25 130.156 84.25 56.015 0 107.109-33.079 130.164-84.27a2.11 2.11 0 0 0-.125-1.976c-.375-.579-1-.97-1.688-.97H142.285"/><path style="stroke:none;fill-rule:nonzero;fill:#338555;fill-opacity:1" d="M370.117 330.152h25.613a138.972 138.972 0 0 1-26.156 37.395l-.074.078v-37.469l.617-.004m-77.257 0h33.359v67.403l-.082.023a138.179 138.179 0 0 1-33.785 9.953l-.07-.004v-77.379l.577.004m-77.242 0h32.508l.879.004v77.39l-.102-.019a138.085 138.085 0 0 1-33.757-9.949l-.079-.023v-67.399l.551-.004m-43.898 37.403a138.89 138.89 0 0 1-26.164-37.403h25.656l.574.008v37.465l-.066-.07"/><path style="stroke:none;fill-rule:nonzero;fill:#fff;fill-opacity:1" d="M175.844 371.602V330.16l.535-.008h34.086l.543.004v65.535l-.07-.046a139.49 139.49 0 0 1-34.993-23.957l-.101-.086m77.215 36.538v-77.984l.632-.004h33.817l.719.008v77.957l-.082.02a138.32 138.32 0 0 1-17.504 1.117c-5.887 0-11.72-.379-17.47-1.113h-.112m77.218-12.469v-65.524l.48.004h34.684v41.426l-.101.11a139.408 139.408 0 0 1-34.996 23.957l-.067.027"/><path style="stroke:none;fill-rule:nonzero;fill:#231f20;fill-opacity:1" d="M131.297 249.453c-1.016 0-1.879.832-2.016 1.836a144.002 144.002 0 0 0-1.308 19.352c0 13.765 1.968 27.382 5.847 40.476.254.863 1.121 1.453 2.02 1.453h269.68c.902 0 1.718-.687 1.972-1.55 3.863-13.063 5.82-26.649 5.82-40.38 0-6.476-.44-12.992-1.308-19.367-.14-1.003-1.031-1.82-2.047-1.82h-278.66"/><path style="stroke:none;fill-rule:nonzero;fill:#fff;fill-opacity:1" d="M408.152 253.508c.7 5.656 1.102 11.402 1.102 17.133 0 12.867-1.813 25.593-5.305 37.87H137.34c-3.491-12.273-5.308-25-5.308-37.87 0-5.727.403-11.473 1.102-17.133h275.02"/><path style="stroke:none;fill-rule:nonzero;fill:#231f20;fill-opacity:1" d="M132.93 233.305c-.164.61-.047 1.293.336 1.793.386.504.968.828 1.601.828h271.54c.632 0 1.214-.356 1.6-.856.384-.504.497-1.215.333-1.824-16.852-61.984-73.477-105.273-137.7-105.273-64.25 0-120.878 43.312-137.71 105.332"/><path style="stroke:none;fill-rule:nonzero;fill:#338555;fill-opacity:1" d="M369.61 173.758c15.613 15.933 27.503 35.726 34.038 58.11H369.5v-58.22l.11.11m-198.348 58.109H137.64c6.53-22.375 18.414-42.164 34.02-58.097l.124-.102v58.2h-.523"/><path style="stroke:none;fill-rule:nonzero;fill:#fff;fill-opacity:1" d="M253.145 133.145a138.059 138.059 0 0 1 35.007 0l.075.011v98.711h-35.168v-98.71l.086-.012m-42.661 98.722h-34.64v-62.191l.066-.067a139.512 139.512 0 0 1 35.004-23.972l.094-.055v86.285h-.524"/><path style="stroke:none;fill-rule:nonzero;fill:#338555;fill-opacity:1" d="M215.066 231.867v-88.144l.082-.032a137.795 137.795 0 0 1 33.727-9.933l.129-.012v98.121h-33.938m77.215.004v-98.144l.09.023a138.085 138.085 0 0 1 33.77 9.941l.078.032v88.144h-33.313l-.625.004"/><path style="stroke:none;fill-rule:nonzero;fill:#fff;fill-opacity:1" d="M330.277 231.867v-86.265l.094.035a139.594 139.594 0 0 1 35.008 23.98l.062.059v62.191h-35.164"/><path style="stroke:none;fill-rule:nonzero;fill:#338555;fill-opacity:1" d="m270.637 525.387-8.836 5.101a1.49 1.49 0 0 1-2.031-.547l-2.165-3.746a1.495 1.495 0 0 1 .543-2.03l6.215-3.587c.711-.41.953-1.324.543-2.035l-5.203-9.008a1.49 1.49 0 0 0-2.031-.547l-6.219 3.594a1.493 1.493 0 0 1-2.031-.547l-2.164-3.746a1.496 1.496 0 0 1 .547-2.031l6.218-3.594a1.49 1.49 0 0 0 .543-2.031l-5.199-9.008a1.492 1.492 0 0 0-2.031-.543l-6.215 3.586a1.49 1.49 0 0 1-2.031-.543l-2.164-3.75a1.492 1.492 0 0 1 .543-2.031l8.758-5.055.082-.043v-10.215c0-.816.671-1.484 1.488-1.484h4.328c.816 0 1.488.668 1.488 1.484v7.176c0 .816.668 1.488 1.489 1.488h10.406c.816 0 1.484-.672 1.484-1.488v-7.18c0-.82.668-1.488 1.488-1.488h4.325c.816 0 1.488.668 1.492 1.488v7.18c0 .816.668 1.488 1.484 1.488h10.403c.82 0 1.488-.672 1.488-1.488v-7.176c0-.816.668-1.484 1.484-1.484h4.328c.82 0 1.489.668 1.489 1.484v10.196l.05.039 8.79 5.078c.71.41.957 1.324.546 2.031l-2.164 3.75a1.495 1.495 0 0 1-2.035.543l-6.21-3.586a1.49 1.49 0 0 0-2.032.543l-5.203 9.012a1.49 1.49 0 0 0 .547 2.031l6.218 3.59a1.49 1.49 0 0 1 .543 2.031l-2.164 3.746a1.49 1.49 0 0 1-2.03.547l-6.22-3.59a1.496 1.496 0 0 0-2.035.543l-5.199 9.008a1.496 1.496 0 0 0 .547 2.035l6.21 3.586c.712.41.954 1.324.544 2.031l-2.16 3.75a1.495 1.495 0 0 1-2.036.543l-8.726-5.039-.117-.062m.097-11.676 14.22-24.633.042-.078h-28.695l.054.121 14.29 24.754.09-.164"/><path style="stroke:none;fill-rule:nonzero;fill:#231f20;fill-opacity:1" d="M268.48 470.184a2.846 2.846 0 0 0-2.84 2.843v7.18c0 .07-.062.137-.132.137h-10.406a.141.141 0 0 1-.137-.137v-7.176a2.842 2.842 0 0 0-2.84-2.84h-4.328a2.842 2.842 0 0 0-2.84 2.84v9.426l-8.164 4.715a2.846 2.846 0 0 0-1.04 3.879l2.165 3.75a2.844 2.844 0 0 0 3.879 1.039l6.215-3.59c.136 0 .168.02.183.05l5.2 9.009a.144.144 0 0 1-.051.187l-6.215 3.59a2.838 2.838 0 0 0-1.04 3.879l2.165 3.746a2.816 2.816 0 0 0 1.723 1.324c.734.195 1.5.098 2.156-.285l6.219-3.59c.136 0 .164.02.18.05l5.206 9.009a.143.143 0 0 1-.05.187l-6.215 3.586a2.849 2.849 0 0 0-1.04 3.88l2.165 3.745a2.843 2.843 0 0 0 3.879 1.043l8.164-4.715 8.164 4.715a2.85 2.85 0 0 0 3.882-1.039l2.16-3.75a2.844 2.844 0 0 0-1.034-3.879l-6.215-3.586a.143.143 0 0 1-.051-.187l5.2-9.004a.143.143 0 0 1 .187-.05l6.218 3.589a2.845 2.845 0 0 0 3.88-1.04l2.163-3.745a2.849 2.849 0 0 0-1.039-3.883l-6.219-3.59c-.07-.11-.074-.148-.05-.183l5.203-9.012c.105-.067.144-.07.183-.051l6.211 3.59a2.85 2.85 0 0 0 3.883-1.04l2.164-3.75a2.817 2.817 0 0 0 .281-2.148 2.822 2.822 0 0 0-1.32-1.73s-7.082-4.09-8.168-4.715v-9.426a2.842 2.842 0 0 0-2.84-2.84h-4.328a2.845 2.845 0 0 0-2.84 2.84v7.176c0 .07-.062.137-.132.137H275.78c-.066 0-.133-.067-.133-.14l-.003-7.177a2.846 2.846 0 0 0-2.84-2.843h-4.325m-2.972 12.863a2.845 2.845 0 0 0 2.84-2.84l-.004-7.18c0-.074.062-.136.136-.136h4.325c.074 0 .136.062.136.136v7.18a2.847 2.847 0 0 0 2.84 2.84h10.403a2.842 2.842 0 0 0 2.84-2.84v-7.176c0-.07.062-.133.132-.133h4.328c.075 0 .137.063.137.133v10.196c0 .484.305.968.727 1.21l8.789 5.079c.074.117.07.152.05.183l-2.164 3.75a.142.142 0 0 1-.183.047l-6.215-3.586a2.811 2.811 0 0 0-2.156-.281 2.802 2.802 0 0 0-1.723 1.324l-5.203 9.008a2.826 2.826 0 0 0-.281 2.156 2.815 2.815 0 0 0 1.324 1.723l6.215 3.59c.062.035.086.125.05.183l-2.163 3.746c-.032.059-.13.082-.184.051l-6.219-3.59a2.845 2.845 0 0 0-3.879 1.04l-5.203 9.007a2.847 2.847 0 0 0 1.04 3.88l6.214 3.589a.138.138 0 0 1 .05.184l-2.163 3.75c-.035.058-.125.082-.188.046l-8.726-5.039c-.418-.242-1.051-.304-1.47-.062l-8.835 5.101a.138.138 0 0 1-.184-.05l-2.164-3.746c-.035-.063-.011-.153.051-.184l6.211-3.586a2.849 2.849 0 0 0 1.04-3.883l-5.2-9.008a2.834 2.834 0 0 0-1.727-1.324 2.832 2.832 0 0 0-2.156.285l-6.219 3.586c-.136.004-.164-.015-.183-.047l-2.164-3.746a.138.138 0 0 1 .05-.183l6.22-3.594a2.85 2.85 0 0 0 1.038-3.883l-5.199-9.004a2.815 2.815 0 0 0-1.726-1.32 2.8 2.8 0 0 0-2.153.281l-6.215 3.586c-.062.035-.148.016-.183-.047l-2.164-3.75c-.04-.062-.012-.148.05-.183l8.754-5.055c.418-.242.758-.73.758-1.215v-10.215c0-.07.067-.133.137-.133h4.328c.07 0 .137.063.137.133v7.176a2.842 2.842 0 0 0 2.84 2.84h10.406"/><path style="stroke:none;fill-rule:nonzero;fill:#231f20;fill-opacity:1" d="M256.3 487.645c-.484 0-.902.32-1.144.738-.242.418-.215.996.028 1.414l14.293 24.754a1.354 1.354 0 0 0 2.367-.047l.07-.14c.027-.044 14.215-24.61 14.215-24.61.125-.219.191-.473.191-.727 0-.234-.058-.464-.172-.664-.242-.418-.668-.718-1.152-.718h-28.695m26.355 2.707c-1.75 3.035-10.328 17.886-12.015 20.808l-12.016-20.808h24.031"/><path style="stroke:none;fill-rule:nonzero;fill:#7f6d4d;fill-opacity:1" d="m163.234 410.34-34.968 42.488-6.137-5.047 26.75-32.508-6.133-5.046 3.207-3.903a39.437 39.437 0 0 0 6.7 1.274c2.82.191 5.136.109 6.956-.243l3.625 2.985"/><path style="stroke:none;fill-rule:nonzero;fill:#231f20;fill-opacity:1" d="m144.91 405.465-3.21 3.902c-.208.25-.305.555-.305.86 0 .386.167.777.492 1.043l5.09 4.19c-1.61 1.954-25.891 31.462-25.891 31.462a1.355 1.355 0 0 0-.3.988c.03.36.206.688.484.914l6.136 5.047c.578.477 1.43.395 1.903-.183l34.968-42.493c.23-.273.336-.632.301-.988a1.336 1.336 0 0 0-.484-.914l-3.625-2.984a1.358 1.358 0 0 0-1.117-.282c-1.696.328-3.918.403-6.606.22a38.012 38.012 0 0 1-6.426-1.224 1.353 1.353 0 0 0-1.41.442m1.582 2.332c1.985.512 3.996.941 6.024 1.144 2.656.184 4.863.114 6.687-.171.465.382 1.254 1.035 2.125 1.753a302600.15 302600.15 0 0 1-33.25 40.403c-1.14-.942-2.902-2.39-4.043-3.332l25.89-31.457c.208-.254.31-.559.31-.86 0-.39-.173-.78-.497-1.047l-5.09-4.19c.723-.88 1.356-1.645 1.844-2.243"/><path style="stroke:none;fill-rule:nonzero;fill:#7f6d4d;fill-opacity:1" d="M176.715 449.844c1.601 2.094 2.34 4.281 2.219 6.566-.153 2.332-1.157 5.121-3.012 8.367-1.953 3.414-3.934 5.817-5.942 7.211-4.39 3.07-9.18 3.117-14.367.153-3.902-2.235-6.215-5.153-6.941-8.762-.445-2.149-.379-4.219.203-6.211.594-2.016 1.516-4.11 2.758-6.281 2.043-3.575 4.148-5.98 6.32-7.223 1.719-1 3.766-1.348 6.137-1.043-1.356-1.98-2-3.867-1.942-5.656.043-2.14.942-4.746 2.7-7.82 2.347-4.098 5.148-6.7 8.41-7.805 3.21-1.067 6.691-.527 10.441 1.617 3.73 2.133 5.95 4.856 6.656 8.164.7 3.371-.12 7.106-2.464 11.203-1.934 3.38-3.907 5.586-5.918 6.63-1.407.741-3.16 1.038-5.258.89m-8.403-.145c-3.246-1.855-6.37-.152-9.378 5.106-3.008 5.257-2.856 8.836.46 10.73 3.29 1.883 6.426.219 9.407-4.996 3.035-5.305 2.87-8.918-.488-10.84m11.503-20.199c-3.023-1.73-5.816-.352-8.382 4.137-2.555 4.465-2.286 7.582.808 9.351 3.07 1.758 5.875.414 8.414-4.027 2.582-4.508 2.301-7.664-.84-9.461"/><path style="stroke:none;fill-rule:nonzero;fill:#231f20;fill-opacity:1" d="M172.828 420.059c-3.57 1.21-6.648 4.039-9.152 8.414-1.89 3.304-2.832 6.074-2.88 8.464-.003.09-.007.18-.007.266 0 1.305.438 2.664 1.07 4.035-1.683.094-3.238.473-4.586 1.258-2.394 1.367-4.628 3.895-6.812 7.719-1.293 2.254-2.262 4.465-2.883 6.57a13.723 13.723 0 0 0-.55 3.84c0 .996.109 2.012.32 3.027.8 3.985 3.355 7.239 7.593 9.66 5.66 3.239 10.98 3.165 15.817-.214 2.164-1.504 4.293-4.078 6.336-7.649 1.976-3.457 3.02-6.383 3.187-8.949.012-.191.016-.379.016-.566 0-1.668-.547-3.27-1.344-4.829 1.352-.128 2.602-.402 3.649-.953 2.261-1.172 4.378-3.515 6.46-7.156 1.918-3.355 2.883-6.539 2.883-9.504 0-.902-.09-1.785-.27-2.648-.784-3.692-3.241-6.739-7.304-9.063-4.082-2.332-7.965-2.914-11.543-1.722m-7.582 23.265a1.353 1.353 0 0 0-.039-1.469c-1.184-1.726-1.758-3.359-1.707-4.843.035-1.922.887-4.336 2.523-7.196 2.165-3.785 4.747-6.207 7.668-7.195 2.848-.945 5.907-.457 9.34 1.512 3.41 1.949 5.371 4.328 6 7.27.63 3.015-.152 6.464-2.316 10.25-1.793 3.132-3.598 5.183-5.363 6.1-1.184.622-2.707.868-4.54.74a1.354 1.354 0 0 0-1.171 2.171c1.414 1.848 2.047 3.703 1.941 5.676-.137 2.098-1.094 4.719-2.836 7.765-1.844 3.22-3.703 5.5-5.535 6.774-3.961 2.766-8.188 2.797-12.926.086-3.578-2.047-5.637-4.617-6.289-7.856-.398-1.925-.34-3.793.18-5.562.558-1.899 1.445-3.914 2.633-5.988 1.91-3.348 3.867-5.606 5.812-6.72 1.48-.859 3.207-1.144 5.3-.878a1.35 1.35 0 0 0 1.325-.637"/><path style="stroke:none;fill-rule:nonzero;fill:#231f20;fill-opacity:1" d="M157.762 454.133c-2.051 3.582-2.739 6.465-2.102 8.805.434 1.59 1.461 2.859 3.063 3.773 1.59.906 3.195 1.152 4.773.723 2.328-.633 4.445-2.668 6.477-6.223 4.316-7.547 1.847-11.063-.989-12.684-2.754-1.578-6.937-1.882-11.222 5.606m2.304 10.226c-.968-.55-1.554-1.25-1.793-2.129-.433-1.593.184-3.863 1.836-6.753 3.84-6.715 6.524-5.18 7.532-4.602.656.371 1.976 1.129 1.976 3.25 0 1.316-.508 3.152-1.992 5.742-1.633 2.86-3.262 4.528-4.836 4.953-.875.239-1.77.09-2.723-.46m10.192-31.395c-1.707 2.988-2.266 5.453-1.7 7.531.415 1.527 1.43 2.762 3.012 3.664 2.637 1.512 6.559 1.95 10.262-4.527 1.723-3.012 2.281-5.492 1.711-7.59-.422-1.547-1.45-2.797-3.055-3.719-2.601-1.488-6.492-1.89-10.23 4.64m2.656 8.849c-.95-.543-1.523-1.208-1.746-2.028-.363-1.332.121-3.172 1.437-5.476 3.18-5.555 5.622-4.16 6.54-3.633.976.554 1.558 1.234 1.789 2.078.078.289.117.605.117.941 0 1.23-.524 2.77-1.567 4.594-3.14 5.488-5.543 4.113-6.57 3.524"/><path style="stroke:none;fill-rule:nonzero;fill:#7f6d4d;fill-opacity:1" d="m362.89 467.383 7.005-3.82c1.226 2.246 2.265 3.644 3.117 4.195 1.527.949 3.172.941 4.941-.024 1.957-1.07 2.895-2.546 2.813-4.437-.09-1.73-1.215-4.582-3.383-8.55l-3.266-5.981c-.27 1.808-.746 3.265-1.426 4.375-.863 1.39-2.144 2.55-3.843 3.48-6.52 3.555-12.395.54-17.63-9.05-5.913-10.84-4.843-18.462 3.22-22.86 3.914-2.137 7.632-2.41 11.164-.824 2.144.965 4.003 2.41 5.574 4.332 1.594 1.969 3.097 4.25 4.512 6.836l9.402 17.226c2.027 3.715 3.172 6.793 3.433 9.23.305 3.024-.289 5.747-1.785 8.157-1.199 1.945-2.93 3.535-5.187 4.77-3.39 1.851-6.715 2.28-9.977 1.292-3.195-.988-5.789-3.21-7.77-6.68-.156-.28-.46-.84-.913-1.667m8.062-24.418-3.61-6.613c-2.808-5.145-5.863-6.817-9.163-5.016-1.91 1.043-2.801 2.582-2.672 4.613.14 1.719 1.008 4.031 2.597 6.946 1.766 3.238 3.442 5.265 5.016 6.078 1.32.683 2.781.586 4.387-.29 1.793-.98 2.941-2.882 3.445-5.718"/><path style="stroke:none;fill-rule:nonzero;fill:#231f20;fill-opacity:1" d="M353.79 423.523c-3.75 2.047-6.153 4.805-7.15 8.192-1.304 4.437-.163 9.988 3.391 16.504 3.328 6.094 6.871 9.625 10.84 10.789 2.77.812 5.672.41 8.621-1.2 1.903-1.038 3.363-2.37 4.348-3.956.27-.442.476-.985.687-1.512l1.668 3.05c2.567 4.704 3.164 6.934 3.22 7.977 0 .059.003.117.003.18 0 .836-.281 2-2.113 3-1.336.726-2.477.75-3.582.062-.348-.226-1.184-1.023-2.645-3.699a1.36 1.36 0 0 0-.805-.648 1.346 1.346 0 0 0-1.027.11l-7.004 3.823a1.358 1.358 0 0 0-.539 1.836l.91 1.668c2.164 3.781 5.04 6.238 8.563 7.324 3.61 1.094 7.316.622 11.02-1.398 2.46-1.34 4.374-3.105 5.695-5.246 1.648-2.66 2.312-5.692 1.976-9.008-.281-2.644-1.457-5.828-3.59-9.738l-9.402-17.227c-1.441-2.64-3.008-5.011-4.648-7.039-1.7-2.082-3.743-3.668-6.075-4.715-3.918-1.761-8.078-1.468-12.363.871m7.844 32.887c-3.2-.937-6.305-4.133-9.227-9.488-3.199-5.86-4.265-10.719-3.172-14.442.797-2.714 2.711-4.867 5.852-6.582 3.55-1.937 6.809-2.195 9.96-.777 1.942.875 3.653 2.203 5.083 3.953 1.535 1.895 3.008 4.13 4.371 6.63l9.402 17.226c1.934 3.543 3.036 6.476 3.278 8.722.273 2.743-.243 5.133-1.59 7.305-1.07 1.734-2.649 3.18-4.688 4.293-3.09 1.684-6.011 2.074-8.933 1.188-2.88-.891-5.168-2.872-6.992-6.06l-.25-.456c1.312-.719 3.375-1.844 4.66-2.543 1.07 1.785 2.008 2.945 2.89 3.516 1.957 1.214 4.137 1.218 6.325.027 3.039-1.66 3.586-4.008 3.515-5.684-.101-1.965-1.262-4.949-3.547-9.14l-3.265-5.98a1.352 1.352 0 0 0-2.523.45c-.243 1.616-.66 2.916-1.243 3.862-.734 1.183-1.855 2.191-3.34 3.004-2.332 1.27-4.48 1.59-6.566.976"/><path style="stroke:none;fill-rule:nonzero;fill:#231f20;fill-opacity:1" d="M357.531 430.148c-2.37 1.293-3.535 3.329-3.375 5.887.164 1.95 1.067 4.399 2.762 7.504 1.918 3.52 3.746 5.688 5.586 6.637 1.191.617 3.14 1.062 5.652-.305 2.16-1.18 3.551-3.426 4.13-6.668a1.348 1.348 0 0 0-.145-.887l-3.61-6.617c-4.02-7.355-8.199-7.078-11-5.55m6.211 17.624c-.91-.468-2.422-1.808-4.449-5.527-1.492-2.73-2.313-4.887-2.438-6.41-.093-1.484.512-2.516 1.973-3.313 1.027-.562 3.762-2.054 7.324 4.473l3.364 6.156c-.461 2.172-1.32 3.618-2.657 4.344-1.59.867-2.539.574-3.117.277"/><path style="stroke:none;fill-rule:nonzero;fill:#7f6d4d;fill-opacity:1" d="m395.305 448.586 6.242-4.969c1.598 2.004 2.86 3.203 3.793 3.602 1.668.672 3.289.379 4.863-.875 1.746-1.387 2.414-3.004 2.012-4.852-.387-1.687-1.985-4.305-4.805-7.844l-4.238-5.332c.043 1.829-.176 3.344-.656 4.555-.614 1.524-1.676 2.883-3.192 4.09-5.808 4.621-12.113 2.656-18.918-5.89-7.687-9.665-7.937-17.356-.754-23.075 3.493-2.773 7.11-3.683 10.856-2.726 2.281.582 4.363 1.683 6.238 3.308 1.91 1.668 3.781 3.656 5.617 5.961l12.219 15.36c2.637 3.312 4.29 6.144 4.965 8.503.824 2.926.703 5.711-.356 8.344-.847 2.121-2.277 3.984-4.293 5.586-3.027 2.406-6.226 3.402-9.605 2.988-3.32-.425-6.258-2.175-8.805-5.246-.199-.254-.593-.75-1.183-1.488m3.754-25.441-4.696-5.899c-3.648-4.582-6.945-5.707-9.886-3.363-1.704 1.355-2.317 3.023-1.84 5 .433 1.672 1.687 3.805 3.75 6.398 2.297 2.887 4.293 4.598 5.988 5.13 1.414.444 2.84.097 4.27-1.04 1.597-1.27 2.402-3.348 2.414-6.226"/><path style="stroke:none;fill-rule:nonzero;fill:#231f20;fill-opacity:1" d="M378.813 406.938c-3.34 2.66-5.239 5.789-5.641 9.3-.524 4.59 1.555 9.867 6.176 15.672 7.332 9.211 14.336 11.27 20.816 6.11 1.695-1.348 2.91-2.91 3.606-4.645.19-.48.308-1.035.43-1.594a877.462 877.462 0 0 0 2.152 2.707c3.336 4.192 4.312 6.285 4.543 7.305.046.215.082.453.082.719 0 .77-.313 1.738-1.614 2.773-1.195.95-2.312 1.164-3.52.68-.378-.164-1.343-.809-3.238-3.188a1.356 1.356 0 0 0-.906-.504 1.357 1.357 0 0 0-.992.286l-6.242 4.964a1.355 1.355 0 0 0-.219 1.903l1.184 1.488c2.78 3.356 6.035 5.281 9.691 5.746 3.746.461 7.317-.64 10.617-3.27 2.192-1.742 3.778-3.812 4.711-6.144 1.164-2.902 1.301-6.004.403-9.21-.735-2.563-2.442-5.497-5.211-8.981l-12.22-15.356c-1.874-2.36-3.823-4.426-5.784-6.137-2.035-1.761-4.317-2.972-6.793-3.601-4.164-1.066-8.211-.063-12.031 2.976m2.652 23.29c-4.156-5.223-6.043-9.829-5.606-13.684.32-2.813 1.836-5.262 4.637-7.488 3.168-2.52 6.332-3.328 9.68-2.477 2.062.527 3.976 1.547 5.687 3.024 1.832 1.601 3.668 3.55 5.442 5.78l12.218 15.356c2.512 3.157 4.102 5.86 4.723 8.035.746 2.649.645 5.094-.308 7.47-.758 1.89-2.063 3.585-3.883 5.03-2.75 2.192-5.563 3.075-8.594 2.704-2.992-.38-5.586-1.942-7.93-4.766l-.324-.41 4.152-3.305c1.36 1.578 2.485 2.555 3.454 2.965 2.132.863 4.285.492 6.234-1.059 2.707-2.156 2.848-4.558 2.488-6.199-.437-1.918-2.094-4.66-5.066-8.398l-4.239-5.328a1.348 1.348 0 0 0-1.52-.43 1.35 1.35 0 0 0-.89 1.305c.04 1.632-.148 2.984-.562 4.02-.52 1.288-1.453 2.476-2.778 3.53-1.89 1.508-7.652 6.09-17.015-5.675m23.058-1.942v.031-.03"/><path style="stroke:none;fill-rule:nonzero;fill:#231f20;fill-opacity:1" d="M383.633 412.824c-2.11 1.68-2.91 3.887-2.313 6.375.496 1.899 1.805 4.153 4.008 6.922 2.492 3.137 4.664 4.961 6.64 5.578 1.286.406 3.282.512 5.52-1.27 1.926-1.534 2.91-3.98 2.922-7.277a1.36 1.36 0 0 0-.297-.847l-4.691-5.899c-5.219-6.558-9.29-5.566-11.79-3.582m9.145 16.297c-.976-.308-2.695-1.371-5.332-4.683-1.937-2.434-3.117-4.418-3.5-5.895-.347-1.45.075-2.566 1.375-3.602.918-.73 3.356-2.671 7.985 3.149l4.367 5.488c-.082 2.219-.68 3.79-1.871 4.735-1.418 1.128-2.403 1-3.024.808"/><path style="stroke:none;fill-rule:nonzero;fill:#7f6d4d;fill-opacity:1" d="m96.023 364.809 21.254-11.157 3.891 7.41-47.906 25.141-11.508-21.933 6.887-3.614 7.62 14.524 12.876-6.758-5.617-10.703 6.886-3.614 5.617 10.704"/><path style="stroke:none;fill-rule:nonzero;fill:#231f20;fill-opacity:1" d="M116.648 352.453s-17.925 9.41-20.058 10.527c-.988-1.886-4.988-9.503-4.988-9.503a1.352 1.352 0 0 0-1.824-.57l-6.887 3.613a1.358 1.358 0 0 0-.727 1.199c0 .215.055.43.156.629 0 0 3.996 7.617 4.989 9.504l-10.477 5.5-6.996-13.325a1.352 1.352 0 0 0-1.824-.57l-6.887 3.617a1.354 1.354 0 0 0-.57 1.824l11.511 21.93a1.348 1.348 0 0 0 1.825.57l47.906-25.136c.32-.168.558-.453.664-.797a1.37 1.37 0 0 0-.094-1.031l-3.89-7.41a1.359 1.359 0 0 0-1.829-.57m-19.996 13.55 20.059-10.524c.71 1.356 1.918 3.653 2.633 5.012-2.223 1.164-43.293 22.719-45.512 23.883-1.059-2.016-9.191-17.52-10.25-19.535 1.29-.68 3.2-1.68 4.488-2.36l6.993 13.325a1.352 1.352 0 0 0 1.828.57l12.875-6.754a1.363 1.363 0 0 0 .722-1.2c0-.218-.054-.433-.156-.628l-4.988-9.508c1.293-.676 3.203-1.68 4.492-2.355l4.988 9.507c.168.317.453.555.797.66.34.11.711.075 1.031-.093"/><path style="stroke:none;fill-rule:nonzero;fill:#7f6d4d;fill-opacity:1" d="m49.05 327.953 7.403-2.387 4.957 15.368 13.516-4.364-3.66-11.34 7.402-2.39 3.66 11.344 15.766-5.086-4.953-15.368 7.398-2.386 7.527 23.332-51.488 16.61-7.527-23.333"/><path style="stroke:none;fill-rule:nonzero;fill:#231f20;fill-opacity:1" d="m100.125 310.059-7.402 2.386a1.355 1.355 0 0 0-.871 1.703s3.843 11.918 4.543 14.079c-1.98.636-11.22 3.617-13.196 4.257l-3.242-10.058a1.353 1.353 0 0 0-1.703-.871l-7.402 2.386a1.35 1.35 0 0 0-.872 1.704l3.243 10.054c-1.887.61-9.055 2.922-10.942 3.531-.695-2.16-4.539-14.082-4.539-14.082a1.37 1.37 0 0 0-.672-.789 1.37 1.37 0 0 0-1.03-.082l-7.403 2.387a1.351 1.351 0 0 0-.871 1.703l7.523 23.332a1.353 1.353 0 0 0 1.703.871l51.488-16.605a1.353 1.353 0 0 0 .872-1.703l-7.524-23.332a1.352 1.352 0 0 0-1.703-.871m-.457 2.988c.7 2.164 5.996 18.594 6.695 20.758-2.383.765-46.527 15.007-48.914 15.777-.699-2.164-5.996-18.594-6.695-20.758 1.387-.445 3.441-1.11 4.828-1.554.695 2.16 4.54 14.078 4.54 14.078a1.353 1.353 0 0 0 1.703.871l13.515-4.36a1.349 1.349 0 0 0 .87-1.703l-3.241-10.054c1.386-.45 3.441-1.11 4.828-1.559l3.242 10.059c.113.34.352.625.672.789.32.16.691.191 1.031.082l15.77-5.086a1.358 1.358 0 0 0 .87-1.703s-3.843-11.918-4.542-14.079c1.387-.449 3.441-1.109 4.828-1.558"/><path style="stroke:none;fill-rule:nonzero;fill:#7f6d4d;fill-opacity:1" d="m76.371 300.684 21.973-2.774 1.047 8.305-53.676 6.762-1.64-13.02c-.583-4.613.046-8.285 1.89-11.02 2.379-3.55 6.234-5.66 11.562-6.332 6.82-.859 11.785.965 14.883 5.477l23.313-10.965 1.101 8.727-21.078 9.883.625 4.957m-7.715.968-.383-3.027c-.289-2.285-.703-3.883-1.242-4.805-1.351-2.308-4.015-3.215-7.988-2.715-2.93.372-4.973 1.32-6.133 2.856a5.085 5.085 0 0 0-1.129 3.062c-.031 1.016.043 2.235.223 3.653l.379 3.027 16.273-2.05"/><path style="stroke:none;fill-rule:nonzero;fill:#231f20;fill-opacity:1" d="m95.148 275.89-22.406 10.54c-3.422-4.23-8.55-6.028-15.387-5.164-5.707.718-9.917 3.046-12.515 6.918-2.02 3-2.73 7.015-2.11 11.941l1.641 13.023c.094.739.77 1.266 1.512 1.172l53.676-6.761c.355-.047.68-.23.902-.512.219-.285.316-.645.27-1l-1.043-8.305a1.354 1.354 0 0 0-1.512-1.172s-18.266 2.301-20.633 2.602c-.129-1.043-.227-1.805-.332-2.637l20.187-9.469a1.345 1.345 0 0 0 .766-1.39l-1.098-8.73a1.343 1.343 0 0 0-.691-1.012 1.346 1.346 0 0 0-1.227-.043m-22.16 13.414 21.625-10.172c.25 1.969.598 4.73.746 5.902-1.632.77-20.187 9.469-20.187 9.469a1.352 1.352 0 0 0-.766 1.39l.621 4.958c.047.355.23.68.512.898.285.219.645.316 1 .273l20.633-2.597.707 5.617c-2.484.312-48.504 6.11-50.992 6.426-.274-2.16-1.473-11.68-1.473-11.68a24.246 24.246 0 0 1-.195-2.969c0-2.894.625-5.285 1.867-7.129 2.172-3.238 5.64-5.117 10.61-5.742 6.335-.797 10.784.805 13.6 4.899a1.354 1.354 0 0 0 1.692.457"/><path style="stroke:none;fill-rule:nonzero;fill:#231f20;fill-opacity:1" d="M58.871 289.766c-3.285.414-5.656 1.55-7.039 3.379-.871 1.09-1.352 2.386-1.402 3.832-.032 1.09.043 2.39.23 3.87l.383 3.024c.043.36.227.68.512.902.285.22.64.317.996.274l16.273-2.05c.356-.048.68-.231.899-.513a1.34 1.34 0 0 0 .273-1l-.383-3.027c-.312-2.492-.777-4.234-1.418-5.32-1.644-2.809-4.78-3.946-9.324-3.371m-5.527 10.742a24.475 24.475 0 0 1-.215-3.012c0-.148 0-.293.004-.43a3.74 3.74 0 0 1 .832-2.261c.95-1.254 2.707-2.035 5.246-2.356 3.414-.43 5.59.242 6.652 2.055.305.523.739 1.687 1.067 4.293 0 0 .11.851.215 1.683-2.06.258-11.532 1.454-13.59 1.711-.102-.832-.211-1.683-.211-1.683"/><path style="stroke:none;fill-rule:nonzero;fill:#7f6d4d;fill-opacity:1" d="m43.371 243.8 7.762.446-.93 16.121 14.176.82.687-11.898 7.766.45-.687 11.898 16.539.957.933-16.121 7.766.449-1.418 24.473-54.008-3.122 1.414-24.472"/><path style="stroke:none;fill-rule:nonzero;fill:#231f20;fill-opacity:1" d="m42.02 243.723-1.415 24.472a1.354 1.354 0 0 0 1.274 1.43l54.008 3.121a1.354 1.354 0 0 0 1.43-1.273L98.73 247a1.348 1.348 0 0 0-1.273-1.426l-7.762-.453c-.36-.02-.71.106-.976.344a1.33 1.33 0 0 0-.453.93s-.723 12.503-.852 14.77c-2.078-.118-11.766-.68-13.844-.802.125-2.12.614-10.547.614-10.547v-.082c0-.71-.555-1.304-1.274-1.347l-7.765-.45a1.361 1.361 0 0 0-.977.34 1.36 1.36 0 0 0-.45.934s-.488 8.426-.609 10.547l-11.48-.66c.133-2.27.855-14.77.855-14.77 0-.027.004-.055.004-.082a1.352 1.352 0 0 0-1.277-1.348l-7.762-.449a1.354 1.354 0 0 0-1.43 1.274m2.622 1.507c1.457.083 3.609.208 5.066.29-.133 2.27-.855 14.77-.855 14.77 0 .026-.004.054-.004.077a1.357 1.357 0 0 0 1.277 1.352l14.176.82a1.352 1.352 0 0 0 1.43-1.273s.488-8.426.609-10.547c1.453.082 3.61.207 5.062.293-.12 2.12-.609 10.547-.609 10.547v.078a1.353 1.353 0 0 0 1.273 1.351l16.54.953a1.355 1.355 0 0 0 1.43-1.27s.722-12.503.85-14.769c1.458.082 3.61.207 5.067.293-.133 2.27-1.129 19.504-1.258 21.774L43.383 267c.133-2.27 1.129-19.504 1.258-21.77"/><path style="stroke:none;fill-rule:nonzero;fill:#7f6d4d;fill-opacity:1" d="m53.059 199.293 52.414 13.418-1.868 7.277-38.468 5.172L100 234.086l-1.973 7.695-52.41-13.418 2.078-8.12 35.992-4.907-32.597-8.344 1.969-7.699"/><path style="stroke:none;fill-rule:nonzero;fill:#231f20;fill-opacity:1" d="m51.75 198.957-1.969 7.7a1.349 1.349 0 0 0 .973 1.645c0-.001 17.437 4.464 25.898 6.628l-29.136 3.972a1.358 1.358 0 0 0-1.13 1.008l-2.077 8.121a1.354 1.354 0 0 0 .973 1.645l52.413 13.418c.344.09.715.035 1.024-.149.308-.18.531-.48.62-.828l1.97-7.695a1.354 1.354 0 0 0-.973-1.648s-19.36-4.954-28.129-7.2c9.285-1.25 31.582-4.246 31.582-4.246a1.354 1.354 0 0 0 1.129-1.004l1.863-7.277a1.356 1.356 0 0 0-.977-1.648l-52.41-13.415a1.349 1.349 0 0 0-1.644.973m2.285 1.98c2.426.625 47.363 12.125 49.79 12.75l-1.302 5.083c-1.722.23-37.57 5.05-37.57 5.05a1.35 1.35 0 0 0-1.168 1.258c-.004.027-.004.055-.004.082 0 .613.418 1.156 1.02 1.309l33.55 8.59c-.363 1.433-.93 3.644-1.296 5.078-2.43-.621-47.364-12.125-49.79-12.746l1.516-5.93 35.09-4.785a1.35 1.35 0 0 0 1.168-1.262v-.078a1.35 1.35 0 0 0-1.016-1.309s-28.875-7.39-31.289-8.011c.368-1.434.934-3.641 1.301-5.078"/><path style="stroke:none;fill-rule:nonzero;fill:#7f6d4d;fill-opacity:1" d="m88.102 164.008-3.704 7.492c-.441-.238-.761-.414-.976-.52-5.606-2.77-9.348-2.253-11.223 1.543-1.023 2.067-.965 3.942.164 5.625a9.202 9.202 0 0 0 2.688 2.567c1.035.633 2.261 1.297 3.672 1.996l16.148 7.98c3.371 1.668 5.914 2.582 7.621 2.746 2.477.22 4.32-.898 5.531-3.343 1.915-3.875-.289-7.375-6.609-10.5-.3-.11-.707-.293-1.227-.551l3.708-7.496c.843.375 1.457.656 1.835.844 4.68 2.312 7.922 5.093 9.73 8.343 2.09 3.805 1.962 8.086-.39 12.844-2.492 5.04-6.082 7.774-10.761 8.2-2.446.234-4.852-.102-7.227-1.012-1.984-.746-4.3-1.774-6.95-3.082l-13.55-6.7c-4.633-2.289-7.7-4.172-9.207-5.652-2.7-2.629-4.043-5.648-4.035-9.062-.008-2.36.594-4.77 1.812-7.23 2.032-4.114 4.883-6.696 8.543-7.74 3.828-1.081 8.118-.448 12.868 1.9.378.187.89.456 1.539.808"/><path style="stroke:none;fill-rule:nonzero;fill:#231f20;fill-opacity:1" d="M73.328 159.996c-4.031 1.152-7.187 3.992-9.39 8.445-1.301 2.637-1.958 5.274-1.95 7.836-.008 3.766 1.485 7.141 4.446 10.024 1.613 1.59 4.738 3.52 9.546 5.898l13.551 6.7c2.676 1.32 5.055 2.374 7.074 3.132 2.555.98 5.192 1.348 7.832 1.09 5.153-.465 9.141-3.476 11.844-8.945 2.547-5.153 2.668-9.895.364-14.094-1.938-3.484-5.407-6.477-10.317-8.902l-1.887-.868a1.339 1.339 0 0 0-1.761.637l-3.703 7.496c-.165.328-.207.7-.086 1.043.125.348.363.617.699.77l1.355.605c3.438 1.707 5.567 3.543 6.196 5.407.343 1.02.238 2.074-.332 3.222-.957 1.942-2.293 2.77-4.196 2.602-1.527-.149-3.933-1.028-7.144-2.614l-16.145-7.984-3.57-1.934a7.95 7.95 0 0 1-2.281-2.187c-.844-1.262-.871-2.617-.063-4.25.606-1.227 2.219-4.488 9.414-.93.004 0 .918.493.918.493a1.37 1.37 0 0 0 1.867-.586l3.704-7.497a1.333 1.333 0 0 0-.567-1.789l-1.586-.832c-5.035-2.488-9.687-3.156-13.832-1.988m24.238 39.508c-1.945-.73-4.242-1.75-6.836-3.031l-13.55-6.7c-4.48-2.214-7.461-4.035-8.856-5.406-2.453-2.39-3.64-5.035-3.629-8.094-.011-2.144.551-4.375 1.668-6.632 1.875-3.793 4.395-6.098 7.707-7.04 3.473-.984 7.473-.374 11.89 1.81 0 0 .153.077.345.179-.668 1.351-1.82 3.683-2.512 5.078-7.781-3.754-11.266-.863-12.809 2.258-1.226 2.484-1.14 4.898.258 6.976a10.646 10.646 0 0 0 3.086 2.957l3.797 2.063 16.148 7.98c3.555 1.758 6.2 2.703 8.09 2.883 3.043.27 5.414-1.148 6.871-4.094.54-1.09.809-2.175.809-3.238 0-.691-.113-1.375-.34-2.05-.883-2.602-3.394-4.895-7.683-7.016l2.503-5.063.606.278c4.406 2.18 7.484 4.8 9.148 7.789.875 1.593 1.313 3.265 1.313 5.039 0 2.039-.578 4.21-1.735 6.547-2.289 4.632-5.453 7.07-9.668 7.453-2.23.215-4.449-.098-6.62-.926"/><path style="stroke:none;fill-rule:nonzero;fill:#7f6d4d;fill-opacity:1" d="m136.21 159.48-6.35 8.211-49.895-23.925 5.289-6.828 37.531 18.718-28.172-30.816 5.188-6.707 36.41 41.347"/><path style="stroke:none;fill-rule:nonzero;fill:#231f20;fill-opacity:1" d="M99.758 116.781a1.352 1.352 0 0 0-1.028.524l-5.187 6.707a1.327 1.327 0 0 0-.281.828c0 .324.117.652.351.91l23.266 25.45a830309 830309 0 0 1-31.024-15.473 1.348 1.348 0 0 0-1.671.382l-5.286 6.832a1.35 1.35 0 0 0-.25 1.137c.098.399.368.73.735.91l49.89 23.922a1.353 1.353 0 0 0 1.657-.39l6.351-8.211a1.345 1.345 0 0 0-.054-1.72l-36.41-41.35a1.363 1.363 0 0 0-1.06-.458m.11 3.473c1.996 2.266 33.219 37.723 34.594 39.281-.965 1.242-4.063 5.246-5.004 6.465-1.836-.879-44.617-21.395-47.398-22.73l3.586-4.63c1.882.942 36.539 18.227 36.539 18.227a1.35 1.35 0 0 0 1.953-1.21c0-.329-.117-.657-.352-.915L96.38 124.766c.812-1.047 2.402-3.106 3.488-4.512"/><path style="stroke:none;fill-rule:nonzero;fill:#7f6d4d;fill-opacity:1" d="m151.492 127.578-8.625 7.656 6.172 10.235-6.133 5.445-28.156-47.348 8.594-7.629 44.097 33.196-6.43 5.707-9.519-7.262m-6.23-4.867-19.383-15.148 12.832 20.964 6.55-5.816"/><path style="stroke:none;fill-rule:nonzero;fill:#231f20;fill-opacity:1" d="m122.445 94.926-8.593 7.629a1.352 1.352 0 0 0-.262 1.703l28.156 47.347c.203.348.555.583.953.649a1.36 1.36 0 0 0 1.106-.328l6.132-5.446a1.36 1.36 0 0 0 .458-1.011c0-.239-.067-.48-.196-.7 0 0-4.637-7.69-5.594-9.269 1.227-1.086 5.739-5.094 6.954-6.172 1.453 1.113 8.632 6.586 8.632 6.586a1.35 1.35 0 0 0 1.72-.062l6.429-5.711c.3-.27.469-.66.45-1.067a1.344 1.344 0 0 0-.536-1.023l-44.098-33.196a1.354 1.354 0 0 0-1.71.07m.968 2.759 41.89 31.535c-1.35 1.203-3.374 2.996-4.359 3.87-1.457-1.109-8.632-6.585-8.632-6.585a1.355 1.355 0 0 0-1.72.066l-8.624 7.653a1.357 1.357 0 0 0-.258 1.71s4.637 7.692 5.59 9.27c-.961.856-2.77 2.461-4.07 3.613-1.54-2.593-25.684-43.191-26.747-44.98 1.215-1.082 5.723-5.082 6.93-6.152"/><path style="stroke:none;fill-rule:nonzero;fill:#231f20;fill-opacity:1" d="M124.977 106.555a1.353 1.353 0 0 0-.254 1.715l12.836 20.96a1.35 1.35 0 0 0 2.05.305l6.551-5.812a1.352 1.352 0 0 0-.066-2.078l-19.383-15.149a1.352 1.352 0 0 0-1.734.059m5.957 6.675 12.214 9.547a4474.825 4474.825 0 0 0-4.125 3.664c-.996-1.62-4.668-7.617-8.09-13.21"/><path style="stroke:none;fill-rule:nonzero;fill:#7f6d4d;fill-opacity:1" d="m167.8 103.105 11.09 19.172-7.242 4.192-27.09-46.832 11.364-6.57c4.023-2.329 7.652-3.176 10.887-2.54 4.195.813 7.636 3.543 10.324 8.192 3.445 5.953 3.691 11.234.742 15.844l19.16 17.218-7.613 4.406-17.297-15.582-4.324 2.5m-3.89-6.73 2.64-1.527c1.992-1.153 3.304-2.157 3.941-3.012 1.606-2.145 1.403-4.95-.601-8.414-1.477-2.559-3.149-4.07-5.012-4.543-1.098-.313-2.184-.258-3.262.148-.949.368-2.043.91-3.277 1.625l-2.64 1.528 8.21 14.195"/><path style="stroke:none;fill-rule:nonzero;fill:#231f20;fill-opacity:1" d="m155.242 71.895-11.36 6.574a1.319 1.319 0 0 0-.628.82c-.094.348-.043.715.133 1.023l27.09 46.833a1.355 1.355 0 0 0 1.847.496l7.246-4.192a1.368 1.368 0 0 0 .676-1.172 1.33 1.33 0 0 0-.184-.675s-9.218-15.938-10.414-18c.91-.528 1.575-.91 2.301-1.332l16.567 14.921a1.35 1.35 0 0 0 1.582.168l7.617-4.406a1.35 1.35 0 0 0 .226-2.176L179.516 94.22c1.09-2.047 1.754-4.184 1.754-6.453 0-3.055-.989-6.305-2.965-9.723-2.883-4.98-6.66-7.957-11.239-8.844-3.546-.695-7.52.211-11.824 2.696m1.356 2.343c3.714-2.148 7.062-2.953 9.953-2.386 3.828.746 6.906 3.21 9.41 7.543 1.742 3.007 2.61 5.777 2.61 8.347 0 2.16-.614 4.184-1.837 6.094a1.37 1.37 0 0 0-.21.727c0 .374.152.742.449 1.007 0 0 15.39 13.832 17.773 15.977-1.719.992-4.129 2.387-5.148 2.976-1.344-1.207-16.57-14.921-16.57-14.921a1.355 1.355 0 0 0-1.583-.165l-4.32 2.5a1.343 1.343 0 0 0-.676 1.168c0 .239.063.47.184.68 0 0 9.215 15.938 10.41 18-1.328.77-3.574 2.067-4.902 2.836l-25.735-44.488a10722.83 10722.83 0 0 1 10.192-5.895"/><path style="stroke:none;fill-rule:nonzero;fill:#231f20;fill-opacity:1" d="M161.137 77.766c-1.016.39-2.184.968-3.477 1.714l-2.64 1.528a1.348 1.348 0 0 0-.492 1.848l8.21 14.195a1.35 1.35 0 0 0 1.848.496l2.64-1.527c2.176-1.258 3.598-2.364 4.352-3.38 1.95-2.605 1.777-5.937-.516-9.898-1.66-2.867-3.628-4.61-5.851-5.176-1.344-.379-2.723-.316-4.074.2m-2.121 4.058c1.172-.68 2.21-1.195 3.09-1.535.8-.3 1.59-.34 2.406-.11 1.523.387 2.93 1.704 4.207 3.919.996 1.718 1.492 3.199 1.492 4.468 0 .93-.27 1.746-.8 2.457-.36.489-1.266 1.34-3.54 2.653l-1.469.851-6.855-11.855 1.469-.848"/><path style="stroke:none;fill-rule:nonzero;fill:#7f6d4d;fill-opacity:1" d="m218.281 65.422 6.184 18.707c1.23 3.73 1.82 6.77 1.762 9.125-.176 6.195-3.547 10.379-10.118 12.55-5.011 1.657-9.25 1.239-12.714-1.257a14.858 14.858 0 0 1-4.383-5.05c-.961-1.821-1.817-3.856-2.563-6.114l-6.18-18.703c-1.234-3.73-1.824-6.77-1.765-9.125.203-6.203 3.586-10.395 10.156-12.563 4.985-1.648 9.211-1.226 12.68 1.266a14.233 14.233 0 0 1 4.379 5.054c.965 1.82 1.816 3.856 2.562 6.11m-20.015 6.781 6.082 18.406c.808 2.446 1.46 4.086 1.96 4.918 1.77 2.907 4.215 3.844 7.337 2.813 2.39-.79 3.757-2.27 4.105-4.434.2-1.172.137-2.37-.184-3.594a51.594 51.594 0 0 0-1.101-3.71l-6.078-18.403c-.817-2.472-1.477-4.125-1.977-4.957-1.734-2.89-4.164-3.816-7.285-2.789-2.418.8-3.797 2.281-4.145 4.445a8.473 8.473 0 0 0 .172 3.563 52.53 52.53 0 0 0 1.114 3.742"/><path style="stroke:none;fill-rule:nonzero;fill:#231f20;fill-opacity:1" d="M198.234 51.707c-7.132 2.355-10.863 7-11.082 13.805-.062 2.539.54 5.675 1.832 9.593l6.18 18.704c.77 2.312 1.66 4.441 2.652 6.32a16.264 16.264 0 0 0 4.782 5.512c3.824 2.754 8.511 3.242 13.937 1.449 7.137-2.36 10.852-7 11.043-13.8.063-2.536-.539-5.673-1.832-9.587L219.566 65c-.765-2.316-1.66-4.441-2.652-6.32a15.533 15.533 0 0 0-4.789-5.52c-3.816-2.75-8.492-3.238-13.89-1.453m5.949 51.742a13.57 13.57 0 0 1-3.98-4.594c-.919-1.738-1.75-3.722-2.47-5.894l-6.18-18.703c-1.179-3.57-1.75-6.488-1.699-8.668.184-5.617 3.204-9.324 9.227-11.317 4.594-1.515 8.344-1.164 11.469 1.082a12.937 12.937 0 0 1 3.969 4.583c.925 1.753 1.761 3.738 2.476 5.91l6.184 18.703c1.175 3.566 1.75 6.484 1.695 8.668-.16 5.613-3.164 9.312-9.188 11.3-4.62 1.528-8.382 1.18-11.503-1.07"/><path style="stroke:none;fill-rule:nonzero;fill:#231f20;fill-opacity:1" d="M200.7 59.172c-3.641 1.203-4.759 3.664-5.055 5.516a9.792 9.792 0 0 0 .199 4.113l1.136 3.828 6.083 18.402c.847 2.57 1.53 4.27 2.085 5.192 2.11 3.46 5.192 4.632 8.922 3.402 3.61-1.191 4.72-3.652 5.016-5.504.226-1.344.156-2.746-.207-4.152 0 .015-1.129-3.79-1.129-3.79l-6.078-18.406c-.856-2.582-1.543-4.293-2.098-5.226-2.07-3.445-5.14-4.61-8.875-3.375m-2.234 8.957a7.07 7.07 0 0 1-.149-3.004c.266-1.672 1.293-2.742 3.235-3.387 2.527-.836 4.285-.156 5.703 2.2.305.511.875 1.746 1.848 4.687l6.082 18.402 1.07 3.614c.273 1.046.328 2.062.16 3.043-.266 1.671-1.281 2.738-3.191 3.37-2.536.84-4.313.15-5.758-2.23-.3-.5-.867-1.719-1.832-4.64L199.55 71.78c.004.012-.004-.015 0 0l-1.086-3.652m-1.485 4.504v-.004c-.003-.012 0 .004 0 .004"/><path style="stroke:none;fill-rule:nonzero;fill:#7f6d4d;fill-opacity:1" d="m260.05 54.637-7.663 3.304c-1.922-5.132-4.633-7.492-8.137-7.074-1.504.18-2.707.824-3.613 1.946-.957 1.175-1.34 2.562-1.153 4.16.235 1.965 1.2 3.672 2.891 5.117 1.098.93 3.71 2.613 7.84 5.043 4.219 2.527 7.183 4.605 8.898 6.234 2.649 2.528 4.196 5.676 4.645 9.45.472 3.953-.469 7.363-2.813 10.214-2.394 2.918-5.82 4.64-10.277 5.168-9.18 1.094-15.223-3.289-18.121-13.14l7.672-3.27c1.863 6.27 5.039 9.137 9.527 8.606 1.89-.227 3.316-.98 4.285-2.266.965-1.254 1.344-2.79 1.13-4.598-.224-1.886-1.13-3.531-2.708-4.937-1.316-1.196-3.5-2.719-6.543-4.563-4.422-2.66-7.086-4.336-7.996-5.023-4.16-3.145-6.492-6.84-6.996-11.082-.504-4.219.61-7.739 3.336-10.559 2.297-2.426 5.336-3.863 9.117-4.312 7.75-.922 13.309 2.937 16.68 11.582"/><path style="stroke:none;fill-rule:nonzero;fill:#231f20;fill-opacity:1" d="M243.21 41.71c-4.089.485-7.429 2.075-9.937 4.727-3 3.106-4.25 7.028-3.699 11.649.547 4.602 3.078 8.64 7.524 12 .957.727 3.613 2.394 8.117 5.105 2.95 1.79 5.082 3.27 6.324 4.403 1.352 1.203 2.094 2.539 2.277 4.097.172 1.457-.105 2.637-.855 3.614-.754.996-1.852 1.562-3.371 1.746-1.387.164-5.606.668-8.074-7.649a1.388 1.388 0 0 0-.723-.84 1.347 1.347 0 0 0-1.106-.015l-7.671 3.266a1.353 1.353 0 0 0-.77 1.624c3.106 10.54 9.691 15.286 19.578 14.106 4.797-.57 8.555-2.473 11.164-5.652 2.578-3.137 3.625-6.918 3.114-11.235-.485-4.074-2.184-7.527-5.051-10.27-1.809-1.71-4.793-3.812-9.14-6.413-4.052-2.383-6.626-4.035-7.661-4.914-1.434-1.227-2.227-2.618-2.422-4.246-.144-1.231.137-2.262.856-3.153.683-.84 1.578-1.312 2.726-1.45 1.04-.124 4.2-.5 6.707 6.204.13.348.399.625.738.773.34.145.723.141 1.067-.003l7.664-3.305c.672-.29.992-1.059.726-1.734-3.609-9.25-9.699-13.434-18.101-12.434m6.695 50.023c2.262-.265 4.012-1.207 5.203-2.793 1.18-1.527 1.653-3.406 1.395-5.57-.266-2.21-1.324-4.16-3.152-5.785-1.383-1.262-3.59-2.805-6.739-4.711-5.433-3.266-7.285-4.492-7.879-4.945-3.894-2.942-6.011-6.266-6.472-10.164-.457-3.828.511-6.922 2.968-9.461 2.098-2.22 4.81-3.492 8.301-3.907 6.746-.804 11.567 2.348 14.73 9.536-1.429.617-3.847 1.66-5.218 2.25-2.14-4.801-5.121-7.118-8.953-6.66-1.856.218-3.371 1.038-4.504 2.433-1.191 1.469-1.676 3.207-1.441 5.176.273 2.304 1.402 4.316 3.351 5.984 1.172.996 3.797 2.692 8.031 5.18 4.11 2.46 7.024 4.5 8.657 6.05 2.43 2.325 3.82 5.145 4.23 8.63.43 3.605-.39 6.613-2.516 9.199-2.183 2.656-5.253 4.191-9.39 4.683-8.13.965-13.446-2.683-16.27-11.054 1.336-.57 3.711-1.582 5.192-2.211 2.664 7.344 7.105 8.543 10.476 8.14"/><path style="stroke:none;fill-rule:nonzero;fill:#7f6d4d;fill-opacity:1" d="m280.945 42.395-1.425 54.082-8.364-.22 1.422-54.081 8.367.219"/><path style="stroke:none;fill-rule:nonzero;fill:#231f20;fill-opacity:1" d="m271.227 42.14-1.422 54.083a1.35 1.35 0 0 0 1.316 1.386l8.363.22c.36.01.707-.126.97-.372.26-.246.41-.586.417-.945l1.426-54.082a1.354 1.354 0 0 0-1.317-1.387l-8.367-.219a1.352 1.352 0 0 0-1.386 1.317m2.668 1.422c1.535.039 4.128.109 5.66.148-.067 2.504-1.285 48.875-1.352 51.379-1.531-.04-4.125-.11-5.66-.149.066-2.504 1.285-48.875 1.352-51.379"/><path style="stroke:none;fill-rule:nonzero;fill:#7f6d4d;fill-opacity:1" d="m343.043 62.105-14.348 44.047-7.957-2.593 14.348-44.047-9.965-3.246 2.406-7.395 27.891 9.086-2.406 7.395-9.969-3.247"/><path style="stroke:none;fill-rule:nonzero;fill:#231f20;fill-opacity:1" d="M326.914 47.668a1.35 1.35 0 0 0-.672.785l-2.406 7.395a1.348 1.348 0 0 0 .863 1.703s6.73 2.195 8.684 2.828l-13.93 42.762a1.352 1.352 0 0 0 .867 1.703l7.957 2.594a1.349 1.349 0 0 0 1.703-.868l13.93-42.757c1.953.632 8.684 2.824 8.684 2.824a1.348 1.348 0 0 0 1.703-.867l2.406-7.395a1.348 1.348 0 0 0-.863-1.703l-27.895-9.086c-.34-.11-.71-.082-1.03.082m1.48 2.91c2.226.723 23.093 7.52 25.32 8.246-.453 1.387-1.121 3.438-1.57 4.82-1.954-.632-8.68-2.824-8.68-2.824a1.344 1.344 0 0 0-1.707.867s-13.137 40.336-13.93 42.758c-1.457-.472-3.926-1.277-5.383-1.754.79-2.421 13.926-42.757 13.926-42.757.047-.137.067-.282.067-.422 0-.211-.047-.422-.145-.614a1.362 1.362 0 0 0-.785-.671l-8.684-2.829a1739.61 1739.61 0 0 0 1.57-4.82"/><path style="stroke:none;fill-rule:nonzero;fill:#7f6d4d;fill-opacity:1" d="m386.594 93.438-9.63 17.187c-1.925 3.43-3.769 5.914-5.542 7.46-4.692 4.056-10.055 4.392-16.09 1.009-4.605-2.578-7.16-5.992-7.656-10.23-.25-2.259.004-4.47.77-6.641.69-1.942 1.616-3.946 2.78-6.02l9.63-17.183c1.917-3.426 3.765-5.915 5.539-7.461 4.714-4.04 10.09-4.371 16.125-.989 4.582 2.567 7.125 5.97 7.62 10.211a14.21 14.21 0 0 1-.769 6.645c-.691 1.937-1.617 3.941-2.777 6.011m-18.516-10.19-9.473 16.91c-1.261 2.25-2.03 3.84-2.308 4.769-.95 3.27.012 5.703 2.879 7.308 2.195 1.235 4.21 1.246 6.039.04 1-.645 1.844-1.5 2.531-2.563a53.389 53.389 0 0 0 1.992-3.316l9.477-16.907c1.27-2.273 2.043-3.875 2.324-4.804.957-3.23.004-5.649-2.863-7.254-2.223-1.246-4.246-1.266-6.074-.059a8.38 8.38 0 0 0-2.512 2.527c-.598.903-1.266 2.02-2.012 3.348"/><path style="stroke:none;fill-rule:nonzero;fill:#231f20;fill-opacity:1" d="M365.516 70.531c-1.918 1.668-3.825 4.227-5.844 7.828l-9.625 17.184c-1.192 2.125-2.16 4.219-2.875 6.223a16.267 16.267 0 0 0-.844 7.246c.55 4.683 3.36 8.468 8.344 11.261 6.555 3.672 12.488 3.282 17.633-1.164 1.914-1.668 3.824-4.226 5.84-7.824l9.628-17.183c1.192-2.13 2.157-4.223 2.872-6.223a15.62 15.62 0 0 0 .84-7.258c-.548-4.672-3.344-8.453-8.305-11.23-6.551-3.672-12.496-3.29-17.664 1.14m-9.524 47.383c-4.246-2.379-6.527-5.39-6.972-9.21a13.483 13.483 0 0 1 .703-6.032c.66-1.86 1.566-3.813 2.683-5.805l9.63-17.187c1.835-3.278 3.6-5.668 5.245-7.102 4.27-3.656 9.04-3.93 14.574-.832 4.223 2.367 6.493 5.375 6.946 9.192a12.963 12.963 0 0 1-.7 6.023c-.667 1.867-1.57 3.82-2.69 5.816l-9.63 17.188c-1.836 3.273-3.597 5.664-5.25 7.101-4.246 3.668-9.004 3.95-14.539.848"/><path style="stroke:none;fill-rule:nonzero;fill:#231f20;fill-opacity:1" d="M371.855 76.242a9.812 9.812 0 0 0-2.902 2.922l-2.058 3.426-9.47 16.906c-1.323 2.36-2.116 4.008-2.425 5.043-.273.945-.41 1.84-.41 2.68 0 2.633 1.328 4.742 3.926 6.195 3.316 1.86 5.879 1.02 7.445-.012a9.908 9.908 0 0 0 2.922-2.957c-.012.016 2.039-3.386 2.039-3.386l9.473-16.91c1.328-2.376 2.128-4.036 2.44-5.075 1.142-3.851-.07-6.906-3.495-8.828-3.352-1.875-5.918-1.035-7.485-.004m-.636 4.403a7.083 7.083 0 0 1 2.117-2.137c1.414-.934 2.894-.899 4.68.101 2.324 1.301 3.007 3.055 2.226 5.692-.172.57-.695 1.82-2.21 4.527l-9.473 16.906-1.942 3.23c-.586.907-1.305 1.638-2.137 2.173-1.414.933-2.886.902-4.644-.082-2.328-1.301-3.016-3.075-2.238-5.754.168-.559.683-1.801 2.187-4.485l9.473-16.906c-.008.012.004-.008 0 0l1.96-3.265m-4.323 1.945c.007-.016-.004.008 0 0"/><path style="stroke:none;fill-rule:nonzero;fill:#7f6d4d;fill-opacity:1" d="m395.059 118.469-14.485 16.758-6.332-5.473 35.38-40.934 9.929 8.582c3.515 3.043 5.504 6.196 5.965 9.461.605 4.227-.848 8.375-4.36 12.438-4.496 5.203-9.406 7.164-14.726 5.886l-9.996 23.747-6.657-5.754 9.059-21.446-3.777-3.265m5.086-5.883 2.304 1.996c1.742 1.504 3.121 2.418 4.14 2.738 2.552.813 5.138-.297 7.755-3.324 1.93-2.234 2.812-4.308 2.648-6.226a5.045 5.045 0 0 0-1.21-3.028c-.657-.777-1.524-1.633-2.606-2.566l-2.309-1.996-10.722 12.406"/><path style="stroke:none;fill-rule:nonzero;fill:#231f20;fill-opacity:1" d="m408.598 87.938-35.38 40.93a1.351 1.351 0 0 0-.323.984c.027.359.195.691.464.925l6.332 5.473a1.351 1.351 0 0 0 1.907-.14s12.039-13.926 13.597-15.731c.797.683 1.375 1.187 2.012 1.734l-8.676 20.543a1.345 1.345 0 0 0 .363 1.547l6.657 5.754a1.35 1.35 0 0 0 2.129-.5s8.879-21.09 9.601-22.812c5.38.859 10.39-1.25 14.899-6.461 3.761-4.352 5.336-8.899 4.675-13.512-.503-3.582-2.668-7.043-6.421-10.29l-9.93-8.581a1.35 1.35 0 0 0-1.906.136m1.164 2.793 8.902 7.696c3.246 2.808 5.102 5.707 5.512 8.625.082.566.125 1.129.125 1.687 0 3.266-1.375 6.446-4.168 9.676-4.18 4.832-8.559 6.621-13.39 5.457a1.358 1.358 0 0 0-1.56.793l-9.273 22.027c-1.504-1.296-3.61-3.117-4.504-3.89l8.676-20.54a1.351 1.351 0 0 0-.363-1.55l-3.778-3.266a1.342 1.342 0 0 0-.98-.324c-.36.027-.691.192-.926.465 0 0-12.039 13.93-13.598 15.73a4087.74 4087.74 0 0 1-4.285-3.703c1.637-1.894 31.97-36.988 33.61-38.883"/><path style="stroke:none;fill-rule:nonzero;fill:#231f20;fill-opacity:1" d="m409.844 99.293-10.723 12.41a1.35 1.35 0 0 0 .137 1.906l2.308 1.996c1.903 1.641 3.414 2.625 4.618 3.004 3.097.989 6.187-.27 9.183-3.73 2.168-2.508 3.168-4.938 2.973-7.223-.082-1.39-.594-2.676-1.52-3.785-.707-.832-1.632-1.746-2.761-2.719l-2.309-1.996a1.353 1.353 0 0 0-1.906.137m1.16 2.793 1.285 1.11c1.024.886 1.852 1.699 2.461 2.417.55.66.844 1.39.895 2.239.007.113.011.226.011.343 0 1.477-.785 3.121-2.336 4.914-2.25 2.606-4.316 3.563-6.32 2.922-.578-.18-1.68-.758-3.664-2.472l-1.285-1.11c1.355-1.57 7.597-8.793 8.953-10.363"/><path style="stroke:none;fill-rule:nonzero;fill:#7f6d4d;fill-opacity:1" d="m461.371 143.992-42.988 32.848-4.563-5.969 19.762-33.414-28.594 21.852-4.828-6.313 42.992-32.848 5.09 6.66-18.433 31.301 26.738-20.43 4.824 6.313"/><path style="stroke:none;fill-rule:nonzero;fill:#231f20;fill-opacity:1" d="m442.328 119.074-42.988 32.848c-.594.45-.707 1.3-.25 1.894l4.824 6.313a1.35 1.35 0 0 0 1.895.254l23.07-17.63-16.223 27.43a1.349 1.349 0 0 0 .09 1.508l4.563 5.97c.453.593 1.3.706 1.894.253l42.988-32.848a1.35 1.35 0 0 0 .254-1.894l-4.824-6.313a1.335 1.335 0 0 0-.894-.52 1.333 1.333 0 0 0-1 .266s-14.301 10.926-21.243 16.227l14.922-25.336a1.359 1.359 0 0 0-.09-1.508l-5.09-6.66a1.356 1.356 0 0 0-1.898-.254m.57 2.969c1.004 1.316 2.997 3.922 3.715 4.863l-17.968 30.516a1.357 1.357 0 0 0 .266 1.7 1.356 1.356 0 0 0 1.718.062s23.683-18.094 25.664-19.61c.898 1.176 2.281 2.988 3.184 4.164l-40.84 31.207a5584.23 5584.23 0 0 1-3.188-4.172c.887-1.496 19.297-32.625 19.297-32.625a1.359 1.359 0 0 0-.266-1.703 1.35 1.35 0 0 0-1.718-.062s-25.532 19.508-27.524 21.027c-.894-1.176-2.281-2.984-3.18-4.164 1.993-1.52 38.848-29.68 40.84-31.203"/><path style="stroke:none;fill-rule:nonzero;fill:#7f6d4d;fill-opacity:1" d="m441.465 196.488-4.93-10.425-11.555 3.05-3.503-7.414 53.351-13.73 4.91 10.386-44.242 33.008-3.672-7.773 9.64-7.102m6.423-4.61 19.98-14.355-23.722 6.438 3.742 7.918"/><path style="stroke:none;fill-rule:nonzero;fill:#231f20;fill-opacity:1" d="m474.492 166.66-53.351 13.73a1.345 1.345 0 0 0-.887.731c-.172.367-.168.79 0 1.156l3.508 7.414c.277.59.933.899 1.566.73 0 0 8.684-2.292 10.469-2.76.695 1.476 3.277 6.933 3.969 8.398-1.477 1.09-8.746 6.441-8.746 6.441a1.348 1.348 0 0 0-.551 1.09c0 .191.043.39.133.574l3.671 7.774a1.358 1.358 0 0 0 2.032.507l44.242-33.004a1.352 1.352 0 0 0 .414-1.66l-4.91-10.39a1.35 1.35 0 0 0-1.559-.73m-.41 2.898c.695 1.468 3.27 6.918 3.957 8.375-1.648 1.234-39.586 29.535-42.023 31.355-.778-1.637-1.93-4.086-2.496-5.273l8.746-6.438a1.354 1.354 0 0 0 .421-1.668l-4.925-10.426a1.353 1.353 0 0 0-1.57-.726s-8.68 2.293-10.465 2.762c-.551-1.165-1.582-3.348-2.329-4.918 2.926-.754 48.668-12.528 50.684-13.043"/><path style="stroke:none;fill-rule:nonzero;fill:#231f20;fill-opacity:1" d="m467.512 176.219-23.723 6.433a1.36 1.36 0 0 0-.875.743 1.34 1.34 0 0 0 .008 1.14l3.742 7.918c.172.363.496.633.883.734.39.098.805.024 1.129-.21l19.98-14.356a1.352 1.352 0 0 0-1.144-2.402m-6.504 4.566-12.594 9.047c-.71-1.508-1.648-3.488-2.355-4.988 1.836-.5 8.62-2.34 14.949-4.059"/><path style="stroke:none;fill-rule:nonzero;fill:#7f6d4d;fill-opacity:1" d="m481.996 267.79-.691-8.333c.5-.016.867-.035 1.101-.055 6.23-.515 9.172-2.886 8.82-7.113-.19-2.297-1.203-3.871-3.038-4.73a9.295 9.295 0 0 0-3.63-.817 49.774 49.774 0 0 0-4.175.188l-17.95 1.492c-3.75.308-6.398.836-7.949 1.578-2.23 1.09-3.234 2.996-3.007 5.719.355 4.304 4.046 6.168 11.078 5.586.308-.063.754-.114 1.332-.16l.691 8.332a57.17 57.17 0 0 1-2.008.222c-5.203.434-9.418-.277-12.64-2.129-3.754-2.18-5.852-5.914-6.29-11.203-.464-5.605 1.2-9.797 4.993-12.578 1.969-1.46 4.207-2.414 6.71-2.86 2.087-.382 4.598-.699 7.544-.945l15.066-1.25c5.149-.425 8.746-.394 10.8.098 3.669.86 6.38 2.754 8.13 5.684 1.222 2.015 1.953 4.39 2.18 7.125.378 4.574-.731 8.257-3.329 11.043-2.722 2.898-6.722 4.566-12.004 5.003-.418.04-.996.07-1.734.102"/><path style="stroke:none;fill-rule:nonzero;fill:#231f20;fill-opacity:1" d="m477.84 237.387-15.067 1.25c-2.976.25-5.558.57-7.675.96-2.696.481-5.145 1.528-7.274 3.11-4.172 3.055-6.035 7.691-5.531 13.773.477 5.73 2.816 9.856 6.96 12.258 3.454 1.989 7.974 2.762 13.43 2.309l2.06-.23a1.338 1.338 0 0 0 1.183-1.454l-.692-8.332a1.334 1.334 0 0 0-.468-.941 1.292 1.292 0 0 0-.993-.293l-1.476.18c-3.82.308-6.594-.168-8.094-1.442-.824-.695-1.273-1.652-1.379-2.93-.18-2.16.535-3.554 2.254-4.39 1.383-.664 3.899-1.153 7.465-1.445l17.953-1.493 4.059-.18a7.907 7.907 0 0 1 3.078.696c1.375.644 2.097 1.793 2.246 3.61.113 1.363.414 4.988-7.582 5.652l-1.043.05c-.367.02-.719.188-.957.461a1.355 1.355 0 0 0-.34 1.004l.691 8.332a1.341 1.341 0 0 0 1.41 1.243l1.786-.11c5.597-.46 9.93-2.289 12.875-5.43 2.86-3.062 4.101-7.125 3.691-12.078-.246-2.93-1.043-5.527-2.37-7.714-1.935-3.235-4.954-5.352-8.978-6.297-2.203-.532-5.875-.57-11.222-.13m-27.235 29.009c-3.375-1.957-5.21-5.274-5.617-10.137-.425-5.153 1.028-8.871 4.442-11.375 1.797-1.336 3.867-2.215 6.148-2.621 2.04-.375 4.531-.688 7.418-.93l15.067-1.25c4.984-.41 8.476-.39 10.375.066 3.335.782 5.714 2.438 7.285 5.059 1.113 1.836 1.78 4.035 1.992 6.547.047.555.066 1.098.066 1.621 0 3.445-1 6.2-3.039 8.383-2.469 2.633-6.21 4.176-11.12 4.582 0 0-.173.012-.388.023l-.468-5.648c7.968-.738 9.843-4.457 9.843-7.762 0-.262-.011-.52-.035-.773-.226-2.766-1.55-4.785-3.816-5.844a10.584 10.584 0 0 0-4.168-.945c-.027 0-4.32.191-4.32.191l-17.95 1.492c-3.949.324-6.703.883-8.418 1.703-2.746 1.34-4.047 3.778-3.773 7.051.164 2 .945 3.606 2.324 4.774 2.098 1.773 5.434 2.445 10.2 2.05.132 1.57.343 4.133.468 5.625-.297.036-.66.075-.66.075-4.902.406-8.89-.25-11.856-1.957"/><path style="stroke:none;fill-rule:nonzero;fill:#7f6d4d;fill-opacity:1" d="m498.176 291.262-46.09-4.664-1.68 16.566-7.734-.781 2.52-24.899 53.824 5.45-.84 8.328"/><path style="stroke:none;fill-rule:nonzero;fill:#231f20;fill-opacity:1" d="M444.336 276.438a1.368 1.368 0 0 0-.492.914l-2.52 24.894a1.351 1.351 0 0 0 1.211 1.48l7.738.786c.356.035.711-.075.993-.301.273-.227.453-.555.488-.91l1.543-15.223c2.535.258 44.738 4.527 44.738 4.527a1.355 1.355 0 0 0 1.485-1.21l.843-8.325a1.357 1.357 0 0 0-1.21-1.484l-53.825-5.445c-.36-.036-.715.07-.992.296m2.062 2.532c2.497.25 48.645 4.922 51.137 5.176-.156 1.527-.418 4.105-.57 5.632l-44.742-4.527a1.355 1.355 0 0 0-1.485 1.21s-1.308 12.95-1.539 15.224c-1.449-.149-3.597-.368-5.047-.512.23-2.27 2.02-19.934 2.246-22.203"/><path style="stroke:none;fill-rule:nonzero;fill:#7f6d4d;fill-opacity:1" d="m487.793 341.957-2.402 8.02-35.121-10.524c-4.168-1.25-7.153-2.547-8.954-3.883-4.843-3.601-6.3-8.61-4.378-15.027 1.433-4.777 4.054-7.875 7.867-9.293a13.447 13.447 0 0 1 6.785-.734c2.09.296 4.383.816 6.883 1.566l35.12 10.523-2.402 8.016-36.41-10.91c-2.922-.875-5.14-1.125-6.652-.746-1.809.45-3.027 1.73-3.66 3.836-.63 2.101-.313 3.844.949 5.215 1.031 1.136 3.02 2.148 5.965 3.03l36.41 10.911"/><path style="stroke:none;fill-rule:nonzero;fill:#231f20;fill-opacity:1" d="M444.328 309.984c-4.21 1.567-7.133 4.989-8.683 10.168-2.098 6.993-.457 12.547 4.863 16.504 1.949 1.446 5.015 2.785 9.375 4.09l35.12 10.524a1.352 1.352 0 0 0 1.685-.907l2.402-8.015a1.355 1.355 0 0 0-.906-1.688l-36.41-10.906c-3.356-1.008-4.766-1.992-5.352-2.645-.945-1.027-1.152-2.27-.656-3.921.496-1.653 1.351-2.579 2.691-2.915.871-.214 2.606-.265 5.934.735l36.41 10.91a1.35 1.35 0 0 0 1.683-.906l2.403-8.016a1.338 1.338 0 0 0-.106-1.031 1.34 1.34 0 0 0-.8-.656l-35.122-10.524c-2.55-.765-4.933-1.305-7.082-1.61a14.871 14.871 0 0 0-7.449.81m6.332 28.171c-3.996-1.199-6.87-2.433-8.539-3.672-3.11-2.312-4.648-5.218-4.648-8.816 0-1.465.254-3.04.761-4.738 1.317-4.387 3.618-7.14 7.04-8.414a12.215 12.215 0 0 1 6.12-.66c2.02.285 4.266.796 6.692 1.523l33.82 10.133a1800.49 1800.49 0 0 1-1.625 5.425l-35.113-10.523c-3.188-.953-5.598-1.203-7.367-.766-1.578.399-3.66 1.543-4.63 4.762a8.225 8.225 0 0 0-.366 2.356c0 1.93.808 3.289 1.617 4.168 1.203 1.328 3.355 2.445 6.574 3.41l35.113 10.523c-.441 1.469-1.183 3.953-1.625 5.422-2.406-.719-33.824-10.133-33.824-10.133"/><path style="stroke:none;fill-rule:nonzero;fill:#7f6d4d;fill-opacity:1" d="m430.703 341.316 47.512 25.88-5.973 10.968c-2.273 4.172-5.02 6.941-8.23 8.316-3.602 1.524-7.407 1.192-11.422-.996-3.137-1.707-5.172-3.988-6.117-6.84-.645-1.855-.692-4.085-.145-6.695-2.066 2.082-4 3.45-5.793 4.09-3.207 1.137-6.71.668-10.515-1.402-4.223-2.301-6.856-5.45-7.899-9.442-.95-3.672-.25-7.66 2.098-11.968l6.484-11.91m2.828 11.07-2.008 3.687c-1.332 2.446-1.714 4.602-1.14 6.465.582 1.902 1.851 3.39 3.812 4.457 2.22 1.207 4.45 1.512 6.696.91 2.363-.601 4.273-2.238 5.73-4.914l1.461-2.68-14.55-7.925m21.378 11.644-1.46 2.68c-1.243 2.285-1.602 4.426-1.071 6.422.52 1.96 1.762 3.472 3.723 4.543 1.8.984 3.574 1.168 5.312.558 1.582-.543 3.063-2.074 4.434-4.59l1.535-2.82-12.473-6.793"/><path style="stroke:none;fill-rule:nonzero;fill:#231f20;fill-opacity:1" d="m429.52 340.672-6.489 11.906c-2.508 4.598-3.254 8.957-2.222 12.957 1.14 4.356 4.02 7.813 8.562 10.29 4.14 2.253 8.05 2.753 11.617 1.491 1.176-.421 2.387-1.175 3.625-2.113 0 .031-.011.07-.011.106 0 1.378.199 2.64.593 3.78 1.043 3.157 3.317 5.716 6.746 7.587 4.375 2.379 8.614 2.734 12.594 1.05 3.492-1.492 6.485-4.492 8.895-8.913l5.972-10.97a1.351 1.351 0 0 0-.543-1.831l-47.507-25.883a1.351 1.351 0 0 0-1.832.543m1.144 32.777c-3.914-2.133-6.281-4.945-7.234-8.594a11.434 11.434 0 0 1-.364-2.882c0-2.532.782-5.243 2.34-8.102l5.84-10.719c2.2 1.2 42.934 23.387 45.133 24.586-1.027 1.89-5.328 9.782-5.328 9.782-2.11 3.875-4.656 6.468-7.574 7.714-3.223 1.368-6.575 1.063-10.243-.937-2.843-1.55-4.636-3.54-5.476-6.078-.567-1.625-.602-3.637-.106-5.992a1.35 1.35 0 0 0-2.28-1.23c-1.919 1.929-3.7 3.198-5.294 3.773-2.848 1.007-5.93.578-9.414-1.32"/><path style="stroke:none;fill-rule:nonzero;fill:#231f20;fill-opacity:1" d="M433.148 351.09a1.36 1.36 0 0 0-.804.648l-2.008 3.692c-1.508 2.761-1.926 5.289-1.246 7.507.683 2.243 2.183 4.008 4.46 5.247 2.52 1.375 5.11 1.718 7.692 1.027 2.711-.688 4.93-2.566 6.567-5.57l1.46-2.68a1.352 1.352 0 0 0-.543-1.836l-14.546-7.926a1.356 1.356 0 0 0-1.032-.11m1.696 14.72c-1.656-.903-2.692-2.098-3.168-3.664a4.514 4.514 0 0 1-.196-1.356c0-1.2.41-2.562 1.23-4.066l1.36-2.5c1.828.992 10.352 5.636 12.176 6.632-.398.735-.812 1.489-.812 1.489-1.282 2.351-2.875 3.742-4.875 4.25-1.934.52-3.797.258-5.715-.785m19.683-3.075a1.352 1.352 0 0 0-.804.653l-1.461 2.675c-1.41 2.594-1.809 5.086-1.192 7.418.618 2.325 2.094 4.137 4.383 5.383 2.145 1.168 4.3 1.387 6.406.649 1.926-.66 3.621-2.371 5.176-5.223l1.535-2.816a1.351 1.351 0 0 0-.543-1.832l-12.468-6.797a1.356 1.356 0 0 0-1.032-.11m2.223 13.754c-1.637-.89-2.64-2.101-3.063-3.703a5.764 5.764 0 0 1-.195-1.488c0-1.23.38-2.531 1.149-3.938 0 0 .41-.754.808-1.492 1.742.95 8.36 4.551 10.098 5.5-.434.793-.887 1.63-.887 1.63-1.2 2.198-2.437 3.53-3.687 3.96-1.38.484-2.758.328-4.223-.469"/><path style="stroke:none;fill-rule:nonzero;fill:#7f6d4d;fill-opacity:1" d="m119.273 95.266-4.394 3.832-3.836-11.836 6.312-5.746 1.918 13.75"/><path style="stroke:none;fill-rule:nonzero;fill:#231f20;fill-opacity:1" d="m116.445 80.516-6.312 5.746c-.39.355-.54.914-.375 1.418l3.832 11.832a1.358 1.358 0 0 0 2.176.605l4.394-3.832c.344-.3.516-.758.45-1.207l-1.915-13.75a1.338 1.338 0 0 0-.879-1.086c-.472-.172-1-.066-1.37.274m-.075 3.726c.442 3.156 1.317 9.438 1.461 10.485-.508.437-1.254 1.09-2.3 2.003-.805-2.492-2.552-7.875-2.934-9.054.691-.633 2.187-1.992 3.773-3.434"/><path style="stroke:none;fill-rule:nonzero;fill:#7f6d4d;fill-opacity:1" d="M148.21 302.867v-43.262h10.392c3.964 0 7.093.864 9.382 2.598 2.555 1.942 3.836 4.742 3.836 8.399 0 2.851-.863 5.152-2.582 6.906-1.101 1.164-2.722 2.05-4.86 2.66 2.364.656 4.142 1.492 5.337 2.504 2.12 1.82 3.18 4.46 3.18 7.926 0 3.847-1.258 6.902-3.774 9.164-2.316 2.07-5.523 3.105-9.629 3.105h-11.281m6.957-25.687h2.543c2.176 0 3.887-.567 5.14-1.707 1.227-1.118 1.844-2.567 1.844-4.36 0-1.64-.57-2.957-1.715-3.949-1.03-.902-2.746-1.355-5.136-1.355h-2.676v11.37m0 19.485h3.5c2.348 0 4.102-.559 5.258-1.676 1.176-1.14 1.762-2.601 1.762-4.394 0-2.024-.676-3.711-2.028-5.063-1.394-1.43-3.379-2.148-5.95-2.148h-2.542v13.281"/><path style="stroke:none;fill-rule:nonzero;fill:#231f20;fill-opacity:1" d="M148.21 258.25c-.75 0-1.355.605-1.355 1.355v43.262c0 .746.606 1.352 1.356 1.352h11.281c4.43 0 7.973-1.16 10.531-3.45 2.805-2.523 4.223-5.945 4.223-10.171 0-3.86-1.226-6.871-3.652-8.953-.692-.586-1.531-1.106-2.528-1.575.829-.48 1.567-1.011 2.153-1.632 1.953-1.993 2.953-4.633 2.953-7.836 0-4.086-1.469-7.274-4.367-9.477-2.524-1.906-5.957-2.875-10.203-2.875H148.21m10.39 2.707c3.645 0 6.528.781 8.57 2.324 2.216 1.688 3.294 4.078 3.294 7.32 0 2.504-.715 4.454-2.192 5.962-.945.992-2.375 1.765-4.27 2.304-.577.168-.98.7-.98 1.301v.008c.004.605.41 1.137.993 1.297 2.164.601 3.789 1.351 4.824 2.23 1.816 1.559 2.703 3.817 2.703 6.895 0 3.476-1.086 6.144-3.324 8.156-2.047 1.832-4.985 2.762-8.727 2.762h-9.93v-40.559h9.04"/><path style="stroke:none;fill-rule:nonzero;fill:#231f20;fill-opacity:1" d="M155.168 264.453c-.746 0-1.352.606-1.352 1.356v11.37c0 .747.606 1.352 1.352 1.352h2.543c2.512 0 4.547-.691 6.05-2.054 1.516-1.38 2.286-3.184 2.286-5.364 0-2.043-.734-3.715-2.18-4.968-1.297-1.137-3.265-1.692-6.023-1.692h-2.676m2.676 2.707c2.011 0 3.48.356 4.246 1.024.847.73 1.254 1.687 1.254 2.93 0 1.406-.457 2.503-1.403 3.359-1.004.91-2.386 1.355-4.23 1.355h-1.191v-8.668h1.324m-2.676 14.871c-.746 0-1.352.606-1.352 1.352v13.281c0 .746.606 1.352 1.352 1.352h3.5c2.703 0 4.789-.692 6.2-2.059 1.44-1.394 2.171-3.203 2.171-5.363 0-2.387-.812-4.41-2.422-6.02-1.64-1.683-3.969-2.543-6.906-2.543h-2.543m2.543 2.703c2.21 0 3.84.57 4.98 1.743 1.114 1.109 1.645 2.453 1.645 4.117 0 1.422-.441 2.539-1.352 3.422-.886.859-2.34 1.296-4.316 1.296h-2.148v-10.578h1.19"/><path style="stroke:none;fill-rule:nonzero;fill:#7f6d4d;fill-opacity:1" d="M187.45 285.371v17.496h-6.958v-43.262h11.547c4.316 0 7.48.93 9.488 2.79 2.38 2.203 3.57 5.566 3.57 10.093 0 4.528-1.19 7.89-3.57 10.09-1.28 1.207-2.812 1.988-4.597 2.348-1.477.297-3.106.445-4.89.445h-4.59m0-6.203h3.038c2.606 0 4.434-.39 5.48-1.172 1.337-.95 2.005-2.785 2.005-5.508 0-2.722-.668-4.558-2.004-5.508-1.047-.78-2.875-1.171-5.48-1.171h-3.04v13.359"/><path style="stroke:none;fill-rule:nonzero;fill:#231f20;fill-opacity:1" d="M180.492 258.25c-.746 0-1.351.605-1.351 1.355v43.262c0 .746.605 1.352 1.351 1.352h6.957c.75 0 1.356-.606 1.356-1.352v-16.144h3.234c1.867 0 3.602-.157 5.16-.47 2.028-.41 3.793-1.315 5.254-2.69 2.649-2.446 3.996-6.176 3.996-11.075 0-4.898-1.347-8.629-4.004-11.086-2.254-2.09-5.754-3.152-10.406-3.152h-11.547m11.547 2.707c3.945 0 6.828.816 8.566 2.43 2.083 1.925 3.137 4.988 3.137 9.101 0 4.114-1.054 7.172-3.133 9.098-1.113 1.047-2.398 1.703-3.945 2.016-1.379.277-2.934.418-4.625.418h-4.59c-.746 0-1.351.605-1.351 1.351v16.145h-4.254v-40.559h10.195"/><path style="stroke:none;fill-rule:nonzero;fill:#231f20;fill-opacity:1" d="M187.45 264.453c-.747 0-1.352.606-1.352 1.356v13.359c0 .746.605 1.352 1.351 1.352h3.04c2.933 0 4.991-.47 6.288-1.442 1.68-1.191 2.547-3.418 2.547-6.59 0-3.175-.863-5.398-2.574-6.613-1.273-.95-3.332-1.422-6.262-1.422h-3.039m3.04 2.707c2.859 0 4.116.492 4.671.902.977.696 1.457 2.18 1.457 4.426s-.48 3.727-1.433 4.407c-.579.43-1.836.921-4.696.921h-1.683V267.16h1.683"/><path style="stroke:none;fill-rule:nonzero;fill:#7f6d4d;fill-opacity:1" d="M231.816 259.605v6.204h-13.5v11.37h9.938v6.204h-9.938v13.281h13.5v6.203h-20.46v-43.262h20.46"/><path style="stroke:none;fill-rule:nonzero;fill:#231f20;fill-opacity:1" d="M211.355 258.25c-.746 0-1.351.605-1.351 1.355v43.262c0 .746.605 1.352 1.351 1.352h20.461c.75 0 1.356-.606 1.356-1.352v-6.203c0-.746-.606-1.351-1.356-1.351h-12.148v-10.579h8.586c.75 0 1.355-.605 1.355-1.351v-6.203c0-.746-.605-1.352-1.355-1.352h-8.586v-8.668h12.148c.75 0 1.356-.605 1.356-1.351v-6.204c0-.75-.606-1.355-1.356-1.355h-20.46m19.109 2.707v3.496h-12.149a1.35 1.35 0 0 0-1.351 1.356v11.37a1.35 1.35 0 0 0 1.351 1.352h8.586v3.5h-8.586a1.35 1.35 0 0 0-1.351 1.352v13.281a1.35 1.35 0 0 0 1.351 1.352h12.149v3.5H212.71v-40.559h17.754"/><path style="stroke:none;fill-rule:nonzero;fill:#7f6d4d;fill-opacity:1" d="m261.734 269.8-6.668 1.903c-1.082-4.3-3.093-6.453-6.03-6.453-1.263 0-2.321.402-3.18 1.203-.91.848-1.36 1.914-1.36 3.203 0 1.586.625 3.031 1.887 4.34.816.848 2.816 2.434 6 4.758 3.246 2.406 5.5 4.34 6.758 5.797 1.945 2.262 2.918 4.914 2.918 7.957 0 3.187-1.118 5.808-3.34 7.86-2.27 2.089-5.278 3.136-9.02 3.136-7.707 0-12.277-4.055-13.71-12.164l6.667-1.871c.934 5.168 3.293 7.75 7.086 7.75 1.598 0 2.863-.461 3.793-1.395.93-.906 1.399-2.09 1.399-3.547 0-1.523-.586-2.918-1.758-4.183-.973-1.078-2.63-2.492-4.973-4.246-3.398-2.536-5.445-4.121-6.129-4.754-3.137-2.895-4.703-6.055-4.703-9.477 0-3.402 1.262-6.097 3.79-8.082 2.132-1.71 4.78-2.566 7.944-2.566 6.485 0 10.696 3.61 12.63 10.832"/><path style="stroke:none;fill-rule:nonzero;fill:#231f20;fill-opacity:1" d="M240.313 260.48c-2.844 2.239-4.293 5.313-4.293 9.137 0 3.801 1.726 7.324 5.136 10.469.723.668 2.766 2.254 6.242 4.844 2.258 1.695 3.868 3.062 4.774 4.07.95 1.031 1.406 2.098 1.406 3.277 0 1.086-.32 1.934-.988 2.582-.684.68-1.613 1.008-2.848 1.008-1.957 0-4.68-.687-5.754-6.637a1.352 1.352 0 0 0-1.695-1.063l-6.668 1.868a1.356 1.356 0 0 0-.969 1.54c1.559 8.812 6.617 13.28 15.043 13.28 4.078 0 7.422-1.175 9.938-3.496 2.504-2.304 3.773-5.285 3.773-8.851 0-3.363-1.094-6.336-3.246-8.84-1.336-1.55-3.617-3.512-6.976-6.004-3.875-2.828-5.31-4.066-5.833-4.605-1.015-1.055-1.507-2.168-1.507-3.403 0-.918.293-1.62.925-2.21.61-.567 1.348-.84 2.262-.84.828 0 3.352 0 4.723 5.43a1.349 1.349 0 0 0 1.68.969l6.667-1.903a1.354 1.354 0 0 0 .938-1.653c-2.106-7.851-6.793-11.836-13.938-11.836-3.464 0-6.421.965-8.792 2.867m14.18 36.305c1.183-1.156 1.792-2.68 1.792-4.508 0-1.867-.71-3.582-2.117-5.101-1.027-1.14-2.715-2.586-5.152-4.41-3.356-2.5-5.38-4.07-6.02-4.664-2.879-2.653-4.273-5.426-4.273-8.485 0-2.992 1.07-5.289 3.273-7.02 1.914-1.534 4.238-2.277 7.11-2.277 5.449 0 9.011 2.832 10.914 8.567-1.31.37-2.813.8-4.06 1.156-1.67-4.996-4.632-6.145-6.925-6.145-1.605 0-2.988.528-4.101 1.567-1.192 1.105-1.793 2.515-1.793 4.191 0 1.938.761 3.715 2.265 5.278.883.914 2.906 2.52 6.18 4.91 3.14 2.332 5.344 4.215 6.531 5.59 1.738 2.027 2.586 4.34 2.586 7.074 0 2.816-.95 5.062-2.898 6.863-2.032 1.871-4.68 2.781-8.106 2.781-6.617 0-10.562-3.257-12.094-9.859 1.243-.352 2.766-.777 4.075-1.145 1.566 6.04 5.175 7.426 8.062 7.426 1.961 0 3.559-.605 4.75-1.789"/><path style="stroke:none;fill-rule:nonzero;fill:#7f6d4d;fill-opacity:1" d="M282.508 265.809v37.058h-6.961V265.81h-8.695v-6.204h24.437v6.204h-8.781"/><path style="stroke:none;fill-rule:nonzero;fill:#231f20;fill-opacity:1" d="M266.852 258.25c-.75 0-1.356.605-1.356 1.355v6.204c0 .746.606 1.351 1.356 1.351h7.343v35.707c0 .746.606 1.352 1.352 1.352h6.96c.747 0 1.352-.606 1.352-1.352V267.16h7.43c.746 0 1.352-.605 1.352-1.351v-6.204c0-.75-.606-1.355-1.352-1.355h-24.437m23.086 2.707v3.496h-7.43c-.746 0-1.356.606-1.356 1.356v35.707h-4.254v-35.707a1.35 1.35 0 0 0-1.351-1.356h-7.344v-3.496h21.735"/><path style="stroke:none;fill-rule:nonzero;fill:#7f6d4d;fill-opacity:1" d="M315.395 259.605v43.262h-6.957v-43.262h6.957"/><path style="stroke:none;fill-rule:nonzero;fill:#231f20;fill-opacity:1" d="M308.438 258.25c-.747 0-1.352.605-1.352 1.355v43.262c0 .746.605 1.352 1.351 1.352h6.958a1.35 1.35 0 0 0 1.351-1.352v-43.262a1.35 1.35 0 0 0-1.351-1.355h-6.957m5.605 2.707v40.559h-4.254v-40.559h4.254"/><path style="stroke:none;fill-rule:nonzero;fill:#7f6d4d;fill-opacity:1" d="m339.355 280.3 10.532 22.567h-7.723l-6.867-15.719-6.402 15.72h-7.625l10.035-22.567-9.64-20.696h7.69l6.008 13.88 5.61-13.88h7.629l-9.247 20.696"/><path style="stroke:none;fill-rule:nonzero;fill:#231f20;fill-opacity:1" d="M340.973 258.25c-.551 0-1.047.336-1.25.848 0 0-2.914 7.199-4.403 10.882l-4.722-10.914a1.354 1.354 0 0 0-1.243-.816h-7.69c-.462 0-.892.238-1.142.625a1.367 1.367 0 0 0-.086 1.3s8.887 19.083 9.38 20.137c-.473 1.07-9.782 22.004-9.782 22.004a1.358 1.358 0 0 0 .102 1.29c.246.382.675.613 1.133.613h7.625a1.36 1.36 0 0 0 1.253-.84l5.192-12.754c1.695 3.887 5.582 12.785 5.582 12.785.215.492.703.809 1.242.809h7.723a1.353 1.353 0 0 0 1.226-1.922l-10.27-22.008 8.993-20.133a1.358 1.358 0 0 0-1.234-1.906h-7.63m5.544 2.707-8.395 18.793a1.423 1.423 0 0 0-.117.55c0 .196.043.391.129.571 0 0 8.129 17.426 9.629 20.645h-4.715c-.637-1.461-6.512-14.91-6.512-14.91-.215-.5-.71-.82-1.254-.813a1.352 1.352 0 0 0-1.234.844s-5.45 13.37-6.063 14.879h-4.632c1.418-3.192 9.187-20.664 9.187-20.664a1.355 1.355 0 0 0-.008-1.122s-7.27-15.609-8.742-18.773h4.68l5.652 13.066c.219.5.715.82 1.258.817a1.361 1.361 0 0 0 1.238-.848s4.668-11.543 5.27-13.035h4.629"/><path style="stroke:none;fill-rule:nonzero;fill:#7f6d4d;fill-opacity:1" d="M374.453 259.605v17.907l10.067-17.907h7.492l-9.54 15.72 10.895 27.542h-7.625l-7.594-20.41-3.695 6.055v14.355h-6.96v-43.262h6.96"/><path style="stroke:none;fill-rule:nonzero;fill:#231f20;fill-opacity:1" d="M384.52 258.25c-.489 0-.942.266-1.18.691 0 0-4.7 8.36-7.535 13.407v-12.743c0-.75-.606-1.355-1.352-1.355h-6.96c-.747 0-1.352.605-1.352 1.355v43.262c0 .746.605 1.352 1.351 1.352h6.961c.746 0 1.352-.606 1.352-1.352v-13.976l2.047-3.356c1.476 3.973 6.62 17.805 6.62 17.805.2.527.704.879 1.27.879h7.625c.445 0 .867-.223 1.117-.59a1.346 1.346 0 0 0 .137-1.258s-10.172-25.726-10.64-26.918c.644-1.066 9.187-15.148 9.187-15.148.133-.215.195-.457.195-.7a1.355 1.355 0 0 0-1.352-1.355h-7.491m5.09 2.707c-1.883 3.106-8.294 13.664-8.294 13.664a1.364 1.364 0 0 0-.101 1.2l10.164 25.695h-4.7c-.597-1.614-7.265-19.532-7.265-19.532a1.353 1.353 0 0 0-1.137-.875c-.515-.05-1.011.2-1.28.641l-3.7 6.055a1.367 1.367 0 0 0-.195.707v13.004h-4.254v-40.559h4.254v16.555c0 .613.414 1.152 1.007 1.308a1.358 1.358 0 0 0 1.524-.644s8.96-15.946 9.68-17.219h4.296"/><path style="stroke:none;fill-rule:nonzero;fill:#7f6d4d;fill-opacity:1" d="M302.02 280.898a4.054 4.054 0 0 1-4.06 4.055 4.057 4.057 0 1 1 0-8.113 4.058 4.058 0 0 1 4.06 4.058"/><path style="stroke:none;fill-rule:nonzero;fill:#231f20;fill-opacity:1" d="M292.55 280.898c0 2.985 2.43 5.41 5.41 5.41a5.415 5.415 0 0 0 5.411-5.41 5.415 5.415 0 0 0-5.41-5.41 5.417 5.417 0 0 0-5.41 5.41m2.707 0a2.707 2.707 0 0 1 2.703-2.707 2.71 2.71 0 0 1 2.707 2.707 2.704 2.704 0 0 1-5.41 0"/><path style="stroke:none;fill-rule:nonzero;fill:#7f6d4d;fill-opacity:1" d="M359.527 280.898a4.054 4.054 0 0 1-4.058 4.055 4.057 4.057 0 1 1 4.059-4.055"/><path style="stroke:none;fill-rule:nonzero;fill:#231f20;fill-opacity:1" d="M350.063 280.898a5.414 5.414 0 0 0 5.406 5.41 5.418 5.418 0 0 0 5.414-5.41c0-2.984-2.43-5.41-5.414-5.41a5.414 5.414 0 0 0-5.406 5.41m2.703 0a2.71 2.71 0 0 1 2.703-2.707 2.71 2.71 0 0 1 2.707 2.707 2.707 2.707 0 0 1-2.707 2.704 2.707 2.707 0 0 1-2.703-2.704"/></svg>