<?xml version="1.0" encoding="UTF-8"?>
<svg xmlns="http://www.w3.org/2000/svg" xmlns:xlink="http://www.w3.org/1999/xlink" width="84.13pt" height="132.22pt" viewBox="0 0 84.13 132.22" version="1.1">
<defs>
<clipPath id="clip1">
  <path d="M 0 0 L 84.128906 0 L 84.128906 132.21875 L 0 132.21875 Z M 0 0 "/>
</clipPath>
</defs>
<g id="surface1">
<path style=" stroke:none;fill-rule:nonzero;fill:rgb(100%,100%,100%);fill-opacity:1;" d="M 42.0625 6.421875 C -11.507813 28.820313 -11.394531 103.449219 42.0625 125.800781 C 95.636719 103.402344 95.519531 28.773438 42.0625 6.421875 "/>
<g clip-path="url(#clip1)" clip-rule="nonzero">
<path style=" stroke:none;fill-rule:nonzero;fill:rgb(12.199402%,12.5%,11.399841%);fill-opacity:1;" d="M 42.0625 6.421875 C -11.507813 28.820313 -11.394531 103.449219 42.0625 125.800781 C 95.636719 103.402344 95.519531 28.773438 42.0625 6.421875 M 42.0625 0.00390625 C 98.191406 25.882813 98.109375 106.375 42.0625 132.21875 C -13.980469 106.375 -14.058594 25.882813 42.0625 0.00390625 "/>
</g>
<path style=" stroke:none;fill-rule:nonzero;fill:rgb(12.199402%,12.5%,11.399841%);fill-opacity:1;" d="M 74.460938 86.722656 C 70.242188 100.636719 59.585938 110.527344 42.0625 117.75 C 27.441406 111.722656 14.414063 102.390625 9.632813 86.613281 C 31.78125 93.246094 53.003906 93.941406 74.460938 86.722656 "/>
<path style=" stroke:none;fill-rule:nonzero;fill:rgb(92.199707%,42.698669%,17.298889%);fill-opacity:1;" d="M 71.582031 39.675781 C 76.125 49.71875 78.316406 59.011719 78.160156 67.550781 C 58.59375 76.097656 25.5 76.082031 5.96875 67.550781 C 5.8125 59.011719 8.003906 49.71875 12.546875 39.675781 C 12.722656 55.65625 25.871094 68.5625 42.066406 68.5625 C 58.257813 68.5625 71.40625 55.65625 71.582031 39.675781 "/>
<path style=" stroke:none;fill-rule:nonzero;fill:rgb(12.199402%,12.5%,11.399841%);fill-opacity:1;" d="M 42.066406 15.027344 C 59.382813 24.683594 62.621094 50.457031 46.175781 62.292969 C 53.375 47.105469 52.003906 34.636719 42.066406 24.898438 C 32.125 34.636719 30.753906 47.105469 37.953125 62.292969 C 21.507813 50.457031 24.746094 24.683594 42.066406 15.027344 "/>
<path style=" stroke:none;fill-rule:nonzero;fill:rgb(92.199707%,42.698669%,17.298889%);fill-opacity:1;" d="M 42.066406 65.222656 C 50.386719 53.402344 49.621094 36.976563 42.066406 28.847656 C 34.503906 36.976563 33.742188 53.402344 42.066406 65.222656 M 41.671875 65.78125 C 28.15625 65.570313 17.257813 54.546875 17.257813 40.980469 C 17.257813 29.96875 24.4375 20.632813 34.367188 17.390625 C 28.375 22.066406 24.390625 30.355469 24.390625 39.804688 C 24.390625 52.71875 31.835938 63.472656 41.671875 65.78125 M 42.457031 65.78125 C 55.972656 65.570313 66.871094 54.546875 66.871094 40.980469 C 66.871094 29.96875 59.691406 20.632813 49.761719 17.390625 C 55.753906 22.066406 59.738281 30.355469 59.738281 39.804688 C 59.738281 52.71875 52.292969 63.472656 42.457031 65.78125 "/>
<path style=" stroke:none;fill-rule:nonzero;fill:rgb(100%,100%,100%);fill-opacity:1;" d="M 48.160156 99.453125 C 48.160156 99.097656 48.09375 98.828125 47.960938 98.636719 C 47.839844 98.457031 47.671875 98.367188 47.460938 98.367188 C 47.191406 98.367188 47.011719 98.488281 46.917969 98.722656 C 46.878906 98.832031 46.855469 98.984375 46.855469 99.179688 C 46.855469 99.683594 46.953125 100.039063 47.140625 100.246094 C 47.25 100.367188 47.386719 100.425781 47.546875 100.425781 C 47.957031 100.425781 48.160156 100.101563 48.160156 99.453125 M 48.988281 99.074219 C 48.988281 99.734375 48.753906 100.226563 48.285156 100.558594 C 48.066406 100.710938 47.792969 100.789063 47.460938 100.789063 C 46.992188 100.789063 46.632813 100.617188 46.367188 100.277344 C 46.09375 99.933594 45.960938 99.449219 45.960938 98.824219 C 45.960938 98.222656 46.070313 97.71875 46.289063 97.320313 C 46.519531 96.898438 46.820313 96.566406 47.195313 96.320313 C 47.578125 96.066406 48.011719 95.9375 48.480469 95.9375 L 48.753906 96.160156 L 48.644531 96.277344 C 48.5625 96.265625 48.488281 96.257813 48.414063 96.257813 C 48.058594 96.257813 47.75 96.386719 47.484375 96.644531 C 47.367188 96.761719 47.261719 96.910156 47.171875 97.089844 C 47.027344 97.386719 46.929688 97.792969 46.878906 98.316406 C 47.183594 98.027344 47.371094 97.871094 47.429688 97.847656 C 47.578125 97.785156 47.75 97.753906 47.941406 97.753906 C 48.238281 97.753906 48.480469 97.863281 48.675781 98.082031 C 48.882813 98.320313 48.988281 98.652344 48.988281 99.074219 M 45.390625 99.042969 C 45.390625 99.53125 45.1875 99.941406 44.78125 100.28125 C 44.375 100.617188 43.898438 100.789063 43.351563 100.789063 C 43.058594 100.789063 42.78125 100.722656 42.515625 100.597656 C 42.472656 100.199219 42.414063 99.863281 42.347656 99.589844 L 42.367188 99.539063 L 42.539063 99.488281 L 42.582031 99.503906 C 42.808594 100.082031 43.171875 100.375 43.671875 100.375 C 43.929688 100.375 44.136719 100.289063 44.292969 100.121094 C 44.449219 99.953125 44.527344 99.722656 44.527344 99.429688 C 44.527344 99.140625 44.445313 98.914063 44.269531 98.757813 C 44.109375 98.605469 43.890625 98.53125 43.613281 98.53125 C 43.488281 98.53125 43.351563 98.550781 43.207031 98.59375 L 43.164063 98.546875 C 43.21875 98.386719 43.261719 98.210938 43.296875 98.023438 L 43.578125 98.023438 C 43.78125 98.023438 43.957031 97.953125 44.105469 97.804688 C 44.257813 97.660156 44.332031 97.488281 44.332031 97.289063 C 44.332031 97.097656 44.265625 96.941406 44.132813 96.824219 C 44 96.703125 43.835938 96.644531 43.640625 96.644531 C 43.328125 96.644531 43.117188 96.726563 43.003906 96.886719 C 42.949219 96.960938 42.902344 97.070313 42.851563 97.210938 L 42.816406 97.324219 L 42.765625 97.355469 L 42.59375 97.34375 L 42.554688 97.296875 L 42.675781 96.738281 C 42.710938 96.578125 42.738281 96.425781 42.753906 96.273438 C 43.050781 96.050781 43.425781 95.9375 43.875 95.9375 C 44.257813 95.9375 44.5625 96.03125 44.789063 96.21875 C 45.007813 96.402344 45.113281 96.640625 45.113281 96.9375 C 45.113281 97.363281 44.859375 97.707031 44.347656 97.972656 C 44.605469 97.972656 44.839844 98.0625 45.046875 98.234375 C 45.277344 98.425781 45.390625 98.695313 45.390625 99.042969 M 41.007813 97.542969 C 41.007813 97.121094 40.941406 96.808594 40.820313 96.605469 C 40.695313 96.398438 40.527344 96.300781 40.316406 96.300781 C 40.050781 96.300781 39.871094 96.441406 39.78125 96.726563 C 39.726563 96.882813 39.703125 97.0625 39.703125 97.269531 C 39.703125 97.625 39.769531 97.898438 39.898438 98.089844 C 40.023438 98.265625 40.191406 98.355469 40.402344 98.355469 C 40.671875 98.355469 40.851563 98.234375 40.941406 97.996094 C 40.984375 97.886719 41.007813 97.734375 41.007813 97.542969 M 41.902344 97.898438 C 41.902344 98.507813 41.792969 99.007813 41.574219 99.40625 C 41.34375 99.824219 41.042969 100.15625 40.664063 100.40625 C 40.277344 100.660156 39.847656 100.789063 39.382813 100.789063 L 39.113281 100.5625 L 39.195313 100.429688 C 39.265625 100.453125 39.347656 100.46875 39.449219 100.46875 C 39.804688 100.46875 40.117188 100.335938 40.386719 100.070313 C 40.492188 99.964844 40.59375 99.820313 40.683594 99.644531 C 40.832031 99.359375 40.933594 98.949219 40.988281 98.410156 C 40.648438 98.722656 40.457031 98.882813 40.417969 98.886719 C 40.265625 98.941406 40.101563 98.96875 39.929688 98.96875 C 39.625 98.96875 39.375 98.859375 39.183594 98.632813 C 38.976563 98.394531 38.875 98.066406 38.875 97.648438 C 38.875 96.980469 39.113281 96.484375 39.578125 96.164063 C 39.800781 96.011719 40.074219 95.9375 40.402344 95.9375 C 41.015625 95.9375 41.449219 96.222656 41.707031 96.792969 C 41.835938 97.074219 41.902344 97.441406 41.902344 97.898438 M 38.347656 100.625 L 38.308594 100.664063 C 37.988281 100.644531 37.597656 100.636719 37.136719 100.636719 C 36.683594 100.636719 36.207031 100.644531 35.707031 100.664063 L 35.671875 100.628906 L 35.671875 100.417969 L 35.710938 100.386719 C 35.828125 100.371094 35.945313 100.359375 36.050781 100.351563 C 36.25 100.335938 36.375 100.316406 36.429688 100.292969 C 36.46875 100.273438 36.5 100.230469 36.53125 100.167969 C 36.574219 100.058594 36.59375 99.621094 36.59375 98.859375 L 36.59375 98.007813 C 36.59375 97.75 36.589844 97.425781 36.582031 97.027344 L 36.574219 96.773438 C 36.574219 96.65625 36.550781 96.601563 36.5 96.601563 C 36.484375 96.601563 36.414063 96.625 36.300781 96.679688 C 35.988281 96.824219 35.71875 96.949219 35.492188 97.058594 L 35.453125 97.035156 C 35.4375 96.90625 35.414063 96.761719 35.378906 96.601563 L 35.382813 96.574219 C 36.015625 96.394531 36.722656 96.15625 37.5 95.855469 L 37.574219 95.90625 C 37.566406 96.042969 37.554688 96.242188 37.535156 96.507813 C 37.53125 96.609375 37.523438 96.878906 37.515625 97.316406 L 37.507813 98.667969 C 37.507813 99.632813 37.523438 100.152344 37.554688 100.222656 C 37.574219 100.273438 37.609375 100.308594 37.65625 100.320313 C 37.738281 100.34375 37.953125 100.363281 38.300781 100.382813 L 38.347656 100.414063 "/>
<path style=" stroke:none;fill-rule:nonzero;fill:rgb(100%,100%,100%);fill-opacity:1;" d="M 45.75 111.808594 L 42.949219 108.886719 L 44.949219 106.796875 L 46.824219 108.609375 L 47.054688 106.539063 L 46.089844 105.605469 L 46.359375 105.324219 C 46.570313 105.105469 46.558594 104.757813 46.34375 104.550781 L 46.210938 104.421875 C 45.992188 104.214844 45.644531 104.222656 45.4375 104.4375 L 45.171875 104.714844 L 43.707031 103.296875 L 42.558594 104.480469 L 44.03125 105.90625 L 42.0625 107.960938 L 40.097656 105.910156 L 41.570313 104.480469 L 40.421875 103.296875 L 38.957031 104.714844 L 38.691406 104.4375 C 38.480469 104.222656 38.132813 104.214844 37.917969 104.421875 L 37.785156 104.550781 C 37.566406 104.757813 37.558594 105.105469 37.765625 105.324219 L 38.035156 105.605469 L 36.582031 107.015625 L 37.730469 108.199219 L 39.175781 106.796875 L 41.175781 108.886719 L 38.375 111.808594 C 38.167969 112.027344 38.175781 112.375 38.394531 112.582031 L 38.527344 112.710938 C 38.742188 112.921875 39.089844 112.914063 39.300781 112.695313 L 42.0625 109.808594 L 44.828125 112.695313 C 45.035156 112.914063 45.382813 112.921875 45.601563 112.710938 L 45.734375 112.582031 C 45.953125 112.375 45.960938 112.027344 45.75 111.808594 "/>
<path style=" stroke:none;fill-rule:nonzero;fill:rgb(17.298889%,17.298889%,16.899109%);fill-opacity:1;" d="M 70.519531 78.816406 L 73.0625 78.242188 C 73.722656 78.089844 74.242188 77.8125 74.605469 77.40625 C 74.976563 77 75.171875 76.523438 75.203125 75.980469 C 75.226563 75.488281 75.089844 75.105469 74.785156 74.824219 C 74.480469 74.546875 73.902344 74.507813 73.058594 74.699219 L 70.710938 75.226563 Z M 70.167969 85.410156 L 68.019531 85.894531 L 68.65625 73.921875 L 73.539063 72.820313 C 74.933594 72.507813 75.945313 72.625 76.582031 73.175781 C 77.214844 73.730469 77.507813 74.484375 77.457031 75.445313 C 77.398438 76.539063 76.984375 77.507813 76.222656 78.347656 C 75.457031 79.191406 74.515625 79.738281 73.398438 79.992188 L 70.421875 80.667969 "/>
<path style=" stroke:none;fill-rule:nonzero;fill:rgb(17.298889%,17.298889%,16.899109%);fill-opacity:1;" d="M 63.179688 82.402344 L 61.894531 77.34375 L 59.515625 83 Z M 66.742188 86.332031 L 64.324219 86.726563 L 63.609375 84.035156 L 58.777344 84.828125 L 57.5 87.847656 L 55.570313 88.164063 L 60.964844 75.472656 L 63.753906 75.015625 "/>
<path style=" stroke:none;fill-rule:nonzero;fill:rgb(17.298889%,17.298889%,16.899109%);fill-opacity:1;" d="M 53.03125 88.328125 L 50.570313 88.449219 L 51.175781 78.359375 L 47.800781 78.523438 L 47.914063 76.679688 L 57.125 76.226563 L 57.011719 78.070313 L 53.636719 78.238281 "/>
<path style=" stroke:none;fill-rule:nonzero;fill:rgb(17.298889%,17.298889%,16.899109%);fill-opacity:1;" d="M 46.921875 88.789063 L 44.253906 88.789063 L 41.449219 84.085938 L 38.472656 88.789063 L 36.347656 88.789063 L 40.359375 82.570313 L 36.914063 76.851563 L 39.574219 76.851563 L 41.914063 80.824219 L 44.394531 76.851563 L 46.53125 76.851563 L 43 82.300781 "/>
<path style=" stroke:none;fill-rule:nonzero;fill:rgb(17.298889%,17.298889%,16.899109%);fill-opacity:1;" d="M 31.847656 83.546875 L 29.640625 77.851563 L 28.144531 83.230469 Z M 36.074219 88.640625 L 33.625 88.429688 L 32.40625 85.390625 L 27.519531 84.972656 L 26.722656 87.84375 L 24.773438 87.675781 L 28.148438 75.625 L 30.964844 75.863281 "/>
<path style=" stroke:none;fill-rule:nonzero;fill:rgb(17.298889%,17.298889%,16.899109%);fill-opacity:1;" d="M 9.273438 84.421875 L 7.851563 71.859375 L 10.082031 72.328125 L 11.285156 82.945313 L 15.121094 83.75 L 13.917969 73.140625 L 16.148438 73.613281 L 17.351563 84.222656 L 21.183594 85.03125 L 19.984375 74.421875 L 22.214844 74.890625 L 23.636719 87.453125 "/>
</g>
</svg>
