<svg xmlns="http://www.w3.org/2000/svg" width="84.13pt" height="176.293" viewBox="0 0 84.13 132.22"><defs><clipPath id="a"><path d="M0 0h84.129v132.219H0zm0 0"/></clipPath></defs><path style="stroke:none;fill-rule:nonzero;fill:#fff;fill-opacity:1" d="M42.063 6.422c-53.57 22.398-53.458 97.027 0 119.379 53.574-22.399 53.457-97.028 0-119.38"/><g clip-path="url(#a)"><path style="stroke:none;fill-rule:nonzero;fill:#1f201d;fill-opacity:1" d="M42.063 6.422c-53.57 22.398-53.458 97.027 0 119.379 53.574-22.399 53.457-97.028 0-119.38m0-6.417c56.128 25.879 56.046 106.371 0 132.215-56.043-25.844-56.122-106.336 0-132.215"/></g><path style="stroke:none;fill-rule:nonzero;fill:#1f201d;fill-opacity:1" d="M74.46 86.723c-4.218 13.914-14.874 23.804-32.397 31.027-14.622-6.027-27.649-15.36-32.43-31.137 22.148 6.633 43.37 7.328 64.828.11"/><path style="stroke:none;fill-rule:nonzero;fill:#eb6d2c;fill-opacity:1" d="M71.582 39.676c4.543 10.043 6.734 19.336 6.578 27.875-19.566 8.547-52.66 8.531-72.191 0-.157-8.54 2.035-17.832 6.578-27.875.176 15.98 13.324 28.886 29.52 28.886 16.19 0 29.34-12.906 29.515-28.886"/><path style="stroke:none;fill-rule:nonzero;fill:#1f201d;fill-opacity:1" d="M42.066 15.027c17.317 9.657 20.555 35.43 4.11 47.266 7.199-15.188 5.828-27.656-4.11-37.395-9.941 9.739-11.312 22.207-4.113 37.395-16.445-11.836-13.207-37.61 4.113-47.266"/><path style="stroke:none;fill-rule:nonzero;fill:#eb6d2c;fill-opacity:1" d="M42.066 65.223c8.32-11.82 7.555-28.246 0-36.375-7.562 8.129-8.324 24.554 0 36.375m-.394.558c-13.516-.21-24.414-11.234-24.414-24.8 0-11.012 7.18-20.348 17.11-23.59-5.993 4.675-9.977 12.964-9.977 22.414 0 12.914 7.445 23.668 17.28 25.976m.786 0c13.516-.21 24.414-11.234 24.414-24.8 0-11.012-7.18-20.348-17.11-23.59 5.993 4.675 9.977 12.964 9.977 22.414 0 12.914-7.445 23.668-17.281 25.976"/><path style="stroke:none;fill-rule:nonzero;fill:#fff;fill-opacity:1" d="M48.16 99.453c0-.355-.066-.625-.2-.816a.573.573 0 0 0-.5-.27c-.269 0-.448.121-.542.356-.04.109-.063.261-.063.457 0 .504.098.86.286 1.066.109.121.246.18.406.18.41 0 .613-.324.613-.973m.828-.379c0 .66-.234 1.153-.703 1.485-.219.152-.492.23-.824.23-.469 0-.828-.172-1.094-.512-.273-.343-.406-.828-.406-1.453 0-.601.11-1.105.328-1.504.23-.422.531-.754.906-1a2.288 2.288 0 0 1 1.285-.382l.274.222-.11.117a1.62 1.62 0 0 0-.23-.02 1.29 1.29 0 0 0-.93.388 1.7 1.7 0 0 0-.312.445c-.145.297-.242.703-.293 1.226.305-.289.492-.445.55-.468.15-.063.321-.094.512-.094.297 0 .54.11.735.328.207.238.312.57.312.992m-3.597-.031c0 .488-.203.898-.61 1.238a2.178 2.178 0 0 1-1.43.508 1.94 1.94 0 0 1-.835-.191 7.915 7.915 0 0 0-.168-1.008l.02-.05.171-.052.043.016c.227.578.59.871 1.09.871a.81.81 0 0 0 .621-.254c.156-.168.234-.398.234-.691 0-.29-.082-.516-.257-.672-.16-.153-.38-.227-.657-.227-.125 0-.261.02-.406.063l-.043-.047a3.79 3.79 0 0 0 .133-.524h.281c.203 0 .379-.07.527-.218a.685.685 0 0 0 .227-.516.592.592 0 0 0-.2-.465.702.702 0 0 0-.491-.18c-.313 0-.524.083-.637.243a1.332 1.332 0 0 0-.152.324l-.036.113-.05.031-.172-.011-.04-.047.122-.559c.035-.16.062-.312.078-.465.297-.222.672-.335 1.121-.335.383 0 .688.093.914.28a.889.889 0 0 1 .324.72c0 .425-.254.769-.765 1.035.257 0 .492.09.699.261.23.192.344.461.344.809m-4.383-1.5c0-.422-.067-.734-.188-.938-.125-.207-.293-.304-.504-.304-.265 0-.445.14-.535.426a1.64 1.64 0 0 0-.078.543c0 .355.067.628.195.82a.59.59 0 0 0 .504.265c.27 0 .45-.12.54-.359.042-.11.066-.262.066-.453m.894.355c0 .61-.109 1.11-.328 1.508a2.77 2.77 0 0 1-.91 1 2.294 2.294 0 0 1-1.281.383l-.27-.227.082-.132c.07.023.153.039.254.039.356 0 .668-.133.938-.399.105-.105.207-.25.297-.425.148-.286.25-.696.304-1.235-.34.313-.531.473-.57.477a1.44 1.44 0 0 1-.488.082.93.93 0 0 1-.746-.336c-.207-.238-.309-.567-.309-.985 0-.668.238-1.164.703-1.484.223-.152.496-.227.824-.227.614 0 1.047.286 1.305.856.129.281.195.648.195 1.105m-3.554 2.727-.04.04c-.32-.02-.71-.028-1.171-.028-.453 0-.93.008-1.43.027l-.035-.035v-.211l.039-.031c.117-.016.234-.028.34-.035.199-.016.324-.036.379-.059.039-.02.07-.063.101-.125.043-.11.063-.547.063-1.309v-.851c0-.258-.004-.582-.012-.98l-.008-.255c0-.117-.023-.171-.074-.171a.853.853 0 0 0-.2.078c-.312.144-.581.27-.808.379l-.039-.024a4.601 4.601 0 0 0-.074-.433l.004-.028a24.36 24.36 0 0 0 2.117-.719l.074.051c-.008.137-.02.336-.039.602-.004.101-.012.37-.02.808l-.007 1.352c0 .965.015 1.484.047 1.555a.15.15 0 0 0 .101.097c.082.024.297.043.645.063l.047.031m7.402 11.395-2.8-2.922 2-2.09 1.874 1.812.23-2.07-.964-.934.27-.28a.548.548 0 0 0-.016-.774l-.133-.13a.552.552 0 0 0-.773.016l-.266.278-1.465-1.418-1.148 1.183 1.472 1.426-1.968 2.055-1.965-2.05 1.472-1.43-1.148-1.184-1.465 1.418-.266-.278a.552.552 0 0 0-.773-.015l-.133.129a.548.548 0 0 0-.02.773l.27.281-1.453 1.41 1.148 1.184 1.446-1.402 2 2.09-2.801 2.922a.548.548 0 0 0 .02.773l.132.129c.215.21.563.203.774-.016l2.761-2.886 2.766 2.886a.545.545 0 0 0 .774.016l.132-.129a.545.545 0 0 0 .016-.773"/><path style="stroke:none;fill-rule:nonzero;fill:#2c2c2b;fill-opacity:1" d="m70.52 78.816 2.543-.574c.66-.152 1.18-.43 1.542-.836.372-.406.567-.883.598-1.426.024-.492-.113-.875-.418-1.156-.305-.277-.883-.316-1.726-.125l-2.348.528zm-.352 6.594-2.148.485.636-11.973 4.883-1.102c1.395-.312 2.406-.195 3.043.356.633.554.926 1.308.875 2.27-.059 1.093-.473 2.062-1.234 2.902a5.314 5.314 0 0 1-2.825 1.644l-2.976.676m-7.242 1.734-1.285-5.058L59.515 83zm3.562 3.93-2.418.395-.715-2.692-4.832.793-1.277 3.02-1.93.316 5.395-12.691 2.789-.457M53.031 88.328l-2.46.121.605-10.09-3.375.164.113-1.843 9.211-.453-.113 1.843-3.375.168M46.922 88.79h-2.668l-2.805-4.704-2.976 4.703h-2.125l4.011-6.219-3.445-5.718h2.66l2.34 3.972 2.48-3.972h2.137L43 82.3m-11.152 1.247-2.207-5.695-1.496 5.378zm4.226 5.094-2.449-.211-1.219-3.04-4.886-.417-.797 2.87-1.95-.167 3.375-12.051 2.817.238M9.273 84.422 7.852 71.859l2.23.47 1.203 10.616 3.836.805-1.203-10.61 2.23.473 1.204 10.61 3.832.808-1.2-10.61 2.23.47 1.423 12.562"/></svg>