<?xml version="1.0" encoding="UTF-8"?>
<svg xmlns="http://www.w3.org/2000/svg" xmlns:xlink="http://www.w3.org/1999/xlink" width="494.31pt" height="611.47pt" viewBox="0 0 494.31 611.47" version="1.1">
<defs>
<clipPath id="clip1">
  <path d="M 0 0 L 494.308594 0 L 494.308594 611.46875 L 0 611.46875 Z M 0 0 "/>
</clipPath>
</defs>
<g id="surface1">
<path style=" stroke:none;fill-rule:nonzero;fill:rgb(72.198486%,71.798706%,70.599365%);fill-opacity:1;" d="M 76.472656 431.058594 C 9.164063 315.445313 1.949219 208.601563 2.09375 152.789063 L 2.09375 2.09375 L 67 2.09375 L 67 63.070313 L 108.398438 63.070313 L 108.398438 2.09375 L 173.304688 2.09375 L 173.304688 63.070313 L 214.703125 63.070313 L 214.703125 2.09375 L 279.609375 2.09375 L 279.609375 63.070313 L 321.003906 63.070313 L 321.003906 2.09375 L 385.914063 2.09375 L 385.914063 63.070313 L 427.308594 63.070313 L 427.308594 2.09375 L 492.21875 2.09375 L 492.21875 152.789063 C 492.359375 208.601563 485.148438 315.445313 417.835938 431.058594 C 347.980469 551.042969 247.15625 609.660156 247.15625 609.660156 C 247.15625 609.660156 146.328125 551.042969 76.472656 431.058594 "/>
<g clip-path="url(#clip1)" clip-rule="nonzero">
<path style=" stroke:none;fill-rule:nonzero;fill:rgb(13.699341%,12.199402%,12.5%);fill-opacity:1;" d="M 427.308594 0 C 426.152344 0 425.214844 0.9375 425.214844 2.09375 C 425.214844 2.09375 425.214844 57.074219 425.214844 60.976563 C 421.644531 60.976563 391.578125 60.976563 388.003906 60.976563 C 388.003906 57.074219 388.003906 2.09375 388.003906 2.09375 C 388.003906 0.9375 387.066406 0 385.914063 0 L 321.003906 0 C 319.851563 0 318.914063 0.9375 318.914063 2.09375 C 318.914063 2.09375 318.914063 57.074219 318.914063 60.976563 C 315.339844 60.976563 285.273438 60.976563 281.699219 60.976563 C 281.699219 57.074219 281.699219 2.09375 281.699219 2.09375 C 281.699219 0.9375 280.765625 0 279.609375 0 L 214.703125 0 C 213.546875 0 212.609375 0.9375 212.609375 2.09375 C 212.609375 2.09375 212.609375 57.074219 212.609375 60.976563 C 209.035156 60.976563 178.96875 60.976563 175.398438 60.976563 C 175.398438 57.074219 175.398438 2.09375 175.398438 2.09375 C 175.398438 0.9375 174.460938 0 173.304688 0 L 108.398438 0 C 107.242188 0 106.304688 0.9375 106.304688 2.09375 C 106.304688 2.09375 106.304688 57.074219 106.304688 60.976563 C 102.730469 60.976563 72.664063 60.976563 69.09375 60.976563 C 69.09375 57.074219 69.09375 2.09375 69.09375 2.09375 C 69.09375 0.9375 68.15625 0 67 0 L 2.09375 0 C 0.9375 0 0 0.9375 0 2.09375 L 0 152.789063 C -0.253906 252.597656 24.867188 346.578125 74.664063 432.109375 C 143.996094 551.195313 245.089844 610.882813 246.101563 611.46875 C 246.753906 611.847656 247.558594 611.847656 248.207031 611.46875 C 249.21875 610.882813 350.3125 551.195313 419.644531 432.109375 C 469.441406 346.578125 494.5625 252.601563 494.308594 152.785156 L 494.308594 2.09375 C 494.308594 0.9375 493.371094 0 492.21875 0 L 427.308594 0 M 490.125 4.183594 C 490.125 8.257813 490.125 152.789063 490.125 152.789063 C 490.125 153.28125 490.125 153.773438 490.125 154.269531 C 490.125 252.785156 465.199219 345.546875 416.027344 430.007813 C 350.964844 541.757813 257.816406 600.714844 247.15625 607.214844 C 236.496094 600.714844 143.347656 541.757813 78.28125 430.007813 C 29.109375 345.546875 4.183594 252.789063 4.183594 154.28125 C 4.183594 153.785156 4.183594 153.289063 4.1875 152.792969 C 4.1875 152.792969 4.1875 8.257813 4.1875 4.183594 C 7.976563 4.183594 61.117188 4.183594 64.90625 4.183594 C 64.90625 8.089844 64.90625 63.070313 64.90625 63.070313 C 64.90625 64.226563 65.84375 65.160156 67 65.160156 L 108.398438 65.160156 C 109.554688 65.160156 110.492188 64.226563 110.492188 63.070313 C 110.492188 63.070313 110.492188 8.089844 110.492188 4.183594 C 114.28125 4.183594 167.421875 4.183594 171.210938 4.183594 C 171.210938 8.089844 171.210938 63.070313 171.210938 63.070313 C 171.210938 64.226563 172.148438 65.160156 173.304688 65.160156 L 214.703125 65.160156 C 215.859375 65.160156 216.796875 64.226563 216.796875 63.070313 C 216.796875 63.070313 216.796875 8.089844 216.796875 4.183594 C 220.585938 4.183594 273.726563 4.183594 277.515625 4.183594 C 277.515625 8.089844 277.515625 63.070313 277.515625 63.070313 C 277.515625 64.226563 278.453125 65.160156 279.609375 65.160156 L 321.003906 65.160156 C 322.160156 65.160156 323.097656 64.226563 323.097656 63.070313 C 323.097656 63.070313 323.097656 8.089844 323.097656 4.183594 C 326.886719 4.183594 380.03125 4.183594 383.820313 4.183594 C 383.820313 8.089844 383.820313 63.070313 383.820313 63.070313 C 383.820313 64.226563 384.757813 65.160156 385.914063 65.160156 L 427.308594 65.160156 C 428.464844 65.160156 429.402344 64.226563 429.402344 63.070313 C 429.402344 63.070313 429.402344 8.089844 429.402344 4.183594 C 433.191406 4.183594 486.335938 4.183594 490.125 4.183594 "/>
</g>
<path style=" stroke:none;fill-rule:nonzero;fill:rgb(100%,100%,100%);fill-opacity:1;" d="M 178.984375 537.507813 L 178.984375 158.25 L 315.328125 158.25 L 315.328125 537.507813 L 315.277344 537.550781 C 285.238281 566.332031 259.246094 584.710938 247.15625 592.679688 C 235.066406 584.710938 209.082031 566.339844 179.054688 537.570313 L 178.984375 537.507813 "/>
<path style=" stroke:none;fill-rule:nonzero;fill:rgb(13.699341%,12.199402%,12.5%);fill-opacity:1;" d="M 178.984375 156.15625 C 177.828125 156.15625 176.890625 157.09375 176.890625 158.25 L 176.890625 537.507813 C 176.890625 538.078125 177.195313 538.6875 177.609375 539.082031 C 207.480469 567.703125 233.28125 586.042969 246.003906 594.425781 C 246.703125 594.886719 247.609375 594.886719 248.308594 594.425781 C 261.035156 586.039063 286.847656 567.691406 316.722656 539.0625 C 317.136719 538.667969 317.421875 538.078125 317.421875 537.507813 L 317.421875 158.25 C 317.421875 157.09375 316.484375 156.15625 315.328125 156.15625 L 178.984375 156.15625 M 313.234375 160.34375 C 313.234375 164.472656 313.234375 534.804688 313.234375 536.601563 C 284.699219 563.859375 260.027344 581.601563 247.15625 590.164063 C 234.285156 581.605469 209.617188 563.867188 181.074219 536.597656 C 181.074219 534.800781 181.074219 164.472656 181.074219 160.34375 C 185.070313 160.34375 309.238281 160.34375 313.234375 160.34375 "/>
<path style=" stroke:none;fill-rule:nonzero;fill:rgb(32.499695%,74.499512%,88.198853%);fill-opacity:1;" d="M 16.460938 158.507813 C 17.160156 253.246094 41.515625 342.484375 88.878906 423.835938 C 112.1875 463.878906 139.207031 496.988281 164.566406 523.164063 L 164.632813 523.230469 L 164.632813 158.25 L 16.457031 158.25 L 16.460938 158.507813 "/>
<path style=" stroke:none;fill-rule:nonzero;fill:rgb(13.699341%,12.199402%,12.5%);fill-opacity:1;" d="M 16.457031 156.15625 C 15.902344 156.15625 15.367188 156.378906 14.972656 156.773438 C 14.582031 157.167969 14.363281 157.703125 14.363281 158.261719 C 14.363281 158.261719 14.367188 158.519531 14.367188 158.519531 C 15.070313 253.625 39.53125 343.242188 87.070313 424.890625 C 107.675781 460.289063 133.246094 493.84375 163.066406 524.621094 C 163.65625 525.230469 164.59375 525.457031 165.386719 525.136719 C 166.175781 524.816406 166.722656 524.082031 166.722656 523.230469 L 166.722656 158.25 C 166.722656 157.09375 165.785156 156.15625 164.632813 156.15625 L 16.457031 156.15625 M 162.539063 160.34375 C 162.539063 164.421875 162.539063 507.757813 162.539063 517.953125 C 134.484375 488.441406 110.296875 456.464844 90.6875 422.785156 C 43.832031 342.308594 19.597656 254.015625 18.59375 160.34375 C 22.6875 160.34375 158.527344 160.34375 162.539063 160.34375 "/>
<path style=" stroke:none;fill-rule:nonzero;fill:rgb(32.499695%,74.499512%,88.198853%);fill-opacity:1;" d="M 329.679688 523.230469 L 329.679688 158.25 L 477.851563 158.25 L 477.851563 158.414063 C 477.15625 253.210938 452.804688 342.472656 405.433594 423.835938 C 382.117188 463.882813 355.09375 496.996094 329.734375 523.171875 L 329.679688 523.230469 "/>
<path style=" stroke:none;fill-rule:nonzero;fill:rgb(13.699341%,12.199402%,12.5%);fill-opacity:1;" d="M 329.679688 156.15625 C 328.523438 156.15625 327.585938 157.09375 327.585938 158.25 L 327.585938 523.230469 C 327.585938 524.082031 328.128906 524.820313 328.921875 525.140625 C 329.710938 525.460938 330.644531 525.242188 331.234375 524.628906 C 361.054688 493.851563 386.628906 460.292969 407.242188 424.890625 C 454.785156 343.226563 479.246094 253.578125 479.945313 158.429688 L 479.945313 158.25 C 479.945313 157.09375 479.007813 156.15625 477.851563 156.15625 L 329.679688 156.15625 M 475.714844 160.34375 C 474.707031 254.019531 450.476563 342.3125 403.625 422.785156 C 384.011719 456.46875 359.824219 488.445313 331.773438 517.953125 C 331.773438 507.757813 331.773438 164.421875 331.773438 160.34375 C 335.78125 160.34375 471.621094 160.34375 475.714844 160.34375 "/>
<path style=" stroke:none;fill-rule:nonzero;fill:rgb(32.499695%,74.499512%,88.198853%);fill-opacity:1;" d="M 185.355469 74.871094 L 177.78125 74.871094 C 177.78125 74.871094 160.085938 96.789063 152.890625 105.703125 C 145.691406 96.789063 127.996094 74.871094 127.996094 74.871094 L 113.246094 74.871094 L 113.246094 146.03125 L 127.597656 146.03125 C 127.597656 146.03125 127.597656 114.886719 127.597656 97.222656 C 135.941406 107.554688 152.890625 128.550781 152.890625 128.550781 C 152.890625 128.550781 169.839844 107.558594 178.179688 97.222656 C 178.179688 114.886719 178.179688 146.03125 178.179688 146.03125 L 192.53125 146.03125 L 192.53125 74.871094 L 185.355469 74.871094 "/>
<path style=" stroke:none;fill-rule:nonzero;fill:rgb(13.699341%,12.199402%,12.5%);fill-opacity:1;" d="M 185.355469 72.777344 L 177.78125 72.777344 C 177.148438 72.777344 176.550781 73.0625 176.152344 73.554688 C 176.152344 73.554688 155.734375 98.847656 152.890625 102.371094 C 150.042969 98.847656 129.625 73.554688 129.625 73.554688 C 129.226563 73.0625 128.628906 72.777344 127.996094 72.777344 L 113.246094 72.777344 C 112.089844 72.777344 111.152344 73.714844 111.152344 74.871094 L 111.152344 146.03125 C 111.152344 147.1875 112.089844 148.125 113.246094 148.125 L 127.597656 148.125 C 128.753906 148.125 129.691406 147.1875 129.691406 146.03125 C 129.691406 146.03125 129.691406 112.296875 129.691406 103.148438 C 135.105469 109.855469 151.261719 129.867188 151.261719 129.867188 C 151.660156 130.359375 152.257813 130.644531 152.890625 130.644531 C 153.523438 130.644531 154.121094 130.359375 154.519531 129.867188 C 154.519531 129.867188 170.675781 109.855469 176.089844 103.148438 C 176.089844 112.296875 176.089844 146.03125 176.089844 146.03125 C 176.089844 147.1875 177.023438 148.125 178.179688 148.125 L 192.53125 148.125 C 193.6875 148.125 194.625 147.1875 194.625 146.03125 L 194.625 74.871094 C 194.625 73.714844 193.6875 72.777344 192.53125 72.777344 L 185.355469 72.777344 M 185.355469 76.964844 C 185.355469 76.964844 188.339844 76.964844 190.441406 76.964844 C 190.441406 80.785156 190.441406 140.113281 190.441406 143.9375 C 187.90625 143.9375 182.804688 143.9375 180.273438 143.9375 C 180.273438 140.105469 180.273438 97.222656 180.273438 97.222656 C 180.273438 96.335938 179.714844 95.546875 178.878906 95.25 C 178.039063 94.953125 177.109375 95.21875 176.550781 95.910156 C 176.550781 95.910156 155.742188 121.6875 152.890625 125.21875 C 150.039063 121.6875 129.226563 95.90625 129.226563 95.90625 C 128.667969 95.21875 127.738281 94.953125 126.898438 95.25 C 126.0625 95.546875 125.503906 96.335938 125.503906 97.222656 C 125.503906 97.222656 125.503906 140.105469 125.503906 143.9375 C 122.972656 143.9375 117.871094 143.9375 115.339844 143.9375 C 115.339844 140.113281 115.339844 80.785156 115.339844 76.964844 C 118.175781 76.964844 125.523438 76.964844 126.996094 76.964844 C 128.191406 78.441406 151.261719 107.019531 151.261719 107.019531 C 151.660156 107.511719 152.257813 107.796875 152.890625 107.796875 C 153.523438 107.796875 154.121094 107.511719 154.519531 107.019531 C 154.519531 107.019531 177.589844 78.441406 178.78125 76.964844 C 180.289063 76.964844 185.355469 76.964844 185.355469 76.964844 "/>
<path style=" stroke:none;fill-rule:nonzero;fill:rgb(32.499695%,74.499512%,88.198853%);fill-opacity:1;" d="M 242.804688 116.332031 L 274.496094 116.332031 L 274.496094 101.980469 L 242.804688 101.980469 L 242.804688 101.882813 C 242.804688 96.460938 242.804688 91.890625 242.804688 89.222656 C 253.320313 89.222656 285.460938 89.222656 285.460938 89.222656 L 285.460938 74.871094 L 228.453125 74.871094 L 228.453125 146.03125 L 242.804688 146.03125 C 242.804688 146.03125 242.804688 131.234375 242.804688 116.417969 L 242.804688 116.332031 "/>
<path style=" stroke:none;fill-rule:nonzero;fill:rgb(13.699341%,12.199402%,12.5%);fill-opacity:1;" d="M 235.628906 72.777344 L 228.453125 72.777344 C 227.296875 72.777344 226.359375 73.714844 226.359375 74.871094 L 226.359375 146.03125 C 226.359375 147.1875 227.296875 148.125 228.453125 148.125 L 242.804688 148.125 C 243.960938 148.125 244.898438 147.1875 244.898438 146.03125 C 244.898438 146.03125 244.898438 121.910156 244.898438 118.425781 C 248.546875 118.425781 274.496094 118.425781 274.496094 118.425781 C 275.652344 118.425781 276.589844 117.484375 276.589844 116.332031 L 276.589844 101.980469 C 276.589844 100.824219 275.652344 99.886719 274.496094 99.886719 C 274.496094 99.886719 248.546875 99.886719 244.898438 99.886719 C 244.898438 97.605469 244.898438 93.679688 244.898438 91.316406 C 248.683594 91.316406 285.460938 91.316406 285.460938 91.316406 C 286.617188 91.316406 287.554688 90.378906 287.554688 89.222656 L 287.554688 74.871094 C 287.554688 73.714844 286.617188 72.777344 285.460938 72.777344 L 235.628906 72.777344 M 235.628906 76.964844 C 235.628906 76.964844 279.527344 76.964844 283.367188 76.964844 C 283.367188 79.496094 283.367188 84.597656 283.367188 87.128906 C 279.582031 87.128906 242.804688 87.128906 242.804688 87.128906 C 241.648438 87.128906 240.710938 88.066406 240.710938 89.222656 L 240.710938 101.882813 C 240.710938 103.039063 241.648438 104.070313 242.804688 104.070313 C 242.804688 104.070313 268.753906 104.070313 272.402344 104.070313 C 272.402344 106.605469 272.402344 111.703125 272.402344 114.238281 C 268.753906 114.238281 242.804688 114.238281 242.804688 114.238281 C 241.648438 114.238281 240.710938 115.261719 240.710938 116.417969 C 240.710938 116.417969 240.710938 140.324219 240.710938 143.9375 C 238.179688 143.9375 233.078125 143.9375 230.546875 143.9375 C 230.546875 140.113281 230.546875 80.785156 230.546875 76.964844 C 232.644531 76.964844 235.628906 76.964844 235.628906 76.964844 "/>
<path style=" stroke:none;fill-rule:nonzero;fill:rgb(32.499695%,74.499512%,88.198853%);fill-opacity:1;" d="M 338.339844 116.332031 L 370.035156 116.332031 L 370.035156 101.980469 L 338.339844 101.980469 L 338.339844 101.882813 C 338.339844 96.460938 338.339844 91.890625 338.339844 89.222656 C 348.855469 89.222656 380.996094 89.222656 380.996094 89.222656 L 380.996094 74.871094 L 323.988281 74.871094 L 323.988281 146.03125 L 338.339844 146.03125 C 338.339844 146.03125 338.339844 131.234375 338.339844 116.417969 L 338.339844 116.332031 "/>
<path style=" stroke:none;fill-rule:nonzero;fill:rgb(13.699341%,12.199402%,12.5%);fill-opacity:1;" d="M 331.164063 72.777344 L 323.988281 72.777344 C 322.832031 72.777344 321.894531 73.714844 321.894531 74.871094 L 321.894531 146.03125 C 321.894531 147.1875 322.832031 148.125 323.988281 148.125 L 338.339844 148.125 C 339.496094 148.125 340.433594 147.1875 340.433594 146.03125 C 340.433594 146.03125 340.433594 121.910156 340.433594 118.425781 C 344.085938 118.425781 370.035156 118.425781 370.035156 118.425781 C 371.1875 118.425781 372.128906 117.484375 372.128906 116.332031 L 372.128906 101.980469 C 372.128906 100.824219 371.1875 99.886719 370.035156 99.886719 C 370.035156 99.886719 344.085938 99.886719 340.433594 99.886719 C 340.433594 97.605469 340.433594 93.679688 340.433594 91.316406 C 344.21875 91.316406 380.996094 91.316406 380.996094 91.316406 C 382.152344 91.316406 383.089844 90.378906 383.089844 89.222656 L 383.089844 74.871094 C 383.089844 73.714844 382.152344 72.777344 380.996094 72.777344 L 331.164063 72.777344 M 331.164063 76.964844 C 331.164063 76.964844 375.0625 76.964844 378.90625 76.964844 C 378.90625 79.496094 378.90625 84.597656 378.90625 87.128906 C 375.117188 87.128906 338.339844 87.128906 338.339844 87.128906 C 337.183594 87.128906 336.246094 88.066406 336.246094 89.222656 L 336.246094 101.882813 C 336.246094 103.039063 337.183594 104.070313 338.339844 104.070313 C 338.339844 104.070313 364.289063 104.070313 367.941406 104.070313 C 367.941406 106.605469 367.941406 111.703125 367.941406 114.238281 C 364.289063 114.238281 338.339844 114.238281 338.339844 114.238281 C 337.183594 114.238281 336.246094 115.261719 336.246094 116.417969 C 336.246094 116.417969 336.246094 140.324219 336.246094 143.9375 C 333.714844 143.9375 328.613281 143.9375 326.078125 143.9375 C 326.078125 140.113281 326.078125 80.785156 326.078125 76.964844 C 328.179688 76.964844 331.164063 76.964844 331.164063 76.964844 "/>
<path style=" stroke:none;fill-rule:nonzero;fill:rgb(32.499695%,74.499512%,88.198853%);fill-opacity:1;" d="M 217.886719 109.753906 C 217.886719 113.824219 214.585938 117.128906 210.511719 117.128906 C 206.4375 117.128906 203.136719 113.824219 203.136719 109.753906 C 203.136719 105.679688 206.4375 102.378906 210.511719 102.378906 C 214.585938 102.378906 217.886719 105.679688 217.886719 109.753906 "/>
<path style=" stroke:none;fill-rule:nonzero;fill:rgb(13.699341%,12.199402%,12.5%);fill-opacity:1;" d="M 201.042969 109.753906 C 201.042969 114.972656 205.289063 119.222656 210.511719 119.222656 C 215.734375 119.222656 219.980469 114.972656 219.980469 109.753906 C 219.980469 104.53125 215.734375 100.285156 210.511719 100.285156 C 205.289063 100.285156 201.042969 104.53125 201.042969 109.753906 M 205.230469 109.753906 C 205.230469 106.839844 207.601563 104.472656 210.511719 104.472656 C 213.425781 104.472656 215.796875 106.839844 215.796875 109.753906 C 215.796875 112.664063 213.425781 115.035156 210.511719 115.035156 C 207.601563 115.035156 205.230469 112.664063 205.230469 109.753906 "/>
<path style=" stroke:none;fill-rule:nonzero;fill:rgb(32.499695%,74.499512%,88.198853%);fill-opacity:1;" d="M 310.710938 109.753906 C 310.710938 113.824219 307.410156 117.128906 303.335938 117.128906 C 299.261719 117.128906 295.960938 113.824219 295.960938 109.753906 C 295.960938 105.679688 299.261719 102.378906 303.335938 102.378906 C 307.410156 102.378906 310.710938 105.679688 310.710938 109.753906 "/>
<path style=" stroke:none;fill-rule:nonzero;fill:rgb(13.699341%,12.199402%,12.5%);fill-opacity:1;" d="M 293.867188 109.753906 C 293.867188 114.972656 298.113281 119.222656 303.335938 119.222656 C 308.554688 119.222656 312.804688 114.972656 312.804688 109.753906 C 312.804688 104.53125 308.554688 100.285156 303.335938 100.285156 C 298.113281 100.285156 293.867188 104.53125 293.867188 109.753906 M 298.054688 109.753906 C 298.054688 106.839844 300.421875 104.472656 303.335938 104.472656 C 306.246094 104.472656 308.617188 106.839844 308.617188 109.753906 C 308.617188 112.664063 306.246094 115.035156 303.335938 115.035156 C 300.421875 115.035156 298.054688 112.664063 298.054688 109.753906 "/>
</g>
</svg>
