<svg xmlns="http://www.w3.org/2000/svg" width="659.08" height="815.293" viewBox="0 0 494.31 611.47"><defs><clipPath id="a"><path d="M0 0h494.309v611.469H0zm0 0"/></clipPath></defs><path style="stroke:none;fill-rule:nonzero;fill:#b8b7b4;fill-opacity:1" d="M76.473 431.059C9.164 315.445 1.949 208.602 2.093 152.789V2.094H67V63.07h41.398V2.094h64.907V63.07h41.398V2.094h64.906V63.07h41.395V2.094h64.91V63.07h41.395V2.094h64.91v150.695c.14 55.813-7.07 162.656-74.383 278.27-69.856 119.984-170.68 178.601-170.68 178.601s-100.828-58.617-170.683-178.6"/><g clip-path="url(#a)"><path style="stroke:none;fill-rule:nonzero;fill:#231f20;fill-opacity:1" d="M427.309 0a2.094 2.094 0 0 0-2.094 2.094v58.883h-37.211V2.094A2.093 2.093 0 0 0 385.914 0h-64.91c-1.152 0-2.09.938-2.09 2.094v58.883H281.7V2.094A2.09 2.09 0 0 0 279.61 0h-64.906a2.094 2.094 0 0 0-2.094 2.094v58.883H175.4V2.094A2.094 2.094 0 0 0 173.304 0h-64.907a2.094 2.094 0 0 0-2.093 2.094v58.883h-37.21V2.094A2.094 2.094 0 0 0 67 0H2.094A2.094 2.094 0 0 0 0 2.094v150.695c-.254 99.809 24.867 193.79 74.664 279.32 69.332 119.086 170.426 178.774 171.438 179.36a2.092 2.092 0 0 0 2.105 0c1.012-.586 102.106-60.274 171.438-179.36 49.796-85.53 74.918-179.507 74.664-279.324V2.094A2.093 2.093 0 0 0 492.219 0h-64.91m62.816 4.184v150.085c0 98.516-24.926 191.278-74.098 275.739-65.062 111.75-158.21 170.707-168.87 177.207-10.66-6.5-103.81-65.457-168.876-177.207C29.11 345.547 4.184 252.789 4.184 154.28c0-.496 0-.992.003-1.488V4.183h60.72V63.07A2.09 2.09 0 0 0 67 65.16h41.398a2.09 2.09 0 0 0 2.094-2.09V4.184h60.719V63.07a2.09 2.09 0 0 0 2.094 2.09h41.398a2.09 2.09 0 0 0 2.094-2.09V4.184h60.719V63.07a2.09 2.09 0 0 0 2.093 2.09h41.395a2.09 2.09 0 0 0 2.094-2.09V4.184h60.722V63.07a2.09 2.09 0 0 0 2.094 2.09h41.395a2.09 2.09 0 0 0 2.093-2.09V4.184h60.723"/></g><path style="stroke:none;fill-rule:nonzero;fill:#fff;fill-opacity:1" d="M178.984 537.508V158.25h136.344v379.258l-.05.043c-30.04 28.781-56.032 47.16-68.122 55.129-12.09-7.97-38.074-26.34-68.101-55.11l-.07-.062"/><path style="stroke:none;fill-rule:nonzero;fill:#231f20;fill-opacity:1" d="M178.984 156.156a2.094 2.094 0 0 0-2.093 2.094v379.258c0 .57.304 1.18.718 1.574 29.871 28.621 55.672 46.961 68.395 55.344.7.46 1.605.46 2.305 0 12.726-8.387 38.539-26.735 68.414-55.364.414-.394.699-.984.699-1.554V158.25a2.094 2.094 0 0 0-2.094-2.094H178.984m134.25 4.188v376.258c-28.535 27.257-53.207 45-66.078 53.562-12.87-8.559-37.539-26.297-66.082-53.566V160.344h132.16"/><path style="stroke:none;fill-rule:nonzero;fill:#53bee1;fill-opacity:1" d="M16.46 158.508c.7 94.738 25.056 183.976 72.419 265.328 23.308 40.043 50.328 73.152 75.687 99.328l.067.066V158.25H16.457l.004.258"/><path style="stroke:none;fill-rule:nonzero;fill:#231f20;fill-opacity:1" d="M16.457 156.156c-.555 0-1.09.223-1.484.617-.391.395-.61.93-.61 1.489l.004.258c.703 95.105 25.164 184.722 72.703 266.37 20.606 35.4 46.176 68.954 75.996 99.731.59.61 1.528.836 2.32.516.79-.32 1.337-1.055 1.337-1.907V158.25a2.093 2.093 0 0 0-2.09-2.094H16.457m146.082 4.188v357.61c-28.055-29.513-52.242-61.49-71.851-95.169-46.856-80.476-71.09-168.77-72.094-262.441h143.945"/><path style="stroke:none;fill-rule:nonzero;fill:#53bee1;fill-opacity:1" d="M329.68 523.23V158.25h148.172v.164c-.696 94.797-25.047 184.059-72.418 265.422-23.317 40.047-50.34 73.16-75.7 99.336l-.054.058"/><path style="stroke:none;fill-rule:nonzero;fill:#231f20;fill-opacity:1" d="M329.68 156.156a2.094 2.094 0 0 0-2.094 2.094v364.98c0 .852.543 1.59 1.336 1.91.789.32 1.723.102 2.312-.511 29.82-30.777 55.395-64.336 76.008-99.738 47.543-81.664 72.004-171.313 72.703-266.461v-.18a2.094 2.094 0 0 0-2.093-2.094H329.68m146.035 4.188c-1.008 93.676-25.238 181.969-72.09 262.441-19.613 33.684-43.8 65.66-71.852 95.168v-357.61h143.942"/><path style="stroke:none;fill-rule:nonzero;fill:#53bee1;fill-opacity:1" d="M185.355 74.871h-7.574l-24.89 30.832c-7.2-8.914-24.895-30.832-24.895-30.832h-14.75v71.16h14.352V97.223c8.343 10.332 25.293 31.328 25.293 31.328s16.949-20.992 25.289-31.328v48.808h14.351v-71.16h-7.176"/><path style="stroke:none;fill-rule:nonzero;fill:#231f20;fill-opacity:1" d="M185.355 72.777h-7.574c-.633 0-1.23.285-1.629.778l-23.261 28.816c-2.848-3.523-23.266-28.816-23.266-28.816a2.094 2.094 0 0 0-1.629-.778h-14.75a2.094 2.094 0 0 0-2.094 2.094v71.16c0 1.156.938 2.094 2.094 2.094h14.352a2.094 2.094 0 0 0 2.093-2.094v-42.883l21.57 26.72a2.094 2.094 0 0 0 3.259 0l21.57-26.72v42.883a2.09 2.09 0 0 0 2.09 2.094h14.351a2.094 2.094 0 0 0 2.094-2.094v-71.16a2.094 2.094 0 0 0-2.094-2.094h-7.176m0 4.188h5.086v66.972h-10.168V97.224a2.093 2.093 0 0 0-3.722-1.313l-23.66 29.309a410207.6 410207.6 0 0 1-23.664-29.313 2.093 2.093 0 0 0-3.723 1.316v46.716H115.34V76.965h11.656c1.195 1.476 24.266 30.055 24.266 30.055a2.094 2.094 0 0 0 3.258 0l24.261-30.055h6.574"/><path style="stroke:none;fill-rule:nonzero;fill:#53bee1;fill-opacity:1" d="M242.805 116.332h31.691V101.98h-31.691V89.223h42.656V74.87h-57.008v71.16h14.352v-29.698"/><path style="stroke:none;fill-rule:nonzero;fill:#231f20;fill-opacity:1" d="M235.629 72.777h-7.176a2.094 2.094 0 0 0-2.094 2.094v71.16c0 1.156.938 2.094 2.094 2.094h14.352a2.094 2.094 0 0 0 2.093-2.094v-27.605h29.598a2.096 2.096 0 0 0 2.094-2.094V101.98a2.094 2.094 0 0 0-2.094-2.093h-29.598v-8.57h40.563a2.094 2.094 0 0 0 2.094-2.094V74.87a2.094 2.094 0 0 0-2.094-2.094h-49.832m0 4.188h47.738v10.164h-40.562a2.094 2.094 0 0 0-2.094 2.094v12.66c0 1.156.937 2.187 2.094 2.187h29.597v10.168h-29.597c-1.157 0-2.094 1.024-2.094 2.18v27.52h-10.164V76.965h5.082"/><path style="stroke:none;fill-rule:nonzero;fill:#53bee1;fill-opacity:1" d="M338.34 116.332h31.695V101.98H338.34V89.223h42.656V74.87h-57.008v71.16h14.352v-29.698"/><path style="stroke:none;fill-rule:nonzero;fill:#231f20;fill-opacity:1" d="M331.164 72.777h-7.176a2.094 2.094 0 0 0-2.093 2.094v71.16c0 1.156.937 2.094 2.093 2.094h14.352a2.094 2.094 0 0 0 2.094-2.094v-27.605h29.601a2.099 2.099 0 0 0 2.094-2.094V101.98a2.096 2.096 0 0 0-2.094-2.093h-29.601v-8.57h40.562a2.094 2.094 0 0 0 2.094-2.094V74.87a2.094 2.094 0 0 0-2.094-2.094h-49.832m0 4.188h47.742v10.164H338.34a2.094 2.094 0 0 0-2.094 2.094v12.66c0 1.156.938 2.187 2.094 2.187h29.601v10.168H338.34c-1.156 0-2.094 1.024-2.094 2.18v27.52h-10.168V76.965h5.086"/><path style="stroke:none;fill-rule:nonzero;fill:#53bee1;fill-opacity:1" d="M217.887 109.754a7.376 7.376 0 1 1-14.752-.002 7.376 7.376 0 0 1 14.752.002"/><path style="stroke:none;fill-rule:nonzero;fill:#231f20;fill-opacity:1" d="M201.043 109.754c0 5.219 4.246 9.469 9.469 9.469 5.222 0 9.468-4.25 9.468-9.47 0-5.222-4.246-9.468-9.468-9.468-5.223 0-9.469 4.246-9.469 9.469m4.187 0a5.287 5.287 0 0 1 5.282-5.281 5.288 5.288 0 0 1 5.285 5.28 5.29 5.29 0 0 1-5.285 5.282 5.29 5.29 0 0 1-5.282-5.281"/><path style="stroke:none;fill-rule:nonzero;fill:#53bee1;fill-opacity:1" d="M310.71 109.754a7.376 7.376 0 1 1-14.751-.002 7.376 7.376 0 0 1 14.752.002"/><path style="stroke:none;fill-rule:nonzero;fill:#231f20;fill-opacity:1" d="M293.867 109.754c0 5.219 4.246 9.469 9.469 9.469 5.219 0 9.469-4.25 9.469-9.47 0-5.222-4.25-9.468-9.47-9.468-5.222 0-9.468 4.246-9.468 9.469m4.188 0a5.285 5.285 0 0 1 5.28-5.281 5.287 5.287 0 0 1 5.282 5.28 5.29 5.29 0 0 1-5.281 5.282 5.287 5.287 0 0 1-5.281-5.281"/></svg>