<svg xmlns="http://www.w3.org/2000/svg" width="682.293" height="913.12" viewBox="0 0 511.72 684.84"><defs><clipPath id="a"><path d="M0 0h511.719v684.84H0zm0 0"/></clipPath></defs><g clip-path="url(#a)"><path style="stroke:none;fill-rule:nonzero;fill:#231f20;fill-opacity:1" d="M434.996 551.719c75.48-95.094 84.242-206.785 72.453-316.332C495.664 125.84 466.72 81.64 466.72 81.64c-33.801 5.718-57.375-10.055-91.696-30.332C340.703 31.027 298.863 0 255.855 0h.004c-43.004 0-84.847 31.027-119.168 51.309C102.371 71.586 78.801 87.359 45 81.64c0 0-28.95 44.199-40.734 153.746C-7.52 344.934 1.238 456.625 76.719 551.719c92.039 115.96 179.14 133.12 179.14 133.12s87.098-17.16 179.137-133.12"/></g><path style="stroke:none;fill-rule:nonzero;fill:#fff;fill-opacity:1" d="m132.5 58.934 6.441-3.82 17.2-10.497c30.418-18.844 64.89-40.195 99.718-40.195s69.301 21.351 99.715 40.195l17.2 10.496 6.44 3.82c29.763 17.692 53.505 31.704 85.169 27.458 5.816 10.386 28.629 56.125 38.672 149.468 2.843 26.41 4.265 51.22 4.265 74.66 0 31.485-2.566 60.504-7.715 87.63-10.914 57.535-33.183 106.867-68.07 150.824-46.93 59.129-92.437 91.742-122.351 108.691-28.868 16.36-49.106 21.656-53.325 22.645-4.218-.989-24.457-6.286-53.328-22.645-29.91-16.95-75.418-49.562-122.351-108.691-34.887-43.957-57.153-93.29-68.07-150.825-5.15-27.125-7.715-56.144-7.715-87.628 0-23.442 1.425-48.25 4.265-74.66C18.703 142.515 41.52 96.776 47.332 86.39 79 90.638 102.738 76.626 132.5 58.935"/><path style="stroke:none;fill-rule:nonzero;fill:#231f20;fill-opacity:1" d="M240.52 289.77c-1.43 4.16-2.602 8.449-2.602 8.449 1.562-3.77 3.902-8.45 3.902-8.45 4.29-1.69 12.61-4.03 12.61-4.03 1.039-3.25 1.82-7.169 1.82-7.169 9.266-.62 16.535 1.317 16.535 1.317a41.082 41.082 0 0 0-16.926-3.625c-22.77 0-41.234 18.46-41.234 41.234 0 17.79 11.262 32.945 27.043 38.727 0 0-20.348-11.918-22.988-29.836-2.285-15.508 3.117-31.325 15.914-40.496 0 0 1.894 1.28 3.195 2.058 1.3.781 2.73 1.82 2.73 1.82"/><path style="stroke:none;fill-rule:nonzero;fill:#006433;fill-opacity:1" d="m105.629 322.82-89.863 15.996-.489.059a527.871 527.871 0 0 1-.742-28.355c0-23.079 1.406-47.524 4.207-73.575 8.547-79.418 26.395-123.351 34.414-139.78 31.43 1.952 55.219-12.095 84.528-29.517l6.414-3.804 17.382-10.61c29.266-18.125 62.438-38.675 94.38-38.675 31.94 0 65.109 20.55 94.374 38.675l17.383 10.61 6.418 3.804c29.305 17.418 53.094 31.47 84.524 29.516 8.02 16.43 25.87 60.363 34.414 139.781a799.22 799.22 0 0 1 1.625 16.73l-.43-.038-75.906 13.515-.492.075c.918-2.676 1.671-5.305 2.148-7.747 1.512-7.746.176-13-2.426-13.171-2.597-.176-7.277 6.757-7.277 6.757s4.156-15.773 5.023-29.812c.867-14.04 0-17.68-2.254-18.2-2.254-.519-4.504 4.505-9.53 16.985-5.028 12.48-10.056 21.84-10.056 21.84 1.04-22.879-.171-29.984-3.293-30.16-3.12-.172-5.37 11.094-10.402 28.601-2.738 9.535-6.582 18.2-6.582 18.2s-.695-2.254-1.734-2.774c-.762-.379-1.059 2.39-1.84 5.395l-.106-.582c-2.07-10.797-3.601-17.118-3.601-17.118-68.293-21.84-93.793-40.562-109.98-40.558h-.005c-14.644-.004-36.906 15.316-91.574 34.406l-.66.234a93.488 93.488 0 0 1 3.75-8.816c7.453-15.254 11.27-20.629 9.016-21.148-2.254-.52-12.48 6.414-23.922 26.52 0 0 .176-4.548-3.727-4.419-4.023.133-8.578 8.235-13.953 27.992 0 0-1.387-9.53-1.039-17.68.348-8.148 2.426-15.773-.172-15.425-2.601.348-7.281 5.375-10.054 19.238-2.774 13.867-3.293 21.844-3.293 21.844s-1.735-4.684-5.028-4.16c-3.293.515-5.199 6.062-3.465 29.808 0 0-3.468-3.464-5.894-1.382-2.426 2.078-.695 11.265 2.597 20.105 0 0-1.906-1.215-3.464.52-1.13 1.253-1.442 3.777 1.355 10.19l-.7.11"/><path style="stroke:none;fill-rule:nonzero;fill:#231f20;fill-opacity:1" d="M235.188 308.75s-8.708 5.852-12.61 10.922c0 0 2.211 7.148 5.98 14.039 0 0 .262 6.629 1.172 9.879 0 0 0-4.942.391-8.969 0 0 8.059-.91 12.219-3.64 0 0 4.418 2.73 8.71 6.89 0 0-4.03-5.2-6.89-8.32 0 0 1.688-8.711 2.34-14.43 0 0-5.46-3.902-11.313-6.371m14.043 5.59s6.63-2.602 12.09-5.07c0 0 7.149 3.77 12.09 6.109 0 0 7.41-4.809 11.7-10.399 0 0-2.602-7.02-5.59-12.351 0 0-8.32.91-13.391 1.43 0 0-5.852-4.418-9.488-7.278 0 0 4.418 4.547 8.449 8.84 0 0-3.25 9.488-4.16 12.09l-11.7 6.629"/><path style="stroke:none;fill-rule:nonzero;fill:#006433;fill-opacity:1" d="M422.625 294.352c-1.39 3.492-3.203 7.183-5.305 10.714a100.82 100.82 0 0 1-2.218 3.551l.664-.101 80.75-14.375.433-.07a658.978 658.978 0 0 0-.48-12.75l-.461-.016-72.914 12.984-.469.063m-11.82 42.98c-2.97 3.031-6.434 6.32-10.473 9.856 0 0 7.973-5.204 13-5.72 5.027-.523 8.32 2.255 5.371 6.587-.215.316-.457.656-.719 1.004l.575-.118 77.472-13.796.602-.176c.195-4.23.336-8.508.426-12.832h-.563l-84.953 15.125-.738.07M162.82 322.734l-.3-.984c-2.602-8.578-2.536-9.234-3.512-12.738-.649-2.34-1.43-2.602-2.86-.39 0 0-1.168-19.11.13-33.716.745-8.37 2.105-18.37 5.109-28.61l.722-.21c27.672-9.477 47.309-18.063 62.2-24.578 15-6.57 24.91-10.906 31.546-10.906 6.641 0 16.551 4.335 31.555 10.906 16.856 7.379 39.79 17.406 73.578 28.37.899 4.024 2.551 11.794 4.39 22.212l.134.781c-.719 1.594-1.235 2.73-1.235 2.73s-2.597-2.949-7.797 2.426c-4.242 4.38-9.746 13.254-11.636 16.383l-.137-.855c-.273-1.5-1.668-9.055-1.668-9.055-.75-4.344-1.48-8.242-2.152-11.676-27.828-9.383-47.61-17.855-62.66-24.308-8.801-3.774-18.653-7.989-22.368-8.703-3.718.714-13.57 4.93-22.367 8.703-15.05 6.453-34.832 14.925-62.664 24.308a555.352 555.352 0 0 0-2.152 11.676l-.895 4.89c-1.344 7.212-3.398 18.22-4.8 31.704l-.16 1.64m-51.883 27.133-92.645 16.496-.723.078c.492 4.293 1.04 8.536 1.649 12.73l.765-.187 94.735-16.867.43-.05c-5.329-5.305-7.07-9.84-5.497-11.415.555-.554 1.961-.894 2.903-1.07l-1.618.285"/><path style="stroke:none;fill-rule:nonzero;fill:#231f20;fill-opacity:1" d="M263.73 531.469c-1.058 1.902-2.41 2.918-2.41 2.918s0 .691-.52 2.254c-.523 1.558-1.905 4.507-4.855 7.625-2.945 3.12-3.984 8.496-4.332 13.347-.347 4.856-.898 7.492-3.812 9.535-3.469 2.426-9.363-5.375-9.363-5.375-1.731 0-3.293-3.12-3.293-7.28 0-4.157 2.082-6.067 2.082-6.067s0 .867.171 3.64c.176 2.774 1.563 2.95 1.563 2.95s-.176-1.563 1.387-1.563c1.558 0 1.382-1.215-.696-4.16-2.078-2.945-2.254-5.719-2.601-8.145a65.255 65.255 0 0 0-.863-4.68c-.868.516-3.47-.347-3.47-.347.173 4.68-1.734 7.106-1.734 7.106l-.691-1.735c-.695-1.73-1.906-6.066-1.906-6.066-1.735-.172-3.293-2.946-3.469-6.41-.172-3.47 2.254-4.856 3.469-6.243 1.215-1.386 2.425-2.253 3.64-4.16 1.098-1.722 3.188-2.742 5.118-3.047l.222-.074c.031-2.18.238-5.398 1.07-7.797 1.387-3.988 4.684-6.066 4.684-6.066s-.867-5.55 0-9.188c0 0-2.254-.347-5.203-.347-1.465 0-3.27.086-5.461.32l-.078.223c-.496 2.023-1.715 5.625-4.688 10.722-4.851 8.32-10.226 11.27-10.746 7.625 0 0-1.082 1.91-2.816 2.778-1.734.867-2.34.91-2.34.91s-.043 3.25-3.164 7.406c-3.117 4.16-6.414 6.242-8.664 1.39 0 0-2.082 2.598-5.203 3.813-3.117 1.211-5.371-.176-5.371-.176s.52 2.082-3.121 6.59c-3.641 4.504-8.668 7.453-9.536-1.562 0 0-4.8-1.914-5.023-5.371-.184-2.836.066-5.434.348-7.25l.007-.328c-.18.16-.355.316-.53.468-.65.57-1.462 1.149-2.34 1.754l-.255.196c.208.195.34.304.34.304-.515.18-1.023.344-1.523.492l-.34.223c-2.45 1.7-4.976 3.664-5.934 6.219-1.12 2.984.52 5.027 2.426 6.066 1.906 1.04 3.813 1.907 3.989 5.028.171 3.12-2.43 4.507-1.91 8.32.523 3.812-1.731 3.984-1.731 3.984s.691 5.028-1.563 7.801c-2.25 2.774-6.757 1.215-6.757 1.215s1.386-1.734 2.078-3.293c.695-1.563.52-2.426.52-2.426-2.079.692-4.16-1.043-5.372-2.773-1.215-1.735-1.215-4.508.172-6.242 1.387-1.735 1.734-2.598-.172-3.641-1.906-1.04-2.773-2.078-4.16-1.73-1.387.343-3.988.171-5.895.171-1.906 0-5.027 2.078-6.757 3.985-1.735 1.91-3.121 1.91-3.817 4.336-.691 2.425-3.293 4.16-5.547 4.16-2.25 0-4.16-.172-4.16-.172 0 3.637-1.386 6.41-1.386 6.41-3.293-1.387-3.465-4.332-3.465-7.453 0-3.117 1.215-4.852 1.215-4.852s-.176-1.386 0-2.43c.171-1.038 1.906-2.077 3.117-3.464a24.316 24.316 0 0 0 2.082-2.774s-3.293 1.215-6.414.696c-3.121-.524-3.989-3.293-3.989-3.293s-.691 2.25-.863 3.636c-.176 1.387-1.562 2.602-1.562 2.602-2.598-1.387-2.946-6.066-1.907-8.668 1.04-2.598 3.641-3.117 3.641-3.117 0-1.043 1.039-1.563 1.039-1.563-2.078 0-3.64-2.597-3.64-2.597s-2.254.343-2.598 1.902c-.348 1.563-2.082 2.95-2.082 2.95-2.426-4.16 1.215-8.84 2.949-10.055 1.73-1.211 3.293-.344 3.293-.344s.344-1.563 2.773-2.95c2.426-1.386 6.727-3.292 9.188-5.546 2.078-1.907 3.637-2.078 5.2-1.907 1.55.172 3.812 1.215 7.105 3.989 3.292 2.773 6.757 4.851 9.359 4.851a9.813 9.813 0 0 0 2.96-.484l.427-.168c-2.485-4.11-.93-7.883 1.64-11.652 2.602-3.817 2.078-4.16 3.121-7.63 1.04-3.464 3.813-6.066 3.813-6.066-.867-8.664 5.027-13.691 8.144-16.293 3.121-2.597 11.79-7.8 16.47-11.265 4.679-3.465 7.28-7.11 7.28-7.11s-1.562-1.039-5.547-3.117c-3.988-2.082-3.816-6.238-3.816-6.238-7.45-2.43-5.547-7.977-5.547-7.977s-6.238-1.558-12.304-4.504c-6.067-2.949-3.641-8.148-3.641-8.148-9.535-3.813-6.066-10.398-6.066-10.398-9.532-4.508-15.598-9.364-15.946-13-.347-3.641.863-3.989.863-3.989-9.183-5.718-12.304-10.746-12.132-13.867.175-3.117 5.722-.691 5.722-.691-12.656-8.668-14.906-15.426-14.562-18.028.347-2.601 3.64-2.425 3.64-2.425-9.359-7.11-12.757-13.938-10.746-15.95.868-.867 3.813-1.21 3.813-1.21-6.238-7.458-7.973-11.79-6.934-15.95.68-2.71 4.508-1.558 4.508-1.558-7.625-13.52-7.625-17.68-6.066-19.414 1.558-1.735 3.465-.52 3.465-.52-3.293-8.84-5.024-18.027-2.598-20.105 2.426-2.082 5.894 1.382 5.894 1.382-1.734-23.746.172-29.293 3.465-29.808 3.293-.524 5.028 4.16 5.028 4.16s.52-7.977 3.293-21.844c2.773-13.863 7.453-18.89 10.054-19.238 2.598-.348.52 7.277.172 15.426-.348 8.148 1.04 17.68 1.04 17.68 5.374-19.758 9.929-27.86 13.952-27.993 3.903-.129 3.727 4.418 3.727 4.418 11.441-20.105 21.668-27.039 23.922-26.52 2.254.52-1.563 5.895-9.016 21.149-7.45 15.254-9.969 31.578-11.094 44.2-1.297 14.605-.129 33.714-.129 33.714 1.43-2.21 2.211-1.95 2.86.39.976 3.505.91 4.16 3.512 12.739 2.601 8.578 5.46 15.34 8.667 21.102 5.504 9.89 13.172 17.68 17.504 21.32 4.336 3.64 17.16 11.96 25.48 17.855 6.962 4.93 15.427 13.52 15.602 20.797.172 7.281.172 12.828.172 12.828 1.387.172 3.293-.867 7.11-3.293 3.812-2.425 7.625-2.597 7.625-2.597.867-8.149 10.226-18.028 19.066-23.922 8.84-5.895 23.055-14.906 31.547-22.016 13.094-10.953 18.719-28.078 22.012-39 3.293-10.918 4.16-29.984 4.16-29.984s5.203 4.68 6.59 11.96c0 0 9.183-12.48 12.824-12.652 3.64-.175 3.293 1.387 3.293 1.387s7.105-12.137 12.308-17.508c5.2-5.375 7.797-2.425 7.797-2.425s2.426-5.375 4.16-9.188c1.735-3.812 1.907-9.187 2.95-8.668 1.039.52 1.734 2.774 1.734 2.774s3.844-8.665 6.582-18.2c5.031-17.507 7.281-28.773 10.402-28.601 3.122.176 4.332 7.281 3.293 30.16 0 0 5.028-9.36 10.055-21.84s7.277-17.504 9.531-16.984c2.254.52 3.121 4.16 2.254 18.199-.867 14.039-5.023 29.812-5.023 29.812s4.68-6.933 7.277-6.757c2.602.171 3.938 5.425 2.426 13.171-2.773 14.211-14.906 34.668-14.906 34.668s6.933-6.414 12.308-11.093c5.371-4.684 8.493-5.895 8.32-.524-.175 5.375-3.468 14.39-8.32 22.535-4.855 8.149-10.574 14.907-10.574 14.907s7.625-5.72 11.785-7.973c4.16-2.254 9.188-3.117 9.016.348-.176 3.464-5.027 15.425-27.215 34.84 0 0 7.973-5.204 13-5.72 5.027-.523 8.32 2.255 5.371 6.587-2.945 4.332-10.223 11.61-22.012 19.066 0 0 9.707-3.121 14.387-2.601s5.723 4.16 3.64 7.453c-2.077 3.293-8.667 8.32-32.933 18.722 0 0 7.281-.347 11.442 1.907 4.16 2.253 2.828 6.918-2.602 10.398-6.758 4.336-17.852 6.934-17.852 6.934s7.454.347 10.399 3.64c2.95 3.293-3.469 12.48-20.453 13.692 0 0 2.511 3.062-1.73 6.761-4.243 3.696-12.657 4.68-20.11 4.852 0 0 4.336 3.988 1.215 8.496-3.121 4.504-9.36 4.504-16.121 4.332 0 0 9.066 3.672 19.586 9.664 13.695 7.8 32.07 20.149 33.972 27.95 0 0 4.684 4.16 6.934 7.972 2.254 3.812 1.734 8.32-2.25 8.32 0 0 2.426 4.68-.524 7.106-2.945 2.43-9.359.867-9.359.867s3.297 3.812 1.04 6.934c-2.25 3.12-15.427 0-15.427 0s3.121 2.949 1.563 5.546c-1.563 2.598-9.707 2.082-15.43-.691 0 0 .52 2.598-2.426 3.984-2.945 1.387-9.011.696-15.078-3.64 0 0 1.387 2.773-.176 4.68-1.558 1.906-10.398-1.735-16.12-7.278 0 0-2.426 1.211-6.239-.695-3.812-1.906-9.012-7.973-13.867-16.293 0 0-1.559 6.933-3.985 10.746-2.43 3.816-4.683 1.734-5.546-1.559 0 0-.348 6.758-3.641 11.266s-6.762 3.64-7.453 1.562c0 0-1.211 3.293-3.64 4.332-2.126.91-3.716-.835-4.083-1.285l-.094.274"/><path style="stroke:none;fill-rule:nonzero;fill:#fff;fill-opacity:1" d="m211.059 93.8-6.207.43 1.14-32.539 26.336-1.832-1.14 32.543-6.114.422.953-27.215-14.015.973-.953 27.219m49.738-34.969-.485 4.07c10.829.66 13.489 4.305 12.536 12.352-.957 8.098-4.47 11.66-15.418 12.031l-.493 4.164-6.125-.082.493-4.164c-10.64-.656-13.063-4.297-12.106-12.394.953-8.047 4.23-11.614 14.992-11.989l.48-4.07 6.126.082m-8.89 23.316 1.683-14.226c-6.43.148-7.63 1.96-8.227 7.016-.586 4.96.215 6.894 6.543 7.21m7.809-14.191-1.688 14.273c6.75-.097 7.961-2.003 8.551-7.011.61-5.149-.156-6.985-6.863-7.262m35.914 26.547c-1.234-12.922-3.762-15.926-9.258-17.371l-4.168 15.125-6.05-1.016 8.777-31.844 6.047 1.012-4.23 15.352c3.421-2.153 10.179-7.188 16.741-13.258l7.328 1.23c-8.128 7.239-13.652 11.286-15.625 12.344 3.454 1.914 6.094 4.508 7.63 19.629l-7.192-1.203M90.148 151.691l-28.894 14.207.25.57c6.91 15.735 9.726 31.93 11.246 42.743l.125.887 12.531-6.16-.058-.458c-1.317-10.816-3.864-21.128-7.97-32.382.821-.403 5.821-2.86 6.747-3.317.55 1.121 14.566 29.625 14.566 29.625l11.805-5.8-19.766-40.2-.582.285m48.883-18.808-13.492 5.144.016.461c.043 1.36.066 2.828.066 4.367 0 4.551-.195 9.7-.535 14.47-4.746-5.15-9.957-10.24-13.86-13.485l-.288-.242-14.961 5.703.91.707c8.144 6.316 20.074 17.906 25.746 24.027-.613 4.024-1.79 9.535-2.778 12.985l-.359 1.246 15.844-6.04.062-.367c1.98-11.718 4.348-31.414 4.512-48.367l.008-.949-.89.34m40.042-11.008-31.097 8.344.136.605c2.02 9.055 2.977 18.473 2.977 29.41 0 .883-.008 1.782-.02 2.688-.828.219-7.187 1.926-7.187 1.926l7.176 20.867 11.52-3.09s-2.2-8.191-2.49-9.281c1.165-.313 24.458-6.563 25.626-6.875l2.488 9.281 11.461-3.074-4.234-21.656s-6.29 1.683-7.336 1.968l-8.395-31.281-.625.168m-9.023 14.617c.304 1.145 5.031 18.762 5.336 19.903-1.047.28-9.465 2.539-10.797 2.898-.024-6.43-.598-13.106-1.797-20.852.89-.242 6.258-1.68 7.258-1.949m44.523-21.707c-8.16 1-13.164 3.192-16.226 7.11-3.164 4.05-4.157 9.867-3.121 18.3 1.07 8.72 3.632 14.555 7.843 17.84 3.95 3.09 9.414 4.082 17.2 3.125 15.675-1.922 21.23-9.57 19.164-26.394-1.036-8.438-3.403-13.84-7.457-17.008-3.91-3.055-9.274-3.973-17.403-2.973m1.504 12.25c3.586-.441 5.625-.496 6.817.434 1.421 1.113 1.984 3.832 2.632 9.133.711 5.773.836 8.789-.363 10.32-.965 1.238-2.988 1.695-6.383 2.113-7.285.895-8.27.586-9.617-10.426-1.254-10.222-.484-10.664 6.914-11.574m28.188-13.215-1.2 44.125 13.211.364s.868-31.754.899-33c1.215.03 19.836.539 19.836.539l.324-11.778-33.05-.898-.02.648m41.218 4.743c-4.195 2.972-6.808 8.261-8.234 16.636-2.84 16.711 2.371 24.61 17.988 27.266 7.696 1.308 13.184.566 17.262-2.328 4.36-3.09 7.191-8.809 8.664-17.473 1.426-8.383.703-14.238-2.273-18.434-2.871-4.046-7.75-6.464-15.82-7.835-8.11-1.38-13.532-.711-17.587 2.168m11.805 31.855c-7.234-1.23-8.09-1.809-6.23-12.742 1.726-10.16 2.593-10.363 9.945-9.113 7.293 1.242 8.035 1.718 6.312 11.875-1.859 10.937-2.847 11.199-10.027 9.98m35.504-27.316-12.39 42.367 12.683 3.71 3.59-12.277c1.133.328 12.793 3.743 12.793 3.743 3.058.89 6.058.609 8.676-.825 3.476-1.902 6.199-5.718 7.671-10.738 3.04-10.39.559-16.832-7.363-19.148l-25.476-7.454-.184.622m9.648 14.093 8.418 2.465c.922.27 1.715.793 1.715 2.457 0 .735-.156 1.688-.52 2.938-.566 1.933-1.304 3.164-2.187 3.644-.504.278-1.078.317-1.75.121l-8.36-2.449c.302-1.027 2.38-8.144 2.684-9.176m32.981-.957-16.05 41.121 32.25 12.59 4.284-10.972s-18.804-7.34-19.941-7.786c.344-.882 1.637-4.187 1.98-5.07l14.36 5.606 4.215-10.797-14.36-5.606c.32-.816 1.207-3.094 1.527-3.91 1.133.445 19.938 7.785 19.938 7.785l4.285-10.972-32.25-12.59-.238.601m40.355 16.172-19.882 39.414s28.695 14.477 29.808 15.035l-4.324 8.582 10.59 5.34 11.277-18.969-6.785-3.421c.562-1.11 14.586-28.914 14.586-28.914L439.3 163.55l-14.586 28.918c-1-.504-10.43-5.262-11.434-5.77.563-1.11 14.59-28.914 14.59-28.914l-11.8-5.953-.294.578"/><path style="stroke:none;fill-rule:nonzero;fill:#006433;fill-opacity:1" d="M238.418 547.117c.312.715.715 1.442 1.234 2.176 2.078 2.945 2.254 4.16.696 4.16-1.563 0-1.387 1.563-1.387 1.563s-1.387-.176-1.563-2.95c-.171-2.773-.171-3.64-.171-3.64s-2.082 1.91-2.082 6.066c0 4.16 1.562 7.281 3.292 7.281 0 0 5.895 7.801 9.364 5.375 2.914-2.043 3.465-4.68 3.812-9.535.035-.496.078-1 .13-1.504l.195.07c2.511 1.532 3.917 2.301 3.917 2.301s22.676-12.39 48.43-36.82l.207-.18a11.6 11.6 0 0 0 1.547.946c3.813 1.906 6.238.695 6.238.695 5.723 5.543 14.563 9.184 16.121 7.277 1.563-1.906.176-4.68.176-4.68 6.067 4.337 12.133 5.028 15.078 3.641 2.946-1.386 2.426-3.984 2.426-3.984 5.723 2.773 13.867 3.29 15.43.691 1.558-2.597-1.563-5.546-1.563-5.546s13.176 3.12 15.426 0c2.258-3.122-1.039-6.934-1.039-6.934s6.414 1.562 9.36-.867c2.949-2.426.523-7.106.523-7.106 3.984 0 4.504-4.508 2.25-8.32-2.25-3.813-6.934-7.973-6.934-7.973-1.699-6.96-16.511-17.543-29.414-25.285l.266-.426a213.768 213.768 0 0 0 11.644-23.687 208.578 208.578 0 0 0 4.825-12.793l.156-.367c13.765-2.301 18.847-10.188 16.164-13.188-2.945-3.293-10.399-3.64-10.399-3.64s11.094-2.598 17.852-6.934c5.43-3.48 6.762-8.145 2.602-10.398-4.16-2.254-11.442-1.907-11.442-1.907 11.309-4.847 18.777-8.527 23.738-11.406l.797-.18 87.602-15.593.55-.036c-1.206 11.254-2.816 22.168-4.827 32.778-10.602 55.883-32.211 103.773-66.051 146.41-45.531 57.363-89.516 89.09-118.399 105.602-24.593 14.058-42.648 19.757-49.336 21.574-6.687-1.817-24.742-7.516-49.336-21.574-28.882-16.512-72.87-48.239-118.398-105.602-23.46-29.555-41.04-61.637-53.148-97.148l-.125-.266 105.73-18.828.195-.059c-2.941-8.953-5.234-17.906-6.984-26.738l-.176.047L26.98 418.66l-.035-.312a376.716 376.716 0 0 1-2.851-12.137l.332-.024 100.855-17.953.317-.054c.12 3.14 3.363 7.972 12.132 13.433 0 0-1.21.348-.863 3.989.14 1.468 1.211 3.136 3.07 4.902l.075.262c2.468 9.683 5.644 19.453 9.68 29.156 5.32 12.793 11.734 24.566 18.742 35.316l.136.2c-1.043.726-1.933 1.382-2.586 1.921-3.117 2.602-9.011 7.63-8.144 16.293 0 0-2.774 2.602-3.813 6.067-1.043 3.469-.52 3.812-3.12 7.629-2.571 3.77-4.126 7.543-1.641 11.652l-.426.168a9.813 9.813 0 0 1-2.961.484c-2.602 0-6.066-2.078-9.36-4.851-3.292-2.774-5.554-3.817-7.105-3.989-1.562-.171-3.121 0-5.2 1.907-2.46 2.254-6.76 4.16-9.187 5.547-2.43 1.386-2.773 2.949-2.773 2.949s-1.563-.867-3.293.344c-1.734 1.214-5.375 5.894-2.95 10.054 0 0 1.735-1.386 2.083-2.949.344-1.559 2.597-1.902 2.597-1.902s1.563 2.597 3.641 2.597c0 0-1.039.52-1.039 1.563 0 0-2.602.52-3.64 3.117-1.04 2.602-.692 7.281 1.906 8.668 0 0 1.386-1.215 1.562-2.602.172-1.386.863-3.636.863-3.636s.868 2.77 3.989 3.293c3.12.52 6.414-.696 6.414-.696s-.867 1.387-2.082 2.774c-1.211 1.387-2.946 2.426-3.118 3.465-.175 1.043 0 2.43 0 2.43s-1.214 1.734-1.214 4.85c0 3.122.172 6.067 3.465 7.454 0 0 1.386-2.773 1.386-6.41 0 0 1.91.172 4.16.172 2.254 0 4.856-1.735 5.547-4.16.696-2.426 2.082-2.426 3.817-4.336 1.73-1.907 4.851-3.985 6.757-3.985 1.907 0 4.508.172 5.895-.172 1.387-.347 2.254.692 4.16 1.73 1.906 1.044 1.559 1.907.172 3.642-1.387 1.734-1.387 4.507-.172 6.242 1.211 1.73 3.293 3.465 5.371 2.773 0 0 .176.863-.52 2.426-.69 1.559-2.077 3.293-2.077 3.293s4.507 1.558 6.757-1.215c2.254-2.773 1.563-7.8 1.563-7.8s2.254-.173 1.73-3.985c-.52-3.813 2.082-5.2 1.91-8.32-.175-3.121-2.082-3.989-3.988-5.028-1.906-1.039-3.547-3.082-2.426-6.066.958-2.555 3.485-4.52 5.934-6.219l.34-.223c.5-.148 1.008-.312 1.523-.492 0 0-.132-.11-.34-.304l.254-.196c.88-.605 1.692-1.183 2.34-1.754.176-.152.352-.308.531-.468l-.007.328c-.282 1.816-.532 4.414-.348 7.25.223 3.457 5.023 5.37 5.023 5.37.868 9.016 5.895 6.067 9.536 1.563 3.64-4.508 3.12-6.59 3.12-6.59s2.255 1.387 5.372.176c3.12-1.215 5.203-3.812 5.203-3.812 2.176 4.683 5.324 2.902 8.348-.973l.289.262a290.061 290.061 0 0 0 21.152 18.015l.379.286c.055.16.11.304.164.433l.691 1.735s.27-.34.594-1.016l6.84 4.906"/><path style="stroke:none;fill-rule:nonzero;fill:#fff;fill-opacity:1" d="m209.277 622.188-4.52-24.055-6.628 4.246-3.106-5.895 15.27-9.199 6.297 33.531-7.313 1.371m31.602-16.374c-.559.085-2.469.261-2.89.289-9.294.617-12.27-1.809-12.762-9.188-.563-8.5 2.39-11.324 11.777-11.95 10.226-.679 12.828 1.774 13.398 10.368.43 6.434-1.398 11.938-4.68 16.895-5.19 7.859-15.992 8.785-15.992 8.785l-.91-6.633c2.34-.258 6.11-1.297 8.97-3.64 2.526-2.067 3.089-4.927 3.089-4.927m1.484-6.57c.13-.851.117-1.742.055-2.676-.29-4.343-1.223-4.984-4.957-4.734-3.875.258-4.649 1.34-4.45 4.328.216 3.223 1.052 3.824 5.536 3.524 1.215-.079 2.562-.215 3.816-.442m13.828 10.356.145-2.57c3.855-6.11 10.5-15.91 14.937-21.473l9.625.539-1.039 18.504 4.207.238-.355 6.309-4.203-.239-.438 7.758-7.195-.402.434-7.758-16.118-.906m17.122-16.946c-2.715 3.27-6.145 8.422-7.797 11.141l7.148.402.649-11.543m43.718-.906-1.222 6.484-13.75-2.59-1.04 5.516a38.57 38.57 0 0 1 3.2.461c9.105 1.715 11.254 4.977 9.883 12.246-1.575 8.371-5.301 10.192-14.684 8.426-3.035-.574-8.098-2.004-10.508-3.125l2.621-6.316c1.598.87 5.215 1.886 7.422 2.304 5.29.996 6.414.586 7.004-2.539.606-3.218.008-4.093-5.512-5.133-2.25-.425-5.55-.855-7.672-.972l3.516-18.672 20.742 3.91"/><path style="stroke:none;fill-rule:nonzero;fill:#006433;fill-opacity:1" d="M356.746 437.723a205.703 205.703 0 0 1-11.305 22.972l-.253.461c-10.36-5.863-19.215-9.449-19.215-9.449 6.761.172 13 .172 16.12-4.332 3.122-4.508-1.214-8.496-1.214-8.496 5.703-.133 11.969-.738 16.496-2.672l-.629 1.516M253.164 550.188c1.035.652 1.938 1.207 2.691 1.664 6.614-3.997 24.465-15.497 44.211-34.184l.149-.164c-2.594-2.895-5.371-6.79-8.043-11.371 0 0-1.559 6.933-3.985 10.746-2.43 3.816-4.683 1.734-5.546-1.559 0 0-.348 6.758-3.641 11.266s-6.762 3.64-7.453 1.562c0 0-1.211 3.293-3.64 4.332-2.126.91-3.716-.835-4.083-1.285l-.094.274c-1.058 1.902-2.41 2.918-2.41 2.918s0 .691-.52 2.254c-.523 1.558-1.905 4.507-4.855 7.625-1.41 1.496-2.382 3.504-3.054 5.726l.273.196M147.398 416.066a201.352 201.352 0 0 0 7.575 21.657c5.14 12.363 11.359 23.77 18.164 34.203l.183.332c3.23-2.121 6.715-4.371 9.133-6.164 4.68-3.465 7.281-7.11 7.281-7.11s-1.562-1.039-5.547-3.117c-3.988-2.082-3.816-6.238-3.816-6.238-7.45-2.43-5.547-7.977-5.547-7.977s-6.238-1.558-12.304-4.504c-6.067-2.949-3.641-8.148-3.641-8.148-9.535-3.813-6.066-10.398-6.066-10.398a80.147 80.147 0 0 1-5.504-2.86l.09.324m81.863 85.234a258.192 258.192 0 0 0 8.605 7.485l.196.203c-.524 2.176-.672 4.696-.696 6.504l-.222.074c-1.93.305-4.02 1.325-5.118 3.047-1.214 1.907-2.425 2.774-3.64 4.16-1.215 1.387-3.64 2.774-3.469 6.243.008.156.02.316.035.472l-.254-.207a287.689 287.689 0 0 1-13.293-11.843l-.172-.18c.543-1.594.555-2.586.555-2.586s.606-.043 2.34-.91 2.816-2.778 2.816-2.778c.52 3.645 5.895.696 10.746-7.625.47-.8.891-1.562 1.274-2.289l.297.23"/><path style="stroke:none;fill-rule:nonzero;fill:#fff;fill-opacity:1" d="M187.348 500.762c.523-1.301.78-2.864.78-2.864-1.558-.777-5.718.524-9.62 1.954-3.899 1.43-6.887 1.687-8.969.91-2.078-.782-2.078-2.34-1.039-2.602 1.04-.262 2.34-.262 2.34-.262 1.558 1.043 5.2 1.43 7.148-.52 1.95-1.948 1.692-5.07.653-7.276-1.043-2.211-1.043-2.602 1.43-4.942 2.468-2.34 3.25-4.031 3.25-4.031s-2.731 2.601-6.633 4.422c-3.899 1.82-3.899 4.55-4.16 7.41-.258 2.86-4.938 5.328-6.887 5.2-1.953-.13-2.082-3.122-2.993-3.25-.91-.13-3.25-1.56-3.25-1.56s-.39-7.8 4.942-12.351c5.328-4.55 11.437-8.578 16.508-11.828 5.07-3.25 10.793-9.492 14.82-15.344 4.031-5.848 2.34-10.918 7.152-12.476 0 0 .39 2.597.258 6.757 0 0 7.281-8.187 15.211-8.968 0 0-1.168 3.64-5.2 8.71-4.03 5.07-5.718 8.06-6.109 10.66 0 0 4.418-2.081 9.88-4.94 5.46-2.86 9.359-6.372 9.359-6.372s.261 1.82-1.692 7.153c-1.949 5.328-5.199 9.75-7.148 12.738-1.95 2.988-2.34 3.379-2.34 3.379s5.852-7.278 8.45-8.707c2.6-1.434 8.972-3.903 12.09-5.59 3.12-1.692 5.46-3.902 5.46-3.902s1.04 3.378-.781 6.109c-1.82 2.73-4.68 4.941-4.68 4.941s1.563.52 2.86.39c0 0-1.297 2.34-5.067 5.981-3.773 3.637-6.242 5.98-7.41 8.32 0 0 6.629-5.46 11.828-5.331 0 0-.91 1.558-3.25 3.898-2.34 2.344-4.16 3.64-4.418 6.113 0 0 3.379-2.472 6.887-3.511 3.512-1.04 7.152-1.04 7.152-1.04s.13 1.04-2.992 3.508c-3.117 2.473-6.11 3.25-6.11 3.25s1.95.653 2.993.782c0 0 .129 1.039-1.43 1.43-1.562.39-3.383 3.25-8.062 4.16-4.68.91-13.649 1.949-19.5 3.12-5.848 1.169-16.121 3.641-22.489 9.098 0 0 .258-1.43.778-2.726m12.87-22.621s7.153-5.98 9.88-9.75c2.73-3.77 3.382-4.942 3.382-4.942s-5.203.13-9.62 4.68c0 0 4.68-2.34 7.019-2.86 0 0-1.04 1.95-4.941 5.981-3.899 4.031-5.72 6.89-5.72 6.89m23.79-26.261c-1.04 2.73-4.809 6.762-4.809 6.762 5.59-3.77 4.809-6.762 4.809-6.762M332.95 463.45s8.71 3.378 23.788 12.741c15.082 9.36 21.582 14.168 25.48 18.329 3.903 4.16 4.032 6.5 2.993 7.93-1.043 1.429-2.34 1.429-9.363-1.56-7.02-2.992-21.578-13.128-27.43-17.16-5.848-4.03-15.73-11.44-15.73-11.44s2.34-.392 3.511-1.43c0 0 15.078 9.1 24.18 14.949 0 0-14.559-10.66-23.79-16.77 0 0-1.038-2.86-3.64-5.59"/><path style="stroke:none;fill-rule:nonzero;fill:#fff;fill-opacity:1" d="M334.508 474.89s2.863 1.82 10.27 7.15c7.41 5.331 18.593 13.26 25.48 17.16 6.89 3.902 11.05 5.198 12.613 7.41 1.559 2.21-.133 4.288-1.172 4.94-1.039.65-6.5.778-10.789-1.429-4.289-2.21-13.781-8.973-21.32-14.043-7.54-5.066-14.3-9.879-14.3-9.879s2.6-.258 3.64-.52c0 0 6.757 4.942 15.597 10.532 8.844 5.59 15.864 8.45 15.864 8.45s-18.59-10.79-30.813-20.54c0 0 .262-4.031-5.07-9.23m-1.949 11.179s10.14 6.89 20.02 13.52c9.882 6.629 16.382 11.7 19.5 14.691 3.12 2.989 2.858 5.07-.392 5.59-3.25.52-9.097.129-14.687-2.73-5.59-2.86-19.11-11.961-29.121-20.41 0 0 7.41 1.69 9.23.39 0 0 15.079 8.578 21.059 13.129 0 0-13.91-10.79-20.797-14.95 0 0-.523-4.16-4.812-9.23m-4.809 11.828s.39 2.73-.262 4.813c0 0 5.461 5.59 14.172 11.57 0 0-9.75-5.851-15.34-10.531 0 0-5.46-.129-11.832-5.07 0 0 2.86 4.941 15.082 13.52 12.22 8.581 15.73 11.179 22.75 13.519 3.41 1.14 6.63.91 6.758-1.04.133-1.949-1.687-4.679-7.41-8.71-5.719-4.028-23.918-18.07-23.918-18.07"/><path style="stroke:none;fill-rule:nonzero;fill:#fff;fill-opacity:1" d="M315.66 501.148s3.113 3.864 14.95 12.743c8.32 6.238 12.87 9.75 13.261 10.918.387 1.171-.652 3.12-2.863 3.64-2.207.52-8.059-1.3-12.48-4.937-4.419-3.64-13.778-11.832-19.5-20.934 0 0 2.081 1.172 3.25 1.172 0 0 7.933 7.93 12.48 11.7 0 0-7.797-7.93-10.528-11.829 0 0 1.297-.133 1.43-2.473"/><path style="stroke:none;fill-rule:nonzero;fill:#fff;fill-opacity:1" d="M298.629 494.52s4.55 4.421 9.23 7.539c0 0 2.34 4.55 8.97 11.832 6.632 7.28 9.882 10.14 10.66 12.218.78 2.082 0 3.77-1.688 3.512-1.692-.262-6.113-2.21-9.23-4.941-3.122-2.73-5.981-5.98-10.66-11.961-4.099-5.23-8.15-10.614-9.774-15.438-1.016-3.02-.008-3.844 1.582-1.07 4.031 7.02 7.152 10.789 12.48 15.988 0 0-5.199-6.5-8.578-11.57-3.383-5.07-6.242-8.969-2.992-6.11"/><path style="stroke:none;fill-rule:nonzero;fill:#faa63b;fill-opacity:1" d="M172.398 496.602c1.465-1.34 3.524-.305 4.032-2.34.39-1.563-.39-5.203-.39-5.203s1.429.78 2.081 1.82c.649 1.043 1.168 4.941-1.3 6.242-2.473 1.3-5.981.91-4.423-.52"/><path style="stroke:none;fill-rule:nonzero;fill:#ffed90;fill-opacity:1" d="M259.629 535.73s-1.559 1.04-1.559 1.56c0 .519-.652 3.12-2.34 5.589 0 0 3.118-3.508 3.899-7.149"/><path style="stroke:none;fill-rule:nonzero;fill:#3a3f42;fill-opacity:1" d="M210.23 506.61s.258 2.992.391 4.812c.129 1.816-.523 5.976-2.473 8.707-1.949 2.73-4.289 4.16-5.199 4.031-.91-.129-2.34-1.691-1.82-4.68.52-2.992.781-5.46 2.34-7.152 1.558-1.687 4.808-4.418 4.808-4.418s-.648 3.77-1.687 6.762c-1.04 2.988-1.172 4.156 0 1.95 1.168-2.212 3.64-10.013 3.64-10.013m-11.832 3.903s.653 2.34 1.563 2.86c0 0 .129 3.898-1.3 7.148-1.43 3.25-5.59 5.46-7.02 5.07-1.43-.39-1.82-2.86-.91-7.41.91-4.551 1.949-6.5 3.378-7.801 1.43-1.3 3.121-1.168 2.34 2.34-.781 3.511-2.469 7.672-2.469 7.672s1.688-1.301 2.73-4.16a53.914 53.914 0 0 0 1.688-5.72m-18.308 11.036a81.617 81.617 0 0 0 2.445 3.527s-.082 1.426-.258 2.985c-.172 1.562-.3 2.296 0 2.082.305-.22.567-.996 1.086-2.602.52-1.601.672-2.316.672-2.316 4.66-3.836 3.242-8.266 2.75-12.848a41.14 41.14 0 0 1-.168-1.992l.281.527c.918 2.012 1.973 5.305 1.735 9.48-.121 2.13-.281 4.626-.762 6.5-1.043 4.032-5.594 9.098-6.89 9.098-1.301 0-2.731-.777-2.86-3.25-.129-2.41.363-7.05 1.719-11.5l.25.309m12.672-19.793c-1.371 2.848-2.34 5.941-.992 4.074 1.046-1.45 2.343-3.648 3.18-5.11l.394-.698c1.426-.633 2.976-1.188 4.965-1.762l-.211.539c-1.067 2.273-3.301 6.723-5.47 8.984-2.987 3.117-3.898 4.547-5.46 3.64-1.008-.589-1.91-1.89-2.457-3.616l-.14-.285c.05-1.426.214-2.079.214-2.079s.27-.726 4.856-3.468c.464-.278.918-.54 1.363-.786l-.242.567m13.113-4.492c-.504 1.222-1.156 3.09-1.234 4.668-.133 2.601-.653 3.379 1.168-.782.91-2.078 1.656-3.503 2.175-4.414l.243-.437c1.562-.324 3.027-.582 4.425-.809l-.035.328c-.23 1.664-1.074 5.747-4.078 9.754-3.898 5.2-6.762 6.371-7.8 5.59-1.04-.781-1.302-5.59 0-9.488a33.907 33.907 0 0 1 1.406-3.602l.14-.36c.922-.241 1.93-.495 3.047-.765.227-.054.453-.105.676-.16l-.133.477m13.113-2.367c-.648 1.421-1.672 3.757-2.258 5.605-.91 2.86-1.562 2.34-.39-1.559.515-1.718.93-2.933 1.23-3.753l.153-.434c-1.075.144-2.168.297-3.297.465l-.121.355c-.64 1.66-1.727 4.778-1.996 7.395-.391 3.77-1.168 10.011 1.171 9.36 1.63-.45 6.11-8.06 7.41-11.958a93.211 93.211 0 0 0 1.727-5.863l.125-.512c-1.203.207-2.39.387-3.586.555l-.168.344m9.297-1.418c-.808 1.75-2.347 5.046-3.367 6.894-1.43 2.598-1.82 2.469-.129-1.691.957-2.36 1.625-4.004 2.02-4.993l.175-.488c-.77.137-1.574.285-2.41.453-.222.047-.441.086-.66.13l-.055.331c-.336 1.84-1.242 6.102-2.84 8.598-2.082 3.25-2.859 6.238-2.859 6.89 0 .649 2.34 1.688 5.461-2.73 2.809-3.98 5.934-9.648 7.191-13.867l.133-.41a77.05 77.05 0 0 0-2.382.344l-.278.539"/><path style="stroke:none;fill-rule:nonzero;fill:#faa63b;fill-opacity:1" d="M181.05 520.676c-4.222-6.781-5.562-10.809-5.984-12.633l-.117-.352c.543-.761 1.246-1.437 2.13-1.73 2.6-.867 2.081.172 2.6 5.547a61.13 61.13 0 0 0 1.758 9.719l-.386-.551"/><path style="stroke:none;fill-rule:nonzero;fill:#ffed90;fill-opacity:1" d="M174.309 509.469c.285 1 .73 2.304 1.418 3.965l.078.28a20.295 20.295 0 0 1-3.926 3.817c-1.149.852-2.363 1.715-3.563 2.586l-.445.332c-.96-1.203-1.96-2.992-1.363-4.785 1.039-3.117 3.984-4.156 6.93-4.68 0 0 .222-.879.714-1.918l.157.403"/><path style="stroke:none;fill-rule:nonzero;fill:#3a3f42;fill-opacity:1" d="M173.43 517.953c-.211 1.527-.57 4.547-.38 6.336.259 2.473 1.169 5.07 1.95 5.2.734.124 2.04-5.04 4.031-9.118l.13-.285c-1.013-1.625-2.02-3.414-2.774-5.113l-.34.27a87.501 87.501 0 0 1-2.317 2.362l-.3.348"/><path style="stroke:none;fill-rule:nonzero;fill:#ffed90;fill-opacity:1" d="M251.309 550.29c-.782 2.6-1.301 7.41-1.688 10.66-.39 3.25-2.601 5.07-3.64 5.07-1.043 0-2.34-1.168-2.473-2.47-.13-1.3-1.297.91-2.078.259-.782-.649-.653-2.73-.39-4.028.26-1.3-.65-1.691-.65-3.511s1.56-1.82 2.731-1.301c1.168.52 2.598 2.472 2.727 3.64.132 1.172.261 2.211.652.391.39-1.82.129-2.73-1.3-3.898-1.43-1.172-2.602-2.473-2.99-3.383-.39-.91-2.245-3.418-3.51-6.239-1.266-2.82-1.173-6.37-1.173-6.37 1.344 2.644 2.864 3.769 2.864 3.769.129-2.34 1.558-6.89 2.34-7.54.777-.648 1.687-2.339 1.687-2.339s1.3.262 3.512-.91c2.21-1.168 2.988-3.25 2.988-3.25-.129 2.082 1.82 5.332 1.82 5.332s-.129 3.117-.129 5.848c0 2.73.91 5.851.91 5.851s-1.43 1.82-2.21 4.418m-1.688-13.258c-1.66.328-3.121-.261-4.031-.652-.91-.39-1.172.652.52 1.172 1.69.52 4.288.258 4.808.129.52-.13 0-.91-1.297-.649m-2.73 2.73c-1.938-.241-2.73.65-.91.778 1.82.133 2.597.52 4.027 1.563 1.43 1.039 2.082 1.039.652 0-1.43-1.043-1.691-2.082-3.77-2.34m-3.769 10.27c.649 2.077 1.297 2.077.906 1.167-.386-.91 0-1.386 0-3.25 0-1.687-1.558 0-.906 2.082m5.066 1.559c0 2.86-.128 4.422.262 2.988.39-1.43.613-3.25.52-4.68-.258-3.898-.781-1.168-.781 1.692M149.7 520.52c-1.231.488-3.02.91-5.25.652-2.595-.305-5.462-2.473-8.192-4.684-2.73-2.207-4.29-3.636-6.11-4.418-1.82-.78-4.68 1.559-7.41 3.508-2.73 1.953-5.46 2.863-7.41 4.422-1.95 1.559-.777 2.86-2.86 4.68-2.077 1.82.13 2.86 1.692 3.25 1.559.39 4.16-.91 6.89-2.602 2.727-1.687 3.9-4.027 6.5-6.758 2.598-2.73 4.548-1.691 7.02.39 2.47 2.08 4.938 3.642 7.93 4.161 2.988.52 6.371.129 6.371.129s-1.3.91-5.203.91c-3.898 0-6.758-2.469-8.32-3.64-1.559-1.168-3.77-2.079-5.2-2.079-1.43 0-3.25 1.297-4.937 4.028-1.691 2.73-4.813 4.422-7.023 6.37-2.208 1.95-1.168 2.99-1.95 4.423-.777 1.43-.91 1.949.133 3.25 1.04 1.297 2.86 2.207 5.067 1.558 2.21-.648 3.64-1.172 4.16-3.379.523-2.21 1.562-2.472 2.863-4.68 1.297-2.21 2.078-.91 3.508-.78 1.43.128 2.34.128 3.64-1.172 1.301-1.297 1.82.52 3.641 1.43 1.82.91 4.55 1.042 7.148.39 2.602-.649 2.211.262 0 1.172-2.21.91-6.37.129-7.668 0-1.3-.13-2.601-.91-6.761.777-4.16 1.692-3.899 3.121-4.68 6.5-.781 3.383-3.64 4.422-4.809 6.633-1.171 2.21-.132 1.687 1.297 1.82 1.434.13.782 1.559 0 3.38-.777 1.82 1.301 1.948 3.903 1.82 2.597-.13 3.25-2.602 3.898-4.032.652-1.43 0-2.34 1.43-2.34s2.082-1.43 2.34-2.988c.261-1.562.78-.39 1.562-.39.778 0 1.559-1.172 1.95-1.82.39-.65.78-1.56 1.43-.263.648 1.301 2.081-.777 2.6-1.558.52-.781 1.688 0 3.25.52 1.56.519 2.598-.13 4.028-1.169 1.43-1.043.652.258 2.34 1.82 1.691 1.56 2.863 1.95 4.031 1.04 1.172-.91 1.559-1.301.91.777-.648 2.082.13 1.563.649 2.082.523.52-.52 1.3-2.47 2.34-1.948 1.04-1.82 4.16-1.3 5.2.52 1.038 2.86 2.6 3.64 2.34.782-.259 2.47-2.599 3.512-2.731 1.04-.13 2.86-.778 2.86-2.079 0-1.3-.13-3.64.52-4.55.648-.91 1.949-3.121 1.167-5.461-.777-2.34-3.25-2.598-5.328-3.899-2.078-1.3-2.078-4.941.13-8.058.75-1.063 1.804-2.121 3.023-3.176l.32-.305c-6.746 1.262-11.43-.242-13.926-2.965l-.547.204m-38.531 3.511c.46-1.379.133-1.691-1.04-1.691-1.167 0-4.03 2.86-3.64 7.281 0 0 1.301-2.73 1.95-3.25.652-.52 2.21-.781 2.73-2.34"/><path style="stroke:none;fill-rule:nonzero;fill:#ffed90;fill-opacity:1" d="M114.418 533.262c.23-1.215-1.168-.91-2.469-.39-1.3.519-2.34 5.07-.648 8.187 0 0 .52-.52 1.168-3.637.652-3.121 1.558-2.082 1.949-4.16m6.5 24.566s.91-2.726.91-4.937c0-2.211 1.172-4.422.39-4.551-.78-.13-2.73-.13-3.12 2.86-.387 2.991-.13 4.94 1.82 6.628m37.051 2.731s1.949-3.38 1.949-4.809c0-1.43 1.3-3.25 2.34-3.379 1.043-.133.652 2.207.39 4.16-.257 1.95-1.558 3.508-4.68 4.028m82.68-43.028c-2.675-.136-4.55-.652-5.98.52-1.43 1.168-1.95 1.949-.258 1.949 1.688 0 1.43 1.43-.652 1.172-2.078-.262-2.598.387-3.637 1.558-1.043 1.168-.133 2.079 1.04 2.079 1.167 0 1.038.91-1.43.91-2.473 0-3.383 1.691-3.383 2.992 0 1.3.652 4.68 1.562 4.937.91.262 1.168-.128 1.82-1.82.649-1.687 1.82-1.168 2.079 0 .261 1.172.39 2.602 1.949 2.73 1.562.133 2.082-.648 2.34-2.597.261-1.95.39-4.16 1.3-5.723.91-1.558 3.122-3.117 3.77-4.418.652-1.3 2.082-4.16-.52-4.289"/><path style="stroke:none;fill-rule:nonzero;fill:#ffed90;fill-opacity:1" d="M249.488 515.059c-2.465-.82-4.027.91-4.68 1.953-.648 1.039-.91 1.297.391 1.687 1.301.39 2.86 1.301.649 1.301-2.207 0-4.16 2.34-3.118 2.34 1.04 0 4.028 1.558 1.95 1.43-2.082-.13-2.993.652-4.422 2.082-1.43 1.43-3.637 4.546-2.73 5.328.91.78 2.343 1.43 3.12.39.782-1.039 1.82-3.12 2.86-1.691 1.043 1.43 1.691 1.82 2.992 1.82 1.3 0 3.121-2.988 4.55-4.937 1.43-1.953 2.47-4.293 1.95-6.762-.52-2.469-1.563-4.29-3.512-4.941m9.75 2.731c-2.316-.36-2.86.26-3.508 2.21-.652 1.95-.652 1.559 1.168 1.82 1.82.258 3.512.258 1.172.39-2.34.13-3.12.392-3.511 1.302s.39.777 2.468.91c2.082.129 1.82.777-.386.777-2.211 0-3.383.781-4.16 2.082-.782 1.297-.91 2.73-.133 4.29.78 1.558 1.691 4.55 2.601 1.429.91-3.121 2.602-3.25 2.602-.52s.52 2.989 2.078 1.43c1.558-1.558 3.898-3.64 4.031-7.539.13-3.902-.262-7.93-4.422-8.582M236.36 551.07s-.65 3.77-.262 5.852c.39 2.078 2.082 4.027 2.082 2.078 0-1.95-.653-1.95-1.04-3.64-.39-1.688-.78-4.29-.78-4.29m-5.2-10.398s.778-3.902.39-5.203c-.39-1.297-.78-1.82-1.429-.91-.652.91 0 3.77 1.04 6.113m10.269-8.062c-1.223.406-1.82 1.3-2.86.91-1.043-.391-.652 1.558-.39 3.511.257 1.95 1.691 4.547 1.691 4.547s0-1.95.906-4.68c.91-2.726 1.043-4.418.653-4.289m14.82 2.731c-.754-.082-1.95 1.3-2.34 2.469-.39 1.171.258 5.332.258 5.332s1.953-2.211 2.21-3.38c.263-1.171 1.04-4.292-.128-4.421"/><path style="stroke:none;fill-rule:nonzero;fill:#ffe92d;fill-opacity:1" d="M163.559 497.64c.52 2.212 2.992 1.56 2.992 1.56s0 1.82 4.16 2.6c4.16.778 6.629-.519 9.879-1.562 3.25-1.039 6.37-1.168 6.37-1.168-1.17 3.38-3.12 7.282-2.339 10.532.777 3.25 1.04 6.109.906 9.097-.129 2.992-1.949 4.942-1.949 4.942s-2.078-8.192-2.598-12.871c-.52-4.68.391-7.93.391-7.93s-.91 0-4.55 1.3c-3.641 1.301-4.68 5.59-4.68 5.59s-3.77.258-6.371 3.508c-2.602 3.25.39 7.934.39 7.934-10.922 2.726-15.34-1.563-16.12-4.422-.583-2.133.39-5.2 2.339-8.059 1.95-2.863 2.86-4.68 2.86-4.68s3.25.387 5.46 1.688c2.211 1.301 2.602 1.172-.129-1.3-2.73-2.47-4.941-2.208-4.941-2.208s-.258-1.043 1.039-3.511c1.3-2.47 2.34-4.032 2.34-4.032s3.965.504 4.55 2.993m.13 3.25c-.88-.266-1.56 1.558-.258 1.82 1.3.258 2.86-1.04.257-1.82"/><path style="stroke:none;fill-rule:nonzero;fill:#b3b6b8;fill-opacity:1" d="M309.418 447.59s6.242 1.172 14.691 4.68c8.45 3.511 18.329 8.449 28.34 14.558 10.012 6.113 17.16 12.094 20.93 15.73 3.77 3.641 5.2 6.372 2.73 4.68-2.468-1.687-13.78-8.968-23.66-15.207-9.879-6.242-22.23-11.57-28.469-13.91-6.242-2.34-9.75-3.512-9.75-3.512s-.652-2.34-2.472-4.289c-1.82-1.949-2.34-2.73-2.34-2.73m-12.48 53.3c2.21 4.29 2.863 5.2 7.41 11.051 4.55 5.848 6.37 8.707 6.242 9.75-.13 1.04-4.813-.39-7.41-2.863-2.602-2.469-6.89-7.797-8.582-11.566-1.688-3.774-2.598-6.5-1.688-7.024.91-.52.649.39 3.117 4.684 2.473 4.289 4.684 6.5 4.684 6.5s-2.34-4.16-4.031-7.281c-1.692-3.121-2.336-8.286.257-3.25"/><path style="stroke:none;fill-rule:nonzero;fill:#b3b6b8;fill-opacity:1" d="M313.71 455.781s6.63 2.207 11.438 4.29c4.813 2.077 7.54 4.417 8.973 6.5 1.43 2.077.906 4.288-2.344 4.288s-8.316-.78-15.34-4.808c-7.019-4.031-9.75-5.852-7.277-6.371 2.469-.52 5.719 1.949 8.45 3.77 2.73 1.82 5.85 2.73 5.85 2.73s-4.55-2.86-7.933-5.2c-3.379-2.34-4.68-3.12-4.68-3.12s-.257-1.301-2.077-2.47c0 0 2.73 1.169 4.94.391"/><path style="stroke:none;fill-rule:nonzero;fill:#b3b6b8;fill-opacity:1" d="M307.21 461.371s8.06 5.848 13.388 7.93c5.332 2.078 10.53 2.73 10.53 2.73s2.34 2.73 4.68 5.848c2.34 3.121 2.731 5.723 1.563 6.633-1.172.91-5.46.258-8.844-1.434-3.379-1.687-10.007-5.457-15.988-10.527-5.98-5.07-8.059-7.281-8.059-7.281s.13-1.56 1.82-.258c1.688 1.297 11.7 8.316 17.419 11.566 0 0-5.461-3.508-11.442-8.187-5.976-4.68-6.5-6.11-6.629-6.63-.128-.523 1.563-.39 1.563-.39"/><path style="stroke:none;fill-rule:nonzero;fill:#b3b6b8;fill-opacity:1" d="M303.438 465.66s6.37 6.5 13.652 11.57c7.281 5.07 13.129 8.06 15.21 10.141 2.079 2.078 3.9 6.629 4.028 7.8.133 1.169-.648 1.688-3.379 1.43-2.73-.261-5.07-1.82-9.101-4.68-4.028-2.862-8.188-5.85-15.86-12.48-7.668-6.632-12.218-10.53-12.218-11.703 0-1.168 1.949-.386 4.68 1.692 2.73 2.082 20.148 14.691 20.148 14.691s-6.887-5.46-12.348-10.27c-5.46-4.812-8.063-6.5-8.063-7.41 0-.91.391-.132 3.25-.78m-5.847 6.37c2.152 1.883 10.398 9.098 17.68 14.95 7.28 5.847 9.878 7.539 10.918 10.66 1.042 3.12-.258 4.289-2.727 4.16-2.473-.13-7.934-3.38-12.352-7.281-4.421-3.899-13.78-13-14.82-15.34-1.039-2.34-.262-4.551 1.3-2.078 1.56 2.468 8.45 9.617 14.169 13.386 0 0-5.848-5.199-9.75-10.008-3.899-4.808-6.63-7.8-7.149-9.23-.52-1.43.649-1.04 2.73.781m-1.691 8.707c2.118 1.965 7.41 7.41 11.442 11.57 4.031 4.16 6.37 6.114 6.5 7.672.129 1.56-1.172 2.989-2.602 2.598-1.43-.387-5.07-2.726-9.23-6.5-4.16-3.77-7.278-5.976-7.41-8.058-.13-2.079.132-3.122 2.082-.52 1.949 2.602 8.449 8.059 8.449 8.059s-.649-.91-4.942-5.98c-4.289-5.067-6.109-10.528-4.289-8.84"/><path style="stroke:none;fill-rule:nonzero;fill:#5a5f62;fill-opacity:1" d="M344.39 296.79s5.329-7.93 9.88-13.65c4.55-5.718 6.757-7.28 8.19-5.59 1.43 1.688.778 5.329-1.17 10.009-1.95 4.68-7.669 13.39-9.88 16.25 0 0 7.41-10.008 11.18-12.868 3.77-2.863 6.93-1.71 7.148-.39.653 3.898-1.168 8.058-7.93 15.597-6.757 7.543-16.25 17.16-16.25 17.16s-2.859-.91-4.55 0c0 0 5.722-5.456 7.41-11.18 1.691-5.718-2.86-6.366-5.98-6.237 0 0 2.34-3.903 1.953-9.102m19.843 9.484c-3.523 3.883-11.394 12.391-18.023 18.336 0 0 4.289 7.672-8.453 14.43 0 0 2.992-.258 4.55.52 0 0 13.13-8.707 18.2-13.778 5.07-5.07 9.363-10.922 10.402-13.91 1.04-2.992.258-5.46-1.172-6.762-1.43-1.3-4.328-.129-5.504 1.164"/><path style="stroke:none;fill-rule:nonzero;fill:#5a5f62;fill-opacity:1" d="M313.84 353.469c4.937-.13 12.219-1.297 18.848-3.64 6.632-2.34 8.453-5.2 8.453-7.669 0-2.469-5.332-1.3-10.141-.648-4.813.648-9.23 1.43-9.23 1.43s8.32-2.731 14.43-5.204c6.109-2.468 8.32-6.11 8.968-8.316.652-2.211.262-4.813-1.688-4.813-1.953 0-4.421.52-7.8 2.602-3.38 2.078-6.762 4.55-6.762 4.55s.52-.78 4.422-3.902c3.898-3.12 8.058-7.41 11.18-11.96 3.12-4.547 3.507-7.278.78-8.06-2.73-.78-4.679.263-7.929 4.423s-7.281 9.226-7.281 9.226 1.3-2.726 6.238-9.097c4.942-6.371 6.11-10.141 6.371-14.301.262-4.16-2.86-2.078-6.37 1.172-3.509 3.25-8.321 9.879-8.321 9.879s.52 2.468.262 8.968c-.262 6.5-.13 10.532-1.43 14.563-1.3 4.027-2.602 4.547-5.07 7.02-2.47 2.468-4.032 4.68-5.461 8.058-1.43 3.379-2.47 5.719-2.47 5.719m-.651 1.562s-1.04 3.64-3.637 7.797c0 0 8.058.91 14.558-.52 5.145-1.128 11.57-5.718 11.051-8.058-.52-2.34-1.598-3.129-7.539-1.559-6.89 1.82-14.433 2.34-14.433 2.34"/><path style="stroke:none;fill-rule:nonzero;fill:#5a5f62;fill-opacity:1" d="M343.09 340.602s7.668-5.723 11.437-7.93c3.774-2.211 9.621-3.774 11.57-2.73 1.954 1.038 1.43 3.25-3.507 7.277-4.942 4.031-11.442 9.75-17.942 12.222-6.5 2.47-8.449 3.118-8.449 3.118s-.129-1.04-1.558-1.82c0 0 4.418-1.43 6.886-4.548 2.473-3.12 1.563-5.59 1.563-5.59m-6.5 13.52s.648 2.86-3.25 5.719c-3.902 2.86-6.242 3.512-6.242 3.512s2.34.91 3.382 2.207c0 0 10.008.261 16.899-2.598 6.89-2.86 12.48-5.852 14.039-8.191 1.562-2.34-.52-4.16-3.508-4.551-2.992-.39-8.191-.52-11.7.39-3.51.91-9.62 3.512-9.62 3.512m-27.82 10.008s-2.86 4.55-6.891 7.41c0 0 6.371.91 13.39.91 7.02 0 10.66-2.34 12.61-4.289 1.95-1.95-.91-3.25-2.988-4.031 0 0-7.02.91-16.121 0m21.84 2.992s-1.04 4.68-9.75 7.02c0 0 1.949 2.21 1.82 4.16 0 0 9.23 1.3 15.078.91 5.851-.39 13.52-3.77 15.21-5.07 1.692-1.301 1.302-3.77-2.077-5.07-3.383-1.301-6.891-2.34-10.793-2.34-3.899 0-9.489.39-9.489.39m-30.031 5.719s-5.328 4.941-8.707 6.89c0 0 3.77 1.43 13.52 2.079 9.75.652 13.777-1.04 14.687-2.207.91-1.172.39-4.813-2.469-5.07-2.859-.262-11.699-.52-17.03-1.692m21.839 7.41s-1.688 2.73-7.54 3.64c0 0 2.212 4.032-.91 6.63 0 0 2.47.91 11.31 1.69 8.843.778 14.562-.39 16.64-2.339 2.082-1.95 1.953-4.68-1.688-5.851-3.64-1.168-6.761-2.86-17.812-3.77m-32.109.648s-1.82.782-3.77 1.43c-1.95.652-2.73 2.992-3.379 4.422 0 0 9.23 2.602 15.988 3.512 6.762.91 11.57.386 13.262-1.301 1.688-1.691.52-4.813-1.691-5.07-2.211-.262-12.09.257-20.41-2.993m-7.539 7.543s-1.56 3.637-3.899 6.758c0 0 9.098 2.34 14.95 3.25 5.847.91 8.968.262 10.398-1.43 1.43-1.69 0-4.68-3.899-5.07-3.902-.39-10.402-1.168-17.55-3.508"/><path style="stroke:none;fill-rule:nonzero;fill:#5a5f62;fill-opacity:1" d="M306.3 392.73s2.079 4.29-2.991 7.282c0 0 12.218 2.86 18.59 2.86 6.37 0 10.53-1.95 11.18-3.384.651-1.43-1.212-4.125-4.81-4.808-5.46-1.04-9.492-1.559-15.73-2.73 0 0-2.34.519-6.238.78m-27.953 4.032s-1.82 4.027-5.59 6.629c0 0 4.812 1.558 12.742 2.73 7.93 1.168 11.05.52 11.57-1.562.52-2.079-1.43-3.637-7.02-5.07-5.59-1.43-11.702-2.727-11.702-2.727"/><path style="stroke:none;fill-rule:nonzero;fill:#5a5f62;fill-opacity:1" d="M297.98 401.05s1.688 1.821.91 4.419c-.78 2.601-7.152 3.383-7.152 3.383s1.563 1.82 1.692 2.859c0 0 4.808 1.559 15.988 2.21 11.18.65 15.473-1.042 16.64-1.69 1.172-.653.391-4.16-2.859-5.852-3.25-1.688-7.539-2.34-13.91-3.379-6.371-1.04-11.309-1.95-11.309-1.95m-26.39 3.25s-3.25 2.079-4.813 4.028c0 0 2.473 2.344 7.672 4.422 5.2 2.078 10.399 2.21 13.13 1.43 2.73-.782 4.55-2.989 2.339-4.418-2.207-1.434-4.29-2.082-9.617-3.121-5.332-1.04-8.711-2.34-8.711-2.34M266 409.11s-.652 1.69-2.602 6.109c-1.949 4.422-1.82 4.812-1.82 4.812s4.422 2.078 7.41 2.598c2.992.52 6.762-.258 8.711-.258 1.95 0 2.73-3.121 1.692-4.422-1.043-1.3-1.301-2.078-5.98-4.16-4.68-2.078-7.411-4.68-7.411-4.68m14.95 7.281s.78 2.86.128 4.81c0 0 3.64 1.429 11.832 3.12 8.188 1.692 14.168 1.04 16.899.649 2.73-.39 4.03-2.989 1.3-5.59-2.73-2.598-3.12-3.379-9.879-4.418-6.761-1.04-8.32-1.3-8.32-1.3s-1.039 1.429-5.07 2.077c-4.031.653-6.89.653-6.89.653m-.65 6.238s-3.902 1.691-8.062 1.691c0 0 .653 2.602 5.2 4.942 4.55 2.34 10.273 4.808 14.82 5.328 4.55.52 7.672-1.168 8.453-2.469.777-1.3-.652-3.64-3.512-4.812-2.86-1.168-5.07-1.43-9.879-2.73-4.812-1.298-7.02-1.95-7.02-1.95"/><path style="stroke:none;fill-rule:nonzero;fill:#3a3f42;fill-opacity:1" d="M332.559 437.578s8.191.262 15.082-.52c6.886-.777 10.27-1.949 12.48-4.027 2.207-2.082 2.598-5.851-2.473-5.722-5.07.132-20.148.52-29.507-.258l-9.364-.781h25.614c13.129 0 21.84-.13 28.34-2.47 6.5-2.34 8.449-5.46 9.097-6.628.652-1.172.91-3.25-2.598-4.422-3.511-1.172-8.062-2.078-14.562-1.95-6.5.13-19.11 1.688-26.39 2.212-7.278.52-9.227.648-9.227.648s-1.324.535-4.942 1.3c-6.761 1.43-13.78 1.169-13.78 1.169s1.3 1.172 4.679 2.082c3.383.91 11.441 1.039 23.14 1.039 11.7 0 20.672-.781 23.012-1.04 2.34-.26 1.82.259-1.562.911-3.38.649-13.258 1.43-22.489 1.43-9.23 0-18.59.39-20.539.129-1.949-.258-3.511-.91-3.511-.91s2.34 2.601 1.949 4.16c-.387 1.558-2.86 2.21-6.758 2.86l-3.902.651s5.332 1.04 16.12 2.207c10.79 1.172 14.43 2.082 2.34 1.301-12.09-.777-20.8-2.078-20.8-2.078s1.3 2.078 1.043 3.508c-.262 1.43-.39 1.562 8.32 2.601 8.707 1.04 11.957 1.43 11.957 1.43s-3.77.39-11.7-.52c-7.929-.91-10.14-1.562-10.14-1.562s-2.86 1.692-5.847 2.082c0 0 3.507 1.3 4.289 2.73 0 0 3.507.258 14.3 1.95 10.79 1.691 13.91 1.95 17.028 1.82 3.12-.129 5.46.781-.91.781-6.368 0-8.32-.39-17.29-1.562-8.968-1.168-12.738-1.559-12.738-1.559s.778 1.43.52 2.34c0 0 5.98.39 7.8 3.25 0 0 3.15.426 7.41 1.692 4.81 1.43 7.669 2.597 13.13 2.468 5.46-.129 10.007-1.43 11.441-3.64 1.43-2.211.387-4.809-.652-6.11-1.559-1.949-7.41-2.992-7.41-2.992m-7.019-32.109s4.288 2.992 4.03 6.89c0 0 11.051-.78 23.528-1.949 12.48-1.172 20.023-2.082 28.863-5.332s12.348-6.238 11.437-8.969c-.91-2.73-7.02-4.03-11.437-4.03-4.422 0-7.934.78-22.102 4.421-14.171 3.64-19.5 5.07-26.52 5.07 0 0-1.3 1.301-4.16 2.211 0 0 2.731 1.43 15.47.649 12.742-.782 25.222-3.121 29.902-4.418 4.68-1.301 4.808-.262-3.121 1.687-7.93 1.95-19.11 4.29-29.64 4.813-10.532.52-16.25-1.043-16.25-1.043"/><path style="stroke:none;fill-rule:nonzero;fill:#3a3f42;fill-opacity:1" d="M339.059 381.422s15.468-1.563 30.289-8.453c9.879-4.59 20.93-10.528 20.93-10.528s-10.657 7.278-21.708 12.22c-11.05 4.94-26.78 8.058-26.78 8.058 4.94 1.43 3.64 5.332 3.64 5.332s9.75-2.34 21.058-5.98c11.313-3.641 17.16-6.63 17.16-6.63s-.777.649-10.918 5.2c-10.14 4.55-27.562 8.578-27.562 8.578-.91 1.172-3.25 2.992-3.25 2.992s5.46-.133 16.64-2.992c11.18-2.86 20.153-7.02 27.95-10.27 7.8-3.25 4.812-1.3-4.418 2.86s-21.969 8.582-32.242 10.66c-10.27 2.082-17.16 2.601-17.16 2.601 3.64 2.34 2.082 5.2 2.082 5.2s7.668-.258 17.289-2.989c9.62-2.73 24.441-6.37 30.812-8.84 6.367-2.472 20.668-8.84 24.828-11.832 4.16-2.988 7.41-6.37 5.59-8.71-1.82-2.34-5.98-1.82-9.75-.91-3.77.91-12.09 4.16-15.21 5.722 0 0 3.12-4.031 8.448-7.8 5.332-3.77 11.832-8.192 15.602-12.09 3.77-3.9 6.351-6.794 5.2-8.712-1.169-1.949-4.743-1.953-12.61 2.082-10.399 5.329-18.328 9.75-18.328 9.75s14.558-10.921 22.488-19.37c7.93-8.45 14.43-16.641 15.601-19.891 1.168-3.25 1.43-4.16 0-4.809-1.43-.652-6.37 2.207-13 6.629-6.632 4.422-14.3 12.219-22.101 18.2-7.8 5.98-10.531 7.671-10.531 7.671s13.39-10.922 18.98-16.902 9.23-10.66 15.602-20.668c6.37-10.012 8.32-15.082 9.36-19.11 1.038-4.03 1.429-5.59.519-6.37-.91-.782-2.34.648-8.32 5.98-5.981 5.328-11.051 9.75-15.47 15.597-4.421 5.852-8.968 13.133-14.69 18.852-5.72 5.719-9.099 7.8-9.099 7.8s7.735-6.355 13.778-14.69c8.582-11.829 13.262-20.54 17.68-28.989 4.421-8.45 9.101-19.5 10.273-24.832 1.168-5.328 1.816-10.008.129-11.437-1.692-1.43-5.98 3.898-8.063 7.539-2.078 3.64-5.718 10.918-9.488 16.507 0 0 5.461-11.699 8.711-25.347 3.25-13.653 4.938-28.34 4.68-33.801-.262-5.46-.73-9.266-3.25-3.379-3.121 7.277-8.059 19.238-13.39 30.68C391.71 253.238 383 270.27 383 270.27s5.328-13.91 6.629-21.192c1.3-7.277 2.601-18.59 2.34-24.308-.258-5.72-.52-7.93-1.82-8.45-1.301-.52-2.86 4.032-4.68 10.399-1.82 6.37-3.899 16.25-7.54 25.742-3.64 9.488-4.03 10.008-4.03 10.008s1.69 4.031 1.562 6.633l-.133 2.597s4.422-8.449 7.152-19.37c2.73-10.919 4.028-17.419 4.028-17.419s-1.688 15.86-5.848 27.3c-4.16 11.438-8.84 18.59-13.39 25.09 0 0 4.418-.39 4.68 3.122 0 0 5.718-8.711 9.62-16.512 0 0-5.199 11.961-10.011 19.89 0 0-.258 3.77-4.16 8.579 0 0 1.69 0 3.25 1.043 0 0 11.18-15.473 19.5-31.203 8.32-15.73 11.312-24.828 11.312-24.828s-4.293 15.078-13.262 31.199c-8.969 16.12-16.25 26.262-16.25 26.262s1.559 3.378.52 7.668c0 0 11.96-13 18.719-24.051l6.761-11.047s-5.59 12.61-13.781 23.008c-8.188 10.398-13.777 15.992-13.777 15.992s-2.993 5.2-7.672 9.617c0 0 12.87-6.5 23.66-20.02 10.789-13.519 18.719-29.12 18.719-29.12s-6.11 15.863-17.938 30.16c-11.832 14.3-24.18 21.453-24.18 21.453s5.59-1.563 6.63 1.297c1.038 2.863-1.82 8.062-19.63 18.59 0 0 3.508-.387 5.457-.13 0 0 11.833-6.37 22.102-13.91 10.27-7.539 17.809-15.988 17.809-15.988s-10.008 12.61-19.5 19.238c-9.489 6.63-17.68 10.922-17.68 10.922s4.812.52 5.46 3.64c0 0 8.45-3.51 13.911-7.023 0 0-6.238 4.68-13.781 8.192 0 0 .91 5.07-15.078 10.922 0 0 11.828-4.032 22.097-9.883 10.274-5.848 28.993-19.758 28.993-19.758s-10.399 10.27-26.13 19.5c-15.73 9.23-24.57 12.61-24.57 12.61s5.457 1.558 6.758 4.03c0 0 17.16-6.89 26.262-11.96 0 0-14.82 8.969-26 13.39 0 0-.13 3.118-5.2 5.2-5.07 2.078-11.831 4.03-11.831 4.03"/><path style="stroke:none;fill-rule:nonzero;fill:#3a3f42;fill-opacity:1" d="M362.46 288.73s3.638-5.07 2.34-11.832c0 0 5.071-8.968 5.977-12.609.91-3.64 1.692-3.64 2.602.652.91 4.29 1.82 7.02-1.559 12.48-3.382 5.458-6.5 10.009-6.5 10.009s-1.562.261-2.86 1.3m-39.78 10.918s-.262 8.973-2.34 18.461c-2.082 9.493-4.29 17.68-8.063 25.352-3.77 7.668-8.187 16.898-22.617 26.91-14.43 10.008-26.652 17.938-31.851 22.23-5.2 4.29-10.532 11.829-11.7 17.81 0 0-4.289 1.038-6.629 2.21-2.34 1.168-5.46 2.598.13 2.469 5.59-.13 6.238-1.168 7.019-2.469.781-1.3.91.52 1.559 2.207.652 1.692 1.82 2.73 1.562 5.07l-.262 2.34s4.813.262 7.02-.91c2.21-1.168 3.512-1.297 3.512-1.297s2.468-5.98 3.77-9.23c1.3-3.25 3.378-4.942 6.5-7.41 3.12-2.47 6.108-5.98 9.23-12.09 3.12-6.11 2.988-10.012 5.98-10.27 2.988-.261 6.5-3.383 10.27-6.37 3.77-2.99 7.8-6.24 10.66-9.75 2.86-3.513 6.238-11.18 7.93-15.86 1.69-4.68 2.468-6.762 6.761-10.922 4.29-4.16 4.418-7.668 4.938-11.957.52-4.293 1.3-12.223.261-18.07-1.043-5.852-3.64-8.454-3.64-8.454"/><path style="stroke:none;fill-rule:nonzero;fill:#3a3f42;fill-opacity:1" d="M239.738 416.52c2.992 0 5.332.128 6.371-.91 0 0 2.34 1.949 2.34 3.64s-.91 3.25-.91 3.25-2.152 1.512-5.2 2.73c-1.3.52-1.82.13-2.991-.91-1.168-1.039-1.559-2.21 1.691-3.511 3.25-1.297 4.809-2.989.781-1.168-4.03 1.82-5.46 4.55-5.199 1.82.258-2.73-.262-4.941 3.117-4.941"/><path style="stroke:none;fill-rule:nonzero;fill:#3a3f42;fill-opacity:1" d="M241.04 430.691c-2.731.13-8.06 4.16-8.06 4.16-1.69-.652-4.55-.132-4.55-.132V430.3c0-2.992-2.73-4.29-2.73-4.29 1.038-3.12-.65-3.902-2.47-4.16-1.82-.261-.261-2.081.91-2.472 1.169-.39 4.122-1.473 7.798-2.207 2.601-.524 5.07-.262 3.902 2.726-1.172 2.993-2.992 4.16-2.992 4.16s4.03-1.038 5.851.653c1.82 1.687 2.34 5.98 2.34 5.98m23.141-5.46c.39 2.211-.782 4.16-4.422 4.551-3.637.39-6.63-.52-6.63-.52s0 2.47-3.378 2.47c-3.379 0-7.152-1.04-7.152-1.04-.778-2.082-.258-3.77 2.601-5.203 2.86-1.43 3.64-1.816 3.64-1.816s2.99.648 6.759-.39c3.773-1.044 5.203-1.692 5.203-1.692s2.988 1.43 3.379 3.64m-6.243 0c-.921-.207-1.296 1.301-2.859 1.168-1.558-.128.52 1.043 1.95 1.172 1.433.13 3.25-1.82.91-2.34"/><path style="stroke:none;fill-rule:nonzero;fill:#3a3f42;fill-opacity:1" d="M220.371 422.629c-1.691 0-8.707 4.754-10.922 7.41-5.851 7.02-5.07 13.781-5.07 13.781s7.8-6.761 16.64-6.37c0 0 4.032-2.079 5.07-2.86 1.04-.781.65-2.602.13-4.418-.52-1.82-.781-2.473-4.551-1.82-3.77.648-8.578 2.859-12.61 7.148 0 0 1.172-4.16 6.243-6.238 5.07-2.082 8.187-2.73 8.578-3.25.39-.524 1.3-2.34-.258-2.864-1.562-.52-2.601-.52-3.25-.52m-10.921 33.153s1.558-3.511 4.808-7.543c3.25-4.027 4.55-6.367 7.543-8.707 2.988-2.34 6.469-4.402 8.578-3.383 4.289 2.082 2.992 6.372.781 6.5-2.21.133-6.89 4.422-11.441 7.672-2.34 1.672-4.996 3.07-7.02 4.032 0 0 2.34-2.993 4.68-5.461l-7.93 6.89m24.18-19.891s4.16-3.25 6.11-3.511c1.948-.258 5.98.91 6.89 1.043.91.129.91 3.508.781 5.328-.133 1.82-2.472 1.82-4.289 3.898-1.82 2.082-3.383 1.82-3.383 1.82s0-2.34-2.078-2.468c-2.082-.129-3.25 0-3.25 0s.91-3.898-.781-6.11m-8.579 20.41s2.079-4.421 2.208-6.76c.133-2.34.262-3.38.262-3.38s3.378-2.988 6.5-2.988c3.12 0 4.417 1.039 4.55 4.418.13 3.379-.91 5.719-2.601 6.5-1.692.781-3.38 1.558-6.371 3.12-2.989 1.56-5.72 2.599-5.72 2.599s3.38-3.899 5.462-5.98c2.078-2.079 3.25-4.419 3.25-4.419l-7.54 6.89m3.25-40.3s-5.85.91-7.929 4.16c0 0-4.031-2.988-5.594-3.512 0 0 1.172-2.34-1.168-4.289-2.34-1.949-2.859-3.77-3.25-7.148-.39-3.383-1.558-6.633-1.558-8.84 0-2.21.387-1.562 1.558-2.21 1.168-.65.782-.911-1.949-1.95-2.73-1.04-8.062-3.25-12.09-5.852-4.03-2.597-6.89-2.988-6.89-2.988s-2.602-3.902-5.07-5.07c-2.47-1.172-2.083-2.34-4.942-5.2-2.86-2.863-2.73-4.292-5.719-7.93-2.988-3.64-2.86-4.812-2.34-6.112.52-1.297.91-.91-2.082-3.118-2.988-2.21-6.886-2.992-9.097-6.761-2.211-3.77-1.82-4.809-3.25-8.192-1.43-3.379-1.43-6.367-.39-6.758 1.038-.39.214-4.69-.911-8.058-1.168-3.512-1.04-7.281-.129-11.961.91-4.68 2.21-5.59 3.25-1.43s3.64 16.77 9.36 27.688c5.718 10.922 11.75 19.886 24.18 28.472 12.608 8.707 20.019 14.04 25.218 18.2 5.203 4.16 8.972 10.14 10.012 14.949 1.039 4.808.78 13.91.78 13.91m-76.722-96.277c-1.48-1.118-2.578-1.485-2.578-1.485s-1.3-6.886-1.82-15.988-.52-18.98.129-32.371c.308-6.371.91-20.54 5.07-29.899 2.906-6.539 8.84-14.949 13.262-20.02 4.418-5.07 8.187-8.448 9.23-8.19 1.04.261.387 1.3-2.082 5.332-2.469 4.027-7.148 12.218-11.828 25.609-4.684 13.39-6.5 30.418-6.633 41.73-.129 11.309.781 25.09.781 25.09-1.82 4.29-1.82 10.008-1.82 10.008s-1.168-5.848-1.691-17.937c-.52-12.09-.258-36.793 1.3-46.41 0 0-2.859 14.82-2.859 34.578 0 22.62 1.54 29.953 1.54 29.953"/><path style="stroke:none;fill-rule:nonzero;fill:#3a3f42;fill-opacity:1" d="M146.14 310.18s-1.562-16.77-.78-32.63c.78-15.859 1.949-25.609 3.25-31.46 1.3-5.852 2.21-9.102 1.558-11.05-.648-1.95-2.86-1.95-4.809 1.038-1.949 2.992-6.238 14.3-8.191 20.152-1.95 5.848-3.25 16.38-3.25 24.051 0 7.668.91 13.649.91 13.649s1.95 1.172 3.902 3.77c0 0 0-20.54 1.297-30.16 0 0 .262 12.222.262 20.929 0 8.71.39 11.312.39 11.312s1.95 3.25 5.462 10.399"/><path style="stroke:none;fill-rule:nonzero;fill:#3a3f42;fill-opacity:1" d="M134.05 262.469s-2.21-8.969-1.82-18.98c.391-10.009 1.688-14.169.649-14.298-1.04-.132-4.031 4.028-5.59 8.32-1.559 4.29-3.77 14.56-4.941 23.528-1.168 8.973-.52 15.211.523 24.961 1.04 9.75 2.469 16.64 8.45 27.04 0 0-1.173-5.59 1.429-5.462 0 0-8.71-15.86-6.629-39.648 0 0 0 24.18 7.93 37.699 0 0-4.16-8.84-.781-11.7 0 0-2.211-14.949.78-31.46"/><path style="stroke:none;fill-rule:nonzero;fill:#3a3f42;fill-opacity:1" d="M117.54 266.371c-1.438-1.437-4.161-.39-4.419 2.73-.262 3.118-.262 11.31.387 20.02.652 8.707 3.512 14.168 6.633 21.188 3.117 7.02 10.66 18.59 10.66 18.59s-.91-3.118.129-5.329c0 0-7.282-10.53-10.532-22.23-3.25-11.7-3.12-18.2-3.12-18.2s1.042 10.66 5.593 21.712c4.547 11.046 8.969 17.937 8.969 17.937s1.168.133 2.21.133c0 0-2.73-3.121-2.991-7.543 0 0-5.965-8.223-8.059-17.55-2.602-11.567-2.73-17.028-3.121-22.75-.317-4.669-.91-7.278-2.34-8.708m23.789 94.508s-9.36-5.59-17.418-14.43c-8.062-8.84-11.57-14.687-14.43-20.41-2.859-5.719-4.16-11.05-2.859-11.828 1.297-.781 2.988-.652 4.938 2.469 1.949 3.12 13.261 20.02 13.261 20.02s-2.601-4.552-8.191-13.259c-5.59-8.71-7.668-14.691-9.102-19.89-1.43-5.2-1.687-10.14-.777-10.66.91-.52 3.64.78 4.68 2.34 1.039 1.558 3.379 7.667 9.23 19.109 5.848 11.441 12.219 20.41 12.219 20.41s-1.559 1.172-1.691 2.602c0 0-5.458-7.153-9.75-15.082-4.29-7.93-6.63-12.739-6.63-12.739s4.16 10.399 8.97 18.457c4.812 8.063 7.542 11.832 7.542 11.832s.91 4.942 4.16 8.45c0 0-6.5-6.372-8.84-9.36 0 0 4.68 6.762 9.618 11.57 0 0 .52 1.56 1.3 2.989 0 0-7.41-6.5-13.78-14.297-6.368-7.8-7.798-10.66-7.798-10.66s4.16 8.187 10.66 15.726c6.5 7.543 11.18 11.051 11.18 11.051s1.688 3.25 3.508 5.59"/><path style="stroke:none;fill-rule:nonzero;fill:#3a3f42;fill-opacity:1" d="M140.55 361.922s-9.62-5.723-17.16-14.172c-7.542-8.45-10.53-12.61-12.222-13.91-1.688-1.3-3.379.262-3.25 2.21.133 1.95 3.25 10.009 9.621 15.86 6.371 5.852 14.95 12.48 24.961 17.16 0 0-1.563-1.949-1.82-4.03 0 0-11.18-5.849-19.11-13.911 0 0 9.489 6.89 18.98 12.61 0 0-.132-.52 0-1.817"/><path style="stroke:none;fill-rule:nonzero;fill:#3a3f42;fill-opacity:1" d="M149.129 375.309s-3.25-1.82-5.07-3.899c0 0-8.711-3.379-16.899-9.75-8.191-6.37-12.222-9.62-13.91-10.27-1.691-.652-2.73.13-1.691 3.122 1.039 2.988 5.07 7.797 10.14 11.699 5.07 3.898 18.719 12.61 27.95 16.64 0 0-1.56-2.081-1.95-4.55 0 0-18.07-9.102-29.12-18.332 0 0 13.91 9.883 29.12 16.77 0 0 .262-1.298 1.43-1.43m1.691 9.363s-7.02-2.602-16.77-8.711c-9.75-6.11-12.87-8.063-14.69-7.152-1.82.91-.782 4.293 1.949 7.543 2.73 3.25 7.28 7.796 14.691 12.09 7.41 4.288 17.027 8.578 24.438 10.136 0 0-2.727-1.816-3.38-4.027 0 0-13.78-5.461-19.89-9.492-6.11-4.028-7.93-5.98-7.93-5.98s11.442 8.062 27.43 13.39c0 0 0-1.82.652-2.078 0 0-3.25-2.211-6.5-5.72m16.64 18.719s-3.64-1.82-6.112-3.511c0 0-7.149-.39-15.86-4.29-8.71-3.898-12.218-5.98-14.949-7.019-2.73-1.039-3.25.39-2.21 2.47 1.042 2.081 3.51 5.331 11.57 9.882 8.062 4.547 19.242 10.789 32.761 11.437 0 0-2.601-1.687-4.941-3.898 0 0-12.09-2.86-20.54-7.281-8.449-4.418-10.66-5.98-10.66-5.98s15.989 8.448 30.29 11.05c0 0-.649-1.559.652-2.86"/><path style="stroke:none;fill-rule:nonzero;fill:#3a3f42;fill-opacity:1" d="M173.828 414.309s-7.93-.258-20.148-5.2c-12.22-4.937-13.782-6.37-14.82-4.418-1.04 1.95 1.038 4.809 4.808 7.149 3.77 2.34 6.762 4.289 16.64 8.058 9.88 3.774 18.333 5.461 22.622 5.723 0 0-4.68-1.43-7.672-4.55 0 0-7.02-.782-16.38-4.551-9.358-3.77-13.519-7.668-13.519-7.668s14.301 8.84 28.211 9.878c0 0-1.691-1.558.258-4.421"/><path style="stroke:none;fill-rule:nonzero;fill:#3a3f42;fill-opacity:1" d="M183.188 426.79s-7.278-.392-16.38-3.38c-9.097-2.988-12.609-4.941-12.738-1.82-.132 3.12 2.34 4.55 8.32 7.148 5.981 2.602 18.329 6.371 27.43 6.371 0 0 .52-1.168.91-1.3 0 0-1.69-.387-4.16-2.079 0 0-13.78-1.039-21.32-5.332 0 0 12.871 3.774 19.5 3.774 0 0-1.43-1.172-1.563-3.383"/><path style="stroke:none;fill-rule:nonzero;fill:#3a3f42;fill-opacity:1" d="M189.559 436.41s-3.899.649-13.391-1.82c-9.488-2.469-15.86-5.719-15.598-2.988.258 2.726 1.301 3.77 5.98 5.976 4.68 2.211 11.18 3.512 17.29 3.902 6.11.391 8.71.13 8.71.13s-2.6-.782-3.25-2.079c0 0-14.69-.52-22.363-4.293 0 0 12.09 3.25 22.102 2.992 0 0-.39-.652.52-1.82m9.101 6.238s-3.902.91-10.922.653c-7.02-.262-12.09-1.563-11.437.777.648 2.344 2.86 3.383 5.719 4.293 2.859.91 5.98 1.688 9.359 1.688h4.55s1.301-2.34 1.301-3.25c0 0-7.8.652-13-1.04 0 0 10.66.391 13.13-.39 0 0 .39-1.168 1.3-2.73m-3.902 8.839s-3.508.262-6.63 0c-3.12-.258-5.85-1.297-5.46.524.39 1.816 3.902 3.77 7.672 5.847 0 0 1.168-1.558 1.82-2.597 0 0-3.512-1.043-4.68-1.563 0 0 4.16.39 5.848.39 0 0 .781-.91 1.43-2.6m75.402-26.779c1.168 1.56 3.38 3.642 4.16 5.33.778 1.69-2.21 2.339-5.722 1.82-3.508-.52-3.899-2.47-3.899-2.47 2.078-2.859 0-6.37 0-6.37 2.211 1.558 5.461 1.69 5.461 1.69m-.781 3.642c-1.774-.485-3.121.386-1.559 1.039 1.559.648 2.989-.653 1.559-1.04m-5.852 2.34s-3.379 1.688-9.097.387c0 0-1.82 2.344-5.59 2.344 0 0 .648 2.34.781 4.289 0 0 6.5-.52 9.36 3.117 0 0 3.117 0 5.328-2.078 2.21-2.078 3.12-4.16 2.34-5.46-.778-1.302-3.122-2.599-3.122-2.599m4.293 5.329s.649-1.56.649-2.211c0-.649 1.172-.258 3.64-.387 2.47-.133 3.38-.652 3.38-.652s4.812 1.82 6.241 3.77c1.43 1.948.649 4.94-2.73 5.331-3.379.39-8.45-.52-10.66-.781-2.211-.262-3.902-.649-3.902-.649s1.69-1.3 2.73-2.601c0 0 7.02 0 8.71.52 1.692.519 2.602-.52-1.429-1.169a201.716 201.716 0 0 1-6.629-1.171m-4.293 5.332s-2.468 1.039-4.289 1.039c0 0-1.558 2.73-2.21 4.418-.65 1.691-1.169 2.992 1.562 3.25 2.73.261 5.719 1.43 7.8 1.3 2.079-.129 3.637 0 4.81-1.039 1.171-1.039 2.34-2.468.128-4.941-2.207-2.469-4.289-2.86-7.8-4.027m-6.888 1.558c.477-1.535-.39-2.34-2.73-3.25-2.34-.91-4.812-.262-4.812-.262s.261 1.692-2.207 2.864c-2.473 1.168-3.512 2.988-4.942 3.636-1.43.653-1.691 2.082-1.691 2.73 0 .653 4.16-.39 5.59-1.558 1.43-1.172 1.562.258-.13 1.168-1.69.91-5.46 2.082-5.46 2.082s2.73-.261 2.73.649 3.903-.13 6.242-.91c2.34-.778 5.59-1.297 7.41-7.149m-17.55 19.371s4.16-4.422 4.289-9.23c0 0 3.64-.653 5.59-1.563 0 0 .39 4.032-1.301 6.762-1.688 2.73-5.2 4.16-8.578 4.031m-4.813 8.707s2.993-3.25 5.332-5.59c2.34-2.34 4.551-3.117 8.45-3.898 3.902-.781 4.68 1.3 1.691 5.46-2.992 4.161-5.2 4.552-7.672 5.071-2.469.52-2.469-.91-3.77-1.043-1.3-.129-4.03 0-4.03 0m43.55-39.258s8.45 3.641 15.34 4.68c0 0 2.73 1.692 4.16 2.988 1.43 1.301 1.95 3.25-.91 3.25s-4.29-.91-8.188-2.988c-3.902-2.082-10.402-7.93-10.402-7.93m-29.769 28.079s1.691-2.47 2.21-5.457c.52-2.993 1.692-3.512 3.641-3.512 1.95 0 6.758.91 8.32 2.988 1.56 2.082 1.168 5.852-2.601 6.5-3.77.652-7.8-.777-11.57-.52m5.199 2.082s0 3.25-1.04 4.419c0 0 3.38 1.691 5.72 3.64 2.34 1.95 4.292 3.77 5.722 3.25 1.43-.52 2.211-.777 1.43-5.847-.781-5.07-2.469-6.891-2.469-6.891s-1.562 2.598-9.363 1.43m10.402-8.969s1.559 3.898.258 6.367c0 0 3.121 3.383 5.46 4.16 2.34.781 3.25 1.301 3.642-2.469.39-3.77.257-7.671-1.692-7.93-1.95-.26-5.328.52-7.668-.128"/><path style="stroke:none;fill-rule:nonzero;fill:#3a3f42;fill-opacity:1" d="M273.02 450.578s2.468-4.68-.391-7.02c0 0 4.289.391 6.11.391 1.82 0 3.78 3.738 4.94 6.371 1.43 3.25-.39 5.98-1.82 6.239-1.43.261-3.898-2.34-5.59-3.508a52.596 52.596 0 0 1-3.25-2.473m4.418-2.726c-1.023-.801-1.816-.391-.386 1.168 1.43 1.558 3.25 2.859 2.988 1.949-.262-.91-1.43-2.207-2.601-3.117m6.762-8.973s.26 1.82-.91 2.992c0 0 6.76 5.07 8.71 7.02 1.95 1.949 2.21 2.597 2.21 2.597s-6.76-5.847-11.96-8.707c0 0-1.04.258-1.82.52 0 0 4.156 2.922 4.941 6.37.649 2.86 1.297 3.9 5.719 5.72 4.418 1.82 7.281 1.3 6.5-2.082-.781-3.38-2.602-6.63-6.371-9.618-3.77-2.992-7.02-4.812-7.02-4.812m8.969 4.68s6.89.91 9.883 3.64c2.988 2.73 4.68 4.813 1.558 5.461-3.12.649-5.718.39-5.718.39s-1.172-3.769-1.954-4.55c0 0 2.602 1.3 3.774 1.3 1.168 0-.133-.78-1.82-1.69-1.692-.91-2.73-1.301-2.73-1.301s-.911-1.297-2.993-3.25"/><path style="stroke:none;fill-rule:nonzero;fill:#3a3f42;fill-opacity:1" d="M306.04 448.371s3.378 1.3 4.679 2.86c1.3 1.558 2.601 3.64.129 3.25-2.47-.391-5.07-1.04-5.07-1.04s4.03-1.3.261-5.07m-13.649 9.098s2.86.781 4.938-.52c0 0 2.86 2.34 4.55 4.16 1.692 1.82.778 3.207-1.038 3.38-2.73.261-4.55 1.171-5.332.652 0 0-.387-4.68-3.117-7.672m6.757-3.25s3.641.133 5.332-.258c0 0 2.47 1.3 3.641 2.73 1.168 1.43-1.3 3.77-3.25 3.77-1.953 0-3.383-2.992-6.89-4.16 0 0 1.43-.91 1.167-2.082m4.16 2.082c-1.578-1.117-1.82 0-.128.91 1.691.91 3.25 1.3.129-.91m-17.289-2.082c1.69 1.043 5.07 3.64 6.5 6.11 1.43 2.472 3.507 6.632.39 7.41-3.12.78-6.89 0-9.101-2.598-2.211-2.602-2.73-7.02-2.73-7.02s2.858 0 3.382-1.43c0 0 2.598 3.25 3.379 5.848.781 2.602 2.34 2.602 1.039-.777-1.3-3.383-3.121-5.723-3.121-5.723l.262-1.82m-11.57-.649s.39 4.942.26 7.801c-.132 2.86 1.688 3.899 3.77 3.899 2.079 0 2.079-1.04 1.688-4.032l-.39-2.988s-2.727-2.21-5.329-4.68m-.781 10.532s-1.04 1.687-1.82 1.82c-.778.129 0 4.547 0 4.547s-1.297-3.899-2.078-4.809c-.782-.91-4.551-3.12-4.551-3.12s1.691 2.472 1.82 5.589c.129 3.121 3.379 9.621 5.07 9.75 1.692.133 3.512 1.3 3.38-4.68-.13-5.98-.259-7.539-1.821-9.097m2.992 2.339s.39 4.028.39 5.98c0 1.95 2.34 2.99 3.509 4.028 1.171 1.04 2.21 3.121 3.25.13 1.039-2.99 1.3-5.59-.13-8.188-1.429-2.602-2.34-3.512-2.34-3.512s-.39 2.601-4.679 1.562m9.098 2.34s1.043 4.68 1.953 6.758c.91 2.082 5.066 5.461 6.11 2.992 1.038-2.472.777-4.422-.391-7.152-1.172-2.73-3.77-2.469-3.121-.777.652 1.687 1.039 4.808-.13 2.468-1.171-2.34-2.081-3.511-2.991-4.03-.91-.52-1.43-.259-1.43-.259"/><path style="stroke:none;fill-rule:nonzero;fill:#5a5f62;fill-opacity:1" d="M218.938 421.2s-4.16 2.081-8.84 5.98c0 0-3.508-1.82-7.668-2.211 0 0-1.973-3.121-3.696-5.184-.445-.531-.414-1.172.856-1.012 1.894.239 4.765.504 7.258.348 4.16-.262 6.37-1.3 6.37-1.3s3.38.648 5.72 3.378M194.89 410.93c-2.6-.047-4.03 1.172-2.081 3.511 1.949 2.34 2.601 2.47 7.671 3.118 5.07.652 10.528-.258 11.829-1.168 1.3-.91 1.43-1.563 0-3.121-1.43-1.56-2.989-3.38-4.809-3.25-1.82.128-5.723 1.039-12.61.91m13.778-4.418c.113-1.825-.129-3.383-1.04-4.293-.91-.91-2.21-.39-6.237.261-4.032.649-9.75.258-12.743.258-2.988 0-3.898-.386-3.898-.386s2.34 2.207 1.82 4.68c0 0 4.809.648 5.457 2.597 0 0 5.332-.129 9.75-.52 4.422-.39 6.762-.52 6.891-2.597M179.29 393.25s.91 1.559.26 3.379c0 0 3.77 2.34 4.81 4.55 0 0 5.98 1.04 13.39.13s9.254-1.688 9.488-4.418c.262-2.993-.765-3.735-2.34-3.903-2.468-.258-2.984 1.344-10.66 1.434-11.308.129-14.949-1.172-14.949-1.172"/><path style="stroke:none;fill-rule:nonzero;fill:#5a5f62;fill-opacity:1" d="M171.879 384.672s-.258 2.469 2.73 4.547c2.989 2.082 6.63 3.511 14.559 3.77 7.93.261 11.832-.259 11.312-1.56-.52-1.3-2.601-2.34-6.109-4.03-3.512-1.688-4.55-2.34-8.062-2.079-3.508.258-6.239 0-9.36-.39-3.12-.39-5.07-1.04-5.07-.258m-8.449-11.312c.265 1.46 2.21 4.812 4.68 6.628 2.468 1.82 3.378 2.602 7.148 3.25 3.77.653 7.93.524 9.883.524 1.949 0 2.859-.782.386-2.473-2.468-1.687-4.547-3.379-7.539-3.64-2.988-.258-4.55-.13-9.23-2.598-4.68-2.473-5.59-3.121-5.328-1.692"/><path style="stroke:none;fill-rule:nonzero;fill:#5a5f62;fill-opacity:1" d="M159.918 365.3c0 1.04.39 3.25 5.46 6.24 5.071 2.991 8.84 4.55 11.31 4.55 2.472 0 2.992-.262 1.3-2.469-1.687-2.21-2.988-4.031-7.02-4.812-4.03-.778-5.59-1.688-7.8-2.86-2.207-1.168-3.25-2.34-3.25-.648m11.312 1.82c1.426.285 1.56-1.043 0-3.121-1.562-2.078-1.82-3.25-6.5-5.2-4.68-1.948-10.53-5.331-10.53-3.51 0 1.82 1.558 3.382 2.6 4.812 1.04 1.43 8.579 5.847 14.43 7.02m-2.34-8.582c-.14-.907-1.82-2.599-4.68-4.028-2.862-1.434-4.55-3.903-5.722-5.461-1.168-1.563-2.86-2.473-5.718-3.903-2.86-1.43-4.551-2.468-3.38.782 1.169 3.25 4.29 6.5 6.11 7.539 1.82 1.043 13.648 6.761 13.39 5.07m-20.152-27.168c-2.148-1.816-2.73-.262-2.468 2.34.257 2.598 1.3 4.937 3.507 7.277 2.211 2.34 5.461 4.032 6.5 4.293 1.043.258-.129-1.953-.777-4.16-.652-2.21-2.602-6.242-6.762-9.75m.391-10.531c-2.691-1.516-3.77.52-2.602 4.031 1.172 3.508 2.473 3.899 4.684 6.758 2.207 2.86 3.898 2.601 4.418 1.43.52-1.168-.781-5.457-1.691-7.54-.91-2.078-2.727-3.507-4.81-4.68M137.3 297.828c-2.284-3.012-3.64-2.469-4.16-.387-.519 2.079 1.04 5.848 3.637 11.309 2.602 5.46 7.543 11.828 7.543 11.828s.258-.906 1.301-1.95c0 0-5.851-8.968-8.191-15.597 0 0 6.89 12.348 8.84 14.82 0 0-.086-4.464-1.04-6.37-1.43-2.86-4.68-9.36-7.93-13.653m7.41 34.712s-.523-.911-2.73-2.731c-2.21-1.82-6.109-6.63-7.93-10.008-1.82-3.38-1.952-8.711-1.429-9.492.52-.778 2.297-.84 5.066 3.25 2.731 4.03 6.5 8.972 6.5 8.972.782 2.73 2.34 5.59 2.34 5.59s-1.039.649-1.687 1.559c-.653.91-.13 2.86-.13 2.86m-.39 1.562s-3.25-2.993-6.11-6.114c-2.862-3.117-4.812-3.77-5.85-2.988-1.04.781-.391 5.59 1.43 7.93 1.82 2.34 7.67 7.93 13.128 10.53 0 0 .652-1.3 1.43-1.429 0 0-6.239-4.293-10.66-9.492 0 0 4.55 4.29 8.32 6.242 0 0-.778-1.43-1.688-4.68m8.32 19.368c-.78.781-.261 2.21-.261 2.21-2.469-.91-9.23-4.417-13.781-7.667-4.547-3.25-5.848-6.633-5.848-9.621 0-2.993 2.598-1.692 6.11 1.43 3.511 3.12 8.449 5.718 8.449 5.718s.52 2.082 1.691 3.77c1.168 1.691 3.64 4.16 3.64 4.16m.258 4.421s-4.55-2.081-8.968-4.812c-4.422-2.726-6.5-4.027-5.72-1.297.778 2.73 2.47 5.848 5.458 8.707 2.992 2.864 11.05 7.934 17.16 9.621 0 0-3.77-2.468-2.988-6.629 0 0-3.903-2.34-4.942-5.59m7.93 14.169s-6.629-2.207-11.437-5.457c-4.813-3.25-7.02-4.68-7.02-2.211 0 2.468 1.711 4.523 7.406 9.359 6.891 5.852 14.043 8.32 19.371 9.36 0 0-4.16-2.731-5.07-4.032 0 0-7.93-3.379-12.867-7.93 0 0 8.45 5.07 11.7 5.852 0 0-2.34-2.21-2.083-4.941"/><path style="stroke:none;fill-rule:nonzero;fill:#5a5f62;fill-opacity:1" d="M169.93 384.8s-4.422-.128-10.79-3.378c-6.37-3.25-9.62-6.113-9.363-2.73.262 3.378 1.953 5.07 7.153 8.84 5.199 3.769 14.168 7.538 20.93 8.577 0 0 .519-1.687-.262-3.379 0 0-3.637-1.43-5.328-2.73 0 0-8.583-.648-16.512-7.02 0 0 7.93 5.59 15.73 5.848 0 0-1.82-1.95-1.558-4.027m8.191 12.871s-5.594-.91-10.793-2.863c-5.2-1.95-9.43-5.305-8.969-2.079.391 2.73 2.47 4.68 7.801 7.668 7.254 4.075 13.649 6.243 18.2 6.114 0 0-.391-2.602-1.56-3.774 0 0-9.23-1.297-13-2.988 0 0 8.708 1.43 10.919 1.3 0 0 .39-1.429-2.598-3.378m12.089 12.609s-1.952-1.43-5.98-1.953c-4.03-.52-8.84-1.687-12.09-3.117s-3.511-.781-3.382.777c.133 1.563 1.953 3.512 7.152 6.5 5.2 2.992 10.399 3.903 13.649 4.684 0 0-1.301.52-6.11-.39-4.808-.91-8.191-2.212-8.191.257 0 2.473 2.992 3.77 5.203 5.332 2.207 1.559 7.41 2.86 12.867 2.73 5.461-.132 6.633-.132 6.633-.132s-1.043-2.469-2.473-4.29l-1.43-1.82s-3.367-1.109-4.808-3.507c-1.95-3.25-1.04-5.07-1.04-5.07m18.2 17.808s-2.992 3.512-4.289 6.762c0 0-4.55 0-8.71-1.043-4.161-1.04-9.36-3.899-10.013-5.457-.648-1.563-1.812-2.22 2.473-1.954 6.238.391 10.527.653 14.297 0 0 0 3.512.391 6.242 1.692m-5.07 7.93s-.653 2.601-1.82 3.902c-1.172 1.297-3.641 1.039-6.5.777-2.86-.258-4.032-1.558-3.641-3.64.39-2.079.91-2.34 4.941-1.559 4.028.781 7.02.52 7.02.52"/><path style="stroke:none;fill-rule:nonzero;fill:#3a3f42;fill-opacity:1" d="M300.059 443.82s4.941.39 6.37 1.95c1.43 1.558 1.301 1.69 0 1.69H305s-1.95-2.339-4.941-3.64m-65.519 34.578s4.42-4.027 4.94-4.808c.52-.781 1.688-.39 3.38-.781 1.69-.387.261 1.691-1.692 2.992-1.95 1.3-4.418 1.168-6.629 2.597m8.191-2.339s3.38-4.16 6.368-5.72c2.992-1.558 5.98-1.038 5.722 1.173-.261 2.207-1.82 4.547-4.293 6.367-2.468 1.82-4.937 1.172-4.937 1.172s-.653-1.563 1.43-2.992c2.078-1.43 3.12-2.86 3.12-2.86s-1.69 1.43-4.03 2.473c-2.34 1.039-3.38.387-3.38.387m-.39 6.5s1.687-1.559 4.16-2.207c2.469-.653 3.898.52 6.371 1.949 2.469 1.43 2.207 2.73-1.82 3.64-4.031.91-10.793 1.43-11.313 1.168-.52-.257 1.04-1.558 1.172-1.949.13-.39 4.418-.91 5.98-.91 0 0-.78-.39-2.992-.39-2.21 0-3.77.261-1.558-1.301m-.39 5.722c-2.727.149-5.329 1.297-5.72 1.559-.39.262 2.989 0 5.72 0 2.73 0 4.03.91 5.59-.39 1.558-1.302-.911-1.43-5.59-1.169m14.69-16.902s.387 2.992-2.21 5.332c-2.602 2.34-1.43 3.898 0 4.68 1.43.78 4.808 2.988 5.07-.52.258-3.512 1.559-6.242 0-7.41-1.563-1.172-2.86-2.082-2.86-2.082m9.75 1.043s-.652 3.898-4.812 2.469c0 0-.52 3.507-.52 5.59 0 2.078 2.34 4.94 3.903 4.03 1.559-.91 2.726-3.511 2.86-6.241.128-2.73-1.43-5.848-1.43-5.848m-6.114 11.438s1.563 2.34 3.25 2.73c1.692.39 1.301 4.808.133 8.969-1.172 4.16-2.992 4.941-4.16 4.941-1.172 0-1.563-1.95-.52-4.68 1.04-2.73 2.079-7.02.52-8.71 0 0-.39 4.55-1.43 7.41-1.043 2.859-.52 5.199-2.73 5.199-2.211 0-3.25-4.028-3.25-6.5 0-2.469.773-5.293 2.86-7.149 1.171-1.039 2.077-1.691 5.327-2.21m9.102-6.11s1.172 4.55 2.082 7.02c.91 2.468-.524 8.968-1.82 10.14-1.301 1.168-4.293 1.559-4.032-2.73.262-4.29.649-6.758.649-6.758s2.992-2.082 3.12-7.672m-1.038 11.05c-.262 2.731-.52 3.77 0 3.77s.52-1.949.52-4.16c0-2.988-.262-2.34-.52.39m-16.77-.78s-1.172 3.77-1.172 5.851c0 2.078-1.687 3.77-3.25 6.758-1.558 2.992-3.12 3.25-3.12-1.688 0-4.941.132-6.632 2.21-7.28 2.082-.65 5.332-3.641 5.332-3.641m25.48-12.348s-.652 3.117-2.21 3.77c-1.563.648-3.902-.653-3.902-.653s1.82 3.25 1.953 5.723c.129 2.468 0 6.629 1.43 6.629 1.429 0 3.769-3.77 4.679-6.891.91-3.121.91-6.629.91-6.629s-1.3-.781-2.86-1.95"/><path style="stroke:none;fill-rule:nonzero;fill:#3a3f42;fill-opacity:1" d="M265.61 496.86s-.91 2.859-.782 5.07c.133 2.21 1.692 5.98 2.86 5.59 1.171-.391 2.34-1.95 2.34-6.372 0-4.418 2.21-1.558.91 2.864-1.297 4.418-1.297 6.238-.258 7.41 1.039 1.168 3.25 2.598 4.55-1.692 1.297-4.289 2.47-6.5 1.297-10.921-1.168-4.418-4.027-6.758-4.027-6.758s-.652 2.988-3.25 4.808c-2.602 1.82-3.64 0-3.64 0m15.468-17.679s-.777 5.718-1.3 7.148c-.52 1.434.652 3.774 1.3 6.242.652 2.47 1.43 3.508 2.992-.129 1.559-3.64 1.95-9.101 1.95-12.48 0-3.383-.782-2.992-1.692-1.172-.91 1.82-3.25.39-3.25.39m-2.468 9.493s-1.82 3.117-3.512 3.77c0 0 2.472 3.769 2.73 6.886.262 3.121 1.82 4.422 3.25 2.73 1.43-1.687.91-4.937-.258-7.41-1.172-2.468-2.21-5.976-2.21-5.976"/><path style="stroke:none;fill-rule:nonzero;fill:#3a3f42;fill-opacity:1" d="M281.34 503.75s-1.563 1.95-3.121.262c0 0-.13 7.93-.258 11.047-.133 3.12-.91 5.851-1.563 6.5-.648.652 1.04-7.149.391-13.387 0 0-1.43 5.457-2.73 6.11l-1.301.648s0 2.601-.387 6.5c-.39 3.898 0 5.98 1.43 6.242 1.43.258 4.937-1.692 6.238-6.5 1.3-4.813 1.43-11.832 1.3-17.422m4.681-13.781s-.91 4.16-1.82 5.722c-.91 1.559-1.302 4.418-1.302 6.758s-.257 8.32.782 10.922c1.039 2.598 2.73 4.55 4.289 1.559 1.558-2.989 2.73-9.102 2.73-12.871 0-3.77-.781-9.36-1.172-11.309-.386-1.95-1.687 0-1.816 1.95-.133 1.948-.262 11.179-1.043 13.652-.777 2.468-.258-2.473-.258-7.801 0-5.332 0-8.45-.39-8.582m-44.2 14.671c-1.136 1.348-2.601 5.094-2.601 8.005 0 2.91 1.82 3.054 2.469 3.347.652.29 2.472-.875 3.511-1.894 1.04-1.016 2.078-3.493 1.82-6.403-.261-2.91-2.601-4.804-3.25-1.164-.648 3.64-1.43 4.367-1.171 1.164.261-3.203 1.3-5.53-.778-3.054m8.75-6.2c-2.71 2.551-3.222 4.903-2.61 8.508.614 3.602-1.226 6.2.153 6.485 1.383.289 4.301.144 5.528-1.297 1.226-1.442 3.53-5.621 2.609-8.36-.922-2.742-3.07-3.894-3.531-.867-.461 3.027-1.84 5.91-1.227 1.73s.613-7.64-.922-6.199m13.868 8.169c-1.422-2.274-2.34-3.403-3.77.71-1.43 4.114-2.598 5.246-1.82 1.418.78-3.828 4.03-6.808 1.953-6.808-2.082 0-2.473 1.843-3.64 5.39-1.173 3.547-3.25 6.243-2.602 7.375.652 1.133 3.25.992 5.07.992 1.82 0 2.86.57 4.16-1.703 1.3-2.265 2.602-4.254.649-7.375m23.14-28.469s2.86 2.47 4.422 2.86c1.559.39 1.43 2.988-.262 4.809-1.687 1.82-5.328 4.03-4.937 1.171.387-2.859 1.43-4.68.777-8.84m5.462 10.532c.108 1.426 2.21 5.59 1.558 7.406-.649 1.82-2.34 3.902-3.118-.777-.78-4.68-.652-5.723.13-7.153.78-1.43 1.3-1.168 1.43.524m-29.106 28.32c.503-.957 1.09-2.129 1.414-2.972.652-1.692 1.953-2.989 1.953-2.989v8.45c0 4.417.91 1.82 1.297-1.82.39-3.641.261-6.372.261-6.372.52 1.3 1.692 3.25 2.211 3.25.52 0 0 1.43 0 5.332 0 3.899 0 7.41-1.691 9.617-1.461 1.91-3.113 2.074-4.625.91l-.352-.402a9.55 9.55 0 0 0 .559-2.89c.137-3.711.601-7.418-1.457-9.489l.43-.625"/></svg>