<?xml version="1.0" encoding="UTF-8"?>
<svg xmlns="http://www.w3.org/2000/svg" xmlns:xlink="http://www.w3.org/1999/xlink" width="194pt" height="194pt" viewBox="0 0 194 194" version="1.1">
<g id="surface1">
<path style=" stroke:none;fill-rule:evenodd;fill:rgb(100%,100%,100%);fill-opacity:1;" d="M 0.257813 0.675781 L 193.015625 0.675781 L 193.015625 193.433594 L 0.257813 193.433594 L 0.257813 0.675781 "/>
<path style=" stroke:none;fill-rule:evenodd;fill:rgb(92.89856%,10.998535%,14.099121%);fill-opacity:1;" d="M 96.636719 154.0625 C 144.585938 154.0625 183.457031 128.539063 183.457031 97.054688 C 183.457031 65.570313 144.585938 40.046875 96.636719 40.046875 C 48.691406 40.046875 9.820313 65.570313 9.820313 97.054688 C 9.820313 128.539063 48.691406 154.0625 96.636719 154.0625 "/>
<path style=" stroke:none;fill-rule:evenodd;fill:rgb(100%,100%,100%);fill-opacity:1;" d="M 165.371094 67.542969 L 165.371094 56.710938 L 25.289063 56.710938 L 25.289063 67.542969 L 165.371094 67.542969 "/>
<path style=" stroke:none;fill-rule:evenodd;fill:rgb(100%,100%,100%);fill-opacity:1;" d="M 177.324219 90.703125 L 177.324219 79.871094 L 12.589844 79.871094 L 12.589844 90.703125 L 177.324219 90.703125 "/>
<path style=" stroke:none;fill-rule:evenodd;fill:rgb(100%,100%,100%);fill-opacity:1;" d="M 177.324219 113.863281 L 177.324219 103.03125 L 12.589844 103.03125 L 12.589844 113.863281 L 177.324219 113.863281 "/>
<path style=" stroke:none;fill-rule:evenodd;fill:rgb(100%,100%,100%);fill-opacity:1;" d="M 168.359375 137.027344 L 168.359375 126.191406 L 25.289063 126.191406 L 25.289063 137.027344 L 168.359375 137.027344 "/>
<path style=" stroke:none;fill-rule:nonzero;fill:rgb(76.499939%,65.499878%,43.099976%);fill-opacity:1;" d="M 96.636719 147.339844 C 119.261719 147.339844 139.652344 141.378906 154.324219 131.746094 C 168.171875 122.652344 176.734375 110.371094 176.734375 97.054688 C 176.734375 83.738281 168.171875 71.457031 154.324219 62.367188 C 139.652344 52.730469 119.261719 46.769531 96.636719 46.769531 C 74.011719 46.769531 53.625 52.730469 38.949219 62.367188 C 25.105469 71.457031 16.542969 83.738281 16.542969 97.054688 C 16.542969 110.371094 25.105469 122.652344 38.949219 131.746094 C 53.625 141.378906 74.011719 147.339844 96.636719 147.339844 Z M 96.636719 160.785156 C 71.316406 160.785156 48.292969 153.984375 31.542969 142.984375 C 13.964844 131.445313 3.09375 115.222656 3.09375 97.054688 C 3.09375 78.886719 13.964844 62.664063 31.542969 51.121094 C 48.292969 40.125 71.316406 33.324219 96.636719 33.324219 C 121.960938 33.324219 144.980469 40.125 161.730469 51.121094 C 179.308594 62.664063 190.179688 78.886719 190.179688 97.054688 C 190.179688 115.222656 179.308594 131.445313 161.730469 142.984375 C 144.980469 153.984375 121.960938 160.785156 96.636719 160.785156 "/>
<path style=" stroke:none;fill-rule:evenodd;fill:rgb(100%,100%,100%);fill-opacity:1;" d="M 109.40625 36.71875 C 109.40625 36.71875 109.179688 39.640625 106.378906 39.542969 L 101.777344 39.382813 C 101.777344 39.382813 100.78125 39.285156 100.75 40.21875 C 100.75 40.21875 100.464844 41.203125 101.710938 41.246094 L 106.316406 41.347656 C 106.316406 41.347656 109.113281 41.507813 109.148438 44.125 C 109.148438 44.125 109.285156 43.753906 100.820313 43.523438 C 100.820313 43.523438 97.34375 43.214844 97.457031 39.914063 C 97.457031 39.914063 97.695313 36.683594 101.492188 36.816406 C 101.492188 36.816406 108.394531 37.183594 109.40625 36.71875 "/>
<path style=" stroke:none;fill-rule:evenodd;fill:rgb(100%,100%,100%);fill-opacity:1;" d="M 123.742188 38.847656 C 123.742188 38.847656 123.210938 41.726563 120.4375 41.335938 L 115.871094 40.695313 C 115.871094 40.695313 114.894531 40.496094 114.765625 41.421875 C 114.765625 41.421875 114.382813 42.371094 115.613281 42.546875 L 120.183594 43.125 C 120.183594 43.125 122.949219 43.574219 122.710938 46.183594 C 122.710938 46.183594 122.886719 45.828125 114.492188 44.714844 C 114.492188 44.714844 111.066406 44.042969 111.523438 40.773438 C 111.523438 40.773438 112.097656 37.585938 115.859375 38.113281 C 115.859375 38.113281 122.683594 39.199219 123.742188 38.847656 "/>
<path style=" stroke:none;fill-rule:evenodd;fill:rgb(100%,100%,100%);fill-opacity:1;" d="M 137.429688 43.058594 C 137.429688 43.058594 136.40625 45.800781 133.742188 44.9375 L 129.359375 43.511719 C 129.359375 43.511719 128.429688 43.144531 128.144531 44.035156 C 128.144531 44.035156 127.597656 44.902344 128.78125 45.289063 L 133.183594 46.652344 C 133.183594 46.652344 135.828125 47.578125 135.140625 50.105469 C 135.140625 50.105469 135.371094 49.785156 127.300781 47.230469 C 127.300781 47.230469 124.042969 45.976563 125.0625 42.835938 C 125.0625 42.835938 126.179688 39.796875 129.792969 40.96875 C 129.792969 40.96875 136.328125 43.222656 137.429688 43.058594 "/>
<path style=" stroke:none;fill-rule:evenodd;fill:rgb(100%,100%,100%);fill-opacity:1;" d="M 150.550781 48.144531 C 150.550781 48.144531 149.246094 50.765625 146.6875 49.628906 L 142.476563 47.753906 C 142.476563 47.753906 141.59375 47.292969 141.210938 48.144531 C 141.210938 48.144531 140.578125 48.953125 141.71875 49.460938 L 145.949219 51.277344 C 145.949219 51.277344 148.484375 52.472656 147.535156 54.914063 C 147.535156 54.914063 147.800781 54.621094 140.039063 51.234375 C 140.039063 51.234375 136.933594 49.648438 138.273438 46.632813 C 138.273438 46.632813 139.703125 43.726563 143.171875 45.269531 C 143.171875 45.269531 149.4375 48.195313 150.550781 48.144531 "/>
<path style=" stroke:none;fill-rule:evenodd;fill:rgb(100%,100%,100%);fill-opacity:1;" d="M 163.457031 55.921875 C 163.457031 55.921875 161.71875 58.277344 159.394531 56.710938 L 155.574219 54.136719 C 155.574219 54.136719 154.785156 53.527344 154.261719 54.300781 C 154.261719 54.300781 153.5 54.988281 154.53125 55.683594 L 158.386719 58.207031 C 158.386719 58.207031 160.671875 59.824219 159.3125 62.0625 C 159.3125 62.0625 159.628906 61.824219 152.570313 57.140625 C 152.570313 57.140625 149.785156 55.035156 151.632813 52.300781 C 151.632813 52.300781 153.546875 49.6875 156.691406 51.808594 C 156.691406 51.808594 162.351563 55.777344 163.457031 55.921875 "/>
<path style=" stroke:none;fill-rule:evenodd;fill:rgb(100%,100%,100%);fill-opacity:1;" d="M 174.316406 65.441406 C 174.316406 65.441406 172.195313 67.460938 170.179688 65.515625 L 166.867188 62.3125 C 166.867188 62.3125 166.191406 61.578125 165.542969 62.25 C 165.542969 62.25 164.671875 62.792969 165.570313 63.65625 L 168.925781 66.8125 C 168.925781 66.8125 170.898438 68.804688 169.171875 70.773438 C 169.171875 70.773438 169.519531 70.589844 163.386719 64.753906 C 163.386719 64.753906 161.007813 62.195313 163.300781 59.824219 C 163.300781 59.824219 165.640625 57.578125 168.371094 60.21875 C 168.371094 60.21875 173.253906 65.109375 174.316406 65.441406 "/>
<path style=" stroke:none;fill-rule:evenodd;fill:rgb(100%,100%,100%);fill-opacity:1;" d="M 182.796875 77.101563 C 182.796875 77.101563 180.300781 78.636719 178.734375 76.3125 L 176.160156 72.492188 C 176.160156 72.492188 175.652344 71.632813 174.878906 72.15625 C 174.878906 72.15625 173.914063 72.507813 174.609375 73.539063 L 177.238281 77.324219 C 177.238281 77.324219 178.753906 79.679688 176.65625 81.246094 C 176.65625 81.246094 177.035156 81.140625 172.246094 74.15625 C 172.246094 74.15625 170.453125 71.160156 173.1875 69.316406 C 173.1875 69.316406 175.941406 67.609375 178.066406 70.757813 C 178.066406 70.757813 181.828125 76.554688 182.796875 77.101563 "/>
<path style=" stroke:none;fill-rule:evenodd;fill:rgb(100%,100%,100%);fill-opacity:1;" d="M 187.21875 91.703125 C 187.21875 91.703125 184.347656 92.289063 183.671875 89.570313 L 182.554688 85.101563 C 182.554688 85.101563 182.375 84.121094 181.46875 84.347656 C 181.46875 84.347656 180.441406 84.34375 180.742188 85.554688 L 181.917969 90.007813 C 181.917969 90.007813 182.535156 92.742188 180.027344 93.496094 C 180.027344 93.496094 180.421875 93.527344 178.3125 85.324219 C 178.3125 85.324219 177.648438 81.898438 180.851563 81.097656 C 180.851563 81.097656 184.023438 80.4375 184.941406 84.121094 C 184.941406 84.121094 186.492188 90.855469 187.21875 91.703125 "/>
<path style=" stroke:none;fill-rule:evenodd;fill:rgb(100%,100%,100%);fill-opacity:1;" d="M 186.546875 106.71875 C 186.546875 106.71875 183.648438 106.289063 183.941406 103.503906 L 184.421875 98.921875 C 184.421875 98.921875 184.589844 97.9375 183.660156 97.839844 C 183.660156 97.839844 182.695313 97.488281 182.566406 98.726563 L 182.144531 103.316406 C 182.144531 103.316406 181.789063 106.09375 179.179688 105.945313 C 179.179688 105.945313 179.535156 106.109375 180.359375 97.679688 C 180.359375 97.679688 180.910156 94.234375 184.191406 94.578125 C 184.191406 94.578125 187.398438 95.039063 187 98.816406 C 187 98.816406 186.15625 105.675781 186.546875 106.71875 "/>
<path style=" stroke:none;fill-rule:evenodd;fill:rgb(100%,100%,100%);fill-opacity:1;" d="M 180.855469 120.023438 C 180.855469 120.023438 178.328125 118.539063 179.644531 116.066406 L 181.808594 111.996094 C 181.808594 111.996094 182.332031 111.148438 181.507813 110.707031 C 181.507813 110.707031 180.742188 110.019531 180.160156 111.121094 L 178.050781 115.21875 C 178.050781 115.21875 176.679688 117.660156 174.3125 116.542969 C 174.3125 116.542969 174.585938 116.828125 178.503906 109.324219 C 178.503906 109.324219 180.308594 106.332031 183.222656 107.882813 C 183.222656 107.882813 186.019531 109.511719 184.238281 112.867188 C 184.238281 112.867188 180.882813 118.910156 180.855469 120.023438 "/>
<path style=" stroke:none;fill-rule:evenodd;fill:rgb(100%,100%,100%);fill-opacity:1;" d="M 172.488281 130.851563 C 172.488281 130.851563 170.328125 128.875 172.128906 126.726563 L 175.089844 123.199219 C 175.089844 123.199219 175.777344 122.476563 175.0625 121.875 C 175.0625 121.875 174.460938 121.042969 173.65625 122 L 170.746094 125.566406 C 170.746094 125.566406 168.894531 127.675781 166.8125 126.089844 C 166.8125 126.089844 167.019531 126.425781 172.414063 119.898438 C 172.414063 119.898438 174.796875 117.347656 177.324219 119.46875 C 177.324219 119.46875 179.726563 121.644531 177.285156 124.554688 C 177.285156 124.554688 172.746094 129.769531 172.488281 130.851563 "/>
<path style=" stroke:none;fill-rule:evenodd;fill:rgb(100%,100%,100%);fill-opacity:1;" d="M 161.660156 139.429688 C 161.660156 139.429688 160.039063 136.988281 162.308594 135.339844 L 166.035156 132.632813 C 166.035156 132.632813 166.878906 132.097656 166.328125 131.34375 C 166.328125 131.34375 165.945313 130.390625 164.9375 131.121094 L 161.246094 133.878906 C 161.246094 133.878906 158.941406 135.476563 157.304688 133.433594 C 157.304688 133.433594 157.425781 133.808594 164.238281 128.78125 C 164.238281 128.78125 167.167969 126.886719 169.105469 129.554688 C 169.105469 129.554688 170.910156 132.246094 167.835938 134.476563 C 167.835938 134.476563 162.171875 138.441406 161.660156 139.429688 "/>
<path style=" stroke:none;fill-rule:evenodd;fill:rgb(100%,100%,100%);fill-opacity:1;" d="M 150.03125 145.671875 C 150.03125 145.671875 148.859375 142.988281 151.378906 141.757813 L 155.519531 139.738281 C 155.519531 139.738281 156.441406 139.359375 156.03125 138.519531 C 156.03125 138.519531 155.820313 137.515625 154.699219 138.0625 L 150.589844 140.136719 C 150.589844 140.136719 148.042969 141.308594 146.785156 139.011719 C 146.785156 139.011719 146.835938 139.402344 154.417969 135.636719 C 154.417969 135.636719 157.632813 134.273438 159.078125 137.242188 C 159.078125 137.242188 160.386719 140.207031 156.972656 141.871094 C 156.972656 141.871094 150.710938 144.789063 150.03125 145.671875 "/>
<path style=" stroke:none;fill-rule:evenodd;fill:rgb(100%,100%,100%);fill-opacity:1;" d="M 137.5625 151.1875 C 137.5625 151.1875 136.675781 148.394531 139.308594 147.4375 L 143.640625 145.863281 C 143.640625 145.863281 144.597656 145.582031 144.277344 144.703125 C 144.277344 144.703125 144.171875 143.679688 143 144.105469 L 138.691406 145.742188 C 138.691406 145.742188 136.039063 146.640625 135.027344 144.226563 C 135.027344 144.226563 135.039063 144.621094 142.972656 141.664063 C 142.972656 141.664063 146.3125 140.648438 147.441406 143.75 C 147.441406 143.75 148.433594 146.835938 144.863281 148.132813 C 144.863281 148.132813 138.324219 150.378906 137.5625 151.1875 "/>
<path style=" stroke:none;fill-rule:evenodd;fill:rgb(100%,100%,100%);fill-opacity:1;" d="M 124.667969 154.597656 C 124.667969 154.597656 124.179688 151.707031 126.921875 151.125 L 131.429688 150.167969 C 131.429688 150.167969 132.414063 150.023438 132.222656 149.109375 C 132.222656 149.109375 132.257813 148.082031 131.039063 148.339844 L 126.546875 149.359375 C 126.546875 149.359375 123.792969 149.882813 123.128906 147.351563 C 123.128906 147.351563 123.082031 147.742188 131.351563 145.921875 C 131.351563 145.921875 134.800781 145.378906 135.488281 148.605469 C 135.488281 148.605469 136.039063 151.796875 132.324219 152.589844 C 132.324219 152.589844 125.539063 153.902344 124.667969 154.597656 "/>
<path style=" stroke:none;fill-rule:evenodd;fill:rgb(100%,100%,100%);fill-opacity:1;" d="M 111.351563 156.90625 C 111.351563 156.90625 111.070313 153.992188 113.84375 153.601563 L 118.40625 152.960938 C 118.40625 152.960938 119.398438 152.882813 119.269531 151.957031 C 119.269531 151.957031 119.378906 150.9375 118.144531 151.109375 L 113.59375 151.8125 C 113.59375 151.8125 110.808594 152.140625 110.320313 149.570313 C 110.320313 149.570313 110.25 149.957031 118.628906 148.71875 C 118.628906 148.71875 122.105469 148.417969 122.5625 151.683594 C 122.5625 151.683594 122.890625 154.90625 119.128906 155.4375 C 119.128906 155.4375 112.269531 156.273438 111.351563 156.90625 "/>
<path style=" stroke:none;fill-rule:evenodd;fill:rgb(100%,100%,100%);fill-opacity:1;" d="M 97.476563 157.828125 C 97.476563 157.828125 97.5 154.898438 100.300781 154.800781 L 104.902344 154.640625 C 104.902344 154.640625 105.902344 154.667969 105.867188 153.734375 C 105.867188 153.734375 106.082031 152.730469 104.839844 152.773438 L 100.238281 152.996094 C 100.238281 152.996094 97.433594 153.03125 97.21875 150.421875 C 97.21875 150.421875 97.105469 150.800781 105.566406 150.445313 C 105.566406 150.445313 109.058594 150.507813 109.171875 153.804688 C 109.171875 153.804688 109.160156 157.046875 105.367188 157.179688 C 105.367188 157.179688 98.457031 157.292969 97.476563 157.828125 "/>
<path style=" stroke:none;fill-rule:evenodd;fill:rgb(100%,100%,100%);fill-opacity:1;" d="M 84.285156 157.375 C 84.285156 157.375 84.511719 154.453125 87.308594 154.550781 L 91.914063 154.710938 C 91.914063 154.710938 92.90625 154.808594 92.941406 153.875 C 92.941406 153.875 93.222656 152.890625 91.980469 152.847656 L 87.375 152.746094 C 87.375 152.746094 84.574219 152.585938 84.542969 149.96875 C 84.542969 149.96875 84.40625 150.339844 92.871094 150.570313 C 92.871094 150.570313 96.347656 150.878906 96.230469 154.179688 C 96.230469 154.179688 95.996094 157.410156 92.199219 157.277344 C 92.199219 157.277344 85.296875 156.910156 84.285156 157.375 "/>
<path style=" stroke:none;fill-rule:evenodd;fill:rgb(100%,100%,100%);fill-opacity:1;" d="M 69.949219 155.25 C 69.949219 155.25 70.480469 152.367188 73.253906 152.757813 L 77.816406 153.398438 C 77.816406 153.398438 78.792969 153.597656 78.925781 152.675781 C 78.925781 152.675781 79.308594 151.722656 78.078125 151.550781 L 73.507813 150.96875 C 73.507813 150.96875 70.738281 150.519531 70.980469 147.910156 C 70.980469 147.910156 70.804688 148.265625 79.199219 149.382813 C 79.199219 149.382813 82.625 150.050781 82.167969 153.320313 C 82.167969 153.320313 81.59375 156.507813 77.832031 155.976563 C 77.832031 155.976563 71.003906 154.894531 69.949219 155.25 "/>
<path style=" stroke:none;fill-rule:evenodd;fill:rgb(100%,100%,100%);fill-opacity:1;" d="M 56.261719 151.035156 C 56.261719 151.035156 57.285156 148.292969 59.949219 149.15625 L 64.332031 150.582031 C 64.332031 150.582031 65.257813 150.949219 65.546875 150.058594 C 65.546875 150.058594 66.09375 149.191406 64.90625 148.804688 L 60.507813 147.441406 C 60.507813 147.441406 57.863281 146.515625 58.550781 143.988281 C 58.550781 143.988281 58.316406 144.308594 66.390625 146.863281 C 66.390625 146.863281 69.648438 148.121094 68.628906 151.257813 C 68.628906 151.257813 67.507813 154.296875 63.898438 153.125 C 63.898438 153.125 57.363281 150.871094 56.261719 151.035156 "/>
<path style=" stroke:none;fill-rule:evenodd;fill:rgb(100%,100%,100%);fill-opacity:1;" d="M 43.140625 145.949219 C 43.140625 145.949219 44.445313 143.328125 47.003906 144.464844 L 51.214844 146.339844 C 51.214844 146.339844 52.097656 146.800781 52.476563 145.949219 C 52.476563 145.949219 53.109375 145.140625 51.972656 144.632813 L 47.738281 142.816406 C 47.738281 142.816406 45.207031 141.621094 46.15625 139.179688 C 46.15625 139.179688 45.890625 139.472656 53.648438 142.859375 C 53.648438 142.859375 56.757813 144.449219 55.417969 147.460938 C 55.417969 147.460938 53.984375 150.367188 50.515625 148.824219 C 50.515625 148.824219 44.253906 145.898438 43.140625 145.949219 "/>
<path style=" stroke:none;fill-rule:evenodd;fill:rgb(100%,100%,100%);fill-opacity:1;" d="M 30.234375 138.171875 C 30.234375 138.171875 31.972656 135.816406 34.296875 137.382813 L 38.113281 139.960938 C 38.113281 139.960938 38.90625 140.566406 39.429688 139.792969 C 39.429688 139.792969 40.191406 139.105469 39.160156 138.410156 L 35.304688 135.886719 C 35.304688 135.886719 33.015625 134.269531 34.375 132.03125 C 34.375 132.03125 34.0625 132.269531 41.117188 136.953125 C 41.117188 136.953125 43.90625 139.058594 42.058594 141.792969 C 42.058594 141.792969 40.144531 144.40625 36.996094 142.285156 C 36.996094 142.285156 31.339844 138.316406 30.234375 138.171875 "/>
<path style=" stroke:none;fill-rule:evenodd;fill:rgb(100%,100%,100%);fill-opacity:1;" d="M 19.371094 128.652344 C 19.371094 128.652344 21.496094 126.632813 23.511719 128.578125 L 26.824219 131.78125 C 26.824219 131.78125 27.496094 132.515625 28.144531 131.84375 C 28.144531 131.84375 29.015625 131.300781 28.121094 130.4375 L 24.765625 127.28125 C 24.765625 127.28125 22.792969 125.289063 24.519531 123.324219 C 24.519531 123.324219 24.167969 123.503906 30.304688 129.339844 C 30.304688 129.339844 32.683594 131.898438 30.390625 134.269531 C 30.390625 134.269531 28.050781 136.511719 25.320313 133.875 C 25.320313 133.875 20.433594 128.984375 19.371094 128.652344 "/>
<path style=" stroke:none;fill-rule:evenodd;fill:rgb(100%,100%,100%);fill-opacity:1;" d="M 10.894531 116.992188 C 10.894531 116.992188 13.390625 115.457031 14.957031 117.78125 L 17.53125 121.601563 C 17.53125 121.601563 18.039063 122.460938 18.8125 121.9375 C 18.8125 121.9375 19.777344 121.589844 19.082031 120.554688 L 16.453125 116.769531 C 16.453125 116.769531 14.9375 114.414063 17.035156 112.847656 C 17.035156 112.847656 16.65625 112.953125 21.441406 119.9375 C 21.441406 119.9375 23.238281 122.933594 20.503906 124.777344 C 20.503906 124.777344 17.75 126.484375 15.625 123.335938 C 15.625 123.335938 11.863281 117.539063 10.894531 116.992188 "/>
<path style=" stroke:none;fill-rule:evenodd;fill:rgb(100%,100%,100%);fill-opacity:1;" d="M 6.472656 102.390625 C 6.472656 102.390625 9.34375 101.804688 10.019531 104.523438 L 11.136719 108.992188 C 11.136719 108.992188 11.316406 109.972656 12.222656 109.75 C 12.222656 109.75 13.25 109.75 12.949219 108.539063 L 11.773438 104.085938 C 11.773438 104.085938 11.15625 101.351563 13.660156 100.597656 C 13.660156 100.597656 13.269531 100.570313 15.378906 108.769531 C 15.378906 108.769531 16.039063 112.195313 12.839844 112.996094 C 12.839844 112.996094 9.667969 113.65625 8.75 109.972656 C 8.75 109.972656 7.199219 103.238281 6.472656 102.390625 "/>
<path style=" stroke:none;fill-rule:evenodd;fill:rgb(100%,100%,100%);fill-opacity:1;" d="M 7.144531 87.371094 C 7.144531 87.371094 10.042969 87.804688 9.75 90.589844 L 9.265625 95.171875 C 9.265625 95.171875 9.101563 96.15625 10.03125 96.253906 C 10.03125 96.253906 10.996094 96.605469 11.125 95.367188 L 11.542969 90.777344 C 11.542969 90.777344 11.898438 87.996094 14.511719 88.148438 C 14.511719 88.148438 14.15625 87.984375 13.332031 96.414063 C 13.332031 96.414063 12.78125 99.859375 9.5 99.515625 C 9.5 99.515625 6.292969 99.054688 6.6875 95.277344 C 6.6875 95.277344 7.535156 88.414063 7.144531 87.371094 "/>
<path style=" stroke:none;fill-rule:evenodd;fill:rgb(100%,100%,100%);fill-opacity:1;" d="M 12.835938 74.070313 C 12.835938 74.070313 15.359375 75.554688 14.042969 78.027344 L 11.882813 82.097656 C 11.882813 82.097656 11.359375 82.945313 12.183594 83.386719 C 12.183594 83.386719 12.945313 84.074219 13.53125 82.972656 L 15.640625 78.878906 C 15.640625 78.878906 17.007813 76.433594 19.375 77.550781 C 19.375 77.550781 19.105469 77.265625 15.183594 84.769531 C 15.183594 84.769531 13.382813 87.761719 10.46875 86.210938 C 10.46875 86.210938 7.667969 84.582031 9.453125 81.226563 C 9.453125 81.226563 12.808594 75.183594 12.835938 74.070313 "/>
<path style=" stroke:none;fill-rule:evenodd;fill:rgb(100%,100%,100%);fill-opacity:1;" d="M 21.203125 63.242188 C 21.203125 63.242188 23.363281 65.21875 21.5625 67.367188 L 18.601563 70.894531 C 18.601563 70.894531 17.914063 71.617188 18.628906 72.21875 C 18.628906 72.21875 19.230469 73.050781 20.03125 72.09375 L 22.945313 68.527344 C 22.945313 68.527344 24.792969 66.421875 26.878906 68.003906 C 26.878906 68.003906 26.671875 67.671875 21.277344 74.195313 C 21.277344 74.195313 18.894531 76.746094 16.363281 74.625 C 16.363281 74.625 13.964844 72.449219 16.40625 69.539063 C 16.40625 69.539063 20.945313 64.324219 21.203125 63.242188 "/>
<path style=" stroke:none;fill-rule:evenodd;fill:rgb(100%,100%,100%);fill-opacity:1;" d="M 32.03125 54.664063 C 32.03125 54.664063 33.648438 57.105469 31.382813 58.753906 L 27.65625 61.460938 C 27.65625 61.460938 26.8125 61.996094 27.363281 62.75 C 27.363281 62.75 27.746094 63.703125 28.753906 62.972656 L 32.445313 60.214844 C 32.445313 60.214844 34.746094 58.617188 36.386719 60.660156 C 36.386719 60.660156 36.265625 60.285156 29.453125 65.3125 C 29.453125 65.3125 26.523438 67.210938 24.582031 64.539063 C 24.582031 64.539063 22.78125 61.847656 25.851563 59.613281 C 25.851563 59.613281 31.519531 55.652344 32.03125 54.664063 "/>
<path style=" stroke:none;fill-rule:evenodd;fill:rgb(100%,100%,100%);fill-opacity:1;" d="M 43.660156 48.421875 C 43.660156 48.421875 44.828125 51.105469 42.3125 52.335938 L 38.171875 54.355469 C 38.171875 54.355469 37.246094 54.734375 37.65625 55.574219 C 37.65625 55.574219 37.871094 56.578125 38.988281 56.03125 L 43.101563 53.957031 C 43.101563 53.957031 45.648438 52.785156 46.90625 55.082031 C 46.90625 55.082031 46.855469 54.691406 39.273438 58.457031 C 39.273438 58.457031 36.054688 59.820313 34.609375 56.851563 C 34.609375 56.851563 33.300781 53.890625 36.714844 52.222656 C 36.714844 52.222656 42.980469 49.304688 43.660156 48.421875 "/>
<path style=" stroke:none;fill-rule:evenodd;fill:rgb(100%,100%,100%);fill-opacity:1;" d="M 56.128906 42.90625 C 56.128906 42.90625 57.015625 45.699219 54.382813 46.65625 L 50.050781 48.230469 C 50.050781 48.230469 49.09375 48.515625 49.414063 49.390625 C 49.414063 49.390625 49.519531 50.410156 50.691406 49.988281 L 55 48.351563 C 55 48.351563 57.652344 47.453125 58.664063 49.867188 C 58.664063 49.867188 58.652344 49.472656 50.71875 52.429688 C 50.71875 52.429688 47.378906 53.445313 46.25 50.34375 C 46.25 50.34375 45.257813 47.261719 48.828125 45.960938 C 48.828125 45.960938 55.363281 43.714844 56.128906 42.90625 "/>
<path style=" stroke:none;fill-rule:evenodd;fill:rgb(100%,100%,100%);fill-opacity:1;" d="M 69.023438 39.496094 C 69.023438 39.496094 69.507813 42.386719 66.769531 42.96875 L 62.261719 43.925781 C 62.261719 43.925781 61.277344 44.070313 61.46875 44.984375 C 61.46875 44.984375 61.433594 46.011719 62.652344 45.753906 L 67.144531 44.734375 C 67.144531 44.734375 69.898438 44.210938 70.5625 46.742188 C 70.5625 46.742188 70.605469 46.351563 62.339844 48.175781 C 62.339844 48.175781 58.890625 48.714844 58.203125 45.488281 C 58.203125 45.488281 57.652344 42.296875 61.367188 41.507813 C 61.367188 41.507813 68.152344 40.191406 69.023438 39.496094 "/>
<path style=" stroke:none;fill-rule:evenodd;fill:rgb(100%,100%,100%);fill-opacity:1;" d="M 82.339844 37.1875 C 82.339844 37.1875 82.621094 40.101563 79.847656 40.492188 L 75.285156 41.132813 C 75.285156 41.132813 74.289063 41.210938 74.421875 42.136719 C 74.421875 42.136719 74.3125 43.15625 75.542969 42.984375 L 80.097656 42.28125 C 80.097656 42.28125 82.882813 41.953125 83.367188 44.523438 C 83.367188 44.523438 83.441406 44.136719 75.0625 45.378906 C 75.0625 45.378906 71.585938 45.675781 71.125 42.410156 C 71.125 42.410156 70.800781 39.1875 74.558594 38.65625 C 74.558594 38.65625 81.421875 37.820313 82.339844 37.1875 "/>
<path style=" stroke:none;fill-rule:evenodd;fill:rgb(100%,100%,100%);fill-opacity:1;" d="M 96.214844 36.265625 C 96.214844 36.265625 96.191406 39.195313 93.390625 39.292969 L 88.785156 39.453125 C 88.785156 39.453125 87.789063 39.425781 87.820313 40.359375 C 87.820313 40.359375 87.605469 41.363281 88.851563 41.320313 L 93.453125 41.097656 C 93.453125 41.097656 96.257813 41.0625 96.472656 43.671875 C 96.472656 43.671875 96.582031 43.292969 88.121094 43.648438 C 88.121094 43.648438 84.632813 43.585938 84.519531 40.285156 C 84.519531 40.285156 84.527344 37.046875 88.324219 36.914063 C 88.324219 36.914063 95.234375 36.800781 96.214844 36.265625 "/>
<path style=" stroke:none;fill-rule:evenodd;fill:rgb(100%,100%,100%);fill-opacity:1;" d="M 32.761719 128.433594 C 32.761719 128.433594 64.140625 117.601563 57.039063 48.117188 L 187.785156 94.441406 L 32.761719 128.433594 "/>
<path style=" stroke:none;fill-rule:nonzero;fill:rgb(13.699341%,12.199402%,12.5%);fill-opacity:1;" d="M 32.800781 128.617188 L 32.695313 128.257813 C 32.785156 128.226563 63.9375 117.472656 56.855469 48.136719 L 56.824219 47.84375 L 57.101563 47.941406 L 187.847656 94.265625 L 187.824219 94.621094 Z M 34.410156 127.882813 L 187.105469 94.398438 L 57.253906 48.394531 C 63.300781 108.367188 40.699219 124.570313 34.410156 127.882813 "/>
<path style=" stroke:none;fill-rule:evenodd;fill:rgb(100%,100%,100%);fill-opacity:1;" d="M 52.929688 43.074219 L 59.65625 45.316406 C 59.65625 45.316406 61.335938 41.769531 57.414063 40.835938 C 57.414063 40.835938 54.238281 39.777344 52.929688 43.074219 "/>
<path style=" stroke:none;fill-rule:nonzero;fill:rgb(13.699341%,12.199402%,12.5%);fill-opacity:1;" d="M 53.183594 42.964844 L 59.550781 45.085938 C 59.808594 44.421875 60.597656 41.785156 57.371094 41.015625 L 57.355469 41.011719 C 57.347656 41.007813 54.46875 40.050781 53.183594 42.964844 Z M 52.875 43.253906 L 52.6875 43.191406 L 52.757813 43.007813 C 54.078125 39.671875 57.21875 40.578125 57.457031 40.652344 C 61.601563 41.640625 59.828125 45.386719 59.824219 45.394531 L 59.753906 45.546875 L 59.597656 45.496094 L 52.875 43.253906 "/>
<path style=" stroke:none;fill-rule:evenodd;fill:rgb(13.699341%,12.199402%,12.5%);fill-opacity:1;" d="M 56.976563 44.382813 L 59.65625 45.316406 C 59.65625 45.316406 61.273438 41.519531 56.976563 40.710938 C 56.976563 40.710938 58.410156 42.984375 56.976563 44.382813 "/>
<path style=" stroke:none;fill-rule:evenodd;fill:rgb(100%,100%,100%);fill-opacity:1;" d="M 57.664063 44.632813 L 29.847656 139.265625 L 26.84375 138.332031 L 54.925781 43.761719 L 57.664063 44.632813 "/>
<path style=" stroke:none;fill-rule:nonzero;fill:rgb(13.699341%,12.199402%,12.5%);fill-opacity:1;" d="M 57.894531 44.511719 L 57.84375 44.683594 L 30.023438 139.320313 L 29.972656 139.5 L 29.789063 139.445313 L 26.789063 138.511719 L 26.613281 138.457031 L 26.667969 138.28125 L 54.746094 43.710938 L 54.800781 43.523438 L 54.980469 43.582031 L 57.71875 44.453125 Z M 57.433594 44.753906 L 55.046875 43.996094 L 27.078125 138.210938 L 29.71875 139.03125 L 57.433594 44.753906 "/>
<path style=" stroke:none;fill-rule:nonzero;fill:rgb(13.699341%,12.199402%,12.5%);fill-opacity:1;" d="M 57.007813 44.394531 L 29.113281 138.84375 L 28.1875 138.570313 L 56.078125 44.121094 L 57.007813 44.394531 "/>
<path style=" stroke:none;fill-rule:evenodd;fill:rgb(13.699341%,12.199402%,12.5%);fill-opacity:1;" d="M 73.769531 83.746094 L 75.238281 83.746094 C 76.976563 83.746094 78.125 83.976563 78.679688 84.429688 C 79.234375 84.886719 79.363281 85.648438 79.058594 86.722656 C 78.746094 87.832031 78.179688 88.617188 77.359375 89.078125 C 76.542969 89.539063 75.261719 89.769531 73.519531 89.769531 L 72.140625 89.769531 Z M 64.511719 83.515625 L 67.78125 83.515625 L 61.839844 103.871094 L 68.386719 103.871094 L 70.628906 95.421875 L 73.140625 95.421875 C 75.34375 95.421875 76.976563 95.296875 78.046875 95.054688 C 79.117188 94.808594 80.101563 94.40625 81.003906 93.84375 C 82.199219 93.097656 83.21875 92.144531 84.0625 90.980469 C 84.90625 89.820313 85.558594 88.472656 86.007813 86.941406 C 86.433594 85.507813 86.5625 84.203125 86.390625 83.027344 C 86.21875 81.855469 85.75 80.875 84.988281 80.09375 C 84.335938 79.417969 83.441406 78.9375 82.304688 78.65625 C 81.164063 78.378906 79.085938 78.238281 76.070313 78.238281 L 67.636719 78.238281 L 64.511719 83.515625 "/>
<path style=" stroke:none;fill-rule:evenodd;fill:rgb(13.699341%,12.199402%,12.5%);fill-opacity:1;" d="M 120.71875 78.238281 L 130.421875 78.238281 L 115.136719 103.871094 L 108.308594 103.871094 L 106.152344 78.238281 L 112.878906 78.238281 L 113.472656 95.261719 L 120.058594 84.304688 L 117.558594 84.261719 L 120.71875 78.238281 "/>
<path style=" stroke:none;fill-rule:evenodd;fill:rgb(13.699341%,12.199402%,12.5%);fill-opacity:1;" d="M 101.027344 79.03125 L 101.679688 78.097656 L 105.414063 80.152344 L 101.960938 85.566406 C 101.960938 85.566406 99.160156 83.328125 96.078125 82.859375 C 96.078125 82.859375 93.554688 82.859375 93.554688 85.195313 C 93.554688 85.195313 93.648438 86.78125 97.199219 88.929688 C 97.199219 88.929688 100.933594 91.078125 100.933594 94.90625 C 100.933594 94.90625 101.214844 103.871094 90.566406 103.871094 C 90.566406 103.871094 85.523438 104.339844 81.414063 98.828125 L 85.617188 94.628906 C 85.617188 94.628906 87.484375 97.800781 90.566406 97.800781 C 90.566406 97.800781 93.835938 98.175781 93.835938 95.28125 C 93.835938 95.28125 93.929688 93.878906 91.128906 92.011719 C 91.128906 92.011719 87.300781 89.585938 87.300781 85.753906 C 87.300781 85.753906 87.484375 77.628906 96.359375 77.628906 C 96.359375 77.628906 99.160156 77.628906 101.027344 79.03125 "/>
</g>
</svg>
