<svg xmlns="http://www.w3.org/2000/svg" width="194pt" height="194pt" viewBox="0 0 194 194"><path style="stroke:none;fill-rule:evenodd;fill:#fff;fill-opacity:1" d="M.258.676h192.758v192.758H.258V.676"/><path style="stroke:none;fill-rule:evenodd;fill:#ed1c24;fill-opacity:1" d="M96.637 154.063c47.949 0 86.82-25.524 86.82-57.008 0-31.485-38.871-57.008-86.82-57.008C48.69 40.047 9.82 65.57 9.82 97.055c0 31.484 38.871 57.007 86.817 57.007"/><path style="stroke:none;fill-rule:evenodd;fill:#fff;fill-opacity:1" d="M165.371 67.543V56.711H25.29v10.832h140.082m11.952 23.16V79.871H12.59v10.832h164.734m0 23.16v-10.832H12.59v10.832h164.734m-8.964 23.164v-10.836H25.29v10.836h143.07"/><path style="stroke:none;fill-rule:nonzero;fill:#c3a76e;fill-opacity:1" d="M96.637 147.34c22.625 0 43.015-5.961 57.687-15.594 13.848-9.094 22.41-21.375 22.41-34.691 0-13.317-8.562-25.598-22.41-34.688-14.672-9.637-35.062-15.597-57.687-15.597s-43.012 5.96-57.688 15.597c-13.844 9.09-22.406 21.371-22.406 34.688 0 13.316 8.562 25.597 22.406 34.691 14.676 9.633 35.063 15.594 57.688 15.594zm0 13.445c-25.32 0-48.344-6.8-65.094-17.8-17.578-11.54-28.45-27.762-28.45-45.93s10.872-34.39 28.45-45.934c16.75-10.996 39.773-17.797 65.094-17.797 25.324 0 48.343 6.801 65.093 17.797 17.579 11.543 28.45 27.766 28.45 45.934s-10.871 34.39-28.45 45.93c-16.75 11-39.77 17.8-65.093 17.8"/><path style="stroke:none;fill-rule:evenodd;fill:#fff;fill-opacity:1" d="M109.406 36.719s-.226 2.922-3.027 2.824l-4.602-.16s-.996-.098-1.027.836c0 0-.285.984.96 1.027l4.606.102s2.797.16 2.832 2.777c0 0 .137-.371-8.328-.602 0 0-3.476-.308-3.363-3.609 0 0 .238-3.23 4.035-3.098 0 0 6.903.368 7.914-.097m14.336 2.129s-.531 2.879-3.305 2.488l-4.566-.64s-.976-.2-1.105.726c0 0-.383.95.847 1.125l4.57.578s2.766.45 2.528 3.059c0 0 .176-.356-8.219-1.47 0 0-3.426-.671-2.969-3.94 0 0 .575-3.188 4.336-2.66 0 0 6.825 1.085 7.883.734m13.688 4.211s-1.024 2.742-3.688 1.879l-4.383-1.426s-.93-.367-1.214.523c0 0-.547.867.636 1.254l4.403 1.363s2.644.926 1.957 3.453c0 0 .23-.32-7.84-2.875 0 0-3.258-1.253-2.239-4.394 0 0 1.118-3.04 4.731-1.867 0 0 6.535 2.254 7.637 2.09m13.12 5.086s-1.304 2.62-3.863 1.484l-4.21-1.875s-.883-.461-1.266.39c0 0-.633.81.508 1.317l4.23 1.816s2.535 1.196 1.586 3.637c0 0 .266-.293-7.496-3.68 0 0-3.105-1.586-1.766-4.601 0 0 1.43-2.906 4.899-1.363 0 0 6.266 2.925 7.379 2.875m12.906 7.777s-1.738 2.355-4.062.789l-3.82-2.574s-.79-.61-1.313.164c0 0-.762.687.27 1.383l3.855 2.523s2.285 1.617.925 3.855c0 0 .317-.238-6.742-4.921 0 0-2.785-2.106-.937-4.84 0 0 1.914-2.614 5.058-.492 0 0 5.66 3.968 6.766 4.113m10.859 9.519s-2.12 2.02-4.136.075l-3.313-3.204s-.676-.734-1.324-.062c0 0-.871.543.027 1.406l3.356 3.157s1.972 1.992.246 3.96c0 0 .348-.183-5.785-6.02 0 0-2.38-2.558-.086-4.929 0 0 2.34-2.246 5.07.395 0 0 4.883 4.89 5.945 5.222m8.481 11.661s-2.496 1.535-4.063-.79l-2.574-3.82s-.508-.86-1.281-.336c0 0-.965.352-.27 1.383l2.63 3.785s1.515 2.356-.583 3.922c0 0 .38-.105-4.41-7.09 0 0-1.793-2.996.941-4.84 0 0 2.754-1.707 4.88 1.442 0 0 3.761 5.797 4.73 6.344m4.422 14.601s-2.871.586-3.547-2.133l-1.117-4.468s-.18-.98-1.086-.754c0 0-1.028-.004-.727 1.207l1.176 4.453s.617 2.734-1.89 3.488c0 0 .394.031-1.715-8.172 0 0-.665-3.426 2.539-4.226 0 0 3.171-.66 4.09 3.023 0 0 1.55 6.734 2.277 7.582m-.672 15.016s-2.899-.43-2.606-3.215l.48-4.582s.169-.984-.76-1.082c0 0-.966-.352-1.095.887l-.421 4.59s-.356 2.777-2.965 2.628c0 0 .355.164 1.18-8.265 0 0 .55-3.446 3.831-3.102 0 0 3.207.461 2.809 4.238 0 0-.844 6.86-.453 7.903m-5.692 13.304s-2.527-1.484-1.21-3.957l2.164-4.07s.523-.848-.301-1.289c0 0-.766-.687-1.348.414l-2.11 4.098s-1.37 2.441-3.738 1.324c0 0 .274.285 4.192-7.219 0 0 1.805-2.992 4.719-1.441 0 0 2.797 1.629 1.015 4.984 0 0-3.355 6.043-3.383 7.156m-8.367 10.829s-2.16-1.977-.36-4.125l2.962-3.528s.687-.722-.028-1.324c0 0-.601-.832-1.406.125l-2.91 3.566s-1.851 2.11-3.934.524c0 0 .208.336 5.602-6.192 0 0 2.383-2.55 4.91-.43 0 0 2.403 2.177-.039 5.087 0 0-4.539 5.215-4.797 6.297m-10.828 8.578s-1.62-2.442.649-4.09l3.726-2.707s.844-.535.293-1.29c0 0-.383-.952-1.39-.222l-3.692 2.758s-2.305 1.598-3.941-.445c0 0 .12.375 6.933-4.653 0 0 2.93-1.894 4.867.774 0 0 1.805 2.691-1.27 4.922 0 0-5.663 3.964-6.175 4.953m-11.629 6.242s-1.172-2.684 1.348-3.914l4.14-2.02s.922-.379.512-1.218c0 0-.21-1.004-1.332-.458l-4.11 2.075s-2.546 1.172-3.804-1.125c0 0 .05.39 7.633-3.375 0 0 3.215-1.364 4.66 1.605 0 0 1.309 2.965-2.105 4.63 0 0-6.262 2.917-6.942 3.8m-12.468 5.516s-.887-2.793 1.746-3.75l4.332-1.575s.957-.281.636-1.16c0 0-.105-1.023-1.277-.598l-4.309 1.637s-2.652.899-3.664-1.515c0 0 .012.394 7.946-2.563 0 0 3.34-1.016 4.468 2.086 0 0 .993 3.086-2.578 4.383 0 0-6.539 2.246-7.3 3.054m-12.895 3.411s-.488-2.891 2.254-3.473l4.508-.957s.984-.145.793-1.059c0 0 .035-1.027-1.184-.77l-4.492 1.02s-2.754.524-3.418-2.007c0 0-.047.39 8.223-1.43 0 0 3.449-.543 4.136 2.683 0 0 .551 3.192-3.164 3.985 0 0-6.785 1.312-7.656 2.008m-13.316 2.308s-.282-2.914 2.492-3.304l4.562-.641s.992-.078.864-1.004c0 0 .109-1.02-1.125-.848l-4.551.703s-2.785.329-3.274-2.242c0 0-.07.387 8.309-.851 0 0 3.476-.301 3.933 2.965 0 0 .329 3.222-3.433 3.754 0 0-6.86.835-7.777 1.468m-13.875.922s.023-2.93 2.824-3.027l4.601-.16s1 .027.965-.907c0 0 .215-1.004-1.027-.96l-4.602.222s-2.804.035-3.02-2.574c0 0-.113.379 8.348.023 0 0 3.493.063 3.606 3.36 0 0-.012 3.242-3.805 3.375 0 0-6.91.113-7.89.648m-13.192-.453s.227-2.922 3.024-2.824l4.605.16s.992.098 1.027-.836c0 0 .282-.984-.96-1.027l-4.606-.102s-2.8-.16-2.832-2.777c0 0-.137.37 8.328.601 0 0 3.477.309 3.36 3.61 0 0-.235 3.23-4.032 3.097 0 0-6.902-.367-7.914.098M69.95 155.25s.53-2.883 3.304-2.492l4.562.64s.977.2 1.11-.722c0 0 .383-.953-.848-1.125l-4.57-.582s-2.77-.45-2.528-3.059c0 0-.175.356 8.22 1.473 0 0 3.425.668 2.968 3.937 0 0-.574 3.188-4.336 2.657 0 0-6.828-1.082-7.883-.727m-13.687-4.215s1.023-2.742 3.687-1.879l4.383 1.426s.926.367 1.215-.523c0 0 .547-.868-.64-1.254l-4.4-1.364s-2.644-.925-1.956-3.453c0 0-.235.32 7.84 2.875 0 0 3.257 1.258 2.238 4.395 0 0-1.121 3.039-4.73 1.867 0 0-6.536-2.254-7.637-2.09M43.14 145.95s1.305-2.622 3.864-1.485l4.21 1.875s.884.46 1.263-.39c0 0 .632-.81-.504-1.317l-4.235-1.817s-2.531-1.195-1.582-3.636c0 0-.265.293 7.492 3.68 0 0 3.11 1.59 1.77 4.6 0 0-1.434 2.907-4.902 1.364 0 0-6.262-2.926-7.375-2.875m-12.907-7.777s1.739-2.356 4.063-.79l3.816 2.579s.793.605 1.317-.168c0 0 .761-.688-.27-1.383l-3.855-2.523s-2.29-1.617-.93-3.856c0 0-.313.239 6.742 4.922 0 0 2.79 2.106.942 4.84 0 0-1.914 2.613-5.063.492 0 0-5.656-3.969-6.762-4.113m-10.863-9.52s2.125-2.02 4.14-.074l3.313 3.203s.672.735 1.32.063c0 0 .872-.543-.023-1.406l-3.355-3.157s-1.973-1.992-.246-3.957c0 0-.352.18 5.785 6.016 0 0 2.379 2.558.086 4.93 0 0-2.34 2.242-5.07-.395 0 0-4.887-4.89-5.95-5.223m-8.476-11.66s2.496-1.535 4.062.79l2.574 3.82s.508.859 1.282.335c0 0 .964-.347.269-1.382l-2.629-3.785s-1.515-2.356.582-3.922c0 0-.379.105 4.406 7.09 0 0 1.797 2.996-.937 4.84 0 0-2.754 1.706-4.879-1.442 0 0-3.762-5.797-4.73-6.344M6.473 102.39s2.87-.585 3.547 2.133l1.117 4.47s.18.98 1.086.757c0 0 1.027 0 .726-1.21l-1.176-4.454s-.617-2.734 1.887-3.488c0 0-.39-.028 1.719 8.172 0 0 .66 3.425-2.54 4.226 0 0-3.171.66-4.089-3.023 0 0-1.55-6.735-2.277-7.582m.672-15.02s2.898.434 2.605 3.219l-.484 4.582s-.164.984.765 1.082c0 0 .965.351 1.094-.887l.418-4.59s.355-2.78 2.969-2.629c0 0-.356-.164-1.18 8.266 0 0-.55 3.445-3.832 3.102 0 0-3.207-.461-2.813-4.239 0 0 .848-6.863.458-7.906m5.691-13.301s2.523 1.485 1.207 3.957l-2.16 4.07s-.524.848.3 1.29c0 0 .762.687 1.348-.414l2.11-4.094s1.367-2.445 3.734-1.328c0 0-.27-.285-4.191 7.219 0 0-1.801 2.992-4.715 1.44 0 0-2.801-1.628-1.016-4.983 0 0 3.356-6.043 3.383-7.157m8.367-10.828s2.16 1.977.36 4.125l-2.961 3.528s-.688.722.027 1.324c0 0 .601.832 1.402-.125l2.914-3.567s1.848-2.105 3.934-.523c0 0-.207-.332-5.602 6.191 0 0-2.382 2.551-4.914.43 0 0-2.398-2.176.043-5.086 0 0 4.54-5.215 4.797-6.297m10.828-8.578s1.617 2.441-.648 4.09l-3.727 2.707s-.843.535-.293 1.289c0 0 .383.953 1.39.223l3.692-2.758s2.301-1.598 3.942.445c0 0-.121-.375-6.934 4.653 0 0-2.93 1.898-4.871-.774 0 0-1.8-2.691 1.27-4.926 0 0 5.668-3.96 6.18-4.949m11.628-6.242s1.168 2.683-1.347 3.914l-4.141 2.02s-.926.378-.516 1.218c0 0 .215 1.004 1.332.457l4.114-2.074s2.546-1.172 3.804 1.125c0 0-.05-.39-7.633 3.375 0 0-3.218 1.363-4.664-1.605 0 0-1.308-2.961 2.106-4.63 0 0 6.265-2.917 6.945-3.8m12.469-5.516s.887 2.793-1.746 3.75L50.05 48.23s-.957.286-.637 1.16c0 0 .106 1.02 1.277.598L55 48.352s2.652-.899 3.664 1.515c0 0-.012-.394-7.945 2.563 0 0-3.34 1.015-4.469-2.086 0 0-.992-3.082 2.578-4.383 0 0 6.535-2.246 7.3-3.055m12.895-3.41s.485 2.89-2.253 3.473l-4.508.957s-.985.144-.793 1.058c0 0-.035 1.028 1.183.77l4.493-1.02s2.753-.523 3.418 2.008c0 0 .042-.39-8.223 1.434 0 0-3.45.539-4.137-2.688 0 0-.55-3.191 3.164-3.98 0 0 6.785-1.317 7.656-2.012m13.317-2.308s.281 2.914-2.492 3.304l-4.563.64s-.996.079-.863 1.005c0 0-.11 1.02 1.121.847l4.555-.703s2.785-.328 3.27 2.242c0 0 .073-.386-8.305.856 0 0-3.477.297-3.938-2.969 0 0-.324-3.222 3.434-3.754 0 0 6.863-.836 7.78-1.468m13.876-.922s-.024 2.93-2.824 3.027l-4.606.16s-.996-.027-.965.906c0 0-.215 1.004 1.032.961l4.601-.222s2.805-.035 3.02 2.574c0 0 .109-.379-8.352-.024 0 0-3.488-.062-3.601-3.363 0 0 .007-3.238 3.804-3.37 0 0 6.91-.114 7.89-.65"/><path style="stroke:none;fill-rule:evenodd;fill:#fff;fill-opacity:1" d="M32.762 128.434s31.379-10.832 24.277-80.317l130.746 46.324-155.023 33.993"/><path style="stroke:none;fill-rule:nonzero;fill:#231f20;fill-opacity:1" d="m32.8 128.617-.105-.36c.09-.03 31.242-10.784 24.16-80.12l-.03-.293.277.097 130.746 46.325-.024.355zm1.61-.734 152.695-33.485L57.254 48.395c6.047 59.972-16.555 76.175-22.844 79.488"/><path style="stroke:none;fill-rule:evenodd;fill:#fff;fill-opacity:1" d="m52.93 43.074 6.726 2.242s1.68-3.546-2.242-4.48c0 0-3.176-1.059-4.484 2.238"/><path style="stroke:none;fill-rule:nonzero;fill:#231f20;fill-opacity:1" d="m53.184 42.965 6.367 2.12c.258-.663 1.047-3.3-2.18-4.07l-.016-.003c-.007-.004-2.886-.961-4.171 1.953zm-.309.289-.188-.063.07-.183c1.321-3.336 4.462-2.43 4.7-2.356 4.145.989 2.371 4.735 2.367 4.743l-.07.152-.156-.05-6.723-2.243"/><path style="stroke:none;fill-rule:evenodd;fill:#231f20;fill-opacity:1" d="m56.977 44.383 2.68.933s1.616-3.796-2.68-4.605c0 0 1.433 2.273 0 3.672"/><path style="stroke:none;fill-rule:evenodd;fill:#fff;fill-opacity:1" d="m57.664 44.633-27.816 94.633-3.004-.934 28.082-94.57 2.738.87"/><path style="stroke:none;fill-rule:nonzero;fill:#231f20;fill-opacity:1" d="m57.895 44.512-.051.172-27.82 94.636-.051.18-.184-.055-3-.933-.176-.055.055-.176 28.078-94.57.055-.188.18.059 2.738.871zm-.461.242-2.387-.758-27.969 94.215 2.64.82 27.716-94.277"/><path style="stroke:none;fill-rule:nonzero;fill:#231f20;fill-opacity:1" d="m57.008 44.395-27.895 94.449-.925-.274 27.89-94.449.93.274"/><path style="stroke:none;fill-rule:evenodd;fill:#231f20;fill-opacity:1" d="M73.77 83.746h1.468c1.739 0 2.887.23 3.442.684.554.457.683 1.218.379 2.293-.313 1.109-.88 1.894-1.7 2.355-.816.461-2.097.692-3.84.692h-1.378zm-9.258-.23h3.27L61.84 103.87h6.547l2.242-8.45h2.512c2.203 0 3.836-.124 4.906-.366a9.614 9.614 0 0 0 2.957-1.211 10.83 10.83 0 0 0 3.058-2.864c.844-1.16 1.497-2.507 1.946-4.039.426-1.433.555-2.738.383-3.914-.172-1.172-.641-2.152-1.403-2.933-.652-.676-1.547-1.156-2.683-1.438-1.14-.277-3.22-.418-6.235-.418h-8.433l-3.125 5.278m56.207-5.277h9.703l-15.285 25.633h-6.828l-2.157-25.633h6.727l.594 17.024 6.586-10.957-2.5-.043 3.16-6.024"/><path style="stroke:none;fill-rule:evenodd;fill:#231f20;fill-opacity:1" d="m101.027 79.031.653-.933 3.734 2.054-3.453 5.414s-2.8-2.238-5.883-2.707c0 0-2.523 0-2.523 2.336 0 0 .093 1.586 3.644 3.735 0 0 3.735 2.148 3.735 5.976 0 0 .28 8.965-10.368 8.965 0 0-5.043.469-9.152-5.043l4.203-4.2s1.867 3.173 4.95 3.173c0 0 3.269.375 3.269-2.52 0 0 .094-1.402-2.707-3.27 0 0-3.828-2.425-3.828-6.257 0 0 .183-8.125 9.058-8.125 0 0 2.801 0 4.668 1.402"/></svg>