<svg xmlns="http://www.w3.org/2000/svg" xmlns:xlink="http://www.w3.org/1999/xlink" width="759.52" height="746.16" viewBox="0 0 569.64 559.62"><defs><clipPath id="a"><path d="M96 174h386v385.621H96zm0 0"/></clipPath><clipPath id="b"><path d="M165 271h248v288.621H165zm0 0"/></clipPath><clipPath id="c"><path d="M313 18h256.64v113H313zm0 0"/></clipPath><symbol overflow="visible" id="d"><path style="stroke:none" d="m-6.938-9.516 4.5-5.453c1.95 1.367 3.77 1.985 5.47 1.86 1.706-.133 3.343-.977 4.905-2.532 1.633-1.632 2.52-3.218 2.657-4.75.144-1.539-.246-2.773-1.172-3.703-.606-.601-1.293-.937-2.063-1-.773-.058-1.746.184-2.921.735-.813.398-2.551 1.394-5.204 2.984-3.414 2.063-6.175 3.148-8.28 3.25-2.946.168-5.423-.754-7.423-2.766-1.289-1.289-2.129-2.859-2.515-4.703-.383-1.851-.18-3.758.609-5.718.781-1.965 2.148-3.922 4.094-5.86 3.187-3.183 6.285-4.883 9.281-5.094 2.992-.207 5.688.817 8.094 3.063l-4.89 5.328c-1.52-1.07-2.923-1.535-4.204-1.39-1.29.148-2.656.933-4.094 2.359-1.488 1.492-2.351 2.965-2.594 4.422-.132.918.13 1.707.782 2.359.594.594 1.355.855 2.281.781 1.188-.09 3.32-1.086 6.39-2.984 3.075-1.902 5.516-3.133 7.329-3.688 1.82-.558 3.613-.632 5.375-.218 1.77.418 3.453 1.43 5.047 3.03 1.445 1.45 2.394 3.212 2.843 5.282.457 2.074.258 4.16-.593 6.25-.856 2.086-2.383 4.227-4.578 6.422-3.2 3.188-6.399 4.898-9.594 5.125-3.196.23-6.375-.898-9.531-3.39zm0 0"/></symbol><symbol overflow="visible" id="f"><path style="stroke:none" d="m9.031-9.016-34.328-16.312 5.547-5.531L5.375-18.5l-12.5-24.953 5.406-5.406L14.5-14.47zm0 0"/></symbol><symbol overflow="visible" id="g"><path style="stroke:none" d="m-22.688-27.922 10.125-10.11c2.012-1.995 3.598-3.406 4.75-4.218 1.149-.809 2.372-1.344 3.672-1.594 1.305-.246 2.66-.191 4.063.172 1.394.356 2.64 1.086 3.734 2.188a8.316 8.316 0 0 1 2.297 4.234c.352 1.625.227 3.238-.375 4.828 1.988-1.09 3.938-1.512 5.844-1.266 1.902.25 3.594 1.114 5.062 2.579 1.145 1.148 1.993 2.535 2.547 4.156.551 1.625.684 3.23.407 4.812-.274 1.586-1.012 3.13-2.22 4.625-.761.95-2.761 3.059-6 6.328l-8.624 8.61zm9.329-.875 5.828 5.844 3.36-3.344c1.991-1.988 3.206-3.254 3.64-3.797.77-.976 1.156-1.968 1.156-2.968 0-1.008-.41-1.922-1.219-2.735-.789-.777-1.644-1.195-2.562-1.25-.926-.05-1.864.293-2.813 1.031-.558.461-2.039 1.887-4.437 4.282zm10.046 10.078 6.75 6.766 4.735-4.735c1.84-1.832 2.96-3.05 3.36-3.656.62-.894.91-1.847.859-2.86-.055-1.007-.536-1.968-1.438-2.874-.75-.746-1.582-1.207-2.484-1.375-.899-.164-1.817-.02-2.75.437-.938.461-2.574 1.852-4.907 4.172zm0 0"/></symbol></defs><g clip-path="url(#a)"><path style="stroke:none;fill-rule:nonzero;fill:#231f20;fill-opacity:1" d="M288.836 174.719c106 0 192.45 86.453 192.45 192.449 0 106-86.45 192.453-192.45 192.453-106 0-192.453-86.453-192.453-192.453 0-105.996 86.453-192.45 192.453-192.45"/></g><path style="stroke:none;fill-rule:nonzero;fill:#a9bbc2;fill-opacity:1" d="M99.07 367.168c0-104.637 85.13-189.766 189.766-189.766 104.637 0 189.766 85.13 189.766 189.766 0 104.637-85.13 189.766-189.766 189.766-104.637 0-189.766-85.13-189.766-189.766"/><path style="stroke:none;fill-rule:nonzero;fill:#231f20;fill-opacity:1" d="M125.04 367.168c0 90.316 73.48 163.797 163.796 163.797 90.316 0 163.797-73.48 163.797-163.797 0-90.316-73.48-163.793-163.797-163.793-90.316 0-163.797 73.477-163.797 163.793"/><path style="stroke:none;fill-rule:nonzero;fill:#fff;fill-opacity:1" d="M127.738 367.168c0-88.828 72.27-161.098 161.098-161.098 88.828 0 161.098 72.27 161.098 161.098 0 88.828-72.27 161.098-161.098 161.098-88.828 0-161.098-72.27-161.098-161.098"/><path style="stroke:none;fill-rule:nonzero;fill:#231f20;fill-opacity:1" d="M136.719 367.168c0 83.879 68.242 152.117 152.117 152.117 83.879 0 152.113-68.238 152.113-152.117 0-83.875-68.234-152.113-152.113-152.113-83.875 0-152.117 68.238-152.117 152.113"/><path style="stroke:none;fill-rule:nonzero;fill:#fff;fill-opacity:1" d="M139.566 367.168c0-82.309 66.961-149.27 149.27-149.27 82.309 0 149.27 66.961 149.27 149.27 0 82.309-66.961 149.27-149.27 149.27-82.309 0-149.27-66.961-149.27-149.27"/><path style="stroke:none;fill-rule:nonzero;fill:#231f20;fill-opacity:1" d="M438.238 368.402c.004-.414.016-.824.016-1.234 0-.488-.016-.977-.02-1.469H301.438l134.144-26.68c-.168-.886-.344-1.769-.527-2.652l-133.086 26.477 125.293-51.903a175.19 175.19 0 0 0-1.035-2.488l-125.309 51.902 112.687-75.296c-.496-.75-.996-1.497-1.503-2.235l-112.684 75.293 95.777-95.781c-.632-.64-1.27-1.274-1.91-1.902l-95.77 95.77 75.239-112.599a124.498 124.498 0 0 0-2.246-1.496L295.27 354.711l48.964-118.215-2.488-1.031-48.965 118.21 22.34-112.327-2.644-.528-21.895 110.078V234.891h-3.594v116.007l-22.629-113.75-2.64.528 23.074 116.004-50.184-121.157-2.492 1.036 50.188 121.156-75.211-112.559c-.75.492-1.5.989-2.242 1.496l75.207 112.555-95.723-95.723a109.86 109.86 0 0 0-1.91 1.907l95.726 95.726-112.617-75.25c-.508.742-1.008 1.488-1.504 2.238l112.63 75.254-125.231-51.87a152.01 152.01 0 0 0-1.035 2.488l125.222 51.87-133.008-26.456a144.23 144.23 0 0 0-.523 2.648l134.043 26.66H139.437c-.007.492-.023.98-.023 1.469 0 .41.016.82.02 1.234H274.02l-132.055 26.27c.164.887.328 1.77.512 2.648l133.132-26.48-125.445 51.96c.336.837.676 1.669 1.024 2.497l125.46-51.969-112.914 75.45c.493.75.989 1.5 1.493 2.245l112.925-75.457-96.05 96.051c.628.645 1.261 1.281 1.902 1.914l96.059-96.054L204.55 490.48c.742.508 1.488 1.008 2.242 1.5l75.508-113.007-52.043 125.644c.824.356 1.656.695 2.488 1.035l56.04-135.289 56.054 135.325c.832-.34 1.664-.68 2.488-1.032l-52.058-125.68 75.543 113.051c.75-.492 1.496-.992 2.238-1.5l-75.54-113.05 96.102 96.105c.64-.633 1.278-1.27 1.907-1.91l-96.102-96.106 112.992 75.5c.508-.742 1-1.492 1.492-2.242l-112.992-75.5 125.559 52.004c.347-.824.683-1.656 1.02-2.492L301.952 370.84l133.238 26.5c.18-.88.344-1.766.512-2.649l-132.152-26.289h134.687"/><path style="stroke:none;fill-rule:nonzero;fill:#009247;fill-opacity:1" d="M215.379 201.316c-10.094-2.476-18.645-3.636-24.356-2.894-17.09 2.226-37.593 10.664-58.789 20.89-13.59 6.555-30.457 15.13-64.183 35.032l31.414 2.367-3.285 26.238c18.61-12.187 43.507-29.281 66.507-39.133 9.715-4.16 19.09-7.03 27.508-7.695 6.356-.5 11.746 1.125 18.02 2.703 27.367 6.89 53.719 14.676 80.62 14.676v-38.59c-25.522 0-52.67-8.496-73.456-13.594"/><g clip-path="url(#b)"><path style="stroke:none;fill-rule:nonzero;fill:#231f20;fill-opacity:1" d="M405.219 271.73c-39.828 14.957-80.078 22.864-116.39 22.864-36.317 0-76.563-7.906-116.395-22.864l-1.508-.566-.293 1.586c-20.324 110.871 19.156 207.043 117.351 285.844l.844.676.844-.676C387.863 479.793 427.344 383.62 407.02 272.75l-.29-1.586-1.511.566"/></g><path style="stroke:none;fill-rule:nonzero;fill:#fff;fill-opacity:1" d="M288.828 297.293c36.164 0 76.164-7.797 115.79-22.488 3.237 18.125 4.882 35.863 4.882 53.183 0 86.672-40.445 163.098-120.672 227.797-80.226-64.7-120.676-141.125-120.676-227.797 0-17.32 1.649-35.058 4.883-53.183 39.621 14.691 79.625 22.488 115.793 22.488"/><path style="stroke:none;fill-rule:nonzero;fill:#ee3124;fill-opacity:1" d="M288.828 541.996V311.09c-37.672 0-71.433-6.133-105.601-17.77-12.786 98.336 26.718 177.082 105.601 248.676"/><path style="stroke:none;fill-rule:nonzero;fill:#fdb913;fill-opacity:1" d="M288.746 340.086c36.258 0 65.824 29.566 65.824 65.824 0 36.258-29.566 65.832-65.824 65.832-36.258 0-65.828-29.574-65.828-65.832 0-36.258 29.57-65.824 65.828-65.824"/><path style="stroke:none;fill-rule:nonzero;fill:#231f20;fill-opacity:1" d="M221.566 405.91c0 37.043 30.137 67.18 67.18 67.18 37.04 0 67.176-30.137 67.176-67.18 0-37.043-30.137-67.176-67.176-67.176-37.043 0-67.18 30.133-67.18 67.176m2.704 0c0-35.555 28.921-64.476 64.476-64.476s64.477 28.921 64.477 64.476-28.922 64.48-64.477 64.48c-35.555 0-64.476-28.925-64.476-64.48"/><path style="stroke:none;fill-rule:nonzero;fill:#231f20;fill-opacity:1" d="M221.695 404.648c4.004 7.489 10.868 14.868 19.836 21.332l1.578-2.187c-8.64-6.227-15.222-13.29-19.039-20.418l-2.375 1.273M253.387 417.219l2.054-1.746c-15.12-17.801-11.793-48.024 7.575-68.809l-1.973-1.84c-20.285 21.774-23.648 53.57-7.656 72.395M283.379 377.613l2.582-.785c-4.965-16.293-.066-26.52 16.383-34.203l-1.145-2.445c-17.691 8.27-23.187 19.812-17.82 37.433M317.773 402.605c15.457 16.02 18.899 41.274 7.672 56.293l2.164 1.618c12.188-16.305 8.72-42.567-7.89-59.786l-1.946 1.875M332.79 386.035c11.444 9.457 18.034 23.953 17.628 38.777l2.7.07c.429-15.648-6.528-30.945-18.606-40.929l-1.723 2.082M296.59 419.77c10.91 20.253 9.195 40.98-4.176 50.402l1.559 2.207c14.52-10.234 16.574-32.395 4.992-53.89l-2.375 1.28"/><path style="stroke:none;fill-rule:nonzero;fill:#231f20;fill-opacity:1" d="m271.414 451.598-.402 2.664c11.894 1.793 28.02-3.617 34.468-17.176l-2.437-1.156c-5.89 12.386-20.691 17.312-31.629 15.668"/><path style="stroke:none;fill-rule:nonzero;fill:#231f20;fill-opacity:1" d="M393.883 292.078c-14.309 4.871-28.016 8.613-41.895 11.438l-.394.078L208.902 445.84l.48.887c7.4 13.707 16.348 27.421 26.595 40.765l.933 1.219 161.113-160.617-.003-.57c-.067-11.239-.864-22.794-2.364-34.344l-.215-1.633-1.558.531"/><path style="stroke:none;fill-rule:nonzero;fill:#0095da;fill-opacity:1" d="M393.14 295.152c1.333 10.711 2.079 21.414 2.165 31.844-.825.82-155.926 155.445-158.106 157.613-9.55-12.554-17.937-25.425-24.953-38.296 1.441-1.434 140.133-139.696 140.684-140.247 13.332-2.726 26.515-6.316 40.21-10.914"/><path style="stroke:none;fill-rule:nonzero;fill:#231f20;fill-opacity:1" d="M393.992 292.047c-35.453 12.07-68.87 17.695-105.164 17.695-36.297 0-69.715-5.625-105.168-17.695l-1.558-.531-.215 1.632c-12.188 93.739 21.508 173.125 106.035 249.848l.906.82.906-.82c84.528-76.723 118.22-156.11 106.032-249.848l-.211-1.632-1.563.53m-211.816 37.395c0-11.23.777-22.675 2.226-34.328 35.145 11.793 68.38 17.328 104.426 17.328 36.043 0 69.281-5.535 104.422-17.328 1.45 11.653 2.23 23.098 2.23 34.328 0 77.172-34.511 144.914-106.652 210.707-72.14-65.793-106.652-133.535-106.652-210.707"/><path style="stroke:none;fill-rule:nonzero;fill:#ee3124;fill-opacity:1" d="M509.621 254.344c-33.726-19.903-50.598-28.477-64.183-35.031-21.2-10.227-41.7-18.665-58.793-20.891-5.707-.742-14.258.418-24.356 2.894-20.785 5.098-47.93 13.594-73.453 13.594v38.59c26.902 0 53.254-7.785 80.621-14.676 6.273-1.578 11.664-3.203 18.02-2.703 8.418.664 17.793 3.535 27.503 7.695 23 9.852 47.899 26.946 66.508 39.133l-3.281-26.238 31.414-2.367"/><path style="stroke:none;fill-rule:nonzero;fill:#231f20;fill-opacity:1" d="m361.969 200.008-11.649 2.972c-19.058 4.961-40.668 10.583-61.484 10.583-20.82 0-42.426-5.622-61.488-10.583l-11.645-2.972c-10.887-2.668-19.242-3.653-24.851-2.922-14.836 1.934-33.094 8.414-59.204 21.012-12.812 6.183-29.41 14.504-64.285 35.086l-3.699 2.183s31.707 2.387 34.285 2.578c-.312 2.52-3.469 27.739-3.469 27.739l8.938-5.883c17.598-11.606 39.496-26.047 59.805-34.746 10.351-4.434 19.464-6.989 27.078-7.59 5.472-.43 10.191.777 15.66 2.18l12.328 3.144c24.117 6.2 46.899 12.059 70.547 12.059 23.648 0 46.426-5.86 70.547-12.059l12.328-3.144c5.465-1.403 10.184-2.61 15.656-2.18 7.617.601 16.73 3.156 27.082 7.59 20.309 8.699 42.203 23.14 59.805 34.746l8.937 5.883-3.472-27.739c2.578-.191 34.289-2.578 34.289-2.578l-3.703-2.183c-34.871-20.579-51.47-28.903-64.285-35.086-26.11-12.598-44.368-19.078-59.204-21.012-5.605-.73-13.964.254-24.847 2.922M351 205.594l11.61-2.965c10.558-2.59 18.585-3.555 23.859-2.867 14.535 1.89 32.543 8.297 58.383 20.761 12.293 5.938 28.136 13.883 60.367 32.801-6.406.48-28.528 2.149-28.528 2.149l3.098 24.742-4.055-2.664c-17.683-11.664-39.695-26.18-60.222-34.973-10.774-4.617-19.91-7.168-27.934-7.8-5.918-.465-11.074.855-16.535 2.253l-12.332 3.149c-23.95 6.156-46.57 11.968-69.875 11.968-23.309 0-45.926-5.812-69.875-11.972l-12.332-3.145c-5.461-1.398-10.617-2.719-16.54-2.254-8.019.633-17.155 3.184-27.929 7.801-20.531 8.793-42.543 23.309-60.226 34.973 0 0-2.153 1.414-4.051 2.664l3.094-24.742s-22.122-1.668-28.524-2.149c32.23-18.922 48.07-26.863 60.367-32.8 25.836-12.465 43.844-18.872 58.38-20.762 5.277-.688 13.304.277 23.859 2.867l11.609 2.965c19.219 5 41.004 10.664 62.168 10.664s42.945-5.664 62.164-10.664"/><path style="stroke:none;fill-rule:nonzero;fill:#231f20;fill-opacity:1" d="m419.848 234.988-3.543-1.43 1.61-6.34c.116-.445.257-.94.417-1.48.16-.535.348-1.12.555-1.75-.325.551-.797 1.219-1.41 1.992l-.29.36-4.519 5.75-2.523-1.02.742-7.28c.008-.099.023-.25.05-.454.086-.984.211-1.79.364-2.402-.254.511-.508 1.011-.762 1.507-.262.496-.531.985-.809 1.473l-3.246 5.68-3.52-1.426 7.763-13.035 3.75 1.515-.797 8.02a4.029 4.029 0 0 0-.024.273c-.062.72-.16 1.317-.293 1.797.121-.238.282-.492.473-.765.191-.274.434-.598.723-.973l5.007-6.293 3.762 1.52-3.48 14.761m-34.461-25.242 4.035.566-1.016 7.223c-.148 1.063-.226 1.828-.242 2.3-.008.466.027.868.113 1.196.102.403.332.73.692.985.355.254.812.418 1.367.496.555.078 1.031.043 1.445-.102.406-.144.727-.398.938-.754.176-.293.316-.668.437-1.12.117-.458.25-1.216.403-2.278l.14-1.016.875-6.207 4.028.57-1.106 7.848c-.23 1.629-.492 2.817-.8 3.567-.31.746-.727 1.355-1.274 1.84-.59.53-1.352.882-2.277 1.062-.93.176-2.028.176-3.29-.004-1.27-.18-2.328-.48-3.168-.902-.84-.426-1.472-.98-1.902-1.649-.383-.617-.62-1.32-.71-2.125-.09-.8-.02-2.015.206-3.644l.219-1.543.887-6.309m-23.742 20.309-3.883-14.485 3.808-1.02 7.47 5.985c.144.121.397.38.765.774.363.394.77.867 1.23 1.425a36.15 36.15 0 0 1-.601-1.558c-.16-.453-.29-.867-.387-1.23l-1.914-7.153 3.785-1.016 3.883 14.485-3.79 1.011-7.476-6.011c-.152-.121-.41-.38-.773-.774-.364-.394-.766-.86-1.219-1.406.242.586.441 1.11.605 1.566.164.457.29.868.387 1.235l1.918 7.148-3.808 1.024m-24.165-9.215 3.938-1.059 1.887 7.047c.277 1.035.504 1.77.675 2.211.172.434.364.79.575 1.059.246.328.59.539 1.015.636.426.09.914.067 1.453-.078.54-.144.97-.367 1.293-.66.317-.293.508-.648.567-1.059.047-.34.031-.742-.031-1.203-.075-.464-.247-1.218-.524-2.254l-.265-.988-1.622-6.054 3.926-1.055 2.055 7.66c.426 1.586.644 2.785.652 3.594.012.804-.137 1.535-.449 2.191-.336.719-.898 1.344-1.684 1.867-.785.528-1.796.953-3.027 1.282-1.238.332-2.328.468-3.27.406-.937-.063-1.738-.32-2.394-.774-.594-.418-1.086-.972-1.484-1.675-.399-.704-.809-1.848-1.235-3.438l-.402-1.504-1.649-6.152m-25.55 15.37c.718.571 1.398.977 2.039 1.208.64.234 1.25.3 1.828.2.539-.095.957-.317 1.25-.669.297-.347.406-.746.324-1.187-.086-.492-.3-.848-.644-1.059-.348-.21-1.075-.367-2.176-.465-1.516-.133-2.63-.46-3.336-.98-.711-.52-1.16-1.324-1.356-2.414-.246-1.41.02-2.649.813-3.703.785-1.063 1.933-1.72 3.433-1.989.82-.14 1.61-.168 2.38-.078.765.09 1.511.301 2.245.63l-.75 3.116a5.491 5.491 0 0 0-1.566-.636 3.786 3.786 0 0 0-1.476-.043c-.485.082-.856.27-1.118.554-.261.285-.36.61-.297.973.067.371.25.644.555.816.305.176.856.297 1.649.368.05.003.117.011.191.02 1.719.151 2.883.448 3.492.89.414.3.758.687 1.031 1.164.274.472.461 1.023.57 1.64.274 1.567-.015 2.914-.878 4.047-.86 1.137-2.149 1.856-3.86 2.157-1.03.18-2 .167-2.906-.032-.902-.199-1.812-.605-2.722-1.215l1.285-3.312m-21.543-8.43 4.062-.285.512 7.274c.074 1.07.156 1.835.238 2.3.09.457.207.844.363 1.149.18.37.473.644.875.816.403.176.883.242 1.442.203.558-.039 1.023-.175 1.394-.398.372-.23.625-.543.758-.934.114-.324.176-.719.2-1.187.019-.473-.008-1.242-.083-2.313l-.07-1.02-.437-6.253 4.054-.281.555 7.906c.113 1.64.102 2.855-.043 3.652-.144.793-.43 1.48-.86 2.07-.468.637-1.14 1.141-2.011 1.508-.867.367-1.945.59-3.219.68-1.277.09-2.375.016-3.285-.227-.906-.238-1.644-.648-2.203-1.214-.504-.524-.883-1.16-1.137-1.926-.254-.77-.437-1.973-.555-3.613l-.109-1.555-.441-6.352M158.73 234.668l-5.855-13.805 8.453-3.59 1.285 3.028-4.789 2.031 1.02 2.395 4.511-1.915 1.258 2.958-4.515 1.917.988 2.329 4.789-2.032 1.313 3.094-8.458 3.59m31.766-9.426-3.828.137-.523-14.984 4.27-.153c1.667-.054 2.847-.015 3.53.121.68.145 1.262.403 1.746.785.57.434 1.012.993 1.325 1.668.316.676.484 1.434.515 2.274.031.89-.086 1.683-.347 2.37a4.072 4.072 0 0 1-1.211 1.72c-.41.343-.903.593-1.47.757-.57.165-1.483.27-2.745.313l-.696.023-.738.028.172 4.941m-.285-8.234.777-.028c.985-.035 1.66-.195 2.04-.48.378-.281.562-.746.535-1.395-.02-.628-.227-1.07-.618-1.324-.39-.25-1.074-.36-2.043-.324l-.816.027.125 3.524m14.168 9.887 3.879-14.48 3.949 1.054-2.977 11.101 4.907 1.313-.907 3.387-8.851-2.375m18.996-10.52 3.938 1.055-1.887 7.043c-.281 1.039-.453 1.789-.524 2.254-.066.464-.078.863-.03 1.203.05.41.237.761.562 1.058.324.293.754.516 1.296.66.54.145 1.024.168 1.45.079a1.753 1.753 0 0 0 1.02-.637c.21-.27.398-.625.573-1.059.172-.441.399-1.176.676-2.21l.266-.993 1.62-6.055 3.927 1.055-2.051 7.656c-.426 1.59-.832 2.735-1.23 3.442a4.917 4.917 0 0 1-1.485 1.676c-.652.449-1.45.71-2.39.773-.946.063-2.036-.074-3.266-.406-1.238-.328-2.25-.758-3.031-1.281-.786-.524-1.348-1.149-1.692-1.868-.304-.66-.453-1.386-.445-2.195.008-.809.223-2.004.648-3.594l.407-1.504 1.648-6.152m16.207 19.484 3.371-14.609 4.164.96c1.625.38 2.746.716 3.356 1.013.601.297 1.101.68 1.488 1.136.43.52.719 1.125.855 1.805.141.688.125 1.402-.046 2.145-.262 1.132-.75 1.988-1.47 2.57-.718.578-1.64.863-2.753.848l2.617 6.808-4.5-1.039-2.027-6.492-1.325 5.719-3.73-.864m5.512-6.84.738.168c.856.2 1.52.196 1.98-.003.465-.204.766-.618.915-1.243.168-.73.101-1.293-.2-1.687-.297-.399-.879-.691-1.75-.895l-.797-.183-.886 3.844m12.3 10.55L260 224.805l4.066.718-2.601 14.766-4.07-.719"/><path style="stroke:none;fill-rule:nonzero;fill:#009247;fill-opacity:1" d="m190.898 213.305-.964.035.132 3.82.926-.031c1.024-.035 1.719-.203 2.125-.508.422-.312.621-.824.598-1.523-.024-.672-.254-1.16-.688-1.442-.422-.27-1.117-.386-2.129-.351m.012.3c.934-.03 1.59.07 1.953.301.352.23.532.621.551 1.203v.106c0 .539-.16.93-.476 1.168-.352.262-1.008.414-1.954.445l-.629.024c-.007-.262-.105-2.961-.113-3.223l.668-.024M245.836 225.14l-.922 3.989.883.207c.898.203 1.582.2 2.074-.016.508-.218.844-.672.996-1.343.18-.778.106-1.387-.219-1.817-.32-.426-.921-.734-1.84-.945l-.94-.219-.032.145m.258.214.648.149c.832.191 1.395.476 1.668.84.168.222.254.515.254.875 0 .207-.027.437-.086.691-.133.57-.41.953-.824 1.133-.43.187-1.066.187-1.89 0 0 0-.403-.094-.594-.137.062-.261.761-3.293.824-3.55"/><path style="stroke:none;fill-rule:nonzero;fill:#231f20;fill-opacity:1" d="M257.89 128.457v.164h.16c1.036 0 3.65-1.426 5.958-2.68 1.36-.738 2.64-1.433 3.25-1.636l-.106-.309c-.632.211-1.867.883-3.297 1.66-2.066 1.125-4.57 2.477-5.625 2.598.043-4.41 1.391-7.082 5.31-10.441l-.212-.247c-4.066 3.489-5.437 6.235-5.437 10.891"/><path style="stroke:none;fill-rule:nonzero;fill:#fdb913;fill-opacity:1" d="M356.738 128.719c-2.968 1.054-6.187.367-7.918-3.059-3.168 2.746-7.058 3.137-12.207 1.113l-21.308-28.996 3.242-29.324c5.398 2.762 11.414 3.32 13.898 3.063 16.078-1.672 2.57-13.93 25.84-24.516 8.317-15.344 21.832-20.563 29.574-22.09 38.543-7.605 89.305-3.578 128.887-3.906l50.656-.426c-3.129 7.719-13.972 12.543-24.957 14.961-2.914 7.05-6.633 10.961-15.515 14.574-.567 2.797-2.633 10.969-22.266 17.914-4.176 11.348-24.457 19.57-42.73 22.996-4.59 9.098-20.704 11.965-28.512 10.805-.703 2.516-6.344 5.652-8.55 5.402.382 1.032.78 5.493-4.782 4.34 1.082 3.54.351 5.508-1.27 6.52-1.668 1.043-4.285 1.066-6.84.734-.52 2.13-2.293 2.934-4.347 3.012-2.328.086-5.016-.758-6.64-1.652.042 2.968-1.962 3.894-4.677 3.703-3.062-.223-6.546-1.785-7.878-3.242-.512 3.203-3.422 4.515-6.524 4.652-2.117.094-4.324-.363-5.906-1.145-.219 2.555-2.461 3.524-4.356 3.555-3.617.066-7.976-3.266-8.718-5.434-.989 3.086-3.489 5.489-6.196 6.446"/><g clip-path="url(#c)"><path style="stroke:none;fill-rule:nonzero;fill:#231f20;fill-opacity:1" d="M387.566 23.438a44.864 44.864 0 0 0-30.324 22.41c-12.523 5.836-14.707 12.34-16.27 17.109-1.355 4.113-2.097 6.383-8.683 7.066-2.371.247-8.012-.324-13.059-2.906l-1.937-.988-3.543 32.062 21.91 29.82.402.157c4.938 1.941 8.946 1.664 12.31-.508 2.058 2.711 5.366 3.715 8.87 2.473 2.45-.867 4.574-2.656 5.957-4.906 2.051 2.144 5.453 4.035 8.485 3.98 2.14-.039 4.32-1.074 5.285-3.156 1.574.5 3.308.816 5.011.746 3.395-.152 5.907-1.516 7.149-3.727 1.96 1.207 4.68 2.14 7.082 2.313 2.105.148 3.734-.301 4.84-1.344.5-.469.855-1.05 1.097-1.719 1.664.621 3.676 1.082 5.54 1.016 2.539-.098 4.316-1.156 5.234-2.941 2.91.242 5.148-.067 6.695-1.032 1.238-.773 2.48-2.203 2.48-4.82 0-.402-.05-.852-.113-1.313 1.809-.066 2.891-.777 3.5-1.484.809-.941 1.082-2.16 1.082-3.226v-.004c2.668-.657 6.305-2.778 7.766-5.13 8.203.805 23.254-2.027 28.48-11.011 16.954-3.27 37.899-11.215 42.954-23.168 12.972-4.695 20.48-10.746 22.382-17.996 8.11-3.41 12.266-7.305 15.356-14.383 8.125-1.867 21.473-6.277 25.289-15.683l.844-2.082-52.903.44c-10.53.087-21.714-.132-33.55-.362-31.493-.618-67.188-1.313-95.618 4.297m-54.964 49.57c8.515-.887 9.832-4.883 11.218-9.117 1.493-4.536 3.344-10.184 15.086-15.528l.457-.207.239-.441a41.805 41.805 0 0 1 28.546-21.336c28.114-5.543 62.106-4.883 94.977-4.238 11.86.23 23.063.449 33.637.363l48.12-.402c-3.448 5.207-11.534 9.503-22.76 11.972l-.767.168-.296.727c-2.887 6.992-6.598 10.46-14.696 13.754l-.746.304-.16.79c-1.34 6.62-8.504 12.273-21.297 16.796l-.66.235-.242.664c-3.89 10.566-23.695 18.68-41.602 22.039l-.73.136-.332.66c-4.313 8.551-19.836 11.055-26.95 9.997l-1.308-.196-.36 1.278c-.472 1.699-5.324 4.5-6.937 4.312l-2.426-.273.852 2.289c.105.293.238 1.46-.254 2.035-.57.66-2.008.48-2.816.313l-2.477-.512.738 2.418c1.13 3.71-.191 4.539-.629 4.808-.773.485-2.414.965-5.855.524l-1.328-.176-.32 1.305c-.118.484-.434 1.773-2.95 1.867-2.058.078-4.476-.707-5.855-1.469l-2.262-1.25.035 2.586c.012.774-.156 1.332-.5 1.656-.453.426-1.363.618-2.566.532-2.75-.2-5.832-1.614-6.883-2.758l-2.098-2.293-.488 3.066c-.445 2.778-3.39 3.317-5.105 3.39-1.797.083-3.782-.3-5.18-.987l-1.973-.973-.183 2.187c-.172 1.98-2.254 2.172-2.891 2.184-3.074.059-6.766-2.93-7.273-4.418l-1.47-4.289-1.378 4.316c-.793 2.485-2.86 4.637-5.266 5.489-1.25.445-4.347 1.105-6.078-2.32l-.863-1.72-1.457 1.262c-2.692 2.332-5.895 2.614-10.309.97-.547-.75-20.011-27.235-20.672-28.138l2.954-26.742c5.097 2.125 10.289 2.653 12.789 2.39"/></g><path style="stroke:none;fill-rule:nonzero;fill:#fdb913;fill-opacity:1" d="M244.457 120.496c-2.82 1.18-5.094 1.707-7.25 1.625-2.156-.078-4.066-.77-5.906-2.027-2.074 3.656-5.215 5.242-8.184 5.222-3.36-.02-6.156-2.23-7.597-5.53-1.98 2.94-6.239 7.87-10.696 7.816-1.746-.024-3.219-1.145-3.93-4.18-1.707.84-4 1.613-6.003 1.766-2.586.199-4.707-.63-4.524-3.665-2.37 1.47-6.023 2.856-8.707 2.868-2.363.011-3.972-1.047-3.262-4.063-.562.61-4.343 2.582-7.261 2.274-1.532-.165-2.82-.954-3.285-2.895-2.516.324-5.313-.281-7.407-1.695-2.093-1.418-3.484-3.653-3.195-6.586-7.352 1.668-7.54-4.04-7.156-5.07-2.399-.54-6.305-2.012-7.352-4.528-9.422-.246-21.66-.777-28.207-8.933 0 0 .235-.68-.152-.7-14.906-.64-36.067-8.332-40.242-19.68-17.66-6.617-23.204-13.8-24.754-17.417-9.617-3.25-17.54-6.82-19.621-14.282C18.199 38.984 4.57 30.937 2.023 22.633l55.348-.309c39.586-.222 90.344-4.433 128.887 3.172 7.742 1.527 24.043 10.117 32.36 25.461 14.327.328 18.683 23.414 29.777 23.621 4 .074 10.265-3.742 15.355-13.164-2.156.637-4.254.918-6.242.898a18.632 18.632 0 0 1-5.281-.796c8.964-4.051 8.421-11.008 8.585-13.91-2.078.925-5.648 1.195-8.382.304 1.68-2.18 3.39-6.562 2.578-9.586-2.446 2.082-4.278 3.016-6.762 3.535.149-2.593-.129-4.804-1.062-6.918-4.106-9.265-17.407-6.195-17.137-16.14 1.633 1.84 3.957 3.344 6.59 3.347 1.379 0 2.75-.488 3.968-1.707.641-.796.907-1.746.915-2.714.007-1.418-.547-2.88-1.333-3.973-2.136-2.973-5.207-3.871-8.296-3.777-4.703.14-9.453 2.59-11.008 3.53.61-8.19 8.07-11.984 14.847-12.003 3.95-.012 8.325 1.45 10.415 4.035 4.59-3.258 9.484-3.484 15.718-.21 6.969 3.66 22.867 8.003 30.551 5.98-1.707 3.875-6.34 5.218-8.547 5.816 5.711-.066 11.285.586 15.488 1.922-3.19 1.504-5.89 3.348-8.648 4.851 4.938.442 9.738.68 13.813 2.715-3.332.782-5.383 2.121-5.915 3.871 2.45 2.274 6.836 2.258 11.235 3.47 4.125 1.136 8.262 3.358 10.805 9.57-2.489 0-5.055.331-7.215 1.328 5.695 4.507 9.695 8.91 11.14 12.812-2.597.117-4.925.606-7.07 1.633 4.895 3.738 9.223 7.594 11.79 11.797-2.97.36-5.935.957-8.9 1.785 4.84 3.48 8.47 7.43 10.344 11.379-1.937-.426-4.343-.653-6.28-.45 5.273 5.094 9.608 10.766 11.132 16.016-1.906-.742-4.02-1.176-6.238-1.445 1.363 3.976 2.277 7.957 2.547 11.937 8.328 6.239 13.03 13.063 12.316 24.07-2.047-1.105-4.09-1.816-6.133-2.136 3.02 5.285 2.824 10.371.844 16.441-1.516-1.875-3.102-3.207-4.774-3.988.008 6.5-.902 11.867-2.925 15.867l-2.344-3.87c-2.871 6.183-8.828 13.741-14.266 11.991-4.758 4.762-8.847 6.094-16.351 9.504-1.082-1.191-2.657-2.215-4.09-3.32-2.074 1.777-3.684 3.68-5.336 6.18-1.445-2-3.04-3.782-4.852-5.23l-5.964 2.214c-12.825-8.773-24.594-11.098-23.258-23.633-1.535.547-2.903 2.024-4.621 3.668-1.438-4.168-1.54-11.418-.743-17.722-2.363.34-3.406.625-5.496 1.699-.14-2.38-.261-7.817 2.715-13.797-3.199.809-3.953 2.035-5.625 3.562 0-4.136 1.29-8.175 3.465-11.32"/><path style="stroke:none;fill-rule:nonzero;fill:#231f20;fill-opacity:1" d="M235.727.004c-7.391.02-15.657 4.223-16.34 13.394l-.219 2.899 2.488-1.504c1.946-1.176 6.301-3.195 10.281-3.316 3.137-.098 5.434.933 7.032 3.152.664.922 1.054 2.078 1.05 3.09-.003.703-.203 1.304-.582 1.785a3.918 3.918 0 0 1-2.8 1.144c-2.567-.003-4.528-1.78-5.469-2.843l-2.52-2.836-.101 3.793c-.172 6.351 4.527 8.343 8.676 10.097 3.402 1.446 6.922 2.934 8.586 6.692.793 1.785 1.082 3.707.937 6.226l-.105 1.953 1.914-.402c1.86-.39 3.418-1.047 5.023-2.082-.305 2.047-1.238 4.324-2.34 5.75l-1.3 1.684 2.027.66c2.168.703 4.918.773 7.258.293-.207 3.183-1.16 7.601-7.618 10.515l-3.628 1.641 3.808 1.16c1.824.555 3.742.848 5.707.864a21.91 21.91 0 0 0 3.223-.223c-4.297 6.601-9.117 9.547-12.293 9.488-4.453-.082-7.969-4.922-11.688-10.043-4.394-6.05-9.382-12.816-17.226-13.469-8.336-14.746-24.184-23.808-32.957-25.543-29.36-5.793-66.235-4.753-98.77-3.84-10.71.301-20.832.587-30.422.641L0 21.144l.594 1.926c2.75 8.992 16.547 16.946 28.086 19.043 2.699 7.672 11.074 11.278 19.648 14.203 1.926 3.934 7.656 10.86 24.707 17.364C78.04 85.488 98.973 92.69 113.2 93.617c.074.098.168.215.168.215 6.942 8.652 19.688 9.234 28.512 9.473 1.535 2.336 4.668 3.597 6.633 4.18.047 1.19.41 2.628 1.422 3.78.945 1.083 2.77 2.114 5.886 1.84.266 2.465 1.528 4.622 3.785 6.149 2.043 1.379 4.684 2.094 7.258 2.016.778 1.605 2.176 2.617 4.114 2.82 1.96.21 4.199-.438 5.933-1.207.14.52.344.996.668 1.402.856 1.074 2.23 1.613 4.09 1.606 2.371-.008 5.242-.942 7.535-2.036.215.56.531 1.055.953 1.47 1.082 1.066 2.711 1.523 4.848 1.359 1.496-.114 3.246-.63 4.945-1.293 1.278 3.14 3.52 3.695 4.856 3.71 4.504.055 8.43-3.917 10.582-6.62 1.879 2.699 4.61 4.32 7.722 4.335 3.426.02 6.48-1.77 8.653-4.82 1.718.938 3.484 1.555 5.386 1.625 1.336.05 2.711-.129 4.196-.5-1.184 2.707-1.852 5.68-1.852 8.695v3.508l3.356-3.203c.332-.324.636-.61.953-.875a28.524 28.524 0 0 0-1.453 9c0 .625.02 1.258.058 1.895l.137 2.297 2.047-1.055c1.273-.656 2.11-.969 3.133-1.203-.18 1.898-.317 3.93-.317 6.047 0 3.75.356 7.55 1.317 10.34l.765 2.222 2.375-2.293c.489-.473.934-.883 1.375-1.277.453 8.215 6.871 11.965 14.86 16.523 2.918 1.668 5.937 3.39 9.074 5.535l.64.442s4.563-1.696 5.829-2.168a25.54 25.54 0 0 1 3.98 4.383l1.27 1.757 1.195-1.812c1.375-2.078 2.71-3.61 4.219-5.027.02.011.117.085.117.085 1.043.77 2.027 1.497 2.726 2.266l.73.809 4.196-1.875c5.38-2.383 9.024-4.059 13.016-7.867 5.125.87 10.441-4.32 13.898-10.497.457.762 2.352 3.887 2.352 3.887l1.223-2.414c1.8-3.562 2.753-8.164 2.988-13.851a15.373 15.373 0 0 1 2.203 2.238l1.734 2.152.86-2.629c1.023-3.136 1.543-5.918 1.543-8.496 0-2.195-.52-4.226-1.27-6.222a19.6 19.6 0 0 1 2.875 1.265l2.059 1.113.152-2.336c.05-.777.074-1.539.074-2.289 0-9.14-3.851-16.046-12.492-22.671-.25-2.961-.906-6.043-1.86-9.266 1.337.262 2.575.562 3.61.969l2.832 1.101-.848-2.918c-1.492-5.148-5.328-10.144-8.988-14.054.8.082 1.606.203 2.38.37l2.983.65-1.308-2.759c-1.613-3.394-4.473-6.765-8.242-9.902 1.875-.422 3.757-.902 5.62-1.129l2.313-.281-1.215-1.989c-2.46-4.039-6.378-7.597-10-10.496a18.553 18.553 0 0 1 4.075-.656l2.05-.094-.71-1.925c-1.305-3.512-4.57-7.442-9.508-11.66a18.912 18.912 0 0 1 4.172-.458h2.238l-.848-2.07c-2.945-7.187-7.855-9.36-11.8-10.445l-4.223-.922c-2.149-.402-4.035-.781-5.414-1.543.78-.809 2.257-1.5 4.261-1.969l4.043-.945-3.714-1.856c-2.977-1.492-6.208-2.07-9.606-2.433 1.367-.758 7.477-4.125 7.477-4.125l-3.247-1.098c-2.66-.844-5.89-1.406-9.378-1.719 1.355-.964 2.59-2.253 3.355-3.988l1.254-2.844-3.008.79c-7.086 1.867-22.523-2.204-29.473-5.852-6.156-3.234-11.332-3.23-16.21-.25-2.739-2.543-7.118-3.762-10.625-3.75m.007 3c3.782-.012 7.578 1.418 9.243 3.476l.882 1.098 1.153-.816c4.222-2.996 8.59-3.028 14.152-.106 6.238 3.282 19.086 6.934 27.691 6.598-1.585 1.191-3.574 1.934-5.378 2.422l-11.45 3.086 11.86-.137c4.125-.05 8.031.297 11.39.957L293 20.84l-7.125 4.125 4.7.43 1.355.117c2.925.25 5.726.523 8.304 1.18-1.847 1.074-2.75 2.32-3.062 3.359l-.274.894.688.64c1.992 1.849 4.848 2.384 7.871 2.95l3.98.863c3.09.852 6.493 2.364 8.922 6.82-2.09.192-4.007.555-5.558 1.27l-2.215 1.024 1.914 1.515c4.797 3.793 8.063 7.344 9.773 10.434-1.968.273-3.804.71-5.421 1.484l-2.207 1.059 1.945 1.488c4.75 3.625 7.914 6.633 10.082 9.504-2.23.367-4.469.82-6.688 1.442l-3.004.84 2.532 1.82c3.62 2.597 6.453 5.41 8.37 8.242-1.277-.106-2.527-.133-3.585-.024l-3.2.336 2.313 2.239c4.602 4.437 7.828 8.726 9.625 12.605a34.287 34.287 0 0 0-3.508-.605l-2.37-.29.773 2.262c1.414 4.14 2.218 7.918 2.465 11.551l.046.688.551.414c8.242 6.171 11.77 12.261 11.785 20.601-1.488-.617-2.98-1.113-4.464-1.347l-3.083-.485 1.547 2.711c1.414 2.477 2.114 4.93 2.114 7.684 0 1.55-.305 3.261-.746 5.07-1.086-1.004-2.196-1.86-3.36-2.402l-2.14-1.004.003 2.437c0 4.977-.578 9.133-1.691 12.453-.36-.586-2.254-3.718-2.254-3.718l-1.187 2.55c-2.977 6.414-8.348 12.516-12.446 11.2l-.87-.282-.65.649c-3.835 3.836-7.167 5.312-12.687 7.762 0 0-1.379.613-2.312 1.03a30.615 30.615 0 0 0-2.348-1.902l-2.074-1.554-.934.765c-1.632 1.399-3.03 3.024-4.41 4.887-1.238-1.516-2.504-2.879-3.863-3.969l-.664-.53-6.063 2.253c-3.007-2.012-5.976-3.734-8.61-5.238-7.972-4.551-13.429-7.668-13.429-14.875 0-.54.031-1.106.094-1.696l.254-2.375-2.246.801c-1.188.426-2.223 1.278-3.278 2.246-.37-1.996-.578-4.437-.578-7.11 0-2.429.16-5.026.485-7.589l.25-1.95-1.95.278c-1.562.223-2.632.457-3.78.88.07-3.849.894-7.49 2.55-10.825l1.457-2.926-3.164.805c-1.492.375-2.531.851-3.36 1.383.485-2.47 1.41-4.825 2.801-6.836l2.914-4.211-4.726 1.976c-2.672 1.117-4.711 1.582-6.613 1.512-1.828-.07-3.453-.633-5.118-1.77l-1.347-.921-.805 1.421c-1.617 2.848-4.121 4.477-6.871 4.461-2.64-.011-4.973-1.746-6.234-4.632l-1.094-2.5-1.524 2.265c-2.238 3.324-6.046 7.196-9.43 7.153-.491-.008-1.784-.024-2.488-3.024l-.433-1.836-1.692.832c-1.78.88-3.87 1.496-5.457 1.617-1.195.094-2.085-.086-2.511-.504-.309-.3-.442-.832-.395-1.574l.176-2.89-2.465 1.527c-2.105 1.305-5.504 2.633-7.922 2.64-.855.005-1.484-.167-1.73-.472-.238-.3-.262-.918-.07-1.746l1.085-4.61-3.613 3.215c-.473.422-3.668 2.082-6.035 1.832-1.125-.12-1.719-.644-1.984-1.754l-.317-1.308-1.336.172c-2.187.281-4.629-.274-6.367-1.45-1.309-.886-2.812-2.507-2.547-5.195l.203-2.07-2.027.46c-1.527.345-3.57.524-4.648-.585-.641-.664-.79-1.629-.79-2.176 0-.164.012-.293.032-.36l.386-1.495-1.476-.453c-2.54-.575-5.594-1.961-6.293-3.641l-.371-.899-.973-.027c-8.152-.215-20.379-.57-26.75-8.047-.027-.281-.058-.57-.246-.847a1.704 1.704 0 0 0-1.344-.735c-15.386-.664-35.148-8.508-38.898-18.703l-.234-.644-.645-.243c-18.047-6.761-22.727-13.863-23.902-16.605l-.266-.613-.633-.215c-10.195-3.442-16.87-6.86-18.652-13.262l-.262-.93-.953-.148C19.133 37.613 7.95 30.8 4.367 24.117l53.012-.293c9.621-.054 19.758-.34 30.488-.64 32.375-.91 69.074-1.946 98.102 3.785 8.097 1.597 23.656 10.554 31.328 24.703l.414.766.871.015c6.871.16 11.371 6.356 15.723 12.344 4.175 5.742 8.117 11.168 14.058 11.281 4.188.074 11.075-3.527 16.707-13.95l1.711-3.167-3.453 1.016c-1.95.574-3.902.855-5.808.836-.34 0-.649-.126-.985-.149 5.399-4.078 5.652-9.418 5.746-12.227l.13-3.156-2.208.957c-1.254.559-3.328.746-5.332.535 1.004-1.933 1.844-4.414 1.844-6.742 0-.722-.078-1.43-.262-2.097l-.617-2.29-1.805 1.54c-1.597 1.363-2.875 2.168-4.316 2.695-.078-2.05-.426-3.875-1.16-5.543-2.149-4.844-6.407-6.645-10.164-8.238-2.543-1.075-4.36-2.008-5.504-3.328 1.21.554 2.472.878 3.746.878 1.89 0 3.633-.742 5.035-2.148.914-1.129 1.344-2.387 1.352-3.766.007-1.648-.583-3.418-1.618-4.855-2.16-3.004-5.464-4.527-9.554-4.402-3.344.101-6.59 1.257-8.84 2.265 1.879-5.262 7.547-7.722 12.726-7.738m-122.617 89.41-.008.02v-.004l.008-.016"/><path style="stroke:none;fill-rule:nonzero;fill:#fdb913;fill-opacity:1" d="M259.621 145.832c-.238 8.594-2.953 24.184-10.613 29.652-6.473 4.621-15.707 1.442-20.512 7.93l.602 3.89c7.254.079 8.761.61 16.507-4.78-4.984 3.53-8.125 5.788-8.722 11.632 1.949.41 2.883 2.125 4.207 2.934 2.36-2.488 5.3-5.25 8.515-10.59-.425 4.176-2.43 7.11-2.43 11.129 1.716-.277 3.43-.316 5.145 0 1.504-3.29 5.418-10.695 5.418-14.504 4.496 0 7.617-.793 11.84-1.516 1.91-.324 3.977.176 6.512-.226.234-1.887.02-3.543.02-5.235-4.708-1.472-5.301-2.925-10.95-5.578-2.027-4.476.63-11.699 2.082-19.164-2.57-1.418-4.676-3.687-5.715-6.68-.632.278-1.273.66-1.906 1.106"/><path style="stroke:none;fill-rule:nonzero;fill:#231f20;fill-opacity:1" d="m260.93 143.352-2.899 1.675.09.762c-.242 8.758-3.101 23.563-9.984 28.477-2.575 1.836-5.672 2.304-8.95 2.8-4.351.66-8.851 1.34-11.898 5.457l-.371.504.89 5.758 2.965.047c2.547.043 4.415.059 6.301-.324-.86 1.508-1.457 3.258-1.683 5.496l-.137 1.34 1.316.281c.832.176 1.438.754 2.14 1.43l2.669 2.203.797-1.137.902-.941c.95-.985 2.02-2.114 3.14-3.43-.304 1.21-.542 2.473-.542 3.879v1.762l1.738-.282c1.668-.27 3.184-.273 4.637-.004l1.133.208 1.414-2.989c2.117-4.418 3.957-8.582 4.437-11.742 3.055-.105 5.54-.535 8.32-1.047l2.477-.445 2.54-.07c1.16.039 2.472.082 3.952-.153l1.238-.199.012-1.098.078-3.867-.074-2.625-1.02-.36c-2.492-.78-3.703-1.527-5.378-2.558a50.08 50.08 0 0 0-4.785-2.656c-.301-.852-.465-1.813-.465-2.906 0-2.723.789-6.09 1.61-9.59l1.413-6.406-.984-.508c-2.418-1.336-4.156-3.364-5.028-5.86l-.593-1.71-1.418.828m-21.293 36.68c3.48-.528 7.086-1.071 10.242-3.325 7.957-5.684 10.707-20.57 11.16-29.453 1.066 1.934 2.625 3.566 4.52 4.82l-.942 4.25c-.855 3.66-1.687 7.188-1.687 10.274 0 1.68.246 3.226.867 4.59l.226.503.5.235c2.364 1.113 3.809 2.004 5.082 2.789 1.493.914 2.856 1.722 5.036 2.504.004.281.015.61.015.61s-.02 1.167-.035 2.16c-.734.038-1.46.054-2.148.034l-3.145.11-2.52.453c-3.027.559-5.64 1.039-9.07 1.039h-1.5v1.5c0 2.832-2.718 8.512-4.347 11.902 0 0-.239.512-.48 1.02-.821-.086-1.669-.11-2.532-.063.195-1.304.516-2.574.926-3.867.53-1.672 1.082-3.402 1.293-5.465l.68-6.668-3.458 5.743c-2.707 4.492-5.172 7.058-7.347 9.32l-.188-.16a10.249 10.249 0 0 0-2.172-1.575c.785-4.382 3.34-6.363 7.86-9.566l-1.727-2.457c-6.7 4.664-8.226 4.64-13.922 4.543l-.437-.008c-.13-.828-.203-1.312-.293-1.894 2.308-2.727 5.656-3.309 9.543-3.899"/><path style="stroke:none;fill-rule:nonzero;fill:#fdb913;fill-opacity:1" d="M236.125 203.734c-1.11-1.68-1.824-6.656.238-9.468 1.282.511 3.883 1.285 4.922 2.468-1.547 1.512-4.172 4.77-5.16 7"/><path style="stroke:none;fill-rule:nonzero;fill:#231f20;fill-opacity:1" d="M235.152 193.379c-2.425 3.309-1.773 8.922-.28 11.184l1.515 2.28 1.11-2.5c.91-2.054 3.44-5.167 4.839-6.538l1.016-.993-.938-1.07c-1.101-1.25-3.184-2.015-4.707-2.574l-1.852-.695-.703.906m1.395 5.676c0-1.02.223-2.012.586-2.899.601.227 1.277.5 1.887.809-.77.875-1.594 1.93-2.375 3.027-.028-.32-.098-.601-.098-.937M281.3 135.727c1.555 1.605 3.72 6.746 3.72 11.668 0 .945-.082 1.878-.262 2.78-.5 2.516-1.746 4.41-3.649 5.712-1.03-3.242-3.562-8.614-7.425-11.032l-1.22-.761-.812 1.183c-1.043 1.52-1.648 3.418-2.02 5.493-3.152-1.172-5.628-3.485-6.69-6.536l-.532-1.523-1.48.644c-2.403 1.04-4.79 3.387-6.371 4.938l-.204.191c-2.203-2.687-3.167-5.035-3.25-8.168l-.042-1.773-4.348.852.82 2.882.774-.148c.433 3.457 1.851 6.355 4.8 9.555l1.02 1.101.996-.933 1.531-1.418c1.125-1.106 2.703-2.633 4.25-3.637 1.856 3.672 5.246 6.433 9.531 7.426l1.704.394.129-1.746c.125-1.71.562-3.137 1.148-4.422 3.164 2.996 5.105 8.594 5.234 9.863l.207 2.04 1.88-.817c3.734-1.62 6.14-4.652 6.956-8.773 1.285-6.446-1.656-14.446-4.238-17.117l-2.156 2.082M281.86 51.93c-1.669 6.988-5.243 8.93-9.094 9.894.379-1.297.601-2.703.601-4.07 0-.984-.105-1.941-.328-2.813l-.851-3.351-1.864 2.918c-2.472 3.883-5.953 5.906-10.637 6.187l.18 2.992c4.137-.246 7.574-1.71 10.305-4.316-.2 1.395-.555 2.754-1.188 3.691l-1.992 2.961 3.512-.652c4.266-.789 9.871-1.867 12.965-8.879.222.906.355 1.801.355 2.7 0 .812-.078 1.636-.195 2.488l-.45 3.183 2.727-1.703c4.969-3.105 6.031-6.37 6.184-10.953l-2.996-.102c-.098 2.864-.535 4.782-2.297 6.57-.067-2.171-.594-4.527-2.2-7.175l-1.89-3.113-.848 3.543M251.73 10.066c-2.425.036-4.02 1.446-4.164 3.676-.082 1.309.614 2.375 1.29 3.406.683 1.047 1.39 2.133 1.39 3.555h2.996c0-2.312-1.086-3.976-1.879-5.191-.386-.594-.824-1.266-.804-1.578.023-.403.054-.856 1.214-.871 1.786-.032 3.875 1.234 6.297 2.695 3.797 2.293 8.52 5.148 15.22 5.195l.022-2.996c-5.875-.043-10.03-2.55-13.695-4.766-2.812-1.699-5.246-3.168-7.887-3.125"/><path style="stroke:none;fill-rule:nonzero;fill:#231f20;fill-opacity:1" d="M250.852 12.566c.574 3.149 3.117 7.028 7.351 8.094 1.184.297 3.402.617 4.938-.598.64-.503 1.406-1.48 1.379-3.246l-2.997.04c.004.3-.035.695-.238.855-.36.285-1.324.3-2.348.043-2.82-.711-4.714-3.418-5.136-5.727l-2.95.54M302.066 47.402c1.614 1.84 2.38 3.54 2.528 5.227-2.57-1.79-5.574-2.856-8.207-2.828l.035 3c2.613-.031 6.047 1.55 8.344 3.847l1.726 1.73.758-2.327c1.16-3.582.2-7.059-2.93-10.625l-2.254 1.976M306.34 64.594c.5.933 1.05 2.472 1.265 4.176-1.636-1.793-3.539-3.086-6.418-3.793l-.714 2.91c3.09.758 4.804 2.144 7.058 5.71l1.684 2.657 1.004-2.98c1.406-4.172-.176-8.122-1.242-10.102l-2.637 1.422M268.082 81.895l.402 3 2.141-2.137c2.387-2.387 7.14-4.559 9.184-4.86l-.442-2.964c-1.851.273-5.394 1.699-8.289 3.636.305-2.367 1.36-4.394 3.125-5.656l-1.738-2.437c-3.383 2.414-5.024 6.68-4.383 11.418M295.438 82.207c.84 1.414 1.257 3.379 1.257 5.356 0 .777-.12 1.535-.25 2.285-2.11-3.614-4.984-6.465-8.238-8.024l-1.293 2.707c3.484 1.664 6.633 5.324 8.418 9.785l1.145 2.868 1.543-2.672c2.23-3.86 2.23-10.067 0-13.832l-2.582 1.527M313.133 80.973c1.047 2 1.57 4.218 1.57 6.718 0 .094-.027.204-.027.293-2.086-2.535-4.578-5.09-8.457-6.648l-1.117 2.781c4.05 1.63 6.289 4.485 8.656 7.504l2.937 3.734.586-3.28c.875-4.821.387-8.91-1.496-12.497l-2.652 1.395M315.344 97.7c1.004 1.359 1.386 2.921 1.386 4.437 0 .48-.109.93-.175 1.394-1.89-2.656-4.817-5.574-8.45-6.726l-.906 2.855c3.961 1.258 7.38 5.61 8.442 8.153l1.265 3.03 1.461-2.945c1.524-3.078 2.278-8.062-.613-11.976l-2.41 1.777M264.031 104.703l.281 3.32 2.297-2.414c2.47-2.597 7.149-5.828 10.41-6.523l-.624-2.934c-2.907.621-6.38 2.68-9.149 4.88.617-3.34 2.543-6.024 5.629-7.41l-1.227-2.735c-5.222 2.343-8.14 7.636-7.617 13.816M251.098 86.89v2.852l2.343-1.617c2.621-1.8 6.262-3.781 7.797-4.242l-.86-2.871c-1.456.437-3.89 1.71-6.097 3.035.406-3.164 1.66-7.367 5.356-9.496l-1.5-2.598c-6.356 3.668-7.04 11.668-7.04 14.938M317.352 115.898c2.152 1.805 5.027 5.258 6.046 9.036l.688 2.554 1.836-1.906c3.723-3.871 2.527-8.773 2.015-10.867l-.125-.54-2.93.63.145.62c.215.88.516 2.106.516 3.438 0 .77-.102 1.575-.375 2.364-1.527-3.2-3.879-5.934-5.89-7.625l-1.926 2.296M297.492 123.059l.153 3.238 2.367-2.215c3.008-2.812 6.277-4.852 9.441-5.887l-.93-2.847c-2.511.82-5.046 2.207-7.492 4.015.766-2.543 2.29-5.027 4.285-5.949l-1.253-2.719c-4.325 1.996-6.778 7.973-6.57 12.364M281.45 114.027c2.12.793 4.359 3.895 5.366 6.907-2.703-1.918-5.199-2.657-7.312-3.258l-1.723-.516-.941 2.848 1.848.55c2.812.801 5.722 1.626 9.066 5.122l2.242 2.347.328-3.23c.5-4.895-3.594-12-7.828-13.574l-1.047 2.804M244.809 5.2l.093 3.831 2.993-.074-.09-3.828-2.996.07M247.785 102.438l-.078 3.082 4.129-3.079c1.047-.789 1.957-1.468 2.914-2.039-1.352 2.993-2.074 6.016-2.074 8.97 0 .948.07 1.89.215 2.82l2.96-.458c-.663-4.296.52-8.941 3.419-13.433l2-3.098-3.594.824c-2.48.57-4.215 1.551-5.895 2.735 1.32-2.938 3.805-5.586 6.403-6.297l-.793-2.89c-4.977 1.362-9.461 7.37-9.606 12.862"/><path style="stroke:none;fill-rule:nonzero;fill:#231f20;fill-opacity:1" d="m253.633 110.66 1.472 2.61.274-.157-1.477-2.605-.27.152"/><path style="stroke:none;fill-rule:nonzero;fill:#231f20;fill-opacity:1" d="m242.77 120.246 2.527 1.613c3.516-5.496 8.73-8.851 13.953-8.972l-.07-2.996c-6.317.144-12.293 3.921-16.41 10.355M55.867 23.219c7.93 11.898 15.242 18.34 31.164 18.312 12.692-.02 27.242-4.187 36.867-6.945l-.824-2.883c-9.469 2.711-23.777 6.813-36.047 6.832-14.652.028-21.148-5.7-28.668-16.98l-2.492 1.664"/><path style="stroke:none;fill-rule:nonzero;fill:#231f20;fill-opacity:1" d="M72.387 38.773c4.668 9.457 13.222 14.004 26.148 13.899 15.524-.129 22.278-1.938 30.098-4.031l-.778-2.895c-7.62 2.043-14.203 3.805-29.343 3.93-11.825.094-19.274-3.79-23.442-12.23l-2.683 1.327M126.797 64.266c4.125 8.144 14.183 12.574 28.324 12.476 9.383-.062 20.04-2.172 30.008-5.93l-1.059-2.804c-9.644 3.64-19.93 5.676-28.968 5.738-12.946.09-22.047-3.758-25.633-10.836l-2.672 1.356"/><path style="stroke:none;fill-rule:nonzero;fill:#231f20;fill-opacity:1" d="M95.719 52.328c6.133 7.242 19.277 12.313 32.71 12.61 5.079.113 22.673.046 35.79-5.536l-1.172-2.757c-12.567 5.347-29.625 5.406-34.555 5.296-14.5-.324-25.969-6.21-30.484-11.55l-2.29 1.937M142.105 75.148c2.043 5.106 5.918 8.7 11.512 10.688 13.055 4.64 32.375-.734 41.93-6.04l-1.457-2.616c-8.797 4.882-27.43 10.113-39.469 5.832-4.746-1.688-8.023-4.707-9.73-8.977l-2.786 1.113M177.324 94.422c1.38 2.613 3.922 4.5 7.363 5.46 5.946 1.657 14.153.38 19.954-3.109l-1.543-2.57c-5.07 3.05-12.477 4.223-17.606 2.793-2.664-.742-4.52-2.078-5.515-3.973l-2.653 1.399"/><path style="stroke:none;fill-rule:nonzero;fill:#231f20;fill-opacity:1" d="M161.879 87c1.473 2.227 4.926 7.438 14.191 8.215 6.668.555 15.368-1.25 25.86-5.367l-1.098-2.79c-10.059 3.95-18.305 5.688-24.512 5.169-7.816-.657-10.504-4.707-11.945-6.883L161.879 87M189.8 99.54c.22 2.636 3.45 5.655 7.677 7.183 2.878 1.039 10.27 2.75 16.66-3.758l-2.14-2.098c-5.177 5.27-11.169 3.875-13.505 3.035-3.531-1.273-5.613-3.539-5.707-4.613l-2.984.25"/><path style="stroke:none;fill-rule:nonzero;fill:#231f20;fill-opacity:1" d="M222.367 106.762c-1.078 2.605-4.652 4.281-8.898 4.175-3.547-.09-8.031-1.511-9.977-5.242l-2.656 1.39c2.133 4.08 6.945 6.704 12.559 6.849 4.593.113 8.44-1.54 10.558-4.239 2.414 2.336 5.414 3.696 8.535 3.664 3.446-.035 6.785-1.695 9.739-4.707 2.425.496 4.875.461 7.289-.289l-.887-2.86c-2.195.68-4.332.724-6.531.134l-.883-.239-.613.68c-2.512 2.777-5.329 4.258-8.141 4.281-2.797.032-5.54-1.41-7.531-3.949l-1.582-2.02-.98 2.372M30.48 39.34l-.574 2.941c13.82 2.696 31.5 1.145 45.36-.511l-.356-2.977c-13.64 1.629-31.02 3.164-44.43.547M49.578 53.441l-.715 2.91c14.649 3.587 36.446 3.11 50.707-1.109l-.851-2.87c-13.817 4.081-34.942 4.542-49.14 1.07M74.074 73.727c25.086 9.097 58.375 3.457 67.98 1.511l-.597-2.933c-9.41 1.902-42.004 7.437-66.36-1.395l-1.023 2.817M115.297 90.621v3c13.117 0 32.281-3.566 39.426-7.34l-1.399-2.652c-6.683 3.531-25.523 6.992-38.027 6.992M142.84 100.39l-.113 2.993c6.625.25 22.972-3.754 29.855-8.977l-1.812-2.386c-6.301 4.78-21.864 8.597-27.93 8.37M150.355 104.895l-.238 2.984c9.586.766 24.024-1.285 33.176-9.59l-2.012-2.219c-8.445 7.66-21.933 9.54-30.926 8.825M166.723 118.398l1.941 2.286c2.063-1.75 4.316-4.43 6.184-7.344l-2.528-1.617c-1.683 2.636-3.777 5.132-5.597 6.675M177.129 119.363l1.887 2.328c2.047-1.656 3.754-3.66 5.543-6.504l-2.54-1.593c-1.605 2.55-3.113 4.332-4.89 5.77M189.605 120.004l-.3.34 2.238 1.988.3-.336 3.602-4.129-2.32-1.894-3.52 4.03M200.16 122.2l2.309 1.91 4.61-5.57-2.31-1.911-4.609 5.57M111.7 37.188c2.253 5.535 7.855 11.214 14.195 11.367 7.949.191 19.27-3.274 28.168-8.617l-1.543-2.57c-8.454 5.077-19.125 8.37-26.555 8.194-5.05-.12-9.606-4.874-11.488-9.503l-2.778 1.129"/><path style="stroke:none;fill-rule:nonzero;fill:#231f20;fill-opacity:1" d="M145.07 50.516c-4.37-.004-7.957-1.61-10.957-4.907l-2.215 2.02c3.547 3.898 7.98 5.879 13.168 5.883 8.649.008 18.282-5.364 26.563-10.625l-1.606-2.528c-7.457 4.735-17.027 10.164-24.953 10.157"/><path style="stroke:none;fill-rule:nonzero;fill:#231f20;fill-opacity:1" d="M178.86 48.918c-5.258 3.633-10.7 7.387-15.9 7.55-3.835.122-7.323-1.75-10.663-5.722l-2.293 1.93c3.969 4.719 8.238 6.941 13.05 6.789 6.083-.192 11.891-4.203 17.508-8.082l2.63-1.801-1.672-2.484-2.66 1.82"/><path style="stroke:none;fill-rule:nonzero;fill:#231f20;fill-opacity:1" d="M175.43 60.684c-4.899.27-6.453-1.61-7.332-3.485l-2.715 1.27c1.77 3.785 5.11 5.488 10.21 5.207 5.704-.313 12.575-3.653 18.387-8.934l-2.015-2.219c-5.317 4.832-11.5 7.883-16.535 8.16"/><path style="stroke:none;fill-rule:nonzero;fill:#231f20;fill-opacity:1" d="M183.055 65.031c-1.88-.535-3.309-1.683-4.243-3.41l-2.636 1.43c1.336 2.46 3.375 4.097 6.058 4.863 5.028 1.434 11.95-.332 20.57-5.25l-1.488-2.602c-9.832 5.61-15.355 5.797-18.261 4.97"/><path style="stroke:none;fill-rule:nonzero;fill:#231f20;fill-opacity:1" d="M182.309 66.941c.953 3.2 2.902 5.47 5.789 6.746 8.308 3.672 21.34-2.199 23.867-3.414l-1.3-2.703c-5.157 2.48-15.462 5.985-21.352 3.375-2.083-.918-3.43-2.507-4.133-4.86l-2.871.856"/><path style="stroke:none;fill-rule:nonzero;fill:#231f20;fill-opacity:1" d="M190.617 74.543c5.293 9.496 12.903 10.715 29.07 4.648l-1.05-2.804c-16.473 6.18-21.477 3.734-25.403-3.305l-2.617 1.461"/><path style="stroke:none;fill-rule:nonzero;fill:#231f20;fill-opacity:1" d="M202.395 82.543c1.457 3.562 4.097 6.078 7.644 7.285 5.211 1.77 12.164.594 18.602-3.152l-1.508-2.59c-5.7 3.316-11.727 4.402-16.13 2.902-2.737-.93-4.702-2.808-5.839-5.582l-2.77 1.137"/><path style="stroke:none;fill-rule:nonzero;fill:#231f20;fill-opacity:1" d="M215.984 90.305c1.57 3.582 4.215 6.05 7.45 6.949 3.882 1.082 8.488-.117 13.656-3.41 1.863 4.054 4.64 4.886 8.617 4.832l-.039-2.996c-3.41.047-5.05-.371-6.422-4.54l-.637-1.925-1.652 1.172c-5.066 3.578-9.348 4.918-12.723 3.98-3.007-.84-4.652-3.328-5.504-5.265l-2.746 1.203M482.977 34.563c-12.848-.024-24.106-1.391-33.454-4.07l-.828 2.882c9.618 2.754 21.149 4.16 34.282 4.184 13.89.02 22.832-4.5 30.847-15.602l-2.426-1.754c-7.48 10.352-15.449 14.379-28.421 14.36"/><path style="stroke:none;fill-rule:nonzero;fill:#231f20;fill-opacity:1" d="M467.55 48.672c-6.14.043-14.198-1.152-22.116-3.27l-.774 2.895c8.16 2.183 16.512 3.414 22.906 3.375 12.192-.082 20.426-4.664 27.54-15.324l-2.497-1.664c-6.578 9.863-13.84 13.918-25.058 13.988M390.113 66.86c7.207 4.75 18.13 11.07 29.657 11.074 8.101.004 15.59-3.114 22.253-9.27l-2.035-2.2c-6.175 5.708-12.789 8.477-20.218 8.474-10.723-.004-21.122-6.043-28.008-10.583l-1.649 2.504"/><path style="stroke:none;fill-rule:nonzero;fill:#231f20;fill-opacity:1" d="M441.676 65.57c-8.293.243-24.934-4.484-33.164-10.715l-1.809 2.391c8.844 6.691 26.106 11.582 35.059 11.32 14.422-.421 28.554-10.925 34.078-17.449l-2.285-1.933c-5.188 6.129-18.43 15.996-31.88 16.386M381.129 75.05c4.191 7.79 14.871 13.532 25.39 13.66 9.387.11 16.946-4.022 21.29-11.647l-2.606-1.485c-5.098 8.953-13.871 10.192-18.644 10.137-9.5-.117-19.082-5.195-22.793-12.086l-2.637 1.422M383.297 99.934c-5 .156-10.684-1.614-14.149-4.403l-1.878 2.332c4.043 3.258 10.37 5.246 16.12 5.067 5.52-.176 9.844-2.301 12.173-5.985l-2.536-1.601c-2.398 3.804-7.125 4.508-9.73 4.59"/><path style="stroke:none;fill-rule:nonzero;fill:#231f20;fill-opacity:1" d="M369.664 86.078c10.059 9.586 19.477 10.777 25.606 10.086 7.921-.89 13.468-5.14 15.105-7.61l-2.496-1.656c-1.086 1.637-5.848 5.489-12.945 6.29-5.497.617-13.98-.489-23.204-9.278l-2.066 2.168M373.121 105.02c-2.652.253-6.558-.2-10.101-3.805l-2.137 2.097c4.37 4.454 9.222 5.008 12.523 4.688 5.364-.516 9.79-3.621 11.23-6.285L382 100.289c-1.063 1.965-4.762 4.332-8.879 4.73"/><path style="stroke:none;fill-rule:nonzero;fill:#231f20;fill-opacity:1" d="M350.914 107.813c-1.066 2.648-2.61 4.359-4.125 4.574-1.543.218-2.937-1.106-3.832-2.25l-2.36 1.847c2.505 3.204 4.977 3.602 6.614 3.371 2.086-.296 3.934-1.793 5.371-4.218 2.531 2.77 6.04 4.199 9.84 3.8 4.46-.464 8.226-3.289 9.598-7.187l-2.825-.992c-.988 2.812-3.77 4.851-7.086 5.199-3.507.367-6.617-1.223-8.523-4.363l-1.555-2.555-1.117 2.773M463.184 74.219c-10.23.144-20.04-.895-27.633-2.934l-.778 2.895c7.852 2.11 17.957 3.183 28.454 3.035 15.293-.219 30-2.942 41.406-7.66l-1.145-2.77c-11.066 4.578-25.383 7.219-40.304 7.434M417.7 85.16c5.898 5.781 30.234 9.074 44.788 7.414l-.34-2.976c-14.617 1.668-37.574-1.899-42.355-6.578l-2.094 2.14M406.41 91.297c6.695 5.074 20.238 12 27.09 11.742l-.113-2.996c-5.535.21-18.29-5.922-25.164-11.137l-1.813 2.39M394.344 96.922c7.086 8.586 20.691 13.226 33.09 11.289l-.465-2.957c-11.403 1.777-23.867-2.43-30.317-10.238l-2.308 1.906M404.836 110.574l1.445 2.305c1.492 2.394 3.18 5.113 4.703 7.066l2.36-1.843c-1.422-1.829-3.067-4.473-4.516-6.805l-1.465-2.34-2.527 1.617M395.758 112.484l1.406 3.098c.906 2.11 1.762 4.11 2.828 5.266l2.203-2.024c-.715-.785-1.507-2.633-2.273-4.426l-1.5-3.289-2.664 1.375M384.445 114.379l1.035 2.73c1.188 3.286 1.665 4.473 2.157 5.028l2.289-1.934c-.305-.445-1.133-2.742-1.625-4.11l-1.156-3.019-2.7 1.305M371.145 118.21l3.293 6.18 2.644-1.41-3.293-6.18-2.644 1.41M447.324 45.043c-7.547.18-14.273-3.863-22.062-8.54l-1.543 2.567c8.187 4.922 15.261 9.168 23.676 8.965 6.058-.14 14.05-5.836 16.445-11.71l-2.777-1.134c-1.942 4.762-8.875 9.735-13.739 9.852"/><path style="stroke:none;fill-rule:nonzero;fill:#231f20;fill-opacity:1" d="m409.164 45.352.738.414c9.68 5.433 22.934 12.879 34.996 2.328l-1.972-2.254c-10.469 9.156-22.16 2.59-31.555-2.688l-.742-.418-1.465 2.618"/><path style="stroke:none;fill-rule:nonzero;fill:#231f20;fill-opacity:1" d="M392 49.758c6.012 4.043 10.758 7.234 17.89 7.46 4.434.137 9.122-.152 13.395-5.234l-2.293-1.93c-3.418 4.067-7.008 4.294-11.008 4.169-5.98-.188-9.898-2.637-16.312-6.953L392 49.758"/><path style="stroke:none;fill-rule:nonzero;fill:#231f20;fill-opacity:1" d="M381.04 55.781c2.858 2.598 11.112 6.094 18.058 5.883 4.328-.129 7.527-1.727 9.254-4.617l-2.57-1.535c-1.192 1.996-3.473 3.058-6.774 3.16-6.012.18-13.582-2.953-15.953-5.11l-2.016 2.22"/><path style="stroke:none;fill-rule:nonzero;fill:#231f20;fill-opacity:1" d="M386.465 65.5c-3.442 0-7.676-1.422-12.594-4.227l-1.484 2.602c5.375 3.066 10.11 4.621 14.074 4.621 4.887.004 8.746-2.36 11.168-6.832l-2.633-1.426c-1.922 3.543-4.71 5.266-8.531 5.262"/><path style="stroke:none;fill-rule:nonzero;fill:#231f20;fill-opacity:1" d="M379.684 72.238c-3.22.29-6.98-.468-10.32-2.074l-1.298 2.703c3.813 1.832 8.145 2.692 11.887 2.356 4.906-.442 8.625-2.856 10.75-6.985l-2.664-1.37c-1.656 3.21-4.469 5.019-8.355 5.37"/><path style="stroke:none;fill-rule:nonzero;fill:#231f20;fill-opacity:1" d="M371.8 81.926c-3.16.027-7.257-1.172-12.898-3.77l-1.254 2.723c6.055 2.789 10.563 4.074 14.172 4.047 6.34-.055 9.567-4.32 11.887-8.485l-2.617-1.457c-2.766 4.961-5.371 6.91-9.29 6.942M361.254 120.762v1.73h2.996v-1.73h-2.996"/><path style="stroke:none;fill-rule:nonzero;fill:#231f20;fill-opacity:1" d="M363.223 89.156c-2.88.211-6.496-.754-9.004-2.402l-3.082-2.031.797 3.605c.449 2.05.234 3.875-.614 5.14-.535.805-1.304 1.317-2.218 1.477-1.567.278-3.36-.48-5.18-2.183l-2.047 2.187c3.203 3 5.98 3.258 7.746 2.95 1.715-.305 3.203-1.286 4.192-2.762.843-1.262 1.265-2.828 1.308-4.54 2.649 1.145 5.68 1.743 8.317 1.548 4.183-.305 7.382-2.54 9.003-6.293l-2.753-1.188c-1.188 2.754-3.364 4.266-6.465 4.492M297.438 146.86c.093 4.476 1.667 8.288 4.546 11.019l1.965 1.867.606-3.008c.304-1.531.629-3.02 1.586-4.972a17.38 17.38 0 0 1 2.246 2.515l1.336 1.852 2.156-3.63c1.203-2.128 2.738-4.702 5.582-6.593 1.894 1.102 4.43 3.5 6.031 5.047l3.176 2.922.812-1.781c1.606-2.97 3.375-4.618 5.579-6.352.57.34 1.191.707 1.191.707l1.727-2.45-3.27-1.937-.691.68c-1.875 1.441-4.133 3.266-6.149 6.324a44.223 44.223 0 0 1-.293-.273c-2.066-1.988-5.183-4.992-7.597-6.04l-.692-.296-.652.371c-3.934 2.258-5.848 5.527-7.238 7.988-.856-.96-1.754-1.847-2.786-2.625l-1.328-1-.855 1.43c-1.156 1.926-1.754 3.45-2.156 4.82-1.141-1.86-1.782-4.07-1.836-6.648-.004-.129-.004-.258-.004-.387 0-5.055 2.113-9.597 3.59-11.125l-2.153-2.082c-2.242 2.317-4.555 7.89-4.43 13.656"/><path style="stroke:none;fill-rule:nonzero;fill:#fdb913;fill-opacity:1" d="M222.676 191.734c-.238-2.73 1.804-7.968 5.793-9.453-.184 1.696-.117 4.004.699 5.516-2.34.48-4.863 2.316-6.492 3.937"/><path style="stroke:none;fill-rule:nonzero;fill:#231f20;fill-opacity:1" d="M227.945 180.875c-4.632 1.727-7.062 7.563-6.761 10.992l.277 3.2 2.273-2.27c1.371-1.367 3.696-3.11 5.739-3.531l1.976-.407-.96-1.773c-.634-1.172-.688-3.168-.528-4.645l.262-2.414-2.278.848m-.965 4.137c.047.625.16 1.218.329 1.863-.825.32-1.59.695-2.297 1.145.468-1.09 1.09-2.16 1.968-3.008"/><path style="stroke:none;fill-rule:nonzero;fill:#fdb913;fill-opacity:1" d="M251.125 205.984c-2.527-1.129-5.164-4.28-3.906-8.152 1.601-.3 3.754-.484 5.355.106-.722 2.68-1.742 5.769-1.449 8.046"/><path style="stroke:none;fill-rule:nonzero;fill:#231f20;fill-opacity:1" d="m246.941 196.355-.875.165-.277.847c-1.445 4.469 1.356 8.485 4.723 9.988l2.437 1.09-.336-2.648c-.215-1.656.477-4.125 1.086-6.3l.692-2.497-1.293-.469c-1.965-.722-4.43-.496-6.157-.176m3.75 2.793a34.929 34.929 0 0 0-.875 4.004c-.793-.867-1.418-1.996-1.418-3.351 0-.192.075-.399.098-.598a10.577 10.577 0 0 1 2.195-.055"/><path style="stroke:none;fill-rule:nonzero;fill:#fdb913;fill-opacity:1" d="M283.805 182.992c-.368-3.367-4.598-6.539-7.614-6.496.297 1.676.11 3.184.075 4.758 2.593.258 5.71.984 7.539 1.738"/><path style="stroke:none;fill-rule:nonzero;fill:#231f20;fill-opacity:1" d="m276.172 174.996-1.762.027.305 1.735c.195 1.105.144 2.172.094 3.3l-.098 2.575 1.402.113c2.418.242 5.41.926 7.117 1.633l2.336.965-.27-2.512c-.456-4.21-5.483-7.887-9.124-7.836m1.683 3.55c0-.054-.011-.112-.011-.167 1.101.422 2.168 1.203 3.027 2.152a36.39 36.39 0 0 0-3.058-.578c.023-.465.042-.926.042-1.406M255.637 165.035l.086 2.992 5.308-.02 3.301.013-.02-2.997-3.257-.011-5.418.023M257.39 159.871l.051 2.996 7.743-.14-.055-2.997-7.738.141M265.297 154.547l-6.738.133.046 2.996 7.672-.153 1.356-2.085c-.399-.934-1.043-.918-2.336-.891"/><path style="stroke:none;fill-rule:nonzero;fill:#211c1d;fill-opacity:1" d="M243.086 177.91c-2.242.488-4.547.715-6.73 1.153.242.242.558.406.882.566l.223 3.57c1.562.45 1.277-1.515 2.84-1.515l2.863-.883c0-.235-.012-1.434-.078-2.89m-5.375 8.91c1.27-.36 2.594-.954 4.238-1.923a3.82 3.82 0 0 1-.02-.355c-1.34 0-3.128.445-4.023 1.117 0 .254-.07.672-.195 1.16m4.277-1.625c-2.074 1.688-3.59 3.383-4.433 5.805 1.945-.023 4.117.004 5.492.691.594-1.785-.75-4.629-1.059-6.496m6.961 4.602c-.488 1.726-1.101 3.324-1.465 5.039l2.82-1.203c.223-.895 2.598-3.918 3.716-3.918-.516-.516-3.31-.125-5.07.082m25.198-13.95c-3.617-.824-4.046-2.804-8.41-5 .532 4.598 2.774 7.887 8.137 7.887.191-.773.258-1.793.273-2.886"/><path style="stroke:none;fill-rule:nonzero;fill:#fdb913;fill-opacity:1" d="M320.05 145.922c.243 8.598 1.798 22.262 9.458 27.73 6.472 4.618 11.5 3.078 16.137 7.235l-.391 4.66c-8.164-2.656-5.055-.176-11.625-2.047 4.98 3.531 6.562 3.64 7.16 9.484-1.95.41-2.887 2.125-4.207 2.934-2.363-2.488-6.668-3.688-9.887-9.027.426 4.175 1.067 8.086 1.067 12.105-1.719-.277-3.434-.316-5.149 0-1.504-3.293-5.027-10.695-5.027-14.504-4.492 0-4.684-4.699-8.91-5.422-1.906-.324-4.754 1.153-7.29.75-.238-1.886-.019-3.547-.019-5.234 4.703-1.473 6.082-4.488 11.73-7.145 2.024-4.472.274-10.328-1.171-17.793 1.234-2.675 3.152-3.878 5.402-5.652.637.277 2.098 1.484 2.723 1.926"/><path style="stroke:none;fill-rule:nonzero;fill:#231f20;fill-opacity:1" d="m316.402 142.816-.882.688c-1.918 1.476-3.735 2.867-4.957 5.516l-.208.445.774 3.812c.742 3.586 1.387 6.696 1.387 9.34 0 1.399-.22 2.64-.657 3.778-2.457 1.23-4.148 2.515-5.617 3.66-1.73 1.343-3.097 2.402-5.324 3.101l-1.023.32-.075 2.665.106 5.125 1.226.039c1.63.257 3.246-.102 4.676-.418 1.024-.227 1.992-.442 2.598-.336 1.472.254 2.277 1.148 3.293 2.285 1.054 1.18 2.379 2.531 4.55 2.965.454 3.59 2.575 8.578 4.668 13.14l.797 1.739 1.153-.207c1.449-.27 2.965-.266 4.633.004l1.742.28v-1.76c0-2.45-.242-4.817-.52-7.247 1.371 1.281 2.746 2.242 3.961 3.059 1.121.75 2.086 1.398 2.79 2.14l.964 1.016.906-.77 1.598-1.316c.703-.672 1.309-1.25 2.137-1.426l1.32-.277-.14-1.344c-.383-3.809-1.266-5.55-3.016-7.113.894-.008 2.156.16 5.523 1.254l1.805.59.61-7.293-.555-.5c-2.59-2.325-5.223-3.032-8.012-3.782-2.578-.695-5.246-1.414-8.25-3.558-6.824-4.868-8.567-17.125-8.832-26.547l-.02-.723-1.3-.98-3.204-2.168-.625.804m.946 3.067s.043-.035.047-.04a322.079 322.079 0 0 1 1.195.856c.355 10.004 2.406 22.719 10.05 28.172 3.446 2.461 6.508 3.285 9.212 4.016 2.312.62 4.332 1.21 6.226 2.699a375.36 375.36 0 0 1-.168 1.988c-3.195-.926-4.351-.89-5.414-.828-.867.05-1.683.102-4.457-.687l-8.8-2.512 9.574 6.586c2.945 1.988 3.843 2.754 4.316 5.976a9.905 9.905 0 0 0-2.242 1.606s-.172.148-.282.238a30.67 30.67 0 0 0-2.226-1.637c-2.098-1.406-4.473-3-6.399-6.199l-3.539-5.883 1.145 10.192c.277 2.383.5 4.656.594 6.937a15.598 15.598 0 0 0-2.64.051c-1.524-3.32-4.454-9.766-4.454-12.922v-1.5h-1.5c-1.625 0-2.399-.777-3.633-2.156-1.117-1.254-2.515-2.813-5.023-3.242-1.188-.203-2.43.07-3.75.363-.785.176-1.57.293-2.325.356-.02-.977-.035-2.047-.035-2.047l.016-.641c2.148-.848 3.68-1.988 5.246-3.203 1.543-1.2 3.14-2.442 5.648-3.621l.504-.235.227-.504c.758-1.667 1.047-3.48 1.047-5.43 0-3.003-.688-6.331-1.442-9.964l-.562-2.77c.902-1.714 2.148-2.71 3.844-4.015"/><path style="stroke:none;fill-rule:nonzero;fill:#fdb913;fill-opacity:1" d="M341.547 201.977c1.11-1.68 1.824-6.657-.238-9.47-1.282.513-3.649 2.274-4.692 3.458 1.547 1.515 3.73 3.781 4.93 6.012"/><path style="stroke:none;fill-rule:nonzero;fill:#231f20;fill-opacity:1" d="M340.75 191.113c-1.617.649-4.152 2.61-5.258 3.864l-.937 1.066 1.015.996c.844.824 3.407 3.332 4.657 5.649l1.187 2.203 1.383-2.086c1.496-2.262 2.148-7.875-.281-11.188l-.688-.933-1.078.43m-.117 3.484c.3.828.488 1.718.488 2.629 0 .46-.086.859-.14 1.293a34.735 34.735 0 0 0-2.22-2.524c.587-.5 1.255-.992 1.872-1.398"/><path style="stroke:none;fill-rule:nonzero;fill:#fdb913;fill-opacity:1" d="M351.867 190.172c.242-2.73-1.8-7.969-5.793-9.453-.058 1.613-.195 3.129-.699 4.746 2.23.91 4.79 3.402 6.492 4.707"/><path style="stroke:none;fill-rule:nonzero;fill:#231f20;fill-opacity:1" d="M344.578 180.66c-.058 1.586-.191 2.934-.637 4.36l-.406 1.312 1.274.52c1.421.582 3.171 2.05 4.582 3.234l3.761 3.07.211-2.851c.301-3.43-2.129-9.27-6.761-10.993l-1.946-.722-.078 2.07m2.79 2.656c.921.832 1.605 1.883 2.105 2.993-.79-.618-1.586-1.114-2.41-1.579.105-.472.246-.957.304-1.414"/><path style="stroke:none;fill-rule:nonzero;fill:#fdb913;fill-opacity:1" d="M324.008 206.57c2.523-1.129 5.16-4.277 3.906-8.152-1.605-.3-3.754-.484-5.36.105.727 2.68 1.747 5.766 1.454 8.047"/><path style="stroke:none;fill-rule:nonzero;fill:#231f20;fill-opacity:1" d="m322.035 197.117-1.297.477.692 2.484c.61 2.18 1.3 4.645 1.09 6.3l-.34 2.65 2.437-1.087c3.371-1.504 6.172-5.515 4.727-9.988l-.278-.848-.878-.164c-1.723-.32-4.192-.546-6.153.176m4.602 2.672c.023.195.093.406.093.598 0 1.355-.625 2.48-1.418 3.347a34.231 34.231 0 0 0-.875-4 10.619 10.619 0 0 1 2.2.055"/><path style="stroke:none;fill-rule:nonzero;fill:#fdb913;fill-opacity:1" d="M294.848 182.781c-.239-3.367 3.28-7.87 6.629-7.828-.293 1.676-.106 3.184-.07 4.762-2.594.644-4.735 2.015-6.56 3.066"/><path style="stroke:none;fill-rule:nonzero;fill:#231f20;fill-opacity:1" d="M296.152 176.074c-1.882 1.996-2.957 4.61-2.8 6.813l.168 2.402 2.75-1.598c1.605-.941 3.421-2.004 5.5-2.523l1.18-.297-.09-2.355c-.051-1.13-.098-2.196.093-3.301l.309-1.738-1.766-.024c-1.828-.02-3.726.91-5.344 2.621m2.184 2.063c.469-.5.976-.883 1.48-1.172l-.003.039c0 .562.027 1.11.05 1.648l.004.043c-.922.317-1.816.63-2.613 1.035.312-.55.629-1.117 1.082-1.593M317.7 163.477l-3.833.054-.015 2.996 3.918-.054 5.101-.036.082-2.996-5.254.036M314.41 159.27l.09 2.992 7.484-.219-.09-2.996-7.484.223M312.563 155.16l1.167 2.563c.567-.043 5.899-.426 7.176-.407l.047-2.996c-.074-.004-7.488-.047-8.39.84"/><path style="stroke:none;fill-rule:nonzero;fill:#211c1d;fill-opacity:1" d="M334.164 177.066c2.238.489 4.899.996 7.078 1.43-1.539 1.574-1.48-.223-1.668 2.73-1.562.45-1.347-.601-2.91-.601l-2.863-.883c0-.234.297-1.219.363-2.676m-.394 6.649c2.078 1.683 5.5 4.863 6.347 7.285-1.949-.023-3.695-.633-5.07.055.398-4.243-2.64-3.645-1.277-7.34m-8.172 6.277c.488 1.727 1.101 3.324 1.46 5.035l-2.816-1.199c-.222-.894-1.43-3.918-2.547-3.918.52-.515 2.14-.125 3.903.082m-21.586-16.246c3.617-.824 4.05-2.805 8.414-5-.531 4.598-2.778 7.887-8.14 7.887-.192-.774-.259-1.793-.274-2.887"/><path style="stroke:none;fill-rule:nonzero;fill:#231f20;fill-opacity:1" d="m275.535 229.95 1.004.07c1.164.082 1.941.257 2.324.527.387.27.559.703.516 1.305-.04.57-.281.957-.73 1.16-.446.203-1.247.261-2.403.183l-.933-.066.222-3.18m-.379 12.63c1.961.136 3.38.179 4.25.12.871-.058 1.61-.21 2.219-.46.746-.298 1.336-.747 1.77-1.356.43-.61.675-1.332.734-2.164.082-1.168-.195-2.125-.84-2.871-.64-.743-1.57-1.2-2.785-1.371 1.105-.192 1.926-.536 2.46-1.028.536-.492.833-1.183.895-2.082.051-.707-.074-1.344-.367-1.906-.297-.563-.75-1.027-1.363-1.395-.54-.312-1.188-.554-1.953-.722-.766-.168-2.117-.32-4.063-.453l-4.726-.332-1.098 15.68 4.867.34m-.043-6.645 1.711.12c1.149.083 1.93.266 2.332.555.406.29.59.766.543 1.43-.043.59-.304.996-.785 1.223-.484.222-1.281.297-2.398.218l-1.641-.117.238-3.43"/><g style="fill:#fff;fill-opacity:1"><use xlink:href="#d" x="247.859" y="468.595"/><use xlink:href="#e" x="278.898" y="437.621"/><use xlink:href="#f" x="296.169" y="420.386"/><use xlink:href="#e" x="327.208" y="389.412"/><use xlink:href="#g" x="344.479" y="372.178"/><use xlink:href="#e" x="377.465" y="339.261"/></g></svg>